<?xml version="1.0" encoding="us-ascii" standalone="no"?><svg xmlns="http://www.w3.org/2000/svg" xmlns:xlink="http://www.w3.org/1999/xlink" contentStyleType="text/css" height="542px" preserveAspectRatio="none" style="width:2037px;height:542px;background:#FFFFFF;" version="1.1" viewBox="0 0 2037 542" width="2037px" zoomAndPan="magnify"><defs/><g><!--class GreenSpace--><g id="elem_GreenSpace"><rect codeLine="11" fill="#F1F1F1" height="196.3945" id="GreenSpace" rx="2.5" ry="2.5" style="stroke:#181818;stroke-width:0.5;" width="206" x="1462" y="197.96"/><ellipse cx="1520.25" cy="213.96" fill="#ADD1B2" rx="11" ry="11" style="stroke:#181818;stroke-width:1.0;"/><path d="M1523.2231,219.6031 Q1522.6421,219.9019 1522.0029,220.0513 Q1521.3638,220.2007 1520.6582,220.2007 Q1518.1514,220.2007 1516.8315,218.5489 Q1515.5117,216.897 1515.5117,213.7759 Q1515.5117,210.6465 1516.8315,208.9947 Q1518.1514,207.3428 1520.6582,207.3428 Q1521.3638,207.3428 1522.0112,207.4922 Q1522.6587,207.6416 1523.2231,207.9405 L1523.2231,210.6631 Q1522.5923,210.0821 1521.9988,209.8123 Q1521.4053,209.5425 1520.7744,209.5425 Q1519.4297,209.5425 1518.7449,210.6092 Q1518.0601,211.6758 1518.0601,213.7759 Q1518.0601,215.8677 1518.7449,216.9344 Q1519.4297,218.001 1520.7744,218.001 Q1521.4053,218.001 1521.9988,217.7312 Q1522.5923,217.4615 1523.2231,216.8804 Z " fill="#000000"/><text fill="#000000" font-family="sans-serif" font-size="14" lengthAdjust="spacing" textLength="81" x="1540.75" y="219.251">GreenSpace</text><line style="stroke:#181818;stroke-width:0.5;" x1="1463" x2="1667" y1="229.96" y2="229.96"/><text fill="#000000" font-family="sans-serif" font-size="14" lengthAdjust="spacing" textLength="91" x="1468" y="247.4952">-String name</text><text fill="#000000" font-family="sans-serif" font-size="14" lengthAdjust="spacing" textLength="90" x="1468" y="263.9834">-double area</text><text fill="#000000" font-family="sans-serif" font-size="14" lengthAdjust="spacing" textLength="155" x="1468" y="280.4717">-GreenSpaceType type</text><text fill="#000000" font-family="sans-serif" font-size="14" lengthAdjust="spacing" textLength="90" x="1468" y="296.96">-String email</text><line style="stroke:#181818;stroke-width:0.5;" x1="1463" x2="1667" y1="303.9131" y2="303.9131"/><text fill="#000000" font-family="sans-serif" font-size="14" lengthAdjust="spacing" textLength="127" x="1468" y="321.4483">+String getName()</text><text fill="#000000" font-family="sans-serif" font-size="14" lengthAdjust="spacing" textLength="127" x="1468" y="337.9366">+double getArea()</text><text fill="#000000" font-family="sans-serif" font-size="14" lengthAdjust="spacing" textLength="194" x="1468" y="354.4248">+GreenSpaceType getType()</text><text fill="#000000" font-family="sans-serif" font-size="14" lengthAdjust="spacing" textLength="125" x="1468" y="370.9131">+String getEmail()</text><text fill="#000000" font-family="sans-serif" font-size="14" lengthAdjust="spacing" textLength="148" x="1468" y="387.4014">+void displayDetails()</text></g><!--class GreenSpaceRepository--><g id="elem_GreenSpaceRepository"><rect codeLine="24" fill="#F1F1F1" height="113.9531" id="GreenSpaceRepository" rx="2.5" ry="2.5" style="stroke:#181818;stroke-width:0.5;" width="385" x="1645.5" y="7"/><ellipse cx="1756.75" cy="23" fill="#ADD1B2" rx="11" ry="11" style="stroke:#181818;stroke-width:1.0;"/><path d="M1759.7231,28.6431 Q1759.1421,28.9419 1758.5029,29.0913 Q1757.8638,29.2407 1757.1582,29.2407 Q1754.6514,29.2407 1753.3315,27.5889 Q1752.0117,25.937 1752.0117,22.8159 Q1752.0117,19.6865 1753.3315,18.0347 Q1754.6514,16.3828 1757.1582,16.3828 Q1757.8638,16.3828 1758.5112,16.5322 Q1759.1587,16.6816 1759.7231,16.9805 L1759.7231,19.7031 Q1759.0923,19.1221 1758.4988,18.8523 Q1757.9053,18.5825 1757.2744,18.5825 Q1755.9297,18.5825 1755.2449,19.6492 Q1754.5601,20.7158 1754.5601,22.8159 Q1754.5601,24.9077 1755.2449,25.9744 Q1755.9297,27.041 1757.2744,27.041 Q1757.9053,27.041 1758.4988,26.7712 Q1759.0923,26.5015 1759.7231,25.9204 Z " fill="#000000"/><text fill="#000000" font-family="sans-serif" font-size="14" lengthAdjust="spacing" textLength="154" x="1777.25" y="28.291">GreenSpaceRepository</text><line style="stroke:#181818;stroke-width:0.5;" x1="1646.5" x2="2029.5" y1="39" y2="39"/><text fill="#000000" font-family="sans-serif" font-size="14" lengthAdjust="spacing" textLength="225" x="1651.5" y="56.5352">-List&lt;GreenSpace&gt; greenSpaces</text><line style="stroke:#181818;stroke-width:0.5;" x1="1646.5" x2="2029.5" y1="63.4883" y2="63.4883"/><text fill="#000000" font-family="sans-serif" font-size="14" lengthAdjust="spacing" textLength="326" x="1651.5" y="81.0234">+void addGreenSpace(GreenSpace greenSpace)</text><text fill="#000000" font-family="sans-serif" font-size="14" lengthAdjust="spacing" textLength="261" x="1651.5" y="97.5117">+List&lt;GreenSpace&gt; getGreenSpaces()</text><text fill="#000000" font-family="sans-serif" font-size="14" lengthAdjust="spacing" textLength="373" x="1651.5" y="114">+List&lt;GreenSpace&gt; findByUserEmail(String userEmail)</text></g><!--class RegisterGreenSpaceController--><g id="elem_RegisterGreenSpaceController"><rect codeLine="32" fill="#F1F1F1" height="64.4883" id="RegisterGreenSpaceController" rx="2.5" ry="2.5" style="stroke:#181818;stroke-width:0.5;" width="291" x="757.5" y="31.74"/><ellipse cx="795.9" cy="47.74" fill="#ADD1B2" rx="11" ry="11" style="stroke:#181818;stroke-width:1.0;"/><path d="M798.8731,53.3831 Q798.2921,53.6819 797.6529,53.8313 Q797.0138,53.9807 796.3082,53.9807 Q793.8014,53.9807 792.4815,52.3289 Q791.1617,50.677 791.1617,47.5559 Q791.1617,44.4265 792.4815,42.7747 Q793.8014,41.1228 796.3082,41.1228 Q797.0138,41.1228 797.6612,41.2722 Q798.3087,41.4216 798.8731,41.7205 L798.8731,44.4431 Q798.2423,43.8621 797.6488,43.5923 Q797.0553,43.3225 796.4244,43.3225 Q795.0797,43.3225 794.3949,44.3892 Q793.7101,45.4558 793.7101,47.5559 Q793.7101,49.6477 794.3949,50.7144 Q795.0797,51.781 796.4244,51.781 Q797.0553,51.781 797.6488,51.5112 Q798.2423,51.2415 798.8731,50.6604 Z " fill="#000000"/><text fill="#000000" font-family="sans-serif" font-size="14" lengthAdjust="spacing" textLength="207" x="815.1" y="53.031">RegisterGreenSpaceController</text><line style="stroke:#181818;stroke-width:0.5;" x1="758.5" x2="1047.5" y1="63.74" y2="63.74"/><line style="stroke:#181818;stroke-width:0.5;" x1="758.5" x2="1047.5" y1="71.74" y2="71.74"/><text fill="#000000" font-family="sans-serif" font-size="14" lengthAdjust="spacing" textLength="279" x="763.5" y="89.2752">+List&lt;GreenSpace&gt; getAllGreenSpaces()</text></g><!--class ListGreenSpacesUI--><g id="elem_ListGreenSpacesUI"><rect codeLine="36" fill="#F1F1F1" height="80.9766" id="ListGreenSpacesUI" rx="2.5" ry="2.5" style="stroke:#181818;stroke-width:0.5;" width="270" x="452" y="23.49"/><ellipse cx="520.25" cy="39.49" fill="#ADD1B2" rx="11" ry="11" style="stroke:#181818;stroke-width:1.0;"/><path d="M523.2231,45.1331 Q522.6421,45.4319 522.0029,45.5813 Q521.3638,45.7307 520.6582,45.7307 Q518.1514,45.7307 516.8315,44.0789 Q515.5117,42.427 515.5117,39.3059 Q515.5117,36.1765 516.8315,34.5247 Q518.1514,32.8728 520.6582,32.8728 Q521.3638,32.8728 522.0112,33.0222 Q522.6587,33.1716 523.2231,33.4705 L523.2231,36.1931 Q522.5923,35.6121 521.9988,35.3423 Q521.4053,35.0725 520.7744,35.0725 Q519.4297,35.0725 518.7449,36.1392 Q518.0601,37.2058 518.0601,39.3059 Q518.0601,41.3977 518.7449,42.4644 Q519.4297,43.531 520.7744,43.531 Q521.4053,43.531 521.9988,43.2612 Q522.5923,42.9915 523.2231,42.4104 Z " fill="#000000"/><text fill="#000000" font-family="sans-serif" font-size="14" lengthAdjust="spacing" textLength="125" x="540.75" y="44.781">ListGreenSpacesUI</text><line style="stroke:#181818;stroke-width:0.5;" x1="453" x2="721" y1="55.49" y2="55.49"/><line style="stroke:#181818;stroke-width:0.5;" x1="453" x2="721" y1="63.49" y2="63.49"/><text fill="#000000" font-family="sans-serif" font-size="14" lengthAdjust="spacing" textLength="258" x="458" y="81.0252">+ListGreenSpacesUI(String userEmail)</text><text fill="#000000" font-family="sans-serif" font-size="14" lengthAdjust="spacing" textLength="78" x="458" y="97.5134">+void run()</text></g><!--class ConfigReader--><g id="elem_ConfigReader"><rect codeLine="41" fill="#F1F1F1" height="64.4883" id="ConfigReader" rx="2.5" ry="2.5" style="stroke:#181818;stroke-width:0.5;" width="350" x="7" y="263.91"/><ellipse cx="130.75" cy="279.91" fill="#ADD1B2" rx="11" ry="11" style="stroke:#181818;stroke-width:1.0;"/><path d="M133.7231,285.5531 Q133.1421,285.8519 132.5029,286.0013 Q131.8638,286.1507 131.1582,286.1507 Q128.6514,286.1507 127.3315,284.4989 Q126.0117,282.847 126.0117,279.7259 Q126.0117,276.5965 127.3315,274.9447 Q128.6514,273.2928 131.1582,273.2928 Q131.8638,273.2928 132.5112,273.4422 Q133.1587,273.5916 133.7231,273.8905 L133.7231,276.6131 Q133.0923,276.0321 132.4988,275.7623 Q131.9053,275.4925 131.2744,275.4925 Q129.9297,275.4925 129.2449,276.5592 Q128.5601,277.6258 128.5601,279.7259 Q128.5601,281.8177 129.2449,282.8844 Q129.9297,283.951 131.2744,283.951 Q131.9053,283.951 132.4988,283.6812 Q133.0923,283.4115 133.7231,282.8304 Z " fill="#000000"/><text fill="#000000" font-family="sans-serif" font-size="14" lengthAdjust="spacing" textLength="94" x="151.25" y="285.201">ConfigReader</text><line style="stroke:#181818;stroke-width:0.5;" x1="8" x2="356" y1="295.91" y2="295.91"/><line style="stroke:#181818;stroke-width:0.5;" x1="8" x2="356" y1="303.91" y2="303.91"/><text fill="#000000" font-family="sans-serif" font-size="14" lengthAdjust="spacing" textLength="338" x="13" y="321.4452">+static GreenSpaceSorter readSortingAlgorithm()</text></g><!--class GreenSpaceSorter--><g id="elem_GreenSpaceSorter"><rect codeLine="45" fill="#F1F1F1" height="64.4883" id="GreenSpaceSorter" rx="2.5" ry="2.5" style="stroke:#181818;stroke-width:0.5;" width="407" x="392.5" y="263.91"/><ellipse cx="530.25" cy="279.91" fill="#B4A7E5" rx="11" ry="11" style="stroke:#181818;stroke-width:1.0;"/><path d="M526.1777,275.6751 L526.1777,273.5169 L533.5571,273.5169 L533.5571,275.6751 L531.0918,275.6751 L531.0918,283.7518 L533.5571,283.7518 L533.5571,285.91 L526.1777,285.91 L526.1777,283.7518 L528.6431,283.7518 L528.6431,275.6751 Z " fill="#000000"/><text fill="#000000" font-family="sans-serif" font-size="14" font-style="italic" lengthAdjust="spacing" textLength="123" x="550.75" y="285.201">GreenSpaceSorter</text><line style="stroke:#181818;stroke-width:0.5;" x1="393.5" x2="798.5" y1="295.91" y2="295.91"/><line style="stroke:#181818;stroke-width:0.5;" x1="393.5" x2="798.5" y1="303.91" y2="303.91"/><text fill="#000000" font-family="sans-serif" font-size="14" lengthAdjust="spacing" textLength="395" x="398.5" y="321.4452">+List&lt;GreenSpace&gt; sort(List&lt;GreenSpace&gt; greenSpaces)</text></g><!--class Repositories--><g id="elem_Repositories"><rect codeLine="49" fill="#F1F1F1" height="80.9766" id="Repositories" rx="2.5" ry="2.5" style="stroke:#181818;stroke-width:0.5;" width="367" x="1160.5" y="23.49"/><ellipse cx="1297.25" cy="39.49" fill="#ADD1B2" rx="11" ry="11" style="stroke:#181818;stroke-width:1.0;"/><path d="M1300.2231,45.1331 Q1299.6421,45.4319 1299.0029,45.5813 Q1298.3638,45.7307 1297.6582,45.7307 Q1295.1514,45.7307 1293.8315,44.0789 Q1292.5117,42.427 1292.5117,39.3059 Q1292.5117,36.1765 1293.8315,34.5247 Q1295.1514,32.8728 1297.6582,32.8728 Q1298.3638,32.8728 1299.0112,33.0222 Q1299.6587,33.1716 1300.2231,33.4705 L1300.2231,36.1931 Q1299.5923,35.6121 1298.9988,35.3423 Q1298.4053,35.0725 1297.7744,35.0725 Q1296.4297,35.0725 1295.7449,36.1392 Q1295.0601,37.2058 1295.0601,39.3059 Q1295.0601,41.3977 1295.7449,42.4644 Q1296.4297,43.531 1297.7744,43.531 Q1298.4053,43.531 1298.9988,43.2612 Q1299.5923,42.9915 1300.2231,42.4104 Z " fill="#000000"/><text fill="#000000" font-family="sans-serif" font-size="14" lengthAdjust="spacing" textLength="85" x="1317.75" y="44.781">Repositories</text><line style="stroke:#181818;stroke-width:0.5;" x1="1161.5" x2="1526.5" y1="55.49" y2="55.49"/><text fill="#000000" font-family="sans-serif" font-size="14" lengthAdjust="spacing" textLength="319" x="1166.5" y="73.0252">-GreenSpaceRepository greenSpaceRepository</text><line style="stroke:#181818;stroke-width:0.5;" x1="1161.5" x2="1526.5" y1="79.9783" y2="79.9783"/><text fill="#000000" font-family="sans-serif" font-size="14" lengthAdjust="spacing" textLength="355" x="1166.5" y="97.5134">+GreenSpaceRepository getGreenSpaceRepository()</text></g><!--class ApplicationSession--><g id="elem_ApplicationSession"><rect codeLine="54" fill="#F1F1F1" height="80.9766" id="ApplicationSession" rx="2.5" ry="2.5" style="stroke:#181818;stroke-width:0.5;" width="162" x="910" y="255.67"/><ellipse cx="925" cy="271.67" fill="#ADD1B2" rx="11" ry="11" style="stroke:#181818;stroke-width:1.0;"/><path d="M927.9731,277.3131 Q927.3921,277.6119 926.7529,277.7613 Q926.1138,277.9107 925.4082,277.9107 Q922.9014,277.9107 921.5815,276.2589 Q920.2617,274.607 920.2617,271.4859 Q920.2617,268.3565 921.5815,266.7047 Q922.9014,265.0528 925.4082,265.0528 Q926.1138,265.0528 926.7612,265.2022 Q927.4087,265.3516 927.9731,265.6505 L927.9731,268.3731 Q927.3423,267.7921 926.7488,267.5223 Q926.1553,267.2525 925.5244,267.2525 Q924.1797,267.2525 923.4949,268.3192 Q922.8101,269.3858 922.8101,271.4859 Q922.8101,273.5777 923.4949,274.6444 Q924.1797,275.711 925.5244,275.711 Q926.1553,275.711 926.7488,275.4412 Q927.3423,275.1715 927.9731,274.5904 Z " fill="#000000"/><text fill="#000000" font-family="sans-serif" font-size="14" lengthAdjust="spacing" textLength="130" x="939" y="276.961">ApplicationSession</text><line style="stroke:#181818;stroke-width:0.5;" x1="911" x2="1071" y1="287.67" y2="287.67"/><line style="stroke:#181818;stroke-width:0.5;" x1="911" x2="1071" y1="295.67" y2="295.67"/><text fill="#000000" font-family="sans-serif" font-size="14" lengthAdjust="spacing" textLength="140" x="916" y="313.2052">+static getInstance()</text><text fill="#000000" font-family="sans-serif" font-size="14" lengthAdjust="spacing" textLength="148" x="916" y="329.6934">+getCurrentSession()</text></g><!--class UserSession--><g id="elem_UserSession"><rect codeLine="59" fill="#F1F1F1" height="64.4883" id="UserSession" rx="2.5" ry="2.5" style="stroke:#181818;stroke-width:0.5;" width="123" x="824.5" y="471.35"/><ellipse cx="843.1" cy="487.35" fill="#ADD1B2" rx="11" ry="11" style="stroke:#181818;stroke-width:1.0;"/><path d="M846.0731,492.9931 Q845.4921,493.2919 844.8529,493.4413 Q844.2138,493.5907 843.5082,493.5907 Q841.0014,493.5907 839.6815,491.9389 Q838.3617,490.287 838.3617,487.1659 Q838.3617,484.0365 839.6815,482.3847 Q841.0014,480.7328 843.5082,480.7328 Q844.2138,480.7328 844.8612,480.8822 Q845.5087,481.0316 846.0731,481.3305 L846.0731,484.0531 Q845.4423,483.4721 844.8488,483.2023 Q844.2553,482.9325 843.6244,482.9325 Q842.2797,482.9325 841.5949,483.9992 Q840.9101,485.0658 840.9101,487.1659 Q840.9101,489.2577 841.5949,490.3244 Q842.2797,491.391 843.6244,491.391 Q844.2553,491.391 844.8488,491.1212 Q845.4423,490.8515 846.0731,490.2704 Z " fill="#000000"/><text fill="#000000" font-family="sans-serif" font-size="14" lengthAdjust="spacing" textLength="83" x="857.9" y="492.641">UserSession</text><line style="stroke:#181818;stroke-width:0.5;" x1="825.5" x2="946.5" y1="503.35" y2="503.35"/><line style="stroke:#181818;stroke-width:0.5;" x1="825.5" x2="946.5" y1="511.35" y2="511.35"/><text fill="#000000" font-family="sans-serif" font-size="14" lengthAdjust="spacing" textLength="111" x="830.5" y="528.8852">+getUserEmail()</text></g><!--link Repositories to Repositories--><g id="link_Repositories_Repositories"><path codeLine="62" d="M1527.71,48.76 C1548.8,51.59 1562.5,56.66 1562.5,63.98 C1562.5,71.3 1554.7463,75.5693 1533.6563,78.4093 " fill="none" id="Repositories-to-Repositories" style="stroke:#181818;stroke-width:1.0;"/><polygon fill="#181818" points="1527.71,79.21,1537.1633,81.9731,1532.6653,78.5427,1536.0957,74.0447,1527.71,79.21" style="stroke:#181818;stroke-width:1.0;"/><text fill="#000000" font-family="sans-serif" font-size="13" lengthAdjust="spacing" textLength="53" x="1568.5" y="69.0484">instance</text></g><!--link ListGreenSpacesUI to RegisterGreenSpaceController--><g id="link_ListGreenSpacesUI_RegisterGreenSpaceController"><path codeLine="64" d="M722.47,63.98 C733.99,63.98 739.51,63.98 751.03,63.98 " fill="none" id="ListGreenSpacesUI-to-RegisterGreenSpaceController" style="stroke:#181818;stroke-width:1.0;stroke-dasharray:7.0,7.0;"/><polygon fill="#181818" points="757.03,63.98,748.03,59.98,752.03,63.98,748.03,67.98,757.03,63.98" style="stroke:#181818;stroke-width:1.0;"/></g><!--link ApplicationSession to ApplicationSession--><g id="link_ApplicationSession_ApplicationSession"><path codeLine="65" d="M1072.31,270.92 C1092.2,272.79 1107,281.2 1107,296.15 C1107,311.11 1098.1739,318.9614 1078.2839,320.8214 " fill="none" id="ApplicationSession-to-ApplicationSession" style="stroke:#181818;stroke-width:1.0;"/><polygon fill="#181818" points="1072.31,321.38,1081.6433,324.5247,1077.2883,320.9145,1080.8985,316.5594,1072.31,321.38" style="stroke:#181818;stroke-width:1.0;"/><text fill="#000000" font-family="sans-serif" font-size="13" lengthAdjust="spacing" textLength="53" x="1113" y="301.2184">instance</text></g><!--link ApplicationSession to UserSession--><g id="link_ApplicationSession_UserSession"><path codeLine="66" d="M970.75,336.77 C950.73,375.94 923.2212,429.7777 904.7912,465.8277 " fill="none" id="ApplicationSession-to-UserSession" style="stroke:#181818;stroke-width:1.0;"/><polygon fill="#181818" points="902.06,471.17,909.7183,464.9773,904.336,466.718,902.5952,461.3357,902.06,471.17" style="stroke:#181818;stroke-width:1.0;"/><text fill="#000000" font-family="sans-serif" font-size="13" lengthAdjust="spacing" textLength="75" x="924" y="437.9184">userSession</text><text fill="#000000" font-family="sans-serif" font-size="13" lengthAdjust="spacing" textLength="8" x="896.5474" y="460.536">1</text></g><!--link RegisterGreenSpaceController to ApplicationSession--><g id="link_RegisterGreenSpaceController_ApplicationSession"><path codeLine="67" d="M915.05,96.5 C930.87,137.87 956.4873,204.8956 973.7073,249.9356 " fill="none" id="RegisterGreenSpaceController-to-ApplicationSession" style="stroke:#181818;stroke-width:1.0;stroke-dasharray:7.0,7.0;"/><polygon fill="#181818" points="975.85,255.54,976.3722,245.705,974.0644,250.8697,968.8997,248.5619,975.85,255.54" style="stroke:#181818;stroke-width:1.0;"/></g><!--link RegisterGreenSpaceController to UserSession--><g id="link_RegisterGreenSpaceController_UserSession"><path codeLine="68" d="M899.82,96.65 C897.25,123.57 893.78,163.25 892,197.96 C886.91,297.54 886.0698,409.64 885.9798,465 " fill="none" id="RegisterGreenSpaceController-to-UserSession" style="stroke:#181818;stroke-width:1.0;stroke-dasharray:7.0,7.0;"/><polygon fill="#181818" points="885.97,471,889.9846,462.0065,885.9781,466,881.9846,461.9935,885.97,471" style="stroke:#181818;stroke-width:1.0;"/></g><!--link RegisterGreenSpaceController to Repositories--><g id="link_RegisterGreenSpaceController_Repositories"><path codeLine="69" d="M1048.93,63.98 C1084.54,63.98 1117.1,63.98 1154.23,63.98 " fill="none" id="RegisterGreenSpaceController-to-Repositories" style="stroke:#181818;stroke-width:1.0;stroke-dasharray:7.0,7.0;"/><polygon fill="#181818" points="1160.23,63.98,1151.23,59.98,1155.23,63.98,1151.23,67.98,1160.23,63.98" style="stroke:#181818;stroke-width:1.0;"/><text fill="#000000" font-family="sans-serif" font-size="13" lengthAdjust="spacing" textLength="75" x="1067" y="57.5484">repositories</text></g><!--link Repositories to GreenSpaceRepository--><g id="link_Repositories_GreenSpaceRepository"><path codeLine="71" d="M1527.8,63.98 C1566.88,63.98 1599.96,63.98 1639.04,63.98 " fill="none" id="Repositories-to-GreenSpaceRepository" style="stroke:#181818;stroke-width:1.0;"/><polygon fill="#181818" points="1645.04,63.98,1636.04,59.98,1640.04,63.98,1636.04,67.98,1645.04,63.98" style="stroke:#181818;stroke-width:1.0;"/><text fill="#000000" font-family="sans-serif" font-size="13" lengthAdjust="spacing" textLength="8" x="1629.3463" y="61.2616">1</text></g><!--link ListGreenSpacesUI to ConfigReader--><g id="link_ListGreenSpacesUI_ConfigReader"><path codeLine="73" d="M516.92,104.81 C437.68,149.85 315.4866,219.2958 242.7866,260.6058 " fill="none" id="ListGreenSpacesUI-to-ConfigReader" style="stroke:#181818;stroke-width:1.0;stroke-dasharray:7.0,7.0;"/><polygon fill="#181818" points="237.57,263.57,247.3711,262.6014,241.9172,261.0998,243.4188,255.6459,237.57,263.57" style="stroke:#181818;stroke-width:1.0;"/><text fill="#000000" font-family="sans-serif" font-size="13" lengthAdjust="spacing" textLength="82" x="434" y="164.5284">configReader</text></g><!--link ListGreenSpacesUI to GreenSpaceSorter--><g id="link_ListGreenSpacesUI_GreenSpaceSorter"><path codeLine="74" d="M588.56,104.81 C590.32,149.85 592.9149,216.2646 594.5349,257.5746 " fill="none" id="ListGreenSpacesUI-to-GreenSpaceSorter" style="stroke:#181818;stroke-width:1.0;stroke-dasharray:7.0,7.0;"/><polygon fill="#181818" points="594.77,263.57,598.4143,254.4202,594.5741,258.5738,590.4204,254.7337,594.77,263.57" style="stroke:#181818;stroke-width:1.0;"/><text fill="#000000" font-family="sans-serif" font-size="13" lengthAdjust="spacing" textLength="108" x="592" y="164.5284">sortingAlgorithm</text></g><!--link RegisterGreenSpaceController to GreenSpace--><g id="link_RegisterGreenSpaceController_GreenSpace"><path codeLine="76" d="M994.01,96.62 C1116.36,139.17 1327.6727,212.6398 1456.0227,257.2598 " fill="none" id="RegisterGreenSpaceController-to-GreenSpace" style="stroke:#181818;stroke-width:1.0;stroke-dasharray:7.0,7.0;"/><polygon fill="#181818" points="1461.69,259.23,1454.5025,252.4965,1456.9672,257.5882,1451.8756,260.0529,1461.69,259.23" style="stroke:#181818;stroke-width:1.0;"/><text fill="#000000" font-family="sans-serif" font-size="13" lengthAdjust="spacing" textLength="71" x="1196" y="164.5284">greenSpace</text></g><!--link GreenSpaceRepository to GreenSpace--><g id="link_GreenSpaceRepository_GreenSpace"><path codeLine="78" d="M1771.22,121.29 C1740.28,147.37 1707.3973,175.1026 1672.9273,204.1626 " fill="none" id="GreenSpaceRepository-to-GreenSpace" style="stroke:#181818;stroke-width:1.0;"/><polygon fill="#181818" points="1668.34,208.03,1677.7992,205.2872,1672.1628,204.8072,1672.6428,199.1708,1668.34,208.03" style="stroke:#181818;stroke-width:1.0;"/></g><!--SRC=[ZLHDZzCm4BtxLrXxeGXj1TS8LSekgAg4E3Jq1tYJQMgjOqUs0mg8_yuuJUD9utRf9VQycJSVVjDtxbNgLbZHyCPeKvwiQO1xsm6BI2lALr53uNi5t4BfXQuLTN0dKPbVKjVyA9IZY98QVDy2RutgmoM56UiD8q2fX7EvzrQ-T1vsfT65_0ty8sDiWFZM0kW2omB-Xt7yFV82lJ6_5WsCbifqBrYli216Impx4TA6tFDeQ8HKRB1zkDXgyD-HTFL-D8-qQCwHUJ9VSICSlXCSoRw679Fzfv4LhwHhbUY_W4V88VPtsUWUMkEaDxQVMlucdVySFJQydiwEKNvHLT5jHOON0oxrB3d1nwjRtVGxIbqzzGS7zjpWs71tCP2czb1ZDDWO_coqjqOfi6DpwK9ofUQrJ9J1cq27tOndXYGg8wEodQQyMDXHrdiG5IdDUU5bITwcG04ZZdAemX7PSrKRA_sfEPD9ZVWnJ7mHTBDVX_ZgtXFF9ZgAGuARv97KJfqmieM4QG1z_sWV-ZedpzjMoH97WciApk7dUbB8iTDurcLS2BGzTzQ2zcCG7NkGqJKN1aHr1TzPqu-R-H0oBiUCZ2t5iTxS5I5Bj8G94bQI9XM3GG-V7cRjP8FmnXkxkmhhTIhdsp67_qwm69ebLxQOSEXbcnHGOiH8FjkUZ9VaUYDYiHxPi0TqezZR0o3_S1bHF6D9XOTNsXAdVm00]--></g></svg>