<?xml version="1.0" encoding="us-ascii" standalone="no"?><svg xmlns="http://www.w3.org/2000/svg" xmlns:xlink="http://www.w3.org/1999/xlink" contentStyleType="text/css" height="359px" preserveAspectRatio="none" style="width:797px;height:359px;background:#FFFFFF;" version="1.1" viewBox="0 0 797 359" width="797px" zoomAndPan="magnify"><defs/><g><rect fill="#FFFFFF" height="226.4844" style="stroke:#181818;stroke-width:1.0;" width="10" x="71.5" y="62.9766"/><rect fill="#FFFFFF" height="205.1738" style="stroke:#181818;stroke-width:1.0;" width="10" x="265.5" y="84.2871"/><rect fill="#FFFFFF" height="29.3105" style="stroke:#181818;stroke-width:1.0;" width="10" x="439.5" y="113.5977"/><rect fill="#FFFFFF" height="29.3105" style="stroke:#181818;stroke-width:1.0;" width="10" x="552.5" y="172.2188"/><rect fill="#FFFFFF" height="29.3105" style="stroke:#181818;stroke-width:1.0;" width="10" x="700" y="230.8398"/><line style="stroke:#181818;stroke-width:0.5;stroke-dasharray:5.0,5.0;" x1="76" x2="76" y1="52.9766" y2="307.4609"/><line style="stroke:#181818;stroke-width:0.5;stroke-dasharray:5.0,5.0;" x1="270" x2="270" y1="52.9766" y2="307.4609"/><line style="stroke:#181818;stroke-width:0.5;stroke-dasharray:5.0,5.0;" x1="444" x2="444" y1="52.9766" y2="307.4609"/><line style="stroke:#181818;stroke-width:0.5;stroke-dasharray:5.0,5.0;" x1="557" x2="557" y1="52.9766" y2="307.4609"/><line style="stroke:#181818;stroke-width:0.5;stroke-dasharray:5.0,5.0;" x1="705" x2="705" y1="52.9766" y2="307.4609"/><rect fill="#E3E3E3" height="30.4883" rx="2.5" ry="2.5" style="stroke:#181818;stroke-width:0.5;" width="143" x="5" y="21.4883"/><text fill="#000000" font-family="sans-serif" font-size="14" lengthAdjust="spacing" textLength="129" x="12" y="42.0234">:ListGreenSpacesUI</text><rect fill="#E3E3E3" height="30.4883" rx="2.5" ry="2.5" style="stroke:#181818;stroke-width:0.5;" width="143" x="5" y="306.4609"/><text fill="#000000" font-family="sans-serif" font-size="14" lengthAdjust="spacing" textLength="129" x="12" y="326.9961">:ListGreenSpacesUI</text><rect fill="#E3E3E3" height="30.4883" rx="2.5" ry="2.5" style="stroke:#181818;stroke-width:0.5;" width="225" x="158" y="21.4883"/><text fill="#000000" font-family="sans-serif" font-size="14" lengthAdjust="spacing" textLength="211" x="165" y="42.0234">:RegisterGreenSpaceController</text><rect fill="#E3E3E3" height="30.4883" rx="2.5" ry="2.5" style="stroke:#181818;stroke-width:0.5;" width="225" x="158" y="306.4609"/><text fill="#000000" font-family="sans-serif" font-size="14" lengthAdjust="spacing" textLength="211" x="165" y="326.9961">:RegisterGreenSpaceController</text><rect fill="#E3E3E3" height="30.4883" rx="2.5" ry="2.5" style="stroke:#181818;stroke-width:0.5;" width="103" x="393" y="21.4883"/><text fill="#000000" font-family="sans-serif" font-size="14" lengthAdjust="spacing" textLength="89" x="400" y="42.0234">:Repositories</text><rect fill="#E3E3E3" height="30.4883" rx="2.5" ry="2.5" style="stroke:#181818;stroke-width:0.5;" width="103" x="393" y="306.4609"/><text fill="#000000" font-family="sans-serif" font-size="14" lengthAdjust="spacing" textLength="89" x="400" y="326.9961">:Repositories</text><rect fill="#E3E3E3" height="46.9766" rx="2.5" ry="2.5" style="stroke:#181818;stroke-width:0.5;" width="103" x="506" y="5"/><text fill="#000000" font-family="sans-serif" font-size="14" lengthAdjust="spacing" textLength="82" x="516.5" y="25.5352">repositories</text><text fill="#000000" font-family="sans-serif" font-size="14" lengthAdjust="spacing" textLength="89" x="513" y="42.0234">:Repositories</text><rect fill="#E3E3E3" height="46.9766" rx="2.5" ry="2.5" style="stroke:#181818;stroke-width:0.5;" width="103" x="506" y="306.4609"/><text fill="#000000" font-family="sans-serif" font-size="14" lengthAdjust="spacing" textLength="82" x="516.5" y="326.9961">repositories</text><text fill="#000000" font-family="sans-serif" font-size="14" lengthAdjust="spacing" textLength="89" x="513" y="343.4844">:Repositories</text><rect fill="#E3E3E3" height="46.9766" rx="2.5" ry="2.5" style="stroke:#181818;stroke-width:0.5;" width="172" x="619" y="5"/><text fill="#000000" font-family="sans-serif" font-size="14" lengthAdjust="spacing" textLength="158" x="626" y="25.5352">GreenSpaceRepository:</text><text fill="#000000" font-family="sans-serif" font-size="14" lengthAdjust="spacing" textLength="154" x="628" y="42.0234">GreenSpaceRepository</text><rect fill="#E3E3E3" height="46.9766" rx="2.5" ry="2.5" style="stroke:#181818;stroke-width:0.5;" width="172" x="619" y="306.4609"/><text fill="#000000" font-family="sans-serif" font-size="14" lengthAdjust="spacing" textLength="158" x="626" y="326.9961">GreenSpaceRepository:</text><text fill="#000000" font-family="sans-serif" font-size="14" lengthAdjust="spacing" textLength="154" x="628" y="343.4844">GreenSpaceRepository</text><rect fill="#FFFFFF" height="226.4844" style="stroke:#181818;stroke-width:1.0;" width="10" x="71.5" y="62.9766"/><rect fill="#FFFFFF" height="205.1738" style="stroke:#181818;stroke-width:1.0;" width="10" x="265.5" y="84.2871"/><rect fill="#FFFFFF" height="29.3105" style="stroke:#181818;stroke-width:1.0;" width="10" x="439.5" y="113.5977"/><rect fill="#FFFFFF" height="29.3105" style="stroke:#181818;stroke-width:1.0;" width="10" x="552.5" y="172.2188"/><rect fill="#FFFFFF" height="29.3105" style="stroke:#181818;stroke-width:1.0;" width="10" x="700" y="230.8398"/><polygon fill="#181818" points="253.5,80.2871,263.5,84.2871,253.5,88.2871,257.5,84.2871" style="stroke:#181818;stroke-width:1.0;"/><line style="stroke:#181818;stroke-width:1.0;" x1="81.5" x2="259.5" y1="84.2871" y2="84.2871"/><text fill="#000000" font-family="sans-serif" font-size="13" font-weight="bold" lengthAdjust="spacing" textLength="9" x="88.5" y="79.5449">1</text><text fill="#000000" font-family="sans-serif" font-size="13" lengthAdjust="spacing" textLength="124" x="101.5" y="79.5449">getAllGreenSpaces()</text><polygon fill="#181818" points="427.5,109.5977,437.5,113.5977,427.5,117.5977,431.5,113.5977" style="stroke:#181818;stroke-width:1.0;"/><line style="stroke:#181818;stroke-width:1.0;" x1="275.5" x2="433.5" y1="113.5977" y2="113.5977"/><text fill="#000000" font-family="sans-serif" font-size="13" font-weight="bold" lengthAdjust="spacing" textLength="9" x="282.5" y="108.8555">2</text><text fill="#000000" font-family="sans-serif" font-size="13" lengthAdjust="spacing" textLength="81" x="295.5" y="108.8555">getInstance()</text><polygon fill="#181818" points="286.5,138.9082,276.5,142.9082,286.5,146.9082,282.5,142.9082" style="stroke:#181818;stroke-width:1.0;"/><line style="stroke:#181818;stroke-width:1.0;stroke-dasharray:2.0,2.0;" x1="280.5" x2="443.5" y1="142.9082" y2="142.9082"/><text fill="#000000" font-family="sans-serif" font-size="13" font-weight="bold" lengthAdjust="spacing" textLength="9" x="292.5" y="138.166">3</text><text fill="#000000" font-family="sans-serif" font-size="13" lengthAdjust="spacing" textLength="75" x="305.5" y="138.166">repositories</text><polygon fill="#181818" points="540.5,168.2188,550.5,172.2188,540.5,176.2188,544.5,172.2188" style="stroke:#181818;stroke-width:1.0;"/><line style="stroke:#181818;stroke-width:1.0;" x1="275.5" x2="546.5" y1="172.2188" y2="172.2188"/><text fill="#000000" font-family="sans-serif" font-size="13" font-weight="bold" lengthAdjust="spacing" textLength="9" x="282.5" y="167.4766">4</text><text fill="#000000" font-family="sans-serif" font-size="13" lengthAdjust="spacing" textLength="167" x="295.5" y="167.4766">getGreenSpaceRepository()</text><polygon fill="#181818" points="286.5,197.5293,276.5,201.5293,286.5,205.5293,282.5,201.5293" style="stroke:#181818;stroke-width:1.0;"/><line style="stroke:#181818;stroke-width:1.0;stroke-dasharray:2.0,2.0;" x1="280.5" x2="556.5" y1="201.5293" y2="201.5293"/><text fill="#000000" font-family="sans-serif" font-size="13" font-weight="bold" lengthAdjust="spacing" textLength="9" x="292.5" y="196.7871">5</text><text fill="#000000" font-family="sans-serif" font-size="13" lengthAdjust="spacing" textLength="138" x="305.5" y="196.7871">greenSpaceRepository</text><polygon fill="#181818" points="688,226.8398,698,230.8398,688,234.8398,692,230.8398" style="stroke:#181818;stroke-width:1.0;"/><line style="stroke:#181818;stroke-width:1.0;" x1="275.5" x2="694" y1="230.8398" y2="230.8398"/><text fill="#000000" font-family="sans-serif" font-size="13" font-weight="bold" lengthAdjust="spacing" textLength="9" x="282.5" y="226.0977">6</text><text fill="#000000" font-family="sans-serif" font-size="13" lengthAdjust="spacing" textLength="107" x="295.5" y="226.0977">getGreenSpaces()</text><polygon fill="#181818" points="286.5,256.1504,276.5,260.1504,286.5,264.1504,282.5,260.1504" style="stroke:#181818;stroke-width:1.0;"/><line style="stroke:#181818;stroke-width:1.0;stroke-dasharray:2.0,2.0;" x1="280.5" x2="704" y1="260.1504" y2="260.1504"/><text fill="#000000" font-family="sans-serif" font-size="13" font-weight="bold" lengthAdjust="spacing" textLength="9" x="292.5" y="255.4082">7</text><text fill="#000000" font-family="sans-serif" font-size="13" lengthAdjust="spacing" textLength="101" x="305.5" y="255.4082">greenSpacesList</text><polygon fill="#181818" points="87.5,285.4609,77.5,289.4609,87.5,293.4609,83.5,289.4609" style="stroke:#181818;stroke-width:1.0;"/><line style="stroke:#181818;stroke-width:1.0;stroke-dasharray:2.0,2.0;" x1="81.5" x2="269.5" y1="289.4609" y2="289.4609"/><text fill="#000000" font-family="sans-serif" font-size="13" font-weight="bold" lengthAdjust="spacing" textLength="9" x="93.5" y="284.7188">8</text><text fill="#000000" font-family="sans-serif" font-size="13" lengthAdjust="spacing" textLength="101" x="106.5" y="284.7188">greenSpacesList</text><!--SRC=[ZLEnRiCW4Dtv2fIf7Vm37Yf56IfB7geuth9GSdLGC5XmRfM_B-34nZPMotYyztZlxh0teJfcM4jRhJI_6jq2HTC3iUDDn_YDDL3XNG8rm96fHiO0UsKN_IDKGx-Oj408wr6hllq4GuY3eE2YOmhfBY-5nNS3e2gd2hOkTfHPMXSBs14Q1mGpGGzQeT5IWWcCm-bOhZYTjWAr4M03PYpSA-4TEqzpYeaOPxKM-2ZtfpbZyZE9vsULAWU5r8Lh3qVnpH1yRa8VfovezXPoqPmsW7ifeqQzl8x0aHrwC9Rz2ModaaW-Y1RAkkbnYEHcagcMpP3-fDIpX_USnasTKI_m_sUUGVm41kUfJcwb27DRsGvQMTJZr6ms3AyLdmvJlfQExPRHz7eiZIUVI0Qn_djjPVZxiI6J4tQxk2qRIGuR61NSGly2]--></g></svg>