<?xml version="1.0" encoding="us-ascii" standalone="no"?><svg xmlns="http://www.w3.org/2000/svg" xmlns:xlink="http://www.w3.org/1999/xlink" contentStyleType="text/css" height="462px" preserveAspectRatio="none" style="width:759px;height:462px;background:#FFFFFF;" version="1.1" viewBox="0 0 759 462" width="759px" zoomAndPan="magnify"><defs/><g><rect fill="#FFFFFF" height="271.8828" style="stroke:#181818;stroke-width:1.0;" width="10" x="35.5" y="91.4883"/><rect fill="#FFFFFF" height="73.7539" style="stroke:#181818;stroke-width:1.0;" width="10" x="370.5" y="112.7988"/><line style="stroke:#181818;stroke-width:0.5;stroke-dasharray:5.0,5.0;" x1="40" x2="40" y1="81.4883" y2="381.3711"/><line style="stroke:#181818;stroke-width:0.5;stroke-dasharray:5.0,5.0;" x1="375" x2="375" y1="81.4883" y2="381.3711"/><line style="stroke:#181818;stroke-width:0.5;stroke-dasharray:5.0,5.0;" x1="541" x2="541" y1="81.4883" y2="381.3711"/><line style="stroke:#181818;stroke-width:0.5;stroke-dasharray:5.0,5.0;" x1="630" x2="630" y1="81.4883" y2="381.3711"/><line style="stroke:#181818;stroke-width:0.5;stroke-dasharray:5.0,5.0;" x1="722" x2="722" y1="81.4883" y2="381.3711"/><text fill="#000000" font-family="sans-serif" font-size="14" lengthAdjust="spacing" textLength="65" x="5" y="78.5352">GSM User</text><ellipse cx="40.5" cy="13.5" fill="#E3E3E3" rx="8" ry="8" style="stroke:#181818;stroke-width:0.5;"/><path d="M40.5,21.5 L40.5,48.5 M27.5,29.5 L53.5,29.5 M40.5,48.5 L27.5,63.5 M40.5,48.5 L53.5,63.5 " fill="none" style="stroke:#181818;stroke-width:0.5;"/><text fill="#000000" font-family="sans-serif" font-size="14" lengthAdjust="spacing" textLength="65" x="5" y="393.9063">GSM User</text><ellipse cx="40.5" cy="405.3594" fill="#E3E3E3" rx="8" ry="8" style="stroke:#181818;stroke-width:0.5;"/><path d="M40.5,413.3594 L40.5,440.3594 M27.5,421.3594 L53.5,421.3594 M40.5,440.3594 L27.5,455.3594 M40.5,440.3594 L53.5,455.3594 " fill="none" style="stroke:#181818;stroke-width:0.5;"/><rect fill="#E3E3E3" height="30.4883" rx="2.5" ry="2.5" style="stroke:#181818;stroke-width:0.5;" width="143" x="304" y="50"/><text fill="#000000" font-family="sans-serif" font-size="14" lengthAdjust="spacing" textLength="129" x="311" y="70.5352">:ListGreenSpacesUI</text><rect fill="#E3E3E3" height="30.4883" rx="2.5" ry="2.5" style="stroke:#181818;stroke-width:0.5;" width="143" x="304" y="380.3711"/><text fill="#000000" font-family="sans-serif" font-size="14" lengthAdjust="spacing" textLength="129" x="311" y="400.9063">:ListGreenSpacesUI</text><rect fill="#E3E3E3" height="30.4883" rx="2.5" ry="2.5" style="stroke:#181818;stroke-width:0.5;" width="49" x="517" y="50"/><text fill="#000000" font-family="sans-serif" font-size="14" lengthAdjust="spacing" textLength="35" x="524" y="70.5352">CTRL</text><rect fill="#E3E3E3" height="30.4883" rx="2.5" ry="2.5" style="stroke:#181818;stroke-width:0.5;" width="49" x="517" y="380.3711"/><text fill="#000000" font-family="sans-serif" font-size="14" lengthAdjust="spacing" textLength="35" x="524" y="400.9063">CTRL</text><rect fill="#E3E3E3" height="30.4883" rx="2.5" ry="2.5" style="stroke:#181818;stroke-width:0.5;" width="108" x="576" y="50"/><text fill="#000000" font-family="sans-serif" font-size="14" lengthAdjust="spacing" textLength="94" x="583" y="70.5352">ConfigReader</text><rect fill="#E3E3E3" height="30.4883" rx="2.5" ry="2.5" style="stroke:#181818;stroke-width:0.5;" width="108" x="576" y="380.3711"/><text fill="#000000" font-family="sans-serif" font-size="14" lengthAdjust="spacing" textLength="94" x="583" y="400.9063">ConfigReader</text><rect fill="#E3E3E3" height="30.4883" rx="2.5" ry="2.5" style="stroke:#181818;stroke-width:0.5;" width="56" x="694" y="50"/><text fill="#000000" font-family="sans-serif" font-size="14" lengthAdjust="spacing" textLength="42" x="701" y="70.5352">Sorter</text><rect fill="#E3E3E3" height="30.4883" rx="2.5" ry="2.5" style="stroke:#181818;stroke-width:0.5;" width="56" x="694" y="380.3711"/><text fill="#000000" font-family="sans-serif" font-size="14" lengthAdjust="spacing" textLength="42" x="701" y="400.9063">Sorter</text><rect fill="#FFFFFF" height="271.8828" style="stroke:#181818;stroke-width:1.0;" width="10" x="35.5" y="91.4883"/><rect fill="#FFFFFF" height="73.7539" style="stroke:#181818;stroke-width:1.0;" width="10" x="370.5" y="112.7988"/><polygon fill="#181818" points="358.5,108.7988,368.5,112.7988,358.5,116.7988,362.5,112.7988" style="stroke:#181818;stroke-width:1.0;"/><line style="stroke:#181818;stroke-width:1.0;" x1="45.5" x2="364.5" y1="112.7988" y2="112.7988"/><text fill="#000000" font-family="sans-serif" font-size="13" font-weight="bold" lengthAdjust="spacing" textLength="9" x="52.5" y="108.0566">1</text><text fill="#000000" font-family="sans-serif" font-size="13" lengthAdjust="spacing" textLength="29" x="65.5" y="108.0566">run()</text><rect fill="none" height="39.4434" style="stroke:#000000;stroke-width:1.5;" width="268" x="301" y="120.7988"/><path d="M301,120.7988 L365,120.7988 L365,127.7988 L355,137.7988 L301,137.7988 L301,120.7988 " fill="#EEEEEE" style="stroke:#000000;stroke-width:2.0;"/><text fill="#000000" font-family="sans-serif" font-size="13" font-weight="bold" lengthAdjust="spacing" textLength="19" x="314" y="135.3672">ref</text><text fill="#000000" font-family="sans-serif" font-size="12" lengthAdjust="spacing" textLength="148" x="361" y="153.4004">Retrieve All Green Spaces</text><polygon fill="#181818" points="529.5,182.5527,539.5,186.5527,529.5,190.5527,533.5,186.5527" style="stroke:#181818;stroke-width:1.0;"/><line style="stroke:#181818;stroke-width:1.0;" x1="375.5" x2="535.5" y1="186.5527" y2="186.5527"/><text fill="#000000" font-family="sans-serif" font-size="13" font-weight="bold" lengthAdjust="spacing" textLength="9" x="382.5" y="181.8105">2</text><text fill="#000000" font-family="sans-serif" font-size="13" lengthAdjust="spacing" textLength="124" x="395.5" y="181.8105">getAllGreenSpaces()</text><rect fill="none" height="39.4434" style="stroke:#000000;stroke-width:1.5;" width="386" x="301" y="194.5527"/><path d="M301,194.5527 L365,194.5527 L365,201.5527 L355,211.5527 L301,211.5527 L301,194.5527 " fill="#EEEEEE" style="stroke:#000000;stroke-width:2.0;"/><text fill="#000000" font-family="sans-serif" font-size="13" font-weight="bold" lengthAdjust="spacing" textLength="19" x="314" y="209.1211">ref</text><text fill="#000000" font-family="sans-serif" font-size="12" lengthAdjust="spacing" textLength="132" x="428" y="227.1543">Read Sorting Algorithm</text><polygon fill="#181818" points="618,256.3066,628,260.3066,618,264.3066,622,260.3066" style="stroke:#181818;stroke-width:1.0;"/><line style="stroke:#181818;stroke-width:1.0;" x1="375.5" x2="624" y1="260.3066" y2="260.3066"/><text fill="#000000" font-family="sans-serif" font-size="13" font-weight="bold" lengthAdjust="spacing" textLength="9" x="382.5" y="255.5645">3</text><text fill="#000000" font-family="sans-serif" font-size="13" lengthAdjust="spacing" textLength="143" x="395.5" y="255.5645">readSortingAlgorithm()</text><rect fill="none" height="39.4434" style="stroke:#000000;stroke-width:1.5;" width="452" x="301" y="268.3066"/><path d="M301,268.3066 L365,268.3066 L365,275.3066 L355,285.3066 L301,285.3066 L301,268.3066 " fill="#EEEEEE" style="stroke:#000000;stroke-width:2.0;"/><text fill="#000000" font-family="sans-serif" font-size="13" font-weight="bold" lengthAdjust="spacing" textLength="19" x="314" y="282.875">ref</text><text fill="#000000" font-family="sans-serif" font-size="12" lengthAdjust="spacing" textLength="105" x="474.5" y="300.9082">Sort Green Spaces</text><polygon fill="#181818" points="710,330.0605,720,334.0605,710,338.0605,714,334.0605" style="stroke:#181818;stroke-width:1.0;"/><line style="stroke:#181818;stroke-width:1.0;" x1="375.5" x2="716" y1="334.0605" y2="334.0605"/><text fill="#000000" font-family="sans-serif" font-size="13" font-weight="bold" lengthAdjust="spacing" textLength="9" x="382.5" y="329.3184">4</text><text fill="#000000" font-family="sans-serif" font-size="13" lengthAdjust="spacing" textLength="134" x="395.5" y="329.3184">sort(greenSpacesList)</text><polygon fill="#181818" points="51.5,359.3711,41.5,363.3711,51.5,367.3711,47.5,363.3711" style="stroke:#181818;stroke-width:1.0;"/><line style="stroke:#181818;stroke-width:1.0;stroke-dasharray:2.0,2.0;" x1="45.5" x2="374.5" y1="363.3711" y2="363.3711"/><text fill="#000000" font-family="sans-serif" font-size="13" font-weight="bold" lengthAdjust="spacing" textLength="9" x="57.5" y="358.6289">5</text><text fill="#000000" font-family="sans-serif" font-size="13" lengthAdjust="spacing" textLength="293" x="70.5" y="358.6289">displays sorted green spaces list for userEmail</text><!--SRC=[ZP7FReCm3CRlF8N5gPEs5-0mgPgcgb9tWV407fWGDIJ82Knz-pafPUoFfkNaED_FNspxixOZCWumEEkQdjr047YYpAyl8pPdL5I5Yo5WQW9QPRO2tsFhthLLqA7nb6Ku1MUduOrOuYOuXlnGlK3jYND03tB910swqIFQ07bnqZuScCXMuaQ-FYPTVKoydZ5GWZAG4qizFCeZ5C2JtTrTqwimKh0SfWxSJ2p9UtXwBK_2b1HOqqomDmQIALnTLqfAYy4YLnH4kFcS6Dw4BVt3rTbEgvAmbKHqnnOg9ytBlFP6ETQX7xvRVsLOWWLPYLlRF_oYC54n-Ak_LUWbsAdF1kCoDjMZMkHnx0Mqsey6Bpv1r4B2m2SEZ83GoRedsVJpWDfalqnfSuqx_G00]--></g></svg>