<?xml version="1.0" encoding="us-ascii" standalone="no"?><svg xmlns="http://www.w3.org/2000/svg" xmlns:xlink="http://www.w3.org/1999/xlink" contentStyleType="text/css" height="837px" preserveAspectRatio="none" style="width:1978px;height:837px;background:#FFFFFF;" version="1.1" viewBox="0 0 1978 837" width="1978px" zoomAndPan="magnify"><defs/><g><!--class GreenSpace--><g id="elem_GreenSpace"><rect codeLine="11" fill="#F1F1F1" height="196.3945" id="GreenSpace" rx="2.5" ry="2.5" style="stroke:#181818;stroke-width:0.5;" width="206" x="1639" y="634.26"/><ellipse cx="1697.25" cy="650.26" fill="#ADD1B2" rx="11" ry="11" style="stroke:#181818;stroke-width:1.0;"/><path d="M1700.2231,655.9031 Q1699.6421,656.2019 1699.0029,656.3513 Q1698.3638,656.5007 1697.6582,656.5007 Q1695.1514,656.5007 1693.8315,654.8489 Q1692.5117,653.197 1692.5117,650.0759 Q1692.5117,646.9465 1693.8315,645.2947 Q1695.1514,643.6428 1697.6582,643.6428 Q1698.3638,643.6428 1699.0112,643.7922 Q1699.6587,643.9416 1700.2231,644.2405 L1700.2231,646.9631 Q1699.5923,646.3821 1698.9988,646.1123 Q1698.4053,645.8425 1697.7744,645.8425 Q1696.4297,645.8425 1695.7449,646.9092 Q1695.0601,647.9758 1695.0601,650.0759 Q1695.0601,652.1677 1695.7449,653.2344 Q1696.4297,654.301 1697.7744,654.301 Q1698.4053,654.301 1698.9988,654.0312 Q1699.5923,653.7615 1700.2231,653.1804 Z " fill="#000000"/><text fill="#000000" font-family="sans-serif" font-size="14" lengthAdjust="spacing" textLength="81" x="1717.75" y="655.551">GreenSpace</text><line style="stroke:#181818;stroke-width:0.5;" x1="1640" x2="1844" y1="666.26" y2="666.26"/><text fill="#000000" font-family="sans-serif" font-size="14" lengthAdjust="spacing" textLength="91" x="1645" y="683.7952">-String name</text><text fill="#000000" font-family="sans-serif" font-size="14" lengthAdjust="spacing" textLength="90" x="1645" y="700.2834">-double area</text><text fill="#000000" font-family="sans-serif" font-size="14" lengthAdjust="spacing" textLength="155" x="1645" y="716.7717">-GreenSpaceType type</text><text fill="#000000" font-family="sans-serif" font-size="14" lengthAdjust="spacing" textLength="90" x="1645" y="733.26">-String email</text><line style="stroke:#181818;stroke-width:0.5;" x1="1640" x2="1844" y1="740.2131" y2="740.2131"/><text fill="#000000" font-family="sans-serif" font-size="14" lengthAdjust="spacing" textLength="127" x="1645" y="757.7483">+String getName()</text><text fill="#000000" font-family="sans-serif" font-size="14" lengthAdjust="spacing" textLength="127" x="1645" y="774.2366">+double getArea()</text><text fill="#000000" font-family="sans-serif" font-size="14" lengthAdjust="spacing" textLength="194" x="1645" y="790.7248">+GreenSpaceType getType()</text><text fill="#000000" font-family="sans-serif" font-size="14" lengthAdjust="spacing" textLength="125" x="1645" y="807.2131">+String getEmail()</text><text fill="#000000" font-family="sans-serif" font-size="14" lengthAdjust="spacing" textLength="148" x="1645" y="823.7014">+void displayDetails()</text></g><!--class Organization--><g id="elem_Organization"><rect codeLine="23" fill="#F1F1F1" height="262.3477" id="Organization" rx="2.5" ry="2.5" style="stroke:#181818;stroke-width:0.5;" width="1362" x="511" y="294.91"/><ellipse cx="1142.75" cy="310.91" fill="#ADD1B2" rx="11" ry="11" style="stroke:#181818;stroke-width:1.0;"/><path d="M1145.7231,316.5531 Q1145.1421,316.8519 1144.5029,317.0013 Q1143.8638,317.1507 1143.1582,317.1507 Q1140.6514,317.1507 1139.3315,315.4989 Q1138.0117,313.847 1138.0117,310.7259 Q1138.0117,307.5965 1139.3315,305.9447 Q1140.6514,304.2928 1143.1582,304.2928 Q1143.8638,304.2928 1144.5112,304.4422 Q1145.1587,304.5916 1145.7231,304.8905 L1145.7231,307.6131 Q1145.0923,307.0321 1144.4988,306.7623 Q1143.9053,306.4925 1143.2744,306.4925 Q1141.9297,306.4925 1141.2449,307.5592 Q1140.5601,308.6258 1140.5601,310.7259 Q1140.5601,312.8177 1141.2449,313.8844 Q1141.9297,314.951 1143.2744,314.951 Q1143.9053,314.951 1144.4988,314.6812 Q1145.0923,314.4115 1145.7231,313.8304 Z " fill="#000000"/><text fill="#000000" font-family="sans-serif" font-size="14" lengthAdjust="spacing" textLength="90" x="1163.25" y="316.201">Organization</text><line style="stroke:#181818;stroke-width:0.5;" x1="512" x2="1872" y1="326.91" y2="326.91"/><text fill="#000000" font-family="sans-serif" font-size="14" lengthAdjust="spacing" textLength="95" x="517" y="344.4452">-name: String</text><text fill="#000000" font-family="sans-serif" font-size="14" lengthAdjust="spacing" textLength="109" x="517" y="360.9334">-website: String</text><text fill="#000000" font-family="sans-serif" font-size="14" lengthAdjust="spacing" textLength="101" x="517" y="377.4217">-phone: String</text><text fill="#000000" font-family="sans-serif" font-size="14" lengthAdjust="spacing" textLength="94" x="517" y="393.91">-email: String</text><text fill="#000000" font-family="sans-serif" font-size="14" lengthAdjust="spacing" textLength="132" x="517" y="410.3983">-vatNumber: String</text><text fill="#000000" font-family="sans-serif" font-size="14" lengthAdjust="spacing" textLength="196" x="517" y="426.8866">-List&lt;Employee&gt; employees</text><text fill="#000000" font-family="sans-serif" font-size="14" lengthAdjust="spacing" textLength="124" x="517" y="443.3748">-List&lt;Task&gt; tasks</text><line style="stroke:#181818;stroke-width:0.5;" x1="512" x2="1872" y1="450.328" y2="450.328"/><text fill="#000000" font-family="sans-serif" font-size="14" lengthAdjust="spacing" textLength="235" x="517" y="467.8631">+Organization(vatNumber: String)</text><text fill="#000000" font-family="sans-serif" font-size="14" lengthAdjust="spacing" textLength="274" x="517" y="484.3514">+boolean employs(Employee employee)</text><text fill="#000000" font-family="sans-serif" font-size="14" lengthAdjust="spacing" textLength="1350" x="517" y="500.8397">+Optional&lt;Task&gt; createTask(String reference, String description, String informalDescription, String technicalDescription, int duration, double cost, TaskCategory taskCategory, Employee employee)</text><text fill="#000000" font-family="sans-serif" font-size="14" lengthAdjust="spacing" textLength="315" x="517" y="517.328">+boolean anyEmployeeHasEmail(String email)</text><text fill="#000000" font-family="sans-serif" font-size="14" lengthAdjust="spacing" textLength="309" x="517" y="533.8163">+boolean addEmployee(Employee employee)</text><text fill="#000000" font-family="sans-serif" font-size="14" lengthAdjust="spacing" textLength="152" x="517" y="550.3045">+Organization clone()</text></g><!--class GreenSpaceRepository--><g id="elem_GreenSpaceRepository"><rect codeLine="39" fill="#F1F1F1" height="113.9531" id="GreenSpaceRepository" rx="2.5" ry="2.5" style="stroke:#181818;stroke-width:0.5;" width="385" x="736.5" y="150.95"/><ellipse cx="847.75" cy="166.95" fill="#ADD1B2" rx="11" ry="11" style="stroke:#181818;stroke-width:1.0;"/><path d="M850.7231,172.5931 Q850.1421,172.8919 849.5029,173.0413 Q848.8638,173.1907 848.1582,173.1907 Q845.6514,173.1907 844.3315,171.5389 Q843.0117,169.887 843.0117,166.7659 Q843.0117,163.6365 844.3315,161.9847 Q845.6514,160.3328 848.1582,160.3328 Q848.8638,160.3328 849.5112,160.4822 Q850.1587,160.6316 850.7231,160.9305 L850.7231,163.6531 Q850.0923,163.0721 849.4988,162.8023 Q848.9053,162.5325 848.2744,162.5325 Q846.9297,162.5325 846.2449,163.5992 Q845.5601,164.6658 845.5601,166.7659 Q845.5601,168.8577 846.2449,169.9244 Q846.9297,170.991 848.2744,170.991 Q848.9053,170.991 849.4988,170.7212 Q850.0923,170.4515 850.7231,169.8704 Z " fill="#000000"/><text fill="#000000" font-family="sans-serif" font-size="14" lengthAdjust="spacing" textLength="154" x="868.25" y="172.241">GreenSpaceRepository</text><line style="stroke:#181818;stroke-width:0.5;" x1="737.5" x2="1120.5" y1="182.95" y2="182.95"/><text fill="#000000" font-family="sans-serif" font-size="14" lengthAdjust="spacing" textLength="225" x="742.5" y="200.4852">-List&lt;GreenSpace&gt; greenSpaces</text><line style="stroke:#181818;stroke-width:0.5;" x1="737.5" x2="1120.5" y1="207.4383" y2="207.4383"/><text fill="#000000" font-family="sans-serif" font-size="14" lengthAdjust="spacing" textLength="326" x="742.5" y="224.9734">+void addGreenSpace(GreenSpace greenSpace)</text><text fill="#000000" font-family="sans-serif" font-size="14" lengthAdjust="spacing" textLength="261" x="742.5" y="241.4617">+List&lt;GreenSpace&gt; getGreenSpaces()</text><text fill="#000000" font-family="sans-serif" font-size="14" lengthAdjust="spacing" textLength="373" x="742.5" y="257.95">+List&lt;GreenSpace&gt; findByUserEmail(String userEmail)</text></g><!--class OrganizationRepository--><g id="elem_OrganizationRepository"><rect codeLine="46" fill="#F1F1F1" height="113.9531" id="OrganizationRepository" rx="2.5" ry="2.5" style="stroke:#181818;stroke-width:0.5;" width="537" x="1200.5" y="7"/><ellipse cx="1383.25" cy="23" fill="#ADD1B2" rx="11" ry="11" style="stroke:#181818;stroke-width:1.0;"/><path d="M1386.2231,28.6431 Q1385.6421,28.9419 1385.0029,29.0913 Q1384.3638,29.2407 1383.6582,29.2407 Q1381.1514,29.2407 1379.8315,27.5889 Q1378.5117,25.937 1378.5117,22.8159 Q1378.5117,19.6865 1379.8315,18.0347 Q1381.1514,16.3828 1383.6582,16.3828 Q1384.3638,16.3828 1385.0112,16.5322 Q1385.6587,16.6816 1386.2231,16.9805 L1386.2231,19.7031 Q1385.5923,19.1221 1384.9988,18.8523 Q1384.4053,18.5825 1383.7744,18.5825 Q1382.4297,18.5825 1381.7449,19.6492 Q1381.0601,20.7158 1381.0601,22.8159 Q1381.0601,24.9077 1381.7449,25.9744 Q1382.4297,27.041 1383.7744,27.041 Q1384.4053,27.041 1384.9988,26.7712 Q1385.5923,26.5015 1386.2231,25.9204 Z " fill="#000000"/><text fill="#000000" font-family="sans-serif" font-size="14" lengthAdjust="spacing" textLength="163" x="1403.75" y="28.291">OrganizationRepository</text><line style="stroke:#181818;stroke-width:0.5;" x1="1201.5" x2="1736.5" y1="39" y2="39"/><text fill="#000000" font-family="sans-serif" font-size="14" lengthAdjust="spacing" textLength="246" x="1206.5" y="56.5352">-organizations: List&lt;Organization&gt;</text><line style="stroke:#181818;stroke-width:0.5;" x1="1201.5" x2="1736.5" y1="63.4883" y2="63.4883"/><text fill="#000000" font-family="sans-serif" font-size="14" lengthAdjust="spacing" textLength="525" x="1206.5" y="81.0234">+Optional&lt;Organization&gt; getOrganizationByEmployee(Employee employee)</text><text fill="#000000" font-family="sans-serif" font-size="14" lengthAdjust="spacing" textLength="508" x="1206.5" y="97.5117">+Optional&lt;Organization&gt; getOrganizationByEmployeeEmail(String email)</text><text fill="#000000" font-family="sans-serif" font-size="14" lengthAdjust="spacing" textLength="404" x="1206.5" y="114">+Optional&lt;Organization&gt; add(Organization organization)</text></g><!--class RegisterGreenSpaceController--><g id="elem_RegisterGreenSpaceController"><rect codeLine="54" fill="#F1F1F1" height="64.4883" id="RegisterGreenSpaceController" rx="2.5" ry="2.5" style="stroke:#181818;stroke-width:0.5;" width="291" x="312.5" y="31.73"/><ellipse cx="350.9" cy="47.73" fill="#ADD1B2" rx="11" ry="11" style="stroke:#181818;stroke-width:1.0;"/><path d="M353.8731,53.3731 Q353.2921,53.6719 352.6529,53.8213 Q352.0138,53.9707 351.3082,53.9707 Q348.8014,53.9707 347.4815,52.3189 Q346.1617,50.667 346.1617,47.5459 Q346.1617,44.4165 347.4815,42.7647 Q348.8014,41.1128 351.3082,41.1128 Q352.0138,41.1128 352.6612,41.2622 Q353.3087,41.4116 353.8731,41.7105 L353.8731,44.4331 Q353.2423,43.8521 352.6488,43.5823 Q352.0553,43.3125 351.4244,43.3125 Q350.0797,43.3125 349.3949,44.3792 Q348.7101,45.4458 348.7101,47.5459 Q348.7101,49.6377 349.3949,50.7044 Q350.0797,51.771 351.4244,51.771 Q352.0553,51.771 352.6488,51.5012 Q353.2423,51.2315 353.8731,50.6504 Z " fill="#000000"/><text fill="#000000" font-family="sans-serif" font-size="14" lengthAdjust="spacing" textLength="207" x="370.1" y="53.021">RegisterGreenSpaceController</text><line style="stroke:#181818;stroke-width:0.5;" x1="313.5" x2="602.5" y1="63.73" y2="63.73"/><line style="stroke:#181818;stroke-width:0.5;" x1="313.5" x2="602.5" y1="71.73" y2="71.73"/><text fill="#000000" font-family="sans-serif" font-size="14" lengthAdjust="spacing" textLength="279" x="318.5" y="89.2652">+List&lt;GreenSpace&gt; getAllGreenSpaces()</text></g><!--class ListGreenSpacesUI--><g id="elem_ListGreenSpacesUI"><rect codeLine="58" fill="#F1F1F1" height="80.9766" id="ListGreenSpacesUI" rx="2.5" ry="2.5" style="stroke:#181818;stroke-width:0.5;" width="270" x="7" y="23.49"/><ellipse cx="75.25" cy="39.49" fill="#ADD1B2" rx="11" ry="11" style="stroke:#181818;stroke-width:1.0;"/><path d="M78.2231,45.1331 Q77.6421,45.4319 77.0029,45.5813 Q76.3638,45.7307 75.6582,45.7307 Q73.1514,45.7307 71.8315,44.0789 Q70.5117,42.427 70.5117,39.3059 Q70.5117,36.1765 71.8315,34.5247 Q73.1514,32.8728 75.6582,32.8728 Q76.3638,32.8728 77.0112,33.0222 Q77.6587,33.1716 78.2231,33.4705 L78.2231,36.1931 Q77.5923,35.6121 76.9988,35.3423 Q76.4053,35.0725 75.7744,35.0725 Q74.4297,35.0725 73.7449,36.1392 Q73.0601,37.2058 73.0601,39.3059 Q73.0601,41.3977 73.7449,42.4644 Q74.4297,43.531 75.7744,43.531 Q76.4053,43.531 76.9988,43.2612 Q77.5923,42.9915 78.2231,42.4104 Z " fill="#000000"/><text fill="#000000" font-family="sans-serif" font-size="14" lengthAdjust="spacing" textLength="125" x="95.75" y="44.781">ListGreenSpacesUI</text><line style="stroke:#181818;stroke-width:0.5;" x1="8" x2="276" y1="55.49" y2="55.49"/><line style="stroke:#181818;stroke-width:0.5;" x1="8" x2="276" y1="63.49" y2="63.49"/><text fill="#000000" font-family="sans-serif" font-size="14" lengthAdjust="spacing" textLength="258" x="13" y="81.0252">+ListGreenSpacesUI(String userEmail)</text><text fill="#000000" font-family="sans-serif" font-size="14" lengthAdjust="spacing" textLength="78" x="13" y="97.5134">+void run()</text></g><!--class Repositories--><g id="elem_Repositories"><rect codeLine="64" fill="#F1F1F1" height="80.9766" id="Repositories" rx="2.5" ry="2.5" style="stroke:#181818;stroke-width:0.5;" width="367" x="715.5" y="23.49"/><ellipse cx="852.25" cy="39.49" fill="#ADD1B2" rx="11" ry="11" style="stroke:#181818;stroke-width:1.0;"/><path d="M855.2231,45.1331 Q854.6421,45.4319 854.0029,45.5813 Q853.3638,45.7307 852.6582,45.7307 Q850.1514,45.7307 848.8315,44.0789 Q847.5117,42.427 847.5117,39.3059 Q847.5117,36.1765 848.8315,34.5247 Q850.1514,32.8728 852.6582,32.8728 Q853.3638,32.8728 854.0112,33.0222 Q854.6587,33.1716 855.2231,33.4705 L855.2231,36.1931 Q854.5923,35.6121 853.9988,35.3423 Q853.4053,35.0725 852.7744,35.0725 Q851.4297,35.0725 850.7449,36.1392 Q850.0601,37.2058 850.0601,39.3059 Q850.0601,41.3977 850.7449,42.4644 Q851.4297,43.531 852.7744,43.531 Q853.4053,43.531 853.9988,43.2612 Q854.5923,42.9915 855.2231,42.4104 Z " fill="#000000"/><text fill="#000000" font-family="sans-serif" font-size="14" lengthAdjust="spacing" textLength="85" x="872.75" y="44.781">Repositories</text><line style="stroke:#181818;stroke-width:0.5;" x1="716.5" x2="1081.5" y1="55.49" y2="55.49"/><text fill="#000000" font-family="sans-serif" font-size="14" lengthAdjust="spacing" textLength="319" x="721.5" y="73.0252">-GreenSpaceRepository greenSpaceRepository</text><line style="stroke:#181818;stroke-width:0.5;" x1="716.5" x2="1081.5" y1="79.9783" y2="79.9783"/><text fill="#000000" font-family="sans-serif" font-size="14" lengthAdjust="spacing" textLength="355" x="721.5" y="97.5134">+GreenSpaceRepository getGreenSpaceRepository()</text></g><!--class ApplicationSession--><g id="elem_ApplicationSession"><rect codeLine="69" fill="#F1F1F1" height="80.9766" id="ApplicationSession" rx="2.5" ry="2.5" style="stroke:#181818;stroke-width:0.5;" width="162" x="160" y="385.59"/><ellipse cx="175" cy="401.59" fill="#ADD1B2" rx="11" ry="11" style="stroke:#181818;stroke-width:1.0;"/><path d="M177.9731,407.2331 Q177.3921,407.5319 176.7529,407.6813 Q176.1138,407.8307 175.4082,407.8307 Q172.9014,407.8307 171.5815,406.1789 Q170.2617,404.527 170.2617,401.4059 Q170.2617,398.2765 171.5815,396.6247 Q172.9014,394.9728 175.4082,394.9728 Q176.1138,394.9728 176.7612,395.1222 Q177.4087,395.2716 177.9731,395.5705 L177.9731,398.2931 Q177.3423,397.7121 176.7488,397.4423 Q176.1553,397.1725 175.5244,397.1725 Q174.1797,397.1725 173.4949,398.2392 Q172.8101,399.3058 172.8101,401.4059 Q172.8101,403.4977 173.4949,404.5644 Q174.1797,405.631 175.5244,405.631 Q176.1553,405.631 176.7488,405.3612 Q177.3423,405.0915 177.9731,404.5104 Z " fill="#000000"/><text fill="#000000" font-family="sans-serif" font-size="14" lengthAdjust="spacing" textLength="130" x="189" y="406.881">ApplicationSession</text><line style="stroke:#181818;stroke-width:0.5;" x1="161" x2="321" y1="417.59" y2="417.59"/><line style="stroke:#181818;stroke-width:0.5;" x1="161" x2="321" y1="425.59" y2="425.59"/><text fill="#000000" font-family="sans-serif" font-size="14" lengthAdjust="spacing" textLength="140" x="166" y="443.1252">+static getInstance()</text><text fill="#000000" font-family="sans-serif" font-size="14" lengthAdjust="spacing" textLength="148" x="166" y="459.6134">+getCurrentSession()</text></g><!--class UserSession--><g id="elem_UserSession"><rect codeLine="74" fill="#F1F1F1" height="64.4883" id="UserSession" rx="2.5" ry="2.5" style="stroke:#181818;stroke-width:0.5;" width="123" x="346.5" y="700.21"/><ellipse cx="365.1" cy="716.21" fill="#ADD1B2" rx="11" ry="11" style="stroke:#181818;stroke-width:1.0;"/><path d="M368.0731,721.8531 Q367.4921,722.1519 366.8529,722.3013 Q366.2138,722.4507 365.5082,722.4507 Q363.0014,722.4507 361.6815,720.7989 Q360.3617,719.147 360.3617,716.0259 Q360.3617,712.8965 361.6815,711.2447 Q363.0014,709.5928 365.5082,709.5928 Q366.2138,709.5928 366.8612,709.7422 Q367.5087,709.8916 368.0731,710.1905 L368.0731,712.9131 Q367.4423,712.3321 366.8488,712.0623 Q366.2553,711.7925 365.6244,711.7925 Q364.2797,711.7925 363.5949,712.8592 Q362.9101,713.9258 362.9101,716.0259 Q362.9101,718.1177 363.5949,719.1844 Q364.2797,720.251 365.6244,720.251 Q366.2553,720.251 366.8488,719.9812 Q367.4423,719.7115 368.0731,719.1304 Z " fill="#000000"/><text fill="#000000" font-family="sans-serif" font-size="14" lengthAdjust="spacing" textLength="83" x="379.9" y="721.501">UserSession</text><line style="stroke:#181818;stroke-width:0.5;" x1="347.5" x2="468.5" y1="732.21" y2="732.21"/><line style="stroke:#181818;stroke-width:0.5;" x1="347.5" x2="468.5" y1="740.21" y2="740.21"/><text fill="#000000" font-family="sans-serif" font-size="14" lengthAdjust="spacing" textLength="111" x="352.5" y="757.7452">+getUserEmail()</text></g><!--link Repositories to Repositories--><g id="link_Repositories_Repositories"><path codeLine="77" d="M1082.71,41.02 C1103.8,45.29 1117.5,52.94 1117.5,63.98 C1117.5,75.01 1109.6812,81.482 1088.5912,85.742 " fill="none" id="Repositories-to-Repositories" style="stroke:#181818;stroke-width:1.0;"/><polygon fill="#181818" points="1082.71,86.93,1092.3238,89.0689,1087.611,85.94,1090.7399,81.2273,1082.71,86.93" style="stroke:#181818;stroke-width:1.0;"/><text fill="#000000" font-family="sans-serif" font-size="13" lengthAdjust="spacing" textLength="53" x="1123.5" y="69.0484">instance</text></g><!--link ListGreenSpacesUI to RegisterGreenSpaceController--><g id="link_ListGreenSpacesUI_RegisterGreenSpaceController"><path codeLine="79" d="M277.47,63.98 C288.99,63.98 294.51,63.98 306.03,63.98 " fill="none" id="ListGreenSpacesUI-to-RegisterGreenSpaceController" style="stroke:#181818;stroke-width:1.0;stroke-dasharray:7.0,7.0;"/><polygon fill="#181818" points="312.03,63.98,303.03,59.98,307.03,63.98,303.03,67.98,312.03,63.98" style="stroke:#181818;stroke-width:1.0;"/></g><!--link ApplicationSession to ApplicationSession--><g id="link_ApplicationSession_ApplicationSession"><path codeLine="80" d="M322.31,394.76 C342.2,397.08 357,407.52 357,426.08 C357,444.64 348.1596,454.3849 328.2696,456.7049 " fill="none" id="ApplicationSession-to-ApplicationSession" style="stroke:#181818;stroke-width:1.0;"/><polygon fill="#181818" points="322.31,457.4,331.7128,460.3304,327.2763,456.8207,330.786,452.3842,322.31,457.4" style="stroke:#181818;stroke-width:1.0;"/><text fill="#000000" font-family="sans-serif" font-size="13" lengthAdjust="spacing" textLength="53" x="363" y="431.1484">instance</text></g><!--link ApplicationSession to UserSession--><g id="link_ApplicationSession_UserSession"><path codeLine="81" d="M262.83,466.87 C296.43,528.11 357.2335,638.93 387.8435,694.71 " fill="none" id="ApplicationSession-to-UserSession" style="stroke:#181818;stroke-width:1.0;"/><polygon fill="#181818" points="390.73,699.97,389.9069,690.1556,388.3246,695.5866,382.8935,694.0043,390.73,699.97" style="stroke:#181818;stroke-width:1.0;"/><text fill="#000000" font-family="sans-serif" font-size="13" lengthAdjust="spacing" textLength="75" x="336" y="600.8284">userSession</text><text fill="#000000" font-family="sans-serif" font-size="13" lengthAdjust="spacing" textLength="8" x="378.3431" y="689.3237">1</text></g><!--link RegisterGreenSpaceController to ApplicationSession--><g id="link_RegisterGreenSpaceController_ApplicationSession"><path codeLine="82" d="M438.93,96.62 C399.37,162.27 311.5468,308.011 268.0868,380.131 " fill="none" id="RegisterGreenSpaceController-to-ApplicationSession" style="stroke:#181818;stroke-width:1.0;stroke-dasharray:7.0,7.0;"/><polygon fill="#181818" points="264.99,385.27,273.0613,379.626,267.5707,380.9875,266.2092,375.4969,264.99,385.27" style="stroke:#181818;stroke-width:1.0;"/></g><!--link UserSession to RegisterGreenSpaceController--><g id="link_UserSession_RegisterGreenSpaceController"><path codeLine="83" d="M411.19,699.85 C413.74,674.12 417.31,636.86 420,604.26 C435.88,411.56 450.4342,185.7782 455.6542,102.5982 " fill="none" id="UserSession-to-RegisterGreenSpaceController" style="stroke:#181818;stroke-width:1.0;stroke-dasharray:7.0,7.0;"/><polygon fill="#181818" points="456.03,96.61,451.4742,105.3418,455.7168,101.6002,459.4585,105.8429,456.03,96.61" style="stroke:#181818;stroke-width:1.0;"/></g><!--link RegisterGreenSpaceController to Repositories--><g id="link_RegisterGreenSpaceController_Repositories"><path codeLine="84" d="M603.93,63.98 C639.54,63.98 672.1,63.98 709.23,63.98 " fill="none" id="RegisterGreenSpaceController-to-Repositories" style="stroke:#181818;stroke-width:1.0;stroke-dasharray:7.0,7.0;"/><polygon fill="#181818" points="715.23,63.98,706.23,59.98,710.23,63.98,706.23,67.98,715.23,63.98" style="stroke:#181818;stroke-width:1.0;"/><text fill="#000000" font-family="sans-serif" font-size="13" lengthAdjust="spacing" textLength="75" x="622" y="57.5484">repositories</text></g><!--link Repositories to GreenSpaceRepository--><g id="link_Repositories_GreenSpaceRepository"><path codeLine="86" d="M907.44,104.9 C910.43,119.08 912.6306,129.4594 915.8606,144.7594 " fill="none" id="Repositories-to-GreenSpaceRepository" style="stroke:#181818;stroke-width:1.0;"/><polygon fill="#181818" points="917.1,150.63,919.1547,140.9979,916.0672,145.7378,911.3272,142.6503,917.1,150.63" style="stroke:#181818;stroke-width:1.0;"/><text fill="#000000" font-family="sans-serif" font-size="13" lengthAdjust="spacing" textLength="8" x="907.1622" y="140.3202">1</text></g><!--link Repositories to OrganizationRepository--><g id="link_Repositories_OrganizationRepository"><path codeLine="87" d="M1082.97,63.98 C1122.05,63.98 1155.13,63.98 1194.21,63.98 " fill="none" id="Repositories-to-OrganizationRepository" style="stroke:#181818;stroke-width:1.0;"/><polygon fill="#181818" points="1200.21,63.98,1191.21,59.98,1195.21,63.98,1191.21,67.98,1200.21,63.98" style="stroke:#181818;stroke-width:1.0;"/><text fill="#000000" font-family="sans-serif" font-size="13" lengthAdjust="spacing" textLength="8" x="1184.1115" y="61.3304">1</text></g><!--link OrganizationRepository to Organization--><g id="link_OrganizationRepository_Organization"><path codeLine="89" d="M1425.72,121.24 C1390.11,167.53 1341.8875,230.2136 1296.0575,289.8136 " fill="none" id="OrganizationRepository-to-Organization" style="stroke:#181818;stroke-width:1.0;stroke-dasharray:7.0,7.0;"/><polygon fill="#181818" points="1292.4,294.57,1301.0571,289.8738,1295.4479,290.6064,1294.7153,284.9971,1292.4,294.57" style="stroke:#181818;stroke-width:1.0;"/><text fill="#000000" font-family="sans-serif" font-size="13" lengthAdjust="spacing" textLength="79" x="1403" y="212.9984">organization</text></g><!--link Organization to GreenSpace--><g id="link_Organization_GreenSpace"><path codeLine="90" d="M1428.04,557.71 C1501.76,598.5 1574.0304,638.4945 1633.6004,671.4645 " fill="none" id="Organization-to-GreenSpace" style="stroke:#181818;stroke-width:1.0;stroke-dasharray:7.0,7.0;"/><polygon fill="#181818" points="1638.85,674.37,1632.9126,666.5121,1634.4753,671.9488,1629.0386,673.5115,1638.85,674.37" style="stroke:#181818;stroke-width:1.0;"/><text fill="#000000" font-family="sans-serif" font-size="13" lengthAdjust="spacing" textLength="70" x="1500" y="600.8284">asks to list</text></g><!--link RegisterGreenSpaceController to Organization--><g id="link_RegisterGreenSpaceController_Organization"><path codeLine="91" d="M491.36,96.39 C538.7,139.54 629.61,217.22 719,264.91 C738.41,275.26 753.1577,282.6574 773.8177,292.0474 " fill="none" id="RegisterGreenSpaceController-to-Organization" style="stroke:#181818;stroke-width:1.0;stroke-dasharray:7.0,7.0;"/><polygon fill="#181818" points="779.28,294.53,772.7416,287.1645,774.7281,292.4612,769.4315,294.4476,779.28,294.53" style="stroke:#181818;stroke-width:1.0;"/></g><!--link GreenSpaceRepository to GreenSpace--><g id="link_GreenSpaceRepository_GreenSpace"><path codeLine="93" d="M1121.98,240.47 C1183.52,249.57 1251.99,258.71 1315,264.91 C1346.89,268.04 1868.94,271.67 1891,294.91 C1971.28,379.47 1931.4,447.88 1891,557.26 C1880.8,584.88 1867.7896,606.406 1849.1296,629.716 " fill="none" id="GreenSpaceRepository-to-GreenSpace" style="stroke:#181818;stroke-width:1.0;"/><polygon fill="#181818" points="1845.38,634.4,1854.1272,629.8737,1848.5047,630.4966,1847.8818,624.8742,1845.38,634.4" style="stroke:#181818;stroke-width:1.0;"/></g><!--SRC=[bLRTJjim5BxtKrZSB1DGRRVLLAdyQ4EQGABm0AvpcbeuTcGxe83sxZjEdSH9tBBrWjhVEUSxlpxbYtqHgcA6bRJKIlEzqILGPseWWwHY_8KLi76D16g0EwOA6IlOFSlrcr05tJ5fOuaK2bnJ0QsqRFmb9TF6QH89k6JMhfqpObixkEDQRSGxq6-4a5P4Vne0jS6mW7uGYfzBka5jzAzO2G79TRt5U9a15f31xCcxzRx7rb0o8KcBdNTO0UuUIREl0Gwq2A-HkOSdt2Zstxru8BlrFdhyLOkSvi9MaZKtu51aKVOdvFbW2gR4EtD2gpvJd-8o40Re3RPMk2bQxRMQOcs64-oLkVkwt8APuB-5TJzkoqhg1c25feUJZSLFpBwigCE_jgjR77Gsu-uItsejWQd0QhFEJ- -cKtoeF16JmHN7eZlmvopKrC0E32WE5rsLSx3SYDQknuJQQLCoUPEGEU1x9VX4A9IZUMtOuHRQphLr5zIxlyOm2csQDldkSa6Fvj4bp5JJwVnYzZ0DyVZDzFEyqpzHf7XGkCI-HrCqZEOZL1e7nKVz4NTnq5ZHeZ_t7Ms75ECOrBBe1Gu6NJHpJd33rMP7zNP2vLVDimKpgalT0UcNaSXAHsAxF3YAJLPaEbqZgGyu1gwQVsZ1Vp8Tx_mH9cn0DkfpdAIlJ2ZD8nIOBfYXiDTQEQEb11CAb6xHMifnbtfAhns9dkz6F2D9ecVH49bQ7NZxM4Fh1DY-USbvBH8WcUtUs22UkG6FtiMwgYI-Ub- -3LWxxDXpQXt2t7FSAJpZSkc75h7hsk32SS4eBfGVtIaN6WmJxNL7IL-knaLOujuvU2HaNlR5wcHxII8bT9108pSf6pGw-tusIcVPjZJSoCaXMonIFadCjlWiazCEPaKpqPNCAknpIGr3KZ6zMWWvid9y9gDdkHmzp95PgnojpYNrFvpKQVnVoBhFYnfp4P8SUz-wGK38Nm00]--></g></svg>