<?xml version="1.0" encoding="us-ascii" standalone="no"?><svg xmlns="http://www.w3.org/2000/svg" xmlns:xlink="http://www.w3.org/1999/xlink" contentStyleType="text/css" height="568px" preserveAspectRatio="none" style="width:825px;height:568px;background:#FFFFFF;" version="1.1" viewBox="0 0 825 568" width="825px" zoomAndPan="magnify"><defs/><g><!--class ApplicationSession--><g id="elem_ApplicationSession"><rect codeLine="12" fill="#F1F1F1" height="85.2422" id="ApplicationSession" rx="2.5" ry="2.5" style="stroke:#181818;stroke-width:0.5;" width="151" x="540.57" y="284"/><ellipse cx="555.57" cy="300" fill="#ADD1B2" rx="11" ry="11" style="stroke:#181818;stroke-width:1.0;"/><path d="M558.3356,295.875 Q558.4919,295.6563 558.6794,295.5469 Q558.8669,295.4375 559.0856,295.4375 Q559.4606,295.4375 559.695,295.7031 Q559.9294,295.9531 559.9294,296.5625 L559.9294,298.0156 Q559.9294,298.625 559.695,298.8906 Q559.4606,299.1563 559.0856,299.1563 Q558.7419,299.1563 558.5388,298.9531 Q558.3356,298.7656 558.2263,298.25 Q558.1794,297.8906 557.9919,297.7031 Q557.6638,297.3281 557.0544,297.1094 Q556.445,296.8906 555.82,296.8906 Q555.0544,296.8906 554.4138,297.2188 Q553.7888,297.5469 553.2888,298.2969 Q552.8044,299.0469 552.8044,300.0781 L552.8044,301.1719 Q552.8044,302.4063 553.695,303.2344 Q554.5856,304.0469 556.1794,304.0469 Q557.1169,304.0469 557.7731,303.7969 Q558.1638,303.6406 558.5856,303.2031 Q558.8513,302.9375 558.9919,302.8594 Q559.1481,302.7813 559.3513,302.7813 Q559.6794,302.7813 559.9294,303.0469 Q560.195,303.2969 560.195,303.6406 Q560.195,303.9844 559.8513,304.3906 Q559.3513,304.9688 558.5544,305.2969 Q557.4763,305.75 556.1794,305.75 Q554.6638,305.75 553.4606,305.125 Q552.4763,304.625 551.7888,303.5625 Q551.1013,302.4844 551.1013,301.2031 L551.1013,300.0469 Q551.1013,298.7188 551.7106,297.5781 Q552.3356,296.4219 553.4294,295.8125 Q554.5231,295.1875 555.7575,295.1875 Q556.4919,295.1875 557.1325,295.3594 Q557.7888,295.5156 558.3356,295.875 Z " fill="#000000"/><text fill="#000000" font-family="sans-serif" font-size="14" lengthAdjust="spacing" textLength="119" x="569.57" y="305.7969">ApplicationSession</text><line style="stroke:#181818;stroke-width:0.5;" x1="541.57" x2="690.57" y1="316" y2="316"/><line style="stroke:#181818;stroke-width:0.5;" x1="541.57" x2="690.57" y1="324" y2="324"/><text fill="#000000" font-family="sans-serif" font-size="14" lengthAdjust="spacing" textLength="128" x="546.57" y="343.1074">+static getInstance()</text><text fill="#000000" font-family="sans-serif" font-size="14" lengthAdjust="spacing" textLength="136" x="546.57" y="361.7285">+getCurrentSession()</text></g><!--class UserSession--><g id="elem_UserSession"><rect codeLine="18" fill="#F1F1F1" height="66.6211" id="UserSession" rx="2.5" ry="2.5" style="stroke:#181818;stroke-width:0.5;" width="113" x="589.57" y="485"/><ellipse cx="605.47" cy="501" fill="#ADD1B2" rx="11" ry="11" style="stroke:#181818;stroke-width:1.0;"/><path d="M608.2356,496.875 Q608.3919,496.6563 608.5794,496.5469 Q608.7669,496.4375 608.9856,496.4375 Q609.3606,496.4375 609.595,496.7031 Q609.8294,496.9531 609.8294,497.5625 L609.8294,499.0156 Q609.8294,499.625 609.595,499.8906 Q609.3606,500.1563 608.9856,500.1563 Q608.6419,500.1563 608.4388,499.9531 Q608.2356,499.7656 608.1263,499.25 Q608.0794,498.8906 607.8919,498.7031 Q607.5638,498.3281 606.9544,498.1094 Q606.345,497.8906 605.72,497.8906 Q604.9544,497.8906 604.3138,498.2188 Q603.6888,498.5469 603.1888,499.2969 Q602.7044,500.0469 602.7044,501.0781 L602.7044,502.1719 Q602.7044,503.4063 603.595,504.2344 Q604.4856,505.0469 606.0794,505.0469 Q607.0169,505.0469 607.6731,504.7969 Q608.0638,504.6406 608.4856,504.2031 Q608.7513,503.9375 608.8919,503.8594 Q609.0481,503.7813 609.2513,503.7813 Q609.5794,503.7813 609.8294,504.0469 Q610.095,504.2969 610.095,504.6406 Q610.095,504.9844 609.7513,505.3906 Q609.2513,505.9688 608.4544,506.2969 Q607.3763,506.75 606.0794,506.75 Q604.5638,506.75 603.3606,506.125 Q602.3763,505.625 601.6888,504.5625 Q601.0013,503.4844 601.0013,502.2031 L601.0013,501.0469 Q601.0013,499.7188 601.6106,498.5781 Q602.2356,497.4219 603.3294,496.8125 Q604.4231,496.1875 605.6575,496.1875 Q606.3919,496.1875 607.0325,496.3594 Q607.6888,496.5156 608.2356,496.875 Z " fill="#000000"/><text fill="#000000" font-family="sans-serif" font-size="14" lengthAdjust="spacing" textLength="79" x="619.67" y="506.7969">UserSession</text><line style="stroke:#181818;stroke-width:0.5;" x1="590.57" x2="701.57" y1="517" y2="517"/><line style="stroke:#181818;stroke-width:0.5;" x1="590.57" x2="701.57" y1="525" y2="525"/><text fill="#000000" font-family="sans-serif" font-size="14" lengthAdjust="spacing" textLength="101" x="595.57" y="544.1074">+getUserEmail()</text></g><!--class Skill--><g id="elem_Skill"><rect codeLine="25" fill="#F1F1F1" height="85.2422" id="Skill" rx="2.5" ry="2.5" style="stroke:#181818;stroke-width:0.5;" width="135" x="402.57" y="476"/><ellipse cx="453.32" cy="492" fill="#ADD1B2" rx="11" ry="11" style="stroke:#181818;stroke-width:1.0;"/><path d="M456.0856,487.875 Q456.2419,487.6563 456.4294,487.5469 Q456.6169,487.4375 456.8356,487.4375 Q457.2106,487.4375 457.445,487.7031 Q457.6794,487.9531 457.6794,488.5625 L457.6794,490.0156 Q457.6794,490.625 457.445,490.8906 Q457.2106,491.1563 456.8356,491.1563 Q456.4919,491.1563 456.2888,490.9531 Q456.0856,490.7656 455.9763,490.25 Q455.9294,489.8906 455.7419,489.7031 Q455.4138,489.3281 454.8044,489.1094 Q454.195,488.8906 453.57,488.8906 Q452.8044,488.8906 452.1638,489.2188 Q451.5388,489.5469 451.0388,490.2969 Q450.5544,491.0469 450.5544,492.0781 L450.5544,493.1719 Q450.5544,494.4063 451.445,495.2344 Q452.3356,496.0469 453.9294,496.0469 Q454.8669,496.0469 455.5231,495.7969 Q455.9138,495.6406 456.3356,495.2031 Q456.6013,494.9375 456.7419,494.8594 Q456.8981,494.7813 457.1013,494.7813 Q457.4294,494.7813 457.6794,495.0469 Q457.945,495.2969 457.945,495.6406 Q457.945,495.9844 457.6013,496.3906 Q457.1013,496.9688 456.3044,497.2969 Q455.2263,497.75 453.9294,497.75 Q452.4138,497.75 451.2106,497.125 Q450.2263,496.625 449.5388,495.5625 Q448.8513,494.4844 448.8513,493.2031 L448.8513,492.0469 Q448.8513,490.7188 449.4606,489.5781 Q450.0856,488.4219 451.1794,487.8125 Q452.2731,487.1875 453.5075,487.1875 Q454.2419,487.1875 454.8825,487.3594 Q455.5388,487.5156 456.0856,487.875 Z " fill="#000000"/><text fill="#000000" font-family="sans-serif" font-size="14" lengthAdjust="spacing" textLength="25" x="473.82" y="497.7969">Skill</text><line style="stroke:#181818;stroke-width:0.5;" x1="403.57" x2="536.57" y1="508" y2="508"/><text fill="#000000" font-family="sans-serif" font-size="14" lengthAdjust="spacing" textLength="64" x="408.57" y="527.1074">-skillName</text><line style="stroke:#181818;stroke-width:0.5;" x1="403.57" x2="536.57" y1="534.6211" y2="534.6211"/><text fill="#000000" font-family="sans-serif" font-size="14" lengthAdjust="spacing" textLength="123" x="408.57" y="553.7285">+addSkill(skill: Skill)</text></g><!--class SkillRepository--><g id="elem_SkillRepository"><rect codeLine="31" fill="#F1F1F1" height="141.1055" id="SkillRepository" rx="2.5" ry="2.5" style="stroke:#181818;stroke-width:0.5;" width="393" x="16.57" y="256"/><ellipse cx="162.32" cy="272" fill="#ADD1B2" rx="11" ry="11" style="stroke:#181818;stroke-width:1.0;"/><path d="M165.0856,267.875 Q165.2419,267.6563 165.4294,267.5469 Q165.6169,267.4375 165.8356,267.4375 Q166.2106,267.4375 166.445,267.7031 Q166.6794,267.9531 166.6794,268.5625 L166.6794,270.0156 Q166.6794,270.625 166.445,270.8906 Q166.2106,271.1563 165.8356,271.1563 Q165.4919,271.1563 165.2888,270.9531 Q165.0856,270.7656 164.9763,270.25 Q164.9294,269.8906 164.7419,269.7031 Q164.4138,269.3281 163.8044,269.1094 Q163.195,268.8906 162.57,268.8906 Q161.8044,268.8906 161.1638,269.2188 Q160.5388,269.5469 160.0388,270.2969 Q159.5544,271.0469 159.5544,272.0781 L159.5544,273.1719 Q159.5544,274.4063 160.445,275.2344 Q161.3356,276.0469 162.9294,276.0469 Q163.8669,276.0469 164.5231,275.7969 Q164.9138,275.6406 165.3356,275.2031 Q165.6013,274.9375 165.7419,274.8594 Q165.8981,274.7813 166.1013,274.7813 Q166.4294,274.7813 166.6794,275.0469 Q166.945,275.2969 166.945,275.6406 Q166.945,275.9844 166.6013,276.3906 Q166.1013,276.9688 165.3044,277.2969 Q164.2263,277.75 162.9294,277.75 Q161.4138,277.75 160.2106,277.125 Q159.2263,276.625 158.5388,275.5625 Q157.8513,274.4844 157.8513,273.2031 L157.8513,272.0469 Q157.8513,270.7188 158.4606,269.5781 Q159.0856,268.4219 160.1794,267.8125 Q161.2731,267.1875 162.5075,267.1875 Q163.2419,267.1875 163.8825,267.3594 Q164.5388,267.5156 165.0856,267.875 Z " fill="#000000"/><text fill="#000000" font-family="sans-serif" font-size="14" lengthAdjust="spacing" textLength="93" x="182.82" y="277.7969">SkillRepository</text><line style="stroke:#181818;stroke-width:0.5;" x1="17.57" x2="408.57" y1="288" y2="288"/><text fill="#000000" font-family="sans-serif" font-size="14" lengthAdjust="spacing" textLength="102" x="22.57" y="307.1074">-List&lt;Skill&gt; skills</text><line style="stroke:#181818;stroke-width:0.5;" x1="17.57" x2="408.57" y1="314.6211" y2="314.6211"/><text fill="#000000" font-family="sans-serif" font-size="14" lengthAdjust="spacing" textLength="201" x="22.57" y="333.7285">+void addSkill(skillName: String)</text><text fill="#000000" font-family="sans-serif" font-size="14" lengthAdjust="spacing" textLength="224" x="22.57" y="352.3496">+void removeSkill(skillName: String)</text><text fill="#000000" font-family="sans-serif" font-size="14" lengthAdjust="spacing" textLength="381" x="22.57" y="370.9707">+void updateSkill(skillNameOld: String, skillNameNew: String)</text><text fill="#000000" font-family="sans-serif" font-size="14" lengthAdjust="spacing" textLength="196" x="22.57" y="389.5918">+Skill getSkill(skillName: String)</text></g><!--class RegisterSkillUI--><g id="elem_RegisterSkillUI"><rect codeLine="40" fill="#F1F1F1" height="48" id="RegisterSkillUI" rx="2.5" ry="2.5" style="stroke:#181818;stroke-width:0.5;" width="122" x="141.07" y="35"/><ellipse cx="156.07" cy="51" fill="#ADD1B2" rx="11" ry="11" style="stroke:#181818;stroke-width:1.0;"/><path d="M158.8356,46.875 Q158.9919,46.6563 159.1794,46.5469 Q159.3669,46.4375 159.5856,46.4375 Q159.9606,46.4375 160.195,46.7031 Q160.4294,46.9531 160.4294,47.5625 L160.4294,49.0156 Q160.4294,49.625 160.195,49.8906 Q159.9606,50.1563 159.5856,50.1563 Q159.2419,50.1563 159.0388,49.9531 Q158.8356,49.7656 158.7263,49.25 Q158.6794,48.8906 158.4919,48.7031 Q158.1638,48.3281 157.5544,48.1094 Q156.945,47.8906 156.32,47.8906 Q155.5544,47.8906 154.9138,48.2188 Q154.2888,48.5469 153.7888,49.2969 Q153.3044,50.0469 153.3044,51.0781 L153.3044,52.1719 Q153.3044,53.4063 154.195,54.2344 Q155.0856,55.0469 156.6794,55.0469 Q157.6169,55.0469 158.2731,54.7969 Q158.6638,54.6406 159.0856,54.2031 Q159.3513,53.9375 159.4919,53.8594 Q159.6481,53.7813 159.8513,53.7813 Q160.1794,53.7813 160.4294,54.0469 Q160.695,54.2969 160.695,54.6406 Q160.695,54.9844 160.3513,55.3906 Q159.8513,55.9688 159.0544,56.2969 Q157.9763,56.75 156.6794,56.75 Q155.1638,56.75 153.9606,56.125 Q152.9763,55.625 152.2888,54.5625 Q151.6013,53.4844 151.6013,52.2031 L151.6013,51.0469 Q151.6013,49.7188 152.2106,48.5781 Q152.8356,47.4219 153.9294,46.8125 Q155.0231,46.1875 156.2575,46.1875 Q156.9919,46.1875 157.6325,46.3594 Q158.2888,46.5156 158.8356,46.875 Z " fill="#000000"/><text fill="#000000" font-family="sans-serif" font-size="14" lengthAdjust="spacing" textLength="90" x="170.07" y="56.7969">RegisterSkillUI</text><line style="stroke:#181818;stroke-width:0.5;" x1="142.07" x2="262.07" y1="67" y2="67"/><line style="stroke:#181818;stroke-width:0.5;" x1="142.07" x2="262.07" y1="75" y2="75"/></g><!--class Repositories--><g id="elem_Repositories"><rect codeLine="43" fill="#F1F1F1" height="85.2422" id="Repositories" rx="2.5" ry="2.5" style="stroke:#181818;stroke-width:0.5;" width="240" x="138.07" y="141"/><ellipse cx="214.32" cy="157" fill="#ADD1B2" rx="11" ry="11" style="stroke:#181818;stroke-width:1.0;"/><path d="M217.0856,152.875 Q217.2419,152.6563 217.4294,152.5469 Q217.6169,152.4375 217.8356,152.4375 Q218.2106,152.4375 218.445,152.7031 Q218.6794,152.9531 218.6794,153.5625 L218.6794,155.0156 Q218.6794,155.625 218.445,155.8906 Q218.2106,156.1563 217.8356,156.1563 Q217.4919,156.1563 217.2888,155.9531 Q217.0856,155.7656 216.9763,155.25 Q216.9294,154.8906 216.7419,154.7031 Q216.4138,154.3281 215.8044,154.1094 Q215.195,153.8906 214.57,153.8906 Q213.8044,153.8906 213.1638,154.2188 Q212.5388,154.5469 212.0388,155.2969 Q211.5544,156.0469 211.5544,157.0781 L211.5544,158.1719 Q211.5544,159.4063 212.445,160.2344 Q213.3356,161.0469 214.9294,161.0469 Q215.8669,161.0469 216.5231,160.7969 Q216.9138,160.6406 217.3356,160.2031 Q217.6013,159.9375 217.7419,159.8594 Q217.8981,159.7813 218.1013,159.7813 Q218.4294,159.7813 218.6794,160.0469 Q218.945,160.2969 218.945,160.6406 Q218.945,160.9844 218.6013,161.3906 Q218.1013,161.9688 217.3044,162.2969 Q216.2263,162.75 214.9294,162.75 Q213.4138,162.75 212.2106,162.125 Q211.2263,161.625 210.5388,160.5625 Q209.8513,159.4844 209.8513,158.2031 L209.8513,157.0469 Q209.8513,155.7188 210.4606,154.5781 Q211.0856,153.4219 212.1794,152.8125 Q213.2731,152.1875 214.5075,152.1875 Q215.2419,152.1875 215.8825,152.3594 Q216.5388,152.5156 217.0856,152.875 Z " fill="#000000"/><text fill="#000000" font-family="sans-serif" font-size="14" lengthAdjust="spacing" textLength="79" x="234.82" y="162.7969">Repositories</text><line style="stroke:#181818;stroke-width:0.5;" x1="139.07" x2="377.07" y1="173" y2="173"/><text fill="#000000" font-family="sans-serif" font-size="14" lengthAdjust="spacing" textLength="193" x="144.07" y="192.1074">-SkillRepository skillRepository</text><line style="stroke:#181818;stroke-width:0.5;" x1="139.07" x2="377.07" y1="199.6211" y2="199.6211"/><text fill="#000000" font-family="sans-serif" font-size="14" lengthAdjust="spacing" textLength="228" x="144.07" y="218.7285">+SkillRepository getSkillRepository()</text></g><!--class RegisterSkillController--><g id="elem_RegisterSkillController"><rect codeLine="49" fill="#F1F1F1" height="103.8633" id="RegisterSkillController" rx="2.5" ry="2.5" style="stroke:#181818;stroke-width:0.5;" width="363" x="298.57" y="7"/><ellipse cx="405.82" cy="23" fill="#ADD1B2" rx="11" ry="11" style="stroke:#181818;stroke-width:1.0;"/><path d="M408.5856,18.875 Q408.7419,18.6563 408.9294,18.5469 Q409.1169,18.4375 409.3356,18.4375 Q409.7106,18.4375 409.945,18.7031 Q410.1794,18.9531 410.1794,19.5625 L410.1794,21.0156 Q410.1794,21.625 409.945,21.8906 Q409.7106,22.1563 409.3356,22.1563 Q408.9919,22.1563 408.7888,21.9531 Q408.5856,21.7656 408.4763,21.25 Q408.4294,20.8906 408.2419,20.7031 Q407.9138,20.3281 407.3044,20.1094 Q406.695,19.8906 406.07,19.8906 Q405.3044,19.8906 404.6638,20.2188 Q404.0388,20.5469 403.5388,21.2969 Q403.0544,22.0469 403.0544,23.0781 L403.0544,24.1719 Q403.0544,25.4063 403.945,26.2344 Q404.8356,27.0469 406.4294,27.0469 Q407.3669,27.0469 408.0231,26.7969 Q408.4138,26.6406 408.8356,26.2031 Q409.1013,25.9375 409.2419,25.8594 Q409.3981,25.7813 409.6013,25.7813 Q409.9294,25.7813 410.1794,26.0469 Q410.445,26.2969 410.445,26.6406 Q410.445,26.9844 410.1013,27.3906 Q409.6013,27.9688 408.8044,28.2969 Q407.7263,28.75 406.4294,28.75 Q404.9138,28.75 403.7106,28.125 Q402.7263,27.625 402.0388,26.5625 Q401.3513,25.4844 401.3513,24.2031 L401.3513,23.0469 Q401.3513,21.7188 401.9606,20.5781 Q402.5856,19.4219 403.6794,18.8125 Q404.7731,18.1875 406.0075,18.1875 Q406.7419,18.1875 407.3825,18.3594 Q408.0388,18.5156 408.5856,18.875 Z " fill="#000000"/><text fill="#000000" font-family="sans-serif" font-size="14" lengthAdjust="spacing" textLength="140" x="426.32" y="28.7969">RegisterSkillController</text><line style="stroke:#181818;stroke-width:0.5;" x1="299.57" x2="660.57" y1="39" y2="39"/><line style="stroke:#181818;stroke-width:0.5;" x1="299.57" x2="660.57" y1="47" y2="47"/><text fill="#000000" font-family="sans-serif" font-size="14" lengthAdjust="spacing" textLength="253" x="304.57" y="66.1074">+RegisterSkillController( skillRepository)</text><text fill="#000000" font-family="sans-serif" font-size="14" lengthAdjust="spacing" textLength="351" x="304.57" y="84.7285">+updateSkill(skillNameOld: String, skillNameNew: String)</text><text fill="#000000" font-family="sans-serif" font-size="14" lengthAdjust="spacing" textLength="194" x="304.57" y="103.3496">+removeSkill(skillName: String)</text></g><!--link Repositories to Repositories--><g id="link_Repositories_Repositories"><path codeLine="55" d="M378.3,161.8 C398.84,164.76 413.07,172 413.07,183.5 C413.07,195 404.7787,201.3842 384.2387,204.3442 " fill="none" id="Repositories-to-Repositories" style="stroke:#181818;stroke-width:1.0;"/><polygon fill="#181818" points="378.3,205.2,387.7785,207.8754,383.2489,204.4868,386.6374,199.9572,378.3,205.2" style="stroke:#181818;stroke-width:1.0;"/><text fill="#000000" font-family="sans-serif" font-size="13" lengthAdjust="spacing" textLength="49" x="419.07" y="189.0283">instance</text></g><!--link ApplicationSession to ApplicationSession--><g id="link_ApplicationSession_ApplicationSession"><path codeLine="56" d="M691.73,306.07 C711.57,307.28 726.57,314.09 726.57,326.5 C726.57,338.91 717.5589,345.3548 697.7189,346.5648 " fill="none" id="ApplicationSession-to-ApplicationSession" style="stroke:#181818;stroke-width:1.0;"/><polygon fill="#181818" points="691.73,346.93,700.9568,350.3747,696.7207,346.6256,700.4698,342.3895,691.73,346.93" style="stroke:#181818;stroke-width:1.0;"/><text fill="#000000" font-family="sans-serif" font-size="13" lengthAdjust="spacing" textLength="49" x="732.57" y="332.0283">instance</text></g><!--link RegisterSkillUI to RegisterSkillController--><g id="link_RegisterSkillUI_RegisterSkillController"><path codeLine="58" d="M263.15,59 C274.87,59 280.59,59 292.32,59 " fill="none" id="RegisterSkillUI-to-RegisterSkillController" style="stroke:#181818;stroke-width:1.0;stroke-dasharray:7.0,7.0;"/><polygon fill="#181818" points="298.32,59,289.32,55,293.32,59,289.32,63,298.32,59" style="stroke:#181818;stroke-width:1.0;"/></g><!--link RegisterSkillController to Repositories--><g id="link_RegisterSkillController_Repositories"><path codeLine="60" d="M387.53,111.06 C369.56,120.98 356.1843,128.3631 338.8443,137.9231 " fill="none" id="RegisterSkillController-to-Repositories" style="stroke:#181818;stroke-width:1.0;stroke-dasharray:7.0,7.0;"/><polygon fill="#181818" points="333.59,140.82,343.4028,139.9776,337.9686,138.4059,339.5403,132.9718,333.59,140.82" style="stroke:#181818;stroke-width:1.0;"/><text fill="#000000" font-family="sans-serif" font-size="13" lengthAdjust="spacing" textLength="67" x="361.33" y="141.0983">repositories</text></g><!--link Repositories to SkillRepository--><g id="link_Repositories_SkillRepository"><path codeLine="62" d="M244.81,226.04 C241.8,235.47 240.3552,240.0044 237.0852,250.2444 " fill="none" id="Repositories-to-SkillRepository" style="stroke:#181818;stroke-width:1.0;"/><polygon fill="#181818" points="235.26,255.96,241.8082,248.6033,236.781,251.197,234.1874,246.1697,235.26,255.96" style="stroke:#181818;stroke-width:1.0;"/><text fill="#000000" font-family="sans-serif" font-size="13" lengthAdjust="spacing" textLength="7" x="228.7016" y="248.2498">1</text></g><!--link RegisterSkillController to Skill--><g id="link_RegisterSkillController_Skill"><path codeLine="64" d="M478.95,111.15 C476.95,202.44 472.9514,385.7114 471.1114,469.7414 " fill="none" id="RegisterSkillController-to-Skill" style="stroke:#181818;stroke-width:1.0;stroke-dasharray:7.0,7.0;"/><polygon fill="#181818" points="470.98,475.74,475.1761,466.8297,471.0895,470.7412,467.178,466.6546,470.98,475.74" style="stroke:#181818;stroke-width:1.0;"/><text fill="#000000" font-family="sans-serif" font-size="13" lengthAdjust="spacing" textLength="23" x="477.07" y="332.0283">skill</text></g><!--link RegisterSkillController to SkillRepository--><g id="link_RegisterSkillController_SkillRepository"><path codeLine="65" d="M298.52,107.37 C292.31,108.65 286.14,109.86 280.07,111 C225.28,121.24 68.04,99.3 31.07,141 C6,169.27 11.8,193.51 31.07,226 C37.59,237 41.4443,242.7335 50.7543,251.5535 " fill="none" id="RegisterSkillController-to-SkillRepository" style="stroke:#181818;stroke-width:1.0;stroke-dasharray:7.0,7.0;"/><polygon fill="#181818" points="55.11,255.68,51.3274,246.5865,51.4802,252.2413,45.8254,252.3941,55.11,255.68" style="stroke:#181818;stroke-width:1.0;"/><text fill="#000000" font-family="sans-serif" font-size="13" lengthAdjust="spacing" textLength="87" x="32.07" y="189.0283">SkillRepository</text></g><!--link SkillRepository to Skill--><g id="link_SkillRepository_Skill"><path codeLine="68" d="M307.31,397.17 C342.98,423.54 377.6252,449.1533 408.7652,472.1733 " fill="none" id="SkillRepository-to-Skill" style="stroke:#181818;stroke-width:1.0;"/><polygon fill="#181818" points="413.59,475.74,408.7306,467.1734,409.5693,472.7678,403.975,473.6065,413.59,475.74" style="stroke:#181818;stroke-width:1.0;"/><text fill="#000000" font-family="sans-serif" font-size="13" lengthAdjust="spacing" textLength="32" x="374.07" y="442.0283">Skills</text></g><!--link ApplicationSession to UserSession--><g id="link_ApplicationSession_UserSession"><path codeLine="70" d="M622.65,369.2 C628.14,403.93 634.9044,446.8034 639.9544,478.7934 " fill="none" id="ApplicationSession-to-UserSession" style="stroke:#181818;stroke-width:1.0;"/><polygon fill="#181818" points="640.89,484.72,643.4377,475.2064,640.1103,479.7812,635.5356,476.4538,640.89,484.72" style="stroke:#181818;stroke-width:1.0;"/><text fill="#000000" font-family="sans-serif" font-size="13" lengthAdjust="spacing" textLength="72" x="635.07" y="442.0283">userSession</text><text fill="#000000" font-family="sans-serif" font-size="13" lengthAdjust="spacing" textLength="7" x="632.2354" y="473.7525">1</text></g><!--link RegisterSkillController to ApplicationSession--><g id="link_RegisterSkillController_ApplicationSession"><path codeLine="73" d="M506.29,111.19 C531.99,161.37 567.9647,231.5898 591.8847,278.2898 " fill="none" id="RegisterSkillController-to-ApplicationSession" style="stroke:#181818;stroke-width:1.0;stroke-dasharray:7.0,7.0;"/><polygon fill="#181818" points="594.62,283.63,594.0772,273.7961,592.3406,279.1798,586.9569,277.4432,594.62,283.63" style="stroke:#181818;stroke-width:1.0;"/></g><!--link RegisterSkillController to UserSession--><g id="link_RegisterSkillController_UserSession"><path codeLine="74" d="M618.3,111.12 C682.09,142.49 751.62,189.61 788.07,256 C818.22,310.93 814.39,340.13 788.07,397 C770.41,435.14 739.0798,462.3183 707.5798,483.0783 " fill="none" id="RegisterSkillController-to-UserSession" style="stroke:#181818;stroke-width:1.0;stroke-dasharray:7.0,7.0;"/><polygon fill="#181818" points="702.57,486.38,712.2859,484.7673,706.7449,483.6286,707.8836,478.0875,702.57,486.38" style="stroke:#181818;stroke-width:1.0;"/></g><!--SRC=[fLHDJyCm3BtdLrXSjWasmNL2az34OH82YMe_8BIcYvOcLU8E3SH_9saR6h8FaDXfzdj-jb_IZEnMg9eRNa6bbSutHbS8P1fa0rBpVCjBp6Wl4Gpcn5KfOuBTy4A_2LN2AvSsHgHGIFiQeTPoxuDZc3QaMGJaabjxHsJ4IqEuohNAn3l2DMCZYQy4fC68SaDG23-Dq8gnjWRkwbgAdFjKXjPwv8E1-rs29PVEeKHQAVTVvJYUz93BBHjZK55Vv93F8BcsQ58jL-3JznKNikC6ThOLKaB7cuBrqIElaFM5l2XQnhX5vXqzQjR6prXhAqYRVT1v49PkMspHQTeWkDEYI5HzFwVit5Fb9AOPhFGE_y9iwe9JodoIHI1V3PizubigqNdWF3hPwdlVPopTQivWprcld74HrBiWq0OV4dkwAOQOnGD4j33Aa1gVcc6f5Haj9He8Xtq27wVTm_h_C- -NGt9JnyR0TF73A9Y3w6ytE_mMFFj8DgfXwO7C5gVsJxYHSRE3cKmK7YvmSNEH7jaPSQVUNR1vv-FlpEWcp0yRZU01IrG5PobvEXrQPVrNTypKVeNeeN05JVHidD_co9jrZhx-8So-0000]--></g></svg>