<?xml version="1.0" encoding="us-ascii" standalone="no"?><svg xmlns="http://www.w3.org/2000/svg" xmlns:xlink="http://www.w3.org/1999/xlink" contentStyleType="text/css" height="769px" preserveAspectRatio="none" style="width:911px;height:769px;background:#FFFFFF;" version="1.1" viewBox="0 0 911 769" width="911px" zoomAndPan="magnify"><defs/><g><!--class ApplicationSession--><g id="elem_ApplicationSession"><rect codeLine="12" fill="#F1F1F1" height="85.2422" id="ApplicationSession" rx="2.5" ry="2.5" style="stroke:#181818;stroke-width:0.5;" width="151" x="7" y="284"/><ellipse cx="22" cy="300" fill="#ADD1B2" rx="11" ry="11" style="stroke:#181818;stroke-width:1.0;"/><path d="M24.7656,295.875 Q24.9219,295.6563 25.1094,295.5469 Q25.2969,295.4375 25.5156,295.4375 Q25.8906,295.4375 26.125,295.7031 Q26.3594,295.9531 26.3594,296.5625 L26.3594,298.0156 Q26.3594,298.625 26.125,298.8906 Q25.8906,299.1563 25.5156,299.1563 Q25.1719,299.1563 24.9688,298.9531 Q24.7656,298.7656 24.6563,298.25 Q24.6094,297.8906 24.4219,297.7031 Q24.0938,297.3281 23.4844,297.1094 Q22.875,296.8906 22.25,296.8906 Q21.4844,296.8906 20.8438,297.2188 Q20.2188,297.5469 19.7188,298.2969 Q19.2344,299.0469 19.2344,300.0781 L19.2344,301.1719 Q19.2344,302.4063 20.125,303.2344 Q21.0156,304.0469 22.6094,304.0469 Q23.5469,304.0469 24.2031,303.7969 Q24.5938,303.6406 25.0156,303.2031 Q25.2813,302.9375 25.4219,302.8594 Q25.5781,302.7813 25.7813,302.7813 Q26.1094,302.7813 26.3594,303.0469 Q26.625,303.2969 26.625,303.6406 Q26.625,303.9844 26.2813,304.3906 Q25.7813,304.9688 24.9844,305.2969 Q23.9063,305.75 22.6094,305.75 Q21.0938,305.75 19.8906,305.125 Q18.9063,304.625 18.2188,303.5625 Q17.5313,302.4844 17.5313,301.2031 L17.5313,300.0469 Q17.5313,298.7188 18.1406,297.5781 Q18.7656,296.4219 19.8594,295.8125 Q20.9531,295.1875 22.1875,295.1875 Q22.9219,295.1875 23.5625,295.3594 Q24.2188,295.5156 24.7656,295.875 Z " fill="#000000"/><text fill="#000000" font-family="sans-serif" font-size="14" lengthAdjust="spacing" textLength="119" x="36" y="305.7969">ApplicationSession</text><line style="stroke:#181818;stroke-width:0.5;" x1="8" x2="157" y1="316" y2="316"/><line style="stroke:#181818;stroke-width:0.5;" x1="8" x2="157" y1="324" y2="324"/><text fill="#000000" font-family="sans-serif" font-size="14" lengthAdjust="spacing" textLength="128" x="13" y="343.1074">+static getInstance()</text><text fill="#000000" font-family="sans-serif" font-size="14" lengthAdjust="spacing" textLength="136" x="13" y="361.7285">+getCurrentSession()</text></g><!--class UserSession--><g id="elem_UserSession"><rect codeLine="18" fill="#F1F1F1" height="66.6211" id="UserSession" rx="2.5" ry="2.5" style="stroke:#181818;stroke-width:0.5;" width="113" x="158" y="485"/><ellipse cx="173.9" cy="501" fill="#ADD1B2" rx="11" ry="11" style="stroke:#181818;stroke-width:1.0;"/><path d="M176.6656,496.875 Q176.8219,496.6563 177.0094,496.5469 Q177.1969,496.4375 177.4156,496.4375 Q177.7906,496.4375 178.025,496.7031 Q178.2594,496.9531 178.2594,497.5625 L178.2594,499.0156 Q178.2594,499.625 178.025,499.8906 Q177.7906,500.1563 177.4156,500.1563 Q177.0719,500.1563 176.8688,499.9531 Q176.6656,499.7656 176.5563,499.25 Q176.5094,498.8906 176.3219,498.7031 Q175.9938,498.3281 175.3844,498.1094 Q174.775,497.8906 174.15,497.8906 Q173.3844,497.8906 172.7438,498.2188 Q172.1188,498.5469 171.6188,499.2969 Q171.1344,500.0469 171.1344,501.0781 L171.1344,502.1719 Q171.1344,503.4063 172.025,504.2344 Q172.9156,505.0469 174.5094,505.0469 Q175.4469,505.0469 176.1031,504.7969 Q176.4938,504.6406 176.9156,504.2031 Q177.1813,503.9375 177.3219,503.8594 Q177.4781,503.7813 177.6813,503.7813 Q178.0094,503.7813 178.2594,504.0469 Q178.525,504.2969 178.525,504.6406 Q178.525,504.9844 178.1813,505.3906 Q177.6813,505.9688 176.8844,506.2969 Q175.8063,506.75 174.5094,506.75 Q172.9938,506.75 171.7906,506.125 Q170.8063,505.625 170.1188,504.5625 Q169.4313,503.4844 169.4313,502.2031 L169.4313,501.0469 Q169.4313,499.7188 170.0406,498.5781 Q170.6656,497.4219 171.7594,496.8125 Q172.8531,496.1875 174.0875,496.1875 Q174.8219,496.1875 175.4625,496.3594 Q176.1188,496.5156 176.6656,496.875 Z " fill="#000000"/><text fill="#000000" font-family="sans-serif" font-size="14" lengthAdjust="spacing" textLength="79" x="188.1" y="506.7969">UserSession</text><line style="stroke:#181818;stroke-width:0.5;" x1="159" x2="270" y1="517" y2="517"/><line style="stroke:#181818;stroke-width:0.5;" x1="159" x2="270" y1="525" y2="525"/><text fill="#000000" font-family="sans-serif" font-size="14" lengthAdjust="spacing" textLength="101" x="164" y="544.1074">+getUserEmail()</text></g><!--class Employee--><g id="elem_Employee"><rect codeLine="23" fill="#F1F1F1" height="122.4844" id="Employee" rx="2.5" ry="2.5" style="stroke:#181818;stroke-width:0.5;" width="94" x="754.5" y="640"/><ellipse cx="769.5" cy="656" fill="#ADD1B2" rx="11" ry="11" style="stroke:#181818;stroke-width:1.0;"/><path d="M772.2656,651.875 Q772.4219,651.6563 772.6094,651.5469 Q772.7969,651.4375 773.0156,651.4375 Q773.3906,651.4375 773.625,651.7031 Q773.8594,651.9531 773.8594,652.5625 L773.8594,654.0156 Q773.8594,654.625 773.625,654.8906 Q773.3906,655.1563 773.0156,655.1563 Q772.6719,655.1563 772.4688,654.9531 Q772.2656,654.7656 772.1563,654.25 Q772.1094,653.8906 771.9219,653.7031 Q771.5938,653.3281 770.9844,653.1094 Q770.375,652.8906 769.75,652.8906 Q768.9844,652.8906 768.3438,653.2188 Q767.7188,653.5469 767.2188,654.2969 Q766.7344,655.0469 766.7344,656.0781 L766.7344,657.1719 Q766.7344,658.4063 767.625,659.2344 Q768.5156,660.0469 770.1094,660.0469 Q771.0469,660.0469 771.7031,659.7969 Q772.0938,659.6406 772.5156,659.2031 Q772.7813,658.9375 772.9219,658.8594 Q773.0781,658.7813 773.2813,658.7813 Q773.6094,658.7813 773.8594,659.0469 Q774.125,659.2969 774.125,659.6406 Q774.125,659.9844 773.7813,660.3906 Q773.2813,660.9688 772.4844,661.2969 Q771.4063,661.75 770.1094,661.75 Q768.5938,661.75 767.3906,661.125 Q766.4063,660.625 765.7188,659.5625 Q765.0313,658.4844 765.0313,657.2031 L765.0313,656.0469 Q765.0313,654.7188 765.6406,653.5781 Q766.2656,652.4219 767.3594,651.8125 Q768.4531,651.1875 769.6875,651.1875 Q770.4219,651.1875 771.0625,651.3594 Q771.7188,651.5156 772.2656,651.875 Z " fill="#000000"/><text fill="#000000" font-family="sans-serif" font-size="14" lengthAdjust="spacing" textLength="62" x="783.5" y="661.7969">Employee</text><line style="stroke:#181818;stroke-width:0.5;" x1="755.5" x2="847.5" y1="672" y2="672"/><text fill="#000000" font-family="sans-serif" font-size="14" lengthAdjust="spacing" textLength="40" x="760.5" y="691.1074">-name</text><text fill="#000000" font-family="sans-serif" font-size="14" lengthAdjust="spacing" textLength="38" x="760.5" y="709.7285">-email</text><text fill="#000000" font-family="sans-serif" font-size="14" lengthAdjust="spacing" textLength="54" x="760.5" y="728.3496">-position</text><text fill="#000000" font-family="sans-serif" font-size="14" lengthAdjust="spacing" textLength="45" x="760.5" y="746.9707">-phone</text><line style="stroke:#181818;stroke-width:0.5;" x1="755.5" x2="847.5" y1="754.4844" y2="754.4844"/></g><!--class Skill--><g id="elem_Skill"><rect codeLine="30" fill="#F1F1F1" height="85.2422" id="Skill" rx="2.5" ry="2.5" style="stroke:#181818;stroke-width:0.5;" width="135" x="684" y="476"/><ellipse cx="734.75" cy="492" fill="#ADD1B2" rx="11" ry="11" style="stroke:#181818;stroke-width:1.0;"/><path d="M737.5156,487.875 Q737.6719,487.6563 737.8594,487.5469 Q738.0469,487.4375 738.2656,487.4375 Q738.6406,487.4375 738.875,487.7031 Q739.1094,487.9531 739.1094,488.5625 L739.1094,490.0156 Q739.1094,490.625 738.875,490.8906 Q738.6406,491.1563 738.2656,491.1563 Q737.9219,491.1563 737.7188,490.9531 Q737.5156,490.7656 737.4063,490.25 Q737.3594,489.8906 737.1719,489.7031 Q736.8438,489.3281 736.2344,489.1094 Q735.625,488.8906 735,488.8906 Q734.2344,488.8906 733.5938,489.2188 Q732.9688,489.5469 732.4688,490.2969 Q731.9844,491.0469 731.9844,492.0781 L731.9844,493.1719 Q731.9844,494.4063 732.875,495.2344 Q733.7656,496.0469 735.3594,496.0469 Q736.2969,496.0469 736.9531,495.7969 Q737.3438,495.6406 737.7656,495.2031 Q738.0313,494.9375 738.1719,494.8594 Q738.3281,494.7813 738.5313,494.7813 Q738.8594,494.7813 739.1094,495.0469 Q739.375,495.2969 739.375,495.6406 Q739.375,495.9844 739.0313,496.3906 Q738.5313,496.9688 737.7344,497.2969 Q736.6563,497.75 735.3594,497.75 Q733.8438,497.75 732.6406,497.125 Q731.6563,496.625 730.9688,495.5625 Q730.2813,494.4844 730.2813,493.2031 L730.2813,492.0469 Q730.2813,490.7188 730.8906,489.5781 Q731.5156,488.4219 732.6094,487.8125 Q733.7031,487.1875 734.9375,487.1875 Q735.6719,487.1875 736.3125,487.3594 Q736.9688,487.5156 737.5156,487.875 Z " fill="#000000"/><text fill="#000000" font-family="sans-serif" font-size="14" lengthAdjust="spacing" textLength="25" x="755.25" y="497.7969">Skill</text><line style="stroke:#181818;stroke-width:0.5;" x1="685" x2="818" y1="508" y2="508"/><text fill="#000000" font-family="sans-serif" font-size="14" lengthAdjust="spacing" textLength="64" x="690" y="527.1074">-skillName</text><line style="stroke:#181818;stroke-width:0.5;" x1="685" x2="818" y1="534.6211" y2="534.6211"/><text fill="#000000" font-family="sans-serif" font-size="14" lengthAdjust="spacing" textLength="123" x="690" y="553.7285">+addSkill(skill: Skill)</text></g><!--class SkillRepository--><g id="elem_SkillRepository"><rect codeLine="36" fill="#F1F1F1" height="141.1055" id="SkillRepository" rx="2.5" ry="2.5" style="stroke:#181818;stroke-width:0.5;" width="393" x="344" y="256"/><ellipse cx="489.75" cy="272" fill="#ADD1B2" rx="11" ry="11" style="stroke:#181818;stroke-width:1.0;"/><path d="M492.5156,267.875 Q492.6719,267.6563 492.8594,267.5469 Q493.0469,267.4375 493.2656,267.4375 Q493.6406,267.4375 493.875,267.7031 Q494.1094,267.9531 494.1094,268.5625 L494.1094,270.0156 Q494.1094,270.625 493.875,270.8906 Q493.6406,271.1563 493.2656,271.1563 Q492.9219,271.1563 492.7188,270.9531 Q492.5156,270.7656 492.4063,270.25 Q492.3594,269.8906 492.1719,269.7031 Q491.8438,269.3281 491.2344,269.1094 Q490.625,268.8906 490,268.8906 Q489.2344,268.8906 488.5938,269.2188 Q487.9688,269.5469 487.4688,270.2969 Q486.9844,271.0469 486.9844,272.0781 L486.9844,273.1719 Q486.9844,274.4063 487.875,275.2344 Q488.7656,276.0469 490.3594,276.0469 Q491.2969,276.0469 491.9531,275.7969 Q492.3438,275.6406 492.7656,275.2031 Q493.0313,274.9375 493.1719,274.8594 Q493.3281,274.7813 493.5313,274.7813 Q493.8594,274.7813 494.1094,275.0469 Q494.375,275.2969 494.375,275.6406 Q494.375,275.9844 494.0313,276.3906 Q493.5313,276.9688 492.7344,277.2969 Q491.6563,277.75 490.3594,277.75 Q488.8438,277.75 487.6406,277.125 Q486.6563,276.625 485.9688,275.5625 Q485.2813,274.4844 485.2813,273.2031 L485.2813,272.0469 Q485.2813,270.7188 485.8906,269.5781 Q486.5156,268.4219 487.6094,267.8125 Q488.7031,267.1875 489.9375,267.1875 Q490.6719,267.1875 491.3125,267.3594 Q491.9688,267.5156 492.5156,267.875 Z " fill="#000000"/><text fill="#000000" font-family="sans-serif" font-size="14" lengthAdjust="spacing" textLength="93" x="510.25" y="277.7969">SkillRepository</text><line style="stroke:#181818;stroke-width:0.5;" x1="345" x2="736" y1="288" y2="288"/><text fill="#000000" font-family="sans-serif" font-size="14" lengthAdjust="spacing" textLength="102" x="350" y="307.1074">-List&lt;Skill&gt; skills</text><line style="stroke:#181818;stroke-width:0.5;" x1="345" x2="736" y1="314.6211" y2="314.6211"/><text fill="#000000" font-family="sans-serif" font-size="14" lengthAdjust="spacing" textLength="201" x="350" y="333.7285">+void addSkill(skillName: String)</text><text fill="#000000" font-family="sans-serif" font-size="14" lengthAdjust="spacing" textLength="224" x="350" y="352.3496">+void removeSkill(skillName: String)</text><text fill="#000000" font-family="sans-serif" font-size="14" lengthAdjust="spacing" textLength="381" x="350" y="370.9707">+void updateSkill(skillNameOld: String, skillNameNew: String)</text><text fill="#000000" font-family="sans-serif" font-size="14" lengthAdjust="spacing" textLength="196" x="350" y="389.5918">+Skill getSkill(skillName: String)</text></g><!--class RegisterSkillUI--><g id="elem_RegisterSkillUI"><rect codeLine="45" fill="#F1F1F1" height="48" id="RegisterSkillUI" rx="2.5" ry="2.5" style="stroke:#181818;stroke-width:0.5;" width="122" x="207.5" y="35"/><ellipse cx="222.5" cy="51" fill="#ADD1B2" rx="11" ry="11" style="stroke:#181818;stroke-width:1.0;"/><path d="M225.2656,46.875 Q225.4219,46.6563 225.6094,46.5469 Q225.7969,46.4375 226.0156,46.4375 Q226.3906,46.4375 226.625,46.7031 Q226.8594,46.9531 226.8594,47.5625 L226.8594,49.0156 Q226.8594,49.625 226.625,49.8906 Q226.3906,50.1563 226.0156,50.1563 Q225.6719,50.1563 225.4688,49.9531 Q225.2656,49.7656 225.1563,49.25 Q225.1094,48.8906 224.9219,48.7031 Q224.5938,48.3281 223.9844,48.1094 Q223.375,47.8906 222.75,47.8906 Q221.9844,47.8906 221.3438,48.2188 Q220.7188,48.5469 220.2188,49.2969 Q219.7344,50.0469 219.7344,51.0781 L219.7344,52.1719 Q219.7344,53.4063 220.625,54.2344 Q221.5156,55.0469 223.1094,55.0469 Q224.0469,55.0469 224.7031,54.7969 Q225.0938,54.6406 225.5156,54.2031 Q225.7813,53.9375 225.9219,53.8594 Q226.0781,53.7813 226.2813,53.7813 Q226.6094,53.7813 226.8594,54.0469 Q227.125,54.2969 227.125,54.6406 Q227.125,54.9844 226.7813,55.3906 Q226.2813,55.9688 225.4844,56.2969 Q224.4063,56.75 223.1094,56.75 Q221.5938,56.75 220.3906,56.125 Q219.4063,55.625 218.7188,54.5625 Q218.0313,53.4844 218.0313,52.2031 L218.0313,51.0469 Q218.0313,49.7188 218.6406,48.5781 Q219.2656,47.4219 220.3594,46.8125 Q221.4531,46.1875 222.6875,46.1875 Q223.4219,46.1875 224.0625,46.3594 Q224.7188,46.5156 225.2656,46.875 Z " fill="#000000"/><text fill="#000000" font-family="sans-serif" font-size="14" lengthAdjust="spacing" textLength="90" x="236.5" y="56.7969">RegisterSkillUI</text><line style="stroke:#181818;stroke-width:0.5;" x1="208.5" x2="328.5" y1="67" y2="67"/><line style="stroke:#181818;stroke-width:0.5;" x1="208.5" x2="328.5" y1="75" y2="75"/></g><!--class Repositories--><g id="elem_Repositories"><rect codeLine="48" fill="#F1F1F1" height="85.2422" id="Repositories" rx="2.5" ry="2.5" style="stroke:#181818;stroke-width:0.5;" width="240" x="324.5" y="141"/><ellipse cx="400.75" cy="157" fill="#ADD1B2" rx="11" ry="11" style="stroke:#181818;stroke-width:1.0;"/><path d="M403.5156,152.875 Q403.6719,152.6563 403.8594,152.5469 Q404.0469,152.4375 404.2656,152.4375 Q404.6406,152.4375 404.875,152.7031 Q405.1094,152.9531 405.1094,153.5625 L405.1094,155.0156 Q405.1094,155.625 404.875,155.8906 Q404.6406,156.1563 404.2656,156.1563 Q403.9219,156.1563 403.7188,155.9531 Q403.5156,155.7656 403.4063,155.25 Q403.3594,154.8906 403.1719,154.7031 Q402.8438,154.3281 402.2344,154.1094 Q401.625,153.8906 401,153.8906 Q400.2344,153.8906 399.5938,154.2188 Q398.9688,154.5469 398.4688,155.2969 Q397.9844,156.0469 397.9844,157.0781 L397.9844,158.1719 Q397.9844,159.4063 398.875,160.2344 Q399.7656,161.0469 401.3594,161.0469 Q402.2969,161.0469 402.9531,160.7969 Q403.3438,160.6406 403.7656,160.2031 Q404.0313,159.9375 404.1719,159.8594 Q404.3281,159.7813 404.5313,159.7813 Q404.8594,159.7813 405.1094,160.0469 Q405.375,160.2969 405.375,160.6406 Q405.375,160.9844 405.0313,161.3906 Q404.5313,161.9688 403.7344,162.2969 Q402.6563,162.75 401.3594,162.75 Q399.8438,162.75 398.6406,162.125 Q397.6563,161.625 396.9688,160.5625 Q396.2813,159.4844 396.2813,158.2031 L396.2813,157.0469 Q396.2813,155.7188 396.8906,154.5781 Q397.5156,153.4219 398.6094,152.8125 Q399.7031,152.1875 400.9375,152.1875 Q401.6719,152.1875 402.3125,152.3594 Q402.9688,152.5156 403.5156,152.875 Z " fill="#000000"/><text fill="#000000" font-family="sans-serif" font-size="14" lengthAdjust="spacing" textLength="79" x="421.25" y="162.7969">Repositories</text><line style="stroke:#181818;stroke-width:0.5;" x1="325.5" x2="563.5" y1="173" y2="173"/><text fill="#000000" font-family="sans-serif" font-size="14" lengthAdjust="spacing" textLength="193" x="330.5" y="192.1074">-SkillRepository skillRepository</text><line style="stroke:#181818;stroke-width:0.5;" x1="325.5" x2="563.5" y1="199.6211" y2="199.6211"/><text fill="#000000" font-family="sans-serif" font-size="14" lengthAdjust="spacing" textLength="228" x="330.5" y="218.7285">+SkillRepository getSkillRepository()</text></g><!--class RegisterSkillController--><g id="elem_RegisterSkillController"><rect codeLine="54" fill="#F1F1F1" height="103.8633" id="RegisterSkillController" rx="2.5" ry="2.5" style="stroke:#181818;stroke-width:0.5;" width="398" x="364.5" y="7"/><ellipse cx="489.25" cy="23" fill="#ADD1B2" rx="11" ry="11" style="stroke:#181818;stroke-width:1.0;"/><path d="M492.0156,18.875 Q492.1719,18.6563 492.3594,18.5469 Q492.5469,18.4375 492.7656,18.4375 Q493.1406,18.4375 493.375,18.7031 Q493.6094,18.9531 493.6094,19.5625 L493.6094,21.0156 Q493.6094,21.625 493.375,21.8906 Q493.1406,22.1563 492.7656,22.1563 Q492.4219,22.1563 492.2188,21.9531 Q492.0156,21.7656 491.9063,21.25 Q491.8594,20.8906 491.6719,20.7031 Q491.3438,20.3281 490.7344,20.1094 Q490.125,19.8906 489.5,19.8906 Q488.7344,19.8906 488.0938,20.2188 Q487.4688,20.5469 486.9688,21.2969 Q486.4844,22.0469 486.4844,23.0781 L486.4844,24.1719 Q486.4844,25.4063 487.375,26.2344 Q488.2656,27.0469 489.8594,27.0469 Q490.7969,27.0469 491.4531,26.7969 Q491.8438,26.6406 492.2656,26.2031 Q492.5313,25.9375 492.6719,25.8594 Q492.8281,25.7813 493.0313,25.7813 Q493.3594,25.7813 493.6094,26.0469 Q493.875,26.2969 493.875,26.6406 Q493.875,26.9844 493.5313,27.3906 Q493.0313,27.9688 492.2344,28.2969 Q491.1563,28.75 489.8594,28.75 Q488.3438,28.75 487.1406,28.125 Q486.1563,27.625 485.4688,26.5625 Q484.7813,25.4844 484.7813,24.2031 L484.7813,23.0469 Q484.7813,21.7188 485.3906,20.5781 Q486.0156,19.4219 487.1094,18.8125 Q488.2031,18.1875 489.4375,18.1875 Q490.1719,18.1875 490.8125,18.3594 Q491.4688,18.5156 492.0156,18.875 Z " fill="#000000"/><text fill="#000000" font-family="sans-serif" font-size="14" lengthAdjust="spacing" textLength="140" x="509.75" y="28.7969">RegisterSkillController</text><line style="stroke:#181818;stroke-width:0.5;" x1="365.5" x2="761.5" y1="39" y2="39"/><line style="stroke:#181818;stroke-width:0.5;" x1="365.5" x2="761.5" y1="47" y2="47"/><text fill="#000000" font-family="sans-serif" font-size="14" lengthAdjust="spacing" textLength="386" x="370.5" y="66.1074">+RegisterSkillController(employeeRepository, skillRepository)</text><text fill="#000000" font-family="sans-serif" font-size="14" lengthAdjust="spacing" textLength="351" x="370.5" y="84.7285">+updateSkill(skillNameOld: String, skillNameNew: String)</text><text fill="#000000" font-family="sans-serif" font-size="14" lengthAdjust="spacing" textLength="194" x="370.5" y="103.3496">+removeSkill(skillName: String)</text></g><!--link Repositories to Repositories--><g id="link_Repositories_Repositories"><path codeLine="60" d="M564.73,161.8 C585.27,164.76 599.5,172 599.5,183.5 C599.5,195 591.2087,201.3842 570.6687,204.3442 " fill="none" id="Repositories-to-Repositories" style="stroke:#181818;stroke-width:1.0;"/><polygon fill="#181818" points="564.73,205.2,574.2085,207.8754,569.6789,204.4868,573.0674,199.9572,564.73,205.2" style="stroke:#181818;stroke-width:1.0;"/><text fill="#000000" font-family="sans-serif" font-size="13" lengthAdjust="spacing" textLength="49" x="605.5" y="189.0283">instance</text></g><!--link ApplicationSession to ApplicationSession--><g id="link_ApplicationSession_ApplicationSession"><path codeLine="61" d="M158.16,306.07 C178,307.28 193,314.09 193,326.5 C193,338.91 183.9889,345.3548 164.1489,346.5648 " fill="none" id="ApplicationSession-to-ApplicationSession" style="stroke:#181818;stroke-width:1.0;"/><polygon fill="#181818" points="158.16,346.93,167.3868,350.3747,163.1507,346.6256,166.8998,342.3895,158.16,346.93" style="stroke:#181818;stroke-width:1.0;"/><text fill="#000000" font-family="sans-serif" font-size="13" lengthAdjust="spacing" textLength="49" x="199" y="332.0283">instance</text></g><!--link RegisterSkillUI to RegisterSkillController--><g id="link_RegisterSkillUI_RegisterSkillController"><path codeLine="63" d="M329.57,59 C341.15,59 346.72,59 358.3,59 " fill="none" id="RegisterSkillUI-to-RegisterSkillController" style="stroke:#181818;stroke-width:1.0;stroke-dasharray:7.0,7.0;"/><polygon fill="#181818" points="364.3,59,355.3,55,359.3,59,355.3,63,364.3,59" style="stroke:#181818;stroke-width:1.0;"/></g><!--link RegisterSkillController to Repositories--><g id="link_RegisterSkillController_Repositories"><path codeLine="65" d="M513.72,111.24 C504.17,121.08 498.451,126.9566 489.231,136.4466 " fill="none" id="RegisterSkillController-to-Repositories" style="stroke:#181818;stroke-width:1.0;stroke-dasharray:7.0,7.0;"/><polygon fill="#181818" points="485.05,140.75,494.1904,137.0822,488.5342,137.1638,488.4525,131.5076,485.05,140.75" style="stroke:#181818;stroke-width:1.0;"/><text fill="#000000" font-family="sans-serif" font-size="13" lengthAdjust="spacing" textLength="67" x="431.26" y="122.1583">repositories</text></g><!--link Repositories to SkillRepository--><g id="link_Repositories_SkillRepository"><path codeLine="67" d="M472.78,226.04 C479.2,235.47 482.8039,240.76 489.7739,251 " fill="none" id="Repositories-to-SkillRepository" style="stroke:#181818;stroke-width:1.0;"/><polygon fill="#181818" points="493.15,255.96,491.3925,246.2692,490.3366,251.8266,484.7791,250.7707,493.15,255.96" style="stroke:#181818;stroke-width:1.0;"/><text fill="#000000" font-family="sans-serif" font-size="13" lengthAdjust="spacing" textLength="7" x="483.3379" y="248.2498">1</text></g><!--link RegisterSkillController to Skill--><g id="link_RegisterSkillController_Skill"><path codeLine="69" d="M723.94,111.02 C734.95,119.53 744.73,129.44 752.5,141 C821.77,244.08 789.3754,395.7905 767.1954,470.1305 " fill="none" id="RegisterSkillController-to-Skill" style="stroke:#181818;stroke-width:1.0;stroke-dasharray:7.0,7.0;"/><polygon fill="#181818" points="765.48,475.88,771.8862,468.3993,766.9095,471.0887,764.2201,466.1121,765.48,475.88" style="stroke:#181818;stroke-width:1.0;"/><text fill="#000000" font-family="sans-serif" font-size="13" lengthAdjust="spacing" textLength="23" x="795.5" y="332.0283">skill</text></g><!--link RegisterSkillController to SkillRepository--><g id="link_RegisterSkillController_SkillRepository"><path codeLine="70" d="M625.99,111.29 C633.51,120.36 640.09,130.34 644.5,141 C658.96,175.9 659.34,191.26 644.5,226 C639.98,236.57 637.4136,241.8139 630.2036,251.0839 " fill="none" id="RegisterSkillController-to-SkillRepository" style="stroke:#181818;stroke-width:1.0;stroke-dasharray:7.0,7.0;"/><polygon fill="#181818" points="626.52,255.82,635.2029,251.1716,629.5897,251.8732,628.8881,246.2601,626.52,255.82" style="stroke:#181818;stroke-width:1.0;"/><text fill="#000000" font-family="sans-serif" font-size="13" lengthAdjust="spacing" textLength="87" x="656.5" y="189.0283">SkillRepository</text></g><!--link SkillRepository to Skill--><g id="link_SkillRepository_Skill"><path codeLine="73" d="M617.87,397.17 C647.16,423.54 675.1008,448.7055 700.6708,471.7255 " fill="none" id="SkillRepository-to-Skill" style="stroke:#181818;stroke-width:1.0;"/><polygon fill="#181818" points="705.13,475.74,701.1176,466.7455,701.414,472.3946,695.765,472.6911,705.13,475.74" style="stroke:#181818;stroke-width:1.0;"/><text fill="#000000" font-family="sans-serif" font-size="13" lengthAdjust="spacing" textLength="32" x="672.5" y="442.0283">Skills</text></g><!--link ApplicationSession to UserSession--><g id="link_ApplicationSession_UserSession"><path codeLine="75" d="M111.47,369.2 C135.6,403.93 166.0761,447.8028 188.3061,479.7928 " fill="none" id="ApplicationSession-to-UserSession" style="stroke:#181818;stroke-width:1.0;"/><polygon fill="#181818" points="191.73,484.72,189.8789,475.0467,188.8767,480.614,183.3094,479.6119,191.73,484.72" style="stroke:#181818;stroke-width:1.0;"/><text fill="#000000" font-family="sans-serif" font-size="13" lengthAdjust="spacing" textLength="72" x="165.5" y="442.0283">userSession</text><text fill="#000000" font-family="sans-serif" font-size="13" lengthAdjust="spacing" textLength="7" x="179.7223" y="473.7525">1</text></g><!--link RegisterSkillController to Employee--><g id="link_RegisterSkillController_Employee"><path codeLine="77" d="M758.66,111.13 C772.18,119.61 784.7,129.48 795.5,141 C867.45,217.74 842.3,471.68 845.5,591 C845.73,599.44 847.4,601.77 845.5,610 C843.19,620 841.9491,624.649 837.8091,634.379 " fill="none" id="RegisterSkillController-to-Employee" style="stroke:#181818;stroke-width:1.0;stroke-dasharray:7.0,7.0;"/><polygon fill="#181818" points="835.46,639.9,842.6644,633.1846,837.4176,635.2992,835.303,630.0524,835.46,639.9" style="stroke:#181818;stroke-width:1.0;"/><text fill="#000000" font-family="sans-serif" font-size="13" lengthAdjust="spacing" textLength="56" x="847.5" y="442.0283">employee</text><text fill="#000000" font-family="sans-serif" font-size="13" lengthAdjust="spacing" textLength="7" x="831.9819" y="628.8696">1</text></g><!--link RegisterSkillController to ApplicationSession--><g id="link_RegisterSkillController_ApplicationSession"><path codeLine="78" d="M364.15,109.88 C315.9,122.81 275.07,134.83 264.5,141 C201.75,177.63 149.4254,236.7352 116.6254,278.8752 " fill="none" id="RegisterSkillController-to-ApplicationSession" style="stroke:#181818;stroke-width:1.0;stroke-dasharray:7.0,7.0;"/><polygon fill="#181818" points="112.94,283.61,121.6246,278.9647,116.0111,279.6643,115.3115,274.0509,112.94,283.61" style="stroke:#181818;stroke-width:1.0;"/></g><!--link RegisterSkillController to UserSession--><g id="link_RegisterSkillController_UserSession"><path codeLine="79" d="M364.27,101.59 C344.92,111.95 327.1,124.88 312.5,141 C219.4,243.81 289.73,314.22 246.5,446 C242.22,459.05 238.8435,467.4818 233.2935,479.5118 " fill="none" id="RegisterSkillController-to-UserSession" style="stroke:#181818;stroke-width:1.0;stroke-dasharray:7.0,7.0;"/><polygon fill="#181818" points="230.78,484.96,238.1823,478.4634,232.8746,480.4199,230.9181,475.1121,230.78,484.96" style="stroke:#181818;stroke-width:1.0;"/></g><!--link Skill to Employee--><g id="link_Skill_Employee"><path codeLine="81" d="M763.1,561.36 C769.56,584.69 776.1195,608.3574 783.2495,634.1174 " fill="none" id="Skill-to-Employee" style="stroke:#181818;stroke-width:1.0;"/><polygon fill="#181818" points="784.85,639.9,786.3043,630.1591,783.5162,635.0812,778.5941,632.2931,784.85,639.9" style="stroke:#181818;stroke-width:1.0;"/><text fill="#000000" font-family="sans-serif" font-size="13" lengthAdjust="spacing" textLength="59" x="777.5" y="606.0283">createdBy</text></g><!--link Employee to Skill--><g id="link_Employee_Skill"><path codeLine="83" d="M754.72,639.97 C749.3,630.39 744.6,620.24 741.5,610 C736.78,594.42 736.522,582.643 739.042,567.063 " fill="none" id="Employee-to-Skill" style="stroke:#181818;stroke-width:1.0;"/><polygon fill="#181818" points="740,561.14,734.6143,569.3859,739.2016,566.0759,742.5116,570.6632,740,561.14" style="stroke:#181818;stroke-width:1.0;"/><text fill="#000000" font-family="sans-serif" font-size="13" lengthAdjust="spacing" textLength="21" x="742.5" y="606.0283">has</text><text fill="#000000" font-family="sans-serif" font-size="13" lengthAdjust="spacing" textLength="5" x="732.7688" y="583.3226">*</text></g><!--SRC=[fLHDJ-Gm3BtdLrXpcPc5GRlNQZKI80uZ8P2e-07PrhJHf4cLfA22zhzlqYPjDlC14ZqbzlEp_U9wgVTCj5JH1XefP54hsI0OrI6PFIqjzhJ2tFGSGM5XgAXu3D0rBUKR4nMyKAvZ3sS2JTyYj9BtxdBC9vMH978Kd6fzROnYVpg3kqAAdBqZ_2HaoV75W96WM5KRA9chXab1o103rstBMK6TAKUjdUU3WFqkG1jhBg12inFsB0fShRtBscuxfL0O7sGzVmFbiqQLSja0PxvhAECnzgvfkUmHOGHkGD06_H4Ts9zRgTbGjh_MqWepiUHxnlb4eTtjmV7uvBGi1yHgy6GZV9s4F-6GGwe-yDmpRNuFlkt8gGFXgsHbmkhoMMRx0g9Qnp25ZNp5ho2xjgGcHJxoCe0lvyuUy2sb63MmEfzCDVNxX9LjpJwImpplh72Howl0K0ST4dd6AkOxYGk8OA6KsRGwLSEj54P9pb5169WJ_XNwWPbPBzE2WYBVq_EJTxEDn5h1PlkVTf01ypyDEVp57Fg8DOeXwHjTRKz9ac0ZBQyEQbBHzR21nQz5-efdo2txE7FPgEFdo6WuiiD4IxZ72aL9IGhUREPKkVyHZudgMuZsZmteecrqjaGNEgsZ3CAWdOqviZtFmUFDE7Ov51rbBHJQcIrlh1wJTUZhnsAIeAQQ_0C0]--></g></svg>