<?xml version="1.0" encoding="us-ascii" standalone="no"?><svg xmlns="http://www.w3.org/2000/svg" xmlns:xlink="http://www.w3.org/1999/xlink" contentStyleType="text/css" height="769px" preserveAspectRatio="none" style="width:628px;height:769px;background:#FFFFFF;" version="1.1" viewBox="0 0 628 769" width="628px" zoomAndPan="magnify"><defs/><g><!--class Employee--><g id="elem_Employee"><rect codeLine="16" fill="#F1F1F1" height="122.4844" id="Employee" rx="2.5" ry="2.5" style="stroke:#181818;stroke-width:0.5;" width="94" x="425" y="640"/><ellipse cx="440" cy="656" fill="#ADD1B2" rx="11" ry="11" style="stroke:#181818;stroke-width:1.0;"/><path d="M442.7656,651.875 Q442.9219,651.6563 443.1094,651.5469 Q443.2969,651.4375 443.5156,651.4375 Q443.8906,651.4375 444.125,651.7031 Q444.3594,651.9531 444.3594,652.5625 L444.3594,654.0156 Q444.3594,654.625 444.125,654.8906 Q443.8906,655.1563 443.5156,655.1563 Q443.1719,655.1563 442.9688,654.9531 Q442.7656,654.7656 442.6563,654.25 Q442.6094,653.8906 442.4219,653.7031 Q442.0938,653.3281 441.4844,653.1094 Q440.875,652.8906 440.25,652.8906 Q439.4844,652.8906 438.8438,653.2188 Q438.2188,653.5469 437.7188,654.2969 Q437.2344,655.0469 437.2344,656.0781 L437.2344,657.1719 Q437.2344,658.4063 438.125,659.2344 Q439.0156,660.0469 440.6094,660.0469 Q441.5469,660.0469 442.2031,659.7969 Q442.5938,659.6406 443.0156,659.2031 Q443.2813,658.9375 443.4219,658.8594 Q443.5781,658.7813 443.7813,658.7813 Q444.1094,658.7813 444.3594,659.0469 Q444.625,659.2969 444.625,659.6406 Q444.625,659.9844 444.2813,660.3906 Q443.7813,660.9688 442.9844,661.2969 Q441.9063,661.75 440.6094,661.75 Q439.0938,661.75 437.8906,661.125 Q436.9063,660.625 436.2188,659.5625 Q435.5313,658.4844 435.5313,657.2031 L435.5313,656.0469 Q435.5313,654.7188 436.1406,653.5781 Q436.7656,652.4219 437.8594,651.8125 Q438.9531,651.1875 440.1875,651.1875 Q440.9219,651.1875 441.5625,651.3594 Q442.2188,651.5156 442.7656,651.875 Z " fill="#000000"/><text fill="#000000" font-family="sans-serif" font-size="14" lengthAdjust="spacing" textLength="62" x="454" y="661.7969">Employee</text><line style="stroke:#181818;stroke-width:0.5;" x1="426" x2="518" y1="672" y2="672"/><text fill="#000000" font-family="sans-serif" font-size="14" lengthAdjust="spacing" textLength="40" x="431" y="691.1074">-name</text><text fill="#000000" font-family="sans-serif" font-size="14" lengthAdjust="spacing" textLength="38" x="431" y="709.7285">-email</text><text fill="#000000" font-family="sans-serif" font-size="14" lengthAdjust="spacing" textLength="54" x="431" y="728.3496">-position</text><text fill="#000000" font-family="sans-serif" font-size="14" lengthAdjust="spacing" textLength="45" x="431" y="746.9707">-phone</text><line style="stroke:#181818;stroke-width:0.5;" x1="426" x2="518" y1="754.4844" y2="754.4844"/></g><!--class Skill--><g id="elem_Skill"><rect codeLine="23" fill="#F1F1F1" height="85.2422" id="Skill" rx="2.5" ry="2.5" style="stroke:#181818;stroke-width:0.5;" width="135" x="354.5" y="476"/><ellipse cx="405.25" cy="492" fill="#ADD1B2" rx="11" ry="11" style="stroke:#181818;stroke-width:1.0;"/><path d="M408.0156,487.875 Q408.1719,487.6563 408.3594,487.5469 Q408.5469,487.4375 408.7656,487.4375 Q409.1406,487.4375 409.375,487.7031 Q409.6094,487.9531 409.6094,488.5625 L409.6094,490.0156 Q409.6094,490.625 409.375,490.8906 Q409.1406,491.1563 408.7656,491.1563 Q408.4219,491.1563 408.2188,490.9531 Q408.0156,490.7656 407.9063,490.25 Q407.8594,489.8906 407.6719,489.7031 Q407.3438,489.3281 406.7344,489.1094 Q406.125,488.8906 405.5,488.8906 Q404.7344,488.8906 404.0938,489.2188 Q403.4688,489.5469 402.9688,490.2969 Q402.4844,491.0469 402.4844,492.0781 L402.4844,493.1719 Q402.4844,494.4063 403.375,495.2344 Q404.2656,496.0469 405.8594,496.0469 Q406.7969,496.0469 407.4531,495.7969 Q407.8438,495.6406 408.2656,495.2031 Q408.5313,494.9375 408.6719,494.8594 Q408.8281,494.7813 409.0313,494.7813 Q409.3594,494.7813 409.6094,495.0469 Q409.875,495.2969 409.875,495.6406 Q409.875,495.9844 409.5313,496.3906 Q409.0313,496.9688 408.2344,497.2969 Q407.1563,497.75 405.8594,497.75 Q404.3438,497.75 403.1406,497.125 Q402.1563,496.625 401.4688,495.5625 Q400.7813,494.4844 400.7813,493.2031 L400.7813,492.0469 Q400.7813,490.7188 401.3906,489.5781 Q402.0156,488.4219 403.1094,487.8125 Q404.2031,487.1875 405.4375,487.1875 Q406.1719,487.1875 406.8125,487.3594 Q407.4688,487.5156 408.0156,487.875 Z " fill="#000000"/><text fill="#000000" font-family="sans-serif" font-size="14" lengthAdjust="spacing" textLength="25" x="425.75" y="497.7969">Skill</text><line style="stroke:#181818;stroke-width:0.5;" x1="355.5" x2="488.5" y1="508" y2="508"/><text fill="#000000" font-family="sans-serif" font-size="14" lengthAdjust="spacing" textLength="64" x="360.5" y="527.1074">-skillName</text><line style="stroke:#181818;stroke-width:0.5;" x1="355.5" x2="488.5" y1="534.6211" y2="534.6211"/><text fill="#000000" font-family="sans-serif" font-size="14" lengthAdjust="spacing" textLength="123" x="360.5" y="553.7285">+addSkill(skill: Skill)</text></g><!--class SkillRepository--><g id="elem_SkillRepository"><rect codeLine="29" fill="#F1F1F1" height="141.1055" id="SkillRepository" rx="2.5" ry="2.5" style="stroke:#181818;stroke-width:0.5;" width="393" x="14.5" y="256"/><ellipse cx="160.25" cy="272" fill="#ADD1B2" rx="11" ry="11" style="stroke:#181818;stroke-width:1.0;"/><path d="M163.0156,267.875 Q163.1719,267.6563 163.3594,267.5469 Q163.5469,267.4375 163.7656,267.4375 Q164.1406,267.4375 164.375,267.7031 Q164.6094,267.9531 164.6094,268.5625 L164.6094,270.0156 Q164.6094,270.625 164.375,270.8906 Q164.1406,271.1563 163.7656,271.1563 Q163.4219,271.1563 163.2188,270.9531 Q163.0156,270.7656 162.9063,270.25 Q162.8594,269.8906 162.6719,269.7031 Q162.3438,269.3281 161.7344,269.1094 Q161.125,268.8906 160.5,268.8906 Q159.7344,268.8906 159.0938,269.2188 Q158.4688,269.5469 157.9688,270.2969 Q157.4844,271.0469 157.4844,272.0781 L157.4844,273.1719 Q157.4844,274.4063 158.375,275.2344 Q159.2656,276.0469 160.8594,276.0469 Q161.7969,276.0469 162.4531,275.7969 Q162.8438,275.6406 163.2656,275.2031 Q163.5313,274.9375 163.6719,274.8594 Q163.8281,274.7813 164.0313,274.7813 Q164.3594,274.7813 164.6094,275.0469 Q164.875,275.2969 164.875,275.6406 Q164.875,275.9844 164.5313,276.3906 Q164.0313,276.9688 163.2344,277.2969 Q162.1563,277.75 160.8594,277.75 Q159.3438,277.75 158.1406,277.125 Q157.1563,276.625 156.4688,275.5625 Q155.7813,274.4844 155.7813,273.2031 L155.7813,272.0469 Q155.7813,270.7188 156.3906,269.5781 Q157.0156,268.4219 158.1094,267.8125 Q159.2031,267.1875 160.4375,267.1875 Q161.1719,267.1875 161.8125,267.3594 Q162.4688,267.5156 163.0156,267.875 Z " fill="#000000"/><text fill="#000000" font-family="sans-serif" font-size="14" lengthAdjust="spacing" textLength="93" x="180.75" y="277.7969">SkillRepository</text><line style="stroke:#181818;stroke-width:0.5;" x1="15.5" x2="406.5" y1="288" y2="288"/><text fill="#000000" font-family="sans-serif" font-size="14" lengthAdjust="spacing" textLength="102" x="20.5" y="307.1074">-List&lt;Skill&gt; skills</text><line style="stroke:#181818;stroke-width:0.5;" x1="15.5" x2="406.5" y1="314.6211" y2="314.6211"/><text fill="#000000" font-family="sans-serif" font-size="14" lengthAdjust="spacing" textLength="201" x="20.5" y="333.7285">+void addSkill(skillName: String)</text><text fill="#000000" font-family="sans-serif" font-size="14" lengthAdjust="spacing" textLength="224" x="20.5" y="352.3496">+void removeSkill(skillName: String)</text><text fill="#000000" font-family="sans-serif" font-size="14" lengthAdjust="spacing" textLength="381" x="20.5" y="370.9707">+void updateSkill(skillNameOld: String, skillNameNew: String)</text><text fill="#000000" font-family="sans-serif" font-size="14" lengthAdjust="spacing" textLength="196" x="20.5" y="389.5918">+Skill getSkill(skillName: String)</text></g><!--class RegisterSkillUI--><g id="elem_RegisterSkillUI"><rect codeLine="38" fill="#F1F1F1" height="48" id="RegisterSkillUI" rx="2.5" ry="2.5" style="stroke:#181818;stroke-width:0.5;" width="122" x="66" y="35"/><ellipse cx="81" cy="51" fill="#ADD1B2" rx="11" ry="11" style="stroke:#181818;stroke-width:1.0;"/><path d="M83.7656,46.875 Q83.9219,46.6563 84.1094,46.5469 Q84.2969,46.4375 84.5156,46.4375 Q84.8906,46.4375 85.125,46.7031 Q85.3594,46.9531 85.3594,47.5625 L85.3594,49.0156 Q85.3594,49.625 85.125,49.8906 Q84.8906,50.1563 84.5156,50.1563 Q84.1719,50.1563 83.9688,49.9531 Q83.7656,49.7656 83.6563,49.25 Q83.6094,48.8906 83.4219,48.7031 Q83.0938,48.3281 82.4844,48.1094 Q81.875,47.8906 81.25,47.8906 Q80.4844,47.8906 79.8438,48.2188 Q79.2188,48.5469 78.7188,49.2969 Q78.2344,50.0469 78.2344,51.0781 L78.2344,52.1719 Q78.2344,53.4063 79.125,54.2344 Q80.0156,55.0469 81.6094,55.0469 Q82.5469,55.0469 83.2031,54.7969 Q83.5938,54.6406 84.0156,54.2031 Q84.2813,53.9375 84.4219,53.8594 Q84.5781,53.7813 84.7813,53.7813 Q85.1094,53.7813 85.3594,54.0469 Q85.625,54.2969 85.625,54.6406 Q85.625,54.9844 85.2813,55.3906 Q84.7813,55.9688 83.9844,56.2969 Q82.9063,56.75 81.6094,56.75 Q80.0938,56.75 78.8906,56.125 Q77.9063,55.625 77.2188,54.5625 Q76.5313,53.4844 76.5313,52.2031 L76.5313,51.0469 Q76.5313,49.7188 77.1406,48.5781 Q77.7656,47.4219 78.8594,46.8125 Q79.9531,46.1875 81.1875,46.1875 Q81.9219,46.1875 82.5625,46.3594 Q83.2188,46.5156 83.7656,46.875 Z " fill="#000000"/><text fill="#000000" font-family="sans-serif" font-size="14" lengthAdjust="spacing" textLength="90" x="95" y="56.7969">RegisterSkillUI</text><line style="stroke:#181818;stroke-width:0.5;" x1="67" x2="187" y1="67" y2="67"/><line style="stroke:#181818;stroke-width:0.5;" x1="67" x2="187" y1="75" y2="75"/></g><!--class Repositories--><g id="elem_Repositories"><rect codeLine="41" fill="#F1F1F1" height="85.2422" id="Repositories" rx="2.5" ry="2.5" style="stroke:#181818;stroke-width:0.5;" width="240" x="7" y="141"/><ellipse cx="83.25" cy="157" fill="#ADD1B2" rx="11" ry="11" style="stroke:#181818;stroke-width:1.0;"/><path d="M86.0156,152.875 Q86.1719,152.6563 86.3594,152.5469 Q86.5469,152.4375 86.7656,152.4375 Q87.1406,152.4375 87.375,152.7031 Q87.6094,152.9531 87.6094,153.5625 L87.6094,155.0156 Q87.6094,155.625 87.375,155.8906 Q87.1406,156.1563 86.7656,156.1563 Q86.4219,156.1563 86.2188,155.9531 Q86.0156,155.7656 85.9063,155.25 Q85.8594,154.8906 85.6719,154.7031 Q85.3438,154.3281 84.7344,154.1094 Q84.125,153.8906 83.5,153.8906 Q82.7344,153.8906 82.0938,154.2188 Q81.4688,154.5469 80.9688,155.2969 Q80.4844,156.0469 80.4844,157.0781 L80.4844,158.1719 Q80.4844,159.4063 81.375,160.2344 Q82.2656,161.0469 83.8594,161.0469 Q84.7969,161.0469 85.4531,160.7969 Q85.8438,160.6406 86.2656,160.2031 Q86.5313,159.9375 86.6719,159.8594 Q86.8281,159.7813 87.0313,159.7813 Q87.3594,159.7813 87.6094,160.0469 Q87.875,160.2969 87.875,160.6406 Q87.875,160.9844 87.5313,161.3906 Q87.0313,161.9688 86.2344,162.2969 Q85.1563,162.75 83.8594,162.75 Q82.3438,162.75 81.1406,162.125 Q80.1563,161.625 79.4688,160.5625 Q78.7813,159.4844 78.7813,158.2031 L78.7813,157.0469 Q78.7813,155.7188 79.3906,154.5781 Q80.0156,153.4219 81.1094,152.8125 Q82.2031,152.1875 83.4375,152.1875 Q84.1719,152.1875 84.8125,152.3594 Q85.4688,152.5156 86.0156,152.875 Z " fill="#000000"/><text fill="#000000" font-family="sans-serif" font-size="14" lengthAdjust="spacing" textLength="79" x="103.75" y="162.7969">Repositories</text><line style="stroke:#181818;stroke-width:0.5;" x1="8" x2="246" y1="173" y2="173"/><text fill="#000000" font-family="sans-serif" font-size="14" lengthAdjust="spacing" textLength="193" x="13" y="192.1074">-SkillRepository skillRepository</text><line style="stroke:#181818;stroke-width:0.5;" x1="8" x2="246" y1="199.6211" y2="199.6211"/><text fill="#000000" font-family="sans-serif" font-size="14" lengthAdjust="spacing" textLength="228" x="13" y="218.7285">+SkillRepository getSkillRepository()</text></g><!--class RegisterSkillController--><g id="elem_RegisterSkillController"><rect codeLine="47" fill="#F1F1F1" height="103.8633" id="RegisterSkillController" rx="2.5" ry="2.5" style="stroke:#181818;stroke-width:0.5;" width="398" x="223" y="7"/><ellipse cx="347.75" cy="23" fill="#ADD1B2" rx="11" ry="11" style="stroke:#181818;stroke-width:1.0;"/><path d="M350.5156,18.875 Q350.6719,18.6563 350.8594,18.5469 Q351.0469,18.4375 351.2656,18.4375 Q351.6406,18.4375 351.875,18.7031 Q352.1094,18.9531 352.1094,19.5625 L352.1094,21.0156 Q352.1094,21.625 351.875,21.8906 Q351.6406,22.1563 351.2656,22.1563 Q350.9219,22.1563 350.7188,21.9531 Q350.5156,21.7656 350.4063,21.25 Q350.3594,20.8906 350.1719,20.7031 Q349.8438,20.3281 349.2344,20.1094 Q348.625,19.8906 348,19.8906 Q347.2344,19.8906 346.5938,20.2188 Q345.9688,20.5469 345.4688,21.2969 Q344.9844,22.0469 344.9844,23.0781 L344.9844,24.1719 Q344.9844,25.4063 345.875,26.2344 Q346.7656,27.0469 348.3594,27.0469 Q349.2969,27.0469 349.9531,26.7969 Q350.3438,26.6406 350.7656,26.2031 Q351.0313,25.9375 351.1719,25.8594 Q351.3281,25.7813 351.5313,25.7813 Q351.8594,25.7813 352.1094,26.0469 Q352.375,26.2969 352.375,26.6406 Q352.375,26.9844 352.0313,27.3906 Q351.5313,27.9688 350.7344,28.2969 Q349.6563,28.75 348.3594,28.75 Q346.8438,28.75 345.6406,28.125 Q344.6563,27.625 343.9688,26.5625 Q343.2813,25.4844 343.2813,24.2031 L343.2813,23.0469 Q343.2813,21.7188 343.8906,20.5781 Q344.5156,19.4219 345.6094,18.8125 Q346.7031,18.1875 347.9375,18.1875 Q348.6719,18.1875 349.3125,18.3594 Q349.9688,18.5156 350.5156,18.875 Z " fill="#000000"/><text fill="#000000" font-family="sans-serif" font-size="14" lengthAdjust="spacing" textLength="140" x="368.25" y="28.7969">RegisterSkillController</text><line style="stroke:#181818;stroke-width:0.5;" x1="224" x2="620" y1="39" y2="39"/><line style="stroke:#181818;stroke-width:0.5;" x1="224" x2="620" y1="47" y2="47"/><text fill="#000000" font-family="sans-serif" font-size="14" lengthAdjust="spacing" textLength="386" x="229" y="66.1074">+RegisterSkillController(employeeRepository, skillRepository)</text><text fill="#000000" font-family="sans-serif" font-size="14" lengthAdjust="spacing" textLength="351" x="229" y="84.7285">+updateSkill(skillNameOld: String, skillNameNew: String)</text><text fill="#000000" font-family="sans-serif" font-size="14" lengthAdjust="spacing" textLength="194" x="229" y="103.3496">+removeSkill(skillName: String)</text></g><!--link Repositories to Repositories--><g id="link_Repositories_Repositories"><path codeLine="53" d="M247.23,161.8 C267.77,164.76 282,172 282,183.5 C282,195 273.7087,201.3842 253.1687,204.3442 " fill="none" id="Repositories-to-Repositories" style="stroke:#181818;stroke-width:1.0;"/><polygon fill="#181818" points="247.23,205.2,256.7085,207.8754,252.1789,204.4868,255.5674,199.9572,247.23,205.2" style="stroke:#181818;stroke-width:1.0;"/><text fill="#000000" font-family="sans-serif" font-size="13" lengthAdjust="spacing" textLength="49" x="288" y="189.0283">instance</text></g><!--link RegisterSkillUI to RegisterSkillController--><g id="link_RegisterSkillUI_RegisterSkillController"><path codeLine="56" d="M188.07,59 C199.65,59 205.22,59 216.8,59 " fill="none" id="RegisterSkillUI-to-RegisterSkillController" style="stroke:#181818;stroke-width:1.0;stroke-dasharray:7.0,7.0;"/><polygon fill="#181818" points="222.8,59,213.8,55,217.8,59,213.8,63,222.8,59" style="stroke:#181818;stroke-width:1.0;"/></g><!--link RegisterSkillController to Repositories--><g id="link_RegisterSkillController_Repositories"><path codeLine="58" d="M299.03,111.06 C275.16,120.98 255.9419,128.9605 232.9019,138.5205 " fill="none" id="RegisterSkillController-to-Repositories" style="stroke:#181818;stroke-width:1.0;stroke-dasharray:7.0,7.0;"/><polygon fill="#181818" points="227.36,140.82,237.2058,141.0653,231.9782,138.9038,234.1398,133.6762,227.36,140.82" style="stroke:#181818;stroke-width:1.0;"/><text fill="#000000" font-family="sans-serif" font-size="13" lengthAdjust="spacing" textLength="67" x="263.88" y="141.0983">repositories</text></g><!--link Repositories to SkillRepository--><g id="link_Repositories_SkillRepository"><path codeLine="60" d="M151.75,226.04 C157.36,235.47 160.3993,240.5653 166.4993,250.8053 " fill="none" id="Repositories-to-SkillRepository" style="stroke:#181818;stroke-width:1.0;"/><polygon fill="#181818" points="169.57,255.96,168.4005,246.1808,167.0111,251.6644,161.5275,250.2751,169.57,255.96" style="stroke:#181818;stroke-width:1.0;"/><text fill="#000000" font-family="sans-serif" font-size="13" lengthAdjust="spacing" textLength="7" x="160.0351" y="248.2498">1</text></g><!--link RegisterSkillController to Skill--><g id="link_RegisterSkillController_Skill"><path codeLine="62" d="M447.1,111.32 C450.79,120.97 454.01,131.13 456,141 C480.16,260.99 452.533,400.1511 434.963,470.0311 " fill="none" id="RegisterSkillController-to-Skill" style="stroke:#181818;stroke-width:1.0;stroke-dasharray:7.0,7.0;"/><polygon fill="#181818" points="433.5,475.85,439.5738,468.097,434.7192,471.0009,431.8153,466.1463,433.5,475.85" style="stroke:#181818;stroke-width:1.0;"/><text fill="#000000" font-family="sans-serif" font-size="13" lengthAdjust="spacing" textLength="23" x="466" y="332.0283">skill</text></g><!--link RegisterSkillController to SkillRepository--><g id="link_RegisterSkillController_SkillRepository"><path codeLine="63" d="M382.09,111.11 C375.32,120.78 368.66,131.01 363,141 C342.79,176.7 351.21,192.88 327,226 C319.41,236.39 314.7681,242.1629 305.3581,251.5929 " fill="none" id="RegisterSkillController-to-SkillRepository" style="stroke:#181818;stroke-width:1.0;stroke-dasharray:7.0,7.0;"/><polygon fill="#181818" points="301.12,255.84,310.3086,252.2947,304.6518,252.3007,304.6458,246.6439,301.12,255.84" style="stroke:#181818;stroke-width:1.0;"/><text fill="#000000" font-family="sans-serif" font-size="13" lengthAdjust="spacing" textLength="87" x="364" y="189.0283">SkillRepository</text></g><!--link SkillRepository to Skill--><g id="link_SkillRepository_Skill"><path codeLine="66" d="M288.37,397.17 C317.66,423.54 345.6008,448.7055 371.1708,471.7255 " fill="none" id="SkillRepository-to-Skill" style="stroke:#181818;stroke-width:1.0;"/><polygon fill="#181818" points="375.63,475.74,371.6176,466.7455,371.914,472.3946,366.265,472.6911,375.63,475.74" style="stroke:#181818;stroke-width:1.0;"/><text fill="#000000" font-family="sans-serif" font-size="13" lengthAdjust="spacing" textLength="32" x="343" y="442.0283">Skills</text></g><!--link RegisterSkillController to Employee--><g id="link_RegisterSkillController_Employee"><path codeLine="69" d="M470.16,111.2 C476.81,120.55 482.79,130.64 487,141 C504.3,183.58 509.16,336.3 516,591 C516.23,599.44 517.9,601.77 516,610 C513.69,620 512.4491,624.649 508.3091,634.379 " fill="none" id="RegisterSkillController-to-Employee" style="stroke:#181818;stroke-width:1.0;stroke-dasharray:7.0,7.0;"/><polygon fill="#181818" points="505.96,639.9,513.1644,633.1846,507.9176,635.2992,505.803,630.0524,505.96,639.9" style="stroke:#181818;stroke-width:1.0;"/><text fill="#000000" font-family="sans-serif" font-size="13" lengthAdjust="spacing" textLength="56" x="512" y="442.0283">employee</text><text fill="#000000" font-family="sans-serif" font-size="13" lengthAdjust="spacing" textLength="7" x="502.4819" y="628.8696">1</text></g><!--link Skill to Employee--><g id="link_Skill_Employee"><path codeLine="72" d="M433.6,561.36 C440.06,584.69 446.6195,608.3574 453.7495,634.1174 " fill="none" id="Skill-to-Employee" style="stroke:#181818;stroke-width:1.0;"/><polygon fill="#181818" points="455.35,639.9,456.8043,630.1591,454.0162,635.0812,449.0941,632.2931,455.35,639.9" style="stroke:#181818;stroke-width:1.0;"/><text fill="#000000" font-family="sans-serif" font-size="13" lengthAdjust="spacing" textLength="59" x="448" y="606.0283">createdBy</text></g><!--link Employee to Skill--><g id="link_Employee_Skill"><path codeLine="74" d="M425.22,639.97 C419.8,630.39 415.1,620.24 412,610 C407.28,594.42 407.022,582.643 409.542,567.063 " fill="none" id="Employee-to-Skill" style="stroke:#181818;stroke-width:1.0;"/><polygon fill="#181818" points="410.5,561.14,405.1143,569.3859,409.7016,566.0759,413.0116,570.6632,410.5,561.14" style="stroke:#181818;stroke-width:1.0;"/><text fill="#000000" font-family="sans-serif" font-size="13" lengthAdjust="spacing" textLength="21" x="413" y="606.0283">has</text><text fill="#000000" font-family="sans-serif" font-size="13" lengthAdjust="spacing" textLength="5" x="403.2688" y="583.3226">*</text></g><!--SRC=[fLJBJiCm4BpxArQzj3oAu1gXIe0u826GgFW04o-9LSSRsIue8FuTntaPbm8IFdczuzdPMITpkv6wvePNK96cl3HK8JYpHJPbQfvlU85hroW4WxdZkb0nm9PSqAlK1JnpPUECaXfTKoFKf9es-2v7nX6B4hdYrbuuP-JJrk5DJdejtn1E6PihV7RW28miIWT2jceaQHPMk0VNLQseGOHt1dujGVCA-orMNAf-NvELuMuVbkJLVGmiwurKQgImRNJNyeI38-121CGYPB8EVf1SVy1GWqmpyDnAwyv3RjLnse7mXQH8MDjwdjdRe8k366QmeXVy2t9R2-vIvBqI0_XuwkmENrEApeC2tTvIOxyFMFZMq0JauuqtBahrBaYqWm-9FPsAAMQnW0WsI9cE5liqN95sXfH2qm_nQ5z-WVs3cLYFKq638__pyvUv-KPYhs2v-k8TP22rzTzUxbyXImq_MUthBy56nfpi531HkAjcTZPBH_83kMVl7b3McV8xCffqjbje3hTOe1QSfU3bSYgrxh-g7wkrZOo_YGo61-1lTJGjOPJF3VgfYqilOZnj8RF3sLYtv9Pz0W00]--></g></svg>