<?xml version="1.0" encoding="us-ascii" standalone="no"?><svg xmlns="http://www.w3.org/2000/svg" xmlns:xlink="http://www.w3.org/1999/xlink" contentStyleType="text/css" height="417px" preserveAspectRatio="none" style="width:525px;height:417px;background:#FFFFFF;" version="1.1" viewBox="0 0 525 417" width="525px" zoomAndPan="magnify"><defs/><g><rect fill="#FFFFFF" height="252.3281" style="stroke:#181818;stroke-width:1.0;" width="10" x="95" y="90.5332"/><rect fill="#FFFFFF" height="31.291" style="stroke:#181818;stroke-width:1.0;" width="10" x="228" y="148.1152"/><rect fill="#FFFFFF" height="31.291" style="stroke:#181818;stroke-width:1.0;" width="10" x="335" y="210.6973"/><rect fill="#FFFFFF" height="31.291" style="stroke:#181818;stroke-width:1.0;" width="10" x="449" y="273.2793"/><rect fill="none" height="207.0371" style="stroke:#000000;stroke-width:1.5;" width="503" x="16.5" y="105.5332"/><line style="stroke:#181818;stroke-width:0.5;stroke-dasharray:5.0,5.0;" x1="99.5" x2="99.5" y1="57.2422" y2="360.8613"/><line style="stroke:#181818;stroke-width:0.5;stroke-dasharray:5.0,5.0;" x1="232.5" x2="232.5" y1="57.2422" y2="360.8613"/><line style="stroke:#181818;stroke-width:0.5;stroke-dasharray:5.0,5.0;" x1="339.5" x2="339.5" y1="57.2422" y2="360.8613"/><line style="stroke:#181818;stroke-width:0.5;stroke-dasharray:5.0,5.0;" x1="453.5" x2="453.5" y1="57.2422" y2="360.8613"/><rect fill="#E2E2F0" height="32.6211" rx="2.5" ry="2.5" style="stroke:#181818;stroke-width:0.5;" width="147" x="26.5" y="23.6211"/><text fill="#000000" font-family="sans-serif" font-size="14" lengthAdjust="spacing" textLength="133" x="33.5" y="45.7285">:AssignSkillController</text><rect fill="#E2E2F0" height="32.6211" rx="2.5" ry="2.5" style="stroke:#181818;stroke-width:0.5;" width="147" x="26.5" y="359.8613"/><text fill="#000000" font-family="sans-serif" font-size="14" lengthAdjust="spacing" textLength="133" x="33.5" y="381.9688">:AssignSkillController</text><rect fill="#E2E2F0" height="32.6211" rx="2.5" ry="2.5" style="stroke:#181818;stroke-width:0.5;" width="97" x="184.5" y="23.6211"/><text fill="#000000" font-family="sans-serif" font-size="14" lengthAdjust="spacing" textLength="83" x="191.5" y="45.7285">:Repositories</text><rect fill="#E2E2F0" height="32.6211" rx="2.5" ry="2.5" style="stroke:#181818;stroke-width:0.5;" width="97" x="184.5" y="359.8613"/><text fill="#000000" font-family="sans-serif" font-size="14" lengthAdjust="spacing" textLength="83" x="191.5" y="381.9688">:Repositories</text><rect fill="#E2E2F0" height="51.2422" rx="2.5" ry="2.5" style="stroke:#181818;stroke-width:0.5;" width="97" x="291.5" y="5"/><text fill="#000000" font-family="sans-serif" font-size="14" lengthAdjust="spacing" textLength="74" x="303" y="27.1074">repositories</text><text fill="#000000" font-family="sans-serif" font-size="14" lengthAdjust="spacing" textLength="83" x="298.5" y="45.7285">:Repositories</text><rect fill="#E2E2F0" height="51.2422" rx="2.5" ry="2.5" style="stroke:#181818;stroke-width:0.5;" width="97" x="291.5" y="359.8613"/><text fill="#000000" font-family="sans-serif" font-size="14" lengthAdjust="spacing" textLength="74" x="303" y="381.9688">repositories</text><text fill="#000000" font-family="sans-serif" font-size="14" lengthAdjust="spacing" textLength="83" x="298.5" y="400.5898">:Repositories</text><rect fill="#E2E2F0" height="51.2422" rx="2.5" ry="2.5" style="stroke:#181818;stroke-width:0.5;" width="111" x="398.5" y="5"/><text fill="#000000" font-family="sans-serif" font-size="14" lengthAdjust="spacing" textLength="97" x="405.5" y="27.1074">SkillRepository:</text><text fill="#000000" font-family="sans-serif" font-size="14" lengthAdjust="spacing" textLength="93" x="407.5" y="45.7285">SkillRepository</text><rect fill="#E2E2F0" height="51.2422" rx="2.5" ry="2.5" style="stroke:#181818;stroke-width:0.5;" width="111" x="398.5" y="359.8613"/><text fill="#000000" font-family="sans-serif" font-size="14" lengthAdjust="spacing" textLength="97" x="405.5" y="381.9688">SkillRepository:</text><text fill="#000000" font-family="sans-serif" font-size="14" lengthAdjust="spacing" textLength="93" x="407.5" y="400.5898">SkillRepository</text><rect fill="#FFFFFF" height="252.3281" style="stroke:#181818;stroke-width:1.0;" width="10" x="95" y="90.5332"/><rect fill="#FFFFFF" height="31.291" style="stroke:#181818;stroke-width:1.0;" width="10" x="228" y="148.1152"/><rect fill="#FFFFFF" height="31.291" style="stroke:#181818;stroke-width:1.0;" width="10" x="335" y="210.6973"/><rect fill="#FFFFFF" height="31.291" style="stroke:#181818;stroke-width:1.0;" width="10" x="449" y="273.2793"/><polygon fill="#181818" points="83,86.5332,93,90.5332,83,94.5332,87,90.5332" style="stroke:#181818;stroke-width:1.0;"/><line style="stroke:#181818;stroke-width:1.0;" x1="0" x2="89" y1="90.5332" y2="90.5332"/><text fill="#000000" font-family="sans-serif" font-size="13" font-weight="bold" lengthAdjust="spacing" textLength="14" x="7" y="85.2705">15</text><text fill="#000000" font-family="sans-serif" font-size="13" lengthAdjust="spacing" textLength="58" x="25" y="85.2705">getSkills()</text><path d="M16.5,105.5332 L121.5,105.5332 L121.5,114.8242 L111.5,124.8242 L16.5,124.8242 L16.5,105.5332 " fill="#EEEEEE" style="stroke:#000000;stroke-width:1.5;"/><rect fill="none" height="207.0371" style="stroke:#000000;stroke-width:1.5;" width="503" x="16.5" y="105.5332"/><text fill="#000000" font-family="sans-serif" font-size="13" font-weight="bold" lengthAdjust="spacing" textLength="60" x="31.5" y="120.5615">Get Skills</text><polygon fill="#181818" points="216,144.1152,226,148.1152,216,152.1152,220,148.1152" style="stroke:#181818;stroke-width:1.0;"/><line style="stroke:#181818;stroke-width:1.0;" x1="105" x2="222" y1="148.1152" y2="148.1152"/><text fill="#000000" font-family="sans-serif" font-size="13" font-weight="bold" lengthAdjust="spacing" textLength="25" x="112" y="142.8525">15.1</text><text fill="#000000" font-family="sans-serif" font-size="13" lengthAdjust="spacing" textLength="75" x="141" y="142.8525">getInstance()</text><polygon fill="#181818" points="116,175.4063,106,179.4063,116,183.4063,112,179.4063" style="stroke:#181818;stroke-width:1.0;"/><line style="stroke:#181818;stroke-width:1.0;stroke-dasharray:2.0,2.0;" x1="110" x2="232" y1="179.4063" y2="179.4063"/><text fill="#000000" font-family="sans-serif" font-size="13" font-weight="bold" lengthAdjust="spacing" textLength="25" x="122" y="174.1436">15.2</text><text fill="#000000" font-family="sans-serif" font-size="13" lengthAdjust="spacing" textLength="67" x="151" y="174.1436">repositories</text><polygon fill="#181818" points="323,206.6973,333,210.6973,323,214.6973,327,210.6973" style="stroke:#181818;stroke-width:1.0;"/><line style="stroke:#181818;stroke-width:1.0;" x1="105" x2="329" y1="210.6973" y2="210.6973"/><text fill="#000000" font-family="sans-serif" font-size="13" font-weight="bold" lengthAdjust="spacing" textLength="25" x="112" y="205.4346">15.3</text><text fill="#000000" font-family="sans-serif" font-size="13" lengthAdjust="spacing" textLength="113" x="141" y="205.4346">getSkillRepository()</text><polygon fill="#181818" points="116,237.9883,106,241.9883,116,245.9883,112,241.9883" style="stroke:#181818;stroke-width:1.0;"/><line style="stroke:#181818;stroke-width:1.0;stroke-dasharray:2.0,2.0;" x1="110" x2="339" y1="241.9883" y2="241.9883"/><text fill="#000000" font-family="sans-serif" font-size="13" font-weight="bold" lengthAdjust="spacing" textLength="25" x="122" y="236.7256">15.4</text><text fill="#000000" font-family="sans-serif" font-size="13" lengthAdjust="spacing" textLength="85" x="151" y="236.7256">skillRepository</text><polygon fill="#181818" points="437,269.2793,447,273.2793,437,277.2793,441,273.2793" style="stroke:#181818;stroke-width:1.0;"/><line style="stroke:#181818;stroke-width:1.0;" x1="105" x2="443" y1="273.2793" y2="273.2793"/><text fill="#000000" font-family="sans-serif" font-size="13" font-weight="bold" lengthAdjust="spacing" textLength="25" x="112" y="268.0166">15.5</text><text fill="#000000" font-family="sans-serif" font-size="13" lengthAdjust="spacing" textLength="58" x="141" y="268.0166">getSkills()</text><polygon fill="#181818" points="116,300.5703,106,304.5703,116,308.5703,112,304.5703" style="stroke:#181818;stroke-width:1.0;"/><line style="stroke:#181818;stroke-width:1.0;stroke-dasharray:2.0,2.0;" x1="110" x2="453" y1="304.5703" y2="304.5703"/><text fill="#000000" font-family="sans-serif" font-size="13" font-weight="bold" lengthAdjust="spacing" textLength="25" x="122" y="299.3076">15.6</text><text fill="#000000" font-family="sans-serif" font-size="13" lengthAdjust="spacing" textLength="44" x="151" y="299.3076">skillList</text><polygon fill="#181818" points="11,338.8613,1,342.8613,11,346.8613,7,342.8613" style="stroke:#181818;stroke-width:1.0;"/><line style="stroke:#181818;stroke-width:1.0;stroke-dasharray:2.0,2.0;" x1="5" x2="99" y1="342.8613" y2="342.8613"/><text fill="#000000" font-family="sans-serif" font-size="13" font-weight="bold" lengthAdjust="spacing" textLength="14" x="17" y="337.5986">16</text><text fill="#000000" font-family="sans-serif" font-size="13" lengthAdjust="spacing" textLength="44" x="35" y="337.5986">skillList</text><!--SRC=[ZL8zJyCm4DtzAqvTW2587M2845BLeKBgW9gENKnwf5OSE_9TGFtt90vfNDT8t1Gzt_lmS-weLgQLJZRGM6FBaxCD0hiEnNpIohAM5HPyrWWEIvQcqk42dUJHVYjJmQVKX4BqCAjIjT8mBF8LaQfCKIkjrzQmirgZMu0aMEztssXvXwqbnTOf9Bzp0Sw56dpPcckA2nW7Solmlbtjhna-ogoR7qo4U5w42I6xthjhFj31yabahpu-v50X-rswVuYM7fT2bgo-9EDuL-YdShPhOOCyEf07X_5olMpYngFBcw6- -n9xdubpaK_L1C6aHBFVE-GGTdYX7V5VwbFieUUWZPcIYkiV9SpdsTbSAaNj9q9TQKmf8k_eUMvo57_O31DBnUcsYZYLAwM9vYZyH_X_F7la9SjkPGEvuUm7]--></g></svg>