<?xml version="1.0" encoding="us-ascii" standalone="no"?><svg xmlns="http://www.w3.org/2000/svg" xmlns:xlink="http://www.w3.org/1999/xlink" contentStyleType="text/css" height="1160px" preserveAspectRatio="none" style="width:1549px;height:1160px;background:#FFFFFF;" version="1.1" viewBox="0 0 1549 1160" width="1549px" zoomAndPan="magnify"><defs/><g><rect fill="#FFFFFF" height="965.2832" style="stroke:#181818;stroke-width:1.0;" width="10" x="91" y="93.6211"/><rect fill="#FFFFFF" height="185.7461" style="stroke:#181818;stroke-width:1.0;" width="10" x="547" y="116.9121"/><rect fill="#FFFFFF" height="31.291" style="stroke:#181818;stroke-width:1.0;" width="10" x="547" y="333.9492"/><rect fill="#FFFFFF" height="252.959" style="stroke:#181818;stroke-width:1.0;" width="10" x="547" y="396.5313"/><rect fill="#FFFFFF" height="31.291" style="stroke:#181818;stroke-width:1.0;" width="10" x="547" y="680.7813"/><rect fill="#FFFFFF" height="31.291" style="stroke:#181818;stroke-width:1.0;" width="10" x="547" y="743.3633"/><rect fill="#FFFFFF" height="252.959" style="stroke:#181818;stroke-width:1.0;" width="10" x="547" y="805.9453"/><rect fill="#FFFFFF" height="79.543" style="stroke:#181818;stroke-width:1.0;" width="10" x="873" y="191.8242"/><rect fill="#FFFFFF" height="79.543" style="stroke:#181818;stroke-width:1.0;" width="10" x="873" y="427.8223"/><rect fill="#FFFFFF" height="79.543" style="stroke:#181818;stroke-width:1.0;" width="10" x="873" y="538.6563"/><rect fill="#FFFFFF" height="79.543" style="stroke:#181818;stroke-width:1.0;" width="10" x="873" y="837.2363"/><rect fill="#FFFFFF" height="79.543" style="stroke:#181818;stroke-width:1.0;" width="10" x="873" y="948.0703"/><line style="stroke:#181818;stroke-width:0.5;stroke-dasharray:5.0,5.0;" x1="96" x2="96" y1="83.6211" y2="1076.9043"/><line style="stroke:#181818;stroke-width:0.5;stroke-dasharray:5.0,5.0;" x1="551.5" x2="551.5" y1="83.6211" y2="1076.9043"/><line style="stroke:#181818;stroke-width:0.5;stroke-dasharray:5.0,5.0;" x1="877.5" x2="877.5" y1="156.7227" y2="1076.9043"/><line style="stroke:#181818;stroke-width:0.5;stroke-dasharray:5.0,5.0;" x1="1009.5" x2="1009.5" y1="83.6211" y2="1076.9043"/><line style="stroke:#181818;stroke-width:0.5;stroke-dasharray:5.0,5.0;" x1="1116.5" x2="1116.5" y1="83.6211" y2="1076.9043"/><line style="stroke:#181818;stroke-width:0.5;stroke-dasharray:5.0,5.0;" x1="1249.5" x2="1249.5" y1="83.6211" y2="1076.9043"/><line style="stroke:#181818;stroke-width:0.5;stroke-dasharray:5.0,5.0;" x1="1388.5" x2="1388.5" y1="83.6211" y2="1076.9043"/><line style="stroke:#181818;stroke-width:0.5;stroke-dasharray:5.0,5.0;" x1="1498.5" x2="1498.5" y1="83.6211" y2="1076.9043"/><text fill="#000000" font-family="sans-serif" font-size="14" lengthAdjust="spacing" textLength="176" x="5" y="80.1074">Human Resources Manager</text><ellipse cx="96" cy="13.5" fill="#E2E2F0" rx="8" ry="8" style="stroke:#181818;stroke-width:0.5;"/><path d="M96,21.5 L96,48.5 M83,29.5 L109,29.5 M96,48.5 L83,63.5 M96,48.5 L109,63.5 " fill="none" style="stroke:#181818;stroke-width:0.5;"/><text fill="#000000" font-family="sans-serif" font-size="14" lengthAdjust="spacing" textLength="176" x="5" y="1091.0117">Human Resources Manager</text><ellipse cx="96" cy="1103.0254" fill="#E2E2F0" rx="8" ry="8" style="stroke:#181818;stroke-width:0.5;"/><path d="M96,1111.0254 L96,1138.0254 M83,1119.0254 L109,1119.0254 M96,1138.0254 L83,1153.0254 M96,1138.0254 L109,1153.0254 " fill="none" style="stroke:#181818;stroke-width:0.5;"/><rect fill="#E2E2F0" height="32.6211" rx="2.5" ry="2.5" style="stroke:#181818;stroke-width:0.5;" width="97" x="503.5" y="50"/><text fill="#000000" font-family="sans-serif" font-size="14" lengthAdjust="spacing" textLength="83" x="510.5" y="72.1074">:AssignSkillUI</text><rect fill="#E2E2F0" height="32.6211" rx="2.5" ry="2.5" style="stroke:#181818;stroke-width:0.5;" width="97" x="503.5" y="1075.9043"/><text fill="#000000" font-family="sans-serif" font-size="14" lengthAdjust="spacing" textLength="83" x="510.5" y="1098.0117">:AssignSkillUI</text><rect fill="#E2E2F0" height="32.6211" rx="2.5" ry="2.5" style="stroke:#181818;stroke-width:0.5;" width="147" x="804.5" y="1075.9043"/><text fill="#000000" font-family="sans-serif" font-size="14" lengthAdjust="spacing" textLength="133" x="811.5" y="1098.0117">:AssignSkillController</text><rect fill="#E2E2F0" height="32.6211" rx="2.5" ry="2.5" style="stroke:#181818;stroke-width:0.5;" width="97" x="961.5" y="50"/><text fill="#000000" font-family="sans-serif" font-size="14" lengthAdjust="spacing" textLength="83" x="968.5" y="72.1074">:Repositories</text><rect fill="#E2E2F0" height="32.6211" rx="2.5" ry="2.5" style="stroke:#181818;stroke-width:0.5;" width="97" x="961.5" y="1075.9043"/><text fill="#000000" font-family="sans-serif" font-size="14" lengthAdjust="spacing" textLength="83" x="968.5" y="1098.0117">:Repositories</text><rect fill="#E2E2F0" height="51.2422" rx="2.5" ry="2.5" style="stroke:#181818;stroke-width:0.5;" width="97" x="1068.5" y="31.3789"/><text fill="#000000" font-family="sans-serif" font-size="14" lengthAdjust="spacing" textLength="74" x="1080" y="53.4863">repositories</text><text fill="#000000" font-family="sans-serif" font-size="14" lengthAdjust="spacing" textLength="83" x="1075.5" y="72.1074">:Repositories</text><rect fill="#E2E2F0" height="51.2422" rx="2.5" ry="2.5" style="stroke:#181818;stroke-width:0.5;" width="97" x="1068.5" y="1075.9043"/><text fill="#000000" font-family="sans-serif" font-size="14" lengthAdjust="spacing" textLength="74" x="1080" y="1098.0117">repositories</text><text fill="#000000" font-family="sans-serif" font-size="14" lengthAdjust="spacing" textLength="83" x="1075.5" y="1116.6328">:Repositories</text><rect fill="#E2E2F0" height="51.2422" rx="2.5" ry="2.5" style="stroke:#181818;stroke-width:0.5;" width="148" x="1175.5" y="31.3789"/><text fill="#000000" font-family="sans-serif" font-size="14" lengthAdjust="spacing" textLength="134" x="1182.5" y="53.4863">EmployeeRepository:</text><text fill="#000000" font-family="sans-serif" font-size="14" lengthAdjust="spacing" textLength="130" x="1184.5" y="72.1074">EmployeeRepository</text><rect fill="#E2E2F0" height="51.2422" rx="2.5" ry="2.5" style="stroke:#181818;stroke-width:0.5;" width="148" x="1175.5" y="1075.9043"/><text fill="#000000" font-family="sans-serif" font-size="14" lengthAdjust="spacing" textLength="134" x="1182.5" y="1098.0117">EmployeeRepository:</text><text fill="#000000" font-family="sans-serif" font-size="14" lengthAdjust="spacing" textLength="130" x="1184.5" y="1116.6328">EmployeeRepository</text><rect fill="#E2E2F0" height="51.2422" rx="2.5" ry="2.5" style="stroke:#181818;stroke-width:0.5;" width="111" x="1333.5" y="31.3789"/><text fill="#000000" font-family="sans-serif" font-size="14" lengthAdjust="spacing" textLength="97" x="1340.5" y="53.4863">SkillRepository:</text><text fill="#000000" font-family="sans-serif" font-size="14" lengthAdjust="spacing" textLength="93" x="1342.5" y="72.1074">SkillRepository</text><rect fill="#E2E2F0" height="51.2422" rx="2.5" ry="2.5" style="stroke:#181818;stroke-width:0.5;" width="111" x="1333.5" y="1075.9043"/><text fill="#000000" font-family="sans-serif" font-size="14" lengthAdjust="spacing" textLength="97" x="1340.5" y="1098.0117">SkillRepository:</text><text fill="#000000" font-family="sans-serif" font-size="14" lengthAdjust="spacing" textLength="93" x="1342.5" y="1116.6328">SkillRepository</text><rect fill="#E2E2F0" height="51.2422" rx="2.5" ry="2.5" style="stroke:#181818;stroke-width:0.5;" width="89" x="1454.5" y="31.3789"/><text fill="#000000" font-family="sans-serif" font-size="14" lengthAdjust="spacing" textLength="75" x="1461.5" y="53.4863">collaborator</text><text fill="#000000" font-family="sans-serif" font-size="14" lengthAdjust="spacing" textLength="66" x="1466" y="72.1074">:Employee</text><rect fill="#E2E2F0" height="51.2422" rx="2.5" ry="2.5" style="stroke:#181818;stroke-width:0.5;" width="89" x="1454.5" y="1075.9043"/><text fill="#000000" font-family="sans-serif" font-size="14" lengthAdjust="spacing" textLength="75" x="1461.5" y="1098.0117">collaborator</text><text fill="#000000" font-family="sans-serif" font-size="14" lengthAdjust="spacing" textLength="66" x="1466" y="1116.6328">:Employee</text><rect fill="#FFFFFF" height="965.2832" style="stroke:#181818;stroke-width:1.0;" width="10" x="91" y="93.6211"/><rect fill="#FFFFFF" height="185.7461" style="stroke:#181818;stroke-width:1.0;" width="10" x="547" y="116.9121"/><rect fill="#FFFFFF" height="31.291" style="stroke:#181818;stroke-width:1.0;" width="10" x="547" y="333.9492"/><rect fill="#FFFFFF" height="252.959" style="stroke:#181818;stroke-width:1.0;" width="10" x="547" y="396.5313"/><rect fill="#FFFFFF" height="31.291" style="stroke:#181818;stroke-width:1.0;" width="10" x="547" y="680.7813"/><rect fill="#FFFFFF" height="31.291" style="stroke:#181818;stroke-width:1.0;" width="10" x="547" y="743.3633"/><rect fill="#FFFFFF" height="252.959" style="stroke:#181818;stroke-width:1.0;" width="10" x="547" y="805.9453"/><rect fill="#FFFFFF" height="79.543" style="stroke:#181818;stroke-width:1.0;" width="10" x="873" y="191.8242"/><rect fill="#FFFFFF" height="79.543" style="stroke:#181818;stroke-width:1.0;" width="10" x="873" y="427.8223"/><rect fill="#FFFFFF" height="79.543" style="stroke:#181818;stroke-width:1.0;" width="10" x="873" y="538.6563"/><rect fill="#FFFFFF" height="79.543" style="stroke:#181818;stroke-width:1.0;" width="10" x="873" y="837.2363"/><rect fill="#FFFFFF" height="79.543" style="stroke:#181818;stroke-width:1.0;" width="10" x="873" y="948.0703"/><polygon fill="#181818" points="535,112.9121,545,116.9121,535,120.9121,539,116.9121" style="stroke:#181818;stroke-width:1.0;"/><line style="stroke:#181818;stroke-width:1.0;" x1="101" x2="541" y1="116.9121" y2="116.9121"/><text fill="#000000" font-family="sans-serif" font-size="13" font-weight="bold" lengthAdjust="spacing" textLength="7" x="108" y="111.6494">1</text><text fill="#000000" font-family="sans-serif" font-size="13" lengthAdjust="spacing" textLength="149" x="119" y="111.6494">requests to manage skills</text><polygon fill="#181818" points="792.5,144.2031,802.5,148.2031,792.5,152.2031,796.5,148.2031" style="stroke:#181818;stroke-width:1.0;"/><line style="stroke:#181818;stroke-width:1.0;" x1="557" x2="798.5" y1="148.2031" y2="148.2031"/><text fill="#000000" font-family="sans-serif" font-size="13" font-weight="bold" lengthAdjust="spacing" textLength="7" x="564" y="142.9404">2</text><text fill="#000000" font-family="sans-serif" font-size="13" lengthAdjust="spacing" textLength="78" x="575" y="142.9404">manageSkills</text><rect fill="#E2E2F0" height="32.6211" rx="2.5" ry="2.5" style="stroke:#181818;stroke-width:0.5;" width="147" x="804.5" y="124.9121"/><text fill="#000000" font-family="sans-serif" font-size="14" lengthAdjust="spacing" textLength="133" x="811.5" y="147.0195">:AssignSkillController</text><polygon fill="#181818" points="861,187.8242,871,191.8242,861,195.8242,865,191.8242" style="stroke:#181818;stroke-width:1.0;"/><line style="stroke:#181818;stroke-width:1.0;" x1="557" x2="867" y1="191.8242" y2="191.8242"/><text fill="#000000" font-family="sans-serif" font-size="13" font-weight="bold" lengthAdjust="spacing" textLength="7" x="564" y="186.5615">3</text><text fill="#000000" font-family="sans-serif" font-size="13" lengthAdjust="spacing" textLength="102" x="575" y="186.5615">getCollaborators()</text><rect fill="none" height="43.252" style="stroke:#000000;stroke-width:1.5;" width="153" x="801.5" y="199.8242"/><path d="M801.5,199.8242 L863.5,199.8242 L863.5,208.8242 L853.5,218.8242 L801.5,218.8242 L801.5,199.8242 " fill="#EEEEEE" style="stroke:#000000;stroke-width:2.0;"/><text fill="#000000" font-family="sans-serif" font-size="13" font-weight="bold" lengthAdjust="spacing" textLength="17" x="814.5" y="215.8525">ref</text><text fill="#000000" font-family="sans-serif" font-size="12" lengthAdjust="spacing" textLength="97" x="829.5" y="235.7734">Get Collaborators</text><polygon fill="#181818" points="568,267.3672,558,271.3672,568,275.3672,564,271.3672" style="stroke:#181818;stroke-width:1.0;"/><line style="stroke:#181818;stroke-width:1.0;stroke-dasharray:2.0,2.0;" x1="562" x2="877" y1="271.3672" y2="271.3672"/><text fill="#000000" font-family="sans-serif" font-size="13" font-weight="bold" lengthAdjust="spacing" textLength="7" x="574" y="266.1045">4</text><text fill="#000000" font-family="sans-serif" font-size="13" lengthAdjust="spacing" textLength="88" x="585" y="266.1045">collaboratorList</text><polygon fill="#181818" points="112,298.6582,102,302.6582,112,306.6582,108,302.6582" style="stroke:#181818;stroke-width:1.0;"/><line style="stroke:#181818;stroke-width:1.0;stroke-dasharray:2.0,2.0;" x1="106" x2="551" y1="302.6582" y2="302.6582"/><text fill="#000000" font-family="sans-serif" font-size="13" font-weight="bold" lengthAdjust="spacing" textLength="7" x="118" y="297.3955">5</text><text fill="#000000" font-family="sans-serif" font-size="13" lengthAdjust="spacing" textLength="161" x="129" y="297.3955">displays list of collaborators</text><polygon fill="#181818" points="535,329.9492,545,333.9492,535,337.9492,539,333.9492" style="stroke:#181818;stroke-width:1.0;"/><line style="stroke:#181818;stroke-width:1.0;" x1="101" x2="541" y1="333.9492" y2="333.9492"/><text fill="#000000" font-family="sans-serif" font-size="13" font-weight="bold" lengthAdjust="spacing" textLength="7" x="108" y="328.6865">6</text><text fill="#000000" font-family="sans-serif" font-size="13" lengthAdjust="spacing" textLength="124" x="119" y="328.6865">selects a collaborator</text><polygon fill="#181818" points="112,361.2402,102,365.2402,112,369.2402,108,365.2402" style="stroke:#181818;stroke-width:1.0;"/><line style="stroke:#181818;stroke-width:1.0;stroke-dasharray:2.0,2.0;" x1="106" x2="551" y1="365.2402" y2="365.2402"/><text fill="#000000" font-family="sans-serif" font-size="13" font-weight="bold" lengthAdjust="spacing" textLength="7" x="118" y="359.9775">7</text><text fill="#000000" font-family="sans-serif" font-size="13" lengthAdjust="spacing" textLength="225" x="129" y="359.9775">requests action (add skill, remove skill)</text><polygon fill="#181818" points="535,392.5313,545,396.5313,535,400.5313,539,396.5313" style="stroke:#181818;stroke-width:1.0;"/><line style="stroke:#181818;stroke-width:1.0;" x1="101" x2="541" y1="396.5313" y2="396.5313"/><text fill="#000000" font-family="sans-serif" font-size="13" font-weight="bold" lengthAdjust="spacing" textLength="7" x="108" y="391.2686">8</text><text fill="#000000" font-family="sans-serif" font-size="13" lengthAdjust="spacing" textLength="88" x="119" y="391.2686">confirms action</text><polygon fill="#181818" points="861,423.8223,871,427.8223,861,431.8223,865,427.8223" style="stroke:#181818;stroke-width:1.0;"/><line style="stroke:#181818;stroke-width:1.0;" x1="557" x2="867" y1="427.8223" y2="427.8223"/><text fill="#000000" font-family="sans-serif" font-size="13" font-weight="bold" lengthAdjust="spacing" textLength="7" x="564" y="422.5596">9</text><text fill="#000000" font-family="sans-serif" font-size="13" lengthAdjust="spacing" textLength="204" x="575" y="422.5596">getCollaboratorSkills(collaboratorId)</text><rect fill="none" height="43.252" style="stroke:#000000;stroke-width:1.5;" width="153" x="801.5" y="435.8223"/><path d="M801.5,435.8223 L863.5,435.8223 L863.5,444.8223 L853.5,454.8223 L801.5,454.8223 L801.5,435.8223 " fill="#EEEEEE" style="stroke:#000000;stroke-width:2.0;"/><text fill="#000000" font-family="sans-serif" font-size="13" font-weight="bold" lengthAdjust="spacing" textLength="17" x="814.5" y="451.8506">ref</text><text fill="#000000" font-family="sans-serif" font-size="12" lengthAdjust="spacing" textLength="123" x="816.5" y="471.7715">Get Collaborator Skills</text><polygon fill="#181818" points="568,503.3652,558,507.3652,568,511.3652,564,507.3652" style="stroke:#181818;stroke-width:1.0;"/><line style="stroke:#181818;stroke-width:1.0;stroke-dasharray:2.0,2.0;" x1="562" x2="877" y1="507.3652" y2="507.3652"/><text fill="#000000" font-family="sans-serif" font-size="13" font-weight="bold" lengthAdjust="spacing" textLength="14" x="574" y="502.1025">10</text><text fill="#000000" font-family="sans-serif" font-size="13" lengthAdjust="spacing" textLength="99" x="592" y="502.1025">collaboratorSkills</text><polygon fill="#181818" points="861,534.6563,871,538.6563,861,542.6563,865,538.6563" style="stroke:#181818;stroke-width:1.0;"/><line style="stroke:#181818;stroke-width:1.0;" x1="557" x2="867" y1="538.6563" y2="538.6563"/><text fill="#000000" font-family="sans-serif" font-size="13" font-weight="bold" lengthAdjust="spacing" textLength="14" x="564" y="533.3936">11</text><text fill="#000000" font-family="sans-serif" font-size="13" lengthAdjust="spacing" textLength="58" x="582" y="533.3936">getSkills()</text><rect fill="none" height="43.252" style="stroke:#000000;stroke-width:1.5;" width="153" x="801.5" y="546.6563"/><path d="M801.5,546.6563 L863.5,546.6563 L863.5,555.6563 L853.5,565.6563 L801.5,565.6563 L801.5,546.6563 " fill="#EEEEEE" style="stroke:#000000;stroke-width:2.0;"/><text fill="#000000" font-family="sans-serif" font-size="13" font-weight="bold" lengthAdjust="spacing" textLength="17" x="814.5" y="562.6846">ref</text><text fill="#000000" font-family="sans-serif" font-size="12" lengthAdjust="spacing" textLength="52" x="852" y="582.6055">Get Skills</text><polygon fill="#181818" points="568,614.1992,558,618.1992,568,622.1992,564,618.1992" style="stroke:#181818;stroke-width:1.0;"/><line style="stroke:#181818;stroke-width:1.0;stroke-dasharray:2.0,2.0;" x1="562" x2="877" y1="618.1992" y2="618.1992"/><text fill="#000000" font-family="sans-serif" font-size="13" font-weight="bold" lengthAdjust="spacing" textLength="14" x="574" y="612.9365">12</text><text fill="#000000" font-family="sans-serif" font-size="13" lengthAdjust="spacing" textLength="44" x="592" y="612.9365">skillList</text><polygon fill="#181818" points="112,645.4902,102,649.4902,112,653.4902,108,649.4902" style="stroke:#181818;stroke-width:1.0;"/><line style="stroke:#181818;stroke-width:1.0;stroke-dasharray:2.0,2.0;" x1="106" x2="551" y1="649.4902" y2="649.4902"/><text fill="#000000" font-family="sans-serif" font-size="13" font-weight="bold" lengthAdjust="spacing" textLength="14" x="118" y="644.2275">13</text><text fill="#000000" font-family="sans-serif" font-size="13" lengthAdjust="spacing" textLength="404" x="136" y="644.2275">displays list of collaborator's skills with options to add or remove skills</text><polygon fill="#181818" points="535,676.7813,545,680.7813,535,684.7813,539,680.7813" style="stroke:#181818;stroke-width:1.0;"/><line style="stroke:#181818;stroke-width:1.0;" x1="101" x2="541" y1="680.7813" y2="680.7813"/><text fill="#000000" font-family="sans-serif" font-size="13" font-weight="bold" lengthAdjust="spacing" textLength="14" x="108" y="675.5186">14</text><text fill="#000000" font-family="sans-serif" font-size="13" lengthAdjust="spacing" textLength="120" x="126" y="675.5186">selects to add a skill</text><polygon fill="#181818" points="112,708.0723,102,712.0723,112,716.0723,108,712.0723" style="stroke:#181818;stroke-width:1.0;"/><line style="stroke:#181818;stroke-width:1.0;stroke-dasharray:2.0,2.0;" x1="106" x2="551" y1="712.0723" y2="712.0723"/><text fill="#000000" font-family="sans-serif" font-size="13" font-weight="bold" lengthAdjust="spacing" textLength="14" x="118" y="706.8096">15</text><text fill="#000000" font-family="sans-serif" font-size="13" lengthAdjust="spacing" textLength="117" x="136" y="706.8096">requests skill to add</text><polygon fill="#181818" points="535,739.3633,545,743.3633,535,747.3633,539,743.3633" style="stroke:#181818;stroke-width:1.0;"/><line style="stroke:#181818;stroke-width:1.0;" x1="101" x2="541" y1="743.3633" y2="743.3633"/><text fill="#000000" font-family="sans-serif" font-size="13" font-weight="bold" lengthAdjust="spacing" textLength="14" x="108" y="738.1006">16</text><text fill="#000000" font-family="sans-serif" font-size="13" lengthAdjust="spacing" textLength="99" x="126" y="738.1006">types skill to add</text><polygon fill="#181818" points="112,770.6543,102,774.6543,112,778.6543,108,774.6543" style="stroke:#181818;stroke-width:1.0;"/><line style="stroke:#181818;stroke-width:1.0;stroke-dasharray:2.0,2.0;" x1="106" x2="551" y1="774.6543" y2="774.6543"/><text fill="#000000" font-family="sans-serif" font-size="13" font-weight="bold" lengthAdjust="spacing" textLength="14" x="118" y="769.3916">17</text><text fill="#000000" font-family="sans-serif" font-size="13" lengthAdjust="spacing" textLength="116" x="136" y="769.3916">confirms skill to add</text><polygon fill="#181818" points="535,801.9453,545,805.9453,535,809.9453,539,805.9453" style="stroke:#181818;stroke-width:1.0;"/><line style="stroke:#181818;stroke-width:1.0;" x1="101" x2="541" y1="805.9453" y2="805.9453"/><text fill="#000000" font-family="sans-serif" font-size="13" font-weight="bold" lengthAdjust="spacing" textLength="14" x="108" y="800.6826">18</text><text fill="#000000" font-family="sans-serif" font-size="13" lengthAdjust="spacing" textLength="116" x="126" y="800.6826">confirms to add skill</text><polygon fill="#181818" points="861,833.2363,871,837.2363,861,841.2363,865,837.2363" style="stroke:#181818;stroke-width:1.0;"/><line style="stroke:#181818;stroke-width:1.0;" x1="557" x2="867" y1="837.2363" y2="837.2363"/><text fill="#000000" font-family="sans-serif" font-size="13" font-weight="bold" lengthAdjust="spacing" textLength="14" x="564" y="831.9736">19</text><text fill="#000000" font-family="sans-serif" font-size="13" lengthAdjust="spacing" textLength="279" x="582" y="831.9736">addSkillToCollaborator(collaboratorId, skillName)</text><rect fill="none" height="43.252" style="stroke:#000000;stroke-width:1.5;" width="153" x="801.5" y="845.2363"/><path d="M801.5,845.2363 L863.5,845.2363 L863.5,854.2363 L853.5,864.2363 L801.5,864.2363 L801.5,845.2363 " fill="#EEEEEE" style="stroke:#000000;stroke-width:2.0;"/><text fill="#000000" font-family="sans-serif" font-size="13" font-weight="bold" lengthAdjust="spacing" textLength="17" x="814.5" y="861.2646">ref</text><text fill="#000000" font-family="sans-serif" font-size="12" lengthAdjust="spacing" textLength="135" x="810.5" y="881.1855">Add Skill To Collaborator</text><polygon fill="#181818" points="568,912.7793,558,916.7793,568,920.7793,564,916.7793" style="stroke:#181818;stroke-width:1.0;"/><line style="stroke:#181818;stroke-width:1.0;stroke-dasharray:2.0,2.0;" x1="562" x2="877" y1="916.7793" y2="916.7793"/><text fill="#000000" font-family="sans-serif" font-size="13" font-weight="bold" lengthAdjust="spacing" textLength="14" x="574" y="911.5166">20</text><text fill="#000000" font-family="sans-serif" font-size="13" lengthAdjust="spacing" textLength="32" x="592" y="911.5166">result</text><polygon fill="#181818" points="861,944.0703,871,948.0703,861,952.0703,865,948.0703" style="stroke:#181818;stroke-width:1.0;"/><line style="stroke:#181818;stroke-width:1.0;" x1="557" x2="867" y1="948.0703" y2="948.0703"/><text fill="#000000" font-family="sans-serif" font-size="13" font-weight="bold" lengthAdjust="spacing" textLength="14" x="564" y="942.8076">21</text><text fill="#000000" font-family="sans-serif" font-size="13" lengthAdjust="spacing" textLength="204" x="582" y="942.8076">getCollaboratorSkills(collaboratorId)</text><rect fill="none" height="43.252" style="stroke:#000000;stroke-width:1.5;" width="181" x="801.5" y="956.0703"/><path d="M801.5,956.0703 L863.5,956.0703 L863.5,965.0703 L853.5,975.0703 L801.5,975.0703 L801.5,956.0703 " fill="#EEEEEE" style="stroke:#000000;stroke-width:2.0;"/><text fill="#000000" font-family="sans-serif" font-size="13" font-weight="bold" lengthAdjust="spacing" textLength="17" x="814.5" y="972.0986">ref</text><text fill="#000000" font-family="sans-serif" font-size="12" lengthAdjust="spacing" textLength="173" x="805.5" y="992.0195">Get Updated Collaborator Skills</text><polygon fill="#181818" points="568,1023.6133,558,1027.6133,568,1031.6133,564,1027.6133" style="stroke:#181818;stroke-width:1.0;"/><line style="stroke:#181818;stroke-width:1.0;stroke-dasharray:2.0,2.0;" x1="562" x2="877" y1="1027.6133" y2="1027.6133"/><text fill="#000000" font-family="sans-serif" font-size="13" font-weight="bold" lengthAdjust="spacing" textLength="14" x="574" y="1022.3506">22</text><text fill="#000000" font-family="sans-serif" font-size="13" lengthAdjust="spacing" textLength="147" x="592" y="1022.3506">updatedCollaboratorSkills</text><polygon fill="#181818" points="107,1054.9043,97,1058.9043,107,1062.9043,103,1058.9043" style="stroke:#181818;stroke-width:1.0;"/><line style="stroke:#181818;stroke-width:1.0;stroke-dasharray:2.0,2.0;" x1="101" x2="551" y1="1058.9043" y2="1058.9043"/><text fill="#000000" font-family="sans-serif" font-size="13" font-weight="bold" lengthAdjust="spacing" textLength="14" x="113" y="1053.6416">23</text><text fill="#000000" font-family="sans-serif" font-size="13" lengthAdjust="spacing" textLength="247" x="131" y="1053.6416">displays updated list of collaborator's skills</text><!--SRC=[jLLDSzem4BtxL-pa0iaaVu13PoZjjCoGqk7Zbekm5z0WIwua9-NVToqR8TcKG4fzmjA-jn_lhUcP7PS5qoo7N4cLRhNA4QmkCJdU52pTiGtExLuWQ4mjaniH1fWjozGRbnjOCs4mILXfbIpp5UeawMrvXh1MogxKxuIbLccu-rxcJC8CZIfrYWQUcQGC-WwOWU6NvuHuBKzvmQI5ky7G6BwHynqNOZbsCSlntqD6IbgjX6ZeHelPf1Kymq8PJeLmD2x67-pdlEgDgeyXEa2yo2x1pybm4IE-veLGUyGZzU15TWyTkdiSSxcs8gBMYMDfdSKKAGs4hPHcT4KD73BM4vfE9iFFqzbmCPqbbKBybLbqEYH03_s0fqyqSnYG_BzADDQ0LP0xqS1KUOsBz5ZI1vg7O0IkL7Xu888QD3zYuXYAsA0T1TMQ_hsFqxW6zOgw5XM2vnjQY53-5cLMuVoxhz5nH2IkWAT3g-789jnO7vfXp15sGU1gN0F8k2a4sniG10MrZkZgwW8UcbTdr0O5xPe15a7Fpjbdzp9LaKf2dsLPBTGZtUKqm_hj_aGXxJfI9TTSvmUk2uJkYbZhtGyR6MSVqHLQphc9kYtES_g63JPDNTh6hIftmjtOa3tJh36ySRi5LLHAkoMlZ4DZ3qrpbNiR2bP3htIlmpGK5pZLxWiy0NetdtVubVayhcdo_HQzVIZS-M6XGdUt5kInPlp1Shp4P4CgmP72GaLBy- -UqsXAOQ_Ua9jz0fP5Hico__CfA6loqSU-2Dq5Q_ZEBzgf7GfUgp_VFm00]--></g></svg>