<?xml version="1.0" encoding="us-ascii" standalone="no"?><svg xmlns="http://www.w3.org/2000/svg" xmlns:xlink="http://www.w3.org/1999/xlink" contentStyleType="text/css" height="530px" preserveAspectRatio="none" style="width:841px;height:530px;background:#FFFFFF;" version="1.1" viewBox="0 0 841 530" width="841px" zoomAndPan="magnify"><defs/><g><!--class ApplicationSession--><g id="elem_ApplicationSession"><rect codeLine="12" fill="#F1F1F1" height="85.2422" id="ApplicationSession" rx="2.5" ry="2.5" style="stroke:#181818;stroke-width:0.5;" width="151" x="446.5" y="255.5"/><ellipse cx="461.5" cy="271.5" fill="#ADD1B2" rx="11" ry="11" style="stroke:#181818;stroke-width:1.0;"/><path d="M464.2656,267.375 Q464.4219,267.1563 464.6094,267.0469 Q464.7969,266.9375 465.0156,266.9375 Q465.3906,266.9375 465.625,267.2031 Q465.8594,267.4531 465.8594,268.0625 L465.8594,269.5156 Q465.8594,270.125 465.625,270.3906 Q465.3906,270.6563 465.0156,270.6563 Q464.6719,270.6563 464.4688,270.4531 Q464.2656,270.2656 464.1563,269.75 Q464.1094,269.3906 463.9219,269.2031 Q463.5938,268.8281 462.9844,268.6094 Q462.375,268.3906 461.75,268.3906 Q460.9844,268.3906 460.3438,268.7188 Q459.7188,269.0469 459.2188,269.7969 Q458.7344,270.5469 458.7344,271.5781 L458.7344,272.6719 Q458.7344,273.9063 459.625,274.7344 Q460.5156,275.5469 462.1094,275.5469 Q463.0469,275.5469 463.7031,275.2969 Q464.0938,275.1406 464.5156,274.7031 Q464.7813,274.4375 464.9219,274.3594 Q465.0781,274.2813 465.2813,274.2813 Q465.6094,274.2813 465.8594,274.5469 Q466.125,274.7969 466.125,275.1406 Q466.125,275.4844 465.7813,275.8906 Q465.2813,276.4688 464.4844,276.7969 Q463.4063,277.25 462.1094,277.25 Q460.5938,277.25 459.3906,276.625 Q458.4063,276.125 457.7188,275.0625 Q457.0313,273.9844 457.0313,272.7031 L457.0313,271.5469 Q457.0313,270.2188 457.6406,269.0781 Q458.2656,267.9219 459.3594,267.3125 Q460.4531,266.6875 461.6875,266.6875 Q462.4219,266.6875 463.0625,266.8594 Q463.7188,267.0156 464.2656,267.375 Z " fill="#000000"/><text fill="#000000" font-family="sans-serif" font-size="14" lengthAdjust="spacing" textLength="119" x="475.5" y="277.2969">ApplicationSession</text><line style="stroke:#181818;stroke-width:0.5;" x1="447.5" x2="596.5" y1="287.5" y2="287.5"/><line style="stroke:#181818;stroke-width:0.5;" x1="447.5" x2="596.5" y1="295.5" y2="295.5"/><text fill="#000000" font-family="sans-serif" font-size="14" lengthAdjust="spacing" textLength="128" x="452.5" y="314.6074">+static getInstance()</text><text fill="#000000" font-family="sans-serif" font-size="14" lengthAdjust="spacing" textLength="136" x="452.5" y="333.2285">+getCurrentSession()</text></g><!--class UserSession--><g id="elem_UserSession"><rect codeLine="18" fill="#F1F1F1" height="66.6211" id="UserSession" rx="2.5" ry="2.5" style="stroke:#181818;stroke-width:0.5;" width="113" x="596.5" y="447"/><ellipse cx="612.4" cy="463" fill="#ADD1B2" rx="11" ry="11" style="stroke:#181818;stroke-width:1.0;"/><path d="M615.1656,458.875 Q615.3219,458.6563 615.5094,458.5469 Q615.6969,458.4375 615.9156,458.4375 Q616.2906,458.4375 616.525,458.7031 Q616.7594,458.9531 616.7594,459.5625 L616.7594,461.0156 Q616.7594,461.625 616.525,461.8906 Q616.2906,462.1563 615.9156,462.1563 Q615.5719,462.1563 615.3688,461.9531 Q615.1656,461.7656 615.0563,461.25 Q615.0094,460.8906 614.8219,460.7031 Q614.4938,460.3281 613.8844,460.1094 Q613.275,459.8906 612.65,459.8906 Q611.8844,459.8906 611.2438,460.2188 Q610.6188,460.5469 610.1188,461.2969 Q609.6344,462.0469 609.6344,463.0781 L609.6344,464.1719 Q609.6344,465.4063 610.525,466.2344 Q611.4156,467.0469 613.0094,467.0469 Q613.9469,467.0469 614.6031,466.7969 Q614.9938,466.6406 615.4156,466.2031 Q615.6813,465.9375 615.8219,465.8594 Q615.9781,465.7813 616.1813,465.7813 Q616.5094,465.7813 616.7594,466.0469 Q617.025,466.2969 617.025,466.6406 Q617.025,466.9844 616.6813,467.3906 Q616.1813,467.9688 615.3844,468.2969 Q614.3063,468.75 613.0094,468.75 Q611.4938,468.75 610.2906,468.125 Q609.3063,467.625 608.6188,466.5625 Q607.9313,465.4844 607.9313,464.2031 L607.9313,463.0469 Q607.9313,461.7188 608.5406,460.5781 Q609.1656,459.4219 610.2594,458.8125 Q611.3531,458.1875 612.5875,458.1875 Q613.3219,458.1875 613.9625,458.3594 Q614.6188,458.5156 615.1656,458.875 Z " fill="#000000"/><text fill="#000000" font-family="sans-serif" font-size="14" lengthAdjust="spacing" textLength="79" x="626.6" y="468.7969">UserSession</text><line style="stroke:#181818;stroke-width:0.5;" x1="597.5" x2="708.5" y1="479" y2="479"/><line style="stroke:#181818;stroke-width:0.5;" x1="597.5" x2="708.5" y1="487" y2="487"/><text fill="#000000" font-family="sans-serif" font-size="14" lengthAdjust="spacing" textLength="101" x="602.5" y="506.1074">+getUserEmail()</text></g><!--class Employee--><g id="elem_Employee"><rect codeLine="23" fill="#F1F1F1" height="122.4844" id="Employee" rx="2.5" ry="2.5" style="stroke:#181818;stroke-width:0.5;" width="94" x="317" y="237"/><ellipse cx="332" cy="253" fill="#ADD1B2" rx="11" ry="11" style="stroke:#181818;stroke-width:1.0;"/><path d="M334.7656,248.875 Q334.9219,248.6563 335.1094,248.5469 Q335.2969,248.4375 335.5156,248.4375 Q335.8906,248.4375 336.125,248.7031 Q336.3594,248.9531 336.3594,249.5625 L336.3594,251.0156 Q336.3594,251.625 336.125,251.8906 Q335.8906,252.1563 335.5156,252.1563 Q335.1719,252.1563 334.9688,251.9531 Q334.7656,251.7656 334.6563,251.25 Q334.6094,250.8906 334.4219,250.7031 Q334.0938,250.3281 333.4844,250.1094 Q332.875,249.8906 332.25,249.8906 Q331.4844,249.8906 330.8438,250.2188 Q330.2188,250.5469 329.7188,251.2969 Q329.2344,252.0469 329.2344,253.0781 L329.2344,254.1719 Q329.2344,255.4063 330.125,256.2344 Q331.0156,257.0469 332.6094,257.0469 Q333.5469,257.0469 334.2031,256.7969 Q334.5938,256.6406 335.0156,256.2031 Q335.2813,255.9375 335.4219,255.8594 Q335.5781,255.7813 335.7813,255.7813 Q336.1094,255.7813 336.3594,256.0469 Q336.625,256.2969 336.625,256.6406 Q336.625,256.9844 336.2813,257.3906 Q335.7813,257.9688 334.9844,258.2969 Q333.9063,258.75 332.6094,258.75 Q331.0938,258.75 329.8906,258.125 Q328.9063,257.625 328.2188,256.5625 Q327.5313,255.4844 327.5313,254.2031 L327.5313,253.0469 Q327.5313,251.7188 328.1406,250.5781 Q328.7656,249.4219 329.8594,248.8125 Q330.9531,248.1875 332.1875,248.1875 Q332.9219,248.1875 333.5625,248.3594 Q334.2188,248.5156 334.7656,248.875 Z " fill="#000000"/><text fill="#000000" font-family="sans-serif" font-size="14" lengthAdjust="spacing" textLength="62" x="346" y="258.7969">Employee</text><line style="stroke:#181818;stroke-width:0.5;" x1="318" x2="410" y1="269" y2="269"/><text fill="#000000" font-family="sans-serif" font-size="14" lengthAdjust="spacing" textLength="40" x="323" y="288.1074">-name</text><text fill="#000000" font-family="sans-serif" font-size="14" lengthAdjust="spacing" textLength="38" x="323" y="306.7285">-email</text><text fill="#000000" font-family="sans-serif" font-size="14" lengthAdjust="spacing" textLength="54" x="323" y="325.3496">-position</text><text fill="#000000" font-family="sans-serif" font-size="14" lengthAdjust="spacing" textLength="45" x="323" y="343.9707">-phone</text><line style="stroke:#181818;stroke-width:0.5;" x1="318" x2="410" y1="351.4844" y2="351.4844"/></g><!--class Job--><g id="elem_Job"><rect codeLine="30" fill="#F1F1F1" height="85.2422" id="Job" rx="2.5" ry="2.5" style="stroke:#181818;stroke-width:0.5;" width="125" x="202.5" y="438"/><ellipse cx="249.75" cy="454" fill="#ADD1B2" rx="11" ry="11" style="stroke:#181818;stroke-width:1.0;"/><path d="M252.5156,449.875 Q252.6719,449.6563 252.8594,449.5469 Q253.0469,449.4375 253.2656,449.4375 Q253.6406,449.4375 253.875,449.7031 Q254.1094,449.9531 254.1094,450.5625 L254.1094,452.0156 Q254.1094,452.625 253.875,452.8906 Q253.6406,453.1563 253.2656,453.1563 Q252.9219,453.1563 252.7188,452.9531 Q252.5156,452.7656 252.4063,452.25 Q252.3594,451.8906 252.1719,451.7031 Q251.8438,451.3281 251.2344,451.1094 Q250.625,450.8906 250,450.8906 Q249.2344,450.8906 248.5938,451.2188 Q247.9688,451.5469 247.4688,452.2969 Q246.9844,453.0469 246.9844,454.0781 L246.9844,455.1719 Q246.9844,456.4063 247.875,457.2344 Q248.7656,458.0469 250.3594,458.0469 Q251.2969,458.0469 251.9531,457.7969 Q252.3438,457.6406 252.7656,457.2031 Q253.0313,456.9375 253.1719,456.8594 Q253.3281,456.7813 253.5313,456.7813 Q253.8594,456.7813 254.1094,457.0469 Q254.375,457.2969 254.375,457.6406 Q254.375,457.9844 254.0313,458.3906 Q253.5313,458.9688 252.7344,459.2969 Q251.6563,459.75 250.3594,459.75 Q248.8438,459.75 247.6406,459.125 Q246.6563,458.625 245.9688,457.5625 Q245.2813,456.4844 245.2813,455.2031 L245.2813,454.0469 Q245.2813,452.7188 245.8906,451.5781 Q246.5156,450.4219 247.6094,449.8125 Q248.7031,449.1875 249.9375,449.1875 Q250.6719,449.1875 251.3125,449.3594 Q251.9688,449.5156 252.5156,449.875 Z " fill="#000000"/><text fill="#000000" font-family="sans-serif" font-size="14" lengthAdjust="spacing" textLength="22" x="270.25" y="459.7969">Job</text><line style="stroke:#181818;stroke-width:0.5;" x1="203.5" x2="326.5" y1="470" y2="470"/><text fill="#000000" font-family="sans-serif" font-size="14" lengthAdjust="spacing" textLength="60" x="208.5" y="489.1074">-jobName</text><line style="stroke:#181818;stroke-width:0.5;" x1="203.5" x2="326.5" y1="496.6211" y2="496.6211"/><text fill="#000000" font-family="sans-serif" font-size="14" lengthAdjust="spacing" textLength="113" x="208.5" y="515.7285">+addJob(job: Job)</text></g><!--class JobRepository--><g id="elem_JobRepository"><rect codeLine="36" fill="#F1F1F1" height="122.4844" id="JobRepository" rx="2.5" ry="2.5" style="stroke:#181818;stroke-width:0.5;" width="232" x="50" y="237"/><ellipse cx="116.75" cy="253" fill="#ADD1B2" rx="11" ry="11" style="stroke:#181818;stroke-width:1.0;"/><path d="M119.5156,248.875 Q119.6719,248.6563 119.8594,248.5469 Q120.0469,248.4375 120.2656,248.4375 Q120.6406,248.4375 120.875,248.7031 Q121.1094,248.9531 121.1094,249.5625 L121.1094,251.0156 Q121.1094,251.625 120.875,251.8906 Q120.6406,252.1563 120.2656,252.1563 Q119.9219,252.1563 119.7188,251.9531 Q119.5156,251.7656 119.4063,251.25 Q119.3594,250.8906 119.1719,250.7031 Q118.8438,250.3281 118.2344,250.1094 Q117.625,249.8906 117,249.8906 Q116.2344,249.8906 115.5938,250.2188 Q114.9688,250.5469 114.4688,251.2969 Q113.9844,252.0469 113.9844,253.0781 L113.9844,254.1719 Q113.9844,255.4063 114.875,256.2344 Q115.7656,257.0469 117.3594,257.0469 Q118.2969,257.0469 118.9531,256.7969 Q119.3438,256.6406 119.7656,256.2031 Q120.0313,255.9375 120.1719,255.8594 Q120.3281,255.7813 120.5313,255.7813 Q120.8594,255.7813 121.1094,256.0469 Q121.375,256.2969 121.375,256.6406 Q121.375,256.9844 121.0313,257.3906 Q120.5313,257.9688 119.7344,258.2969 Q118.6563,258.75 117.3594,258.75 Q115.8438,258.75 114.6406,258.125 Q113.6563,257.625 112.9688,256.5625 Q112.2813,255.4844 112.2813,254.2031 L112.2813,253.0469 Q112.2813,251.7188 112.8906,250.5781 Q113.5156,249.4219 114.6094,248.8125 Q115.7031,248.1875 116.9375,248.1875 Q117.6719,248.1875 118.3125,248.3594 Q118.9688,248.5156 119.5156,248.875 Z " fill="#000000"/><text fill="#000000" font-family="sans-serif" font-size="14" lengthAdjust="spacing" textLength="90" x="137.25" y="258.7969">JobRepository</text><line style="stroke:#181818;stroke-width:0.5;" x1="51" x2="281" y1="269" y2="269"/><text fill="#000000" font-family="sans-serif" font-size="14" lengthAdjust="spacing" textLength="88" x="56" y="288.1074">-List&lt;Job&gt; job</text><line style="stroke:#181818;stroke-width:0.5;" x1="51" x2="281" y1="295.6211" y2="295.6211"/><text fill="#000000" font-family="sans-serif" font-size="14" lengthAdjust="spacing" textLength="194" x="56" y="314.7285">+void addJob(jobName: String)</text><text fill="#000000" font-family="sans-serif" font-size="14" lengthAdjust="spacing" textLength="220" x="56" y="333.3496">+void removeJob(JobName: String)</text><text fill="#000000" font-family="sans-serif" font-size="14" lengthAdjust="spacing" textLength="186" x="56" y="351.9707">+Job getJob(jobName: String)</text></g><!--class CreateJobUI--><g id="elem_CreateJobUI"><rect codeLine="44" fill="#F1F1F1" height="48" id="CreateJobUI" rx="2.5" ry="2.5" style="stroke:#181818;stroke-width:0.5;" width="109" x="251.5" y="25.5"/><ellipse cx="266.5" cy="41.5" fill="#ADD1B2" rx="11" ry="11" style="stroke:#181818;stroke-width:1.0;"/><path d="M269.2656,37.375 Q269.4219,37.1563 269.6094,37.0469 Q269.7969,36.9375 270.0156,36.9375 Q270.3906,36.9375 270.625,37.2031 Q270.8594,37.4531 270.8594,38.0625 L270.8594,39.5156 Q270.8594,40.125 270.625,40.3906 Q270.3906,40.6563 270.0156,40.6563 Q269.6719,40.6563 269.4688,40.4531 Q269.2656,40.2656 269.1563,39.75 Q269.1094,39.3906 268.9219,39.2031 Q268.5938,38.8281 267.9844,38.6094 Q267.375,38.3906 266.75,38.3906 Q265.9844,38.3906 265.3438,38.7188 Q264.7188,39.0469 264.2188,39.7969 Q263.7344,40.5469 263.7344,41.5781 L263.7344,42.6719 Q263.7344,43.9063 264.625,44.7344 Q265.5156,45.5469 267.1094,45.5469 Q268.0469,45.5469 268.7031,45.2969 Q269.0938,45.1406 269.5156,44.7031 Q269.7813,44.4375 269.9219,44.3594 Q270.0781,44.2813 270.2813,44.2813 Q270.6094,44.2813 270.8594,44.5469 Q271.125,44.7969 271.125,45.1406 Q271.125,45.4844 270.7813,45.8906 Q270.2813,46.4688 269.4844,46.7969 Q268.4063,47.25 267.1094,47.25 Q265.5938,47.25 264.3906,46.625 Q263.4063,46.125 262.7188,45.0625 Q262.0313,43.9844 262.0313,42.7031 L262.0313,41.5469 Q262.0313,40.2188 262.6406,39.0781 Q263.2656,37.9219 264.3594,37.3125 Q265.4531,36.6875 266.6875,36.6875 Q267.4219,36.6875 268.0625,36.8594 Q268.7188,37.0156 269.2656,37.375 Z " fill="#000000"/><text fill="#000000" font-family="sans-serif" font-size="14" lengthAdjust="spacing" textLength="77" x="280.5" y="47.2969">CreateJobUI</text><line style="stroke:#181818;stroke-width:0.5;" x1="252.5" x2="359.5" y1="57.5" y2="57.5"/><line style="stroke:#181818;stroke-width:0.5;" x1="252.5" x2="359.5" y1="65.5" y2="65.5"/></g><!--class Repositories--><g id="elem_Repositories"><rect codeLine="47" fill="#F1F1F1" height="85.2422" id="Repositories" rx="2.5" ry="2.5" style="stroke:#181818;stroke-width:0.5;" width="234" x="7" y="122"/><ellipse cx="80.25" cy="138" fill="#ADD1B2" rx="11" ry="11" style="stroke:#181818;stroke-width:1.0;"/><path d="M83.0156,133.875 Q83.1719,133.6563 83.3594,133.5469 Q83.5469,133.4375 83.7656,133.4375 Q84.1406,133.4375 84.375,133.7031 Q84.6094,133.9531 84.6094,134.5625 L84.6094,136.0156 Q84.6094,136.625 84.375,136.8906 Q84.1406,137.1563 83.7656,137.1563 Q83.4219,137.1563 83.2188,136.9531 Q83.0156,136.7656 82.9063,136.25 Q82.8594,135.8906 82.6719,135.7031 Q82.3438,135.3281 81.7344,135.1094 Q81.125,134.8906 80.5,134.8906 Q79.7344,134.8906 79.0938,135.2188 Q78.4688,135.5469 77.9688,136.2969 Q77.4844,137.0469 77.4844,138.0781 L77.4844,139.1719 Q77.4844,140.4063 78.375,141.2344 Q79.2656,142.0469 80.8594,142.0469 Q81.7969,142.0469 82.4531,141.7969 Q82.8438,141.6406 83.2656,141.2031 Q83.5313,140.9375 83.6719,140.8594 Q83.8281,140.7813 84.0313,140.7813 Q84.3594,140.7813 84.6094,141.0469 Q84.875,141.2969 84.875,141.6406 Q84.875,141.9844 84.5313,142.3906 Q84.0313,142.9688 83.2344,143.2969 Q82.1563,143.75 80.8594,143.75 Q79.3438,143.75 78.1406,143.125 Q77.1563,142.625 76.4688,141.5625 Q75.7813,140.4844 75.7813,139.2031 L75.7813,138.0469 Q75.7813,136.7188 76.3906,135.5781 Q77.0156,134.4219 78.1094,133.8125 Q79.2031,133.1875 80.4375,133.1875 Q81.1719,133.1875 81.8125,133.3594 Q82.4688,133.5156 83.0156,133.875 Z " fill="#000000"/><text fill="#000000" font-family="sans-serif" font-size="14" lengthAdjust="spacing" textLength="79" x="100.75" y="143.7969">Repositories</text><line style="stroke:#181818;stroke-width:0.5;" x1="8" x2="240" y1="154" y2="154"/><text fill="#000000" font-family="sans-serif" font-size="14" lengthAdjust="spacing" textLength="92" x="13" y="173.1074">-jobRepository</text><line style="stroke:#181818;stroke-width:0.5;" x1="8" x2="240" y1="180.6211" y2="180.6211"/><text fill="#000000" font-family="sans-serif" font-size="14" lengthAdjust="spacing" textLength="222" x="13" y="199.7285">+JobRepository getJobRepository()</text></g><!--class CreateJobController--><g id="elem_CreateJobController"><rect codeLine="53" fill="#F1F1F1" height="85.2422" id="CreateJobController" rx="2.5" ry="2.5" style="stroke:#181818;stroke-width:0.5;" width="257" x="395.5" y="7"/><ellipse cx="456.25" cy="23" fill="#ADD1B2" rx="11" ry="11" style="stroke:#181818;stroke-width:1.0;"/><path d="M459.0156,18.875 Q459.1719,18.6563 459.3594,18.5469 Q459.5469,18.4375 459.7656,18.4375 Q460.1406,18.4375 460.375,18.7031 Q460.6094,18.9531 460.6094,19.5625 L460.6094,21.0156 Q460.6094,21.625 460.375,21.8906 Q460.1406,22.1563 459.7656,22.1563 Q459.4219,22.1563 459.2188,21.9531 Q459.0156,21.7656 458.9063,21.25 Q458.8594,20.8906 458.6719,20.7031 Q458.3438,20.3281 457.7344,20.1094 Q457.125,19.8906 456.5,19.8906 Q455.7344,19.8906 455.0938,20.2188 Q454.4688,20.5469 453.9688,21.2969 Q453.4844,22.0469 453.4844,23.0781 L453.4844,24.1719 Q453.4844,25.4063 454.375,26.2344 Q455.2656,27.0469 456.8594,27.0469 Q457.7969,27.0469 458.4531,26.7969 Q458.8438,26.6406 459.2656,26.2031 Q459.5313,25.9375 459.6719,25.8594 Q459.8281,25.7813 460.0313,25.7813 Q460.3594,25.7813 460.6094,26.0469 Q460.875,26.2969 460.875,26.6406 Q460.875,26.9844 460.5313,27.3906 Q460.0313,27.9688 459.2344,28.2969 Q458.1563,28.75 456.8594,28.75 Q455.3438,28.75 454.1406,28.125 Q453.1563,27.625 452.4688,26.5625 Q451.7813,25.4844 451.7813,24.2031 L451.7813,23.0469 Q451.7813,21.7188 452.3906,20.5781 Q453.0156,19.4219 454.1094,18.8125 Q455.2031,18.1875 456.4375,18.1875 Q457.1719,18.1875 457.8125,18.3594 Q458.4688,18.5156 459.0156,18.875 Z " fill="#000000"/><text fill="#000000" font-family="sans-serif" font-size="14" lengthAdjust="spacing" textLength="127" x="476.75" y="28.7969">CreateJobController</text><line style="stroke:#181818;stroke-width:0.5;" x1="396.5" x2="651.5" y1="39" y2="39"/><line style="stroke:#181818;stroke-width:0.5;" x1="396.5" x2="651.5" y1="47" y2="47"/><text fill="#000000" font-family="sans-serif" font-size="14" lengthAdjust="spacing" textLength="245" x="401.5" y="66.1074">+CreateJobController(jobName: String)</text><text fill="#000000" font-family="sans-serif" font-size="14" lengthAdjust="spacing" textLength="192" x="401.5" y="84.7285">+RemoveJob(jobName: String)</text></g><!--class job--><g id="elem_job"><rect fill="#F1F1F1" height="48" id="job" rx="2.5" ry="2.5" style="stroke:#181818;stroke-width:0.5;" width="51" x="783.5" y="274"/><ellipse cx="798.5" cy="290" fill="#ADD1B2" rx="11" ry="11" style="stroke:#181818;stroke-width:1.0;"/><path d="M801.2656,285.875 Q801.4219,285.6563 801.6094,285.5469 Q801.7969,285.4375 802.0156,285.4375 Q802.3906,285.4375 802.625,285.7031 Q802.8594,285.9531 802.8594,286.5625 L802.8594,288.0156 Q802.8594,288.625 802.625,288.8906 Q802.3906,289.1563 802.0156,289.1563 Q801.6719,289.1563 801.4688,288.9531 Q801.2656,288.7656 801.1563,288.25 Q801.1094,287.8906 800.9219,287.7031 Q800.5938,287.3281 799.9844,287.1094 Q799.375,286.8906 798.75,286.8906 Q797.9844,286.8906 797.3438,287.2188 Q796.7188,287.5469 796.2188,288.2969 Q795.7344,289.0469 795.7344,290.0781 L795.7344,291.1719 Q795.7344,292.4063 796.625,293.2344 Q797.5156,294.0469 799.1094,294.0469 Q800.0469,294.0469 800.7031,293.7969 Q801.0938,293.6406 801.5156,293.2031 Q801.7813,292.9375 801.9219,292.8594 Q802.0781,292.7813 802.2813,292.7813 Q802.6094,292.7813 802.8594,293.0469 Q803.125,293.2969 803.125,293.6406 Q803.125,293.9844 802.7813,294.3906 Q802.2813,294.9688 801.4844,295.2969 Q800.4063,295.75 799.1094,295.75 Q797.5938,295.75 796.3906,295.125 Q795.4063,294.625 794.7188,293.5625 Q794.0313,292.4844 794.0313,291.2031 L794.0313,290.0469 Q794.0313,288.7188 794.6406,287.5781 Q795.2656,286.4219 796.3594,285.8125 Q797.4531,285.1875 798.6875,285.1875 Q799.4219,285.1875 800.0625,285.3594 Q800.7188,285.5156 801.2656,285.875 Z " fill="#000000"/><text fill="#000000" font-family="sans-serif" font-size="14" lengthAdjust="spacing" textLength="19" x="812.5" y="295.7969">job</text><line style="stroke:#181818;stroke-width:0.5;" x1="784.5" x2="833.5" y1="306" y2="306"/><line style="stroke:#181818;stroke-width:0.5;" x1="784.5" x2="833.5" y1="314" y2="314"/></g><!--link Repositories to Repositories--><g id="link_Repositories_Repositories"><path codeLine="58" d="M241.27,144.46 C261.75,147.13 276,153.81 276,164.5 C276,175.19 267.6997,181.0943 247.2197,183.7643 " fill="none" id="Repositories-to-Repositories" style="stroke:#181818;stroke-width:1.0;"/><polygon fill="#181818" points="241.27,184.54,250.7116,187.3429,246.228,183.8936,249.6774,179.4101,241.27,184.54" style="stroke:#181818;stroke-width:1.0;"/><text fill="#000000" font-family="sans-serif" font-size="13" lengthAdjust="spacing" textLength="49" x="282" y="170.0283">instance</text></g><!--link ApplicationSession to ApplicationSession--><g id="link_ApplicationSession_ApplicationSession"><path codeLine="59" d="M597.66,279.43 C617.5,280.53 632.5,286.72 632.5,298 C632.5,309.28 623.4908,315.1378 603.6508,316.2378 " fill="none" id="ApplicationSession-to-ApplicationSession" style="stroke:#181818;stroke-width:1.0;"/><polygon fill="#181818" points="597.66,316.57,606.8676,320.0656,602.6523,316.2932,606.4248,312.0779,597.66,316.57" style="stroke:#181818;stroke-width:1.0;"/><text fill="#000000" font-family="sans-serif" font-size="13" lengthAdjust="spacing" textLength="49" x="638.5" y="303.5283">instance</text></g><!--link CreateJobUI to CreateJobController--><g id="link_CreateJobUI_CreateJobController"><path codeLine="61" d="M360.93,49.5 C372.39,49.5 377.86,49.5 389.32,49.5 " fill="none" id="CreateJobUI-to-CreateJobController" style="stroke:#181818;stroke-width:1.0;stroke-dasharray:7.0,7.0;"/><polygon fill="#181818" points="395.32,49.5,386.32,45.5,390.32,49.5,386.32,53.5,395.32,49.5" style="stroke:#181818;stroke-width:1.0;"/></g><!--link CreateJobController to Repositories--><g id="link_CreateJobController_Repositories"><path codeLine="63" d="M395.42,87.07 C389.54,88.74 383.71,90.39 378,92 C333.37,104.63 290.0858,116.8251 247.0758,128.9251 " fill="none" id="CreateJobController-to-Repositories" style="stroke:#181818;stroke-width:1.0;stroke-dasharray:7.0,7.0;"/><polygon fill="#181818" points="241.3,130.55,251.0469,131.9632,246.1132,129.1959,248.8804,124.2621,241.3,130.55" style="stroke:#181818;stroke-width:1.0;"/><text fill="#000000" font-family="sans-serif" font-size="13" lengthAdjust="spacing" textLength="67" x="250.3" y="104.8883">repositories</text></g><!--link Repositories to JobRepository--><g id="link_Repositories_JobRepository"><path codeLine="65" d="M137.29,207.11 C140.32,216.59 141.7642,221.1345 144.9842,231.2145 " fill="none" id="Repositories-to-JobRepository" style="stroke:#181818;stroke-width:1.0;"/><polygon fill="#181818" points="146.81,236.93,147.8816,227.1396,145.2885,232.1671,140.261,229.574,146.81,236.93" style="stroke:#181818;stroke-width:1.0;"/><text fill="#000000" font-family="sans-serif" font-size="13" lengthAdjust="spacing" textLength="7" x="138.2033" y="229.3095">1</text></g><!--link CreateJobController to job--><g id="link_CreateJobController_job"><path codeLine="67" d="M652.77,66.76 C690.17,77.18 728.35,94.22 756,122 C797.54,163.74 806.4032,230.8878 808.3032,267.9978 " fill="none" id="CreateJobController-to-job" style="stroke:#181818;stroke-width:1.0;stroke-dasharray:7.0,7.0;"/><polygon fill="#181818" points="808.61,273.99,812.1446,264.7972,808.3543,268.9965,804.155,265.2063,808.61,273.99" style="stroke:#181818;stroke-width:1.0;"/><text fill="#000000" font-family="sans-serif" font-size="13" lengthAdjust="spacing" textLength="17" x="799" y="170.0283">job</text></g><!--link CreateJobController to JobRepository--><g id="link_CreateJobController_JobRepository"><path codeLine="68" d="M395.15,90.44 C379.65,99.08 365.06,109.49 353,122 C324.97,151.05 347.08,176.19 321,207 C309.94,220.06 301.3718,228.1958 287.0518,238.3658 " fill="none" id="CreateJobController-to-JobRepository" style="stroke:#181818;stroke-width:1.0;stroke-dasharray:7.0,7.0;"/><polygon fill="#181818" points="282.16,241.84,291.8139,239.89,286.2365,238.9449,287.1817,233.3675,282.16,241.84" style="stroke:#181818;stroke-width:1.0;"/><text fill="#000000" font-family="sans-serif" font-size="13" lengthAdjust="spacing" textLength="82" x="354" y="170.0283">JobRepository</text></g><!--link JobRepository to Job--><g id="link_JobRepository_Job"><path codeLine="71" d="M198.97,359.1 C213.14,384.95 226.4751,409.2591 239.2851,432.6191 " fill="none" id="JobRepository-to-Job" style="stroke:#181818;stroke-width:1.0;"/><polygon fill="#181818" points="242.17,437.88,241.3499,428.0653,239.7659,433.4959,234.3353,431.9119,242.17,437.88" style="stroke:#181818;stroke-width:1.0;"/><text fill="#000000" font-family="sans-serif" font-size="13" lengthAdjust="spacing" textLength="20" x="226" y="404.0283">Job</text></g><!--link ApplicationSession to UserSession--><g id="link_ApplicationSession_UserSession"><path codeLine="73" d="M552.38,340.86 C575.81,373.15 604.2371,412.3031 625.7871,442.0131 " fill="none" id="ApplicationSession-to-UserSession" style="stroke:#181818;stroke-width:1.0;"/><polygon fill="#181818" points="629.31,446.87,627.2636,437.2361,626.3742,442.8226,620.7877,441.9333,629.31,446.87" style="stroke:#181818;stroke-width:1.0;"/><text fill="#000000" font-family="sans-serif" font-size="13" lengthAdjust="spacing" textLength="72" x="600" y="404.0283">userSession</text><text fill="#000000" font-family="sans-serif" font-size="13" lengthAdjust="spacing" textLength="7" x="616.957" y="435.6699">1</text></g><!--link CreateJobController to Employee--><g id="link_CreateJobController_Employee"><path codeLine="75" d="M494.32,92.29 C488.18,101.82 482.05,112.07 477,122 C458.69,157.97 465.98,172.51 445,207 C435.61,222.45 427.3976,233.2137 415.3076,246.6237 " fill="none" id="CreateJobController-to-Employee" style="stroke:#181818;stroke-width:1.0;stroke-dasharray:7.0,7.0;"/><polygon fill="#181818" points="411.29,251.08,420.2873,247.074,414.638,247.3664,414.3456,241.7171,411.29,251.08" style="stroke:#181818;stroke-width:1.0;"/><text fill="#000000" font-family="sans-serif" font-size="13" lengthAdjust="spacing" textLength="56" x="478" y="170.0283">employee</text><text fill="#000000" font-family="sans-serif" font-size="13" lengthAdjust="spacing" textLength="7" x="419.0672" y="239.6073">1</text></g><!--link CreateJobController to ApplicationSession--><g id="link_CreateJobController_ApplicationSession"><path codeLine="76" d="M537,92.1 C539.49,101.82 541.72,112.19 543,122 C547.89,159.46 547.32,169.47 543,207 C541.17,222.94 538.9943,234.334 535.2843,249.404 " fill="none" id="CreateJobController-to-ApplicationSession" style="stroke:#181818;stroke-width:1.0;stroke-dasharray:7.0,7.0;"/><polygon fill="#181818" points="533.85,255.23,539.8855,247.4471,535.0452,250.375,532.1174,245.5347,533.85,255.23" style="stroke:#181818;stroke-width:1.0;"/></g><!--link CreateJobController to UserSession--><g id="link_CreateJobController_UserSession"><path codeLine="77" d="M579.64,92.22 C619.92,126.16 671.13,177.97 694,237 C721.68,308.47 692.8258,393.4567 671.6458,441.1367 " fill="none" id="CreateJobController-to-UserSession" style="stroke:#181818;stroke-width:1.0;stroke-dasharray:7.0,7.0;"/><polygon fill="#181818" points="669.21,446.62,676.5192,440.0188,671.2398,442.0505,669.2081,436.7711,669.21,446.62" style="stroke:#181818;stroke-width:1.0;"/></g><!--link Employee to Job--><g id="link_Employee_Job"><path codeLine="79" d="M331.03,359.1 C316.86,384.95 303.5249,409.2591 290.7149,432.6191 " fill="none" id="Employee-to-Job" style="stroke:#181818;stroke-width:1.0;"/><polygon fill="#181818" points="287.83,437.88,295.6647,431.9119,290.2341,433.4959,288.6501,428.0653,287.83,437.88" style="stroke:#181818;stroke-width:1.0;"/><text fill="#000000" font-family="sans-serif" font-size="13" lengthAdjust="spacing" textLength="59" x="315" y="404.0283">createdBy</text></g><!--SRC=[TLJ1RkCW4Btp5QDUacYLg7krLf7Qg8TKKG-D-W44JnqQp5X0ilAkzjyN76BZ1li4yzwyUJC6PlOaTSCDhw4cJU9eg4PmveniG1ekJhp2lMiLWa7XkAvKIh17Nj9lgIluvCgcY98QNTiWDAJQiCbXP1on112AM_lad967iyEj8BsNVn0U6Pif_7JW28oiZWvA6Tn8qenrEV3KD4eA7a9xj3OWVnduxmTOvyC2AdHRxTTQu7mH8H_Rd8r1xMAIH_xT93yickzQFY64NsekLSfzgHj5BI9SYKlGlCQun42EwuQix6p7xP7yO7gLLphq0bzqU0iQiJ0lIu_EVRG8jCKewHqxNJBjBNidhVlbaNNGkMbSI9Q9K90lOE-7hQj5IZ5OqmK3wpNF2Zxz9B8wlQ-DGUw2oiVMDzM7UwyIRTBhq08RYWp1M6u8p7ELDgIT8QNGmEs7PR2ftj_xjdDDfRvXkHxr0GN8UBJO_K4Cx4mqoM7fh5RhdEc4atIvklDXakszwOUV3-EvJiYkkdFZvSBfcMACVr3nNNW6EwnGbvoDYSjbbtfDODbvHQV91VJiSt8T9ps5jFuk5lxgNPUJ_CopCKLDdmFMrnYw4LrU-UnRP_y1]--></g></svg>