<?xml version="1.0" encoding="us-ascii" standalone="no"?><svg xmlns="http://www.w3.org/2000/svg" xmlns:xlink="http://www.w3.org/1999/xlink" contentStyleType="text/css" height="590px" preserveAspectRatio="none" style="width:501px;height:590px;background:#FFFFFF;" version="1.1" viewBox="0 0 501 590" width="501px" zoomAndPan="magnify"><defs/><g><!--class CreateJobController--><g id="elem_CreateJobController"><rect codeLine="8" fill="#F1F1F1" height="103.8633" id="CreateJobController" rx="2.5" ry="2.5" style="stroke:#181818;stroke-width:0.5;" width="257" x="112.5" y="152"/><ellipse cx="173.25" cy="168" fill="#ADD1B2" rx="11" ry="11" style="stroke:#181818;stroke-width:1.0;"/><path d="M176.0156,163.875 Q176.1719,163.6563 176.3594,163.5469 Q176.5469,163.4375 176.7656,163.4375 Q177.1406,163.4375 177.375,163.7031 Q177.6094,163.9531 177.6094,164.5625 L177.6094,166.0156 Q177.6094,166.625 177.375,166.8906 Q177.1406,167.1563 176.7656,167.1563 Q176.4219,167.1563 176.2188,166.9531 Q176.0156,166.7656 175.9063,166.25 Q175.8594,165.8906 175.6719,165.7031 Q175.3438,165.3281 174.7344,165.1094 Q174.125,164.8906 173.5,164.8906 Q172.7344,164.8906 172.0938,165.2188 Q171.4688,165.5469 170.9688,166.2969 Q170.4844,167.0469 170.4844,168.0781 L170.4844,169.1719 Q170.4844,170.4063 171.375,171.2344 Q172.2656,172.0469 173.8594,172.0469 Q174.7969,172.0469 175.4531,171.7969 Q175.8438,171.6406 176.2656,171.2031 Q176.5313,170.9375 176.6719,170.8594 Q176.8281,170.7813 177.0313,170.7813 Q177.3594,170.7813 177.6094,171.0469 Q177.875,171.2969 177.875,171.6406 Q177.875,171.9844 177.5313,172.3906 Q177.0313,172.9688 176.2344,173.2969 Q175.1563,173.75 173.8594,173.75 Q172.3438,173.75 171.1406,173.125 Q170.1563,172.625 169.4688,171.5625 Q168.7813,170.4844 168.7813,169.2031 L168.7813,168.0469 Q168.7813,166.7188 169.3906,165.5781 Q170.0156,164.4219 171.1094,163.8125 Q172.2031,163.1875 173.4375,163.1875 Q174.1719,163.1875 174.8125,163.3594 Q175.4688,163.5156 176.0156,163.875 Z " fill="#000000"/><text fill="#000000" font-family="sans-serif" font-size="14" lengthAdjust="spacing" textLength="127" x="193.75" y="173.7969">CreateJobController</text><line style="stroke:#181818;stroke-width:0.5;" x1="113.5" x2="368.5" y1="184" y2="184"/><line style="stroke:#181818;stroke-width:0.5;" x1="113.5" x2="368.5" y1="192" y2="192"/><ellipse cx="123.5" cy="206.8105" fill="#84BE84" rx="3" ry="3" style="stroke:#038048;stroke-width:1.0;"/><text fill="#000000" font-family="sans-serif" font-size="14" lengthAdjust="spacing" textLength="137" x="132.5" y="211.1074">CreateJobController()</text><ellipse cx="123.5" cy="225.4316" fill="#84BE84" rx="3" ry="3" style="stroke:#038048;stroke-width:1.0;"/><text fill="#000000" font-family="sans-serif" font-size="14" lengthAdjust="spacing" textLength="231" x="132.5" y="229.7285">createJob(jobName: String): boolean</text><ellipse cx="123.5" cy="244.0527" fill="#84BE84" rx="3" ry="3" style="stroke:#038048;stroke-width:1.0;"/><text fill="#000000" font-family="sans-serif" font-size="14" lengthAdjust="spacing" textLength="142" x="132.5" y="248.3496">getJobList(): List&lt;Job&gt;</text></g><!--class Job--><g id="elem_Job"><rect codeLine="14" fill="#F1F1F1" height="103.8633" id="Job" rx="2.5" ry="2.5" style="stroke:#181818;stroke-width:0.5;" width="159" x="31.5" y="480"/><ellipse cx="95.75" cy="496" fill="#ADD1B2" rx="11" ry="11" style="stroke:#181818;stroke-width:1.0;"/><path d="M98.5156,491.875 Q98.6719,491.6563 98.8594,491.5469 Q99.0469,491.4375 99.2656,491.4375 Q99.6406,491.4375 99.875,491.7031 Q100.1094,491.9531 100.1094,492.5625 L100.1094,494.0156 Q100.1094,494.625 99.875,494.8906 Q99.6406,495.1563 99.2656,495.1563 Q98.9219,495.1563 98.7188,494.9531 Q98.5156,494.7656 98.4063,494.25 Q98.3594,493.8906 98.1719,493.7031 Q97.8438,493.3281 97.2344,493.1094 Q96.625,492.8906 96,492.8906 Q95.2344,492.8906 94.5938,493.2188 Q93.9688,493.5469 93.4688,494.2969 Q92.9844,495.0469 92.9844,496.0781 L92.9844,497.1719 Q92.9844,498.4063 93.875,499.2344 Q94.7656,500.0469 96.3594,500.0469 Q97.2969,500.0469 97.9531,499.7969 Q98.3438,499.6406 98.7656,499.2031 Q99.0313,498.9375 99.1719,498.8594 Q99.3281,498.7813 99.5313,498.7813 Q99.8594,498.7813 100.1094,499.0469 Q100.375,499.2969 100.375,499.6406 Q100.375,499.9844 100.0313,500.3906 Q99.5313,500.9688 98.7344,501.2969 Q97.6563,501.75 96.3594,501.75 Q94.8438,501.75 93.6406,501.125 Q92.6563,500.625 91.9688,499.5625 Q91.2813,498.4844 91.2813,497.2031 L91.2813,496.0469 Q91.2813,494.7188 91.8906,493.5781 Q92.5156,492.4219 93.6094,491.8125 Q94.7031,491.1875 95.9375,491.1875 Q96.6719,491.1875 97.3125,491.3594 Q97.9688,491.5156 98.5156,491.875 Z " fill="#000000"/><text fill="#000000" font-family="sans-serif" font-size="14" lengthAdjust="spacing" textLength="22" x="116.25" y="501.7969">Job</text><line style="stroke:#181818;stroke-width:0.5;" x1="32.5" x2="189.5" y1="512" y2="512"/><rect fill="none" height="6" style="stroke:#C82930;stroke-width:1.0;" width="6" x="39.5" y="523.8105"/><text fill="#000000" font-family="sans-serif" font-size="14" lengthAdjust="spacing" textLength="100" x="51.5" y="531.1074">jobName: String</text><line style="stroke:#181818;stroke-width:0.5;" x1="32.5" x2="189.5" y1="538.6211" y2="538.6211"/><ellipse cx="42.5" cy="553.4316" fill="#84BE84" rx="3" ry="3" style="stroke:#038048;stroke-width:1.0;"/><text fill="#000000" font-family="sans-serif" font-size="14" lengthAdjust="spacing" textLength="132" x="51.5" y="557.7285">Job(jobName: String)</text><ellipse cx="42.5" cy="572.0527" fill="#84BE84" rx="3" ry="3" style="stroke:#038048;stroke-width:1.0;"/><text fill="#000000" font-family="sans-serif" font-size="14" lengthAdjust="spacing" textLength="133" x="51.5" y="576.3496">getJobName(): String</text></g><!--class JobRepository--><g id="elem_JobRepository"><rect codeLine="20" fill="#F1F1F1" height="103.8633" id="JobRepository" rx="2.5" ry="2.5" style="stroke:#181818;stroke-width:0.5;" width="208" x="7" y="316"/><ellipse cx="61.75" cy="332" fill="#ADD1B2" rx="11" ry="11" style="stroke:#181818;stroke-width:1.0;"/><path d="M64.5156,327.875 Q64.6719,327.6563 64.8594,327.5469 Q65.0469,327.4375 65.2656,327.4375 Q65.6406,327.4375 65.875,327.7031 Q66.1094,327.9531 66.1094,328.5625 L66.1094,330.0156 Q66.1094,330.625 65.875,330.8906 Q65.6406,331.1563 65.2656,331.1563 Q64.9219,331.1563 64.7188,330.9531 Q64.5156,330.7656 64.4063,330.25 Q64.3594,329.8906 64.1719,329.7031 Q63.8438,329.3281 63.2344,329.1094 Q62.625,328.8906 62,328.8906 Q61.2344,328.8906 60.5938,329.2188 Q59.9688,329.5469 59.4688,330.2969 Q58.9844,331.0469 58.9844,332.0781 L58.9844,333.1719 Q58.9844,334.4063 59.875,335.2344 Q60.7656,336.0469 62.3594,336.0469 Q63.2969,336.0469 63.9531,335.7969 Q64.3438,335.6406 64.7656,335.2031 Q65.0313,334.9375 65.1719,334.8594 Q65.3281,334.7813 65.5313,334.7813 Q65.8594,334.7813 66.1094,335.0469 Q66.375,335.2969 66.375,335.6406 Q66.375,335.9844 66.0313,336.3906 Q65.5313,336.9688 64.7344,337.2969 Q63.6563,337.75 62.3594,337.75 Q60.8438,337.75 59.6406,337.125 Q58.6563,336.625 57.9688,335.5625 Q57.2813,334.4844 57.2813,333.2031 L57.2813,332.0469 Q57.2813,330.7188 57.8906,329.5781 Q58.5156,328.4219 59.6094,327.8125 Q60.7031,327.1875 61.9375,327.1875 Q62.6719,327.1875 63.3125,327.3594 Q63.9688,327.5156 64.5156,327.875 Z " fill="#000000"/><text fill="#000000" font-family="sans-serif" font-size="14" lengthAdjust="spacing" textLength="90" x="82.25" y="337.7969">JobRepository</text><line style="stroke:#181818;stroke-width:0.5;" x1="8" x2="214" y1="348" y2="348"/><rect fill="none" height="6" style="stroke:#C82930;stroke-width:1.0;" width="6" x="15" y="359.8105"/><text fill="#000000" font-family="sans-serif" font-size="14" lengthAdjust="spacing" textLength="109" x="27" y="367.1074">jobList: List&lt;Job&gt;</text><line style="stroke:#181818;stroke-width:0.5;" x1="8" x2="214" y1="374.6211" y2="374.6211"/><ellipse cx="18" cy="389.4316" fill="#84BE84" rx="3" ry="3" style="stroke:#038048;stroke-width:1.0;"/><text fill="#000000" font-family="sans-serif" font-size="14" lengthAdjust="spacing" textLength="182" x="27" y="393.7285">add(job: Job): Optional&lt;Job&gt;</text><ellipse cx="18" cy="408.0527" fill="#84BE84" rx="3" ry="3" style="stroke:#038048;stroke-width:1.0;"/><text fill="#000000" font-family="sans-serif" font-size="14" lengthAdjust="spacing" textLength="142" x="27" y="412.3496">getJobList(): List&lt;Job&gt;</text></g><!--class CreateJobUI--><g id="elem_CreateJobUI"><rect codeLine="26" fill="#F1F1F1" height="85.2422" id="CreateJobUI" rx="2.5" ry="2.5" style="stroke:#181818;stroke-width:0.5;" width="113" x="184.5" y="7"/><ellipse cx="201.3" cy="23" fill="#ADD1B2" rx="11" ry="11" style="stroke:#181818;stroke-width:1.0;"/><path d="M204.0656,18.875 Q204.2219,18.6563 204.4094,18.5469 Q204.5969,18.4375 204.8156,18.4375 Q205.1906,18.4375 205.425,18.7031 Q205.6594,18.9531 205.6594,19.5625 L205.6594,21.0156 Q205.6594,21.625 205.425,21.8906 Q205.1906,22.1563 204.8156,22.1563 Q204.4719,22.1563 204.2688,21.9531 Q204.0656,21.7656 203.9563,21.25 Q203.9094,20.8906 203.7219,20.7031 Q203.3938,20.3281 202.7844,20.1094 Q202.175,19.8906 201.55,19.8906 Q200.7844,19.8906 200.1438,20.2188 Q199.5188,20.5469 199.0188,21.2969 Q198.5344,22.0469 198.5344,23.0781 L198.5344,24.1719 Q198.5344,25.4063 199.425,26.2344 Q200.3156,27.0469 201.9094,27.0469 Q202.8469,27.0469 203.5031,26.7969 Q203.8938,26.6406 204.3156,26.2031 Q204.5813,25.9375 204.7219,25.8594 Q204.8781,25.7813 205.0813,25.7813 Q205.4094,25.7813 205.6594,26.0469 Q205.925,26.2969 205.925,26.6406 Q205.925,26.9844 205.5813,27.3906 Q205.0813,27.9688 204.2844,28.2969 Q203.2063,28.75 201.9094,28.75 Q200.3938,28.75 199.1906,28.125 Q198.2063,27.625 197.5188,26.5625 Q196.8313,25.4844 196.8313,24.2031 L196.8313,23.0469 Q196.8313,21.7188 197.4406,20.5781 Q198.0656,19.4219 199.1594,18.8125 Q200.2531,18.1875 201.4875,18.1875 Q202.2219,18.1875 202.8625,18.3594 Q203.5188,18.5156 204.0656,18.875 Z " fill="#000000"/><text fill="#000000" font-family="sans-serif" font-size="14" lengthAdjust="spacing" textLength="77" x="215.7" y="28.7969">CreateJobUI</text><line style="stroke:#181818;stroke-width:0.5;" x1="185.5" x2="296.5" y1="39" y2="39"/><line style="stroke:#181818;stroke-width:0.5;" x1="185.5" x2="296.5" y1="47" y2="47"/><ellipse cx="195.5" cy="61.8105" fill="#84BE84" rx="3" ry="3" style="stroke:#038048;stroke-width:1.0;"/><text fill="#000000" font-family="sans-serif" font-size="14" lengthAdjust="spacing" textLength="87" x="204.5" y="66.1074">CreateJobUI()</text><ellipse cx="195.5" cy="80.4316" fill="#84BE84" rx="3" ry="3" style="stroke:#038048;stroke-width:1.0;"/><text fill="#000000" font-family="sans-serif" font-size="14" lengthAdjust="spacing" textLength="65" x="204.5" y="84.7285">run(): void</text></g><!--class Repositories--><g id="elem_Repositories"><rect codeLine="31" fill="#F1F1F1" height="66.6211" id="Repositories" rx="2.5" ry="2.5" style="stroke:#181818;stroke-width:0.5;" width="244" x="250" y="334.5"/><ellipse cx="328.25" cy="350.5" fill="#ADD1B2" rx="11" ry="11" style="stroke:#181818;stroke-width:1.0;"/><path d="M331.0156,346.375 Q331.1719,346.1563 331.3594,346.0469 Q331.5469,345.9375 331.7656,345.9375 Q332.1406,345.9375 332.375,346.2031 Q332.6094,346.4531 332.6094,347.0625 L332.6094,348.5156 Q332.6094,349.125 332.375,349.3906 Q332.1406,349.6563 331.7656,349.6563 Q331.4219,349.6563 331.2188,349.4531 Q331.0156,349.2656 330.9063,348.75 Q330.8594,348.3906 330.6719,348.2031 Q330.3438,347.8281 329.7344,347.6094 Q329.125,347.3906 328.5,347.3906 Q327.7344,347.3906 327.0938,347.7188 Q326.4688,348.0469 325.9688,348.7969 Q325.4844,349.5469 325.4844,350.5781 L325.4844,351.6719 Q325.4844,352.9063 326.375,353.7344 Q327.2656,354.5469 328.8594,354.5469 Q329.7969,354.5469 330.4531,354.2969 Q330.8438,354.1406 331.2656,353.7031 Q331.5313,353.4375 331.6719,353.3594 Q331.8281,353.2813 332.0313,353.2813 Q332.3594,353.2813 332.6094,353.5469 Q332.875,353.7969 332.875,354.1406 Q332.875,354.4844 332.5313,354.8906 Q332.0313,355.4688 331.2344,355.7969 Q330.1563,356.25 328.8594,356.25 Q327.3438,356.25 326.1406,355.625 Q325.1563,355.125 324.4688,354.0625 Q323.7813,352.9844 323.7813,351.7031 L323.7813,350.5469 Q323.7813,349.2188 324.3906,348.0781 Q325.0156,346.9219 326.1094,346.3125 Q327.2031,345.6875 328.4375,345.6875 Q329.1719,345.6875 329.8125,345.8594 Q330.4688,346.0156 331.0156,346.375 Z " fill="#000000"/><text fill="#000000" font-family="sans-serif" font-size="14" lengthAdjust="spacing" textLength="79" x="348.75" y="356.2969">Repositories</text><line style="stroke:#181818;stroke-width:0.5;" x1="251" x2="493" y1="366.5" y2="366.5"/><line style="stroke:#181818;stroke-width:0.5;" x1="251" x2="493" y1="374.5" y2="374.5"/><ellipse cx="261" cy="389.3105" fill="#84BE84" rx="3" ry="3" style="stroke:#038048;stroke-width:1.0;"/><text fill="#000000" font-family="sans-serif" font-size="14" lengthAdjust="spacing" textLength="218" x="270" y="393.6074">getJobRepository(): JobRepository</text></g><!--link CreateJobUI to CreateJobController--><g id="link_CreateJobUI_CreateJobController"><path codeLine="35" d="M241,92.13 C241,110.62 241,126.44 241,145.88 " fill="none" id="CreateJobUI-to-CreateJobController" style="stroke:#181818;stroke-width:1.0;"/><polygon fill="#181818" points="241,151.88,245,142.88,241,146.88,237,142.88,241,151.88" style="stroke:#181818;stroke-width:1.0;"/></g><!--link CreateJobController to JobRepository--><g id="link_CreateJobController_JobRepository"><path codeLine="36" d="M163.75,256.34 C163.75,275.37 163.75,290.86 163.75,309.87 " fill="none" id="CreateJobController-to-JobRepository" style="stroke:#181818;stroke-width:1.0;"/><polygon fill="#181818" points="163.75,315.87,167.75,306.87,163.75,310.87,159.75,306.87,163.75,315.87" style="stroke:#181818;stroke-width:1.0;"/></g><!--link CreateJobController to Repositories--><g id="link_CreateJobController_Repositories"><path codeLine="37" d="M309.75,256.34 C309.75,281.84 309.75,305.76 309.75,328.21 " fill="none" id="CreateJobController-to-Repositories" style="stroke:#181818;stroke-width:1.0;"/><polygon fill="#181818" points="309.75,334.21,313.75,325.21,309.75,329.21,305.75,325.21,309.75,334.21" style="stroke:#181818;stroke-width:1.0;"/></g><!--link JobRepository to Job--><g id="link_JobRepository_Job"><path codeLine="38" d="M111,420.34 C111,439.37 111,454.86 111,473.87 " fill="none" id="JobRepository-to-Job" style="stroke:#181818;stroke-width:1.0;"/><polygon fill="#181818" points="111,479.87,115,470.87,111,474.87,107,470.87,111,479.87" style="stroke:#181818;stroke-width:1.0;"/></g><!--SRC=[XL5BJiCm4Dtx5DwH2kK24Ugcgo949QeUO98CYQdZiUmfA4BS7Ljr4mU2o2OQlw_7T_wiZ0K7Wnp8KDCx6b2okw2O4GlD6JeyygXHEcmOJATpWk-XfGzbElaAskU8LWPvj2WjwJ4EQnWvxac8HeFtSkSG61-ftf5XHrgZavz2Xkz-3Iis2MjkMF56zJCCMCaZkz1fKycQI2EOnEoG0-r9UIu25lyFOTwAhrk5CAN8KlumInPhCGltY4JtfCgjNz2ILqnkp4DYZRpCrGpQDkPKKHVS3fOL6T0vvT_RJ4ixxNylyhIV5kWk9ZgyasfdyLHMeP_KryZv7b6sE8ZwFBOijsjl9zRUEdANPd-nycvYkTXa8hu1]--></g></svg>