<?xml version="1.0" encoding="us-ascii" standalone="no"?><svg xmlns="http://www.w3.org/2000/svg" xmlns:xlink="http://www.w3.org/1999/xlink" contentStyleType="text/css" height="875px" preserveAspectRatio="none" style="width:2828px;height:875px;background:#FFFFFF;" version="1.1" viewBox="0 0 2828 875" width="2828px" zoomAndPan="magnify"><defs/><g><!--class ApplicationSession--><g id="elem_ApplicationSession"><rect codeLine="12" fill="#F1F1F1" height="85.2422" id="ApplicationSession" rx="2.5" ry="2.5" style="stroke:#181818;stroke-width:0.5;" width="151" x="182" y="432.5"/><ellipse cx="197" cy="448.5" fill="#ADD1B2" rx="11" ry="11" style="stroke:#181818;stroke-width:1.0;"/><path d="M199.7656,444.375 Q199.9219,444.1563 200.1094,444.0469 Q200.2969,443.9375 200.5156,443.9375 Q200.8906,443.9375 201.125,444.2031 Q201.3594,444.4531 201.3594,445.0625 L201.3594,446.5156 Q201.3594,447.125 201.125,447.3906 Q200.8906,447.6563 200.5156,447.6563 Q200.1719,447.6563 199.9688,447.4531 Q199.7656,447.2656 199.6563,446.75 Q199.6094,446.3906 199.4219,446.2031 Q199.0938,445.8281 198.4844,445.6094 Q197.875,445.3906 197.25,445.3906 Q196.4844,445.3906 195.8438,445.7188 Q195.2188,446.0469 194.7188,446.7969 Q194.2344,447.5469 194.2344,448.5781 L194.2344,449.6719 Q194.2344,450.9063 195.125,451.7344 Q196.0156,452.5469 197.6094,452.5469 Q198.5469,452.5469 199.2031,452.2969 Q199.5938,452.1406 200.0156,451.7031 Q200.2813,451.4375 200.4219,451.3594 Q200.5781,451.2813 200.7813,451.2813 Q201.1094,451.2813 201.3594,451.5469 Q201.625,451.7969 201.625,452.1406 Q201.625,452.4844 201.2813,452.8906 Q200.7813,453.4688 199.9844,453.7969 Q198.9063,454.25 197.6094,454.25 Q196.0938,454.25 194.8906,453.625 Q193.9063,453.125 193.2188,452.0625 Q192.5313,450.9844 192.5313,449.7031 L192.5313,448.5469 Q192.5313,447.2188 193.1406,446.0781 Q193.7656,444.9219 194.8594,444.3125 Q195.9531,443.6875 197.1875,443.6875 Q197.9219,443.6875 198.5625,443.8594 Q199.2188,444.0156 199.7656,444.375 Z " fill="#000000"/><text fill="#000000" font-family="sans-serif" font-size="14" lengthAdjust="spacing" textLength="119" x="211" y="454.2969">ApplicationSession</text><line style="stroke:#181818;stroke-width:0.5;" x1="183" x2="332" y1="464.5" y2="464.5"/><line style="stroke:#181818;stroke-width:0.5;" x1="183" x2="332" y1="472.5" y2="472.5"/><text fill="#000000" font-family="sans-serif" font-size="14" lengthAdjust="spacing" textLength="128" x="188" y="491.6074">+static getInstance()</text><text fill="#000000" font-family="sans-serif" font-size="14" lengthAdjust="spacing" textLength="136" x="188" y="510.2285">+getCurrentSession()</text></g><!--class UserSession--><g id="elem_UserSession"><rect codeLine="18" fill="#F1F1F1" height="66.6211" id="UserSession" rx="2.5" ry="2.5" style="stroke:#181818;stroke-width:0.5;" width="113" x="119" y="792"/><ellipse cx="134.9" cy="808" fill="#ADD1B2" rx="11" ry="11" style="stroke:#181818;stroke-width:1.0;"/><path d="M137.6656,803.875 Q137.8219,803.6563 138.0094,803.5469 Q138.1969,803.4375 138.4156,803.4375 Q138.7906,803.4375 139.025,803.7031 Q139.2594,803.9531 139.2594,804.5625 L139.2594,806.0156 Q139.2594,806.625 139.025,806.8906 Q138.7906,807.1563 138.4156,807.1563 Q138.0719,807.1563 137.8688,806.9531 Q137.6656,806.7656 137.5563,806.25 Q137.5094,805.8906 137.3219,805.7031 Q136.9938,805.3281 136.3844,805.1094 Q135.775,804.8906 135.15,804.8906 Q134.3844,804.8906 133.7438,805.2188 Q133.1188,805.5469 132.6188,806.2969 Q132.1344,807.0469 132.1344,808.0781 L132.1344,809.1719 Q132.1344,810.4063 133.025,811.2344 Q133.9156,812.0469 135.5094,812.0469 Q136.4469,812.0469 137.1031,811.7969 Q137.4938,811.6406 137.9156,811.2031 Q138.1813,810.9375 138.3219,810.8594 Q138.4781,810.7813 138.6813,810.7813 Q139.0094,810.7813 139.2594,811.0469 Q139.525,811.2969 139.525,811.6406 Q139.525,811.9844 139.1813,812.3906 Q138.6813,812.9688 137.8844,813.2969 Q136.8063,813.75 135.5094,813.75 Q133.9938,813.75 132.7906,813.125 Q131.8063,812.625 131.1188,811.5625 Q130.4313,810.4844 130.4313,809.2031 L130.4313,808.0469 Q130.4313,806.7188 131.0406,805.5781 Q131.6656,804.4219 132.7594,803.8125 Q133.8531,803.1875 135.0875,803.1875 Q135.8219,803.1875 136.4625,803.3594 Q137.1188,803.5156 137.6656,803.875 Z " fill="#000000"/><text fill="#000000" font-family="sans-serif" font-size="14" lengthAdjust="spacing" textLength="79" x="149.1" y="813.7969">UserSession</text><line style="stroke:#181818;stroke-width:0.5;" x1="120" x2="231" y1="824" y2="824"/><line style="stroke:#181818;stroke-width:0.5;" x1="120" x2="231" y1="832" y2="832"/><text fill="#000000" font-family="sans-serif" font-size="14" lengthAdjust="spacing" textLength="101" x="125" y="851.1074">+getUserEmail()</text></g><!--class Collaborator--><g id="elem_Collaborator"><rect codeLine="23" fill="#F1F1F1" height="457.6641" id="Collaborator" rx="2.5" ry="2.5" style="stroke:#181818;stroke-width:0.5;" width="1164" x="1267.5" y="246"/><ellipse cx="1806.25" cy="262" fill="#ADD1B2" rx="11" ry="11" style="stroke:#181818;stroke-width:1.0;"/><path d="M1809.0156,257.875 Q1809.1719,257.6563 1809.3594,257.5469 Q1809.5469,257.4375 1809.7656,257.4375 Q1810.1406,257.4375 1810.375,257.7031 Q1810.6094,257.9531 1810.6094,258.5625 L1810.6094,260.0156 Q1810.6094,260.625 1810.375,260.8906 Q1810.1406,261.1563 1809.7656,261.1563 Q1809.4219,261.1563 1809.2188,260.9531 Q1809.0156,260.7656 1808.9063,260.25 Q1808.8594,259.8906 1808.6719,259.7031 Q1808.3438,259.3281 1807.7344,259.1094 Q1807.125,258.8906 1806.5,258.8906 Q1805.7344,258.8906 1805.0938,259.2188 Q1804.4688,259.5469 1803.9688,260.2969 Q1803.4844,261.0469 1803.4844,262.0781 L1803.4844,263.1719 Q1803.4844,264.4063 1804.375,265.2344 Q1805.2656,266.0469 1806.8594,266.0469 Q1807.7969,266.0469 1808.4531,265.7969 Q1808.8438,265.6406 1809.2656,265.2031 Q1809.5313,264.9375 1809.6719,264.8594 Q1809.8281,264.7813 1810.0313,264.7813 Q1810.3594,264.7813 1810.6094,265.0469 Q1810.875,265.2969 1810.875,265.6406 Q1810.875,265.9844 1810.5313,266.3906 Q1810.0313,266.9688 1809.2344,267.2969 Q1808.1563,267.75 1806.8594,267.75 Q1805.3438,267.75 1804.1406,267.125 Q1803.1563,266.625 1802.4688,265.5625 Q1801.7813,264.4844 1801.7813,263.2031 L1801.7813,262.0469 Q1801.7813,260.7188 1802.3906,259.5781 Q1803.0156,258.4219 1804.1094,257.8125 Q1805.2031,257.1875 1806.4375,257.1875 Q1807.1719,257.1875 1807.8125,257.3594 Q1808.4688,257.5156 1809.0156,257.875 Z " fill="#000000"/><text fill="#000000" font-family="sans-serif" font-size="14" lengthAdjust="spacing" textLength="78" x="1826.75" y="267.7969">Collaborator</text><line style="stroke:#181818;stroke-width:0.5;" x1="1268.5" x2="2430.5" y1="278" y2="278"/><text fill="#000000" font-family="sans-serif" font-size="14" lengthAdjust="spacing" textLength="85" x="1273.5" y="297.1074">-name: String</text><text fill="#000000" font-family="sans-serif" font-size="14" lengthAdjust="spacing" textLength="158" x="1273.5" y="315.7285">-birthdayDate: LocalDate</text><text fill="#000000" font-family="sans-serif" font-size="14" lengthAdjust="spacing" textLength="170" x="1273.5" y="334.3496">-admissionDate: LocalDate</text><text fill="#000000" font-family="sans-serif" font-size="14" lengthAdjust="spacing" textLength="101" x="1273.5" y="352.9707">-address: String</text><text fill="#000000" font-family="sans-serif" font-size="14" lengthAdjust="spacing" textLength="139" x="1273.5" y="371.5918">-phoneNumber: String</text><text fill="#000000" font-family="sans-serif" font-size="14" lengthAdjust="spacing" textLength="83" x="1273.5" y="390.2129">-email: String</text><text fill="#000000" font-family="sans-serif" font-size="14" lengthAdjust="spacing" textLength="131" x="1273.5" y="408.834">-taxpayerNumber: int</text><text fill="#000000" font-family="sans-serif" font-size="14" lengthAdjust="spacing" textLength="101" x="1273.5" y="427.4551">-BINumber: long</text><text fill="#000000" font-family="sans-serif" font-size="14" lengthAdjust="spacing" textLength="69" x="1273.5" y="446.0762">-job: String</text><line style="stroke:#181818;stroke-width:0.5;" x1="1268.5" x2="2430.5" y1="453.5898" y2="453.5898"/><text fill="#000000" font-family="sans-serif" font-size="14" lengthAdjust="spacing" textLength="1152" x="1273.5" y="472.6973">+Collaborator(name: String, birthdayDate: LocalDate, admissionDate: LocalDate, address: String, phoneNumber: String, email: String, taxpayerNumber: int, BINumber: long, job: String)</text><text fill="#000000" font-family="sans-serif" font-size="14" lengthAdjust="spacing" textLength="176" x="1273.5" y="491.3184">+equals(o: Object): boolean</text><text fill="#000000" font-family="sans-serif" font-size="14" lengthAdjust="spacing" textLength="138" x="1273.5" y="509.9395">+clone(): Collaborator</text><text fill="#000000" font-family="sans-serif" font-size="14" lengthAdjust="spacing" textLength="119" x="1273.5" y="528.5605">+getName(): String</text><text fill="#000000" font-family="sans-serif" font-size="14" lengthAdjust="spacing" textLength="192" x="1273.5" y="547.1816">+getBirthdayDate(): LocalDate</text><text fill="#000000" font-family="sans-serif" font-size="14" lengthAdjust="spacing" textLength="204" x="1273.5" y="565.8027">+getAdmissionDate(): LocalDate</text><text fill="#000000" font-family="sans-serif" font-size="14" lengthAdjust="spacing" textLength="135" x="1273.5" y="584.4238">+getAddress(): String</text><text fill="#000000" font-family="sans-serif" font-size="14" lengthAdjust="spacing" textLength="173" x="1273.5" y="603.0449">+getPhoneNumber(): String</text><text fill="#000000" font-family="sans-serif" font-size="14" lengthAdjust="spacing" textLength="117" x="1273.5" y="621.666">+getEmail(): String</text><text fill="#000000" font-family="sans-serif" font-size="14" lengthAdjust="spacing" textLength="169" x="1273.5" y="640.2871">+getTaxpayerNumber(): int</text><text fill="#000000" font-family="sans-serif" font-size="14" lengthAdjust="spacing" textLength="134" x="1273.5" y="658.9082">+getBINumber(): long</text><text fill="#000000" font-family="sans-serif" font-size="14" lengthAdjust="spacing" textLength="105" x="1273.5" y="677.5293">+getJob(): String</text><text fill="#000000" font-family="sans-serif" font-size="14" lengthAdjust="spacing" textLength="147" x="1273.5" y="696.1504">+addJob(job: Job): void</text></g><!--class Skill--><g id="elem_Skill"><rect codeLine="48" fill="#F1F1F1" height="85.2422" id="Skill" rx="2.5" ry="2.5" style="stroke:#181818;stroke-width:0.5;" width="183" x="1118" y="783"/><ellipse cx="1192.75" cy="799" fill="#ADD1B2" rx="11" ry="11" style="stroke:#181818;stroke-width:1.0;"/><path d="M1195.5156,794.875 Q1195.6719,794.6563 1195.8594,794.5469 Q1196.0469,794.4375 1196.2656,794.4375 Q1196.6406,794.4375 1196.875,794.7031 Q1197.1094,794.9531 1197.1094,795.5625 L1197.1094,797.0156 Q1197.1094,797.625 1196.875,797.8906 Q1196.6406,798.1563 1196.2656,798.1563 Q1195.9219,798.1563 1195.7188,797.9531 Q1195.5156,797.7656 1195.4063,797.25 Q1195.3594,796.8906 1195.1719,796.7031 Q1194.8438,796.3281 1194.2344,796.1094 Q1193.625,795.8906 1193,795.8906 Q1192.2344,795.8906 1191.5938,796.2188 Q1190.9688,796.5469 1190.4688,797.2969 Q1189.9844,798.0469 1189.9844,799.0781 L1189.9844,800.1719 Q1189.9844,801.4063 1190.875,802.2344 Q1191.7656,803.0469 1193.3594,803.0469 Q1194.2969,803.0469 1194.9531,802.7969 Q1195.3438,802.6406 1195.7656,802.2031 Q1196.0313,801.9375 1196.1719,801.8594 Q1196.3281,801.7813 1196.5313,801.7813 Q1196.8594,801.7813 1197.1094,802.0469 Q1197.375,802.2969 1197.375,802.6406 Q1197.375,802.9844 1197.0313,803.3906 Q1196.5313,803.9688 1195.7344,804.2969 Q1194.6563,804.75 1193.3594,804.75 Q1191.8438,804.75 1190.6406,804.125 Q1189.6563,803.625 1188.9688,802.5625 Q1188.2813,801.4844 1188.2813,800.2031 L1188.2813,799.0469 Q1188.2813,797.7188 1188.8906,796.5781 Q1189.5156,795.4219 1190.6094,794.8125 Q1191.7031,794.1875 1192.9375,794.1875 Q1193.6719,794.1875 1194.3125,794.3594 Q1194.9688,794.5156 1195.5156,794.875 Z " fill="#000000"/><text fill="#000000" font-family="sans-serif" font-size="14" lengthAdjust="spacing" textLength="25" x="1213.25" y="804.7969">Skill</text><line style="stroke:#181818;stroke-width:0.5;" x1="1119" x2="1300" y1="815" y2="815"/><text fill="#000000" font-family="sans-serif" font-size="14" lengthAdjust="spacing" textLength="109" x="1124" y="834.1074">-skillName: String</text><line style="stroke:#181818;stroke-width:0.5;" x1="1119" x2="1300" y1="841.6211" y2="841.6211"/><text fill="#000000" font-family="sans-serif" font-size="14" lengthAdjust="spacing" textLength="171" x="1124" y="860.7285">+addSkill(skillName: String)</text></g><!--class SkillRepository--><g id="elem_SkillRepository"><rect codeLine="54" fill="#F1F1F1" height="141.1055" id="SkillRepository" rx="2.5" ry="2.5" style="stroke:#181818;stroke-width:0.5;" width="363" x="543" y="404.5"/><ellipse cx="673.75" cy="420.5" fill="#ADD1B2" rx="11" ry="11" style="stroke:#181818;stroke-width:1.0;"/><path d="M676.5156,416.375 Q676.6719,416.1563 676.8594,416.0469 Q677.0469,415.9375 677.2656,415.9375 Q677.6406,415.9375 677.875,416.2031 Q678.1094,416.4531 678.1094,417.0625 L678.1094,418.5156 Q678.1094,419.125 677.875,419.3906 Q677.6406,419.6563 677.2656,419.6563 Q676.9219,419.6563 676.7188,419.4531 Q676.5156,419.2656 676.4063,418.75 Q676.3594,418.3906 676.1719,418.2031 Q675.8438,417.8281 675.2344,417.6094 Q674.625,417.3906 674,417.3906 Q673.2344,417.3906 672.5938,417.7188 Q671.9688,418.0469 671.4688,418.7969 Q670.9844,419.5469 670.9844,420.5781 L670.9844,421.6719 Q670.9844,422.9063 671.875,423.7344 Q672.7656,424.5469 674.3594,424.5469 Q675.2969,424.5469 675.9531,424.2969 Q676.3438,424.1406 676.7656,423.7031 Q677.0313,423.4375 677.1719,423.3594 Q677.3281,423.2813 677.5313,423.2813 Q677.8594,423.2813 678.1094,423.5469 Q678.375,423.7969 678.375,424.1406 Q678.375,424.4844 678.0313,424.8906 Q677.5313,425.4688 676.7344,425.7969 Q675.6563,426.25 674.3594,426.25 Q672.8438,426.25 671.6406,425.625 Q670.6563,425.125 669.9688,424.0625 Q669.2813,422.9844 669.2813,421.7031 L669.2813,420.5469 Q669.2813,419.2188 669.8906,418.0781 Q670.5156,416.9219 671.6094,416.3125 Q672.7031,415.6875 673.9375,415.6875 Q674.6719,415.6875 675.3125,415.8594 Q675.9688,416.0156 676.5156,416.375 Z " fill="#000000"/><text fill="#000000" font-family="sans-serif" font-size="14" lengthAdjust="spacing" textLength="93" x="694.25" y="426.2969">SkillRepository</text><line style="stroke:#181818;stroke-width:0.5;" x1="544" x2="905" y1="436.5" y2="436.5"/><text fill="#000000" font-family="sans-serif" font-size="14" lengthAdjust="spacing" textLength="102" x="549" y="455.6074">-List&lt;Skill&gt; skills</text><line style="stroke:#181818;stroke-width:0.5;" x1="544" x2="905" y1="463.1211" y2="463.1211"/><text fill="#000000" font-family="sans-serif" font-size="14" lengthAdjust="spacing" textLength="171" x="549" y="482.2285">+addSkill(skillName: String)</text><text fill="#000000" font-family="sans-serif" font-size="14" lengthAdjust="spacing" textLength="194" x="549" y="500.8496">+removeSkill(skillName: String)</text><text fill="#000000" font-family="sans-serif" font-size="14" lengthAdjust="spacing" textLength="351" x="549" y="519.4707">+updateSkill(skillNameOld: String, skillNameNew: String)</text><text fill="#000000" font-family="sans-serif" font-size="14" lengthAdjust="spacing" textLength="200" x="549" y="538.0918">+getSkill(skillName: String): Skill</text></g><!--class AssignSkillUI--><g id="elem_AssignSkillUI"><rect codeLine="63" fill="#F1F1F1" height="48" id="AssignSkillUI" rx="2.5" ry="2.5" style="stroke:#181818;stroke-width:0.5;" width="111" x="7" y="63"/><ellipse cx="22" cy="79" fill="#ADD1B2" rx="11" ry="11" style="stroke:#181818;stroke-width:1.0;"/><path d="M24.7656,74.875 Q24.9219,74.6563 25.1094,74.5469 Q25.2969,74.4375 25.5156,74.4375 Q25.8906,74.4375 26.125,74.7031 Q26.3594,74.9531 26.3594,75.5625 L26.3594,77.0156 Q26.3594,77.625 26.125,77.8906 Q25.8906,78.1563 25.5156,78.1563 Q25.1719,78.1563 24.9688,77.9531 Q24.7656,77.7656 24.6563,77.25 Q24.6094,76.8906 24.4219,76.7031 Q24.0938,76.3281 23.4844,76.1094 Q22.875,75.8906 22.25,75.8906 Q21.4844,75.8906 20.8438,76.2188 Q20.2188,76.5469 19.7188,77.2969 Q19.2344,78.0469 19.2344,79.0781 L19.2344,80.1719 Q19.2344,81.4063 20.125,82.2344 Q21.0156,83.0469 22.6094,83.0469 Q23.5469,83.0469 24.2031,82.7969 Q24.5938,82.6406 25.0156,82.2031 Q25.2813,81.9375 25.4219,81.8594 Q25.5781,81.7813 25.7813,81.7813 Q26.1094,81.7813 26.3594,82.0469 Q26.625,82.2969 26.625,82.6406 Q26.625,82.9844 26.2813,83.3906 Q25.7813,83.9688 24.9844,84.2969 Q23.9063,84.75 22.6094,84.75 Q21.0938,84.75 19.8906,84.125 Q18.9063,83.625 18.2188,82.5625 Q17.5313,81.4844 17.5313,80.2031 L17.5313,79.0469 Q17.5313,77.7188 18.1406,76.5781 Q18.7656,75.4219 19.8594,74.8125 Q20.9531,74.1875 22.1875,74.1875 Q22.9219,74.1875 23.5625,74.3594 Q24.2188,74.5156 24.7656,74.875 Z " fill="#000000"/><text fill="#000000" font-family="sans-serif" font-size="14" lengthAdjust="spacing" textLength="79" x="36" y="84.7969">AssignSkillUI</text><line style="stroke:#181818;stroke-width:0.5;" x1="8" x2="117" y1="95" y2="95"/><line style="stroke:#181818;stroke-width:0.5;" x1="8" x2="117" y1="103" y2="103"/></g><!--class Repositories--><g id="elem_Repositories"><rect codeLine="66" fill="#F1F1F1" height="122.4844" id="Repositories" rx="2.5" ry="2.5" style="stroke:#181818;stroke-width:0.5;" width="350" x="915.5" y="26"/><ellipse cx="1046.75" cy="42" fill="#ADD1B2" rx="11" ry="11" style="stroke:#181818;stroke-width:1.0;"/><path d="M1049.5156,37.875 Q1049.6719,37.6563 1049.8594,37.5469 Q1050.0469,37.4375 1050.2656,37.4375 Q1050.6406,37.4375 1050.875,37.7031 Q1051.1094,37.9531 1051.1094,38.5625 L1051.1094,40.0156 Q1051.1094,40.625 1050.875,40.8906 Q1050.6406,41.1563 1050.2656,41.1563 Q1049.9219,41.1563 1049.7188,40.9531 Q1049.5156,40.7656 1049.4063,40.25 Q1049.3594,39.8906 1049.1719,39.7031 Q1048.8438,39.3281 1048.2344,39.1094 Q1047.625,38.8906 1047,38.8906 Q1046.2344,38.8906 1045.5938,39.2188 Q1044.9688,39.5469 1044.4688,40.2969 Q1043.9844,41.0469 1043.9844,42.0781 L1043.9844,43.1719 Q1043.9844,44.4063 1044.875,45.2344 Q1045.7656,46.0469 1047.3594,46.0469 Q1048.2969,46.0469 1048.9531,45.7969 Q1049.3438,45.6406 1049.7656,45.2031 Q1050.0313,44.9375 1050.1719,44.8594 Q1050.3281,44.7813 1050.5313,44.7813 Q1050.8594,44.7813 1051.1094,45.0469 Q1051.375,45.2969 1051.375,45.6406 Q1051.375,45.9844 1051.0313,46.3906 Q1050.5313,46.9688 1049.7344,47.2969 Q1048.6563,47.75 1047.3594,47.75 Q1045.8438,47.75 1044.6406,47.125 Q1043.6563,46.625 1042.9688,45.5625 Q1042.2813,44.4844 1042.2813,43.2031 L1042.2813,42.0469 Q1042.2813,40.7188 1042.8906,39.5781 Q1043.5156,38.4219 1044.6094,37.8125 Q1045.7031,37.1875 1046.9375,37.1875 Q1047.6719,37.1875 1048.3125,37.3594 Q1048.9688,37.5156 1049.5156,37.875 Z " fill="#000000"/><text fill="#000000" font-family="sans-serif" font-size="14" lengthAdjust="spacing" textLength="79" x="1067.25" y="47.7969">Repositories</text><line style="stroke:#181818;stroke-width:0.5;" x1="916.5" x2="1264.5" y1="58" y2="58"/><text fill="#000000" font-family="sans-serif" font-size="14" lengthAdjust="spacing" textLength="193" x="921.5" y="77.1074">-SkillRepository skillRepository</text><text fill="#000000" font-family="sans-serif" font-size="14" lengthAdjust="spacing" textLength="301" x="921.5" y="95.7285">-CollaboratorRepository CollaboratorRepository</text><line style="stroke:#181818;stroke-width:0.5;" x1="916.5" x2="1264.5" y1="103.2422" y2="103.2422"/><text fill="#000000" font-family="sans-serif" font-size="14" lengthAdjust="spacing" textLength="232" x="921.5" y="122.3496">+getSkillRepository(): SkillRepository</text><text fill="#000000" font-family="sans-serif" font-size="14" lengthAdjust="spacing" textLength="338" x="921.5" y="140.9707">+getCollaboratorRepository(): CollaboratorRepository</text></g><!--class AssignSkillController--><g id="elem_AssignSkillController"><rect codeLine="74" fill="#F1F1F1" height="85.2422" id="AssignSkillController" rx="2.5" ry="2.5" style="stroke:#181818;stroke-width:0.5;" width="659" x="153" y="44.5"/><ellipse cx="413.75" cy="60.5" fill="#ADD1B2" rx="11" ry="11" style="stroke:#181818;stroke-width:1.0;"/><path d="M416.5156,56.375 Q416.6719,56.1563 416.8594,56.0469 Q417.0469,55.9375 417.2656,55.9375 Q417.6406,55.9375 417.875,56.2031 Q418.1094,56.4531 418.1094,57.0625 L418.1094,58.5156 Q418.1094,59.125 417.875,59.3906 Q417.6406,59.6563 417.2656,59.6563 Q416.9219,59.6563 416.7188,59.4531 Q416.5156,59.2656 416.4063,58.75 Q416.3594,58.3906 416.1719,58.2031 Q415.8438,57.8281 415.2344,57.6094 Q414.625,57.3906 414,57.3906 Q413.2344,57.3906 412.5938,57.7188 Q411.9688,58.0469 411.4688,58.7969 Q410.9844,59.5469 410.9844,60.5781 L410.9844,61.6719 Q410.9844,62.9063 411.875,63.7344 Q412.7656,64.5469 414.3594,64.5469 Q415.2969,64.5469 415.9531,64.2969 Q416.3438,64.1406 416.7656,63.7031 Q417.0313,63.4375 417.1719,63.3594 Q417.3281,63.2813 417.5313,63.2813 Q417.8594,63.2813 418.1094,63.5469 Q418.375,63.7969 418.375,64.1406 Q418.375,64.4844 418.0313,64.8906 Q417.5313,65.4688 416.7344,65.7969 Q415.6563,66.25 414.3594,66.25 Q412.8438,66.25 411.6406,65.625 Q410.6563,65.125 409.9688,64.0625 Q409.2813,62.9844 409.2813,61.7031 L409.2813,60.5469 Q409.2813,59.2188 409.8906,58.0781 Q410.5156,56.9219 411.6094,56.3125 Q412.7031,55.6875 413.9375,55.6875 Q414.6719,55.6875 415.3125,55.8594 Q415.9688,56.0156 416.5156,56.375 Z " fill="#000000"/><text fill="#000000" font-family="sans-serif" font-size="14" lengthAdjust="spacing" textLength="129" x="434.25" y="66.2969">AssignSkillController</text><line style="stroke:#181818;stroke-width:0.5;" x1="154" x2="811" y1="76.5" y2="76.5"/><line style="stroke:#181818;stroke-width:0.5;" x1="154" x2="811" y1="84.5" y2="84.5"/><text fill="#000000" font-family="sans-serif" font-size="14" lengthAdjust="spacing" textLength="647" x="159" y="103.6074">+AssignSkillController(CollaboratorRepository: CollaboratorRepository, skillRepository: SkillRepository)</text><text fill="#000000" font-family="sans-serif" font-size="14" lengthAdjust="spacing" textLength="282" x="159" y="122.2285">+assignSkill(CollaboratorId: String, skill: Skill)</text></g><!--class CollaboratorRepository--><g id="elem_CollaboratorRepository"><rect codeLine="79" fill="#F1F1F1" height="159.7266" id="CollaboratorRepository" rx="2.5" ry="2.5" style="stroke:#181818;stroke-width:0.5;" width="369" x="1409" y="7"/><ellipse cx="1516.25" cy="23" fill="#ADD1B2" rx="11" ry="11" style="stroke:#181818;stroke-width:1.0;"/><path d="M1519.0156,18.875 Q1519.1719,18.6563 1519.3594,18.5469 Q1519.5469,18.4375 1519.7656,18.4375 Q1520.1406,18.4375 1520.375,18.7031 Q1520.6094,18.9531 1520.6094,19.5625 L1520.6094,21.0156 Q1520.6094,21.625 1520.375,21.8906 Q1520.1406,22.1563 1519.7656,22.1563 Q1519.4219,22.1563 1519.2188,21.9531 Q1519.0156,21.7656 1518.9063,21.25 Q1518.8594,20.8906 1518.6719,20.7031 Q1518.3438,20.3281 1517.7344,20.1094 Q1517.125,19.8906 1516.5,19.8906 Q1515.7344,19.8906 1515.0938,20.2188 Q1514.4688,20.5469 1513.9688,21.2969 Q1513.4844,22.0469 1513.4844,23.0781 L1513.4844,24.1719 Q1513.4844,25.4063 1514.375,26.2344 Q1515.2656,27.0469 1516.8594,27.0469 Q1517.7969,27.0469 1518.4531,26.7969 Q1518.8438,26.6406 1519.2656,26.2031 Q1519.5313,25.9375 1519.6719,25.8594 Q1519.8281,25.7813 1520.0313,25.7813 Q1520.3594,25.7813 1520.6094,26.0469 Q1520.875,26.2969 1520.875,26.6406 Q1520.875,26.9844 1520.5313,27.3906 Q1520.0313,27.9688 1519.2344,28.2969 Q1518.1563,28.75 1516.8594,28.75 Q1515.3438,28.75 1514.1406,28.125 Q1513.1563,27.625 1512.4688,26.5625 Q1511.7813,25.4844 1511.7813,24.2031 L1511.7813,23.0469 Q1511.7813,21.7188 1512.3906,20.5781 Q1513.0156,19.4219 1514.1094,18.8125 Q1515.2031,18.1875 1516.4375,18.1875 Q1517.1719,18.1875 1517.8125,18.3594 Q1518.4688,18.5156 1519.0156,18.875 Z " fill="#000000"/><text fill="#000000" font-family="sans-serif" font-size="14" lengthAdjust="spacing" textLength="146" x="1536.75" y="28.7969">CollaboratorRepository</text><line style="stroke:#181818;stroke-width:0.5;" x1="1410" x2="1777" y1="39" y2="39"/><text fill="#000000" font-family="sans-serif" font-size="14" lengthAdjust="spacing" textLength="207" x="1415" y="58.1074">-List&lt;Collaborator&gt; collaborators</text><line style="stroke:#181818;stroke-width:0.5;" x1="1410" x2="1777" y1="65.6211" y2="65.6211"/><text fill="#000000" font-family="sans-serif" font-size="14" lengthAdjust="spacing" textLength="281" x="1415" y="84.7285">+addCollaborator(collaborator: Collaborator)</text><text fill="#000000" font-family="sans-serif" font-size="14" lengthAdjust="spacing" textLength="304" x="1415" y="103.3496">+removeCollaborator(collaborator: Collaborator)</text><text fill="#000000" font-family="sans-serif" font-size="14" lengthAdjust="spacing" textLength="357" x="1415" y="121.9707">+addSkillToCollaborator(collaboratorId: String, skill: Skill)</text><text fill="#000000" font-family="sans-serif" font-size="14" lengthAdjust="spacing" textLength="333" x="1415" y="140.5918">+getCollaborator(collaboratorId: String): Collaborator</text><text fill="#000000" font-family="sans-serif" font-size="14" lengthAdjust="spacing" textLength="279" x="1415" y="159.2129">+assignSkill(collaboratorId: String, skill: Skill)</text></g><!--link Repositories to Repositories--><g id="link_Repositories_Repositories"><path codeLine="89" d="M1265.89,67.99 C1286.83,71.44 1300.5,77.78 1300.5,87 C1300.5,96.22 1292.7502,101.5846 1271.8102,105.0346 " fill="none" id="Repositories-to-Repositories" style="stroke:#181818;stroke-width:1.0;"/><polygon fill="#181818" points="1265.89,106.01,1275.4205,108.4937,1270.8235,105.1972,1274.12,100.6001,1265.89,106.01" style="stroke:#181818;stroke-width:1.0;"/><text fill="#000000" font-family="sans-serif" font-size="13" lengthAdjust="spacing" textLength="49" x="1306.5" y="92.5283">instance</text></g><!--link ApplicationSession to ApplicationSession--><g id="link_ApplicationSession_ApplicationSession"><path codeLine="90" d="M298.3,432.42 C332.39,414.22 368,428.41 368,475 C368,521.59 337.6829,538.6058 303.5929,520.4058 " fill="none" id="ApplicationSession-to-ApplicationSession" style="stroke:#181818;stroke-width:1.0;"/><polygon fill="#181818" points="298.3,517.58,304.3555,525.3473,302.7108,519.9348,308.1232,518.2901,298.3,517.58" style="stroke:#181818;stroke-width:1.0;"/><text fill="#000000" font-family="sans-serif" font-size="13" lengthAdjust="spacing" textLength="49" x="374" y="480.5283">instance</text></g><!--link AssignSkillUI to AssignSkillController--><g id="link_AssignSkillUI_AssignSkillController"><path codeLine="92" d="M118.28,87 C129.78,87 135.28,87 146.78,87 " fill="none" id="AssignSkillUI-to-AssignSkillController" style="stroke:#181818;stroke-width:1.0;stroke-dasharray:7.0,7.0;"/><polygon fill="#181818" points="152.78,87,143.78,83,147.78,87,143.78,91,152.78,87" style="stroke:#181818;stroke-width:1.0;"/></g><!--link AssignSkillController to Repositories--><g id="link_AssignSkillController_Repositories"><path codeLine="94" d="M812.3,87 C847.75,87 876.74,87 909.3,87 " fill="none" id="AssignSkillController-to-Repositories" style="stroke:#181818;stroke-width:1.0;stroke-dasharray:7.0,7.0;"/><polygon fill="#181818" points="915.3,87,906.3,83,910.3,87,906.3,91,915.3,87" style="stroke:#181818;stroke-width:1.0;"/><text fill="#000000" font-family="sans-serif" font-size="13" lengthAdjust="spacing" textLength="67" x="830.25" y="80.0283">repositories</text></g><!--link Repositories to SkillRepository--><g id="link_Repositories_SkillRepository"><path codeLine="96" d="M915.44,136.11 C860.5,154.42 809.26,175.96 790.5,197 C739.76,253.92 726.4683,336.816 723.7083,398.486 " fill="none" id="Repositories-to-SkillRepository" style="stroke:#181818;stroke-width:1.0;"/><polygon fill="#181818" points="723.44,404.48,727.8384,395.6678,723.6635,399.485,719.8464,395.3102,723.44,404.48" style="stroke:#181818;stroke-width:1.0;"/><text fill="#000000" font-family="sans-serif" font-size="13" lengthAdjust="spacing" textLength="7" x="715.9698" y="393.369">1</text></g><!--link Repositories to CollaboratorRepository--><g id="link_Repositories_CollaboratorRepository"><path codeLine="97" d="M1265.86,87 C1313.54,87 1355.21,87 1402.88,87 " fill="none" id="Repositories-to-CollaboratorRepository" style="stroke:#181818;stroke-width:1.0;"/><polygon fill="#181818" points="1408.88,87,1399.88,83,1403.88,87,1399.88,91,1408.88,87" style="stroke:#181818;stroke-width:1.0;"/><text fill="#000000" font-family="sans-serif" font-size="13" lengthAdjust="spacing" textLength="7" x="1393.9437" y="83.6816">1</text></g><!--link AssignSkillController to Skill--><g id="link_AssignSkillController_Skill"><path codeLine="99" d="M477.21,129.63 C462.4,253.86 426.25,618.63 500.5,704 C579.82,795.21 938.7529,817.1933 1111.8729,822.5833 " fill="none" id="AssignSkillController-to-Skill" style="stroke:#181818;stroke-width:1.0;stroke-dasharray:7.0,7.0;"/><polygon fill="#181818" points="1117.87,822.77,1108.9988,818.4919,1112.8724,822.6144,1108.7499,826.488,1117.87,822.77" style="stroke:#181818;stroke-width:1.0;"/><text fill="#000000" font-family="sans-serif" font-size="13" lengthAdjust="spacing" textLength="23" x="501.5" y="480.5283">skill</text></g><!--link AssignSkillController to SkillRepository--><g id="link_AssignSkillController_SkillRepository"><path codeLine="100" d="M508.63,129.68 C549.88,195.47 627.363,319.0564 677.553,399.1164 " fill="none" id="AssignSkillController-to-SkillRepository" style="stroke:#181818;stroke-width:1.0;stroke-dasharray:7.0,7.0;"/><polygon fill="#181818" points="680.74,404.2,679.3487,394.4499,678.0842,399.9636,672.5705,398.6992,680.74,404.2" style="stroke:#181818;stroke-width:1.0;"/><text fill="#000000" font-family="sans-serif" font-size="13" lengthAdjust="spacing" textLength="87" x="562.5" y="212.0283">SkillRepository</text></g><!--link ApplicationSession to UserSession--><g id="link_ApplicationSession_UserSession"><path codeLine="102" d="M247.69,517.69 C231.2,587.79 199.614,721.9994 184.624,785.7194 " fill="none" id="ApplicationSession-to-UserSession" style="stroke:#181818;stroke-width:1.0;"/><polygon fill="#181818" points="183.25,791.56,189.2047,783.7151,184.395,786.6929,181.4173,781.8832,183.25,791.56" style="stroke:#181818;stroke-width:1.0;"/><text fill="#000000" font-family="sans-serif" font-size="13" lengthAdjust="spacing" textLength="72" x="196.5" y="749.0283">userSession</text><text fill="#000000" font-family="sans-serif" font-size="13" lengthAdjust="spacing" textLength="7" x="177.0336" y="780.8252">1</text></g><!--link AssignSkillController to Collaborator--><g id="link_AssignSkillController_Collaborator"><path codeLine="104" d="M700.26,129.55 C886.97,165.88 1141.08,217.21 1240.5,246 C1249.45,248.59 1252.7044,249.5212 1261.7444,252.2412 " fill="none" id="AssignSkillController-to-Collaborator" style="stroke:#181818;stroke-width:1.0;stroke-dasharray:7.0,7.0;"/><polygon fill="#181818" points="1267.49,253.97,1260.0242,247.5465,1262.702,252.5294,1257.7192,255.2072,1267.49,253.97" style="stroke:#181818;stroke-width:1.0;"/><text fill="#000000" font-family="sans-serif" font-size="13" lengthAdjust="spacing" textLength="67" x="1116.5" y="212.0283">collaborator</text><text fill="#000000" font-family="sans-serif" font-size="13" lengthAdjust="spacing" textLength="7" x="1252.2563" y="247.775">1</text></g><!--link AssignSkillController to ApplicationSession--><g id="link_AssignSkillController_ApplicationSession"><path codeLine="105" d="M458.21,129.68 C414.91,203.95 327.9314,353.1663 284.7114,427.3163 " fill="none" id="AssignSkillController-to-ApplicationSession" style="stroke:#181818;stroke-width:1.0;stroke-dasharray:7.0,7.0;"/><polygon fill="#181818" points="281.69,432.5,289.678,426.7387,284.2079,428.1802,282.7664,422.7101,281.69,432.5" style="stroke:#181818;stroke-width:1.0;"/></g><!--link AssignSkillController to UserSession--><g id="link_AssignSkillController_UserSession"><path codeLine="106" d="M319.2,129.62 C259.93,153.48 199.09,190.19 164.5,246 C53.64,424.88 129.6477,692.7331 161.6277,786.2031 " fill="none" id="AssignSkillController-to-UserSession" style="stroke:#181818;stroke-width:1.0;stroke-dasharray:7.0,7.0;"/><polygon fill="#181818" points="163.57,791.88,164.4411,782.0697,161.9514,787.1492,156.8719,784.6595,163.57,791.88" style="stroke:#181818;stroke-width:1.0;"/></g><!--link Collaborator to Skill--><g id="link_Collaborator_Skill"><path codeLine="108" d="M1430.65,704.08 C1375.57,734.07 1330.0894,758.8306 1291.1394,780.0406 " fill="none" id="Collaborator-to-Skill" style="stroke:#181818;stroke-width:1.0;"/><polygon fill="#181818" points="1285.87,782.91,1295.687,782.1188,1290.2612,780.5188,1291.8611,775.093,1285.87,782.91" style="stroke:#181818;stroke-width:1.0;"/><text fill="#000000" font-family="sans-serif" font-size="13" lengthAdjust="spacing" textLength="21" x="1364.5" y="749.0283">has</text><text fill="#000000" font-family="sans-serif" font-size="13" lengthAdjust="spacing" textLength="5" x="1292.643" y="771.7997">*</text></g><!--link CollaboratorRepository to Collaborator--><g id="link_CollaboratorRepository_Collaborator"><path codeLine="109" d="M1778.24,163.01 C1790.4,173.04 1801.4,184.33 1810.5,197 C1821.19,211.89 1827.4665,222.8046 1833.9965,240.1546 " fill="none" id="CollaboratorRepository-to-Collaborator" style="stroke:#181818;stroke-width:1.0;"/><polygon fill="#181818" points="1836.11,245.77,1836.6834,235.9378,1834.3488,241.0905,1829.1962,238.7558,1836.11,245.77" style="stroke:#181818;stroke-width:1.0;"/><text fill="#000000" font-family="sans-serif" font-size="13" lengthAdjust="spacing" textLength="74" x="1822.5" y="212.0283">collaborators</text><text fill="#000000" font-family="sans-serif" font-size="13" lengthAdjust="spacing" textLength="5" x="1830.5886" y="235.0081">*</text></g><!--link CollaboratorRepository to Collaborator--><g id="link_CollaboratorRepository_Collaborator"><path codeLine="110" d="M1578.25,167.07 C1578.02,183.71 1580.12,200.82 1586.5,216 C1590.77,226.17 1592.7489,230.9035 1598.1589,240.6535 " fill="none" id="CollaboratorRepository-to-Collaborator-1" style="stroke:#181818;stroke-width:1.0;"/><polygon fill="#181818" points="1601.07,245.9,1600.201,236.0896,1598.6441,241.5279,1593.2057,239.971,1601.07,245.9" style="stroke:#181818;stroke-width:1.0;"/><text fill="#000000" font-family="sans-serif" font-size="13" lengthAdjust="spacing" textLength="214" x="1587.5" y="212.0283">getCollaborator(collaboratorId: String)</text><text fill="#000000" font-family="sans-serif" font-size="13" lengthAdjust="spacing" textLength="7" x="1585.0163" y="234.4008">1</text></g><!--link CollaboratorRepository to Skill--><g id="link_CollaboratorRepository_Skill"><path codeLine="111" d="M1778.24,95.34 C2003.83,108.64 2365.82,145.46 2449.5,246 C2514.61,324.23 2517.9,628.63 2449.5,704 C2372.6,788.74 1581.4581,815.5709 1307.4281,822.3809 " fill="none" id="CollaboratorRepository-to-Skill" style="stroke:#181818;stroke-width:1.0;"/><polygon fill="#181818" points="1301.43,822.53,1310.5266,826.3052,1306.4285,822.4058,1310.3278,818.3076,1301.43,822.53" style="stroke:#181818;stroke-width:1.0;"/><text fill="#000000" font-family="sans-serif" font-size="13" lengthAdjust="spacing" textLength="320" x="2500.5" y="480.5283">addSkillToCollaborator(collaboratorId: String, skill: Skill)</text><text fill="#000000" font-family="sans-serif" font-size="13" lengthAdjust="spacing" textLength="5" x="1308.9549" y="818.6463">*</text></g><!--link CollaboratorRepository to Skill--><g id="link_CollaboratorRepository_Skill"><path codeLine="112" d="M1408.76,153.33 C1393.18,158.18 1377.61,162.81 1362.5,167 C1201.3,211.7 1099.64,115.89 994.5,246 C930.53,325.16 943.05,616.18 994.5,704 C1021.21,749.6 1066.6291,776.9869 1112.2391,795.4669 " fill="none" id="CollaboratorRepository-to-Skill-1" style="stroke:#181818;stroke-width:1.0;"/><polygon fill="#181818" points="1117.8,797.72,1110.9608,790.6331,1113.1659,795.8424,1107.9566,798.0476,1117.8,797.72" style="stroke:#181818;stroke-width:1.0;"/><text fill="#000000" font-family="sans-serif" font-size="13" lengthAdjust="spacing" textLength="254" x="995.5" y="480.5283">assignSkill(collaboratorId: String, skill: Skill)</text><text fill="#000000" font-family="sans-serif" font-size="13" lengthAdjust="spacing" textLength="5" x="1104.9991" y="791.7459">*</text></g><!--SRC=[fLRBRjim4BphAuXSujHAq5wDme2Jzk0YS8ew-G1AsjXCA58bgQHkqNylgIT9aOw3-YJjp2vtza7hN3uJLc61IrHonlEzu2KW9Mf8HgJ2-JFUmLOTA201kS9iHss2tEE2lnAsGu-OIXkXX84wL80gJW_c9OHneNXY0Jd5KgwK4YIh5QnpphRaDw2FIN9EuL4XnP4Wkxr21J7P4CwIfF51gwgY9CV6j0Kf3V8dGVetHr9fSuvseDPCFxCSPXSTf6qtjH30LEUaaRzzo0S9me-b7OpvQua9jRatd5ASSO4L5wWbNoA6IrYWhLR3Tfqf8qBj2tpuWfM6RdcEgNdiK5oKf3al1XT2v-E5hFQSmQOkCn0U0YPBpwRmhmeVGFGEXAaEkLxtDie7-XFFd01pH-dCLfZ6nALHNQalAGsfILqXQKX3wgMVsfdttOQVjHxI6L-Wk-n9Zy_50cMSKy2i8-JQLG_7mX4vTdwZrHhKgOUsNrkw3UxshQ6ix0f4EKqjGYTy7wiIWhjnd0BtJgKCe-ztc_Xw18QcDyWtdatYwLuPSrDO_Q3X5qwASGUspuJIOVYbUTlO6p26QPYp2UF2Y_K3AYw9Ri6X3tfBfFhSOCls07bAr9OXeEGly0QfhWhT4uzqHujn-0Rh1bvzRrsuMFn5AsbKkDBZi6EDyM6jgpO0Wse2ijVjbQDDOdplMFRKMkImEV5o7f5PdwntG7jT1eFvEsDvXWJVSAQ4faD_Lyx3w2mSCtPMwjTbegDl51vFSyvO-utk8aHkUgl8peJQd2NAhJTxNfsRr2Qv-jpvVQTJlnRtFEeOrnniUiGtV6dQTSvFhREz0EXowIm4CZTO-oUUJF_o3JjWjNmIT-skbk71StZMj5vDiX7MwpJriqzdarKASM8h6ib2fz5UjeksUc_nh3cThdQmZbrUrYUGzgoj3w8ZH_g2jAVT-oEUWO-uEDd-F4kSyvhiFvmDDTfZcKJMjgSUoVUuxrJhYVloLaPzyl-rmQUUyUur_GS0]--></g></svg>