<?xml version="1.0" encoding="us-ascii" standalone="no"?><svg xmlns="http://www.w3.org/2000/svg" xmlns:xlink="http://www.w3.org/1999/xlink" contentStyleType="text/css" height="1272px" preserveAspectRatio="none" style="width:2261px;height:1272px;background:#FFFFFF;" version="1.1" viewBox="0 0 2261 1272" width="2261px" zoomAndPan="magnify"><defs/><g><!--class ToDoList--><g id="elem_ToDoList"><rect codeLine="8" fill="#F1F1F1" height="327.3164" id="ToDoList" rx="2.5" ry="2.5" style="stroke:#181818;stroke-width:0.5;" width="845" x="527" y="938"/><ellipse cx="916.75" cy="954" fill="#ADD1B2" rx="11" ry="11" style="stroke:#181818;stroke-width:1.0;"/><path d="M919.5156,949.875 Q919.6719,949.6563 919.8594,949.5469 Q920.0469,949.4375 920.2656,949.4375 Q920.6406,949.4375 920.875,949.7031 Q921.1094,949.9531 921.1094,950.5625 L921.1094,952.0156 Q921.1094,952.625 920.875,952.8906 Q920.6406,953.1563 920.2656,953.1563 Q919.9219,953.1563 919.7188,952.9531 Q919.5156,952.7656 919.4063,952.25 Q919.3594,951.8906 919.1719,951.7031 Q918.8438,951.3281 918.2344,951.1094 Q917.625,950.8906 917,950.8906 Q916.2344,950.8906 915.5938,951.2188 Q914.9688,951.5469 914.4688,952.2969 Q913.9844,953.0469 913.9844,954.0781 L913.9844,955.1719 Q913.9844,956.4063 914.875,957.2344 Q915.7656,958.0469 917.3594,958.0469 Q918.2969,958.0469 918.9531,957.7969 Q919.3438,957.6406 919.7656,957.2031 Q920.0313,956.9375 920.1719,956.8594 Q920.3281,956.7813 920.5313,956.7813 Q920.8594,956.7813 921.1094,957.0469 Q921.375,957.2969 921.375,957.6406 Q921.375,957.9844 921.0313,958.3906 Q920.5313,958.9688 919.7344,959.2969 Q918.6563,959.75 917.3594,959.75 Q915.8438,959.75 914.6406,959.125 Q913.6563,958.625 912.9688,957.5625 Q912.2813,956.4844 912.2813,955.2031 L912.2813,954.0469 Q912.2813,952.7188 912.8906,951.5781 Q913.5156,950.4219 914.6094,949.8125 Q915.7031,949.1875 916.9375,949.1875 Q917.6719,949.1875 918.3125,949.3594 Q918.9688,949.5156 919.5156,949.875 Z " fill="#000000"/><text fill="#000000" font-family="sans-serif" font-size="14" lengthAdjust="spacing" textLength="57" x="937.25" y="959.7969">ToDoList</text><line style="stroke:#181818;stroke-width:0.5;" x1="528" x2="1371" y1="970" y2="970"/><text fill="#000000" font-family="sans-serif" font-size="14" lengthAdjust="spacing" textLength="147" x="533" y="989.1074">-taskDescription: String</text><text fill="#000000" font-family="sans-serif" font-size="14" lengthAdjust="spacing" textLength="101" x="533" y="1007.7285">-urgency: String</text><text fill="#000000" font-family="sans-serif" font-size="14" lengthAdjust="spacing" textLength="139" x="533" y="1026.3496">-expectedDuration: int</text><text fill="#000000" font-family="sans-serif" font-size="14" lengthAdjust="spacing" textLength="161" x="533" y="1044.9707">-greenspaceName: String</text><text fill="#000000" font-family="sans-serif" font-size="14" lengthAdjust="spacing" textLength="88" x="533" y="1063.5918">-status: String</text><text fill="#000000" font-family="sans-serif" font-size="14" lengthAdjust="spacing" textLength="112" x="533" y="1082.2129">-userEmail: String</text><line style="stroke:#181818;stroke-width:0.5;" x1="528" x2="1371" y1="1089.7266" y2="1089.7266"/><text fill="#000000" font-family="sans-serif" font-size="14" lengthAdjust="spacing" textLength="833" x="533" y="1108.834">+ToDoList(taskDescription: String, urgency: String, expectedDuration: int, greenspaceName: String, status: String, userEmail: String)</text><text fill="#000000" font-family="sans-serif" font-size="14" lengthAdjust="spacing" textLength="185" x="533" y="1127.4551">+getTaskDescription(): String</text><text fill="#000000" font-family="sans-serif" font-size="14" lengthAdjust="spacing" textLength="135" x="533" y="1146.0762">+getUrgency(): String</text><text fill="#000000" font-family="sans-serif" font-size="14" lengthAdjust="spacing" textLength="173" x="533" y="1164.6973">+getExpectedDuration(): int</text><text fill="#000000" font-family="sans-serif" font-size="14" lengthAdjust="spacing" textLength="197" x="533" y="1183.3184">+getGreenspaceName(): String</text><text fill="#000000" font-family="sans-serif" font-size="14" lengthAdjust="spacing" textLength="123" x="533" y="1201.9395">+getStatus(): String</text><text fill="#000000" font-family="sans-serif" font-size="14" lengthAdjust="spacing" textLength="146" x="533" y="1220.5605">+getUserEmail(): String</text><text fill="#000000" font-family="sans-serif" font-size="14" lengthAdjust="spacing" textLength="194" x="533" y="1239.1816">+setStatus(status: String): void</text><text fill="#000000" font-family="sans-serif" font-size="14" lengthAdjust="spacing" textLength="117" x="533" y="1257.8027">+clone(): ToDoList</text></g><!--class ToDoListRepository--><g id="elem_ToDoListRepository"><rect codeLine="27" fill="#F1F1F1" height="178.3477" id="ToDoListRepository" rx="2.5" ry="2.5" style="stroke:#181818;stroke-width:0.5;" width="649" x="933" y="361"/><ellipse cx="1190.75" cy="377" fill="#ADD1B2" rx="11" ry="11" style="stroke:#181818;stroke-width:1.0;"/><path d="M1193.5156,372.875 Q1193.6719,372.6563 1193.8594,372.5469 Q1194.0469,372.4375 1194.2656,372.4375 Q1194.6406,372.4375 1194.875,372.7031 Q1195.1094,372.9531 1195.1094,373.5625 L1195.1094,375.0156 Q1195.1094,375.625 1194.875,375.8906 Q1194.6406,376.1563 1194.2656,376.1563 Q1193.9219,376.1563 1193.7188,375.9531 Q1193.5156,375.7656 1193.4063,375.25 Q1193.3594,374.8906 1193.1719,374.7031 Q1192.8438,374.3281 1192.2344,374.1094 Q1191.625,373.8906 1191,373.8906 Q1190.2344,373.8906 1189.5938,374.2188 Q1188.9688,374.5469 1188.4688,375.2969 Q1187.9844,376.0469 1187.9844,377.0781 L1187.9844,378.1719 Q1187.9844,379.4063 1188.875,380.2344 Q1189.7656,381.0469 1191.3594,381.0469 Q1192.2969,381.0469 1192.9531,380.7969 Q1193.3438,380.6406 1193.7656,380.2031 Q1194.0313,379.9375 1194.1719,379.8594 Q1194.3281,379.7813 1194.5313,379.7813 Q1194.8594,379.7813 1195.1094,380.0469 Q1195.375,380.2969 1195.375,380.6406 Q1195.375,380.9844 1195.0313,381.3906 Q1194.5313,381.9688 1193.7344,382.2969 Q1192.6563,382.75 1191.3594,382.75 Q1189.8438,382.75 1188.6406,382.125 Q1187.6563,381.625 1186.9688,380.5625 Q1186.2813,379.4844 1186.2813,378.2031 L1186.2813,377.0469 Q1186.2813,375.7188 1186.8906,374.5781 Q1187.5156,373.4219 1188.6094,372.8125 Q1189.7031,372.1875 1190.9375,372.1875 Q1191.6719,372.1875 1192.3125,372.3594 Q1192.9688,372.5156 1193.5156,372.875 Z " fill="#000000"/><text fill="#000000" font-family="sans-serif" font-size="14" lengthAdjust="spacing" textLength="125" x="1211.25" y="382.7969">ToDoListRepository</text><line style="stroke:#181818;stroke-width:0.5;" x1="934" x2="1581" y1="393" y2="393"/><text fill="#000000" font-family="sans-serif" font-size="14" lengthAdjust="spacing" textLength="167" x="939" y="412.1074">-toDoLists: List&lt;ToDoList&gt;</text><line style="stroke:#181818;stroke-width:0.5;" x1="934" x2="1581" y1="419.6211" y2="419.6211"/><text fill="#000000" font-family="sans-serif" font-size="14" lengthAdjust="spacing" textLength="293" x="939" y="438.7285">+add(toDoList: ToDoList): Optional&lt;ToDoList&gt;</text><text fill="#000000" font-family="sans-serif" font-size="14" lengthAdjust="spacing" textLength="220" x="939" y="457.3496">+getAllToDoLists(): List&lt;ToDoList&gt;</text><text fill="#000000" font-family="sans-serif" font-size="14" lengthAdjust="spacing" textLength="336" x="939" y="475.9707">+updateToDoListEntry(updatedEntry: ToDoList): void</text><text fill="#000000" font-family="sans-serif" font-size="14" lengthAdjust="spacing" textLength="156" x="939" y="494.5918">+getAll(): List&lt;ToDoList&gt;</text><text fill="#000000" font-family="sans-serif" font-size="14" lengthAdjust="spacing" textLength="435" x="939" y="513.2129">+findByTaskDescription(taskDescription: String): Optional&lt;ToDoList&gt;</text><text fill="#000000" font-family="sans-serif" font-size="14" lengthAdjust="spacing" textLength="637" x="939" y="531.834">+findByUserEmailAndGreenSpaceName(userEmail: String, greenSpaceName: String): List&lt;ToDoList&gt;</text></g><!--class ToDoListController--><g id="elem_ToDoListController"><rect codeLine="38" fill="#F1F1F1" height="141.1055" id="ToDoListController" rx="2.5" ry="2.5" style="stroke:#181818;stroke-width:0.5;" width="1023" x="245" y="7"/><ellipse cx="692.75" cy="23" fill="#ADD1B2" rx="11" ry="11" style="stroke:#181818;stroke-width:1.0;"/><path d="M695.5156,18.875 Q695.6719,18.6563 695.8594,18.5469 Q696.0469,18.4375 696.2656,18.4375 Q696.6406,18.4375 696.875,18.7031 Q697.1094,18.9531 697.1094,19.5625 L697.1094,21.0156 Q697.1094,21.625 696.875,21.8906 Q696.6406,22.1563 696.2656,22.1563 Q695.9219,22.1563 695.7188,21.9531 Q695.5156,21.7656 695.4063,21.25 Q695.3594,20.8906 695.1719,20.7031 Q694.8438,20.3281 694.2344,20.1094 Q693.625,19.8906 693,19.8906 Q692.2344,19.8906 691.5938,20.2188 Q690.9688,20.5469 690.4688,21.2969 Q689.9844,22.0469 689.9844,23.0781 L689.9844,24.1719 Q689.9844,25.4063 690.875,26.2344 Q691.7656,27.0469 693.3594,27.0469 Q694.2969,27.0469 694.9531,26.7969 Q695.3438,26.6406 695.7656,26.2031 Q696.0313,25.9375 696.1719,25.8594 Q696.3281,25.7813 696.5313,25.7813 Q696.8594,25.7813 697.1094,26.0469 Q697.375,26.2969 697.375,26.6406 Q697.375,26.9844 697.0313,27.3906 Q696.5313,27.9688 695.7344,28.2969 Q694.6563,28.75 693.3594,28.75 Q691.8438,28.75 690.6406,28.125 Q689.6563,27.625 688.9688,26.5625 Q688.2813,25.4844 688.2813,24.2031 L688.2813,23.0469 Q688.2813,21.7188 688.8906,20.5781 Q689.5156,19.4219 690.6094,18.8125 Q691.7031,18.1875 692.9375,18.1875 Q693.6719,18.1875 694.3125,18.3594 Q694.9688,18.5156 695.5156,18.875 Z " fill="#000000"/><text fill="#000000" font-family="sans-serif" font-size="14" lengthAdjust="spacing" textLength="119" x="713.25" y="28.7969">ToDoListController</text><line style="stroke:#181818;stroke-width:0.5;" x1="246" x2="1267" y1="39" y2="39"/><text fill="#000000" font-family="sans-serif" font-size="14" lengthAdjust="spacing" textLength="258" x="251" y="58.1074">-toDoListRepository: ToDoListRepository</text><line style="stroke:#181818;stroke-width:0.5;" x1="246" x2="1267" y1="65.6211" y2="65.6211"/><text fill="#000000" font-family="sans-serif" font-size="14" lengthAdjust="spacing" textLength="137" x="251" y="84.7285">+ToDoListController()</text><text fill="#000000" font-family="sans-serif" font-size="14" lengthAdjust="spacing" textLength="1011" x="251" y="103.3496">+createToDoListEntry(taskDescription: String, urgency: String, expectedDuration: int, greenspaceName: String, status: String, email: String): Optional&lt;ToDoList&gt;</text><text fill="#000000" font-family="sans-serif" font-size="14" lengthAdjust="spacing" textLength="453" x="251" y="121.9707">+updateToDoListStatus(taskDescription: String, newStatus: String): void</text><text fill="#000000" font-family="sans-serif" font-size="14" lengthAdjust="spacing" textLength="257" x="251" y="140.5918">+getAllToDoListEntries(): List&lt;ToDoList&gt;</text></g><!--class Repositories--><g id="elem_Repositories"><rect codeLine="47" fill="#F1F1F1" height="103.8633" id="Repositories" rx="2.5" ry="2.5" style="stroke:#181818;stroke-width:0.5;" width="354" x="1303.5" y="25.5"/><ellipse cx="1436.75" cy="41.5" fill="#ADD1B2" rx="11" ry="11" style="stroke:#181818;stroke-width:1.0;"/><path d="M1439.5156,37.375 Q1439.6719,37.1563 1439.8594,37.0469 Q1440.0469,36.9375 1440.2656,36.9375 Q1440.6406,36.9375 1440.875,37.2031 Q1441.1094,37.4531 1441.1094,38.0625 L1441.1094,39.5156 Q1441.1094,40.125 1440.875,40.3906 Q1440.6406,40.6563 1440.2656,40.6563 Q1439.9219,40.6563 1439.7188,40.4531 Q1439.5156,40.2656 1439.4063,39.75 Q1439.3594,39.3906 1439.1719,39.2031 Q1438.8438,38.8281 1438.2344,38.6094 Q1437.625,38.3906 1437,38.3906 Q1436.2344,38.3906 1435.5938,38.7188 Q1434.9688,39.0469 1434.4688,39.7969 Q1433.9844,40.5469 1433.9844,41.5781 L1433.9844,42.6719 Q1433.9844,43.9063 1434.875,44.7344 Q1435.7656,45.5469 1437.3594,45.5469 Q1438.2969,45.5469 1438.9531,45.2969 Q1439.3438,45.1406 1439.7656,44.7031 Q1440.0313,44.4375 1440.1719,44.3594 Q1440.3281,44.2813 1440.5313,44.2813 Q1440.8594,44.2813 1441.1094,44.5469 Q1441.375,44.7969 1441.375,45.1406 Q1441.375,45.4844 1441.0313,45.8906 Q1440.5313,46.4688 1439.7344,46.7969 Q1438.6563,47.25 1437.3594,47.25 Q1435.8438,47.25 1434.6406,46.625 Q1433.6563,46.125 1432.9688,45.0625 Q1432.2813,43.9844 1432.2813,42.7031 L1432.2813,41.5469 Q1432.2813,40.2188 1432.8906,39.0781 Q1433.5156,37.9219 1434.6094,37.3125 Q1435.7031,36.6875 1436.9375,36.6875 Q1437.6719,36.6875 1438.3125,36.8594 Q1438.9688,37.0156 1439.5156,37.375 Z " fill="#000000"/><text fill="#000000" font-family="sans-serif" font-size="14" lengthAdjust="spacing" textLength="79" x="1457.25" y="47.2969">Repositories</text><line style="stroke:#181818;stroke-width:0.5;" x1="1304.5" x2="1656.5" y1="57.5" y2="57.5"/><line style="stroke:#181818;stroke-width:0.5;" x1="1304.5" x2="1656.5" y1="65.5" y2="65.5"/><text fill="#000000" font-family="sans-serif" font-size="14" lengthAdjust="spacing" textLength="215" x="1309.5" y="84.6074">+static getInstance(): Repositories</text><text fill="#000000" font-family="sans-serif" font-size="14" lengthAdjust="spacing" textLength="296" x="1309.5" y="103.2285">+getToDoListRepository(): ToDoListRepository</text><text fill="#000000" font-family="sans-serif" font-size="14" lengthAdjust="spacing" textLength="342" x="1309.5" y="121.8496">+getOrganizationRepository(): OrganizationRepository</text></g><!--class ToDoListUI--><g id="elem_ToDoListUI"><rect codeLine="53" fill="#F1F1F1" height="141.1055" id="ToDoListUI" rx="2.5" ry="2.5" style="stroke:#181818;stroke-width:0.5;" width="203" x="7" y="7"/><ellipse cx="69.75" cy="23" fill="#ADD1B2" rx="11" ry="11" style="stroke:#181818;stroke-width:1.0;"/><path d="M72.5156,18.875 Q72.6719,18.6563 72.8594,18.5469 Q73.0469,18.4375 73.2656,18.4375 Q73.6406,18.4375 73.875,18.7031 Q74.1094,18.9531 74.1094,19.5625 L74.1094,21.0156 Q74.1094,21.625 73.875,21.8906 Q73.6406,22.1563 73.2656,22.1563 Q72.9219,22.1563 72.7188,21.9531 Q72.5156,21.7656 72.4063,21.25 Q72.3594,20.8906 72.1719,20.7031 Q71.8438,20.3281 71.2344,20.1094 Q70.625,19.8906 70,19.8906 Q69.2344,19.8906 68.5938,20.2188 Q67.9688,20.5469 67.4688,21.2969 Q66.9844,22.0469 66.9844,23.0781 L66.9844,24.1719 Q66.9844,25.4063 67.875,26.2344 Q68.7656,27.0469 70.3594,27.0469 Q71.2969,27.0469 71.9531,26.7969 Q72.3438,26.6406 72.7656,26.2031 Q73.0313,25.9375 73.1719,25.8594 Q73.3281,25.7813 73.5313,25.7813 Q73.8594,25.7813 74.1094,26.0469 Q74.375,26.2969 74.375,26.6406 Q74.375,26.9844 74.0313,27.3906 Q73.5313,27.9688 72.7344,28.2969 Q71.6563,28.75 70.3594,28.75 Q68.8438,28.75 67.6406,28.125 Q66.6563,27.625 65.9688,26.5625 Q65.2813,25.4844 65.2813,24.2031 L65.2813,23.0469 Q65.2813,21.7188 65.8906,20.5781 Q66.5156,19.4219 67.6094,18.8125 Q68.7031,18.1875 69.9375,18.1875 Q70.6719,18.1875 71.3125,18.3594 Q71.9688,18.5156 72.5156,18.875 Z " fill="#000000"/><text fill="#000000" font-family="sans-serif" font-size="14" lengthAdjust="spacing" textLength="69" x="90.25" y="28.7969">ToDoListUI</text><line style="stroke:#181818;stroke-width:0.5;" x1="8" x2="209" y1="39" y2="39"/><text fill="#000000" font-family="sans-serif" font-size="14" lengthAdjust="spacing" textLength="191" x="13" y="58.1074">-controller: ToDoListController</text><text fill="#000000" font-family="sans-serif" font-size="14" lengthAdjust="spacing" textLength="117" x="13" y="76.7285">-scanner: Scanner</text><text fill="#000000" font-family="sans-serif" font-size="14" lengthAdjust="spacing" textLength="83" x="13" y="95.3496">-email: String</text><line style="stroke:#181818;stroke-width:0.5;" x1="8" x2="209" y1="102.8633" y2="102.8633"/><text fill="#000000" font-family="sans-serif" font-size="14" lengthAdjust="spacing" textLength="165" x="13" y="121.9707">+ToDoListUI(email: String)</text><text fill="#000000" font-family="sans-serif" font-size="14" lengthAdjust="spacing" textLength="73" x="13" y="140.5918">+run(): void</text></g><!--class UserSession--><g id="elem_UserSession"><rect codeLine="62" fill="#F1F1F1" height="66.6211" id="UserSession" rx="2.5" ry="2.5" style="stroke:#181818;stroke-width:0.5;" width="158" x="738.5" y="680.5"/><ellipse cx="774.65" cy="696.5" fill="#ADD1B2" rx="11" ry="11" style="stroke:#181818;stroke-width:1.0;"/><path d="M777.4156,692.375 Q777.5719,692.1563 777.7594,692.0469 Q777.9469,691.9375 778.1656,691.9375 Q778.5406,691.9375 778.775,692.2031 Q779.0094,692.4531 779.0094,693.0625 L779.0094,694.5156 Q779.0094,695.125 778.775,695.3906 Q778.5406,695.6563 778.1656,695.6563 Q777.8219,695.6563 777.6188,695.4531 Q777.4156,695.2656 777.3063,694.75 Q777.2594,694.3906 777.0719,694.2031 Q776.7438,693.8281 776.1344,693.6094 Q775.525,693.3906 774.9,693.3906 Q774.1344,693.3906 773.4938,693.7188 Q772.8688,694.0469 772.3688,694.7969 Q771.8844,695.5469 771.8844,696.5781 L771.8844,697.6719 Q771.8844,698.9063 772.775,699.7344 Q773.6656,700.5469 775.2594,700.5469 Q776.1969,700.5469 776.8531,700.2969 Q777.2438,700.1406 777.6656,699.7031 Q777.9313,699.4375 778.0719,699.3594 Q778.2281,699.2813 778.4313,699.2813 Q778.7594,699.2813 779.0094,699.5469 Q779.275,699.7969 779.275,700.1406 Q779.275,700.4844 778.9313,700.8906 Q778.4313,701.4688 777.6344,701.7969 Q776.5563,702.25 775.2594,702.25 Q773.7438,702.25 772.5406,701.625 Q771.5563,701.125 770.8688,700.0625 Q770.1813,698.9844 770.1813,697.7031 L770.1813,696.5469 Q770.1813,695.2188 770.7906,694.0781 Q771.4156,692.9219 772.5094,692.3125 Q773.6031,691.6875 774.8375,691.6875 Q775.5719,691.6875 776.2125,691.8594 Q776.8688,692.0156 777.4156,692.375 Z " fill="#000000"/><text fill="#000000" font-family="sans-serif" font-size="14" lengthAdjust="spacing" textLength="79" x="793.35" y="702.2969">UserSession</text><line style="stroke:#181818;stroke-width:0.5;" x1="739.5" x2="895.5" y1="712.5" y2="712.5"/><line style="stroke:#181818;stroke-width:0.5;" x1="739.5" x2="895.5" y1="720.5" y2="720.5"/><text fill="#000000" font-family="sans-serif" font-size="14" lengthAdjust="spacing" textLength="146" x="744.5" y="739.6074">+getUserEmail(): String</text></g><!--class ApplicationSession--><g id="elem_ApplicationSession"><rect codeLine="66" fill="#F1F1F1" height="85.2422" id="ApplicationSession" rx="2.5" ry="2.5" style="stroke:#181818;stroke-width:0.5;" width="267" x="810" y="227.5"/><ellipse cx="879.75" cy="243.5" fill="#ADD1B2" rx="11" ry="11" style="stroke:#181818;stroke-width:1.0;"/><path d="M882.5156,239.375 Q882.6719,239.1563 882.8594,239.0469 Q883.0469,238.9375 883.2656,238.9375 Q883.6406,238.9375 883.875,239.2031 Q884.1094,239.4531 884.1094,240.0625 L884.1094,241.5156 Q884.1094,242.125 883.875,242.3906 Q883.6406,242.6563 883.2656,242.6563 Q882.9219,242.6563 882.7188,242.4531 Q882.5156,242.2656 882.4063,241.75 Q882.3594,241.3906 882.1719,241.2031 Q881.8438,240.8281 881.2344,240.6094 Q880.625,240.3906 880,240.3906 Q879.2344,240.3906 878.5938,240.7188 Q877.9688,241.0469 877.4688,241.7969 Q876.9844,242.5469 876.9844,243.5781 L876.9844,244.6719 Q876.9844,245.9063 877.875,246.7344 Q878.7656,247.5469 880.3594,247.5469 Q881.2969,247.5469 881.9531,247.2969 Q882.3438,247.1406 882.7656,246.7031 Q883.0313,246.4375 883.1719,246.3594 Q883.3281,246.2813 883.5313,246.2813 Q883.8594,246.2813 884.1094,246.5469 Q884.375,246.7969 884.375,247.1406 Q884.375,247.4844 884.0313,247.8906 Q883.5313,248.4688 882.7344,248.7969 Q881.6563,249.25 880.3594,249.25 Q878.8438,249.25 877.6406,248.625 Q876.6563,248.125 875.9688,247.0625 Q875.2813,245.9844 875.2813,244.7031 L875.2813,243.5469 Q875.2813,242.2188 875.8906,241.0781 Q876.5156,239.9219 877.6094,239.3125 Q878.7031,238.6875 879.9375,238.6875 Q880.6719,238.6875 881.3125,238.8594 Q881.9688,239.0156 882.5156,239.375 Z " fill="#000000"/><text fill="#000000" font-family="sans-serif" font-size="14" lengthAdjust="spacing" textLength="119" x="900.25" y="249.2969">ApplicationSession</text><line style="stroke:#181818;stroke-width:0.5;" x1="811" x2="1076" y1="259.5" y2="259.5"/><line style="stroke:#181818;stroke-width:0.5;" x1="811" x2="1076" y1="267.5" y2="267.5"/><text fill="#000000" font-family="sans-serif" font-size="14" lengthAdjust="spacing" textLength="255" x="816" y="286.6074">+static getInstance(): ApplicationSession</text><text fill="#000000" font-family="sans-serif" font-size="14" lengthAdjust="spacing" textLength="223" x="816" y="305.2285">+getCurrentSession(): UserSession</text></g><!--class Organization--><g id="elem_Organization"><rect codeLine="71" fill="#F1F1F1" height="290.0742" id="Organization" rx="2.5" ry="2.5" style="stroke:#181818;stroke-width:0.5;" width="1251" x="1003" y="569"/><ellipse cx="1584.25" cy="585" fill="#ADD1B2" rx="11" ry="11" style="stroke:#181818;stroke-width:1.0;"/><path d="M1587.0156,580.875 Q1587.1719,580.6563 1587.3594,580.5469 Q1587.5469,580.4375 1587.7656,580.4375 Q1588.1406,580.4375 1588.375,580.7031 Q1588.6094,580.9531 1588.6094,581.5625 L1588.6094,583.0156 Q1588.6094,583.625 1588.375,583.8906 Q1588.1406,584.1563 1587.7656,584.1563 Q1587.4219,584.1563 1587.2188,583.9531 Q1587.0156,583.7656 1586.9063,583.25 Q1586.8594,582.8906 1586.6719,582.7031 Q1586.3438,582.3281 1585.7344,582.1094 Q1585.125,581.8906 1584.5,581.8906 Q1583.7344,581.8906 1583.0938,582.2188 Q1582.4688,582.5469 1581.9688,583.2969 Q1581.4844,584.0469 1581.4844,585.0781 L1581.4844,586.1719 Q1581.4844,587.4063 1582.375,588.2344 Q1583.2656,589.0469 1584.8594,589.0469 Q1585.7969,589.0469 1586.4531,588.7969 Q1586.8438,588.6406 1587.2656,588.2031 Q1587.5313,587.9375 1587.6719,587.8594 Q1587.8281,587.7813 1588.0313,587.7813 Q1588.3594,587.7813 1588.6094,588.0469 Q1588.875,588.2969 1588.875,588.6406 Q1588.875,588.9844 1588.5313,589.3906 Q1588.0313,589.9688 1587.2344,590.2969 Q1586.1563,590.75 1584.8594,590.75 Q1583.3438,590.75 1582.1406,590.125 Q1581.1563,589.625 1580.4688,588.5625 Q1579.7813,587.4844 1579.7813,586.2031 L1579.7813,585.0469 Q1579.7813,583.7188 1580.3906,582.5781 Q1581.0156,581.4219 1582.1094,580.8125 Q1583.2031,580.1875 1584.4375,580.1875 Q1585.1719,580.1875 1585.8125,580.3594 Q1586.4688,580.5156 1587.0156,580.875 Z " fill="#000000"/><text fill="#000000" font-family="sans-serif" font-size="14" lengthAdjust="spacing" textLength="80" x="1604.75" y="590.7969">Organization</text><line style="stroke:#181818;stroke-width:0.5;" x1="1004" x2="2253" y1="601" y2="601"/><text fill="#000000" font-family="sans-serif" font-size="14" lengthAdjust="spacing" textLength="85" x="1009" y="620.1074">-name: String</text><text fill="#000000" font-family="sans-serif" font-size="14" lengthAdjust="spacing" textLength="97" x="1009" y="638.7285">-website: String</text><text fill="#000000" font-family="sans-serif" font-size="14" lengthAdjust="spacing" textLength="90" x="1009" y="657.3496">-phone: String</text><text fill="#000000" font-family="sans-serif" font-size="14" lengthAdjust="spacing" textLength="83" x="1009" y="675.9707">-email: String</text><text fill="#000000" font-family="sans-serif" font-size="14" lengthAdjust="spacing" textLength="118" x="1009" y="694.5918">-vatNumber: String</text><text fill="#000000" font-family="sans-serif" font-size="14" lengthAdjust="spacing" textLength="177" x="1009" y="713.2129">-List&lt;Employee&gt; employees</text><text fill="#000000" font-family="sans-serif" font-size="14" lengthAdjust="spacing" textLength="111" x="1009" y="731.834">-List&lt;Task&gt; tasks</text><line style="stroke:#181818;stroke-width:0.5;" x1="1004" x2="2253" y1="739.3477" y2="739.3477"/><text fill="#000000" font-family="sans-serif" font-size="14" lengthAdjust="spacing" textLength="211" x="1009" y="758.4551">+Organization(vatNumber: String)</text><text fill="#000000" font-family="sans-serif" font-size="14" lengthAdjust="spacing" textLength="252" x="1009" y="777.0762">+boolean employs(Employee employee)</text><text fill="#000000" font-family="sans-serif" font-size="14" lengthAdjust="spacing" textLength="1239" x="1009" y="795.6973">+Optional&lt;Task&gt; createTask(String reference, String description, String informalDescription, String technicalDescription, int duration, double cost, TaskCategory taskCategory, Employee employee)</text><text fill="#000000" font-family="sans-serif" font-size="14" lengthAdjust="spacing" textLength="290" x="1009" y="814.3184">+boolean anyEmployeeHasEmail(String email)</text><text fill="#000000" font-family="sans-serif" font-size="14" lengthAdjust="spacing" textLength="286" x="1009" y="832.9395">+boolean addEmployee(Employee employee)</text><text fill="#000000" font-family="sans-serif" font-size="14" lengthAdjust="spacing" textLength="136" x="1009" y="851.5605">+Organization clone()</text></g><!--class OrganizationRepository--><g id="elem_OrganizationRepository"><rect codeLine="88" fill="#F1F1F1" height="122.4844" id="OrganizationRepository" rx="2.5" ry="2.5" style="stroke:#181818;stroke-width:0.5;" width="488" x="1355.5" y="209"/><ellipse cx="1521.25" cy="225" fill="#ADD1B2" rx="11" ry="11" style="stroke:#181818;stroke-width:1.0;"/><path d="M1524.0156,220.875 Q1524.1719,220.6563 1524.3594,220.5469 Q1524.5469,220.4375 1524.7656,220.4375 Q1525.1406,220.4375 1525.375,220.7031 Q1525.6094,220.9531 1525.6094,221.5625 L1525.6094,223.0156 Q1525.6094,223.625 1525.375,223.8906 Q1525.1406,224.1563 1524.7656,224.1563 Q1524.4219,224.1563 1524.2188,223.9531 Q1524.0156,223.7656 1523.9063,223.25 Q1523.8594,222.8906 1523.6719,222.7031 Q1523.3438,222.3281 1522.7344,222.1094 Q1522.125,221.8906 1521.5,221.8906 Q1520.7344,221.8906 1520.0938,222.2188 Q1519.4688,222.5469 1518.9688,223.2969 Q1518.4844,224.0469 1518.4844,225.0781 L1518.4844,226.1719 Q1518.4844,227.4063 1519.375,228.2344 Q1520.2656,229.0469 1521.8594,229.0469 Q1522.7969,229.0469 1523.4531,228.7969 Q1523.8438,228.6406 1524.2656,228.2031 Q1524.5313,227.9375 1524.6719,227.8594 Q1524.8281,227.7813 1525.0313,227.7813 Q1525.3594,227.7813 1525.6094,228.0469 Q1525.875,228.2969 1525.875,228.6406 Q1525.875,228.9844 1525.5313,229.3906 Q1525.0313,229.9688 1524.2344,230.2969 Q1523.1563,230.75 1521.8594,230.75 Q1520.3438,230.75 1519.1406,230.125 Q1518.1563,229.625 1517.4688,228.5625 Q1516.7813,227.4844 1516.7813,226.2031 L1516.7813,225.0469 Q1516.7813,223.7188 1517.3906,222.5781 Q1518.0156,221.4219 1519.1094,220.8125 Q1520.2031,220.1875 1521.4375,220.1875 Q1522.1719,220.1875 1522.8125,220.3594 Q1523.4688,220.5156 1524.0156,220.875 Z " fill="#000000"/><text fill="#000000" font-family="sans-serif" font-size="14" lengthAdjust="spacing" textLength="148" x="1541.75" y="230.7969">OrganizationRepository</text><line style="stroke:#181818;stroke-width:0.5;" x1="1356.5" x2="1842.5" y1="241" y2="241"/><text fill="#000000" font-family="sans-serif" font-size="14" lengthAdjust="spacing" textLength="215" x="1361.5" y="260.1074">-organizations: List&lt;Organization&gt;</text><line style="stroke:#181818;stroke-width:0.5;" x1="1356.5" x2="1842.5" y1="267.6211" y2="267.6211"/><text fill="#000000" font-family="sans-serif" font-size="14" lengthAdjust="spacing" textLength="476" x="1361.5" y="286.7285">+Optional&lt;Organization&gt; getOrganizationByEmployee(Employee employee)</text><text fill="#000000" font-family="sans-serif" font-size="14" lengthAdjust="spacing" textLength="457" x="1361.5" y="305.3496">+Optional&lt;Organization&gt; getOrganizationByEmployeeEmail(String email)</text><text fill="#000000" font-family="sans-serif" font-size="14" lengthAdjust="spacing" textLength="356" x="1361.5" y="323.9707">+Optional&lt;Organization&gt; add(Organization organization)</text></g><!--link ToDoListController to Repositories--><g id="link_ToDoListController_Repositories"><path codeLine="96" d="M1268.04,77.5 C1279.79,77.5 1285.55,77.5 1297.31,77.5 " fill="none" id="ToDoListController-to-Repositories" style="stroke:#181818;stroke-width:1.0;stroke-dasharray:7.0,7.0;"/><polygon fill="#181818" points="1303.31,77.5,1294.31,73.5,1298.31,77.5,1294.31,81.5,1303.31,77.5" style="stroke:#181818;stroke-width:1.0;"/></g><!--link Repositories to ToDoListRepository--><g id="link_Repositories_ToDoListRepository"><path codeLine="97" d="M1411.3,129.76 C1385.52,151.76 1357.85,179.25 1338.5,209 C1308.53,255.08 1290.0599,307.581 1277.4199,355.181 " fill="none" id="Repositories-to-ToDoListRepository" style="stroke:#181818;stroke-width:1.0;"/><polygon fill="#181818" points="1275.88,360.98,1282.0559,353.3081,1277.1633,356.1475,1274.3238,351.2549,1275.88,360.98" style="stroke:#181818;stroke-width:1.0;"/></g><!--link Repositories to OrganizationRepository--><g id="link_Repositories_OrganizationRepository"><path codeLine="98" d="M1512.39,129.55 C1527.6,153.91 1542.7309,178.1314 1558.6309,203.5814 " fill="none" id="Repositories-to-OrganizationRepository" style="stroke:#181818;stroke-width:1.0;"/><polygon fill="#181818" points="1561.81,208.67,1560.4337,198.9178,1559.1608,204.4295,1553.649,203.1566,1561.81,208.67" style="stroke:#181818;stroke-width:1.0;"/></g><!--link OrganizationRepository to Organization--><g id="link_OrganizationRepository_Organization"><path codeLine="99" d="M1603.44,331.07 C1607.43,391.85 1613.3466,482.1129 1618.6466,562.7829 " fill="none" id="OrganizationRepository-to-Organization" style="stroke:#181818;stroke-width:1.0;"/><polygon fill="#181818" points="1619.04,568.77,1622.4414,559.5271,1618.7122,563.7808,1614.4586,560.0516,1619.04,568.77" style="stroke:#181818;stroke-width:1.0;"/></g><!--link ToDoListUI to ToDoListController--><g id="link_ToDoListUI_ToDoListController"><path codeLine="100" d="M210.07,77.5 C221.63,77.5 227.19,77.5 238.75,77.5 " fill="none" id="ToDoListUI-to-ToDoListController" style="stroke:#181818;stroke-width:1.0;stroke-dasharray:7.0,7.0;"/><polygon fill="#181818" points="244.75,77.5,235.75,73.5,239.75,77.5,235.75,81.5,244.75,77.5" style="stroke:#181818;stroke-width:1.0;"/></g><!--link ToDoListRepository to ToDoList--><g id="link_ToDoListRepository_ToDoList"><path codeLine="101" d="M1012.03,539.12 C1002.17,548.13 993.22,558.07 985.5,569 C944.91,626.52 939.7446,797.6211 942.3246,931.7111 " fill="none" id="ToDoListRepository-to-ToDoList" style="stroke:#181818;stroke-width:1.0;"/><polygon fill="#181818" points="942.44,937.71,946.2661,928.6347,942.3438,932.7109,938.2676,928.7886,942.44,937.71" style="stroke:#181818;stroke-width:1.0;"/></g><!--link ToDoListController to ToDoList--><g id="link_ToDoListController_ToDoList"><path codeLine="102" d="M734.73,148.21 C694.79,288.63 622.47,613.14 720.5,859 C731.57,886.77 743.9228,908.3954 762.3328,932.8654 " fill="none" id="ToDoListController-to-ToDoList" style="stroke:#181818;stroke-width:1.0;"/><polygon fill="#181818" points="765.94,937.66,763.7256,928.0633,762.934,933.6645,757.3328,932.8729,765.94,937.66" style="stroke:#181818;stroke-width:1.0;"/></g><!--link ApplicationSession to UserSession--><g id="link_ApplicationSession_UserSession"><path codeLine="103" d="M880.98,312.55 C865.44,326.09 850.64,342.47 841.5,361 C788.83,467.86 801.4669,609.5939 810.9969,674.3839 " fill="none" id="ApplicationSession-to-UserSession" style="stroke:#181818;stroke-width:1.0;"/><polygon fill="#181818" points="811.87,680.32,814.5177,670.8337,811.1424,675.3732,806.6029,671.9979,811.87,680.32" style="stroke:#181818;stroke-width:1.0;"/><text fill="#000000" font-family="sans-serif" font-size="13" lengthAdjust="spacing" textLength="72" x="842.5" y="455.5283">userSession</text></g><!--link ToDoListController to ApplicationSession--><g id="link_ToDoListController_ApplicationSession"><path codeLine="104" d="M824.81,148.08 C850.89,174.66 875.5963,199.8288 898.3563,223.0088 " fill="none" id="ToDoListController-to-ApplicationSession" style="stroke:#181818;stroke-width:1.0;stroke-dasharray:7.0,7.0;"/><polygon fill="#181818" points="902.56,227.29,899.1087,218.0657,899.0569,223.7223,893.4003,223.6706,902.56,227.29" style="stroke:#181818;stroke-width:1.0;"/></g><!--link ToDoListController to UserSession--><g id="link_ToDoListController_UserSession"><path codeLine="105" d="M761.49,148.02 C768.17,238.25 780.89,400.56 795.5,539 C800.71,588.36 807.3901,639.4549 812.1501,674.3949 " fill="none" id="ToDoListController-to-UserSession" style="stroke:#181818;stroke-width:1.0;stroke-dasharray:7.0,7.0;"/><polygon fill="#181818" points="812.96,680.34,815.7085,670.8824,812.2851,675.3858,807.7817,671.9623,812.96,680.34" style="stroke:#181818;stroke-width:1.0;"/></g><!--link Organization to ToDoList--><g id="link_Organization_ToDoList"><path codeLine="106" d="M1374.7,859.09 C1329.4,884.81 1287.1477,908.7977 1241.0177,934.9877 " fill="none" id="Organization-to-ToDoList" style="stroke:#181818;stroke-width:1.0;stroke-dasharray:7.0,7.0;"/><polygon fill="#181818" points="1235.8,937.95,1245.6015,936.985,1240.1481,935.4814,1241.6517,930.028,1235.8,937.95" style="stroke:#181818;stroke-width:1.0;"/><text fill="#000000" font-family="sans-serif" font-size="13" lengthAdjust="spacing" textLength="145" x="1309.5" y="904.0283">create a To Do List Entry</text></g><!--SRC=[lLRTRjiW5BxFKt3fgcwrwsYAr3NH5cbgfRbz089FN5G25k1sxhHt7yQ60CRHThFUr3c_t_dX0_LAUOibFg4MarVSGALx1aW2qPWt35RA6wWNN8jtoXjqn4o56aOvwBu5r0hM3pzoEY6r2EI4OQNkj9Rqq6dO4y4h-W7eqsfbDUX9RCLtgZJwjKBcxmPfh5wte8YahQQ2hr5bV7apQJlP02Tz8eMVhIa4wcqdyUX4kPvqZGJWobGD3_W4YQFIM7SgpQ50xawOCY-tYckFjLZ0MARmoZooSW5KcU0fvr2k9YWDwASOH74LbM5DdaSuETKk0JROkAPPWwyHn5o8oeBDvdMmPqhbtU9IZTsReFLaHPZWDgNh-EftkYy_e1MAQY7xy-PCAXDq-FVPcMxS_71T5yxe7DkaURGTn2nmyRNSCUQajjOaz6ZNjJNMuAGxhcLVZBBQ_eYo1OMEyHV37Ycll_Jfe1Usxr8TOo0_bZjUs_5MVhopHPjsj4ftT0vrDffxOKeMZ86SZUOyjNLcakavEmSgtDuJ2RD6_xVJ2D59lD3kU1scXL-4oU6zkd0OuXqSIgQGsqG_1zzGOpTDuDhMGiaGRC_DDoVsV8Mc0RFC9XEUnM1UtkDHDfZJ3zlKs2klcI_Dyzul2_5ZNsTMmJ4tmPmF5jNuuMw2Ixpzl2yWHwQoi_HdU-w13OUb0gKCRj_41MhpFdTjooYnjQQk-VxF7SwPxZifWUj9FbW7aCuvmmRx5lBvLVSE1zFxLDg-6APDRzEeXwFi3Uk7xdIm3G_bTWTtfvQ97c1ZNCSl5Qe7_jhOUrsvYOIWYrbiDvU340mmdwAgmkNnQPpX-I3QL1D9cEzY36ZUEKSmpIHGJYbGVJw9NaRvKSWJPjkCJWDvuMPKiTBG1wedCYbHBRg3ULGHeGof3Edl3OnckA9qyAD4YtMuWZ7ldSqthCPrct3OuSpiwzhPNsXIk2ZJ3PjVeypTAWArkrz35t_7-b54sfGZllH_WVSV8ostQI7Iy1o8cX8MQLkJkT5kDp5fHcHxSxF9qUJCPe4K5sQGUgm2phpTv2WoyqWAeUNgYlGP7Xlq8IMkxTlKiL6kKGPQXjuMB4DgYsPo6rHeaev76s4ZGrjXzn3PLy0V]--></g></svg>