<?xml version="1.0" encoding="us-ascii" standalone="no"?><svg xmlns="http://www.w3.org/2000/svg" xmlns:xlink="http://www.w3.org/1999/xlink" contentStyleType="text/css" height="609.6px" preserveAspectRatio="none" style="width:2398px;height:609px;background:#FFFFFF;" version="1.1" viewBox="0 0 2398 609" width="2398.4px" zoomAndPan="magnify"><defs/><g><rect fill="#FFFFFF" height="454.5906" style="stroke:#181818;stroke-width:0.8000000000000002;" width="8" x="60" y="74.8969"/><rect fill="#FFFFFF" height="25.0328" style="stroke:#181818;stroke-width:0.8000000000000002;" width="8" x="573.6" y="93.5297"/><rect fill="#FFFFFF" height="393.0922" style="stroke:#181818;stroke-width:0.8000000000000002;" width="8" x="573.6" y="143.5953"/><rect fill="#FFFFFF" height="335.8266" style="stroke:#181818;stroke-width:0.8000000000000002;" width="8" x="1062.4" y="168.6281"/><rect fill="#FFFFFF" height="25.0328" style="stroke:#181818;stroke-width:0.8000000000000002;" width="8" x="1298.4" y="193.6609"/><rect fill="#FFFFFF" height="25.0328" style="stroke:#181818;stroke-width:0.8000000000000002;" width="8" x="1516" y="243.7266"/><rect fill="#FFFFFF" height="25.0328" style="stroke:#181818;stroke-width:0.8000000000000002;" width="8" x="1614.4" y="293.7922"/><rect fill="#FFFFFF" height="25.0328" style="stroke:#181818;stroke-width:0.8000000000000002;" width="8" x="1724.4" y="343.8578"/><rect fill="#FFFFFF" height="85.4984" style="stroke:#181818;stroke-width:0.8000000000000002;" width="8" x="1834.8" y="393.9234"/><rect fill="#FFFFFF" height="60.4656" style="stroke:#181818;stroke-width:0.8000000000000002;" width="8" x="2297.2" y="418.9563"/><line style="stroke:#181818;stroke-width:0.4000000000000001;stroke-dasharray:5.0,5.0;" x1="64" x2="64" y1="66.8969" y2="543.8875"/><line style="stroke:#181818;stroke-width:0.4000000000000001;stroke-dasharray:5.0,5.0;" x1="577.2" x2="577.2" y1="66.8969" y2="543.8875"/><line style="stroke:#181818;stroke-width:0.4000000000000001;stroke-dasharray:5.0,5.0;" x1="1066" x2="1066" y1="66.8969" y2="543.8875"/><line style="stroke:#181818;stroke-width:0.4000000000000001;stroke-dasharray:5.0,5.0;" x1="1302" x2="1302" y1="66.8969" y2="543.8875"/><line style="stroke:#181818;stroke-width:0.4000000000000001;stroke-dasharray:5.0,5.0;" x1="1402.8" x2="1402.8" y1="66.8969" y2="543.8875"/><line style="stroke:#181818;stroke-width:0.4000000000000001;stroke-dasharray:5.0,5.0;" x1="1519.6" x2="1519.6" y1="66.8969" y2="543.8875"/><line style="stroke:#181818;stroke-width:0.4000000000000001;stroke-dasharray:5.0,5.0;" x1="1618" x2="1618" y1="66.8969" y2="543.8875"/><line style="stroke:#181818;stroke-width:0.4000000000000001;stroke-dasharray:5.0,5.0;" x1="1728.4" x2="1728.4" y1="66.8969" y2="543.8875"/><line style="stroke:#181818;stroke-width:0.4000000000000001;stroke-dasharray:5.0,5.0;" x1="1838.8" x2="1838.8" y1="66.8969" y2="543.8875"/><line style="stroke:#181818;stroke-width:0.4000000000000001;stroke-dasharray:5.0,5.0;" x1="2300.8" x2="2300.8" y1="66.8969" y2="543.8875"/><text fill="#000000" font-family="sans-serif" font-size="11.2" lengthAdjust="spacing" textLength="115.2" x="4" y="64.0859">Green Space Manager</text><ellipse cx="64" cy="10.8" fill="#E3E3E3" rx="6.4" ry="6.4" style="stroke:#181818;stroke-width:0.4000000000000001;"/><path d="M64,17.2 L64,38.8 M53.6,23.6 L74.4,23.6 M64,38.8 L53.6,50.8 M64,38.8 L74.4,50.8 " fill="none" style="stroke:#181818;stroke-width:0.4000000000000001;"/><text fill="#000000" font-family="sans-serif" font-size="11.2" lengthAdjust="spacing" textLength="115.2" x="4" y="555.1734">Green Space Manager</text><ellipse cx="64" cy="564.7844" fill="#E3E3E3" rx="6.4" ry="6.4" style="stroke:#181818;stroke-width:0.4000000000000001;"/><path d="M64,571.1844 L64,592.7844 M53.6,577.5844 L74.4,577.5844 M64,592.7844 L53.6,604.7844 M64,592.7844 L74.4,604.7844 " fill="none" style="stroke:#181818;stroke-width:0.4000000000000001;"/><rect fill="#E3E3E3" height="26.0969" rx="2" ry="2" style="stroke:#181818;stroke-width:0.4000000000000001;" width="66.4" x="544.4" y="40"/><text fill="#000000" font-family="sans-serif" font-size="11.2" lengthAdjust="spacing" textLength="55.2" x="550" y="57.6859">ToDoListUI</text><rect fill="#E3E3E3" height="26.0969" rx="2" ry="2" style="stroke:#181818;stroke-width:0.4000000000000001;" width="66.4" x="544.4" y="543.0875"/><text fill="#000000" font-family="sans-serif" font-size="11.2" lengthAdjust="spacing" textLength="55.2" x="550" y="560.7734">ToDoListUI</text><rect fill="#E3E3E3" height="26.0969" rx="2" ry="2" style="stroke:#181818;stroke-width:0.4000000000000001;" width="106.4" x="1013.2" y="40"/><text fill="#000000" font-family="sans-serif" font-size="11.2" lengthAdjust="spacing" textLength="95.2" x="1018.8" y="57.6859">ToDoListController</text><rect fill="#E3E3E3" height="26.0969" rx="2" ry="2" style="stroke:#181818;stroke-width:0.4000000000000001;" width="106.4" x="1013.2" y="543.0875"/><text fill="#000000" font-family="sans-serif" font-size="11.2" lengthAdjust="spacing" textLength="95.2" x="1018.8" y="560.7734">ToDoListController</text><rect fill="#E3E3E3" height="26.0969" rx="2" ry="2" style="stroke:#181818;stroke-width:0.4000000000000001;" width="74.4" x="1265.2" y="40"/><text fill="#000000" font-family="sans-serif" font-size="11.2" lengthAdjust="spacing" textLength="63.2" x="1270.8" y="57.6859">Repositories</text><rect fill="#E3E3E3" height="26.0969" rx="2" ry="2" style="stroke:#181818;stroke-width:0.4000000000000001;" width="74.4" x="1265.2" y="543.0875"/><text fill="#000000" font-family="sans-serif" font-size="11.2" lengthAdjust="spacing" textLength="63.2" x="1270.8" y="560.7734">Repositories</text><rect fill="#E3E3E3" height="26.0969" rx="2" ry="2" style="stroke:#181818;stroke-width:0.4000000000000001;" width="111.2" x="1347.6" y="40"/><text fill="#000000" font-family="sans-serif" font-size="11.2" lengthAdjust="spacing" textLength="100" x="1353.2" y="57.6859">ToDoListRepository</text><rect fill="#E3E3E3" height="26.0969" rx="2" ry="2" style="stroke:#181818;stroke-width:0.4000000000000001;" width="111.2" x="1347.6" y="543.0875"/><text fill="#000000" font-family="sans-serif" font-size="11.2" lengthAdjust="spacing" textLength="100" x="1353.2" y="560.7734">ToDoListRepository</text><rect fill="#E3E3E3" height="26.0969" rx="2" ry="2" style="stroke:#181818;stroke-width:0.4000000000000001;" width="106.4" x="1466.8" y="40"/><text fill="#000000" font-family="sans-serif" font-size="11.2" lengthAdjust="spacing" textLength="95.2" x="1472.4" y="57.6859">ApplicationSession</text><rect fill="#E3E3E3" height="26.0969" rx="2" ry="2" style="stroke:#181818;stroke-width:0.4000000000000001;" width="106.4" x="1466.8" y="543.0875"/><text fill="#000000" font-family="sans-serif" font-size="11.2" lengthAdjust="spacing" textLength="95.2" x="1472.4" y="560.7734">ApplicationSession</text><rect fill="#E3E3E3" height="26.0969" rx="2" ry="2" style="stroke:#181818;stroke-width:0.4000000000000001;" width="74.4" x="1581.2" y="40"/><text fill="#000000" font-family="sans-serif" font-size="11.2" lengthAdjust="spacing" textLength="63.2" x="1586.8" y="57.6859">UserSession</text><rect fill="#E3E3E3" height="26.0969" rx="2" ry="2" style="stroke:#181818;stroke-width:0.4000000000000001;" width="74.4" x="1581.2" y="543.0875"/><text fill="#000000" font-family="sans-serif" font-size="11.2" lengthAdjust="spacing" textLength="63.2" x="1586.8" y="560.7734">UserSession</text><rect fill="#E3E3E3" height="26.0969" rx="2" ry="2" style="stroke:#181818;stroke-width:0.4000000000000001;" width="129.6" x="1663.6" y="40"/><text fill="#000000" font-family="sans-serif" font-size="11.2" lengthAdjust="spacing" textLength="118.4" x="1669.2" y="57.6859">OrganizationRepository</text><rect fill="#E3E3E3" height="26.0969" rx="2" ry="2" style="stroke:#181818;stroke-width:0.4000000000000001;" width="129.6" x="1663.6" y="543.0875"/><text fill="#000000" font-family="sans-serif" font-size="11.2" lengthAdjust="spacing" textLength="118.4" x="1669.2" y="560.7734">OrganizationRepository</text><rect fill="#E3E3E3" height="26.0969" rx="2" ry="2" style="stroke:#181818;stroke-width:0.4000000000000001;" width="75.2" x="1801.2" y="40"/><text fill="#000000" font-family="sans-serif" font-size="11.2" lengthAdjust="spacing" textLength="64" x="1806.8" y="57.6859">Organization</text><rect fill="#E3E3E3" height="26.0969" rx="2" ry="2" style="stroke:#181818;stroke-width:0.4000000000000001;" width="75.2" x="1801.2" y="543.0875"/><text fill="#000000" font-family="sans-serif" font-size="11.2" lengthAdjust="spacing" textLength="64" x="1806.8" y="560.7734">Organization</text><rect fill="#E3E3E3" height="26.0969" rx="2" ry="2" style="stroke:#181818;stroke-width:0.4000000000000001;" width="56.8" x="2272.8" y="40"/><text fill="#000000" font-family="sans-serif" font-size="11.2" lengthAdjust="spacing" textLength="45.6" x="2278.4" y="57.6859">ToDoList</text><rect fill="#E3E3E3" height="26.0969" rx="2" ry="2" style="stroke:#181818;stroke-width:0.4000000000000001;" width="56.8" x="2272.8" y="543.0875"/><text fill="#000000" font-family="sans-serif" font-size="11.2" lengthAdjust="spacing" textLength="45.6" x="2278.4" y="560.7734">ToDoList</text><rect fill="#FFFFFF" height="454.5906" style="stroke:#181818;stroke-width:0.8000000000000002;" width="8" x="60" y="74.8969"/><rect fill="#FFFFFF" height="25.0328" style="stroke:#181818;stroke-width:0.8000000000000002;" width="8" x="573.6" y="93.5297"/><rect fill="#FFFFFF" height="393.0922" style="stroke:#181818;stroke-width:0.8000000000000002;" width="8" x="573.6" y="143.5953"/><rect fill="#FFFFFF" height="335.8266" style="stroke:#181818;stroke-width:0.8000000000000002;" width="8" x="1062.4" y="168.6281"/><rect fill="#FFFFFF" height="25.0328" style="stroke:#181818;stroke-width:0.8000000000000002;" width="8" x="1298.4" y="193.6609"/><rect fill="#FFFFFF" height="25.0328" style="stroke:#181818;stroke-width:0.8000000000000002;" width="8" x="1516" y="243.7266"/><rect fill="#FFFFFF" height="25.0328" style="stroke:#181818;stroke-width:0.8000000000000002;" width="8" x="1614.4" y="293.7922"/><rect fill="#FFFFFF" height="25.0328" style="stroke:#181818;stroke-width:0.8000000000000002;" width="8" x="1724.4" y="343.8578"/><rect fill="#FFFFFF" height="85.4984" style="stroke:#181818;stroke-width:0.8000000000000002;" width="8" x="1834.8" y="393.9234"/><rect fill="#FFFFFF" height="60.4656" style="stroke:#181818;stroke-width:0.8000000000000002;" width="8" x="2297.2" y="418.9563"/><polygon fill="#181818" points="564,90.3297,572,93.5297,564,96.7297,567.2,93.5297" style="stroke:#181818;stroke-width:0.8000000000000002;"/><line style="stroke:#181818;stroke-width:0.8000000000000002;" x1="68" x2="568.8" y1="93.5297" y2="93.5297"/><text fill="#000000" font-family="sans-serif" font-size="10.4" font-weight="bold" lengthAdjust="spacing" textLength="5.6" x="73.6" y="89.3195">1</text><text fill="#000000" font-family="sans-serif" font-size="10.4" lengthAdjust="spacing" textLength="163.2" x="82.4" y="89.3195">requests to add new to-do list entry</text><polygon fill="#181818" points="76.8,115.3625,68.8,118.5625,76.8,121.7625,73.6,118.5625" style="stroke:#181818;stroke-width:0.8000000000000002;"/><line style="stroke:#181818;stroke-width:0.8000000000000002;stroke-dasharray:2.0,2.0;" x1="72" x2="576.8" y1="118.5625" y2="118.5625"/><text fill="#000000" font-family="sans-serif" font-size="10.4" font-weight="bold" lengthAdjust="spacing" textLength="5.6" x="81.6" y="114.3523">2</text><text fill="#000000" font-family="sans-serif" font-size="10.4" lengthAdjust="spacing" textLength="477.6" x="90.4" y="114.3523">prompts for required fields (e.g., taskDescription, urgency, expectedDuration, greenspaceName, status)</text><polygon fill="#181818" points="564,140.3953,572,143.5953,564,146.7953,567.2,143.5953" style="stroke:#181818;stroke-width:0.8000000000000002;"/><line style="stroke:#181818;stroke-width:0.8000000000000002;" x1="68" x2="568.8" y1="143.5953" y2="143.5953"/><text fill="#000000" font-family="sans-serif" font-size="10.4" font-weight="bold" lengthAdjust="spacing" textLength="5.6" x="73.6" y="139.3852">3</text><text fill="#000000" font-family="sans-serif" font-size="10.4" lengthAdjust="spacing" textLength="480" x="82.4" y="139.3852">provides to-do list details (taskDescription, urgency, expectedDuration, greenspaceName, status, email)</text><polygon fill="#181818" points="1052.8,165.4281,1060.8,168.6281,1052.8,171.8281,1056,168.6281" style="stroke:#181818;stroke-width:0.8000000000000002;"/><line style="stroke:#181818;stroke-width:0.8000000000000002;" x1="581.6" x2="1057.6" y1="168.6281" y2="168.6281"/><text fill="#000000" font-family="sans-serif" font-size="10.4" font-weight="bold" lengthAdjust="spacing" textLength="5.6" x="587.2" y="164.418">4</text><text fill="#000000" font-family="sans-serif" font-size="10.4" lengthAdjust="spacing" textLength="456.8" x="596" y="164.418">createToDoListEntry(taskDescription, urgency, expectedDuration, greenspaceName, status, email)</text><polygon fill="#181818" points="1288.8,190.4609,1296.8,193.6609,1288.8,196.8609,1292,193.6609" style="stroke:#181818;stroke-width:0.8000000000000002;"/><line style="stroke:#181818;stroke-width:0.8000000000000002;" x1="1070.4" x2="1293.6" y1="193.6609" y2="193.6609"/><text fill="#000000" font-family="sans-serif" font-size="10.4" font-weight="bold" lengthAdjust="spacing" textLength="5.6" x="1076" y="189.4508">5</text><text fill="#000000" font-family="sans-serif" font-size="10.4" lengthAdjust="spacing" textLength="60" x="1084.8" y="189.4508">getInstance()</text><polygon fill="#181818" points="1079.2,215.4938,1071.2,218.6938,1079.2,221.8938,1076,218.6938" style="stroke:#181818;stroke-width:0.8000000000000002;"/><line style="stroke:#181818;stroke-width:0.8000000000000002;stroke-dasharray:2.0,2.0;" x1="1074.4" x2="1301.6" y1="218.6938" y2="218.6938"/><text fill="#000000" font-family="sans-serif" font-size="10.4" font-weight="bold" lengthAdjust="spacing" textLength="5.6" x="1084" y="214.4836">6</text><text fill="#000000" font-family="sans-serif" font-size="10.4" lengthAdjust="spacing" textLength="200" x="1092.8" y="214.4836">toDoListRepository, organizationRepository</text><polygon fill="#181818" points="1506.4,240.5266,1514.4,243.7266,1506.4,246.9266,1509.6,243.7266" style="stroke:#181818;stroke-width:0.8000000000000002;"/><line style="stroke:#181818;stroke-width:0.8000000000000002;" x1="1070.4" x2="1511.2" y1="243.7266" y2="243.7266"/><text fill="#000000" font-family="sans-serif" font-size="10.4" font-weight="bold" lengthAdjust="spacing" textLength="5.6" x="1076" y="239.5164">7</text><text fill="#000000" font-family="sans-serif" font-size="10.4" lengthAdjust="spacing" textLength="60" x="1084.8" y="239.5164">getInstance()</text><polygon fill="#181818" points="1079.2,265.5594,1071.2,268.7594,1079.2,271.9594,1076,268.7594" style="stroke:#181818;stroke-width:0.8000000000000002;"/><line style="stroke:#181818;stroke-width:0.8000000000000002;" x1="1074.4" x2="1519.2" y1="268.7594" y2="268.7594"/><text fill="#000000" font-family="sans-serif" font-size="10.4" font-weight="bold" lengthAdjust="spacing" textLength="5.6" x="1084" y="264.5492">8</text><text fill="#000000" font-family="sans-serif" font-size="10.4" lengthAdjust="spacing" textLength="92" x="1092.8" y="264.5492">getCurrentSession()</text><polygon fill="#181818" points="1604.8,290.5922,1612.8,293.7922,1604.8,296.9922,1608,293.7922" style="stroke:#181818;stroke-width:0.8000000000000002;"/><line style="stroke:#181818;stroke-width:0.8000000000000002;" x1="1070.4" x2="1609.6" y1="293.7922" y2="293.7922"/><text fill="#000000" font-family="sans-serif" font-size="10.4" font-weight="bold" lengthAdjust="spacing" textLength="5.6" x="1076" y="289.582">9</text><text fill="#000000" font-family="sans-serif" font-size="10.4" lengthAdjust="spacing" textLength="68.8" x="1084.8" y="289.582">getUserEmail()</text><polygon fill="#181818" points="1079.2,315.625,1071.2,318.825,1079.2,322.025,1076,318.825" style="stroke:#181818;stroke-width:0.8000000000000002;"/><line style="stroke:#181818;stroke-width:0.8000000000000002;stroke-dasharray:2.0,2.0;" x1="1074.4" x2="1617.6" y1="318.825" y2="318.825"/><text fill="#000000" font-family="sans-serif" font-size="10.4" font-weight="bold" lengthAdjust="spacing" textLength="11.2" x="1084" y="314.6148">10</text><text fill="#000000" font-family="sans-serif" font-size="10.4" lengthAdjust="spacing" textLength="24.8" x="1098.4" y="314.6148">email</text><polygon fill="#181818" points="1714.8,340.6578,1722.8,343.8578,1714.8,347.0578,1718,343.8578" style="stroke:#181818;stroke-width:0.8000000000000002;"/><line style="stroke:#181818;stroke-width:0.8000000000000002;" x1="1070.4" x2="1719.6" y1="343.8578" y2="343.8578"/><text fill="#000000" font-family="sans-serif" font-size="10.4" font-weight="bold" lengthAdjust="spacing" textLength="11.2" x="1076" y="339.6477">11</text><text fill="#000000" font-family="sans-serif" font-size="10.4" lengthAdjust="spacing" textLength="189.6" x="1090.4" y="339.6477">getOrganizationByEmployeeEmail(email)</text><polygon fill="#181818" points="1079.2,365.6906,1071.2,368.8906,1079.2,372.0906,1076,368.8906" style="stroke:#181818;stroke-width:0.8000000000000002;"/><line style="stroke:#181818;stroke-width:0.8000000000000002;stroke-dasharray:2.0,2.0;" x1="1074.4" x2="1727.6" y1="368.8906" y2="368.8906"/><text fill="#000000" font-family="sans-serif" font-size="10.4" font-weight="bold" lengthAdjust="spacing" textLength="11.2" x="1084" y="364.6805">12</text><text fill="#000000" font-family="sans-serif" font-size="10.4" lengthAdjust="spacing" textLength="56" x="1098.4" y="364.6805">organization</text><polygon fill="#181818" points="1825.2,390.7234,1833.2,393.9234,1825.2,397.1234,1828.4,393.9234" style="stroke:#181818;stroke-width:0.8000000000000002;"/><line style="stroke:#181818;stroke-width:0.8000000000000002;" x1="1070.4" x2="1830" y1="393.9234" y2="393.9234"/><text fill="#000000" font-family="sans-serif" font-size="10.4" font-weight="bold" lengthAdjust="spacing" textLength="11.2" x="1076" y="389.7133">13</text><text fill="#000000" font-family="sans-serif" font-size="10.4" lengthAdjust="spacing" textLength="456.8" x="1090.4" y="389.7133">createToDoListEntry(taskDescription, urgency, expectedDuration, greenspaceName, status, email)</text><polygon fill="#181818" points="2287.6,415.7563,2295.6,418.9563,2287.6,422.1563,2290.8,418.9563" style="stroke:#181818;stroke-width:0.8000000000000002;"/><line style="stroke:#181818;stroke-width:0.8000000000000002;" x1="1842.8" x2="2292.4" y1="418.9563" y2="418.9563"/><text fill="#000000" font-family="sans-serif" font-size="10.4" font-weight="bold" lengthAdjust="spacing" textLength="11.2" x="1848.4" y="414.7461">14</text><text fill="#000000" font-family="sans-serif" font-size="10.4" lengthAdjust="spacing" textLength="424.8" x="1862.8" y="414.7461">new ToDoList(taskDescription, urgency, expectedDuration, greenspaceName, status, email)</text><line style="stroke:#181818;stroke-width:0.8000000000000002;" x1="2305.2" x2="2338.8" y1="443.9891" y2="443.9891"/><line style="stroke:#181818;stroke-width:0.8000000000000002;" x1="2338.8" x2="2338.8" y1="443.9891" y2="454.3891"/><line style="stroke:#181818;stroke-width:0.8000000000000002;" x1="2306" x2="2338.8" y1="454.3891" y2="454.3891"/><polygon fill="#181818" points="2314,451.1891,2306,454.3891,2314,457.5891,2310.8,454.3891" style="stroke:#181818;stroke-width:0.8000000000000002;"/><text fill="#000000" font-family="sans-serif" font-size="10.4" font-weight="bold" lengthAdjust="spacing" textLength="11.2" x="2310.8" y="439.7789">15</text><text fill="#000000" font-family="sans-serif" font-size="10.4" lengthAdjust="spacing" textLength="68" x="2325.2" y="439.7789">validate details</text><polygon fill="#181818" points="1412,476.2219,1404,479.4219,1412,482.6219,1408.8,479.4219" style="stroke:#181818;stroke-width:0.8000000000000002;"/><line style="stroke:#181818;stroke-width:0.8000000000000002;" x1="1407.2" x2="2300.4" y1="479.4219" y2="479.4219"/><text fill="#000000" font-family="sans-serif" font-size="10.4" font-weight="bold" lengthAdjust="spacing" textLength="11.2" x="1416.8" y="475.2117">16</text><text fill="#000000" font-family="sans-serif" font-size="10.4" lengthAdjust="spacing" textLength="72.8" x="1431.2" y="475.2117">add(TODOLIST)</text><polygon fill="#181818" points="590.4,501.2547,582.4,504.4547,590.4,507.6547,587.2,504.4547" style="stroke:#181818;stroke-width:0.8000000000000002;"/><line style="stroke:#181818;stroke-width:0.8000000000000002;stroke-dasharray:2.0,2.0;" x1="585.6" x2="1065.6" y1="504.4547" y2="504.4547"/><text fill="#000000" font-family="sans-serif" font-size="10.4" font-weight="bold" lengthAdjust="spacing" textLength="11.2" x="595.2" y="500.2445">17</text><text fill="#000000" font-family="sans-serif" font-size="10.4" lengthAdjust="spacing" textLength="201.6" x="609.6" y="500.2445">confirms successful to-do list entry creation</text><polygon fill="#181818" points="72.8,526.2875,64.8,529.4875,72.8,532.6875,69.6,529.4875" style="stroke:#181818;stroke-width:0.8000000000000002;"/><line style="stroke:#181818;stroke-width:0.8000000000000002;stroke-dasharray:2.0,2.0;" x1="68" x2="572.8" y1="529.4875" y2="529.4875"/><text fill="#000000" font-family="sans-serif" font-size="10.4" font-weight="bold" lengthAdjust="spacing" textLength="11.2" x="77.6" y="525.2773">18</text><text fill="#000000" font-family="sans-serif" font-size="10.4" lengthAdjust="spacing" textLength="201.6" x="92" y="525.2773">confirms successful to-do list entry creation</text><!--SRC=[lLLDRzim3BtdLn0zfK3I7z13WQm92WDPKyJ9PJTDPboXjkH9Shliru-IOqUAxQx3FdIn8P5FZ-8ZQLw4h9Xc9PHAAlwiLObWTOqJqvrKZB-m75DxB10qSijaNeG6vfbbwat870wiC3YPiDegMPTVKTC_jqh3rOD6b90I5i9d9WbFNm4pi4zNsmd1MC55nQI5gvrQghKmTfyq1idmyRsILgkYEE7SxxRhs72BbJA2BXTel4cuCOpPMHozGtyxTbjKLI4uiqB958sXZtTRF3t5Tdk3EZH8LscQR1vZeutEcHG_FDe5Z-6ZSVV6QVkmU4o-B7QzczgmcXWtoyqwINS-KUALMMnICW5QxW_cTvG3kANCVwlHM0DM0SioaFX6l_DCGK5WW9IEe_Sw0oKDZ8TAOEwG7E8jLAIpYg0E90s7ApHcS11OP0QcU9FVpC0oyx94mxMeN4mpg7MEaXzdWDyh4Y5corgpvYXtuZ9EMu-in1aOosnjhltb6VRuH64HbLUHeGbZoT0oKH2LFoT1bYLXNR__CdTUlyI6QwJpDaChzwP_cqH4n9TDj-sM9qA4mceXOZdQH1AQv3YzZXmwhAY-8XEt8hpvEMBRAx8Pg671Xt11MiVlRMEXYlnG1AvoUyHfiqsG1xcljIQndmhw0YgWrGDhsPpAtuEvrh1okHcZrFQA7gtJGVUKjqsEnzWCuhICXXjCa_NmxDDnLLQ5EY8sd2zK5H4VQLgzE4Rk3XGIgc4il8_SraKRTCR_LtBnuuJDkVya8K4YtFPe8kkQRalrNx6Cc9xd0moiZbdCyfKL8dFUfqRwQzzU4o0K6ZBJrgZFC4Z-CCTG7QFFtMYYdGLSoOFGfG5JSqxrVQYBteXhzD9ACRZat4hZMVTxe9DmNhb1_1C0]--></g></svg>