<?xml version="1.0" encoding="us-ascii" standalone="no"?><svg xmlns="http://www.w3.org/2000/svg" xmlns:xlink="http://www.w3.org/1999/xlink" contentStyleType="text/css" height="959px" preserveAspectRatio="none" style="width:2343px;height:959px;background:#FFFFFF;" version="1.1" viewBox="0 0 2343 959" width="2343px" zoomAndPan="magnify"><defs/><g><!--class ToDoList--><g id="elem_ToDoList"><rect codeLine="8" fill="#F1F1F1" height="327.3164" id="ToDoList" rx="2.5" ry="2.5" style="stroke:#181818;stroke-width:0.5;" width="845" x="1491" y="625"/><ellipse cx="1880.75" cy="641" fill="#ADD1B2" rx="11" ry="11" style="stroke:#181818;stroke-width:1.0;"/><path d="M1883.5156,636.875 Q1883.6719,636.6563 1883.8594,636.5469 Q1884.0469,636.4375 1884.2656,636.4375 Q1884.6406,636.4375 1884.875,636.7031 Q1885.1094,636.9531 1885.1094,637.5625 L1885.1094,639.0156 Q1885.1094,639.625 1884.875,639.8906 Q1884.6406,640.1563 1884.2656,640.1563 Q1883.9219,640.1563 1883.7188,639.9531 Q1883.5156,639.7656 1883.4063,639.25 Q1883.3594,638.8906 1883.1719,638.7031 Q1882.8438,638.3281 1882.2344,638.1094 Q1881.625,637.8906 1881,637.8906 Q1880.2344,637.8906 1879.5938,638.2188 Q1878.9688,638.5469 1878.4688,639.2969 Q1877.9844,640.0469 1877.9844,641.0781 L1877.9844,642.1719 Q1877.9844,643.4063 1878.875,644.2344 Q1879.7656,645.0469 1881.3594,645.0469 Q1882.2969,645.0469 1882.9531,644.7969 Q1883.3438,644.6406 1883.7656,644.2031 Q1884.0313,643.9375 1884.1719,643.8594 Q1884.3281,643.7813 1884.5313,643.7813 Q1884.8594,643.7813 1885.1094,644.0469 Q1885.375,644.2969 1885.375,644.6406 Q1885.375,644.9844 1885.0313,645.3906 Q1884.5313,645.9688 1883.7344,646.2969 Q1882.6563,646.75 1881.3594,646.75 Q1879.8438,646.75 1878.6406,646.125 Q1877.6563,645.625 1876.9688,644.5625 Q1876.2813,643.4844 1876.2813,642.2031 L1876.2813,641.0469 Q1876.2813,639.7188 1876.8906,638.5781 Q1877.5156,637.4219 1878.6094,636.8125 Q1879.7031,636.1875 1880.9375,636.1875 Q1881.6719,636.1875 1882.3125,636.3594 Q1882.9688,636.5156 1883.5156,636.875 Z " fill="#000000"/><text fill="#000000" font-family="sans-serif" font-size="14" lengthAdjust="spacing" textLength="57" x="1901.25" y="646.7969">ToDoList</text><line style="stroke:#181818;stroke-width:0.5;" x1="1492" x2="2335" y1="657" y2="657"/><text fill="#000000" font-family="sans-serif" font-size="14" lengthAdjust="spacing" textLength="147" x="1497" y="676.1074">-taskDescription: String</text><text fill="#000000" font-family="sans-serif" font-size="14" lengthAdjust="spacing" textLength="101" x="1497" y="694.7285">-urgency: String</text><text fill="#000000" font-family="sans-serif" font-size="14" lengthAdjust="spacing" textLength="139" x="1497" y="713.3496">-expectedDuration: int</text><text fill="#000000" font-family="sans-serif" font-size="14" lengthAdjust="spacing" textLength="161" x="1497" y="731.9707">-greenspaceName: String</text><text fill="#000000" font-family="sans-serif" font-size="14" lengthAdjust="spacing" textLength="88" x="1497" y="750.5918">-status: String</text><text fill="#000000" font-family="sans-serif" font-size="14" lengthAdjust="spacing" textLength="112" x="1497" y="769.2129">-userEmail: String</text><line style="stroke:#181818;stroke-width:0.5;" x1="1492" x2="2335" y1="776.7266" y2="776.7266"/><text fill="#000000" font-family="sans-serif" font-size="14" lengthAdjust="spacing" textLength="833" x="1497" y="795.834">+ToDoList(taskDescription: String, urgency: String, expectedDuration: int, greenspaceName: String, status: String, userEmail: String)</text><text fill="#000000" font-family="sans-serif" font-size="14" lengthAdjust="spacing" textLength="185" x="1497" y="814.4551">+getTaskDescription(): String</text><text fill="#000000" font-family="sans-serif" font-size="14" lengthAdjust="spacing" textLength="135" x="1497" y="833.0762">+getUrgency(): String</text><text fill="#000000" font-family="sans-serif" font-size="14" lengthAdjust="spacing" textLength="173" x="1497" y="851.6973">+getExpectedDuration(): int</text><text fill="#000000" font-family="sans-serif" font-size="14" lengthAdjust="spacing" textLength="197" x="1497" y="870.3184">+getGreenspaceName(): String</text><text fill="#000000" font-family="sans-serif" font-size="14" lengthAdjust="spacing" textLength="123" x="1497" y="888.9395">+getStatus(): String</text><text fill="#000000" font-family="sans-serif" font-size="14" lengthAdjust="spacing" textLength="146" x="1497" y="907.5605">+getUserEmail(): String</text><text fill="#000000" font-family="sans-serif" font-size="14" lengthAdjust="spacing" textLength="194" x="1497" y="926.1816">+setStatus(status: String): void</text><text fill="#000000" font-family="sans-serif" font-size="14" lengthAdjust="spacing" textLength="117" x="1497" y="944.8027">+clone(): ToDoList</text></g><!--class ToDoListRepository--><g id="elem_ToDoListRepository"><rect codeLine="27" fill="#F1F1F1" height="178.3477" id="ToDoListRepository" rx="2.5" ry="2.5" style="stroke:#181818;stroke-width:0.5;" width="649" x="1647" y="7"/><ellipse cx="1904.75" cy="23" fill="#ADD1B2" rx="11" ry="11" style="stroke:#181818;stroke-width:1.0;"/><path d="M1907.5156,18.875 Q1907.6719,18.6563 1907.8594,18.5469 Q1908.0469,18.4375 1908.2656,18.4375 Q1908.6406,18.4375 1908.875,18.7031 Q1909.1094,18.9531 1909.1094,19.5625 L1909.1094,21.0156 Q1909.1094,21.625 1908.875,21.8906 Q1908.6406,22.1563 1908.2656,22.1563 Q1907.9219,22.1563 1907.7188,21.9531 Q1907.5156,21.7656 1907.4063,21.25 Q1907.3594,20.8906 1907.1719,20.7031 Q1906.8438,20.3281 1906.2344,20.1094 Q1905.625,19.8906 1905,19.8906 Q1904.2344,19.8906 1903.5938,20.2188 Q1902.9688,20.5469 1902.4688,21.2969 Q1901.9844,22.0469 1901.9844,23.0781 L1901.9844,24.1719 Q1901.9844,25.4063 1902.875,26.2344 Q1903.7656,27.0469 1905.3594,27.0469 Q1906.2969,27.0469 1906.9531,26.7969 Q1907.3438,26.6406 1907.7656,26.2031 Q1908.0313,25.9375 1908.1719,25.8594 Q1908.3281,25.7813 1908.5313,25.7813 Q1908.8594,25.7813 1909.1094,26.0469 Q1909.375,26.2969 1909.375,26.6406 Q1909.375,26.9844 1909.0313,27.3906 Q1908.5313,27.9688 1907.7344,28.2969 Q1906.6563,28.75 1905.3594,28.75 Q1903.8438,28.75 1902.6406,28.125 Q1901.6563,27.625 1900.9688,26.5625 Q1900.2813,25.4844 1900.2813,24.2031 L1900.2813,23.0469 Q1900.2813,21.7188 1900.8906,20.5781 Q1901.5156,19.4219 1902.6094,18.8125 Q1903.7031,18.1875 1904.9375,18.1875 Q1905.6719,18.1875 1906.3125,18.3594 Q1906.9688,18.5156 1907.5156,18.875 Z " fill="#000000"/><text fill="#000000" font-family="sans-serif" font-size="14" lengthAdjust="spacing" textLength="125" x="1925.25" y="28.7969">ToDoListRepository</text><line style="stroke:#181818;stroke-width:0.5;" x1="1648" x2="2295" y1="39" y2="39"/><text fill="#000000" font-family="sans-serif" font-size="14" lengthAdjust="spacing" textLength="167" x="1653" y="58.1074">-toDoLists: List&lt;ToDoList&gt;</text><line style="stroke:#181818;stroke-width:0.5;" x1="1648" x2="2295" y1="65.6211" y2="65.6211"/><text fill="#000000" font-family="sans-serif" font-size="14" lengthAdjust="spacing" textLength="293" x="1653" y="84.7285">+add(toDoList: ToDoList): Optional&lt;ToDoList&gt;</text><text fill="#000000" font-family="sans-serif" font-size="14" lengthAdjust="spacing" textLength="220" x="1653" y="103.3496">+getAllToDoLists(): List&lt;ToDoList&gt;</text><text fill="#000000" font-family="sans-serif" font-size="14" lengthAdjust="spacing" textLength="336" x="1653" y="121.9707">+updateToDoListEntry(updatedEntry: ToDoList): void</text><text fill="#000000" font-family="sans-serif" font-size="14" lengthAdjust="spacing" textLength="156" x="1653" y="140.5918">+getAll(): List&lt;ToDoList&gt;</text><text fill="#000000" font-family="sans-serif" font-size="14" lengthAdjust="spacing" textLength="435" x="1653" y="159.2129">+findByTaskDescription(taskDescription: String): Optional&lt;ToDoList&gt;</text><text fill="#000000" font-family="sans-serif" font-size="14" lengthAdjust="spacing" textLength="637" x="1653" y="177.834">+findByUserEmailAndGreenSpaceName(userEmail: String, greenSpaceName: String): List&lt;ToDoList&gt;</text></g><!--class ToDoListController--><g id="elem_ToDoListController"><rect codeLine="38" fill="#F1F1F1" height="141.1055" id="ToDoListController" rx="2.5" ry="2.5" style="stroke:#181818;stroke-width:0.5;" width="1023" x="245" y="25.5"/><ellipse cx="692.75" cy="41.5" fill="#ADD1B2" rx="11" ry="11" style="stroke:#181818;stroke-width:1.0;"/><path d="M695.5156,37.375 Q695.6719,37.1563 695.8594,37.0469 Q696.0469,36.9375 696.2656,36.9375 Q696.6406,36.9375 696.875,37.2031 Q697.1094,37.4531 697.1094,38.0625 L697.1094,39.5156 Q697.1094,40.125 696.875,40.3906 Q696.6406,40.6563 696.2656,40.6563 Q695.9219,40.6563 695.7188,40.4531 Q695.5156,40.2656 695.4063,39.75 Q695.3594,39.3906 695.1719,39.2031 Q694.8438,38.8281 694.2344,38.6094 Q693.625,38.3906 693,38.3906 Q692.2344,38.3906 691.5938,38.7188 Q690.9688,39.0469 690.4688,39.7969 Q689.9844,40.5469 689.9844,41.5781 L689.9844,42.6719 Q689.9844,43.9063 690.875,44.7344 Q691.7656,45.5469 693.3594,45.5469 Q694.2969,45.5469 694.9531,45.2969 Q695.3438,45.1406 695.7656,44.7031 Q696.0313,44.4375 696.1719,44.3594 Q696.3281,44.2813 696.5313,44.2813 Q696.8594,44.2813 697.1094,44.5469 Q697.375,44.7969 697.375,45.1406 Q697.375,45.4844 697.0313,45.8906 Q696.5313,46.4688 695.7344,46.7969 Q694.6563,47.25 693.3594,47.25 Q691.8438,47.25 690.6406,46.625 Q689.6563,46.125 688.9688,45.0625 Q688.2813,43.9844 688.2813,42.7031 L688.2813,41.5469 Q688.2813,40.2188 688.8906,39.0781 Q689.5156,37.9219 690.6094,37.3125 Q691.7031,36.6875 692.9375,36.6875 Q693.6719,36.6875 694.3125,36.8594 Q694.9688,37.0156 695.5156,37.375 Z " fill="#000000"/><text fill="#000000" font-family="sans-serif" font-size="14" lengthAdjust="spacing" textLength="119" x="713.25" y="47.2969">ToDoListController</text><line style="stroke:#181818;stroke-width:0.5;" x1="246" x2="1267" y1="57.5" y2="57.5"/><text fill="#000000" font-family="sans-serif" font-size="14" lengthAdjust="spacing" textLength="258" x="251" y="76.6074">-toDoListRepository: ToDoListRepository</text><line style="stroke:#181818;stroke-width:0.5;" x1="246" x2="1267" y1="84.1211" y2="84.1211"/><text fill="#000000" font-family="sans-serif" font-size="14" lengthAdjust="spacing" textLength="137" x="251" y="103.2285">+ToDoListController()</text><text fill="#000000" font-family="sans-serif" font-size="14" lengthAdjust="spacing" textLength="1011" x="251" y="121.8496">+createToDoListEntry(taskDescription: String, urgency: String, expectedDuration: int, greenspaceName: String, status: String, email: String): Optional&lt;ToDoList&gt;</text><text fill="#000000" font-family="sans-serif" font-size="14" lengthAdjust="spacing" textLength="453" x="251" y="140.4707">+updateToDoListStatus(taskDescription: String, newStatus: String): void</text><text fill="#000000" font-family="sans-serif" font-size="14" lengthAdjust="spacing" textLength="257" x="251" y="159.0918">+getAllToDoListEntries(): List&lt;ToDoList&gt;</text></g><!--class Repositories--><g id="elem_Repositories"><rect codeLine="47" fill="#F1F1F1" height="85.2422" id="Repositories" rx="2.5" ry="2.5" style="stroke:#181818;stroke-width:0.5;" width="308" x="1303.5" y="53.5"/><ellipse cx="1413.75" cy="69.5" fill="#ADD1B2" rx="11" ry="11" style="stroke:#181818;stroke-width:1.0;"/><path d="M1416.5156,65.375 Q1416.6719,65.1563 1416.8594,65.0469 Q1417.0469,64.9375 1417.2656,64.9375 Q1417.6406,64.9375 1417.875,65.2031 Q1418.1094,65.4531 1418.1094,66.0625 L1418.1094,67.5156 Q1418.1094,68.125 1417.875,68.3906 Q1417.6406,68.6563 1417.2656,68.6563 Q1416.9219,68.6563 1416.7188,68.4531 Q1416.5156,68.2656 1416.4063,67.75 Q1416.3594,67.3906 1416.1719,67.2031 Q1415.8438,66.8281 1415.2344,66.6094 Q1414.625,66.3906 1414,66.3906 Q1413.2344,66.3906 1412.5938,66.7188 Q1411.9688,67.0469 1411.4688,67.7969 Q1410.9844,68.5469 1410.9844,69.5781 L1410.9844,70.6719 Q1410.9844,71.9063 1411.875,72.7344 Q1412.7656,73.5469 1414.3594,73.5469 Q1415.2969,73.5469 1415.9531,73.2969 Q1416.3438,73.1406 1416.7656,72.7031 Q1417.0313,72.4375 1417.1719,72.3594 Q1417.3281,72.2813 1417.5313,72.2813 Q1417.8594,72.2813 1418.1094,72.5469 Q1418.375,72.7969 1418.375,73.1406 Q1418.375,73.4844 1418.0313,73.8906 Q1417.5313,74.4688 1416.7344,74.7969 Q1415.6563,75.25 1414.3594,75.25 Q1412.8438,75.25 1411.6406,74.625 Q1410.6563,74.125 1409.9688,73.0625 Q1409.2813,71.9844 1409.2813,70.7031 L1409.2813,69.5469 Q1409.2813,68.2188 1409.8906,67.0781 Q1410.5156,65.9219 1411.6094,65.3125 Q1412.7031,64.6875 1413.9375,64.6875 Q1414.6719,64.6875 1415.3125,64.8594 Q1415.9688,65.0156 1416.5156,65.375 Z " fill="#000000"/><text fill="#000000" font-family="sans-serif" font-size="14" lengthAdjust="spacing" textLength="79" x="1434.25" y="75.2969">Repositories</text><line style="stroke:#181818;stroke-width:0.5;" x1="1304.5" x2="1610.5" y1="85.5" y2="85.5"/><line style="stroke:#181818;stroke-width:0.5;" x1="1304.5" x2="1610.5" y1="93.5" y2="93.5"/><text fill="#000000" font-family="sans-serif" font-size="14" lengthAdjust="spacing" textLength="215" x="1309.5" y="112.6074">+static getInstance(): Repositories</text><text fill="#000000" font-family="sans-serif" font-size="14" lengthAdjust="spacing" textLength="296" x="1309.5" y="131.2285">+getToDoListRepository(): ToDoListRepository</text></g><!--class ToDoListUI--><g id="elem_ToDoListUI"><rect codeLine="52" fill="#F1F1F1" height="141.1055" id="ToDoListUI" rx="2.5" ry="2.5" style="stroke:#181818;stroke-width:0.5;" width="203" x="7" y="25.5"/><ellipse cx="69.75" cy="41.5" fill="#ADD1B2" rx="11" ry="11" style="stroke:#181818;stroke-width:1.0;"/><path d="M72.5156,37.375 Q72.6719,37.1563 72.8594,37.0469 Q73.0469,36.9375 73.2656,36.9375 Q73.6406,36.9375 73.875,37.2031 Q74.1094,37.4531 74.1094,38.0625 L74.1094,39.5156 Q74.1094,40.125 73.875,40.3906 Q73.6406,40.6563 73.2656,40.6563 Q72.9219,40.6563 72.7188,40.4531 Q72.5156,40.2656 72.4063,39.75 Q72.3594,39.3906 72.1719,39.2031 Q71.8438,38.8281 71.2344,38.6094 Q70.625,38.3906 70,38.3906 Q69.2344,38.3906 68.5938,38.7188 Q67.9688,39.0469 67.4688,39.7969 Q66.9844,40.5469 66.9844,41.5781 L66.9844,42.6719 Q66.9844,43.9063 67.875,44.7344 Q68.7656,45.5469 70.3594,45.5469 Q71.2969,45.5469 71.9531,45.2969 Q72.3438,45.1406 72.7656,44.7031 Q73.0313,44.4375 73.1719,44.3594 Q73.3281,44.2813 73.5313,44.2813 Q73.8594,44.2813 74.1094,44.5469 Q74.375,44.7969 74.375,45.1406 Q74.375,45.4844 74.0313,45.8906 Q73.5313,46.4688 72.7344,46.7969 Q71.6563,47.25 70.3594,47.25 Q68.8438,47.25 67.6406,46.625 Q66.6563,46.125 65.9688,45.0625 Q65.2813,43.9844 65.2813,42.7031 L65.2813,41.5469 Q65.2813,40.2188 65.8906,39.0781 Q66.5156,37.9219 67.6094,37.3125 Q68.7031,36.6875 69.9375,36.6875 Q70.6719,36.6875 71.3125,36.8594 Q71.9688,37.0156 72.5156,37.375 Z " fill="#000000"/><text fill="#000000" font-family="sans-serif" font-size="14" lengthAdjust="spacing" textLength="69" x="90.25" y="47.2969">ToDoListUI</text><line style="stroke:#181818;stroke-width:0.5;" x1="8" x2="209" y1="57.5" y2="57.5"/><text fill="#000000" font-family="sans-serif" font-size="14" lengthAdjust="spacing" textLength="191" x="13" y="76.6074">-controller: ToDoListController</text><text fill="#000000" font-family="sans-serif" font-size="14" lengthAdjust="spacing" textLength="117" x="13" y="95.2285">-scanner: Scanner</text><text fill="#000000" font-family="sans-serif" font-size="14" lengthAdjust="spacing" textLength="83" x="13" y="113.8496">-email: String</text><line style="stroke:#181818;stroke-width:0.5;" x1="8" x2="209" y1="121.3633" y2="121.3633"/><text fill="#000000" font-family="sans-serif" font-size="14" lengthAdjust="spacing" textLength="165" x="13" y="140.4707">+ToDoListUI(email: String)</text><text fill="#000000" font-family="sans-serif" font-size="14" lengthAdjust="spacing" textLength="73" x="13" y="159.0918">+run(): void</text></g><!--class UserSession--><g id="elem_UserSession"><rect codeLine="61" fill="#F1F1F1" height="66.6211" id="UserSession" rx="2.5" ry="2.5" style="stroke:#181818;stroke-width:0.5;" width="158" x="667.5" y="755"/><ellipse cx="703.65" cy="771" fill="#ADD1B2" rx="11" ry="11" style="stroke:#181818;stroke-width:1.0;"/><path d="M706.4156,766.875 Q706.5719,766.6563 706.7594,766.5469 Q706.9469,766.4375 707.1656,766.4375 Q707.5406,766.4375 707.775,766.7031 Q708.0094,766.9531 708.0094,767.5625 L708.0094,769.0156 Q708.0094,769.625 707.775,769.8906 Q707.5406,770.1563 707.1656,770.1563 Q706.8219,770.1563 706.6188,769.9531 Q706.4156,769.7656 706.3063,769.25 Q706.2594,768.8906 706.0719,768.7031 Q705.7438,768.3281 705.1344,768.1094 Q704.525,767.8906 703.9,767.8906 Q703.1344,767.8906 702.4938,768.2188 Q701.8688,768.5469 701.3688,769.2969 Q700.8844,770.0469 700.8844,771.0781 L700.8844,772.1719 Q700.8844,773.4063 701.775,774.2344 Q702.6656,775.0469 704.2594,775.0469 Q705.1969,775.0469 705.8531,774.7969 Q706.2438,774.6406 706.6656,774.2031 Q706.9313,773.9375 707.0719,773.8594 Q707.2281,773.7813 707.4313,773.7813 Q707.7594,773.7813 708.0094,774.0469 Q708.275,774.2969 708.275,774.6406 Q708.275,774.9844 707.9313,775.3906 Q707.4313,775.9688 706.6344,776.2969 Q705.5563,776.75 704.2594,776.75 Q702.7438,776.75 701.5406,776.125 Q700.5563,775.625 699.8688,774.5625 Q699.1813,773.4844 699.1813,772.2031 L699.1813,771.0469 Q699.1813,769.7188 699.7906,768.5781 Q700.4156,767.4219 701.5094,766.8125 Q702.6031,766.1875 703.8375,766.1875 Q704.5719,766.1875 705.2125,766.3594 Q705.8688,766.5156 706.4156,766.875 Z " fill="#000000"/><text fill="#000000" font-family="sans-serif" font-size="14" lengthAdjust="spacing" textLength="79" x="722.35" y="776.7969">UserSession</text><line style="stroke:#181818;stroke-width:0.5;" x1="668.5" x2="824.5" y1="787" y2="787"/><line style="stroke:#181818;stroke-width:0.5;" x1="668.5" x2="824.5" y1="795" y2="795"/><text fill="#000000" font-family="sans-serif" font-size="14" lengthAdjust="spacing" textLength="146" x="673.5" y="814.1074">+getUserEmail(): String</text></g><!--class ApplicationSession--><g id="elem_ApplicationSession"><rect codeLine="65" fill="#F1F1F1" height="85.2422" id="ApplicationSession" rx="2.5" ry="2.5" style="stroke:#181818;stroke-width:0.5;" width="267" x="753" y="433"/><ellipse cx="822.75" cy="449" fill="#ADD1B2" rx="11" ry="11" style="stroke:#181818;stroke-width:1.0;"/><path d="M825.5156,444.875 Q825.6719,444.6563 825.8594,444.5469 Q826.0469,444.4375 826.2656,444.4375 Q826.6406,444.4375 826.875,444.7031 Q827.1094,444.9531 827.1094,445.5625 L827.1094,447.0156 Q827.1094,447.625 826.875,447.8906 Q826.6406,448.1563 826.2656,448.1563 Q825.9219,448.1563 825.7188,447.9531 Q825.5156,447.7656 825.4063,447.25 Q825.3594,446.8906 825.1719,446.7031 Q824.8438,446.3281 824.2344,446.1094 Q823.625,445.8906 823,445.8906 Q822.2344,445.8906 821.5938,446.2188 Q820.9688,446.5469 820.4688,447.2969 Q819.9844,448.0469 819.9844,449.0781 L819.9844,450.1719 Q819.9844,451.4063 820.875,452.2344 Q821.7656,453.0469 823.3594,453.0469 Q824.2969,453.0469 824.9531,452.7969 Q825.3438,452.6406 825.7656,452.2031 Q826.0313,451.9375 826.1719,451.8594 Q826.3281,451.7813 826.5313,451.7813 Q826.8594,451.7813 827.1094,452.0469 Q827.375,452.2969 827.375,452.6406 Q827.375,452.9844 827.0313,453.3906 Q826.5313,453.9688 825.7344,454.2969 Q824.6563,454.75 823.3594,454.75 Q821.8438,454.75 820.6406,454.125 Q819.6563,453.625 818.9688,452.5625 Q818.2813,451.4844 818.2813,450.2031 L818.2813,449.0469 Q818.2813,447.7188 818.8906,446.5781 Q819.5156,445.4219 820.6094,444.8125 Q821.7031,444.1875 822.9375,444.1875 Q823.6719,444.1875 824.3125,444.3594 Q824.9688,444.5156 825.5156,444.875 Z " fill="#000000"/><text fill="#000000" font-family="sans-serif" font-size="14" lengthAdjust="spacing" textLength="119" x="843.25" y="454.7969">ApplicationSession</text><line style="stroke:#181818;stroke-width:0.5;" x1="754" x2="1019" y1="465" y2="465"/><line style="stroke:#181818;stroke-width:0.5;" x1="754" x2="1019" y1="473" y2="473"/><text fill="#000000" font-family="sans-serif" font-size="14" lengthAdjust="spacing" textLength="255" x="759" y="492.1074">+static getInstance(): ApplicationSession</text><text fill="#000000" font-family="sans-serif" font-size="14" lengthAdjust="spacing" textLength="223" x="759" y="510.7285">+getCurrentSession(): UserSession</text></g><!--class Collaborator--><g id="elem_Collaborator"><rect codeLine="70" fill="#F1F1F1" height="141.1055" id="Collaborator" rx="2.5" ry="2.5" style="stroke:#181818;stroke-width:0.5;" width="274" x="1644.5" y="405"/><ellipse cx="1738.25" cy="421" fill="#ADD1B2" rx="11" ry="11" style="stroke:#181818;stroke-width:1.0;"/><path d="M1741.0156,416.875 Q1741.1719,416.6563 1741.3594,416.5469 Q1741.5469,416.4375 1741.7656,416.4375 Q1742.1406,416.4375 1742.375,416.7031 Q1742.6094,416.9531 1742.6094,417.5625 L1742.6094,419.0156 Q1742.6094,419.625 1742.375,419.8906 Q1742.1406,420.1563 1741.7656,420.1563 Q1741.4219,420.1563 1741.2188,419.9531 Q1741.0156,419.7656 1740.9063,419.25 Q1740.8594,418.8906 1740.6719,418.7031 Q1740.3438,418.3281 1739.7344,418.1094 Q1739.125,417.8906 1738.5,417.8906 Q1737.7344,417.8906 1737.0938,418.2188 Q1736.4688,418.5469 1735.9688,419.2969 Q1735.4844,420.0469 1735.4844,421.0781 L1735.4844,422.1719 Q1735.4844,423.4063 1736.375,424.2344 Q1737.2656,425.0469 1738.8594,425.0469 Q1739.7969,425.0469 1740.4531,424.7969 Q1740.8438,424.6406 1741.2656,424.2031 Q1741.5313,423.9375 1741.6719,423.8594 Q1741.8281,423.7813 1742.0313,423.7813 Q1742.3594,423.7813 1742.6094,424.0469 Q1742.875,424.2969 1742.875,424.6406 Q1742.875,424.9844 1742.5313,425.3906 Q1742.0313,425.9688 1741.2344,426.2969 Q1740.1563,426.75 1738.8594,426.75 Q1737.3438,426.75 1736.1406,426.125 Q1735.1563,425.625 1734.4688,424.5625 Q1733.7813,423.4844 1733.7813,422.2031 L1733.7813,421.0469 Q1733.7813,419.7188 1734.3906,418.5781 Q1735.0156,417.4219 1736.1094,416.8125 Q1737.2031,416.1875 1738.4375,416.1875 Q1739.1719,416.1875 1739.8125,416.3594 Q1740.4688,416.5156 1741.0156,416.875 Z " fill="#000000"/><text fill="#000000" font-family="sans-serif" font-size="14" lengthAdjust="spacing" textLength="78" x="1758.75" y="426.7969">Collaborator</text><line style="stroke:#181818;stroke-width:0.5;" x1="1645.5" x2="1917.5" y1="437" y2="437"/><text fill="#000000" font-family="sans-serif" font-size="14" lengthAdjust="spacing" textLength="85" x="1650.5" y="456.1074">-name: String</text><text fill="#000000" font-family="sans-serif" font-size="14" lengthAdjust="spacing" textLength="83" x="1650.5" y="474.7285">-email: String</text><line style="stroke:#181818;stroke-width:0.5;" x1="1645.5" x2="1917.5" y1="482.2422" y2="482.2422"/><text fill="#000000" font-family="sans-serif" font-size="14" lengthAdjust="spacing" textLength="262" x="1650.5" y="501.3496">+Collaborator(name: String, email: String)</text><text fill="#000000" font-family="sans-serif" font-size="14" lengthAdjust="spacing" textLength="119" x="1650.5" y="519.9707">+getName(): String</text><text fill="#000000" font-family="sans-serif" font-size="14" lengthAdjust="spacing" textLength="117" x="1650.5" y="538.5918">+getEmail(): String</text></g><!--class CollaboratorRepository--><g id="elem_CollaboratorRepository"><rect codeLine="79" fill="#F1F1F1" height="159.7266" id="CollaboratorRepository" rx="2.5" ry="2.5" style="stroke:#181818;stroke-width:0.5;" width="369" x="1368" y="215"/><ellipse cx="1475.25" cy="231" fill="#ADD1B2" rx="11" ry="11" style="stroke:#181818;stroke-width:1.0;"/><path d="M1478.0156,226.875 Q1478.1719,226.6563 1478.3594,226.5469 Q1478.5469,226.4375 1478.7656,226.4375 Q1479.1406,226.4375 1479.375,226.7031 Q1479.6094,226.9531 1479.6094,227.5625 L1479.6094,229.0156 Q1479.6094,229.625 1479.375,229.8906 Q1479.1406,230.1563 1478.7656,230.1563 Q1478.4219,230.1563 1478.2188,229.9531 Q1478.0156,229.7656 1477.9063,229.25 Q1477.8594,228.8906 1477.6719,228.7031 Q1477.3438,228.3281 1476.7344,228.1094 Q1476.125,227.8906 1475.5,227.8906 Q1474.7344,227.8906 1474.0938,228.2188 Q1473.4688,228.5469 1472.9688,229.2969 Q1472.4844,230.0469 1472.4844,231.0781 L1472.4844,232.1719 Q1472.4844,233.4063 1473.375,234.2344 Q1474.2656,235.0469 1475.8594,235.0469 Q1476.7969,235.0469 1477.4531,234.7969 Q1477.8438,234.6406 1478.2656,234.2031 Q1478.5313,233.9375 1478.6719,233.8594 Q1478.8281,233.7813 1479.0313,233.7813 Q1479.3594,233.7813 1479.6094,234.0469 Q1479.875,234.2969 1479.875,234.6406 Q1479.875,234.9844 1479.5313,235.3906 Q1479.0313,235.9688 1478.2344,236.2969 Q1477.1563,236.75 1475.8594,236.75 Q1474.3438,236.75 1473.1406,236.125 Q1472.1563,235.625 1471.4688,234.5625 Q1470.7813,233.4844 1470.7813,232.2031 L1470.7813,231.0469 Q1470.7813,229.7188 1471.3906,228.5781 Q1472.0156,227.4219 1473.1094,226.8125 Q1474.2031,226.1875 1475.4375,226.1875 Q1476.1719,226.1875 1476.8125,226.3594 Q1477.4688,226.5156 1478.0156,226.875 Z " fill="#000000"/><text fill="#000000" font-family="sans-serif" font-size="14" lengthAdjust="spacing" textLength="146" x="1495.75" y="236.7969">CollaboratorRepository</text><line style="stroke:#181818;stroke-width:0.5;" x1="1369" x2="1736" y1="247" y2="247"/><text fill="#000000" font-family="sans-serif" font-size="14" lengthAdjust="spacing" textLength="207" x="1374" y="266.1074">-List&lt;Collaborator&gt; collaborators</text><line style="stroke:#181818;stroke-width:0.5;" x1="1369" x2="1736" y1="273.6211" y2="273.6211"/><text fill="#000000" font-family="sans-serif" font-size="14" lengthAdjust="spacing" textLength="281" x="1374" y="292.7285">+addCollaborator(collaborator: Collaborator)</text><text fill="#000000" font-family="sans-serif" font-size="14" lengthAdjust="spacing" textLength="304" x="1374" y="311.3496">+removeCollaborator(collaborator: Collaborator)</text><text fill="#000000" font-family="sans-serif" font-size="14" lengthAdjust="spacing" textLength="357" x="1374" y="329.9707">+addSkillToCollaborator(collaboratorId: String, skill: Skill)</text><text fill="#000000" font-family="sans-serif" font-size="14" lengthAdjust="spacing" textLength="333" x="1374" y="348.5918">+getCollaborator(collaboratorId: String): Collaborator</text><text fill="#000000" font-family="sans-serif" font-size="14" lengthAdjust="spacing" textLength="279" x="1374" y="367.2129">+assignSkill(collaboratorId: String, skill: Skill)</text></g><!--link ToDoListController to Repositories--><g id="link_ToDoListController_Repositories"><path codeLine="89" d="M1268.22,96 C1279.92,96 1285.63,96 1297.34,96 " fill="none" id="ToDoListController-to-Repositories" style="stroke:#181818;stroke-width:1.0;stroke-dasharray:7.0,7.0;"/><polygon fill="#181818" points="1303.34,96,1294.34,92,1298.34,96,1294.34,100,1303.34,96" style="stroke:#181818;stroke-width:1.0;"/></g><!--link Repositories to ToDoListRepository--><g id="link_Repositories_ToDoListRepository"><path codeLine="90" d="M1611.6,96 C1623.32,96 1629.03,96 1640.75,96 " fill="none" id="Repositories-to-ToDoListRepository" style="stroke:#181818;stroke-width:1.0;"/><polygon fill="#181818" points="1646.75,96,1637.75,92,1641.75,96,1637.75,100,1646.75,96" style="stroke:#181818;stroke-width:1.0;"/><text fill="#000000" font-family="sans-serif" font-size="13" lengthAdjust="spacing" textLength="7" x="1632.0566" y="92.8284">1</text></g><!--link Repositories to CollaboratorRepository--><g id="link_Repositories_CollaboratorRepository"><path codeLine="91" d="M1477.65,138.78 C1488.32,160.92 1499.1825,183.4462 1511.7525,209.4962 " fill="none" id="Repositories-to-CollaboratorRepository" style="stroke:#181818;stroke-width:1.0;"/><polygon fill="#181818" points="1514.36,214.9,1514.0513,205.056,1512.1871,210.3968,1506.8462,208.5327,1514.36,214.9" style="stroke:#181818;stroke-width:1.0;"/><text fill="#000000" font-family="sans-serif" font-size="13" lengthAdjust="spacing" textLength="7" x="1503.5213" y="203.7865">1</text></g><!--link CollaboratorRepository to Collaborator--><g id="link_CollaboratorRepository_Collaborator"><path codeLine="92" d="M1653.94,375.07 C1666.62,384.96 1674.7882,391.3208 1687.2682,401.0508 " fill="none" id="CollaboratorRepository-to-Collaborator" style="stroke:#181818;stroke-width:1.0;"/><polygon fill="#181818" points="1692,404.74,1687.3617,396.0517,1688.0568,401.6657,1682.4428,402.3608,1692,404.74" style="stroke:#181818;stroke-width:1.0;"/></g><!--link ToDoListUI to ToDoListController--><g id="link_ToDoListUI_ToDoListController"><path codeLine="93" d="M210.07,96 C221.63,96 227.19,96 238.75,96 " fill="none" id="ToDoListUI-to-ToDoListController" style="stroke:#181818;stroke-width:1.0;stroke-dasharray:7.0,7.0;"/><polygon fill="#181818" points="244.75,96,235.75,92,239.75,96,235.75,100,244.75,96" style="stroke:#181818;stroke-width:1.0;"/></g><!--link ToDoListRepository to ToDoList--><g id="link_ToDoListRepository_ToDoList"><path codeLine="94" d="M1965.07,185.22 C1958.37,275.78 1947.34,420.78 1936.5,546 C1934.29,571.49 1932.3977,592.506 1929.9377,618.856 " fill="none" id="ToDoListRepository-to-ToDoList" style="stroke:#181818;stroke-width:1.0;"/><polygon fill="#181818" points="1929.38,624.83,1934.1993,616.2408,1929.8448,619.8516,1926.2339,615.4971,1929.38,624.83" style="stroke:#181818;stroke-width:1.0;"/></g><!--link ApplicationSession to UserSession--><g id="link_ApplicationSession_UserSession"><path codeLine="96" d="M867.76,518.12 C839.6,580.69 789.3936,692.2291 763.7436,749.1891 " fill="none" id="ApplicationSession-to-UserSession" style="stroke:#181818;stroke-width:1.0;"/><polygon fill="#181818" points="761.28,754.66,768.6227,748.0961,763.333,750.1009,761.3282,744.8113,761.28,754.66" style="stroke:#181818;stroke-width:1.0;"/><text fill="#000000" font-family="sans-serif" font-size="13" lengthAdjust="spacing" textLength="72" x="842.5" y="591.0283">userSession</text><text fill="#000000" font-family="sans-serif" font-size="13" lengthAdjust="spacing" textLength="7" x="756.4303" y="743.6811">1</text></g><!--link ToDoListController to ApplicationSession--><g id="link_ToDoListController_ApplicationSession"><path codeLine="97" d="M780.5,166.68 C807.38,244.76 848.136,363.1071 870.246,427.2971 " fill="none" id="ToDoListController-to-ApplicationSession" style="stroke:#181818;stroke-width:1.0;stroke-dasharray:7.0,7.0;"/><polygon fill="#181818" points="872.2,432.97,873.0509,423.158,870.5717,428.2426,865.487,425.7633,872.2,432.97" style="stroke:#181818;stroke-width:1.0;"/></g><!--link ToDoListController to UserSession--><g id="link_ToDoListController_UserSession"><path codeLine="98" d="M750.39,166.66 C745.25,229.04 738.29,323.05 735.5,405 C733.37,467.63 734.07,483.35 735.5,546 C737.2,620.69 741.5042,702.28 744.1842,748.71 " fill="none" id="ToDoListController-to-UserSession" style="stroke:#181818;stroke-width:1.0;stroke-dasharray:7.0,7.0;"/><polygon fill="#181818" points="744.53,754.7,748.0047,745.4845,744.2419,749.7083,740.018,745.9455,744.53,754.7" style="stroke:#181818;stroke-width:1.0;"/></g><!--link ToDoListRepository to Collaborator--><g id="link_ToDoListRepository_Collaborator"><path codeLine="100" d="M1927.19,185.03 C1893.47,252.02 1850.4082,337.6009 1819.2182,399.5509 " fill="none" id="ToDoListRepository-to-Collaborator" style="stroke:#181818;stroke-width:1.0;"/><polygon fill="#181818" points="1816.52,404.91,1824.14,398.6701,1818.7685,400.4441,1816.9945,395.0726,1816.52,404.91" style="stroke:#181818;stroke-width:1.0;"/></g><!--link Collaborator to ToDoList--><g id="link_Collaborator_ToDoList"><path codeLine="101" d="M1811.12,546.29 C1821.12,569.84 1830.3841,591.6876 1842.1341,619.3476 " fill="none" id="Collaborator-to-ToDoList" style="stroke:#181818;stroke-width:1.0;stroke-dasharray:7.0,7.0;"/><polygon fill="#181818" points="1844.48,624.87,1844.6427,615.0225,1842.5251,620.268,1837.2795,618.1504,1844.48,624.87" style="stroke:#181818;stroke-width:1.0;"/></g><!--SRC=[lLPTRziW57tthx3wvAf9jRr6KwGqgQP8qoRDpG-W-DP38M01RkTD- -_3s62m8UfUbfV4S3_ElUUUwyWpOGqIw98t29zH3QNgAEG2i4Aiff19Po1_e8g_4LRdBuXA_uOI1gfh86yuxVg7s1qNYdldc28fTqe9yjmgE6BEIl8ByWzPPcxo9txWNuXK-Uyirvzrhf0y7q1YGHf5EDlafVPbzNZRYXeOxcQdyBFHXK1rQ0KQd0XJurqj09ZKLSDNT86PerH8jNAUGu9ul212tRcvk7DOYmJ6rHpUAevibG2rck5PBQ7SZb1gK4yXYE8sACEOd0OuiQl76R3UnZRD67mE8CP2b0PiDA-5lRYKpYqiLTkzSbADLfXoPbBQZcT_vlFo7HekYUAYcoPdlD91-wzFrdHh-KDLLLYZARPEyyrq457FnTMoezIUcbfdeGUxjgcG0dlwo9JeYk6iCWz1Dg_G8Nuox0jXrKCt9penVTVg608vMdQiClIMZjx5e8qpMivdT0brGSsUwv8vfI0Mr4oiRI9CpdKs1Ihit6C1YqR_DpL2eCGhxGx7OHpu94m6R-KLCOGps9TC83Q9ZWVNK6qtCd1dQY6u3tPa-ZV3Hb- -gRTP5ipuMlJuMb1_EZhAiIDl4o7Kxb-C6Eijok67tUVNjk_fM41i9OhMB37JEGUi7_aIfDGDTwr8B2ZdisiQIh0PaBbhl8jBXodJlXK2c1hFUsiFqfHphxk2dhaUIpwfXYrVMD7E-Cu52qOO4Y-Fr4vFDiNF4TczPXPzcwqUWEb9UYiuGEiRRO8aZbQuy5VuHoUTfZoJNZL9nsFb2RstrO_zbzUaT_ZUXlbjUirkpKouT-RKVOwip_jjgD10sUjjVlFn9YRBc5cSlon1gtOAolBqhJ55v1nvBQ_NasMMHKIr7g7v6jsOlpnM7h6MwFmHlIKiVQsbC0Q51ZgyzshD_W80]--></g></svg>