<?xml version="1.0" encoding="us-ascii" standalone="no"?><svg xmlns="http://www.w3.org/2000/svg" xmlns:xlink="http://www.w3.org/1999/xlink" contentStyleType="text/css" height="535.2px" preserveAspectRatio="none" style="width:1631px;height:535px;background:#FFFFFF;" version="1.1" viewBox="0 0 1631 535" width="1631.2px" zoomAndPan="magnify"><defs/><g><rect fill="#FFFFFF" height="379.4922" style="stroke:#181818;stroke-width:0.8000000000000002;" width="8" x="14" y="74.8969"/><rect fill="#FFFFFF" height="25.0328" style="stroke:#181818;stroke-width:0.8000000000000002;" width="8" x="527.6" y="93.5297"/><rect fill="#FFFFFF" height="317.9938" style="stroke:#181818;stroke-width:0.8000000000000002;" width="8" x="527.6" y="143.5953"/><rect fill="#FFFFFF" height="260.7281" style="stroke:#181818;stroke-width:0.8000000000000002;" width="8" x="1016.4" y="168.6281"/><rect fill="#FFFFFF" height="25.0328" style="stroke:#181818;stroke-width:0.8000000000000002;" width="8" x="1140.4" y="193.6609"/><rect fill="#FFFFFF" height="25.0328" style="stroke:#181818;stroke-width:0.8000000000000002;" width="8" x="1358" y="243.7266"/><rect fill="#FFFFFF" height="25.0328" style="stroke:#181818;stroke-width:0.8000000000000002;" width="8" x="1456.4" y="293.7922"/><rect fill="#FFFFFF" height="60.4656" style="stroke:#181818;stroke-width:0.8000000000000002;" width="8" x="1530" y="343.8578"/><line style="stroke:#181818;stroke-width:0.4000000000000001;stroke-dasharray:5.0,5.0;" x1="17.6" x2="17.6" y1="66.8969" y2="468.7891"/><line style="stroke:#181818;stroke-width:0.4000000000000001;stroke-dasharray:5.0,5.0;" x1="531.2" x2="531.2" y1="66.8969" y2="468.7891"/><line style="stroke:#181818;stroke-width:0.4000000000000001;stroke-dasharray:5.0,5.0;" x1="1020" x2="1020" y1="66.8969" y2="468.7891"/><line style="stroke:#181818;stroke-width:0.4000000000000001;stroke-dasharray:5.0,5.0;" x1="1144" x2="1144" y1="66.8969" y2="468.7891"/><line style="stroke:#181818;stroke-width:0.4000000000000001;stroke-dasharray:5.0,5.0;" x1="1244.8" x2="1244.8" y1="66.8969" y2="468.7891"/><line style="stroke:#181818;stroke-width:0.4000000000000001;stroke-dasharray:5.0,5.0;" x1="1361.6" x2="1361.6" y1="66.8969" y2="468.7891"/><line style="stroke:#181818;stroke-width:0.4000000000000001;stroke-dasharray:5.0,5.0;" x1="1460" x2="1460" y1="66.8969" y2="468.7891"/><line style="stroke:#181818;stroke-width:0.4000000000000001;stroke-dasharray:5.0,5.0;" x1="1533.6" x2="1533.6" y1="66.8969" y2="468.7891"/><text fill="#000000" font-family="sans-serif" font-size="11.2" lengthAdjust="spacing" textLength="23.2" x="4" y="64.0859">User</text><ellipse cx="18" cy="10.8" fill="#E3E3E3" rx="6.4" ry="6.4" style="stroke:#181818;stroke-width:0.4000000000000001;"/><path d="M18,17.2 L18,38.8 M7.6,23.6 L28.4,23.6 M18,38.8 L7.6,50.8 M18,38.8 L28.4,50.8 " fill="none" style="stroke:#181818;stroke-width:0.4000000000000001;"/><text fill="#000000" font-family="sans-serif" font-size="11.2" lengthAdjust="spacing" textLength="23.2" x="4" y="480.075">User</text><ellipse cx="18" cy="489.6859" fill="#E3E3E3" rx="6.4" ry="6.4" style="stroke:#181818;stroke-width:0.4000000000000001;"/><path d="M18,496.0859 L18,517.6859 M7.6,502.4859 L28.4,502.4859 M18,517.6859 L7.6,529.6859 M18,517.6859 L28.4,529.6859 " fill="none" style="stroke:#181818;stroke-width:0.4000000000000001;"/><rect fill="#E3E3E3" height="26.0969" rx="2" ry="2" style="stroke:#181818;stroke-width:0.4000000000000001;" width="66.4" x="498.4" y="40"/><text fill="#000000" font-family="sans-serif" font-size="11.2" lengthAdjust="spacing" textLength="55.2" x="504" y="57.6859">ToDoListUI</text><rect fill="#E3E3E3" height="26.0969" rx="2" ry="2" style="stroke:#181818;stroke-width:0.4000000000000001;" width="66.4" x="498.4" y="467.9891"/><text fill="#000000" font-family="sans-serif" font-size="11.2" lengthAdjust="spacing" textLength="55.2" x="504" y="485.675">ToDoListUI</text><rect fill="#E3E3E3" height="26.0969" rx="2" ry="2" style="stroke:#181818;stroke-width:0.4000000000000001;" width="106.4" x="967.2" y="40"/><text fill="#000000" font-family="sans-serif" font-size="11.2" lengthAdjust="spacing" textLength="95.2" x="972.8" y="57.6859">ToDoListController</text><rect fill="#E3E3E3" height="26.0969" rx="2" ry="2" style="stroke:#181818;stroke-width:0.4000000000000001;" width="106.4" x="967.2" y="467.9891"/><text fill="#000000" font-family="sans-serif" font-size="11.2" lengthAdjust="spacing" textLength="95.2" x="972.8" y="485.675">ToDoListController</text><rect fill="#E3E3E3" height="26.0969" rx="2" ry="2" style="stroke:#181818;stroke-width:0.4000000000000001;" width="74.4" x="1107.2" y="40"/><text fill="#000000" font-family="sans-serif" font-size="11.2" lengthAdjust="spacing" textLength="63.2" x="1112.8" y="57.6859">Repositories</text><rect fill="#E3E3E3" height="26.0969" rx="2" ry="2" style="stroke:#181818;stroke-width:0.4000000000000001;" width="74.4" x="1107.2" y="467.9891"/><text fill="#000000" font-family="sans-serif" font-size="11.2" lengthAdjust="spacing" textLength="63.2" x="1112.8" y="485.675">Repositories</text><rect fill="#E3E3E3" height="26.0969" rx="2" ry="2" style="stroke:#181818;stroke-width:0.4000000000000001;" width="111.2" x="1189.6" y="40"/><text fill="#000000" font-family="sans-serif" font-size="11.2" lengthAdjust="spacing" textLength="100" x="1195.2" y="57.6859">ToDoListRepository</text><rect fill="#E3E3E3" height="26.0969" rx="2" ry="2" style="stroke:#181818;stroke-width:0.4000000000000001;" width="111.2" x="1189.6" y="467.9891"/><text fill="#000000" font-family="sans-serif" font-size="11.2" lengthAdjust="spacing" textLength="100" x="1195.2" y="485.675">ToDoListRepository</text><rect fill="#E3E3E3" height="26.0969" rx="2" ry="2" style="stroke:#181818;stroke-width:0.4000000000000001;" width="106.4" x="1308.8" y="40"/><text fill="#000000" font-family="sans-serif" font-size="11.2" lengthAdjust="spacing" textLength="95.2" x="1314.4" y="57.6859">ApplicationSession</text><rect fill="#E3E3E3" height="26.0969" rx="2" ry="2" style="stroke:#181818;stroke-width:0.4000000000000001;" width="106.4" x="1308.8" y="467.9891"/><text fill="#000000" font-family="sans-serif" font-size="11.2" lengthAdjust="spacing" textLength="95.2" x="1314.4" y="485.675">ApplicationSession</text><rect fill="#E3E3E3" height="26.0969" rx="2" ry="2" style="stroke:#181818;stroke-width:0.4000000000000001;" width="74.4" x="1423.2" y="40"/><text fill="#000000" font-family="sans-serif" font-size="11.2" lengthAdjust="spacing" textLength="63.2" x="1428.8" y="57.6859">UserSession</text><rect fill="#E3E3E3" height="26.0969" rx="2" ry="2" style="stroke:#181818;stroke-width:0.4000000000000001;" width="74.4" x="1423.2" y="467.9891"/><text fill="#000000" font-family="sans-serif" font-size="11.2" lengthAdjust="spacing" textLength="63.2" x="1428.8" y="485.675">UserSession</text><rect fill="#E3E3E3" height="26.0969" rx="2" ry="2" style="stroke:#181818;stroke-width:0.4000000000000001;" width="56.8" x="1505.6" y="40"/><text fill="#000000" font-family="sans-serif" font-size="11.2" lengthAdjust="spacing" textLength="45.6" x="1511.2" y="57.6859">ToDoList</text><rect fill="#E3E3E3" height="26.0969" rx="2" ry="2" style="stroke:#181818;stroke-width:0.4000000000000001;" width="56.8" x="1505.6" y="467.9891"/><text fill="#000000" font-family="sans-serif" font-size="11.2" lengthAdjust="spacing" textLength="45.6" x="1511.2" y="485.675">ToDoList</text><rect fill="#FFFFFF" height="379.4922" style="stroke:#181818;stroke-width:0.8000000000000002;" width="8" x="14" y="74.8969"/><rect fill="#FFFFFF" height="25.0328" style="stroke:#181818;stroke-width:0.8000000000000002;" width="8" x="527.6" y="93.5297"/><rect fill="#FFFFFF" height="317.9938" style="stroke:#181818;stroke-width:0.8000000000000002;" width="8" x="527.6" y="143.5953"/><rect fill="#FFFFFF" height="260.7281" style="stroke:#181818;stroke-width:0.8000000000000002;" width="8" x="1016.4" y="168.6281"/><rect fill="#FFFFFF" height="25.0328" style="stroke:#181818;stroke-width:0.8000000000000002;" width="8" x="1140.4" y="193.6609"/><rect fill="#FFFFFF" height="25.0328" style="stroke:#181818;stroke-width:0.8000000000000002;" width="8" x="1358" y="243.7266"/><rect fill="#FFFFFF" height="25.0328" style="stroke:#181818;stroke-width:0.8000000000000002;" width="8" x="1456.4" y="293.7922"/><rect fill="#FFFFFF" height="60.4656" style="stroke:#181818;stroke-width:0.8000000000000002;" width="8" x="1530" y="343.8578"/><polygon fill="#181818" points="518,90.3297,526,93.5297,518,96.7297,521.2,93.5297" style="stroke:#181818;stroke-width:0.8000000000000002;"/><line style="stroke:#181818;stroke-width:0.8000000000000002;" x1="22" x2="522.8" y1="93.5297" y2="93.5297"/><text fill="#000000" font-family="sans-serif" font-size="10.4" font-weight="bold" lengthAdjust="spacing" textLength="5.6" x="27.6" y="89.3195">1</text><text fill="#000000" font-family="sans-serif" font-size="10.4" lengthAdjust="spacing" textLength="163.2" x="36.4" y="89.3195">requests to add new to-do list entry</text><polygon fill="#181818" points="30.8,115.3625,22.8,118.5625,30.8,121.7625,27.6,118.5625" style="stroke:#181818;stroke-width:0.8000000000000002;"/><line style="stroke:#181818;stroke-width:0.8000000000000002;stroke-dasharray:2.0,2.0;" x1="26" x2="530.8" y1="118.5625" y2="118.5625"/><text fill="#000000" font-family="sans-serif" font-size="10.4" font-weight="bold" lengthAdjust="spacing" textLength="5.6" x="35.6" y="114.3523">2</text><text fill="#000000" font-family="sans-serif" font-size="10.4" lengthAdjust="spacing" textLength="477.6" x="44.4" y="114.3523">prompts for required fields (e.g., taskDescription, urgency, expectedDuration, greenspaceName, status)</text><polygon fill="#181818" points="518,140.3953,526,143.5953,518,146.7953,521.2,143.5953" style="stroke:#181818;stroke-width:0.8000000000000002;"/><line style="stroke:#181818;stroke-width:0.8000000000000002;" x1="22" x2="522.8" y1="143.5953" y2="143.5953"/><text fill="#000000" font-family="sans-serif" font-size="10.4" font-weight="bold" lengthAdjust="spacing" textLength="5.6" x="27.6" y="139.3852">3</text><text fill="#000000" font-family="sans-serif" font-size="10.4" lengthAdjust="spacing" textLength="480" x="36.4" y="139.3852">provides to-do list details (taskDescription, urgency, expectedDuration, greenspaceName, status, email)</text><polygon fill="#181818" points="1006.8,165.4281,1014.8,168.6281,1006.8,171.8281,1010,168.6281" style="stroke:#181818;stroke-width:0.8000000000000002;"/><line style="stroke:#181818;stroke-width:0.8000000000000002;" x1="535.6" x2="1011.6" y1="168.6281" y2="168.6281"/><text fill="#000000" font-family="sans-serif" font-size="10.4" font-weight="bold" lengthAdjust="spacing" textLength="5.6" x="541.2" y="164.418">4</text><text fill="#000000" font-family="sans-serif" font-size="10.4" lengthAdjust="spacing" textLength="456.8" x="550" y="164.418">createToDoListEntry(taskDescription, urgency, expectedDuration, greenspaceName, status, email)</text><polygon fill="#181818" points="1130.8,190.4609,1138.8,193.6609,1130.8,196.8609,1134,193.6609" style="stroke:#181818;stroke-width:0.8000000000000002;"/><line style="stroke:#181818;stroke-width:0.8000000000000002;" x1="1024.4" x2="1135.6" y1="193.6609" y2="193.6609"/><text fill="#000000" font-family="sans-serif" font-size="10.4" font-weight="bold" lengthAdjust="spacing" textLength="5.6" x="1030" y="189.4508">5</text><text fill="#000000" font-family="sans-serif" font-size="10.4" lengthAdjust="spacing" textLength="60" x="1038.8" y="189.4508">getInstance()</text><polygon fill="#181818" points="1033.2,215.4938,1025.2,218.6938,1033.2,221.8938,1030,218.6938" style="stroke:#181818;stroke-width:0.8000000000000002;"/><line style="stroke:#181818;stroke-width:0.8000000000000002;stroke-dasharray:2.0,2.0;" x1="1028.4" x2="1143.6" y1="218.6938" y2="218.6938"/><text fill="#000000" font-family="sans-serif" font-size="10.4" font-weight="bold" lengthAdjust="spacing" textLength="5.6" x="1038" y="214.4836">6</text><text fill="#000000" font-family="sans-serif" font-size="10.4" lengthAdjust="spacing" textLength="88" x="1046.8" y="214.4836">toDoListRepository</text><polygon fill="#181818" points="1348.4,240.5266,1356.4,243.7266,1348.4,246.9266,1351.6,243.7266" style="stroke:#181818;stroke-width:0.8000000000000002;"/><line style="stroke:#181818;stroke-width:0.8000000000000002;" x1="1024.4" x2="1353.2" y1="243.7266" y2="243.7266"/><text fill="#000000" font-family="sans-serif" font-size="10.4" font-weight="bold" lengthAdjust="spacing" textLength="5.6" x="1030" y="239.5164">7</text><text fill="#000000" font-family="sans-serif" font-size="10.4" lengthAdjust="spacing" textLength="60" x="1038.8" y="239.5164">getInstance()</text><polygon fill="#181818" points="1033.2,265.5594,1025.2,268.7594,1033.2,271.9594,1030,268.7594" style="stroke:#181818;stroke-width:0.8000000000000002;"/><line style="stroke:#181818;stroke-width:0.8000000000000002;" x1="1028.4" x2="1361.2" y1="268.7594" y2="268.7594"/><text fill="#000000" font-family="sans-serif" font-size="10.4" font-weight="bold" lengthAdjust="spacing" textLength="5.6" x="1038" y="264.5492">8</text><text fill="#000000" font-family="sans-serif" font-size="10.4" lengthAdjust="spacing" textLength="92" x="1046.8" y="264.5492">getCurrentSession()</text><polygon fill="#181818" points="1446.8,290.5922,1454.8,293.7922,1446.8,296.9922,1450,293.7922" style="stroke:#181818;stroke-width:0.8000000000000002;"/><line style="stroke:#181818;stroke-width:0.8000000000000002;" x1="1024.4" x2="1451.6" y1="293.7922" y2="293.7922"/><text fill="#000000" font-family="sans-serif" font-size="10.4" font-weight="bold" lengthAdjust="spacing" textLength="5.6" x="1030" y="289.582">9</text><text fill="#000000" font-family="sans-serif" font-size="10.4" lengthAdjust="spacing" textLength="68.8" x="1038.8" y="289.582">getUserEmail()</text><polygon fill="#181818" points="1033.2,315.625,1025.2,318.825,1033.2,322.025,1030,318.825" style="stroke:#181818;stroke-width:0.8000000000000002;"/><line style="stroke:#181818;stroke-width:0.8000000000000002;stroke-dasharray:2.0,2.0;" x1="1028.4" x2="1459.6" y1="318.825" y2="318.825"/><text fill="#000000" font-family="sans-serif" font-size="10.4" font-weight="bold" lengthAdjust="spacing" textLength="11.2" x="1038" y="314.6148">10</text><text fill="#000000" font-family="sans-serif" font-size="10.4" lengthAdjust="spacing" textLength="24.8" x="1052.4" y="314.6148">email</text><polygon fill="#181818" points="1520.4,340.6578,1528.4,343.8578,1520.4,347.0578,1523.6,343.8578" style="stroke:#181818;stroke-width:0.8000000000000002;"/><line style="stroke:#181818;stroke-width:0.8000000000000002;" x1="1024.4" x2="1525.2" y1="343.8578" y2="343.8578"/><text fill="#000000" font-family="sans-serif" font-size="10.4" font-weight="bold" lengthAdjust="spacing" textLength="11.2" x="1030" y="339.6477">11</text><text fill="#000000" font-family="sans-serif" font-size="10.4" lengthAdjust="spacing" textLength="424.8" x="1044.4" y="339.6477">new ToDoList(taskDescription, urgency, expectedDuration, greenspaceName, status, email)</text><line style="stroke:#181818;stroke-width:0.8000000000000002;" x1="1538" x2="1571.6" y1="368.8906" y2="368.8906"/><line style="stroke:#181818;stroke-width:0.8000000000000002;" x1="1571.6" x2="1571.6" y1="368.8906" y2="379.2906"/><line style="stroke:#181818;stroke-width:0.8000000000000002;" x1="1538.8" x2="1571.6" y1="379.2906" y2="379.2906"/><polygon fill="#181818" points="1546.8,376.0906,1538.8,379.2906,1546.8,382.4906,1543.6,379.2906" style="stroke:#181818;stroke-width:0.8000000000000002;"/><text fill="#000000" font-family="sans-serif" font-size="10.4" font-weight="bold" lengthAdjust="spacing" textLength="11.2" x="1543.6" y="364.6805">12</text><text fill="#000000" font-family="sans-serif" font-size="10.4" lengthAdjust="spacing" textLength="68" x="1558" y="364.6805">validate details</text><polygon fill="#181818" points="1254,401.1234,1246,404.3234,1254,407.5234,1250.8,404.3234" style="stroke:#181818;stroke-width:0.8000000000000002;"/><line style="stroke:#181818;stroke-width:0.8000000000000002;" x1="1249.2" x2="1533.2" y1="404.3234" y2="404.3234"/><text fill="#000000" font-family="sans-serif" font-size="10.4" font-weight="bold" lengthAdjust="spacing" textLength="11.2" x="1258.8" y="400.1133">13</text><text fill="#000000" font-family="sans-serif" font-size="10.4" lengthAdjust="spacing" textLength="72.8" x="1273.2" y="400.1133">add(TODOLIST)</text><polygon fill="#181818" points="544.4,426.1563,536.4,429.3563,544.4,432.5563,541.2,429.3563" style="stroke:#181818;stroke-width:0.8000000000000002;"/><line style="stroke:#181818;stroke-width:0.8000000000000002;stroke-dasharray:2.0,2.0;" x1="539.6" x2="1019.6" y1="429.3563" y2="429.3563"/><text fill="#000000" font-family="sans-serif" font-size="10.4" font-weight="bold" lengthAdjust="spacing" textLength="11.2" x="549.2" y="425.1461">14</text><text fill="#000000" font-family="sans-serif" font-size="10.4" lengthAdjust="spacing" textLength="201.6" x="563.6" y="425.1461">confirms successful to-do list entry creation</text><polygon fill="#181818" points="26.8,451.1891,18.8,454.3891,26.8,457.5891,23.6,454.3891" style="stroke:#181818;stroke-width:0.8000000000000002;"/><line style="stroke:#181818;stroke-width:0.8000000000000002;stroke-dasharray:2.0,2.0;" x1="22" x2="526.8" y1="454.3891" y2="454.3891"/><text fill="#000000" font-family="sans-serif" font-size="10.4" font-weight="bold" lengthAdjust="spacing" textLength="11.2" x="31.6" y="450.1789">15</text><text fill="#000000" font-family="sans-serif" font-size="10.4" lengthAdjust="spacing" textLength="201.6" x="46" y="450.1789">confirms successful to-do list entry creation</text><!--SRC=[jLJ1Rk8m4BtdAqQSG89-08TA5N28X4f5u0Eypf1QE7PgExJy_OuT4c82LLUxwqiYpyppcvatOuz2LSom4agjD7ytkaHmfiR4TfQAyIChC7DdYM2GEwOAsNUmxopNdq8LS63IOfAmscbLbx_Gq3ztsi1eRz6CW5dOPwjjGd5ES54nvM2qqqkz5jRjqyOXlMzUQEMCblA2izXjrx7Z5Yjj1Rqcq0QN_iLzpCxZ70A6rt7OIrL9mPaJMcLeBNr2sClRM-pda-qxPAiiIpUlzpaqBs-MctMQxKAzn8avR0gL01t_1xDdgWpCgG4VDLfdmMbWUGuAF-btbckG10P8HJg7g2jGsi04g1Hc7iaZpg6YTbS4TQ0EULnXC8U3G9bR6EDJyJG5n-nnYPORKVcqfr2R0XK_Jm6_Aj82vilQiCPK64HbIIxuoagSWdNCrNOI7iznm2TAYwYSH8wsdqkEZWb9LFwU17cMX3NvlZBFGLN4XXiaUzkXbQ_floOH4GbYxgxz2KI8K5_3HAn0bof2Knp7aoYWmufK7xdu4-7DhXcxeVJxORtsFSPlETCy_8Yfdvi1GRfi6n505hKn9EhBEDr0zMWDm5esb-4BO7umLxu7ZoYrapgWTJ5q9PitlNp4vYvEowWTTYgxdzvMPlz3OL5oroLpcrt7A6PtObBaFl8oYT_73HH42BIXngtJmzRTvzLKgzqFNAk3CAK5MtDEMZZKSh3sch6byjnkdEjunVllpq2J_Wxpo_at]--></g></svg>