<?xml version="1.0" encoding="us-ascii" standalone="no"?><svg xmlns="http://www.w3.org/2000/svg" xmlns:xlink="http://www.w3.org/1999/xlink" contentStyleType="text/css" height="1173px" preserveAspectRatio="none" style="width:803px;height:1173px;background:#FFFFFF;" version="1.1" viewBox="0 0 803 1173" width="803px" zoomAndPan="magnify"><defs/><g><!--class Collaborator--><g id="elem_Collaborator"><rect codeLine="6" fill="#F1F1F1" height="196.3945" id="Collaborator" rx="2.5" ry="2.5" style="stroke:#181818;stroke-width:0.5;" width="291" x="141.5" y="555.46"/><ellipse cx="239.25" cy="571.46" fill="#ADD1B2" rx="11" ry="11" style="stroke:#181818;stroke-width:1.0;"/><path d="M242.2231,577.1031 Q241.6421,577.4019 241.0029,577.5513 Q240.3638,577.7007 239.6582,577.7007 Q237.1514,577.7007 235.8315,576.0489 Q234.5117,574.397 234.5117,571.2759 Q234.5117,568.1465 235.8315,566.4947 Q237.1514,564.8428 239.6582,564.8428 Q240.3638,564.8428 241.0112,564.9922 Q241.6587,565.1416 242.2231,565.4405 L242.2231,568.1631 Q241.5923,567.5821 240.9988,567.3123 Q240.4053,567.0425 239.7744,567.0425 Q238.4297,567.0425 237.7449,568.1092 Q237.0601,569.1758 237.0601,571.2759 Q237.0601,573.3677 237.7449,574.4344 Q238.4297,575.501 239.7744,575.501 Q240.4053,575.501 240.9988,575.2312 Q241.5923,574.9615 242.2231,574.3804 Z " fill="#000000"/><text fill="#000000" font-family="sans-serif" font-size="14" lengthAdjust="spacing" textLength="87" x="259.75" y="576.751">Collaborator</text><line style="stroke:#181818;stroke-width:0.5;" x1="142.5" x2="431.5" y1="587.46" y2="587.46"/><rect fill="none" height="6" style="stroke:#C82930;stroke-width:1.0;" width="6" x="149.5" y="598.2041"/><text fill="#000000" font-family="sans-serif" font-size="14" lengthAdjust="spacing" textLength="87" x="161.5" y="604.9952">name: String</text><rect fill="none" height="6" style="stroke:#C82930;stroke-width:1.0;" width="6" x="149.5" y="614.6924"/><text fill="#000000" font-family="sans-serif" font-size="14" lengthAdjust="spacing" textLength="86" x="161.5" y="621.4834">email: String</text><rect fill="none" height="6" style="stroke:#C82930;stroke-width:1.0;" width="6" x="149.5" y="631.1807"/><text fill="#000000" font-family="sans-serif" font-size="14" lengthAdjust="spacing" textLength="105" x="161.5" y="637.9717">position: String</text><rect fill="none" height="6" style="stroke:#C82930;stroke-width:1.0;" width="6" x="149.5" y="647.669"/><text fill="#000000" font-family="sans-serif" font-size="14" lengthAdjust="spacing" textLength="113" x="161.5" y="654.46">skills: Set&lt;Skill&gt;</text><line style="stroke:#181818;stroke-width:0.5;" x1="142.5" x2="431.5" y1="661.4131" y2="661.4131"/><ellipse cx="152.5" cy="675.1573" fill="#84BE84" rx="3" ry="3" style="stroke:#038048;stroke-width:1.0;"/><text fill="#000000" font-family="sans-serif" font-size="14" lengthAdjust="spacing" textLength="265" x="161.5" y="678.9483">Employee(name, email, position, skills)</text><ellipse cx="152.5" cy="691.6455" fill="#84BE84" rx="3" ry="3" style="stroke:#038048;stroke-width:1.0;"/><text fill="#000000" font-family="sans-serif" font-size="14" lengthAdjust="spacing" textLength="120" x="161.5" y="695.4366">getName(): String</text><ellipse cx="152.5" cy="708.1338" fill="#84BE84" rx="3" ry="3" style="stroke:#038048;stroke-width:1.0;"/><text fill="#000000" font-family="sans-serif" font-size="14" lengthAdjust="spacing" textLength="118" x="161.5" y="711.9248">getEmail(): String</text><ellipse cx="152.5" cy="724.6221" fill="#84BE84" rx="3" ry="3" style="stroke:#038048;stroke-width:1.0;"/><text fill="#000000" font-family="sans-serif" font-size="14" lengthAdjust="spacing" textLength="136" x="161.5" y="728.4131">getPosition(): String</text><ellipse cx="152.5" cy="741.1104" fill="#84BE84" rx="3" ry="3" style="stroke:#038048;stroke-width:1.0;"/><text fill="#000000" font-family="sans-serif" font-size="14" lengthAdjust="spacing" textLength="146" x="161.5" y="744.9014">getSkills(): Set&lt;Skill&gt;</text></g><!--class Skill--><g id="elem_Skill"><rect codeLine="18" fill="#F1F1F1" height="97.4648" id="Skill" rx="2.5" ry="2.5" style="stroke:#181818;stroke-width:0.5;" width="146" x="234" y="1069.28"/><ellipse cx="288.75" cy="1085.28" fill="#ADD1B2" rx="11" ry="11" style="stroke:#181818;stroke-width:1.0;"/><path d="M291.7231,1090.9231 Q291.1421,1091.2219 290.5029,1091.3713 Q289.8638,1091.5207 289.1582,1091.5207 Q286.6514,1091.5207 285.3315,1089.8689 Q284.0117,1088.217 284.0117,1085.0959 Q284.0117,1081.9665 285.3315,1080.3147 Q286.6514,1078.6628 289.1582,1078.6628 Q289.8638,1078.6628 290.5112,1078.8122 Q291.1587,1078.9616 291.7231,1079.2605 L291.7231,1081.9831 Q291.0923,1081.4021 290.4988,1081.1323 Q289.9053,1080.8625 289.2744,1080.8625 Q287.9297,1080.8625 287.2449,1081.9292 Q286.5601,1082.9958 286.5601,1085.0959 Q286.5601,1087.1877 287.2449,1088.2544 Q287.9297,1089.321 289.2744,1089.321 Q289.9053,1089.321 290.4988,1089.0512 Q291.0923,1088.7815 291.7231,1088.2004 Z " fill="#000000"/><text fill="#000000" font-family="sans-serif" font-size="14" lengthAdjust="spacing" textLength="28" x="309.25" y="1090.571">Skill</text><line style="stroke:#181818;stroke-width:0.5;" x1="235" x2="379" y1="1101.28" y2="1101.28"/><rect fill="none" height="6" style="stroke:#C82930;stroke-width:1.0;" width="6" x="242" y="1112.0241"/><text fill="#000000" font-family="sans-serif" font-size="14" lengthAdjust="spacing" textLength="87" x="254" y="1118.8152">name: String</text><line style="stroke:#181818;stroke-width:0.5;" x1="235" x2="379" y1="1125.7683" y2="1125.7683"/><ellipse cx="245" cy="1139.5124" fill="#84BE84" rx="3" ry="3" style="stroke:#038048;stroke-width:1.0;"/><text fill="#000000" font-family="sans-serif" font-size="14" lengthAdjust="spacing" textLength="76" x="254" y="1143.3034">Skill(name)</text><ellipse cx="245" cy="1156.0007" fill="#84BE84" rx="3" ry="3" style="stroke:#038048;stroke-width:1.0;"/><text fill="#000000" font-family="sans-serif" font-size="14" lengthAdjust="spacing" textLength="120" x="254" y="1159.7917">getName(): String</text></g><!--class Repositories--><g id="elem_Repositories"><rect codeLine="24" fill="#F1F1F1" height="48" id="Repositories" rx="2.5" ry="2.5" style="stroke:#181818;stroke-width:0.5;" width="117" x="372.5" y="241.49"/><ellipse cx="387.5" cy="257.49" fill="#ADD1B2" rx="11" ry="11" style="stroke:#181818;stroke-width:1.0;"/><path d="M390.4731,263.1331 Q389.8921,263.4319 389.2529,263.5813 Q388.6138,263.7307 387.9082,263.7307 Q385.4014,263.7307 384.0815,262.0789 Q382.7617,260.427 382.7617,257.3059 Q382.7617,254.1765 384.0815,252.5247 Q385.4014,250.8728 387.9082,250.8728 Q388.6138,250.8728 389.2612,251.0222 Q389.9087,251.1716 390.4731,251.4705 L390.4731,254.1931 Q389.8423,253.6121 389.2488,253.3423 Q388.6553,253.0725 388.0244,253.0725 Q386.6797,253.0725 385.9949,254.1392 Q385.3101,255.2058 385.3101,257.3059 Q385.3101,259.3977 385.9949,260.4644 Q386.6797,261.531 388.0244,261.531 Q388.6553,261.531 389.2488,261.2612 Q389.8423,260.9915 390.4731,260.4104 Z " fill="#000000"/><text fill="#000000" font-family="sans-serif" font-size="14" lengthAdjust="spacing" textLength="85" x="401.5" y="262.781">Repositories</text><line style="stroke:#181818;stroke-width:0.5;" x1="373.5" x2="488.5" y1="273.49" y2="273.49"/><line style="stroke:#181818;stroke-width:0.5;" x1="373.5" x2="488.5" y1="281.49" y2="281.49"/></g><!--class TeamProposal--><g id="elem_TeamProposal"><rect codeLine="28" fill="#F1F1F1" height="163.418" id="TeamProposal" rx="2.5" ry="2.5" style="stroke:#181818;stroke-width:0.5;" width="432" x="91" y="828.86"/><ellipse cx="253.75" cy="844.86" fill="#ADD1B2" rx="11" ry="11" style="stroke:#181818;stroke-width:1.0;"/><path d="M256.7231,850.5031 Q256.1421,850.8019 255.5029,850.9513 Q254.8638,851.1007 254.1582,851.1007 Q251.6514,851.1007 250.3315,849.4489 Q249.0117,847.797 249.0117,844.6759 Q249.0117,841.5465 250.3315,839.8947 Q251.6514,838.2428 254.1582,838.2428 Q254.8638,838.2428 255.5112,838.3922 Q256.1587,838.5416 256.7231,838.8405 L256.7231,841.5631 Q256.0923,840.9821 255.4988,840.7123 Q254.9053,840.4425 254.2744,840.4425 Q252.9297,840.4425 252.2449,841.5092 Q251.5601,842.5758 251.5601,844.6759 Q251.5601,846.7677 252.2449,847.8344 Q252.9297,848.901 254.2744,848.901 Q254.9053,848.901 255.4988,848.6312 Q256.0923,848.3615 256.7231,847.7804 Z " fill="#000000"/><text fill="#000000" font-family="sans-serif" font-size="14" lengthAdjust="spacing" textLength="98" x="274.25" y="850.151">TeamProposal</text><line style="stroke:#181818;stroke-width:0.5;" x1="92" x2="522" y1="860.86" y2="860.86"/><rect fill="none" height="6" style="stroke:#C82930;stroke-width:1.0;" width="6" x="99" y="871.6041"/><text fill="#000000" font-family="sans-serif" font-size="14" lengthAdjust="spacing" textLength="122" x="111" y="878.3952">maxTeamSize: int</text><rect fill="none" height="6" style="stroke:#C82930;stroke-width:1.0;" width="6" x="99" y="888.0924"/><text fill="#000000" font-family="sans-serif" font-size="14" lengthAdjust="spacing" textLength="118" x="111" y="894.8834">minTeamSize: int</text><rect fill="none" height="6" style="stroke:#C82930;stroke-width:1.0;" width="6" x="99" y="904.5807"/><text fill="#000000" font-family="sans-serif" font-size="14" lengthAdjust="spacing" textLength="173" x="111" y="911.3717">requiredSkills: Set&lt;Skill&gt;</text><line style="stroke:#181818;stroke-width:0.5;" x1="92" x2="522" y1="918.3248" y2="918.3248"/><ellipse cx="102" cy="932.069" fill="#84BE84" rx="3" ry="3" style="stroke:#038048;stroke-width:1.0;"/><text fill="#000000" font-family="sans-serif" font-size="14" lengthAdjust="spacing" textLength="406" x="111" y="935.86">TeamProposal(maxTeamSize, minTeamSize, requiredSkills)</text><ellipse cx="102" cy="948.5573" fill="#84BE84" rx="3" ry="3" style="stroke:#038048;stroke-width:1.0;"/><text fill="#000000" font-family="sans-serif" font-size="14" lengthAdjust="spacing" textLength="153" x="111" y="952.3483">getMaxTeamSize(): int</text><ellipse cx="102" cy="965.0455" fill="#84BE84" rx="3" ry="3" style="stroke:#038048;stroke-width:1.0;"/><text fill="#000000" font-family="sans-serif" font-size="14" lengthAdjust="spacing" textLength="149" x="111" y="968.8366">getMinTeamSize(): int</text><ellipse cx="102" cy="981.5338" fill="#84BE84" rx="3" ry="3" style="stroke:#038048;stroke-width:1.0;"/><text fill="#000000" font-family="sans-serif" font-size="14" lengthAdjust="spacing" textLength="208" x="111" y="985.3248">getRequiredSkills(): Set&lt;Skill&gt;</text></g><!--class CollaboratorRepository--><g id="elem_CollaboratorRepository"><rect codeLine="38" fill="#F1F1F1" height="64.4883" id="CollaboratorRepository" rx="2.5" ry="2.5" style="stroke:#181818;stroke-width:0.5;" width="473" x="50.5" y="366.49"/><ellipse cx="202.75" cy="382.49" fill="#ADD1B2" rx="11" ry="11" style="stroke:#181818;stroke-width:1.0;"/><path d="M205.7231,388.1331 Q205.1421,388.4319 204.5029,388.5813 Q203.8638,388.7307 203.1582,388.7307 Q200.6514,388.7307 199.3315,387.0789 Q198.0117,385.427 198.0117,382.3059 Q198.0117,379.1765 199.3315,377.5247 Q200.6514,375.8728 203.1582,375.8728 Q203.8638,375.8728 204.5112,376.0222 Q205.1587,376.1716 205.7231,376.4705 L205.7231,379.1931 Q205.0923,378.6121 204.4988,378.3423 Q203.9053,378.0725 203.2744,378.0725 Q201.9297,378.0725 201.2449,379.1392 Q200.5601,380.2058 200.5601,382.3059 Q200.5601,384.3977 201.2449,385.4644 Q201.9297,386.531 203.2744,386.531 Q203.9053,386.531 204.4988,386.2612 Q205.0923,385.9915 205.7231,385.4104 Z " fill="#000000"/><text fill="#000000" font-family="sans-serif" font-size="14" lengthAdjust="spacing" textLength="160" x="223.25" y="387.781">CollaboratorRepository</text><line style="stroke:#181818;stroke-width:0.5;" x1="51.5" x2="522.5" y1="398.49" y2="398.49"/><line style="stroke:#181818;stroke-width:0.5;" x1="51.5" x2="522.5" y1="406.49" y2="406.49"/><ellipse cx="61.5" cy="420.2341" fill="#84BE84" rx="3" ry="3" style="stroke:#038048;stroke-width:1.0;"/><text fill="#000000" font-family="sans-serif" font-size="14" lengthAdjust="spacing" textLength="447" x="70.5" y="424.0252">getEmployeesBySkills(requiredSkills: Set&lt;Skill&gt;): List&lt;Employee&gt;</text></g><!--class TeamProposalController--><g id="elem_TeamProposalController"><rect codeLine="42" fill="#F1F1F1" height="64.4883" id="TeamProposalController" rx="2.5" ry="2.5" style="stroke:#181818;stroke-width:0.5;" width="730" x="66" y="116"/><ellipse cx="342.75" cy="132" fill="#ADD1B2" rx="11" ry="11" style="stroke:#181818;stroke-width:1.0;"/><path d="M345.7231,137.6431 Q345.1421,137.9419 344.5029,138.0913 Q343.8638,138.2407 343.1582,138.2407 Q340.6514,138.2407 339.3315,136.5889 Q338.0117,134.937 338.0117,131.8159 Q338.0117,128.6865 339.3315,127.0347 Q340.6514,125.3828 343.1582,125.3828 Q343.8638,125.3828 344.5112,125.5322 Q345.1587,125.6816 345.7231,125.9805 L345.7231,128.7031 Q345.0923,128.1221 344.4988,127.8523 Q343.9053,127.5825 343.2744,127.5825 Q341.9297,127.5825 341.2449,128.6492 Q340.5601,129.7158 340.5601,131.8159 Q340.5601,133.9077 341.2449,134.9744 Q341.9297,136.041 343.2744,136.041 Q343.9053,136.041 344.4988,135.7712 Q345.0923,135.5015 345.7231,134.9204 Z " fill="#000000"/><text fill="#000000" font-family="sans-serif" font-size="14" lengthAdjust="spacing" textLength="168" x="363.25" y="137.291">TeamProposalController</text><line style="stroke:#181818;stroke-width:0.5;" x1="67" x2="795" y1="148" y2="148"/><line style="stroke:#181818;stroke-width:0.5;" x1="67" x2="795" y1="156" y2="156"/><ellipse cx="77" cy="169.7441" fill="#84BE84" rx="3" ry="3" style="stroke:#038048;stroke-width:1.0;"/><text fill="#000000" font-family="sans-serif" font-size="14" lengthAdjust="spacing" textLength="704" x="86" y="173.5352">generateTeamProposal(maxTeamSize: int, minTeamSize: int, requiredSkills: Set&lt;Skill&gt;): TeamProposal</text></g><!--class SkillRepository--><g id="elem_SkillRepository"><rect codeLine="45" fill="#F1F1F1" height="64.4883" id="SkillRepository" rx="2.5" ry="2.5" style="stroke:#181818;stroke-width:0.5;" width="244" x="454" y="460.97"/><ellipse cx="521.25" cy="476.97" fill="#ADD1B2" rx="11" ry="11" style="stroke:#181818;stroke-width:1.0;"/><path d="M524.2231,482.6131 Q523.6421,482.9119 523.0029,483.0613 Q522.3638,483.2107 521.6582,483.2107 Q519.1514,483.2107 517.8315,481.5589 Q516.5117,479.907 516.5117,476.7859 Q516.5117,473.6565 517.8315,472.0047 Q519.1514,470.3528 521.6582,470.3528 Q522.3638,470.3528 523.0112,470.5022 Q523.6587,470.6516 524.2231,470.9505 L524.2231,473.6731 Q523.5923,473.0921 522.9988,472.8223 Q522.4053,472.5525 521.7744,472.5525 Q520.4297,472.5525 519.7449,473.6192 Q519.0601,474.6858 519.0601,476.7859 Q519.0601,478.8777 519.7449,479.9444 Q520.4297,481.011 521.7744,481.011 Q522.4053,481.011 522.9988,480.7412 Q523.5923,480.4715 524.2231,479.8904 Z " fill="#000000"/><text fill="#000000" font-family="sans-serif" font-size="14" lengthAdjust="spacing" textLength="101" x="541.75" y="482.261">SkillRepository</text><line style="stroke:#181818;stroke-width:0.5;" x1="455" x2="697" y1="492.97" y2="492.97"/><line style="stroke:#181818;stroke-width:0.5;" x1="455" x2="697" y1="500.97" y2="500.97"/><ellipse cx="465" cy="514.7141" fill="#84BE84" rx="3" ry="3" style="stroke:#038048;stroke-width:1.0;"/><text fill="#000000" font-family="sans-serif" font-size="14" lengthAdjust="spacing" textLength="218" x="474" y="518.5052">getAvailableSkills() : List &lt;Skill&gt;</text></g><!--class TeamProposalUI--><g id="elem_TeamProposalUI"><rect codeLine="49" fill="#F1F1F1" height="48" id="TeamProposalUI" rx="2.5" ry="2.5" style="stroke:#181818;stroke-width:0.5;" width="144" x="359" y="7"/><ellipse cx="374" cy="23" fill="#ADD1B2" rx="11" ry="11" style="stroke:#181818;stroke-width:1.0;"/><path d="M376.9731,28.6431 Q376.3921,28.9419 375.7529,29.0913 Q375.1138,29.2407 374.4082,29.2407 Q371.9014,29.2407 370.5815,27.5889 Q369.2617,25.937 369.2617,22.8159 Q369.2617,19.6865 370.5815,18.0347 Q371.9014,16.3828 374.4082,16.3828 Q375.1138,16.3828 375.7612,16.5322 Q376.4087,16.6816 376.9731,16.9805 L376.9731,19.7031 Q376.3423,19.1221 375.7488,18.8523 Q375.1553,18.5825 374.5244,18.5825 Q373.1797,18.5825 372.4949,19.6492 Q371.8101,20.7158 371.8101,22.8159 Q371.8101,24.9077 372.4949,25.9744 Q373.1797,27.041 374.5244,27.041 Q375.1553,27.041 375.7488,26.7712 Q376.3423,26.5015 376.9731,25.9204 Z " fill="#000000"/><text fill="#000000" font-family="sans-serif" font-size="14" lengthAdjust="spacing" textLength="112" x="388" y="28.291">TeamProposalUI</text><line style="stroke:#181818;stroke-width:0.5;" x1="360" x2="502" y1="39" y2="39"/><line style="stroke:#181818;stroke-width:0.5;" x1="360" x2="502" y1="47" y2="47"/></g><!--link Collaborator to TeamProposal--><g id="link_Collaborator_TeamProposal"><path codeLine="52" d="M294.65,752.12 C296.63,777.42 298.2806,798.4084 300.1906,822.7484 " fill="none" id="Collaborator-to-TeamProposal" style="stroke:#181818;stroke-width:1.0;"/><polygon fill="#181818" points="300.66,828.73,303.9437,819.4447,300.2688,823.7453,295.9682,820.0705,300.66,828.73" style="stroke:#181818;stroke-width:1.0;"/><text fill="#000000" font-family="sans-serif" font-size="13" lengthAdjust="spacing" textLength="45" x="300" y="795.4284">creates</text><text fill="#000000" font-family="sans-serif" font-size="13" lengthAdjust="spacing" textLength="8" x="286.918" y="772.4814">1</text><text fill="#000000" font-family="sans-serif" font-size="13" lengthAdjust="spacing" textLength="6" x="293.799" y="818.0767">*</text></g><!--link SkillRepository to Skill--><g id="link_SkillRepository_Skill"><path codeLine="53" d="M573.78,525.75 C566.09,635.24 541,992.28 541,992.28 C541,992.28 454.3147,1038.4775 385.6947,1075.0575 " fill="none" id="SkillRepository-to-Skill" style="stroke:#181818;stroke-width:1.0;"/><polygon fill="#181818" points="380.4,1077.88,390.2237,1077.176,384.8122,1075.5279,386.4604,1070.1165,380.4,1077.88" style="stroke:#181818;stroke-width:1.0;"/><text fill="#000000" font-family="sans-serif" font-size="13" lengthAdjust="spacing" textLength="54" x="556" y="795.4284">retrieves</text><text fill="#000000" font-family="sans-serif" font-size="13" lengthAdjust="spacing" textLength="8" x="564.5943" y="545.9798">1</text><text fill="#000000" font-family="sans-serif" font-size="13" lengthAdjust="spacing" textLength="6" x="387.9206" y="1070.7748">*</text></g><!--link Repositories to SkillRepository--><g id="link_Repositories_SkillRepository"><path codeLine="54" d="M456.79,289.93 C489.3,319.49 541,366.49 541,366.49 C541,366.49 555.1909,417.4598 565.5609,454.7098 " fill="none" id="Repositories-to-SkillRepository" style="stroke:#181818;stroke-width:1.0;"/><polygon fill="#181818" points="567.17,460.49,568.6097,450.7469,565.829,455.6732,560.9028,452.8925,567.17,460.49" style="stroke:#181818;stroke-width:1.0;"/><text fill="#000000" font-family="sans-serif" font-size="13" lengthAdjust="spacing" textLength="29" x="507" y="333.0584">uses</text><text fill="#000000" font-family="sans-serif" font-size="13" lengthAdjust="spacing" textLength="8" x="453.8289" y="309.9204">1</text><text fill="#000000" font-family="sans-serif" font-size="13" lengthAdjust="spacing" textLength="8" x="556.6441" y="450.1698">1</text></g><!--link TeamProposalUI to TeamProposalController--><g id="link_TeamProposalUI_TeamProposalController"><path codeLine="55" d="M431,55.32 C431,72.68 431,90.58 431,109.66 " fill="none" id="TeamProposalUI-to-TeamProposalController" style="stroke:#181818;stroke-width:1.0;"/><polygon fill="#181818" points="431,115.66,435,106.66,431,110.66,427,106.66,431,115.66" style="stroke:#181818;stroke-width:1.0;"/><text fill="#000000" font-family="sans-serif" font-size="13" lengthAdjust="spacing" textLength="8" x="422.025" y="75.6823">1</text><text fill="#000000" font-family="sans-serif" font-size="13" lengthAdjust="spacing" textLength="8" x="422.2125" y="105.3674">1</text></g><!--link TeamProposalController to Repositories--><g id="link_TeamProposalController_Repositories"><path codeLine="56" d="M431,180.73 C431,199.79 431,217.69 431,235.08 " fill="none" id="TeamProposalController-to-Repositories" style="stroke:#181818;stroke-width:1.0;"/><polygon fill="#181818" points="431,241.08,435,232.08,431,236.08,427,232.08,431,241.08" style="stroke:#181818;stroke-width:1.0;"/><text fill="#000000" font-family="sans-serif" font-size="13" lengthAdjust="spacing" textLength="8" x="422.2375" y="200.9503">1</text><text fill="#000000" font-family="sans-serif" font-size="13" lengthAdjust="spacing" textLength="8" x="422.025" y="230.9081">1</text></g><!--link Collaborator to Skill--><g id="link_Collaborator_Skill"><path codeLine="57" d="M141.15,745.08 C72.73,787.49 6,828.86 6,828.86 C6,828.86 6,992.28 6,992.28 C6,992.28 139.1171,1047.433 228.2071,1084.353 " fill="none" id="Collaborator-to-Skill" style="stroke:#181818;stroke-width:1.0;"/><polygon fill="#181818" points="233.75,1086.65,226.967,1079.5092,229.1309,1084.7358,223.9043,1086.8997,233.75,1086.65" style="stroke:#181818;stroke-width:1.0;"/><text fill="#000000" font-family="sans-serif" font-size="13" lengthAdjust="spacing" textLength="65" x="7" y="915.6384">possesses</text><text fill="#000000" font-family="sans-serif" font-size="13" lengthAdjust="spacing" textLength="8" x="125.4234" y="746.9836">1</text><text fill="#000000" font-family="sans-serif" font-size="13" lengthAdjust="spacing" textLength="6" x="219.8867" y="1080.2267">*</text></g><!--link TeamProposal to Skill--><g id="link_TeamProposal_Skill"><path codeLine="58" d="M307,992.76 C307,1018.56 307,1040.25 307,1062.93 " fill="none" id="TeamProposal-to-Skill" style="stroke:#181818;stroke-width:1.0;"/><polygon fill="#181818" points="307,1068.93,311,1059.93,307,1063.93,303,1059.93,307,1068.93" style="stroke:#181818;stroke-width:1.0;"/><text fill="#000000" font-family="sans-serif" font-size="13" lengthAdjust="spacing" textLength="51" x="308" y="1035.8484">requires</text><text fill="#000000" font-family="sans-serif" font-size="13" lengthAdjust="spacing" textLength="8" x="298.6688" y="1012.7688">1</text><text fill="#000000" font-family="sans-serif" font-size="13" lengthAdjust="spacing" textLength="6" x="300.5781" y="1058.5633">*</text></g><!--link CollaboratorRepository to Collaborator--><g id="link_CollaboratorRepository_Collaborator"><path codeLine="59" d="M287,431.25 C287,462.24 287,505.15 287,549.13 " fill="none" id="CollaboratorRepository-to-Collaborator" style="stroke:#181818;stroke-width:1.0;"/><polygon fill="#181818" points="287,555.13,291,546.13,287,550.13,283,546.13,287,555.13" style="stroke:#181818;stroke-width:1.0;"/><text fill="#000000" font-family="sans-serif" font-size="13" lengthAdjust="spacing" textLength="54" x="288" y="498.2884">retrieves</text><text fill="#000000" font-family="sans-serif" font-size="13" lengthAdjust="spacing" textLength="8" x="278.2375" y="451.476">1</text><text fill="#000000" font-family="sans-serif" font-size="13" lengthAdjust="spacing" textLength="6" x="280.7703" y="544.5925">*</text></g><!--link Repositories to CollaboratorRepository--><g id="link_Repositories_CollaboratorRepository"><path codeLine="60" d="M405.26,289.95 C381.96,311.18 351.8837,338.5874 326.1537,362.0474 " fill="none" id="Repositories-to-CollaboratorRepository" style="stroke:#181818;stroke-width:1.0;"/><polygon fill="#181818" points="321.72,366.09,331.0656,362.982,325.4148,362.7212,325.6755,357.0704,321.72,366.09" style="stroke:#181818;stroke-width:1.0;"/><text fill="#000000" font-family="sans-serif" font-size="13" lengthAdjust="spacing" textLength="29" x="373" y="333.0584">uses</text><text fill="#000000" font-family="sans-serif" font-size="13" lengthAdjust="spacing" textLength="8" x="390.3826" y="309.945">1</text><text fill="#000000" font-family="sans-serif" font-size="13" lengthAdjust="spacing" textLength="8" x="319.768" y="355.7856">1</text></g><!--SRC=[ZLDDJzmm4BtdLunoOIdP0zSLGYg8GoMA46b_W0d3Ok7OgUs5fgZ_lHF7sOopQzISalbuyzwRoObxbReJLhJG6csQ5sjQ16ztMCoPJZIlOekrxnM2nSOBlLMymBs89_CkzHQUXN8yewH6ttS8dL7zy54KZHBEmRLHIZmQAxony540FMlGeiKDrDuIL0nXAwHQn3hZf9T6By8qLIb7GVGNzV1-6H9dSDDsolI8gm6_6Y6hFKeL6qzZzHRz7TMjJXFu4ByPEeybxYFMiLoWua9c9lPtyY5yvmqu6mi2ypp1FTe31bN6IdGVGpZ6Vw1exwsXf9Y7jUBt4A_b7vefjP_2KXyBM_oranQVwfpBVCQAOLSSiLhWC4tVvvP1sZHvpCq81xc7133dCx-tlKjzz28kTxmITzL7gBna6d8hdR-OUjWWRiErqTxIOBHia4OYWJctWhZgO0aLV4g6en4LTbgpLYRrwnlTiNXKE7a6enuui8q3__mMJYhvSylp4jRhIoY_bEcHRQ2nI3fTiQ2Hj8pNlo5nTCZuHjNyWkVIytAfXffsZkfJWad7yKqKcGNnJauYhtSYJxN4P4acepCiCGNDU9FC_I-BCg3HgNy0]--></g></svg>