<?xml version="1.0" encoding="us-ascii" standalone="no"?><svg xmlns="http://www.w3.org/2000/svg" xmlns:xlink="http://www.w3.org/1999/xlink" contentStyleType="text/css" height="638px" preserveAspectRatio="none" style="width:981px;height:638px;background:#FFFFFF;" version="1.1" viewBox="0 0 981 638" width="981px" zoomAndPan="magnify"><defs/><g><rect fill="#FFFFFF" height="447.7266" style="stroke:#181818;stroke-width:1.0;" width="10" x="44.5" y="91.4883"/><rect fill="#FFFFFF" height="29.3105" style="stroke:#181818;stroke-width:1.0;" width="10" x="496.5" y="112.7988"/><rect fill="#FFFFFF" height="331.4844" style="stroke:#181818;stroke-width:1.0;" width="10" x="496.5" y="171.4199"/><line style="stroke:#181818;stroke-width:0.5;stroke-dasharray:5.0,5.0;" x1="49" x2="49" y1="81.4883" y2="557.2148"/><line style="stroke:#181818;stroke-width:0.5;stroke-dasharray:5.0,5.0;" x1="501.5" x2="501.5" y1="81.4883" y2="557.2148"/><line style="stroke:#181818;stroke-width:0.5;stroke-dasharray:5.0,5.0;" x1="882.5" x2="882.5" y1="81.4883" y2="557.2148"/><text fill="#000000" font-family="sans-serif" font-size="14" lengthAdjust="spacing" textLength="83" x="5" y="78.5352">HR Manager</text><ellipse cx="49.5" cy="13.5" fill="#E3E3E3" rx="8" ry="8" style="stroke:#181818;stroke-width:0.5;"/><path d="M49.5,21.5 L49.5,48.5 M36.5,29.5 L62.5,29.5 M49.5,48.5 L36.5,63.5 M49.5,48.5 L62.5,63.5 " fill="none" style="stroke:#181818;stroke-width:0.5;"/><text fill="#000000" font-family="sans-serif" font-size="14" lengthAdjust="spacing" textLength="83" x="5" y="569.75">HR Manager</text><ellipse cx="49.5" cy="581.2031" fill="#E3E3E3" rx="8" ry="8" style="stroke:#181818;stroke-width:0.5;"/><path d="M49.5,589.2031 L49.5,616.2031 M36.5,597.2031 L62.5,597.2031 M49.5,616.2031 L36.5,631.2031 M49.5,616.2031 L62.5,631.2031 " fill="none" style="stroke:#181818;stroke-width:0.5;"/><rect fill="#E3E3E3" height="30.4883" rx="2.5" ry="2.5" style="stroke:#181818;stroke-width:0.5;" width="130" x="436.5" y="50"/><text fill="#000000" font-family="sans-serif" font-size="14" lengthAdjust="spacing" textLength="116" x="443.5" y="70.5352">:TeamProposalUI</text><rect fill="#E3E3E3" height="30.4883" rx="2.5" ry="2.5" style="stroke:#181818;stroke-width:0.5;" width="130" x="436.5" y="556.2148"/><text fill="#000000" font-family="sans-serif" font-size="14" lengthAdjust="spacing" textLength="116" x="443.5" y="576.75">:TeamProposalUI</text><rect fill="#E3E3E3" height="30.4883" rx="2.5" ry="2.5" style="stroke:#181818;stroke-width:0.5;" width="186" x="789.5" y="50"/><text fill="#000000" font-family="sans-serif" font-size="14" lengthAdjust="spacing" textLength="172" x="796.5" y="70.5352">:TeamProposalController</text><rect fill="#E3E3E3" height="30.4883" rx="2.5" ry="2.5" style="stroke:#181818;stroke-width:0.5;" width="186" x="789.5" y="556.2148"/><text fill="#000000" font-family="sans-serif" font-size="14" lengthAdjust="spacing" textLength="172" x="796.5" y="576.75">:TeamProposalController</text><rect fill="#FFFFFF" height="447.7266" style="stroke:#181818;stroke-width:1.0;" width="10" x="44.5" y="91.4883"/><rect fill="#FFFFFF" height="29.3105" style="stroke:#181818;stroke-width:1.0;" width="10" x="496.5" y="112.7988"/><rect fill="#FFFFFF" height="331.4844" style="stroke:#181818;stroke-width:1.0;" width="10" x="496.5" y="171.4199"/><polygon fill="#181818" points="484.5,108.7988,494.5,112.7988,484.5,116.7988,488.5,112.7988" style="stroke:#181818;stroke-width:1.0;"/><line style="stroke:#181818;stroke-width:1.0;" x1="54.5" x2="490.5" y1="112.7988" y2="112.7988"/><text fill="#000000" font-family="sans-serif" font-size="13" lengthAdjust="spacing" textLength="219" x="61.5" y="108.0566">requests team proposal generation</text><polygon fill="#181818" points="65.5,138.1094,55.5,142.1094,65.5,146.1094,61.5,142.1094" style="stroke:#181818;stroke-width:1.0;"/><line style="stroke:#181818;stroke-width:1.0;stroke-dasharray:2.0,2.0;" x1="59.5" x2="500.5" y1="142.1094" y2="142.1094"/><text fill="#000000" font-family="sans-serif" font-size="13" lengthAdjust="spacing" textLength="382" x="71.5" y="137.3672">requests data (max team size, min team size, required skills)</text><polygon fill="#181818" points="484.5,167.4199,494.5,171.4199,484.5,175.4199,488.5,171.4199" style="stroke:#181818;stroke-width:1.0;"/><line style="stroke:#181818;stroke-width:1.0;" x1="54.5" x2="490.5" y1="171.4199" y2="171.4199"/><text fill="#000000" font-family="sans-serif" font-size="13" lengthAdjust="spacing" textLength="423" x="61.5" y="166.6777">enters required data (max team size, min team size, selected skills)</text><line style="stroke:#181818;stroke-width:1.0;" x1="506.5" x2="548.5" y1="200.7305" y2="200.7305"/><line style="stroke:#181818;stroke-width:1.0;" x1="548.5" x2="548.5" y1="200.7305" y2="213.7305"/><line style="stroke:#181818;stroke-width:1.0;" x1="507.5" x2="548.5" y1="213.7305" y2="213.7305"/><polygon fill="#181818" points="517.5,209.7305,507.5,213.7305,517.5,217.7305,513.5,213.7305" style="stroke:#181818;stroke-width:1.0;"/><text fill="#000000" font-family="sans-serif" font-size="13" lengthAdjust="spacing" textLength="166" x="513.5" y="195.9883">parseInputData(inputData)</text><line style="stroke:#181818;stroke-width:1.0;stroke-dasharray:2.0,2.0;" x1="506.5" x2="548.5" y1="243.041" y2="243.041"/><line style="stroke:#181818;stroke-width:1.0;stroke-dasharray:2.0,2.0;" x1="548.5" x2="548.5" y1="243.041" y2="256.041"/><line style="stroke:#181818;stroke-width:1.0;stroke-dasharray:2.0,2.0;" x1="507.5" x2="548.5" y1="256.041" y2="256.041"/><polygon fill="#181818" points="517.5,252.041,507.5,256.041,517.5,260.041,513.5,256.041" style="stroke:#181818;stroke-width:1.0;"/><text fill="#000000" font-family="sans-serif" font-size="13" lengthAdjust="spacing" textLength="255" x="513.5" y="238.2988">maxTeamSize, minTeamSize, skillNames</text><line style="stroke:#181818;stroke-width:1.0;" x1="506.5" x2="548.5" y1="285.3516" y2="285.3516"/><line style="stroke:#181818;stroke-width:1.0;" x1="548.5" x2="548.5" y1="285.3516" y2="298.3516"/><line style="stroke:#181818;stroke-width:1.0;" x1="507.5" x2="548.5" y1="298.3516" y2="298.3516"/><polygon fill="#181818" points="517.5,294.3516,507.5,298.3516,517.5,302.3516,513.5,298.3516" style="stroke:#181818;stroke-width:1.0;"/><text fill="#000000" font-family="sans-serif" font-size="13" lengthAdjust="spacing" textLength="245" x="513.5" y="280.6094">convertSkillNamesToSkills(skillNames)</text><line style="stroke:#181818;stroke-width:1.0;stroke-dasharray:2.0,2.0;" x1="506.5" x2="548.5" y1="327.6621" y2="327.6621"/><line style="stroke:#181818;stroke-width:1.0;stroke-dasharray:2.0,2.0;" x1="548.5" x2="548.5" y1="327.6621" y2="340.6621"/><line style="stroke:#181818;stroke-width:1.0;stroke-dasharray:2.0,2.0;" x1="507.5" x2="548.5" y1="340.6621" y2="340.6621"/><polygon fill="#181818" points="517.5,336.6621,507.5,340.6621,517.5,344.6621,513.5,340.6621" style="stroke:#181818;stroke-width:1.0;"/><text fill="#000000" font-family="sans-serif" font-size="13" lengthAdjust="spacing" textLength="86" x="513.5" y="322.9199">requiredSkills</text><line style="stroke:#181818;stroke-width:1.0;" x1="506.5" x2="548.5" y1="369.9727" y2="369.9727"/><line style="stroke:#181818;stroke-width:1.0;" x1="548.5" x2="548.5" y1="369.9727" y2="382.9727"/><line style="stroke:#181818;stroke-width:1.0;" x1="507.5" x2="548.5" y1="382.9727" y2="382.9727"/><polygon fill="#181818" points="517.5,378.9727,507.5,382.9727,517.5,386.9727,513.5,382.9727" style="stroke:#181818;stroke-width:1.0;"/><text fill="#000000" font-family="sans-serif" font-size="13" lengthAdjust="spacing" textLength="357" x="513.5" y="365.2305">confirmData(maxTeamSize, minTeamSize, requiredSkills)</text><line style="stroke:#181818;stroke-width:1.0;stroke-dasharray:2.0,2.0;" x1="506.5" x2="548.5" y1="412.2832" y2="412.2832"/><line style="stroke:#181818;stroke-width:1.0;stroke-dasharray:2.0,2.0;" x1="548.5" x2="548.5" y1="412.2832" y2="425.2832"/><line style="stroke:#181818;stroke-width:1.0;stroke-dasharray:2.0,2.0;" x1="507.5" x2="548.5" y1="425.2832" y2="425.2832"/><polygon fill="#181818" points="517.5,421.2832,507.5,425.2832,517.5,429.2832,513.5,425.2832" style="stroke:#181818;stroke-width:1.0;"/><text fill="#000000" font-family="sans-serif" font-size="13" lengthAdjust="spacing" textLength="64" x="513.5" y="407.541">confirmed</text><line style="stroke:#181818;stroke-width:1.0;" x1="506.5" x2="548.5" y1="454.5938" y2="454.5938"/><line style="stroke:#181818;stroke-width:1.0;" x1="548.5" x2="548.5" y1="454.5938" y2="467.5938"/><line style="stroke:#181818;stroke-width:1.0;" x1="507.5" x2="548.5" y1="467.5938" y2="467.5938"/><polygon fill="#181818" points="517.5,463.5938,507.5,467.5938,517.5,471.5938,513.5,467.5938" style="stroke:#181818;stroke-width:1.0;"/><text fill="#000000" font-family="sans-serif" font-size="13" lengthAdjust="spacing" textLength="197" x="513.5" y="449.8516">createTeamProposalController()</text><line style="stroke:#181818;stroke-width:1.0;stroke-dasharray:2.0,2.0;" x1="506.5" x2="548.5" y1="501.9043" y2="501.9043"/><line style="stroke:#181818;stroke-width:1.0;stroke-dasharray:2.0,2.0;" x1="548.5" x2="548.5" y1="501.9043" y2="514.9043"/><line style="stroke:#181818;stroke-width:1.0;stroke-dasharray:2.0,2.0;" x1="501.5" x2="548.5" y1="514.9043" y2="514.9043"/><polygon fill="#181818" points="511.5,510.9043,501.5,514.9043,511.5,518.9043,507.5,514.9043" style="stroke:#181818;stroke-width:1.0;"/><text fill="#000000" font-family="sans-serif" font-size="13" lengthAdjust="spacing" textLength="120" x="513.5" y="497.1621">Controller instance</text><polygon fill="#181818" points="489.5,535.2148,499.5,539.2148,489.5,543.2148,493.5,539.2148" style="stroke:#181818;stroke-width:1.0;"/><line style="stroke:#181818;stroke-width:1.0;" x1="49.5" x2="495.5" y1="539.2148" y2="539.2148"/><text fill="#000000" font-family="sans-serif" font-size="13" lengthAdjust="spacing" textLength="82" x="56.5" y="534.4727">submits data</text><!--SRC=[ZP99ReDG38RtdCBAYaZD1RBefbqaYrHLI0xWWaEUyWRwRDBXz3K40dI8ka7Fylz_7Z2VZAymeWCNVCYFCJW2YJKbVCrKc9-mf4m-B46aND2NTYpW8nRXpVWI3cYPaWHp2H5cgoriqAirpW0PLjjDeWOnkQdG2yoMEqBt74CL6Er-tOhswnkQX-0b1cixu12s9SqPXTegYNvWSQymM6h7hpMnC0WrmtGeACbJH3713rujdgXdeTQ6CF8MA0Yfm_SBXSqdtO4pVXmsOXEf0DsCjJnF2fgGnqsH5ueyMFx3PxAw_17_HzyTN1V8jFPLBO-AJKt_clV3jIejrkmswqiDGSj_GaSymUR1dobATitkGllcT31CI_JZNMJVOGSJNTlWtvrC0LDuHw1Yoesa6_dzQD8fO4Y0yQnNdTEjNyRrYpFTAOnrgla2]--></g></svg>