<?xml version="1.0" encoding="us-ascii" standalone="no"?><svg xmlns="http://www.w3.org/2000/svg" xmlns:xlink="http://www.w3.org/1999/xlink" contentStyleType="text/css" height="961px" preserveAspectRatio="none" style="width:2146px;height:961px;background:#FFFFFF;" version="1.1" viewBox="0 0 2146 961" width="2146px" zoomAndPan="magnify"><defs/><g><rect fill="#FFFFFF" height="771.4531" style="stroke:#181818;stroke-width:1.0;" width="10" x="44.5" y="91.4883"/><rect fill="#FFFFFF" height="322.416" style="stroke:#181818;stroke-width:1.0;" width="10" x="518.5" y="112.7988"/><rect fill="#FFFFFF" height="29.3105" style="stroke:#181818;stroke-width:1.0;" width="10" x="518.5" y="464.5254"/><rect fill="#FFFFFF" height="29.3105" style="stroke:#181818;stroke-width:1.0;" width="10" x="518.5" y="523.1465"/><rect fill="#FFFFFF" height="281.1738" style="stroke:#181818;stroke-width:1.0;" width="10" x="518.5" y="581.7676"/><rect fill="#FFFFFF" height="205.1738" style="stroke:#181818;stroke-width:1.0;" width="10" x="990.5" y="200.7305"/><rect fill="#FFFFFF" height="222.5527" style="stroke:#181818;stroke-width:1.0;" width="10" x="990.5" y="611.0781"/><rect fill="#FFFFFF" height="40.3105" style="stroke:#181818;stroke-width:1.0;" width="10" x="995.5" y="757.0098"/><rect fill="#FFFFFF" height="29.3105" style="stroke:#181818;stroke-width:1.0;" width="10" x="1458.5" y="230.041"/><rect fill="#FFFFFF" height="29.3105" style="stroke:#181818;stroke-width:1.0;" width="10" x="1571.5" y="288.6621"/><rect fill="#FFFFFF" height="29.3105" style="stroke:#181818;stroke-width:1.0;" width="10" x="1919.5" y="665.3887"/><rect fill="#FFFFFF" height="29.3105" style="stroke:#181818;stroke-width:1.0;" width="10" x="2076" y="347.2832"/><line style="stroke:#181818;stroke-width:0.5;stroke-dasharray:5.0,5.0;" x1="49" x2="49" y1="81.4883" y2="880.9414"/><line style="stroke:#181818;stroke-width:0.5;stroke-dasharray:5.0,5.0;" x1="523.5" x2="523.5" y1="81.4883" y2="880.9414"/><line style="stroke:#181818;stroke-width:0.5;stroke-dasharray:5.0,5.0;" x1="995.5" x2="995.5" y1="81.4883" y2="880.9414"/><line style="stroke:#181818;stroke-width:0.5;stroke-dasharray:5.0,5.0;" x1="1463" x2="1463" y1="81.4883" y2="880.9414"/><line style="stroke:#181818;stroke-width:0.5;stroke-dasharray:5.0,5.0;" x1="1576" x2="1576" y1="81.4883" y2="880.9414"/><line style="stroke:#181818;stroke-width:0.5;stroke-dasharray:5.0,5.0;" x1="1732" x2="1732" y1="81.4883" y2="880.9414"/><line style="stroke:#181818;stroke-width:0.5;stroke-dasharray:5.0,5.0;" x1="1924" x2="1924" y1="81.4883" y2="880.9414"/><line style="stroke:#181818;stroke-width:0.5;stroke-dasharray:5.0,5.0;" x1="2081" x2="2081" y1="81.4883" y2="880.9414"/><text fill="#000000" font-family="sans-serif" font-size="14" lengthAdjust="spacing" textLength="83" x="5" y="78.5352">HR Manager</text><ellipse cx="49.5" cy="13.5" fill="#E3E3E3" rx="8" ry="8" style="stroke:#181818;stroke-width:0.5;"/><path d="M49.5,21.5 L49.5,48.5 M36.5,29.5 L62.5,29.5 M49.5,48.5 L36.5,63.5 M49.5,48.5 L62.5,63.5 " fill="none" style="stroke:#181818;stroke-width:0.5;"/><text fill="#000000" font-family="sans-serif" font-size="14" lengthAdjust="spacing" textLength="83" x="5" y="893.4766">HR Manager</text><ellipse cx="49.5" cy="904.9297" fill="#E3E3E3" rx="8" ry="8" style="stroke:#181818;stroke-width:0.5;"/><path d="M49.5,912.9297 L49.5,939.9297 M36.5,920.9297 L62.5,920.9297 M49.5,939.9297 L36.5,954.9297 M49.5,939.9297 L62.5,954.9297 " fill="none" style="stroke:#181818;stroke-width:0.5;"/><rect fill="#E3E3E3" height="30.4883" rx="2.5" ry="2.5" style="stroke:#181818;stroke-width:0.5;" width="130" x="458.5" y="50"/><text fill="#000000" font-family="sans-serif" font-size="14" lengthAdjust="spacing" textLength="116" x="465.5" y="70.5352">:TeamProposalUI</text><rect fill="#E3E3E3" height="30.4883" rx="2.5" ry="2.5" style="stroke:#181818;stroke-width:0.5;" width="130" x="458.5" y="879.9414"/><text fill="#000000" font-family="sans-serif" font-size="14" lengthAdjust="spacing" textLength="116" x="465.5" y="900.4766">:TeamProposalUI</text><rect fill="#E3E3E3" height="30.4883" rx="2.5" ry="2.5" style="stroke:#181818;stroke-width:0.5;" width="186" x="902.5" y="50"/><text fill="#000000" font-family="sans-serif" font-size="14" lengthAdjust="spacing" textLength="172" x="909.5" y="70.5352">:TeamProposalController</text><rect fill="#E3E3E3" height="30.4883" rx="2.5" ry="2.5" style="stroke:#181818;stroke-width:0.5;" width="186" x="902.5" y="879.9414"/><text fill="#000000" font-family="sans-serif" font-size="14" lengthAdjust="spacing" textLength="172" x="909.5" y="900.4766">:TeamProposalController</text><rect fill="#E3E3E3" height="30.4883" rx="2.5" ry="2.5" style="stroke:#181818;stroke-width:0.5;" width="103" x="1412" y="50"/><text fill="#000000" font-family="sans-serif" font-size="14" lengthAdjust="spacing" textLength="89" x="1419" y="70.5352">:Repositories</text><rect fill="#E3E3E3" height="30.4883" rx="2.5" ry="2.5" style="stroke:#181818;stroke-width:0.5;" width="103" x="1412" y="879.9414"/><text fill="#000000" font-family="sans-serif" font-size="14" lengthAdjust="spacing" textLength="89" x="1419" y="900.4766">:Repositories</text><rect fill="#E3E3E3" height="46.9766" rx="2.5" ry="2.5" style="stroke:#181818;stroke-width:0.5;" width="103" x="1525" y="33.5117"/><text fill="#000000" font-family="sans-serif" font-size="14" lengthAdjust="spacing" textLength="82" x="1535.5" y="54.0469">repositories</text><text fill="#000000" font-family="sans-serif" font-size="14" lengthAdjust="spacing" textLength="89" x="1532" y="70.5352">:Repositories</text><rect fill="#E3E3E3" height="46.9766" rx="2.5" ry="2.5" style="stroke:#181818;stroke-width:0.5;" width="103" x="1525" y="879.9414"/><text fill="#000000" font-family="sans-serif" font-size="14" lengthAdjust="spacing" textLength="82" x="1535.5" y="900.4766">repositories</text><text fill="#000000" font-family="sans-serif" font-size="14" lengthAdjust="spacing" textLength="89" x="1532" y="916.9648">:Repositories</text><rect fill="#E3E3E3" height="46.9766" rx="2.5" ry="2.5" style="stroke:#181818;stroke-width:0.5;" width="189" x="1638" y="33.5117"/><text fill="#000000" font-family="sans-serif" font-size="14" lengthAdjust="spacing" textLength="175" x="1645" y="54.0469">TeamProposalRepository:</text><text fill="#000000" font-family="sans-serif" font-size="14" lengthAdjust="spacing" textLength="171" x="1647" y="70.5352">TeamProposalRepository</text><rect fill="#E3E3E3" height="46.9766" rx="2.5" ry="2.5" style="stroke:#181818;stroke-width:0.5;" width="189" x="1638" y="879.9414"/><text fill="#000000" font-family="sans-serif" font-size="14" lengthAdjust="spacing" textLength="175" x="1645" y="900.4766">TeamProposalRepository:</text><text fill="#000000" font-family="sans-serif" font-size="14" lengthAdjust="spacing" textLength="171" x="1647" y="916.9648">TeamProposalRepository</text><rect fill="#E3E3E3" height="46.9766" rx="2.5" ry="2.5" style="stroke:#181818;stroke-width:0.5;" width="175" x="1837" y="33.5117"/><text fill="#000000" font-family="sans-serif" font-size="14" lengthAdjust="spacing" textLength="161" x="1844" y="54.0469">collaboratorRepository:</text><text fill="#000000" font-family="sans-serif" font-size="14" lengthAdjust="spacing" textLength="160" x="1844.5" y="70.5352">CollaboratorRepository</text><rect fill="#E3E3E3" height="46.9766" rx="2.5" ry="2.5" style="stroke:#181818;stroke-width:0.5;" width="175" x="1837" y="879.9414"/><text fill="#000000" font-family="sans-serif" font-size="14" lengthAdjust="spacing" textLength="161" x="1844" y="900.4766">collaboratorRepository:</text><text fill="#000000" font-family="sans-serif" font-size="14" lengthAdjust="spacing" textLength="160" x="1844.5" y="916.9648">CollaboratorRepository</text><rect fill="#E3E3E3" height="46.9766" rx="2.5" ry="2.5" style="stroke:#181818;stroke-width:0.5;" width="118" x="2022" y="33.5117"/><text fill="#000000" font-family="sans-serif" font-size="14" lengthAdjust="spacing" textLength="104" x="2029" y="54.0469">skillRepository:</text><text fill="#000000" font-family="sans-serif" font-size="14" lengthAdjust="spacing" textLength="101" x="2030.5" y="70.5352">SkillRepository</text><rect fill="#E3E3E3" height="46.9766" rx="2.5" ry="2.5" style="stroke:#181818;stroke-width:0.5;" width="118" x="2022" y="879.9414"/><text fill="#000000" font-family="sans-serif" font-size="14" lengthAdjust="spacing" textLength="104" x="2029" y="900.4766">skillRepository:</text><text fill="#000000" font-family="sans-serif" font-size="14" lengthAdjust="spacing" textLength="101" x="2030.5" y="916.9648">SkillRepository</text><rect fill="#FFFFFF" height="771.4531" style="stroke:#181818;stroke-width:1.0;" width="10" x="44.5" y="91.4883"/><rect fill="#FFFFFF" height="322.416" style="stroke:#181818;stroke-width:1.0;" width="10" x="518.5" y="112.7988"/><rect fill="#FFFFFF" height="29.3105" style="stroke:#181818;stroke-width:1.0;" width="10" x="518.5" y="464.5254"/><rect fill="#FFFFFF" height="29.3105" style="stroke:#181818;stroke-width:1.0;" width="10" x="518.5" y="523.1465"/><rect fill="#FFFFFF" height="281.1738" style="stroke:#181818;stroke-width:1.0;" width="10" x="518.5" y="581.7676"/><rect fill="#FFFFFF" height="205.1738" style="stroke:#181818;stroke-width:1.0;" width="10" x="990.5" y="200.7305"/><rect fill="#FFFFFF" height="222.5527" style="stroke:#181818;stroke-width:1.0;" width="10" x="990.5" y="611.0781"/><rect fill="#FFFFFF" height="40.3105" style="stroke:#181818;stroke-width:1.0;" width="10" x="995.5" y="757.0098"/><rect fill="#FFFFFF" height="29.3105" style="stroke:#181818;stroke-width:1.0;" width="10" x="1458.5" y="230.041"/><rect fill="#FFFFFF" height="29.3105" style="stroke:#181818;stroke-width:1.0;" width="10" x="1571.5" y="288.6621"/><rect fill="#FFFFFF" height="29.3105" style="stroke:#181818;stroke-width:1.0;" width="10" x="1919.5" y="665.3887"/><rect fill="#FFFFFF" height="29.3105" style="stroke:#181818;stroke-width:1.0;" width="10" x="2076" y="347.2832"/><polygon fill="#181818" points="506.5,108.7988,516.5,112.7988,506.5,116.7988,510.5,112.7988" style="stroke:#181818;stroke-width:1.0;"/><line style="stroke:#181818;stroke-width:1.0;" x1="54.5" x2="512.5" y1="112.7988" y2="112.7988"/><text fill="#000000" font-family="sans-serif" font-size="13" font-weight="bold" lengthAdjust="spacing" textLength="9" x="61.5" y="108.0566">1</text><text fill="#000000" font-family="sans-serif" font-size="13" lengthAdjust="spacing" textLength="219" x="74.5" y="108.0566">requests team proposal generation</text><polygon fill="#181818" points="65.5,138.1094,55.5,142.1094,65.5,146.1094,61.5,142.1094" style="stroke:#181818;stroke-width:1.0;"/><line style="stroke:#181818;stroke-width:1.0;stroke-dasharray:2.0,2.0;" x1="59.5" x2="517.5" y1="142.1094" y2="142.1094"/><text fill="#000000" font-family="sans-serif" font-size="13" font-weight="bold" lengthAdjust="spacing" textLength="9" x="71.5" y="137.3672">2</text><text fill="#000000" font-family="sans-serif" font-size="13" lengthAdjust="spacing" textLength="382" x="84.5" y="137.3672">requests data (max team size, min team size, required skills)</text><polygon fill="#181818" points="983.5,167.4199,993.5,171.4199,983.5,175.4199,987.5,171.4199" style="stroke:#181818;stroke-width:1.0;"/><line style="stroke:#181818;stroke-width:1.0;" x1="528.5" x2="989.5" y1="171.4199" y2="171.4199"/><text fill="#000000" font-family="sans-serif" font-size="13" font-weight="bold" lengthAdjust="spacing" textLength="9" x="535.5" y="166.6777">3</text><text fill="#000000" font-family="sans-serif" font-size="13" lengthAdjust="spacing" textLength="197" x="548.5" y="166.6777">createTeamProposalController()</text><polygon fill="#181818" points="978.5,196.7305,988.5,200.7305,978.5,204.7305,982.5,200.7305" style="stroke:#181818;stroke-width:1.0;"/><line style="stroke:#181818;stroke-width:1.0;" x1="528.5" x2="984.5" y1="200.7305" y2="200.7305"/><text fill="#000000" font-family="sans-serif" font-size="13" font-weight="bold" lengthAdjust="spacing" textLength="9" x="535.5" y="195.9883">4</text><text fill="#000000" font-family="sans-serif" font-size="13" lengthAdjust="spacing" textLength="119" x="548.5" y="195.9883">getAvailableSkills()</text><polygon fill="#181818" points="1446.5,226.041,1456.5,230.041,1446.5,234.041,1450.5,230.041" style="stroke:#181818;stroke-width:1.0;"/><line style="stroke:#181818;stroke-width:1.0;" x1="1000.5" x2="1452.5" y1="230.041" y2="230.041"/><text fill="#000000" font-family="sans-serif" font-size="13" font-weight="bold" lengthAdjust="spacing" textLength="9" x="1007.5" y="225.2988">5</text><text fill="#000000" font-family="sans-serif" font-size="13" lengthAdjust="spacing" textLength="81" x="1020.5" y="225.2988">getInstance()</text><polygon fill="#181818" points="1011.5,255.3516,1001.5,259.3516,1011.5,263.3516,1007.5,259.3516" style="stroke:#181818;stroke-width:1.0;"/><line style="stroke:#181818;stroke-width:1.0;stroke-dasharray:2.0,2.0;" x1="1005.5" x2="1462.5" y1="259.3516" y2="259.3516"/><text fill="#000000" font-family="sans-serif" font-size="13" font-weight="bold" lengthAdjust="spacing" textLength="9" x="1017.5" y="254.6094">6</text><text fill="#000000" font-family="sans-serif" font-size="13" lengthAdjust="spacing" textLength="75" x="1030.5" y="254.6094">repositories</text><polygon fill="#181818" points="1559.5,284.6621,1569.5,288.6621,1559.5,292.6621,1563.5,288.6621" style="stroke:#181818;stroke-width:1.0;"/><line style="stroke:#181818;stroke-width:1.0;" x1="1000.5" x2="1565.5" y1="288.6621" y2="288.6621"/><text fill="#000000" font-family="sans-serif" font-size="13" font-weight="bold" lengthAdjust="spacing" textLength="9" x="1007.5" y="283.9199">7</text><text fill="#000000" font-family="sans-serif" font-size="13" lengthAdjust="spacing" textLength="122" x="1020.5" y="283.9199">getSkillRepository()</text><polygon fill="#181818" points="1011.5,313.9727,1001.5,317.9727,1011.5,321.9727,1007.5,317.9727" style="stroke:#181818;stroke-width:1.0;"/><line style="stroke:#181818;stroke-width:1.0;stroke-dasharray:2.0,2.0;" x1="1005.5" x2="1575.5" y1="317.9727" y2="317.9727"/><text fill="#000000" font-family="sans-serif" font-size="13" font-weight="bold" lengthAdjust="spacing" textLength="9" x="1017.5" y="313.2305">8</text><text fill="#000000" font-family="sans-serif" font-size="13" lengthAdjust="spacing" textLength="94" x="1030.5" y="313.2305">skillRepository</text><polygon fill="#181818" points="2064,343.2832,2074,347.2832,2064,351.2832,2068,347.2832" style="stroke:#181818;stroke-width:1.0;"/><line style="stroke:#181818;stroke-width:1.0;" x1="1000.5" x2="2070" y1="347.2832" y2="347.2832"/><text fill="#000000" font-family="sans-serif" font-size="13" font-weight="bold" lengthAdjust="spacing" textLength="9" x="1007.5" y="342.541">9</text><text fill="#000000" font-family="sans-serif" font-size="13" lengthAdjust="spacing" textLength="79" x="1020.5" y="342.541">getAllSkills()</text><polygon fill="#181818" points="1011.5,372.5938,1001.5,376.5938,1011.5,380.5938,1007.5,376.5938" style="stroke:#181818;stroke-width:1.0;"/><line style="stroke:#181818;stroke-width:1.0;stroke-dasharray:2.0,2.0;" x1="1005.5" x2="2080" y1="376.5938" y2="376.5938"/><text fill="#000000" font-family="sans-serif" font-size="13" font-weight="bold" lengthAdjust="spacing" textLength="18" x="1017.5" y="371.8516">10</text><text fill="#000000" font-family="sans-serif" font-size="13" lengthAdjust="spacing" textLength="89" x="1039.5" y="371.8516">availableSkills</text><polygon fill="#181818" points="539.5,401.9043,529.5,405.9043,539.5,409.9043,535.5,405.9043" style="stroke:#181818;stroke-width:1.0;"/><line style="stroke:#181818;stroke-width:1.0;stroke-dasharray:2.0,2.0;" x1="533.5" x2="994.5" y1="405.9043" y2="405.9043"/><text fill="#000000" font-family="sans-serif" font-size="13" font-weight="bold" lengthAdjust="spacing" textLength="18" x="545.5" y="401.1621">11</text><text fill="#000000" font-family="sans-serif" font-size="13" lengthAdjust="spacing" textLength="89" x="567.5" y="401.1621">availableSkills</text><polygon fill="#181818" points="65.5,431.2148,55.5,435.2148,65.5,439.2148,61.5,435.2148" style="stroke:#181818;stroke-width:1.0;"/><line style="stroke:#181818;stroke-width:1.0;stroke-dasharray:2.0,2.0;" x1="59.5" x2="522.5" y1="435.2148" y2="435.2148"/><text fill="#000000" font-family="sans-serif" font-size="13" font-weight="bold" lengthAdjust="spacing" textLength="18" x="71.5" y="430.4727">12</text><text fill="#000000" font-family="sans-serif" font-size="13" lengthAdjust="spacing" textLength="282" x="93.5" y="430.4727">shows available skills and prompts selection</text><polygon fill="#181818" points="506.5,460.5254,516.5,464.5254,506.5,468.5254,510.5,464.5254" style="stroke:#181818;stroke-width:1.0;"/><line style="stroke:#181818;stroke-width:1.0;" x1="54.5" x2="512.5" y1="464.5254" y2="464.5254"/><text fill="#000000" font-family="sans-serif" font-size="13" font-weight="bold" lengthAdjust="spacing" textLength="18" x="61.5" y="459.7832">13</text><text fill="#000000" font-family="sans-serif" font-size="13" lengthAdjust="spacing" textLength="229" x="83.5" y="459.7832">selects required skills and team size</text><polygon fill="#181818" points="65.5,489.8359,55.5,493.8359,65.5,497.8359,61.5,493.8359" style="stroke:#181818;stroke-width:1.0;"/><line style="stroke:#181818;stroke-width:1.0;stroke-dasharray:2.0,2.0;" x1="59.5" x2="522.5" y1="493.8359" y2="493.8359"/><text fill="#000000" font-family="sans-serif" font-size="13" font-weight="bold" lengthAdjust="spacing" textLength="18" x="71.5" y="489.0938">14</text><text fill="#000000" font-family="sans-serif" font-size="13" lengthAdjust="spacing" textLength="85" x="93.5" y="489.0938">requests data</text><polygon fill="#181818" points="506.5,519.1465,516.5,523.1465,506.5,527.1465,510.5,523.1465" style="stroke:#181818;stroke-width:1.0;"/><line style="stroke:#181818;stroke-width:1.0;" x1="54.5" x2="512.5" y1="523.1465" y2="523.1465"/><text fill="#000000" font-family="sans-serif" font-size="13" font-weight="bold" lengthAdjust="spacing" textLength="18" x="61.5" y="518.4043">15</text><text fill="#000000" font-family="sans-serif" font-size="13" lengthAdjust="spacing" textLength="423" x="83.5" y="518.4043">enters required data (max team size, min team size, selected skills)</text><polygon fill="#181818" points="65.5,548.457,55.5,552.457,65.5,556.457,61.5,552.457" style="stroke:#181818;stroke-width:1.0;"/><line style="stroke:#181818;stroke-width:1.0;stroke-dasharray:2.0,2.0;" x1="59.5" x2="522.5" y1="552.457" y2="552.457"/><text fill="#000000" font-family="sans-serif" font-size="13" font-weight="bold" lengthAdjust="spacing" textLength="18" x="71.5" y="547.7148">16</text><text fill="#000000" font-family="sans-serif" font-size="13" lengthAdjust="spacing" textLength="127" x="93.5" y="547.7148">shows selected data</text><polygon fill="#181818" points="506.5,577.7676,516.5,581.7676,506.5,585.7676,510.5,581.7676" style="stroke:#181818;stroke-width:1.0;"/><line style="stroke:#181818;stroke-width:1.0;" x1="54.5" x2="512.5" y1="581.7676" y2="581.7676"/><text fill="#000000" font-family="sans-serif" font-size="13" font-weight="bold" lengthAdjust="spacing" textLength="18" x="61.5" y="577.0254">17</text><text fill="#000000" font-family="sans-serif" font-size="13" lengthAdjust="spacing" textLength="82" x="83.5" y="577.0254">submits data</text><polygon fill="#181818" points="978.5,607.0781,988.5,611.0781,978.5,615.0781,982.5,611.0781" style="stroke:#181818;stroke-width:1.0;"/><line style="stroke:#181818;stroke-width:1.0;" x1="528.5" x2="984.5" y1="611.0781" y2="611.0781"/><text fill="#000000" font-family="sans-serif" font-size="13" font-weight="bold" lengthAdjust="spacing" textLength="18" x="535.5" y="606.3359">18</text><text fill="#000000" font-family="sans-serif" font-size="13" lengthAdjust="spacing" textLength="421" x="557.5" y="606.3359">generateTeamProposal(maxTeamSize, minTeamSize, selectedSkills)</text><polygon fill="#181818" points="1907.5,661.3887,1917.5,665.3887,1907.5,669.3887,1911.5,665.3887" style="stroke:#181818;stroke-width:1.0;"/><line style="stroke:#181818;stroke-width:1.0;" x1="1000.5" x2="1913.5" y1="665.3887" y2="665.3887"/><text fill="#000000" font-family="sans-serif" font-size="13" font-weight="bold" lengthAdjust="spacing" textLength="18" x="1007.5" y="660.6465">19</text><text fill="#000000" font-family="sans-serif" font-size="13" lengthAdjust="spacing" textLength="130" x="1029.5" y="660.6465">getAllCollaborators()</text><polygon fill="#181818" points="1011.5,690.6992,1001.5,694.6992,1011.5,698.6992,1007.5,694.6992" style="stroke:#181818;stroke-width:1.0;"/><line style="stroke:#181818;stroke-width:1.0;stroke-dasharray:2.0,2.0;" x1="1005.5" x2="1923.5" y1="694.6992" y2="694.6992"/><text fill="#000000" font-family="sans-serif" font-size="13" font-weight="bold" lengthAdjust="spacing" textLength="18" x="1017.5" y="689.957">20</text><text fill="#000000" font-family="sans-serif" font-size="13" lengthAdjust="spacing" textLength="100" x="1039.5" y="689.957">allCollaborators</text><line style="stroke:#181818;stroke-width:1.0;" x1="1000.5" x2="1047.5" y1="744.0098" y2="744.0098"/><line style="stroke:#181818;stroke-width:1.0;" x1="1047.5" x2="1047.5" y1="744.0098" y2="757.0098"/><line style="stroke:#181818;stroke-width:1.0;" x1="1006.5" x2="1047.5" y1="757.0098" y2="757.0098"/><polygon fill="#181818" points="1016.5,753.0098,1006.5,757.0098,1016.5,761.0098,1012.5,757.0098" style="stroke:#181818;stroke-width:1.0;"/><text fill="#000000" font-family="sans-serif" font-size="13" font-weight="bold" lengthAdjust="spacing" textLength="18" x="1012.5" y="739.2676">21</text><text fill="#000000" font-family="sans-serif" font-size="13" lengthAdjust="spacing" textLength="422" x="1034.5" y="739.2676">createTeamProposal(allCollaborators, selectedSkills, maxTeamSize)</text><line style="stroke:#181818;stroke-width:1.0;stroke-dasharray:2.0,2.0;" x1="1005.5" x2="1047.5" y1="796.3203" y2="796.3203"/><line style="stroke:#181818;stroke-width:1.0;stroke-dasharray:2.0,2.0;" x1="1047.5" x2="1047.5" y1="796.3203" y2="809.3203"/><line style="stroke:#181818;stroke-width:1.0;stroke-dasharray:2.0,2.0;" x1="1000.5" x2="1047.5" y1="809.3203" y2="809.3203"/><polygon fill="#181818" points="1010.5,805.3203,1000.5,809.3203,1010.5,813.3203,1006.5,809.3203" style="stroke:#181818;stroke-width:1.0;"/><text fill="#000000" font-family="sans-serif" font-size="13" font-weight="bold" lengthAdjust="spacing" textLength="18" x="1012.5" y="791.5781">22</text><text fill="#000000" font-family="sans-serif" font-size="13" lengthAdjust="spacing" textLength="85" x="1034.5" y="791.5781">teamProposal</text><polygon fill="#181818" points="539.5,829.6309,529.5,833.6309,539.5,837.6309,535.5,833.6309" style="stroke:#181818;stroke-width:1.0;"/><line style="stroke:#181818;stroke-width:1.0;stroke-dasharray:2.0,2.0;" x1="533.5" x2="994.5" y1="833.6309" y2="833.6309"/><text fill="#000000" font-family="sans-serif" font-size="13" font-weight="bold" lengthAdjust="spacing" textLength="18" x="545.5" y="828.8887">23</text><text fill="#000000" font-family="sans-serif" font-size="13" lengthAdjust="spacing" textLength="85" x="567.5" y="828.8887">teamProposal</text><polygon fill="#181818" points="60.5,858.9414,50.5,862.9414,60.5,866.9414,56.5,862.9414" style="stroke:#181818;stroke-width:1.0;"/><line style="stroke:#181818;stroke-width:1.0;stroke-dasharray:2.0,2.0;" x1="54.5" x2="522.5" y1="862.9414" y2="862.9414"/><text fill="#000000" font-family="sans-serif" font-size="13" font-weight="bold" lengthAdjust="spacing" textLength="18" x="66.5" y="858.1992">24</text><text fill="#000000" font-family="sans-serif" font-size="13" lengthAdjust="spacing" textLength="146" x="88.5" y="858.1992">displays team proposal</text><!--SRC=[ZLLDR-8m4BtdLrYzb4hB7-1G2N4fqbQgeBtrCYG3iPhOhEt0ikB7xzWXmNOS80TGufatRpxUMFzmiGS5DQkba7cfP8tCg0OptP_i8V-17QxDgKAcC3SWTfLle4iev96B7Tj2fJ7Be35IDFK6LPOzitbkfD8Ps3_szBPYxo08JpqnqEnjzPuHYk4vtuCmx6dsYL1_ABcN6gglfJFwMjwmMKXXbAog2-3rDV9P8Pbpui1HEyl-msdDRKR4ENHHdiUt609y_9v_XXu-holyx5ka3nnA-YZ4pIaXs4W5T1JWBf87bqAaZa9Swc4L4bs7NnnIz2sphUG7CEYwbz4FcxvIazYCnkDFWzfePj1EpYKjjaE1H8HJXQ_ErDMCqVDiNNj7WJbg3Uh42Z30jZIHBeor9BifHR81lL3ERbB3tpQevl_m5wkvy5-jCLTOC9UnVkaYBnHQAda_DCn8Le8eQDH7K-Yel7h3HeHoXvKUpSbBaAkX6JgWPd00JasYO2slDbr_xiQ2xT3CEsVN7qqXh6rVNay8xi0-7WG19WJG8Y-59f7dU84CO5EgwQtiaqAT1lHdmmpjK-1ZGS8ah0XRrj6OfiWxnGPidNjCBv95Yc6855AAY5owLLL1dm9U0uNv56EuQJmB40v2Ykve09zv9-8KdeSL3vQRwOBhVGMdn4YJcAoAwhrnszuAJ6D5ryXGqhgKnpi8hQjLeSV8RX9_2xL6EbQz0-gNmd0HZQ-NMy5G65HUh4VMKKlGMqUtkRHrwPtkCTBDfkOTyyIwzNhUxYnQrsMyxpQWAHHfbsxvnhHOexl8hSPWzTa2sFTrb_xrfSjZVSdzxjOA67DRRh3TFN9J1fl4ZjOMJLv6bqWFT3wVHoIRlYnxvVh7IG6FNBQ1ZaTY3EKSnKlfUIIUdsYwVACD7otCpHjk4fEDsqkzlmv2id33VYVsKa33U0JInRapGtG1DqgaffucY7HoQpaEWZ-y6MsqJYf5elY1vAzUWLsaUk-LtFu3]--></g></svg>