<?xml version="1.0" encoding="us-ascii" standalone="no"?><svg xmlns="http://www.w3.org/2000/svg" xmlns:xlink="http://www.w3.org/1999/xlink" contentStyleType="text/css" height="426px" preserveAspectRatio="none" style="width:919px;height:426px;background:#FFFFFF;" version="1.1" viewBox="0 0 919 426" width="919px" zoomAndPan="magnify"><defs/><g><rect fill="#FFFFFF" height="229.1738" style="stroke:#181818;stroke-width:1.0;" width="10" x="44.5" y="91.4883"/><rect fill="#FFFFFF" height="172.5527" style="stroke:#181818;stroke-width:1.0;" width="10" x="214.5" y="112.7988"/><rect fill="#FFFFFF" height="29.3105" style="stroke:#181818;stroke-width:1.0;" width="10" x="690.5" y="142.1094"/><line style="stroke:#181818;stroke-width:0.5;stroke-dasharray:5.0,5.0;" x1="49" x2="49" y1="81.4883" y2="345.6621"/><line style="stroke:#181818;stroke-width:0.5;stroke-dasharray:5.0,5.0;" x1="219.5" x2="219.5" y1="81.4883" y2="345.6621"/><line style="stroke:#181818;stroke-width:0.5;stroke-dasharray:5.0,5.0;" x1="695.5" x2="695.5" y1="81.4883" y2="345.6621"/><line style="stroke:#181818;stroke-width:0.5;stroke-dasharray:5.0,5.0;" x1="853.5" x2="853.5" y1="81.4883" y2="345.6621"/><text fill="#000000" font-family="sans-serif" font-size="14" lengthAdjust="spacing" textLength="83" x="5" y="78.5352">HR Manager</text><ellipse cx="49.5" cy="13.5" fill="#E3E3E3" rx="8" ry="8" style="stroke:#181818;stroke-width:0.5;"/><path d="M49.5,21.5 L49.5,48.5 M36.5,29.5 L62.5,29.5 M49.5,48.5 L36.5,63.5 M49.5,48.5 L62.5,63.5 " fill="none" style="stroke:#181818;stroke-width:0.5;"/><text fill="#000000" font-family="sans-serif" font-size="14" lengthAdjust="spacing" textLength="83" x="5" y="358.1973">HR Manager</text><ellipse cx="49.5" cy="369.6504" fill="#E3E3E3" rx="8" ry="8" style="stroke:#181818;stroke-width:0.5;"/><path d="M49.5,377.6504 L49.5,404.6504 M36.5,385.6504 L62.5,385.6504 M49.5,404.6504 L36.5,419.6504 M49.5,404.6504 L62.5,419.6504 " fill="none" style="stroke:#181818;stroke-width:0.5;"/><rect fill="#E3E3E3" height="30.4883" rx="2.5" ry="2.5" style="stroke:#181818;stroke-width:0.5;" width="186" x="126.5" y="50"/><text fill="#000000" font-family="sans-serif" font-size="14" lengthAdjust="spacing" textLength="172" x="133.5" y="70.5352">:TeamProposalController</text><rect fill="#E3E3E3" height="30.4883" rx="2.5" ry="2.5" style="stroke:#181818;stroke-width:0.5;" width="186" x="126.5" y="344.6621"/><text fill="#000000" font-family="sans-serif" font-size="14" lengthAdjust="spacing" textLength="172" x="133.5" y="365.1973">:TeamProposalController</text><rect fill="#E3E3E3" height="30.4883" rx="2.5" ry="2.5" style="stroke:#181818;stroke-width:0.5;" width="178" x="606.5" y="50"/><text fill="#000000" font-family="sans-serif" font-size="14" lengthAdjust="spacing" textLength="164" x="613.5" y="70.5352">:CollaboratorRepository</text><rect fill="#E3E3E3" height="30.4883" rx="2.5" ry="2.5" style="stroke:#181818;stroke-width:0.5;" width="178" x="606.5" y="344.6621"/><text fill="#000000" font-family="sans-serif" font-size="14" lengthAdjust="spacing" textLength="164" x="613.5" y="365.1973">:CollaboratorRepository</text><rect fill="#E3E3E3" height="30.4883" rx="2.5" ry="2.5" style="stroke:#181818;stroke-width:0.5;" width="119" x="794.5" y="50"/><text fill="#000000" font-family="sans-serif" font-size="14" lengthAdjust="spacing" textLength="105" x="801.5" y="70.5352">:SkillRepository</text><rect fill="#E3E3E3" height="30.4883" rx="2.5" ry="2.5" style="stroke:#181818;stroke-width:0.5;" width="119" x="794.5" y="344.6621"/><text fill="#000000" font-family="sans-serif" font-size="14" lengthAdjust="spacing" textLength="105" x="801.5" y="365.1973">:SkillRepository</text><rect fill="#FFFFFF" height="229.1738" style="stroke:#181818;stroke-width:1.0;" width="10" x="44.5" y="91.4883"/><rect fill="#FFFFFF" height="172.5527" style="stroke:#181818;stroke-width:1.0;" width="10" x="214.5" y="112.7988"/><rect fill="#FFFFFF" height="29.3105" style="stroke:#181818;stroke-width:1.0;" width="10" x="690.5" y="142.1094"/><polygon fill="#181818" points="202.5,108.7988,212.5,112.7988,202.5,116.7988,206.5,112.7988" style="stroke:#181818;stroke-width:1.0;"/><line style="stroke:#181818;stroke-width:1.0;" x1="54.5" x2="208.5" y1="112.7988" y2="112.7988"/><text fill="#000000" font-family="sans-serif" font-size="13" lengthAdjust="spacing" textLength="82" x="61.5" y="108.0566">submits data</text><polygon fill="#181818" points="678.5,138.1094,688.5,142.1094,678.5,146.1094,682.5,142.1094" style="stroke:#181818;stroke-width:1.0;"/><line style="stroke:#181818;stroke-width:1.0;" x1="224.5" x2="684.5" y1="142.1094" y2="142.1094"/><text fill="#000000" font-family="sans-serif" font-size="13" lengthAdjust="spacing" textLength="130" x="231.5" y="137.3672">getAllCollaborators()</text><polygon fill="#181818" points="235.5,167.4199,225.5,171.4199,235.5,175.4199,231.5,171.4199" style="stroke:#181818;stroke-width:1.0;"/><line style="stroke:#181818;stroke-width:1.0;stroke-dasharray:2.0,2.0;" x1="229.5" x2="694.5" y1="171.4199" y2="171.4199"/><text fill="#000000" font-family="sans-serif" font-size="13" lengthAdjust="spacing" textLength="100" x="241.5" y="166.6777">allCollaborators</text><line style="stroke:#181818;stroke-width:1.0;" x1="224.5" x2="266.5" y1="200.7305" y2="200.7305"/><line style="stroke:#181818;stroke-width:1.0;" x1="266.5" x2="266.5" y1="200.7305" y2="213.7305"/><line style="stroke:#181818;stroke-width:1.0;" x1="225.5" x2="266.5" y1="213.7305" y2="213.7305"/><polygon fill="#181818" points="235.5,209.7305,225.5,213.7305,235.5,217.7305,231.5,213.7305" style="stroke:#181818;stroke-width:1.0;"/><text fill="#000000" font-family="sans-serif" font-size="13" lengthAdjust="spacing" textLength="379" x="231.5" y="195.9883">filterCollaboratorsWithSkills(allCollaborators, requiredSkills)</text><line style="stroke:#181818;stroke-width:1.0;" x1="224.5" x2="266.5" y1="243.041" y2="243.041"/><line style="stroke:#181818;stroke-width:1.0;" x1="266.5" x2="266.5" y1="243.041" y2="256.041"/><line style="stroke:#181818;stroke-width:1.0;" x1="225.5" x2="266.5" y1="256.041" y2="256.041"/><polygon fill="#181818" points="235.5,252.041,225.5,256.041,235.5,260.041,231.5,256.041" style="stroke:#181818;stroke-width:1.0;"/><text fill="#000000" font-family="sans-serif" font-size="13" lengthAdjust="spacing" textLength="452" x="231.5" y="238.2988">createTeamProposal(filteredCollaborators, requiredSkills, maxTeamSize)</text><polygon fill="#181818" points="65.5,281.3516,55.5,285.3516,65.5,289.3516,61.5,285.3516" style="stroke:#181818;stroke-width:1.0;"/><line style="stroke:#181818;stroke-width:1.0;stroke-dasharray:2.0,2.0;" x1="59.5" x2="218.5" y1="285.3516" y2="285.3516"/><text fill="#000000" font-family="sans-serif" font-size="13" lengthAdjust="spacing" textLength="85" x="71.5" y="280.6094">teamProposal</text><line style="stroke:#181818;stroke-width:1.0;stroke-dasharray:2.0,2.0;" x1="54.5" x2="96.5" y1="319.6621" y2="319.6621"/><line style="stroke:#181818;stroke-width:1.0;stroke-dasharray:2.0,2.0;" x1="96.5" x2="96.5" y1="319.6621" y2="332.6621"/><line style="stroke:#181818;stroke-width:1.0;stroke-dasharray:2.0,2.0;" x1="49.5" x2="96.5" y1="332.6621" y2="332.6621"/><polygon fill="#181818" points="59.5,328.6621,49.5,332.6621,59.5,336.6621,55.5,332.6621" style="stroke:#181818;stroke-width:1.0;"/><text fill="#000000" font-family="sans-serif" font-size="13" lengthAdjust="spacing" textLength="146" x="61.5" y="314.9199">displays team proposal</text><!--SRC=[VPB1ReCm38RlUGgBKokrBy1XqjHBBvKccBIp2ovOX8GcxZRsz4jfrOPiue92_7-__yJn7Pi17VRGMsEhrjcUGDo5b7zK1gmwRAYKKHCugWHDesE1Rx6sNsmQEA7sf1HMOXra-m8EQ0BgCa0F- -AW0Y1SyO168ClV2VitPmVhKU-i4MUrlekVlmcp2vjuj0v3Yu82oc4ntfbvAI7BZhLEaCVU59e_KMZAgS87jYzH3CZ1NuuzYuSQ1P_oAAcAv1CypnCi6f9NhUE2NwrZh-G4we_7Das5YP-gQT5ldZ0oEh4MSZEl3vPskYA_IjjimbCuNzXHVHEi5xqhHo5FFE_LhHtLYwuRwF7xYfNyGqcBqECwfHmaifsV_ZcPQPuFecO_Q1pzXCBm3njqlm00]--></g></svg>