<?xml version="1.0" encoding="us-ascii" standalone="no"?><svg xmlns="http://www.w3.org/2000/svg" xmlns:xlink="http://www.w3.org/1999/xlink" contentStyleType="text/css" height="445px" preserveAspectRatio="none" style="width:620px;height:445px;background:#FFFFFF;" version="1.1" viewBox="0 0 620 445" width="620px" zoomAndPan="magnify"><defs/><g><text fill="#000000" font-family="sans-serif" font-size="14" font-weight="bold" lengthAdjust="spacing" textLength="592" x="10" y="30.1074">System Sequence Diagram (SSD) for US002 - Assign a Team to an Entry in the Agenda</text><rect fill="#FFFFFF" height="220.0371" style="stroke:#181818;stroke-width:1.0;" width="10" x="171.25" y="133.2422"/><rect fill="#FFFFFF" height="31.291" style="stroke:#181818;stroke-width:1.0;" width="10" x="478.25" y="156.5332"/><rect fill="#FFFFFF" height="31.291" style="stroke:#181818;stroke-width:1.0;" width="10" x="478.25" y="219.1152"/><rect fill="#FFFFFF" height="62.582" style="stroke:#181818;stroke-width:1.0;" width="10" x="478.25" y="281.6973"/><line style="stroke:#181818;stroke-width:0.5;stroke-dasharray:5.0,5.0;" x1="175.75" x2="175.75" y1="123.2422" y2="362.2793"/><line style="stroke:#181818;stroke-width:0.5;stroke-dasharray:5.0,5.0;" x1="483.25" x2="483.25" y1="123.2422" y2="362.2793"/><text fill="#000000" font-family="sans-serif" font-size="14" lengthAdjust="spacing" textLength="151" x="97.75" y="119.7285">Green Spaces Manager</text><ellipse cx="176.25" cy="53.1211" fill="#E3E3E3" rx="8" ry="8" style="stroke:#181818;stroke-width:0.5;"/><path d="M176.25,61.1211 L176.25,88.1211 M163.25,69.1211 L189.25,69.1211 M176.25,88.1211 L163.25,103.1211 M176.25,88.1211 L189.25,103.1211 " fill="none" style="stroke:#181818;stroke-width:0.5;"/><text fill="#000000" font-family="sans-serif" font-size="14" lengthAdjust="spacing" textLength="151" x="97.75" y="376.3867">Green Spaces Manager</text><ellipse cx="176.25" cy="388.4004" fill="#E3E3E3" rx="8" ry="8" style="stroke:#181818;stroke-width:0.5;"/><path d="M176.25,396.4004 L176.25,423.4004 M163.25,404.4004 L189.25,404.4004 M176.25,423.4004 L163.25,438.4004 M176.25,423.4004 L189.25,438.4004 " fill="none" style="stroke:#181818;stroke-width:0.5;"/><rect fill="#E3E3E3" height="32.6211" rx="2.5" ry="2.5" style="stroke:#181818;stroke-width:0.5;" width="64" x="451.25" y="89.6211"/><text fill="#000000" font-family="sans-serif" font-size="14" lengthAdjust="spacing" textLength="50" x="458.25" y="111.7285">:System</text><rect fill="#E3E3E3" height="32.6211" rx="2.5" ry="2.5" style="stroke:#181818;stroke-width:0.5;" width="64" x="451.25" y="361.2793"/><text fill="#000000" font-family="sans-serif" font-size="14" lengthAdjust="spacing" textLength="50" x="458.25" y="383.3867">:System</text><rect fill="#FFFFFF" height="220.0371" style="stroke:#181818;stroke-width:1.0;" width="10" x="171.25" y="133.2422"/><rect fill="#FFFFFF" height="31.291" style="stroke:#181818;stroke-width:1.0;" width="10" x="478.25" y="156.5332"/><rect fill="#FFFFFF" height="31.291" style="stroke:#181818;stroke-width:1.0;" width="10" x="478.25" y="219.1152"/><rect fill="#FFFFFF" height="62.582" style="stroke:#181818;stroke-width:1.0;" width="10" x="478.25" y="281.6973"/><polygon fill="#181818" points="466.25,152.5332,476.25,156.5332,466.25,160.5332,470.25,156.5332" style="stroke:#181818;stroke-width:1.0;"/><line style="stroke:#181818;stroke-width:1.0;" x1="181.25" x2="472.25" y1="156.5332" y2="156.5332"/><text fill="#000000" font-family="sans-serif" font-size="13" font-weight="bold" lengthAdjust="spacing" textLength="7" x="188.25" y="151.2705">1</text><text fill="#000000" font-family="sans-serif" font-size="13" lengthAdjust="spacing" textLength="263" x="199.25" y="151.2705">requests to assign a team to an agenda entry</text><polygon fill="#181818" points="192.25,183.8242,182.25,187.8242,192.25,191.8242,188.25,187.8242" style="stroke:#181818;stroke-width:1.0;"/><line style="stroke:#181818;stroke-width:1.0;stroke-dasharray:2.0,2.0;" x1="186.25" x2="482.25" y1="187.8242" y2="187.8242"/><text fill="#000000" font-family="sans-serif" font-size="13" font-weight="bold" lengthAdjust="spacing" textLength="7" x="198.25" y="182.5615">2</text><text fill="#000000" font-family="sans-serif" font-size="13" lengthAdjust="spacing" textLength="217" x="209.25" y="182.5615">requests selection of an agenda entry</text><polygon fill="#181818" points="466.25,215.1152,476.25,219.1152,466.25,223.1152,470.25,219.1152" style="stroke:#181818;stroke-width:1.0;"/><line style="stroke:#181818;stroke-width:1.0;" x1="181.25" x2="472.25" y1="219.1152" y2="219.1152"/><text fill="#000000" font-family="sans-serif" font-size="13" font-weight="bold" lengthAdjust="spacing" textLength="7" x="188.25" y="213.8525">3</text><text fill="#000000" font-family="sans-serif" font-size="13" lengthAdjust="spacing" textLength="139" x="199.25" y="213.8525">selects an agenda entry</text><polygon fill="#181818" points="192.25,246.4063,182.25,250.4063,192.25,254.4063,188.25,250.4063" style="stroke:#181818;stroke-width:1.0;"/><line style="stroke:#181818;stroke-width:1.0;stroke-dasharray:2.0,2.0;" x1="186.25" x2="482.25" y1="250.4063" y2="250.4063"/><text fill="#000000" font-family="sans-serif" font-size="13" font-weight="bold" lengthAdjust="spacing" textLength="7" x="198.25" y="245.1436">4</text><text fill="#000000" font-family="sans-serif" font-size="13" lengthAdjust="spacing" textLength="164" x="209.25" y="245.1436">requests selection of a team</text><polygon fill="#181818" points="466.25,277.6973,476.25,281.6973,466.25,285.6973,470.25,281.6973" style="stroke:#181818;stroke-width:1.0;"/><line style="stroke:#181818;stroke-width:1.0;" x1="181.25" x2="472.25" y1="281.6973" y2="281.6973"/><text fill="#000000" font-family="sans-serif" font-size="13" font-weight="bold" lengthAdjust="spacing" textLength="7" x="188.25" y="276.4346">5</text><text fill="#000000" font-family="sans-serif" font-size="13" lengthAdjust="spacing" textLength="86" x="199.25" y="276.4346">selects a team</text><polygon fill="#181818" points="192.25,308.9883,182.25,312.9883,192.25,316.9883,188.25,312.9883" style="stroke:#181818;stroke-width:1.0;"/><line style="stroke:#181818;stroke-width:1.0;stroke-dasharray:2.0,2.0;" x1="186.25" x2="477.25" y1="312.9883" y2="312.9883"/><text fill="#000000" font-family="sans-serif" font-size="13" font-weight="bold" lengthAdjust="spacing" textLength="7" x="198.25" y="307.7256">6</text><text fill="#000000" font-family="sans-serif" font-size="13" lengthAdjust="spacing" textLength="190" x="209.25" y="307.7256">sends success or error message</text><polygon fill="#181818" points="192.25,340.2793,182.25,344.2793,192.25,348.2793,188.25,344.2793" style="stroke:#181818;stroke-width:1.0;"/><line style="stroke:#181818;stroke-width:1.0;stroke-dasharray:2.0,2.0;" x1="186.25" x2="482.25" y1="344.2793" y2="344.2793"/><text fill="#000000" font-family="sans-serif" font-size="13" font-weight="bold" lengthAdjust="spacing" textLength="7" x="198.25" y="339.0166">7</text><text fill="#000000" font-family="sans-serif" font-size="13" lengthAdjust="spacing" textLength="262" x="209.25" y="339.0166">informs team members about the assignment</text><!--SRC=[hPAnRW8n343tV8N5r0v8g2D39IGg9gQq7s22EI8kpX7xMl7tzUMWe5AfgjGbIcJd-JcE729tM311ofp3lkH4eAKd9r-H3iC16_9wQWaA1KLksji4sUCsVqHkO8Uja7CQrLBzIPGIU3hsn85W6R4PqX-yNpx2BXTuyxFP4qnX8H8R1eHNihXcG8ONrdA2oA1xWaL3l4NdiDVCVTfGiNrGGqnMXOZ1coG9h97Dj4m01LP-xSnFOuWTii9aFWhLuBYjaFYEIZNRsGBJvulut9erTL6fIXT7lJfYrG8QLA-eC_jCcHfmuDxGX5fxnPWPykuEuxRqdNJdDGBatnHgJt-hF5xvjQ2OdLNhWqr7mEP5fTYQx6Jcxlv2PFiOISPNJZICsgfjSg_r8unJIDRkJxgV]--></g></svg>