<?xml version="1.0" encoding="us-ascii" standalone="no"?><svg xmlns="http://www.w3.org/2000/svg" xmlns:xlink="http://www.w3.org/1999/xlink" contentStyleType="text/css" height="452.8px" preserveAspectRatio="none" style="width:854px;height:452px;background:#FFFFFF;" version="1.1" viewBox="0 0 854 452" width="854px" zoomAndPan="magnify"><defs/><g><!--class ApplicationSession--><g id="elem_ApplicationSession"><rect codeLine="12" fill="#F1F1F1" height="34.0969" id="ApplicationSession" rx="1" ry="1" style="stroke:#181818;stroke-width:0.20000000000000004;" width="60.4" x="254.4" y="157.8"/><ellipse cx="260.4" cy="164.2" fill="#ADD1B2" rx="4.4" ry="4.4" style="stroke:#181818;stroke-width:0.4000000000000001;"/><path d="M261.5063,162.55 Q261.5688,162.4625 261.6438,162.4188 Q261.7188,162.375 261.8063,162.375 Q261.9563,162.375 262.05,162.4813 Q262.1438,162.5813 262.1438,162.825 L262.1438,163.4063 Q262.1438,163.65 262.05,163.7563 Q261.9563,163.8625 261.8063,163.8625 Q261.6688,163.8625 261.5875,163.7813 Q261.5063,163.7063 261.4625,163.5 Q261.4438,163.3563 261.3688,163.2813 Q261.2375,163.1313 260.9938,163.0438 Q260.75,162.9563 260.5,162.9563 Q260.1938,162.9563 259.9375,163.0875 Q259.6875,163.2188 259.4875,163.5188 Q259.2938,163.8188 259.2938,164.2313 L259.2938,164.6688 Q259.2938,165.1625 259.65,165.4938 Q260.0063,165.8188 260.6438,165.8188 Q261.0188,165.8188 261.2813,165.7188 Q261.4375,165.6563 261.6063,165.4813 Q261.7125,165.375 261.7688,165.3438 Q261.8313,165.3125 261.9125,165.3125 Q262.0438,165.3125 262.1438,165.4188 Q262.25,165.5188 262.25,165.6563 Q262.25,165.7938 262.1125,165.9563 Q261.9125,166.1875 261.5938,166.3188 Q261.1625,166.5 260.6438,166.5 Q260.0375,166.5 259.5563,166.25 Q259.1625,166.05 258.8875,165.625 Q258.6125,165.1938 258.6125,164.6813 L258.6125,164.2188 Q258.6125,163.6875 258.8563,163.2313 Q259.1063,162.7688 259.5438,162.525 Q259.9813,162.275 260.475,162.275 Q260.7688,162.275 261.025,162.3438 Q261.2875,162.4063 261.5063,162.55 Z " fill="#000000"/><text fill="#000000" font-family="sans-serif" font-size="5.6" lengthAdjust="spacing" textLength="47.6" x="266" y="166.5188">ApplicationSession</text><line style="stroke:#181818;stroke-width:0.20000000000000004;" x1="254.8" x2="314.4" y1="170.6" y2="170.6"/><line style="stroke:#181818;stroke-width:0.20000000000000004;" x1="254.8" x2="314.4" y1="173.8" y2="173.8"/><text fill="#000000" font-family="sans-serif" font-size="5.6" lengthAdjust="spacing" textLength="51.2" x="256.8" y="181.443">+static getInstance()</text><text fill="#000000" font-family="sans-serif" font-size="5.6" lengthAdjust="spacing" textLength="54.4" x="256.8" y="188.8914">+getCurrentSession()</text></g><!--class UserSession--><g id="elem_UserSession"><rect codeLine="18" fill="#F1F1F1" height="26.6484" id="UserSession" rx="1" ry="1" style="stroke:#181818;stroke-width:0.20000000000000004;" width="45.2" x="262" y="327.8"/><ellipse cx="268.36" cy="334.2" fill="#ADD1B2" rx="4.4" ry="4.4" style="stroke:#181818;stroke-width:0.4000000000000001;"/><path d="M269.4663,332.55 Q269.5288,332.4625 269.6038,332.4188 Q269.6788,332.375 269.7663,332.375 Q269.9163,332.375 270.01,332.4813 Q270.1038,332.5813 270.1038,332.825 L270.1038,333.4063 Q270.1038,333.65 270.01,333.7563 Q269.9163,333.8625 269.7663,333.8625 Q269.6288,333.8625 269.5475,333.7813 Q269.4663,333.7063 269.4225,333.5 Q269.4038,333.3563 269.3288,333.2813 Q269.1975,333.1313 268.9538,333.0438 Q268.71,332.9563 268.46,332.9563 Q268.1538,332.9563 267.8975,333.0875 Q267.6475,333.2188 267.4475,333.5188 Q267.2538,333.8188 267.2538,334.2313 L267.2538,334.6688 Q267.2538,335.1625 267.61,335.4938 Q267.9663,335.8188 268.6038,335.8188 Q268.9788,335.8188 269.2413,335.7188 Q269.3975,335.6563 269.5663,335.4813 Q269.6725,335.375 269.7288,335.3438 Q269.7913,335.3125 269.8725,335.3125 Q270.0038,335.3125 270.1038,335.4188 Q270.21,335.5188 270.21,335.6563 Q270.21,335.7938 270.0725,335.9563 Q269.8725,336.1875 269.5538,336.3188 Q269.1225,336.5 268.6038,336.5 Q267.9975,336.5 267.5163,336.25 Q267.1225,336.05 266.8475,335.625 Q266.5725,335.1938 266.5725,334.6813 L266.5725,334.2188 Q266.5725,333.6875 266.8163,333.2313 Q267.0663,332.7688 267.5038,332.525 Q267.9413,332.275 268.435,332.275 Q268.7288,332.275 268.985,332.3438 Q269.2475,332.4063 269.4663,332.55 Z " fill="#000000"/><text fill="#000000" font-family="sans-serif" font-size="5.6" lengthAdjust="spacing" textLength="31.6" x="274.04" y="336.5188">UserSession</text><line style="stroke:#181818;stroke-width:0.20000000000000004;" x1="262.4" x2="306.8" y1="340.6" y2="340.6"/><line style="stroke:#181818;stroke-width:0.20000000000000004;" x1="262.4" x2="306.8" y1="343.8" y2="343.8"/><text fill="#000000" font-family="sans-serif" font-size="5.6" lengthAdjust="spacing" textLength="40.4" x="264.4" y="351.443">+getUserEmail()</text></g><!--class GreenSpace--><g id="elem_GreenSpace"><rect codeLine="23" fill="#F1F1F1" height="86.2359" id="GreenSpace" rx="1" ry="1" style="stroke:#181818;stroke-width:0.20000000000000004;" width="197.2" x="321.2" y="298"/><ellipse cx="402.1" cy="304.4" fill="#ADD1B2" rx="4.4" ry="4.4" style="stroke:#181818;stroke-width:0.4000000000000001;"/><path d="M403.2063,302.75 Q403.2688,302.6625 403.3438,302.6188 Q403.4188,302.575 403.5063,302.575 Q403.6563,302.575 403.75,302.6813 Q403.8438,302.7813 403.8438,303.025 L403.8438,303.6063 Q403.8438,303.85 403.75,303.9563 Q403.6563,304.0625 403.5063,304.0625 Q403.3688,304.0625 403.2875,303.9813 Q403.2063,303.9063 403.1625,303.7 Q403.1438,303.5563 403.0688,303.4813 Q402.9375,303.3313 402.6938,303.2438 Q402.45,303.1563 402.2,303.1563 Q401.8938,303.1563 401.6375,303.2875 Q401.3875,303.4188 401.1875,303.7188 Q400.9938,304.0188 400.9938,304.4313 L400.9938,304.8688 Q400.9938,305.3625 401.35,305.6938 Q401.7063,306.0188 402.3438,306.0188 Q402.7188,306.0188 402.9813,305.9188 Q403.1375,305.8563 403.3063,305.6813 Q403.4125,305.575 403.4688,305.5438 Q403.5313,305.5125 403.6125,305.5125 Q403.7438,305.5125 403.8438,305.6188 Q403.95,305.7188 403.95,305.8563 Q403.95,305.9938 403.8125,306.1563 Q403.6125,306.3875 403.2938,306.5188 Q402.8625,306.7 402.3438,306.7 Q401.7375,306.7 401.2563,306.45 Q400.8625,306.25 400.5875,305.825 Q400.3125,305.3938 400.3125,304.8813 L400.3125,304.4188 Q400.3125,303.8875 400.5563,303.4313 Q400.8063,302.9688 401.2438,302.725 Q401.6813,302.475 402.175,302.475 Q402.4688,302.475 402.725,302.5438 Q402.9875,302.6063 403.2063,302.75 Z " fill="#000000"/><text fill="#000000" font-family="sans-serif" font-size="5.6" lengthAdjust="spacing" textLength="32" x="410.3" y="306.7188">GreenSpace</text><line style="stroke:#181818;stroke-width:0.20000000000000004;" x1="321.6" x2="518" y1="310.8" y2="310.8"/><text fill="#000000" font-family="sans-serif" font-size="5.6" lengthAdjust="spacing" textLength="34" x="323.6" y="318.443">-name: String</text><text fill="#000000" font-family="sans-serif" font-size="5.6" lengthAdjust="spacing" textLength="34" x="323.6" y="325.8914">-area: double</text><text fill="#000000" font-family="sans-serif" font-size="5.6" lengthAdjust="spacing" textLength="60.8" x="323.6" y="333.3398">-type: GreenSpaceType</text><line style="stroke:#181818;stroke-width:0.20000000000000004;" x1="321.6" x2="518" y1="336.3453" y2="336.3453"/><text fill="#000000" font-family="sans-serif" font-size="5.6" lengthAdjust="spacing" textLength="168.4" x="323.6" y="343.9883">+GreenSpace(name: String, area: double, type: GreenSpaceType)</text><text fill="#000000" font-family="sans-serif" font-size="5.6" lengthAdjust="spacing" textLength="192.4" x="323.6" y="351.4367">+registerGreenSpace(greenSpaceRepository: GreenSpaceRepository): void</text><text fill="#000000" font-family="sans-serif" font-size="5.6" lengthAdjust="spacing" textLength="47.6" x="323.6" y="358.8852">+getName(): String</text><text fill="#000000" font-family="sans-serif" font-size="5.6" lengthAdjust="spacing" textLength="47.6" x="323.6" y="366.3336">+getArea(): double</text><text fill="#000000" font-family="sans-serif" font-size="5.6" lengthAdjust="spacing" textLength="76" x="323.6" y="373.782">+getType(): GreenSpaceType</text><text fill="#000000" font-family="sans-serif" font-size="5.6" font-style="italic" lengthAdjust="spacing" textLength="55.2" x="323.6" y="381.2305">+displayDetails(): void</text></g><!--class Collaborator--><g id="elem_Collaborator"><rect codeLine="36" fill="#F1F1F1" height="183.0656" id="Collaborator" rx="1" ry="1" style="stroke:#181818;stroke-width:0.20000000000000004;" width="465.6" x="385.8" y="83.2"/><ellipse cx="601.3" cy="89.6" fill="#ADD1B2" rx="4.4" ry="4.4" style="stroke:#181818;stroke-width:0.4000000000000001;"/><path d="M602.4063,87.95 Q602.4688,87.8625 602.5438,87.8188 Q602.6188,87.775 602.7063,87.775 Q602.8563,87.775 602.95,87.8813 Q603.0438,87.9813 603.0438,88.225 L603.0438,88.8063 Q603.0438,89.05 602.95,89.1563 Q602.8563,89.2625 602.7063,89.2625 Q602.5688,89.2625 602.4875,89.1813 Q602.4063,89.1063 602.3625,88.9 Q602.3438,88.7563 602.2688,88.6813 Q602.1375,88.5313 601.8938,88.4438 Q601.65,88.3563 601.4,88.3563 Q601.0938,88.3563 600.8375,88.4875 Q600.5875,88.6188 600.3875,88.9188 Q600.1938,89.2188 600.1938,89.6313 L600.1938,90.0688 Q600.1938,90.5625 600.55,90.8938 Q600.9063,91.2188 601.5438,91.2188 Q601.9188,91.2188 602.1813,91.1188 Q602.3375,91.0563 602.5063,90.8813 Q602.6125,90.775 602.6688,90.7438 Q602.7313,90.7125 602.8125,90.7125 Q602.9438,90.7125 603.0438,90.8188 Q603.15,90.9188 603.15,91.0563 Q603.15,91.1938 603.0125,91.3563 Q602.8125,91.5875 602.4938,91.7188 Q602.0625,91.9 601.5438,91.9 Q600.9375,91.9 600.4563,91.65 Q600.0625,91.45 599.7875,91.025 Q599.5125,90.5938 599.5125,90.0813 L599.5125,89.6188 Q599.5125,89.0875 599.7563,88.6313 Q600.0063,88.1688 600.4438,87.925 Q600.8813,87.675 601.375,87.675 Q601.6688,87.675 601.925,87.7438 Q602.1875,87.8063 602.4063,87.95 Z " fill="#000000"/><text fill="#000000" font-family="sans-serif" font-size="5.6" lengthAdjust="spacing" textLength="31.2" x="609.5" y="91.9188">Collaborator</text><line style="stroke:#181818;stroke-width:0.20000000000000004;" x1="386.2" x2="851" y1="96" y2="96"/><text fill="#000000" font-family="sans-serif" font-size="5.6" lengthAdjust="spacing" textLength="34" x="388.2" y="103.643">-name: String</text><text fill="#000000" font-family="sans-serif" font-size="5.6" lengthAdjust="spacing" textLength="63.2" x="388.2" y="111.0914">-birthdayDate: LocalDate</text><text fill="#000000" font-family="sans-serif" font-size="5.6" lengthAdjust="spacing" textLength="68" x="388.2" y="118.5398">-admissionDate: LocalDate</text><text fill="#000000" font-family="sans-serif" font-size="5.6" lengthAdjust="spacing" textLength="40.4" x="388.2" y="125.9883">-address: String</text><text fill="#000000" font-family="sans-serif" font-size="5.6" lengthAdjust="spacing" textLength="55.6" x="388.2" y="133.4367">-phoneNumber: String</text><text fill="#000000" font-family="sans-serif" font-size="5.6" lengthAdjust="spacing" textLength="33.2" x="388.2" y="140.8852">-email: String</text><text fill="#000000" font-family="sans-serif" font-size="5.6" lengthAdjust="spacing" textLength="52.4" x="388.2" y="148.3336">-taxpayerNumber: int</text><text fill="#000000" font-family="sans-serif" font-size="5.6" lengthAdjust="spacing" textLength="40.4" x="388.2" y="155.782">-BINumber: long</text><text fill="#000000" font-family="sans-serif" font-size="5.6" lengthAdjust="spacing" textLength="27.6" x="388.2" y="163.2305">-job: String</text><line style="stroke:#181818;stroke-width:0.20000000000000004;" x1="386.2" x2="851" y1="166.2359" y2="166.2359"/><text fill="#000000" font-family="sans-serif" font-size="5.6" lengthAdjust="spacing" textLength="460.8" x="388.2" y="173.8789">+Collaborator(name: String, birthdayDate: LocalDate, admissionDate: LocalDate, address: String, phoneNumber: String, email: String, taxpayerNumber: int, BINumber: long, job: String)</text><text fill="#000000" font-family="sans-serif" font-size="5.6" lengthAdjust="spacing" textLength="70.4" x="388.2" y="181.3273">+equals(o: Object): boolean</text><text fill="#000000" font-family="sans-serif" font-size="5.6" lengthAdjust="spacing" textLength="55.2" x="388.2" y="188.7758">+clone(): Collaborator</text><text fill="#000000" font-family="sans-serif" font-size="5.6" lengthAdjust="spacing" textLength="47.6" x="388.2" y="196.2242">+getName(): String</text><text fill="#000000" font-family="sans-serif" font-size="5.6" lengthAdjust="spacing" textLength="76.8" x="388.2" y="203.6727">+getBirthdayDate(): LocalDate</text><text fill="#000000" font-family="sans-serif" font-size="5.6" lengthAdjust="spacing" textLength="81.6" x="388.2" y="211.1211">+getAdmissionDate(): LocalDate</text><text fill="#000000" font-family="sans-serif" font-size="5.6" lengthAdjust="spacing" textLength="54" x="388.2" y="218.5695">+getAddress(): String</text><text fill="#000000" font-family="sans-serif" font-size="5.6" lengthAdjust="spacing" textLength="69.2" x="388.2" y="226.018">+getPhoneNumber(): String</text><text fill="#000000" font-family="sans-serif" font-size="5.6" lengthAdjust="spacing" textLength="46.8" x="388.2" y="233.4664">+getEmail(): String</text><text fill="#000000" font-family="sans-serif" font-size="5.6" lengthAdjust="spacing" textLength="67.6" x="388.2" y="240.9148">+getTaxpayerNumber(): int</text><text fill="#000000" font-family="sans-serif" font-size="5.6" lengthAdjust="spacing" textLength="53.6" x="388.2" y="248.3633">+getBINumber(): long</text><text fill="#000000" font-family="sans-serif" font-size="5.6" lengthAdjust="spacing" textLength="42" x="388.2" y="255.8117">+getJob(): String</text><text fill="#000000" font-family="sans-serif" font-size="5.6" lengthAdjust="spacing" textLength="58.8" x="388.2" y="263.2602">+addJob(job: Job): void</text></g><!--class CollaboratorRepository--><g id="elem_CollaboratorRepository"><rect codeLine="61" fill="#F1F1F1" height="63.8906" id="CollaboratorRepository" rx="1" ry="1" style="stroke:#181818;stroke-width:0.20000000000000004;" width="147.6" x="92.8" y="142.8"/><ellipse cx="135.7" cy="149.2" fill="#ADD1B2" rx="4.4" ry="4.4" style="stroke:#181818;stroke-width:0.4000000000000001;"/><path d="M136.8063,147.55 Q136.8688,147.4625 136.9438,147.4188 Q137.0188,147.375 137.1063,147.375 Q137.2563,147.375 137.35,147.4813 Q137.4438,147.5813 137.4438,147.825 L137.4438,148.4063 Q137.4438,148.65 137.35,148.7563 Q137.2563,148.8625 137.1063,148.8625 Q136.9688,148.8625 136.8875,148.7813 Q136.8063,148.7063 136.7625,148.5 Q136.7438,148.3563 136.6688,148.2813 Q136.5375,148.1313 136.2938,148.0438 Q136.05,147.9563 135.8,147.9563 Q135.4938,147.9563 135.2375,148.0875 Q134.9875,148.2188 134.7875,148.5188 Q134.5938,148.8188 134.5938,149.2313 L134.5938,149.6688 Q134.5938,150.1625 134.95,150.4938 Q135.3063,150.8188 135.9438,150.8188 Q136.3188,150.8188 136.5813,150.7188 Q136.7375,150.6563 136.9063,150.4813 Q137.0125,150.375 137.0688,150.3438 Q137.1313,150.3125 137.2125,150.3125 Q137.3438,150.3125 137.4438,150.4188 Q137.55,150.5188 137.55,150.6563 Q137.55,150.7938 137.4125,150.9563 Q137.2125,151.1875 136.8938,151.3188 Q136.4625,151.5 135.9438,151.5 Q135.3375,151.5 134.8563,151.25 Q134.4625,151.05 134.1875,150.625 Q133.9125,150.1938 133.9125,149.6813 L133.9125,149.2188 Q133.9125,148.6875 134.1563,148.2313 Q134.4063,147.7688 134.8438,147.525 Q135.2813,147.275 135.775,147.275 Q136.0688,147.275 136.325,147.3438 Q136.5875,147.4063 136.8063,147.55 Z " fill="#000000"/><text fill="#000000" font-family="sans-serif" font-size="5.6" lengthAdjust="spacing" textLength="58.4" x="143.9" y="151.5188">CollaboratorRepository</text><line style="stroke:#181818;stroke-width:0.20000000000000004;" x1="93.2" x2="240" y1="155.6" y2="155.6"/><text fill="#000000" font-family="sans-serif" font-size="5.6" lengthAdjust="spacing" textLength="82.8" x="95.2" y="163.243">-List&lt;Collaborator&gt; collaborators</text><line style="stroke:#181818;stroke-width:0.20000000000000004;" x1="93.2" x2="240" y1="166.2484" y2="166.2484"/><text fill="#000000" font-family="sans-serif" font-size="5.6" lengthAdjust="spacing" textLength="112.4" x="95.2" y="173.8914">+addCollaborator(collaborator: Collaborator)</text><text fill="#000000" font-family="sans-serif" font-size="5.6" lengthAdjust="spacing" textLength="121.6" x="95.2" y="181.3398">+removeCollaborator(collaborator: Collaborator)</text><text fill="#000000" font-family="sans-serif" font-size="5.6" lengthAdjust="spacing" textLength="142.8" x="95.2" y="188.7883">+addSkillToCollaborator(collaboratorId: String, skill: Skill)</text><text fill="#000000" font-family="sans-serif" font-size="5.6" lengthAdjust="spacing" textLength="133.2" x="95.2" y="196.2367">+getCollaborator(collaboratorId: String): Collaborator</text><text fill="#000000" font-family="sans-serif" font-size="5.6" lengthAdjust="spacing" textLength="111.6" x="95.2" y="203.6852">+assignSkill(collaboratorId: String, skill: Skill)</text></g><!--class GreenSpaceRepository--><g id="elem_GreenSpaceRepository"><rect codeLine="71" fill="#F1F1F1" height="41.5453" id="GreenSpaceRepository" rx="1" ry="1" style="stroke:#181818;stroke-width:0.20000000000000004;" width="133.2" x="74.4" y="408.8"/><ellipse cx="109.7" cy="415.2" fill="#ADD1B2" rx="4.4" ry="4.4" style="stroke:#181818;stroke-width:0.4000000000000001;"/><path d="M110.8063,413.55 Q110.8688,413.4625 110.9438,413.4188 Q111.0188,413.375 111.1063,413.375 Q111.2563,413.375 111.35,413.4813 Q111.4438,413.5813 111.4438,413.825 L111.4438,414.4063 Q111.4438,414.65 111.35,414.7563 Q111.2563,414.8625 111.1063,414.8625 Q110.9688,414.8625 110.8875,414.7813 Q110.8063,414.7063 110.7625,414.5 Q110.7438,414.3563 110.6688,414.2813 Q110.5375,414.1313 110.2938,414.0438 Q110.05,413.9563 109.8,413.9563 Q109.4938,413.9563 109.2375,414.0875 Q108.9875,414.2188 108.7875,414.5188 Q108.5938,414.8188 108.5938,415.2313 L108.5938,415.6688 Q108.5938,416.1625 108.95,416.4938 Q109.3063,416.8188 109.9438,416.8188 Q110.3188,416.8188 110.5813,416.7188 Q110.7375,416.6563 110.9063,416.4813 Q111.0125,416.375 111.0688,416.3438 Q111.1313,416.3125 111.2125,416.3125 Q111.3438,416.3125 111.4438,416.4188 Q111.55,416.5188 111.55,416.6563 Q111.55,416.7938 111.4125,416.9563 Q111.2125,417.1875 110.8938,417.3188 Q110.4625,417.5 109.9438,417.5 Q109.3375,417.5 108.8563,417.25 Q108.4625,417.05 108.1875,416.625 Q107.9125,416.1938 107.9125,415.6813 L107.9125,415.2188 Q107.9125,414.6875 108.1563,414.2313 Q108.4063,413.7688 108.8438,413.525 Q109.2813,413.275 109.775,413.275 Q110.0688,413.275 110.325,413.3438 Q110.5875,413.4063 110.8063,413.55 Z " fill="#000000"/><text fill="#000000" font-family="sans-serif" font-size="5.6" lengthAdjust="spacing" textLength="59.2" x="117.9" y="417.5188">GreenSpaceRepository</text><line style="stroke:#181818;stroke-width:0.20000000000000004;" x1="74.8" x2="207.2" y1="421.6" y2="421.6"/><text fill="#000000" font-family="sans-serif" font-size="5.6" lengthAdjust="spacing" textLength="86" x="76.8" y="429.243">-greenSpaces: List&lt;GreenSpace&gt;</text><line style="stroke:#181818;stroke-width:0.20000000000000004;" x1="74.8" x2="207.2" y1="432.2484" y2="432.2484"/><text fill="#000000" font-family="sans-serif" font-size="5.6" lengthAdjust="spacing" textLength="128.4" x="76.8" y="439.8914">+addGreenSpace(greenSpace: GreenSpace): void</text><text fill="#000000" font-family="sans-serif" font-size="5.6" lengthAdjust="spacing" textLength="100.4" x="76.8" y="447.3398">+getGreenSpaces(): List&lt;GreenSpace&gt;</text></g><!--class RegisterGreenSpaceController--><g id="elem_RegisterGreenSpaceController"><rect codeLine="78" fill="#F1F1F1" height="48.9938" id="RegisterGreenSpaceController" rx="1" ry="1" style="stroke:#181818;stroke-width:0.20000000000000004;" width="210.4" x="231" y="2.8"/><ellipse cx="295.5" cy="9.2" fill="#ADD1B2" rx="4.4" ry="4.4" style="stroke:#181818;stroke-width:0.4000000000000001;"/><path d="M296.6063,7.55 Q296.6688,7.4625 296.7438,7.4188 Q296.8188,7.375 296.9063,7.375 Q297.0563,7.375 297.15,7.4813 Q297.2438,7.5813 297.2438,7.825 L297.2438,8.4063 Q297.2438,8.65 297.15,8.7563 Q297.0563,8.8625 296.9063,8.8625 Q296.7688,8.8625 296.6875,8.7813 Q296.6063,8.7063 296.5625,8.5 Q296.5438,8.3563 296.4688,8.2813 Q296.3375,8.1313 296.0938,8.0438 Q295.85,7.9563 295.6,7.9563 Q295.2938,7.9563 295.0375,8.0875 Q294.7875,8.2188 294.5875,8.5188 Q294.3938,8.8188 294.3938,9.2313 L294.3938,9.6688 Q294.3938,10.1625 294.75,10.4938 Q295.1063,10.8188 295.7438,10.8188 Q296.1188,10.8188 296.3813,10.7188 Q296.5375,10.6563 296.7063,10.4813 Q296.8125,10.375 296.8688,10.3438 Q296.9313,10.3125 297.0125,10.3125 Q297.1438,10.3125 297.2438,10.4188 Q297.35,10.5188 297.35,10.6563 Q297.35,10.7938 297.2125,10.9563 Q297.0125,11.1875 296.6938,11.3188 Q296.2625,11.5 295.7438,11.5 Q295.1375,11.5 294.6563,11.25 Q294.2625,11.05 293.9875,10.625 Q293.7125,10.1938 293.7125,9.6813 L293.7125,9.2188 Q293.7125,8.6875 293.9563,8.2313 Q294.2063,7.7688 294.6438,7.525 Q295.0813,7.275 295.575,7.275 Q295.8688,7.275 296.125,7.3438 Q296.3875,7.4063 296.6063,7.55 Z " fill="#000000"/><text fill="#000000" font-family="sans-serif" font-size="5.6" lengthAdjust="spacing" textLength="78" x="303.7" y="11.5188">RegisterGreenSpaceController</text><line style="stroke:#181818;stroke-width:0.20000000000000004;" x1="231.4" x2="441" y1="15.6" y2="15.6"/><text fill="#000000" font-family="sans-serif" font-size="5.6" lengthAdjust="spacing" textLength="122.4" x="233.4" y="23.243">-greenSpaceRepository: GreenSpaceRepository</text><line style="stroke:#181818;stroke-width:0.20000000000000004;" x1="231.4" x2="441" y1="26.2484" y2="26.2484"/><text fill="#000000" font-family="sans-serif" font-size="5.6" lengthAdjust="spacing" textLength="205.6" x="233.4" y="33.8914">+RegisterGreenSpaceController(greenSpaceRepository: GreenSpaceRepository)</text><text fill="#000000" font-family="sans-serif" font-size="5.6" lengthAdjust="spacing" textLength="138" x="233.4" y="41.3398">+registerGreenSpace(greenSpace: GreenSpace): void</text><text fill="#000000" font-family="sans-serif" font-size="5.6" lengthAdjust="spacing" textLength="106.4" x="233.4" y="48.7883">+getAllGreenSpaces(): List&lt;GreenSpace&gt;</text></g><!--class Repositories--><g id="elem_Repositories"><rect fill="#F1F1F1" height="19.2" id="Repositories" rx="1" ry="1" style="stroke:#181818;stroke-width:0.20000000000000004;" width="44.4" x="2.8" y="165.2"/><ellipse cx="8.8" cy="171.6" fill="#ADD1B2" rx="4.4" ry="4.4" style="stroke:#181818;stroke-width:0.4000000000000001;"/><path d="M9.9063,169.95 Q9.9688,169.8625 10.0438,169.8188 Q10.1188,169.775 10.2063,169.775 Q10.3563,169.775 10.45,169.8813 Q10.5438,169.9813 10.5438,170.225 L10.5438,170.8063 Q10.5438,171.05 10.45,171.1563 Q10.3563,171.2625 10.2063,171.2625 Q10.0688,171.2625 9.9875,171.1813 Q9.9063,171.1063 9.8625,170.9 Q9.8438,170.7563 9.7688,170.6813 Q9.6375,170.5313 9.3938,170.4438 Q9.15,170.3563 8.9,170.3563 Q8.5938,170.3563 8.3375,170.4875 Q8.0875,170.6188 7.8875,170.9188 Q7.6938,171.2188 7.6938,171.6313 L7.6938,172.0688 Q7.6938,172.5625 8.05,172.8938 Q8.4063,173.2188 9.0438,173.2188 Q9.4188,173.2188 9.6813,173.1188 Q9.8375,173.0563 10.0063,172.8813 Q10.1125,172.775 10.1688,172.7438 Q10.2313,172.7125 10.3125,172.7125 Q10.4438,172.7125 10.5438,172.8188 Q10.65,172.9188 10.65,173.0563 Q10.65,173.1938 10.5125,173.3563 Q10.3125,173.5875 9.9938,173.7188 Q9.5625,173.9 9.0438,173.9 Q8.4375,173.9 7.9563,173.65 Q7.5625,173.45 7.2875,173.025 Q7.0125,172.5938 7.0125,172.0813 L7.0125,171.6188 Q7.0125,171.0875 7.2563,170.6313 Q7.5063,170.1688 7.9438,169.925 Q8.3813,169.675 8.875,169.675 Q9.1688,169.675 9.425,169.7438 Q9.6875,169.8063 9.9063,169.95 Z " fill="#000000"/><text fill="#000000" font-family="sans-serif" font-size="5.6" lengthAdjust="spacing" textLength="31.6" x="14.4" y="173.9188">Repositories</text><line style="stroke:#181818;stroke-width:0.20000000000000004;" x1="3.2" x2="46.8" y1="178" y2="178"/><line style="stroke:#181818;stroke-width:0.20000000000000004;" x1="3.2" x2="46.8" y1="181.2" y2="181.2"/></g><!--class RegisterGreenSpaceUI--><g id="elem_RegisterGreenSpaceUI"><rect fill="#F1F1F1" height="19.2" id="RegisterGreenSpaceUI" rx="1" ry="1" style="stroke:#181818;stroke-width:0.20000000000000004;" width="70.8" x="146" y="17.6"/><ellipse cx="152" cy="24" fill="#ADD1B2" rx="4.4" ry="4.4" style="stroke:#181818;stroke-width:0.4000000000000001;"/><path d="M153.1063,22.35 Q153.1688,22.2625 153.2438,22.2188 Q153.3188,22.175 153.4063,22.175 Q153.5563,22.175 153.65,22.2813 Q153.7438,22.3813 153.7438,22.625 L153.7438,23.2063 Q153.7438,23.45 153.65,23.5563 Q153.5563,23.6625 153.4063,23.6625 Q153.2688,23.6625 153.1875,23.5813 Q153.1063,23.5063 153.0625,23.3 Q153.0438,23.1563 152.9688,23.0813 Q152.8375,22.9313 152.5938,22.8438 Q152.35,22.7563 152.1,22.7563 Q151.7938,22.7563 151.5375,22.8875 Q151.2875,23.0188 151.0875,23.3188 Q150.8938,23.6188 150.8938,24.0313 L150.8938,24.4688 Q150.8938,24.9625 151.25,25.2938 Q151.6063,25.6188 152.2438,25.6188 Q152.6188,25.6188 152.8813,25.5188 Q153.0375,25.4563 153.2063,25.2813 Q153.3125,25.175 153.3688,25.1438 Q153.4313,25.1125 153.5125,25.1125 Q153.6438,25.1125 153.7438,25.2188 Q153.85,25.3188 153.85,25.4563 Q153.85,25.5938 153.7125,25.7563 Q153.5125,25.9875 153.1938,26.1188 Q152.7625,26.3 152.2438,26.3 Q151.6375,26.3 151.1563,26.05 Q150.7625,25.85 150.4875,25.425 Q150.2125,24.9938 150.2125,24.4813 L150.2125,24.0188 Q150.2125,23.4875 150.4563,23.0313 Q150.7063,22.5688 151.1438,22.325 Q151.5813,22.075 152.075,22.075 Q152.3688,22.075 152.625,22.1438 Q152.8875,22.2063 153.1063,22.35 Z " fill="#000000"/><text fill="#000000" font-family="sans-serif" font-size="5.6" lengthAdjust="spacing" textLength="58" x="157.6" y="26.3188">RegisterGreenSpaceUI</text><line style="stroke:#181818;stroke-width:0.20000000000000004;" x1="146.4" x2="216.4" y1="30.4" y2="30.4"/><line style="stroke:#181818;stroke-width:0.20000000000000004;" x1="146.4" x2="216.4" y1="33.6" y2="33.6"/></g><!--link ApplicationSession to UserSession--><g id="link_ApplicationSession_UserSession"><path codeLine="87" d="M284.6,191.836 C284.6,224.808 284.6,295.436 284.6,325.292 " fill="none" id="ApplicationSession-to-UserSession" style="stroke:#181818;stroke-width:0.4000000000000001;"/><polygon fill="#181818" points="284.6,327.692,286.2,324.092,284.6,325.692,283,324.092,284.6,327.692" style="stroke:#181818;stroke-width:0.4000000000000001;"/><text fill="#000000" font-family="sans-serif" font-size="5.2" lengthAdjust="spacing" textLength="28.8" x="285" y="284.4113">userSession</text><text fill="#000000" font-family="sans-serif" font-size="5.2" lengthAdjust="spacing" textLength="2.8" x="281.5331" y="323.3058">1</text></g><!--link RegisterGreenSpaceController to ApplicationSession--><g id="link_RegisterGreenSpaceController_ApplicationSession"><path codeLine="89" d="M327.736,51.676 C317.228,81.568 300.3801,129.5119 291.2521,155.4719 " fill="none" id="RegisterGreenSpaceController-to-ApplicationSession" style="stroke:#181818;stroke-width:0.4000000000000001;stroke-dasharray:7.0,7.0;"/><polygon fill="#181818" points="290.456,157.736,293.1596,154.8706,291.1194,155.8492,290.1407,153.8091,290.456,157.736" style="stroke:#181818;stroke-width:0.4000000000000001;"/></g><!--link RegisterGreenSpaceController to UserSession--><g id="link_RegisterGreenSpaceController_UserSession"><path codeLine="90" d="M336.024,51.624 C335.424,94.816 332.84,188.368 321.8,266.4 C320.548,275.24 320.712,277.708 317.4,286 C311.332,301.188 302.7249,315.0844 295.3689,325.8164 " fill="none" id="RegisterGreenSpaceController-to-UserSession" style="stroke:#181818;stroke-width:0.4000000000000001;stroke-dasharray:7.0,7.0;"/><polygon fill="#181818" points="294.012,327.796,297.3671,325.7312,295.1427,326.1463,294.7276,323.922,294.012,327.796" style="stroke:#181818;stroke-width:0.4000000000000001;"/></g><!--link Repositories to Repositories--><g id="link_Repositories_Repositories"><path codeLine="92" d="M30.62,165.196 C43.296,148.516 61.2,151.716 61.2,174.8 C61.2,197.884 44.7481,202.9948 32.0721,186.3148 " fill="none" id="Repositories-to-Repositories" style="stroke:#181818;stroke-width:0.4000000000000001;"/><polygon fill="#181818" points="30.62,184.404,31.5243,188.2383,31.8301,185.9964,34.0721,186.3022,30.62,184.404" style="stroke:#181818;stroke-width:0.4000000000000001;"/><text fill="#000000" font-family="sans-serif" font-size="5.2" lengthAdjust="spacing" textLength="19.6" x="63.6" y="177.0113">instance</text></g><!--link RegisterGreenSpaceUI to RegisterGreenSpaceController--><g id="link_RegisterGreenSpaceUI_RegisterGreenSpaceController"><path codeLine="94" d="M216.924,27.2 C221.584,27.2 223.844,27.2 228.504,27.2 " fill="none" id="RegisterGreenSpaceUI-to-RegisterGreenSpaceController" style="stroke:#181818;stroke-width:0.4000000000000001;stroke-dasharray:7.0,7.0;"/><polygon fill="#181818" points="230.904,27.2,227.304,25.6,228.904,27.2,227.304,28.8,230.904,27.2" style="stroke:#181818;stroke-width:0.4000000000000001;"/></g><!--link RegisterGreenSpaceController to Repositories--><g id="link_RegisterGreenSpaceController_Repositories"><path codeLine="96" d="M230.892,50.068 C163.868,64.516 89.02,80.992 85.8,83.2 C55.032,104.28 36.6161,144.3072 29.2641,162.9592 " fill="none" id="RegisterGreenSpaceController-to-Repositories" style="stroke:#181818;stroke-width:0.4000000000000001;stroke-dasharray:7.0,7.0;"/><polygon fill="#181818" points="28.384,165.192,31.1927,162.4295,29.1174,163.3313,28.2156,161.2561,28.384,165.192" style="stroke:#181818;stroke-width:0.4000000000000001;"/><text fill="#000000" font-family="sans-serif" font-size="5.2" lengthAdjust="spacing" textLength="26.8" x="163" y="69.6113">repositories</text></g><!--link Repositories to GreenSpaceRepository--><g id="link_Repositories_GreenSpaceRepository"><path codeLine="98" d="M29.268,184.54 C46.064,221.328 106.895,354.5249 130.635,406.5049 " fill="none" id="Repositories-to-GreenSpaceRepository" style="stroke:#181818;stroke-width:0.4000000000000001;"/><polygon fill="#181818" points="131.632,408.688,131.5918,404.7487,130.8011,406.8688,128.681,406.0781,131.632,408.688" style="stroke:#181818;stroke-width:0.4000000000000001;"/><text fill="#000000" font-family="sans-serif" font-size="5.2" lengthAdjust="spacing" textLength="2.8" x="127.3851" y="404.2439">1</text></g><!--link Repositories to CollaboratorRepository--><g id="link_Repositories_CollaboratorRepository"><path codeLine="99" d="M47.264,174.8 C62.412,174.8 75.164,174.8 90.312,174.8 " fill="none" id="Repositories-to-CollaboratorRepository" style="stroke:#181818;stroke-width:0.4000000000000001;"/><polygon fill="#181818" points="92.712,174.8,89.112,173.2,90.712,174.8,89.112,176.4,92.712,174.8" style="stroke:#181818;stroke-width:0.4000000000000001;"/></g><!--link CollaboratorRepository to Collaborator--><g id="link_CollaboratorRepository_Collaborator"><path codeLine="100" d="M182.504,142.768 C197.224,117.088 221.756,82.876 254.4,67.4 C300.02,45.768 318.544,57.248 368,67.4 C387.128,71.324 404.3184,76.0193 423.5224,82.3993 " fill="none" id="CollaboratorRepository-to-Collaborator" style="stroke:#181818;stroke-width:0.4000000000000001;"/><polygon fill="#181818" points="425.8,83.156,422.888,80.5026,423.902,82.5254,421.8792,83.5394,425.8,83.156" style="stroke:#181818;stroke-width:0.4000000000000001;"/></g><!--link Collaborator to GreenSpace--><g id="link_Collaborator_GreenSpace"><path codeLine="102" d="M509.024,266.476 C495.88,277.424 484.8241,286.636 473.0921,296.408 " fill="none" id="Collaborator-to-GreenSpace" style="stroke:#181818;stroke-width:0.4000000000000001;stroke-dasharray:7.0,7.0;"/><polygon fill="#181818" points="471.248,297.944,475.0381,296.8694,472.7847,296.664,472.9901,294.4106,471.248,297.944" style="stroke:#181818;stroke-width:0.4000000000000001;"/></g><!--link RegisterGreenSpaceController to Collaborator--><g id="link_RegisterGreenSpaceController_Collaborator"><path codeLine="103" d="M382.516,51.676 C399.924,60.724 418.7825,70.529 440.9745,82.065 " fill="none" id="RegisterGreenSpaceController-to-Collaborator" style="stroke:#181818;stroke-width:0.4000000000000001;stroke-dasharray:7.0,7.0;"/><polygon fill="#181818" points="443.104,83.172,440.6478,80.0919,441.3294,82.2495,439.1718,82.9312,443.104,83.172" style="stroke:#181818;stroke-width:0.4000000000000001;"/></g><!--link RegisterGreenSpaceController to GreenSpace--><g id="link_RegisterGreenSpaceController_GreenSpace"><path codeLine="105" d="M343.292,51.716 C344.344,55.668 345.352,59.736 346.2,63.6 C365.736,152.788 349.328,180.052 379,266.4 C382.64,276.988 386.5853,285.7289 391.9213,295.7649 " fill="none" id="RegisterGreenSpaceController-to-GreenSpace" style="stroke:#181818;stroke-width:0.4000000000000001;stroke-dasharray:7.0,7.0;"/><polygon fill="#181818" points="393.048,297.884,392.7707,293.9542,392.1091,296.1181,389.9452,295.4565,393.048,297.884" style="stroke:#181818;stroke-width:0.4000000000000001;"/></g><!--link GreenSpace to GreenSpaceRepository--><g id="link_GreenSpace_GreenSpaceRepository"><path codeLine="106" d="M321.16,382.048 C318.824,382.856 316.5,383.64 314.2,384.4 C279.512,395.86 242.4682,405.6814 210.0322,413.5614 " fill="none" id="GreenSpace-to-GreenSpaceRepository" style="stroke:#181818;stroke-width:0.4000000000000001;stroke-dasharray:7.0,7.0;"/><polygon fill="#181818" points="207.7,414.128,211.576,414.8329,209.6435,413.6559,210.8205,411.7234,207.7,414.128" style="stroke:#181818;stroke-width:0.4000000000000001;"/></g><!--SRC=[bLPHJzim47xthx1ueMW1RQ_LLAd0D7L2RABm0vpaI0sEdTaEMuVuxpkdIUqaRWDzgNtVtVdkk_Cvf-QPouffLj9IIPLjj2g1Mbq3yKZ5icTMmDfk1L0DcMMo4A62sR1S_U6oe8zCc10HN8BTLa0h9RPk4yEKjee4G2QOCKjhDKzh2wjCoJN_1_Gp8QS27YsrYcfUR2pDkOk6Aqb8OqENLILunfne3SOuv9LG_7sYng8uemNObSIrp61sra8ekwgr1cbR8qJUEfSF1lJG5neuyRUISH7gVjS0Serq0TsfdbF9IfZJDUOYYrR4DB0vpLMT8eaxaQDX7fZVuvwqXtdfB7IMzFmaKHTTWXeARYpem5MnNzv1fGotIcz3SoyzczCNnNEV-Yr6CJlh9TN8bnYFamUPDN8NYPCFqdFuAqkDrIopRwYQSrC9jhq6YxIQMNVkdjqh9GHBbMOOrJ5-Kwxj9aT7p29qep8ctB9ZFozvKyr3SAwnsWENrKP9kAtB5FG00TS30vbbVoks1TqPS6bRv7BLoOJQgp-fT41ccEcWw0UIImxcbGnJIcBP9Fr4abWEoI3y98oyQpNuNUC8cAav_Pa-uUN4AgPA2M2oLSZGj6c7CCdfvheCydPulswx_WiPEAZJS14xuPTd9GQtbtqCtFUOSXfTlNU1hpomBtg3_53fo1_MoeaROd5nz0xuAxg_3JTupR-6EWkQ1Jj3_36z7WkL-fNn8wHKB_118pnc_So5k5S73LUvxpdZT77h_iBPF6qRRoSaZ1UoSVVECoEJFCAodvrugHhAlVeYe3WwRiCvE1gj7cfQTEHx7z_TQA9VAMar9Waw4kVKZE-2FkRs8q_6UzwTeqGiXNW75sJytjFpymKz-N8IljjqJklW5IT7oRkuMCG-8oPj7ledj5HmC1G3wktTWDXzWSH2ULZHYyNHGambC3fE1zjnR8wiQ4yC5UEpXyJ50ttIKsi8ysTEazjtDQaUk0u-oVf8sFodz0OAa3aZv3y0]--></g></svg>