<?xml version="1.0" encoding="us-ascii" standalone="no"?><svg xmlns="http://www.w3.org/2000/svg" xmlns:xlink="http://www.w3.org/1999/xlink" contentStyleType="text/css" height="577px" preserveAspectRatio="none" style="width:2231px;height:577px;background:#FFFFFF;" version="1.1" viewBox="0 0 2231 577" width="2231px" zoomAndPan="magnify"><defs/><g><rect fill="#FFFFFF" height="383.123" style="stroke:#181818;stroke-width:1.0;" width="10" x="97.5" y="93.6211"/><rect fill="#FFFFFF" height="31.291" style="stroke:#181818;stroke-width:1.0;" width="10" x="431.5" y="116.9121"/><rect fill="#FFFFFF" height="265.959" style="stroke:#181818;stroke-width:1.0;" width="10" x="431.5" y="179.4941"/><rect fill="#FFFFFF" height="203.377" style="stroke:#181818;stroke-width:1.0;" width="10" x="729.5" y="210.7852"/><rect fill="#FFFFFF" height="75.582" style="stroke:#181818;stroke-width:1.0;" width="10" x="1846.5" y="338.5801"/><line style="stroke:#181818;stroke-width:0.5;stroke-dasharray:5.0,5.0;" x1="102" x2="102" y1="83.6211" y2="494.7441"/><line style="stroke:#181818;stroke-width:0.5;stroke-dasharray:5.0,5.0;" x1="436" x2="436" y1="83.6211" y2="494.7441"/><line style="stroke:#181818;stroke-width:0.5;stroke-dasharray:5.0,5.0;" x1="734" x2="734" y1="83.6211" y2="494.7441"/><line style="stroke:#181818;stroke-width:0.5;stroke-dasharray:5.0,5.0;" x1="1008" x2="1008" y1="83.6211" y2="494.7441"/><line style="stroke:#181818;stroke-width:0.5;stroke-dasharray:5.0,5.0;" x1="1244" x2="1244" y1="83.6211" y2="494.7441"/><line style="stroke:#181818;stroke-width:0.5;stroke-dasharray:5.0,5.0;" x1="1430" x2="1430" y1="83.6211" y2="494.7441"/><line style="stroke:#181818;stroke-width:0.5;stroke-dasharray:5.0,5.0;" x1="1650" x2="1650" y1="83.6211" y2="494.7441"/><line style="stroke:#181818;stroke-width:0.5;stroke-dasharray:5.0,5.0;" x1="1851" x2="1851" y1="83.6211" y2="494.7441"/><line style="stroke:#181818;stroke-width:0.5;stroke-dasharray:5.0,5.0;" x1="2145" x2="2145" y1="83.6211" y2="494.7441"/><text fill="#000000" font-family="sans-serif" font-size="14" lengthAdjust="spacing" textLength="189" x="5" y="80.1074">Green Space Manager (GSM)</text><ellipse cx="102.5" cy="13.5" fill="#E3E3E3" rx="8" ry="8" style="stroke:#181818;stroke-width:0.5;"/><path d="M102.5,21.5 L102.5,48.5 M89.5,29.5 L115.5,29.5 M102.5,48.5 L89.5,63.5 M102.5,48.5 L115.5,63.5 " fill="none" style="stroke:#181818;stroke-width:0.5;"/><text fill="#000000" font-family="sans-serif" font-size="14" lengthAdjust="spacing" textLength="189" x="5" y="508.8516">Green Space Manager (GSM)</text><ellipse cx="102.5" cy="520.8652" fill="#E3E3E3" rx="8" ry="8" style="stroke:#181818;stroke-width:0.5;"/><path d="M102.5,528.8652 L102.5,555.8652 M89.5,536.8652 L115.5,536.8652 M102.5,555.8652 L89.5,570.8652 M102.5,555.8652 L115.5,570.8652 " fill="none" style="stroke:#181818;stroke-width:0.5;"/><rect fill="#E3E3E3" height="32.6211" rx="2.5" ry="2.5" style="stroke:#181818;stroke-width:0.5;" width="159" x="357" y="50"/><text fill="#000000" font-family="sans-serif" font-size="14" lengthAdjust="spacing" textLength="145" x="364" y="72.1074">RegisterGreenSpaceUI</text><rect fill="#E3E3E3" height="32.6211" rx="2.5" ry="2.5" style="stroke:#181818;stroke-width:0.5;" width="159" x="357" y="493.7441"/><text fill="#000000" font-family="sans-serif" font-size="14" lengthAdjust="spacing" textLength="145" x="364" y="515.8516">RegisterGreenSpaceUI</text><rect fill="#E3E3E3" height="32.6211" rx="2.5" ry="2.5" style="stroke:#181818;stroke-width:0.5;" width="209" x="630" y="50"/><text fill="#000000" font-family="sans-serif" font-size="14" lengthAdjust="spacing" textLength="195" x="637" y="72.1074">RegisterGreenSpaceController</text><rect fill="#E3E3E3" height="32.6211" rx="2.5" ry="2.5" style="stroke:#181818;stroke-width:0.5;" width="209" x="630" y="493.7441"/><text fill="#000000" font-family="sans-serif" font-size="14" lengthAdjust="spacing" textLength="195" x="637" y="515.8516">RegisterGreenSpaceController</text><rect fill="#E3E3E3" height="32.6211" rx="2.5" ry="2.5" style="stroke:#181818;stroke-width:0.5;" width="319" x="849" y="50"/><text fill="#000000" font-family="sans-serif" font-size="14" lengthAdjust="spacing" textLength="305" x="856" y="72.1074">greenSpaceRepository : GreenSpaceRepository</text><rect fill="#E3E3E3" height="32.6211" rx="2.5" ry="2.5" style="stroke:#181818;stroke-width:0.5;" width="319" x="849" y="493.7441"/><text fill="#000000" font-family="sans-serif" font-size="14" lengthAdjust="spacing" textLength="305" x="856" y="515.8516">greenSpaceRepository : GreenSpaceRepository</text><rect fill="#E3E3E3" height="32.6211" rx="2.5" ry="2.5" style="stroke:#181818;stroke-width:0.5;" width="133" x="1178" y="50"/><text fill="#000000" font-family="sans-serif" font-size="14" lengthAdjust="spacing" textLength="119" x="1185" y="72.1074">ApplicationSession</text><rect fill="#E3E3E3" height="32.6211" rx="2.5" ry="2.5" style="stroke:#181818;stroke-width:0.5;" width="133" x="1178" y="493.7441"/><text fill="#000000" font-family="sans-serif" font-size="14" lengthAdjust="spacing" textLength="119" x="1185" y="515.8516">ApplicationSession</text><rect fill="#E3E3E3" height="32.6211" rx="2.5" ry="2.5" style="stroke:#181818;stroke-width:0.5;" width="219" x="1321" y="50"/><text fill="#000000" font-family="sans-serif" font-size="14" lengthAdjust="spacing" textLength="205" x="1328" y="72.1074">appSession : ApplicationSession</text><rect fill="#E3E3E3" height="32.6211" rx="2.5" ry="2.5" style="stroke:#181818;stroke-width:0.5;" width="219" x="1321" y="493.7441"/><text fill="#000000" font-family="sans-serif" font-size="14" lengthAdjust="spacing" textLength="205" x="1328" y="515.8516">appSession : ApplicationSession</text><rect fill="#E3E3E3" height="32.6211" rx="2.5" ry="2.5" style="stroke:#181818;stroke-width:0.5;" width="200" x="1550" y="50"/><text fill="#000000" font-family="sans-serif" font-size="14" lengthAdjust="spacing" textLength="186" x="1557" y="72.1074">currentSession : UserSession</text><rect fill="#E3E3E3" height="32.6211" rx="2.5" ry="2.5" style="stroke:#181818;stroke-width:0.5;" width="200" x="1550" y="493.7441"/><text fill="#000000" font-family="sans-serif" font-size="14" lengthAdjust="spacing" textLength="186" x="1557" y="515.8516">currentSession : UserSession</text><rect fill="#E3E3E3" height="32.6211" rx="2.5" ry="2.5" style="stroke:#181818;stroke-width:0.5;" width="183" x="1760" y="50"/><text fill="#000000" font-family="sans-serif" font-size="14" lengthAdjust="spacing" textLength="169" x="1767" y="72.1074">greenSpace : GreenSpace</text><rect fill="#E3E3E3" height="32.6211" rx="2.5" ry="2.5" style="stroke:#181818;stroke-width:0.5;" width="183" x="1760" y="493.7441"/><text fill="#000000" font-family="sans-serif" font-size="14" lengthAdjust="spacing" textLength="169" x="1767" y="515.8516">greenSpace : GreenSpace</text><rect fill="#E3E3E3" height="32.6211" rx="2.5" ry="2.5" style="stroke:#181818;stroke-width:0.5;" width="159" x="2066" y="50"/><text fill="#000000" font-family="sans-serif" font-size="14" lengthAdjust="spacing" textLength="145" x="2073" y="72.1074">greenSpaceRepository</text><rect fill="#E3E3E3" height="32.6211" rx="2.5" ry="2.5" style="stroke:#181818;stroke-width:0.5;" width="159" x="2066" y="493.7441"/><text fill="#000000" font-family="sans-serif" font-size="14" lengthAdjust="spacing" textLength="145" x="2073" y="515.8516">greenSpaceRepository</text><rect fill="#FFFFFF" height="383.123" style="stroke:#181818;stroke-width:1.0;" width="10" x="97.5" y="93.6211"/><rect fill="#FFFFFF" height="31.291" style="stroke:#181818;stroke-width:1.0;" width="10" x="431.5" y="116.9121"/><rect fill="#FFFFFF" height="265.959" style="stroke:#181818;stroke-width:1.0;" width="10" x="431.5" y="179.4941"/><rect fill="#FFFFFF" height="203.377" style="stroke:#181818;stroke-width:1.0;" width="10" x="729.5" y="210.7852"/><rect fill="#FFFFFF" height="75.582" style="stroke:#181818;stroke-width:1.0;" width="10" x="1846.5" y="338.5801"/><polygon fill="#181818" points="419.5,112.9121,429.5,116.9121,419.5,120.9121,423.5,116.9121" style="stroke:#181818;stroke-width:1.0;"/><line style="stroke:#181818;stroke-width:1.0;" x1="107.5" x2="425.5" y1="116.9121" y2="116.9121"/><text fill="#000000" font-family="sans-serif" font-size="13" font-weight="bold" lengthAdjust="spacing" textLength="7" x="114.5" y="111.6494">1</text><text fill="#000000" font-family="sans-serif" font-size="13" lengthAdjust="spacing" textLength="187" x="125.5" y="111.6494">requests to register green space</text><polygon fill="#181818" points="118.5,144.2031,108.5,148.2031,118.5,152.2031,114.5,148.2031" style="stroke:#181818;stroke-width:1.0;"/><line style="stroke:#181818;stroke-width:1.0;stroke-dasharray:2.0,2.0;" x1="112.5" x2="435.5" y1="148.2031" y2="148.2031"/><text fill="#000000" font-family="sans-serif" font-size="13" font-weight="bold" lengthAdjust="spacing" textLength="7" x="124.5" y="142.9404">2</text><text fill="#000000" font-family="sans-serif" font-size="13" lengthAdjust="spacing" textLength="289" x="135.5" y="142.9404">prompts for required fields (e.g., name, area, type)</text><polygon fill="#181818" points="419.5,175.4941,429.5,179.4941,419.5,183.4941,423.5,179.4941" style="stroke:#181818;stroke-width:1.0;"/><line style="stroke:#181818;stroke-width:1.0;" x1="107.5" x2="425.5" y1="179.4941" y2="179.4941"/><text fill="#000000" font-family="sans-serif" font-size="13" font-weight="bold" lengthAdjust="spacing" textLength="7" x="114.5" y="174.2314">3</text><text fill="#000000" font-family="sans-serif" font-size="13" lengthAdjust="spacing" textLength="274" x="125.5" y="174.2314">provides green space details (name, area, type)</text><polygon fill="#181818" points="717.5,206.7852,727.5,210.7852,717.5,214.7852,721.5,210.7852" style="stroke:#181818;stroke-width:1.0;"/><line style="stroke:#181818;stroke-width:1.0;" x1="441.5" x2="723.5" y1="210.7852" y2="210.7852"/><text fill="#000000" font-family="sans-serif" font-size="13" font-weight="bold" lengthAdjust="spacing" textLength="7" x="448.5" y="205.5225">4</text><text fill="#000000" font-family="sans-serif" font-size="13" lengthAdjust="spacing" textLength="221" x="459.5" y="205.5225">registerGreenSpace(name, area, type)</text><rect fill="none" height="43.252" style="stroke:#000000;stroke-width:1.5;" width="215" x="627" y="218.7852"/><path d="M627,218.7852 L689,218.7852 L689,227.7852 L679,237.7852 L627,237.7852 L627,218.7852 " fill="#EEEEEE" style="stroke:#000000;stroke-width:2.0;"/><text fill="#000000" font-family="sans-serif" font-size="13" font-weight="bold" lengthAdjust="spacing" textLength="17" x="640" y="234.8135">ref</text><text fill="#000000" font-family="sans-serif" font-size="12" lengthAdjust="spacing" textLength="93" x="688" y="254.7344">Get Repositories</text><rect fill="none" height="43.252" style="stroke:#000000;stroke-width:1.5;" width="215" x="627" y="267.0371"/><path d="M627,267.0371 L689,267.0371 L689,276.0371 L679,286.0371 L627,286.0371 L627,267.0371 " fill="#EEEEEE" style="stroke:#000000;stroke-width:2.0;"/><text fill="#000000" font-family="sans-serif" font-size="13" font-weight="bold" lengthAdjust="spacing" textLength="17" x="640" y="283.0654">ref</text><text fill="#000000" font-family="sans-serif" font-size="12" lengthAdjust="spacing" textLength="142" x="663.5" y="302.9863">Get Current User Session</text><polygon fill="#181818" points="1834.5,334.5801,1844.5,338.5801,1834.5,342.5801,1838.5,338.5801" style="stroke:#181818;stroke-width:1.0;"/><line style="stroke:#181818;stroke-width:1.0;" x1="739.5" x2="1840.5" y1="338.5801" y2="338.5801"/><text fill="#000000" font-family="sans-serif" font-size="13" font-weight="bold" lengthAdjust="spacing" textLength="7" x="746.5" y="333.3174">5</text><text fill="#000000" font-family="sans-serif" font-size="13" lengthAdjust="spacing" textLength="205" x="757.5" y="333.3174">new GreenSpace(name, area, type)</text><line style="stroke:#181818;stroke-width:1.0;" x1="1856.5" x2="1898.5" y1="369.8711" y2="369.8711"/><line style="stroke:#181818;stroke-width:1.0;" x1="1898.5" x2="1898.5" y1="369.8711" y2="382.8711"/><line style="stroke:#181818;stroke-width:1.0;" x1="1857.5" x2="1898.5" y1="382.8711" y2="382.8711"/><polygon fill="#181818" points="1867.5,378.8711,1857.5,382.8711,1867.5,386.8711,1863.5,382.8711" style="stroke:#181818;stroke-width:1.0;"/><text fill="#000000" font-family="sans-serif" font-size="13" font-weight="bold" lengthAdjust="spacing" textLength="7" x="1863.5" y="364.6084">6</text><text fill="#000000" font-family="sans-serif" font-size="13" lengthAdjust="spacing" textLength="85" x="1874.5" y="364.6084">validate details</text><polygon fill="#181818" points="2133.5,410.1621,2143.5,414.1621,2133.5,418.1621,2137.5,414.1621" style="stroke:#181818;stroke-width:1.0;"/><line style="stroke:#181818;stroke-width:1.0;" x1="1851.5" x2="2139.5" y1="414.1621" y2="414.1621"/><text fill="#000000" font-family="sans-serif" font-size="13" font-weight="bold" lengthAdjust="spacing" textLength="7" x="1858.5" y="408.8994">7</text><text fill="#000000" font-family="sans-serif" font-size="13" lengthAdjust="spacing" textLength="254" x="1869.5" y="408.8994">registerGreenSpace(greenSpaceRepository)</text><polygon fill="#181818" points="447.5,441.4531,437.5,445.4531,447.5,449.4531,443.5,445.4531" style="stroke:#181818;stroke-width:1.0;"/><line style="stroke:#181818;stroke-width:1.0;stroke-dasharray:2.0,2.0;" x1="441.5" x2="733.5" y1="445.4531" y2="445.4531"/><text fill="#000000" font-family="sans-serif" font-size="13" font-weight="bold" lengthAdjust="spacing" textLength="7" x="453.5" y="440.1904">8</text><text fill="#000000" font-family="sans-serif" font-size="13" lengthAdjust="spacing" textLength="258" x="464.5" y="440.1904">confirms successful green space registration</text><polygon fill="#181818" points="113.5,472.7441,103.5,476.7441,113.5,480.7441,109.5,476.7441" style="stroke:#181818;stroke-width:1.0;"/><line style="stroke:#181818;stroke-width:1.0;stroke-dasharray:2.0,2.0;" x1="107.5" x2="435.5" y1="476.7441" y2="476.7441"/><text fill="#000000" font-family="sans-serif" font-size="13" font-weight="bold" lengthAdjust="spacing" textLength="7" x="119.5" y="471.4814">9</text><text fill="#000000" font-family="sans-serif" font-size="13" lengthAdjust="spacing" textLength="258" x="130.5" y="471.4814">confirms successful green space registration</text><!--SRC=[bPFFQkCm4CRlVeeXfmRIFa0FXH12A6ntGzoS5wqyTaLbIHt9ANdx7SjPrufjijN5Gfhlv_dpoRyhumI96cfhh7mZMoC4QZ3p_OqJybrKc8UpHY2KGPXA3mFycoZifp8Lb49xp3BH16kQ-WyIxsMm18iT8Hh8cONm8Wpp2Evs-Sjo0S83Rp9c1IML4oR0ue2LyW4fogBg-1mZZy-t0ZVM1B9Q8qN1vlNm8vLKVUW1dVMAypl38-mcZhla9YvIujevhQG8ofeSlUTF5FvUx_Tfe73k4i0_d56DHB8XGXE-X4UFD5JaspnV_vehCYcjA-YmtVxCz-lDDev7dKJ0E88CUF46xf-uqIma_6ZG1m_1yhxhD4Gq-1ON1Js2PnCFsiNoUwQqi4TmR2l7b9ATq28LOG6bGbrukCE7wc45HjIu0a4eLX3E3fUHLE08FaoFkITLe1-cn9eWb6RmD78sswTebLZqjQLcK0ak-gm_RXTX2VR43OjNSBLs6A3taqAV1A0fMlbtUPlEAT4WS778RMuikvrLRmjkWi5F-Ay694qOEckKu1V- -cSdeLNHwY-pkw6TUS0JSvkAN8xe0vVD5J086G-wQ-0_KqfhIaMr1zz8oJCe6vtuiqkJuhkVCtdoUhu5p8R5y9F-2m00]--></g></svg>