<?xml version="1.0" encoding="us-ascii" standalone="no"?><svg xmlns="http://www.w3.org/2000/svg" xmlns:xlink="http://www.w3.org/1999/xlink" contentStyleType="text/css" height="794px" preserveAspectRatio="none" style="width:2537px;height:794px;background:#FFFFFF;" version="1.1" viewBox="0 0 2537 794" width="2537px" zoomAndPan="magnify"><defs/><g><rect fill="#FFFFFF" height="599.5293" style="stroke:#181818;stroke-width:1.0;" width="10" x="97.5" y="93.6211"/><rect fill="#FFFFFF" height="31.291" style="stroke:#181818;stroke-width:1.0;" width="10" x="431.5" y="116.9121"/><rect fill="#FFFFFF" height="482.3652" style="stroke:#181818;stroke-width:1.0;" width="10" x="431.5" y="179.4941"/><rect fill="#FFFFFF" height="419.7832" style="stroke:#181818;stroke-width:1.0;" width="10" x="736.5" y="210.7852"/><rect fill="#FFFFFF" height="31.291" style="stroke:#181818;stroke-width:1.0;" width="10" x="897.5" y="242.0762"/><rect fill="#FFFFFF" height="31.291" style="stroke:#181818;stroke-width:1.0;" width="10" x="1043.5" y="304.6582"/><rect fill="#FFFFFF" height="31.291" style="stroke:#181818;stroke-width:1.0;" width="10" x="1538.5" y="367.2402"/><rect fill="#FFFFFF" height="31.291" style="stroke:#181818;stroke-width:1.0;" width="10" x="1724.5" y="429.8223"/><rect fill="#FFFFFF" height="31.291" style="stroke:#181818;stroke-width:1.0;" width="10" x="1944" y="492.4043"/><rect fill="#FFFFFF" height="75.582" style="stroke:#181818;stroke-width:1.0;" width="10" x="2145.5" y="554.9863"/><line style="stroke:#181818;stroke-width:0.5;stroke-dasharray:5.0,5.0;" x1="102" x2="102" y1="83.6211" y2="711.1504"/><line style="stroke:#181818;stroke-width:0.5;stroke-dasharray:5.0,5.0;" x1="436" x2="436" y1="83.6211" y2="711.1504"/><line style="stroke:#181818;stroke-width:0.5;stroke-dasharray:5.0,5.0;" x1="741" x2="741" y1="83.6211" y2="711.1504"/><line style="stroke:#181818;stroke-width:0.5;stroke-dasharray:5.0,5.0;" x1="902" x2="902" y1="83.6211" y2="711.1504"/><line style="stroke:#181818;stroke-width:0.5;stroke-dasharray:5.0,5.0;" x1="1048" x2="1048" y1="83.6211" y2="711.1504"/><line style="stroke:#181818;stroke-width:0.5;stroke-dasharray:5.0,5.0;" x1="1307" x2="1307" y1="83.6211" y2="711.1504"/><line style="stroke:#181818;stroke-width:0.5;stroke-dasharray:5.0,5.0;" x1="1543" x2="1543" y1="83.6211" y2="711.1504"/><line style="stroke:#181818;stroke-width:0.5;stroke-dasharray:5.0,5.0;" x1="1729" x2="1729" y1="83.6211" y2="711.1504"/><line style="stroke:#181818;stroke-width:0.5;stroke-dasharray:5.0,5.0;" x1="1949" x2="1949" y1="83.6211" y2="711.1504"/><line style="stroke:#181818;stroke-width:0.5;stroke-dasharray:5.0,5.0;" x1="2150" x2="2150" y1="83.6211" y2="711.1504"/><line style="stroke:#181818;stroke-width:0.5;stroke-dasharray:5.0,5.0;" x1="2451" x2="2451" y1="83.6211" y2="711.1504"/><text fill="#000000" font-family="sans-serif" font-size="14" lengthAdjust="spacing" textLength="189" x="5" y="80.1074">Green Space Manager (GSM)</text><ellipse cx="102.5" cy="13.5" fill="#E3E3E3" rx="8" ry="8" style="stroke:#181818;stroke-width:0.5;"/><path d="M102.5,21.5 L102.5,48.5 M89.5,29.5 L115.5,29.5 M102.5,48.5 L89.5,63.5 M102.5,48.5 L115.5,63.5 " fill="none" style="stroke:#181818;stroke-width:0.5;"/><text fill="#000000" font-family="sans-serif" font-size="14" lengthAdjust="spacing" textLength="189" x="5" y="725.2578">Green Space Manager (GSM)</text><ellipse cx="102.5" cy="737.2715" fill="#E3E3E3" rx="8" ry="8" style="stroke:#181818;stroke-width:0.5;"/><path d="M102.5,745.2715 L102.5,772.2715 M89.5,753.2715 L115.5,753.2715 M102.5,772.2715 L89.5,787.2715 M102.5,772.2715 L115.5,787.2715 " fill="none" style="stroke:#181818;stroke-width:0.5;"/><rect fill="#E3E3E3" height="32.6211" rx="2.5" ry="2.5" style="stroke:#181818;stroke-width:0.5;" width="159" x="357" y="50"/><text fill="#000000" font-family="sans-serif" font-size="14" lengthAdjust="spacing" textLength="145" x="364" y="72.1074">RegisterGreenSpaceUI</text><rect fill="#E3E3E3" height="32.6211" rx="2.5" ry="2.5" style="stroke:#181818;stroke-width:0.5;" width="159" x="357" y="710.1504"/><text fill="#000000" font-family="sans-serif" font-size="14" lengthAdjust="spacing" textLength="145" x="364" y="732.2578">RegisterGreenSpaceUI</text><rect fill="#E3E3E3" height="32.6211" rx="2.5" ry="2.5" style="stroke:#181818;stroke-width:0.5;" width="209" x="637" y="50"/><text fill="#000000" font-family="sans-serif" font-size="14" lengthAdjust="spacing" textLength="195" x="644" y="72.1074">RegisterGreenSpaceController</text><rect fill="#E3E3E3" height="32.6211" rx="2.5" ry="2.5" style="stroke:#181818;stroke-width:0.5;" width="209" x="637" y="710.1504"/><text fill="#000000" font-family="sans-serif" font-size="14" lengthAdjust="spacing" textLength="195" x="644" y="732.2578">RegisterGreenSpaceController</text><rect fill="#E3E3E3" height="32.6211" rx="2.5" ry="2.5" style="stroke:#181818;stroke-width:0.5;" width="93" x="856" y="50"/><text fill="#000000" font-family="sans-serif" font-size="14" lengthAdjust="spacing" textLength="79" x="863" y="72.1074">Repositories</text><rect fill="#E3E3E3" height="32.6211" rx="2.5" ry="2.5" style="stroke:#181818;stroke-width:0.5;" width="93" x="856" y="710.1504"/><text fill="#000000" font-family="sans-serif" font-size="14" lengthAdjust="spacing" textLength="79" x="863" y="732.2578">Repositories</text><rect fill="#E3E3E3" height="32.6211" rx="2.5" ry="2.5" style="stroke:#181818;stroke-width:0.5;" width="179" x="959" y="50"/><text fill="#000000" font-family="sans-serif" font-size="14" lengthAdjust="spacing" textLength="165" x="966" y="72.1074">repositories : Repositories</text><rect fill="#E3E3E3" height="32.6211" rx="2.5" ry="2.5" style="stroke:#181818;stroke-width:0.5;" width="179" x="959" y="710.1504"/><text fill="#000000" font-family="sans-serif" font-size="14" lengthAdjust="spacing" textLength="165" x="966" y="732.2578">repositories : Repositories</text><rect fill="#E3E3E3" height="32.6211" rx="2.5" ry="2.5" style="stroke:#181818;stroke-width:0.5;" width="319" x="1148" y="50"/><text fill="#000000" font-family="sans-serif" font-size="14" lengthAdjust="spacing" textLength="305" x="1155" y="72.1074">greenSpaceRepository : GreenSpaceRepository</text><rect fill="#E3E3E3" height="32.6211" rx="2.5" ry="2.5" style="stroke:#181818;stroke-width:0.5;" width="319" x="1148" y="710.1504"/><text fill="#000000" font-family="sans-serif" font-size="14" lengthAdjust="spacing" textLength="305" x="1155" y="732.2578">greenSpaceRepository : GreenSpaceRepository</text><rect fill="#E3E3E3" height="32.6211" rx="2.5" ry="2.5" style="stroke:#181818;stroke-width:0.5;" width="133" x="1477" y="50"/><text fill="#000000" font-family="sans-serif" font-size="14" lengthAdjust="spacing" textLength="119" x="1484" y="72.1074">ApplicationSession</text><rect fill="#E3E3E3" height="32.6211" rx="2.5" ry="2.5" style="stroke:#181818;stroke-width:0.5;" width="133" x="1477" y="710.1504"/><text fill="#000000" font-family="sans-serif" font-size="14" lengthAdjust="spacing" textLength="119" x="1484" y="732.2578">ApplicationSession</text><rect fill="#E3E3E3" height="32.6211" rx="2.5" ry="2.5" style="stroke:#181818;stroke-width:0.5;" width="219" x="1620" y="50"/><text fill="#000000" font-family="sans-serif" font-size="14" lengthAdjust="spacing" textLength="205" x="1627" y="72.1074">appSession : ApplicationSession</text><rect fill="#E3E3E3" height="32.6211" rx="2.5" ry="2.5" style="stroke:#181818;stroke-width:0.5;" width="219" x="1620" y="710.1504"/><text fill="#000000" font-family="sans-serif" font-size="14" lengthAdjust="spacing" textLength="205" x="1627" y="732.2578">appSession : ApplicationSession</text><rect fill="#E3E3E3" height="32.6211" rx="2.5" ry="2.5" style="stroke:#181818;stroke-width:0.5;" width="200" x="1849" y="50"/><text fill="#000000" font-family="sans-serif" font-size="14" lengthAdjust="spacing" textLength="186" x="1856" y="72.1074">currentSession : UserSession</text><rect fill="#E3E3E3" height="32.6211" rx="2.5" ry="2.5" style="stroke:#181818;stroke-width:0.5;" width="200" x="1849" y="710.1504"/><text fill="#000000" font-family="sans-serif" font-size="14" lengthAdjust="spacing" textLength="186" x="1856" y="732.2578">currentSession : UserSession</text><rect fill="#E3E3E3" height="32.6211" rx="2.5" ry="2.5" style="stroke:#181818;stroke-width:0.5;" width="183" x="2059" y="50"/><text fill="#000000" font-family="sans-serif" font-size="14" lengthAdjust="spacing" textLength="169" x="2066" y="72.1074">greenSpace : GreenSpace</text><rect fill="#E3E3E3" height="32.6211" rx="2.5" ry="2.5" style="stroke:#181818;stroke-width:0.5;" width="183" x="2059" y="710.1504"/><text fill="#000000" font-family="sans-serif" font-size="14" lengthAdjust="spacing" textLength="169" x="2066" y="732.2578">greenSpace : GreenSpace</text><rect fill="#E3E3E3" height="32.6211" rx="2.5" ry="2.5" style="stroke:#181818;stroke-width:0.5;" width="159" x="2372" y="50"/><text fill="#000000" font-family="sans-serif" font-size="14" lengthAdjust="spacing" textLength="145" x="2379" y="72.1074">greenSpaceRepository</text><rect fill="#E3E3E3" height="32.6211" rx="2.5" ry="2.5" style="stroke:#181818;stroke-width:0.5;" width="159" x="2372" y="710.1504"/><text fill="#000000" font-family="sans-serif" font-size="14" lengthAdjust="spacing" textLength="145" x="2379" y="732.2578">greenSpaceRepository</text><rect fill="#FFFFFF" height="599.5293" style="stroke:#181818;stroke-width:1.0;" width="10" x="97.5" y="93.6211"/><rect fill="#FFFFFF" height="31.291" style="stroke:#181818;stroke-width:1.0;" width="10" x="431.5" y="116.9121"/><rect fill="#FFFFFF" height="482.3652" style="stroke:#181818;stroke-width:1.0;" width="10" x="431.5" y="179.4941"/><rect fill="#FFFFFF" height="419.7832" style="stroke:#181818;stroke-width:1.0;" width="10" x="736.5" y="210.7852"/><rect fill="#FFFFFF" height="31.291" style="stroke:#181818;stroke-width:1.0;" width="10" x="897.5" y="242.0762"/><rect fill="#FFFFFF" height="31.291" style="stroke:#181818;stroke-width:1.0;" width="10" x="1043.5" y="304.6582"/><rect fill="#FFFFFF" height="31.291" style="stroke:#181818;stroke-width:1.0;" width="10" x="1538.5" y="367.2402"/><rect fill="#FFFFFF" height="31.291" style="stroke:#181818;stroke-width:1.0;" width="10" x="1724.5" y="429.8223"/><rect fill="#FFFFFF" height="31.291" style="stroke:#181818;stroke-width:1.0;" width="10" x="1944" y="492.4043"/><rect fill="#FFFFFF" height="75.582" style="stroke:#181818;stroke-width:1.0;" width="10" x="2145.5" y="554.9863"/><polygon fill="#181818" points="419.5,112.9121,429.5,116.9121,419.5,120.9121,423.5,116.9121" style="stroke:#181818;stroke-width:1.0;"/><line style="stroke:#181818;stroke-width:1.0;" x1="107.5" x2="425.5" y1="116.9121" y2="116.9121"/><text fill="#000000" font-family="sans-serif" font-size="13" font-weight="bold" lengthAdjust="spacing" textLength="7" x="114.5" y="111.6494">1</text><text fill="#000000" font-family="sans-serif" font-size="13" lengthAdjust="spacing" textLength="187" x="125.5" y="111.6494">requests to register green space</text><polygon fill="#181818" points="118.5,144.2031,108.5,148.2031,118.5,152.2031,114.5,148.2031" style="stroke:#181818;stroke-width:1.0;"/><line style="stroke:#181818;stroke-width:1.0;stroke-dasharray:2.0,2.0;" x1="112.5" x2="435.5" y1="148.2031" y2="148.2031"/><text fill="#000000" font-family="sans-serif" font-size="13" font-weight="bold" lengthAdjust="spacing" textLength="7" x="124.5" y="142.9404">2</text><text fill="#000000" font-family="sans-serif" font-size="13" lengthAdjust="spacing" textLength="289" x="135.5" y="142.9404">prompts for required fields (e.g., name, area, type)</text><polygon fill="#181818" points="419.5,175.4941,429.5,179.4941,419.5,183.4941,423.5,179.4941" style="stroke:#181818;stroke-width:1.0;"/><line style="stroke:#181818;stroke-width:1.0;" x1="107.5" x2="425.5" y1="179.4941" y2="179.4941"/><text fill="#000000" font-family="sans-serif" font-size="13" font-weight="bold" lengthAdjust="spacing" textLength="7" x="114.5" y="174.2314">3</text><text fill="#000000" font-family="sans-serif" font-size="13" lengthAdjust="spacing" textLength="274" x="125.5" y="174.2314">provides green space details (name, area, type)</text><polygon fill="#181818" points="724.5,206.7852,734.5,210.7852,724.5,214.7852,728.5,210.7852" style="stroke:#181818;stroke-width:1.0;"/><line style="stroke:#181818;stroke-width:1.0;" x1="441.5" x2="730.5" y1="210.7852" y2="210.7852"/><text fill="#000000" font-family="sans-serif" font-size="13" font-weight="bold" lengthAdjust="spacing" textLength="7" x="448.5" y="205.5225">4</text><text fill="#000000" font-family="sans-serif" font-size="13" lengthAdjust="spacing" textLength="221" x="459.5" y="205.5225">registerGreenSpace(name, area, type)</text><polygon fill="#181818" points="885.5,238.0762,895.5,242.0762,885.5,246.0762,889.5,242.0762" style="stroke:#181818;stroke-width:1.0;"/><line style="stroke:#181818;stroke-width:1.0;" x1="746.5" x2="891.5" y1="242.0762" y2="242.0762"/><text fill="#000000" font-family="sans-serif" font-size="13" font-weight="bold" lengthAdjust="spacing" textLength="7" x="753.5" y="236.8135">5</text><text fill="#000000" font-family="sans-serif" font-size="13" lengthAdjust="spacing" textLength="75" x="764.5" y="236.8135">getInstance()</text><polygon fill="#181818" points="757.5,269.3672,747.5,273.3672,757.5,277.3672,753.5,273.3672" style="stroke:#181818;stroke-width:1.0;"/><line style="stroke:#181818;stroke-width:1.0;stroke-dasharray:2.0,2.0;" x1="751.5" x2="901.5" y1="273.3672" y2="273.3672"/><text fill="#000000" font-family="sans-serif" font-size="13" font-weight="bold" lengthAdjust="spacing" textLength="7" x="763.5" y="268.1045">6</text><text fill="#000000" font-family="sans-serif" font-size="13" lengthAdjust="spacing" textLength="67" x="774.5" y="268.1045">repositories</text><polygon fill="#181818" points="1031.5,300.6582,1041.5,304.6582,1031.5,308.6582,1035.5,304.6582" style="stroke:#181818;stroke-width:1.0;"/><line style="stroke:#181818;stroke-width:1.0;" x1="746.5" x2="1037.5" y1="304.6582" y2="304.6582"/><text fill="#000000" font-family="sans-serif" font-size="13" font-weight="bold" lengthAdjust="spacing" textLength="7" x="753.5" y="299.3955">7</text><text fill="#000000" font-family="sans-serif" font-size="13" lengthAdjust="spacing" textLength="160" x="764.5" y="299.3955">getGreenSpaceRepository()</text><polygon fill="#181818" points="757.5,331.9492,747.5,335.9492,757.5,339.9492,753.5,335.9492" style="stroke:#181818;stroke-width:1.0;"/><line style="stroke:#181818;stroke-width:1.0;stroke-dasharray:2.0,2.0;" x1="751.5" x2="1047.5" y1="335.9492" y2="335.9492"/><text fill="#000000" font-family="sans-serif" font-size="13" font-weight="bold" lengthAdjust="spacing" textLength="7" x="763.5" y="330.6865">8</text><text fill="#000000" font-family="sans-serif" font-size="13" lengthAdjust="spacing" textLength="131" x="774.5" y="330.6865">greenSpaceRepository</text><polygon fill="#181818" points="1526.5,363.2402,1536.5,367.2402,1526.5,371.2402,1530.5,367.2402" style="stroke:#181818;stroke-width:1.0;"/><line style="stroke:#181818;stroke-width:1.0;" x1="746.5" x2="1532.5" y1="367.2402" y2="367.2402"/><text fill="#000000" font-family="sans-serif" font-size="13" font-weight="bold" lengthAdjust="spacing" textLength="7" x="753.5" y="361.9775">9</text><text fill="#000000" font-family="sans-serif" font-size="13" lengthAdjust="spacing" textLength="75" x="764.5" y="361.9775">getInstance()</text><polygon fill="#181818" points="757.5,394.5313,747.5,398.5313,757.5,402.5313,753.5,398.5313" style="stroke:#181818;stroke-width:1.0;"/><line style="stroke:#181818;stroke-width:1.0;" x1="751.5" x2="1542.5" y1="398.5313" y2="398.5313"/><text fill="#000000" font-family="sans-serif" font-size="13" font-weight="bold" lengthAdjust="spacing" textLength="14" x="763.5" y="393.2686">10</text><text fill="#000000" font-family="sans-serif" font-size="13" lengthAdjust="spacing" textLength="68" x="781.5" y="393.2686">appSession</text><polygon fill="#181818" points="1712.5,425.8223,1722.5,429.8223,1712.5,433.8223,1716.5,429.8223" style="stroke:#181818;stroke-width:1.0;"/><line style="stroke:#181818;stroke-width:1.0;" x1="746.5" x2="1718.5" y1="429.8223" y2="429.8223"/><text fill="#000000" font-family="sans-serif" font-size="13" font-weight="bold" lengthAdjust="spacing" textLength="14" x="753.5" y="424.5596">11</text><text fill="#000000" font-family="sans-serif" font-size="13" lengthAdjust="spacing" textLength="115" x="771.5" y="424.5596">getCurrentSession()</text><polygon fill="#181818" points="757.5,457.1133,747.5,461.1133,757.5,465.1133,753.5,461.1133" style="stroke:#181818;stroke-width:1.0;"/><line style="stroke:#181818;stroke-width:1.0;stroke-dasharray:2.0,2.0;" x1="751.5" x2="1728.5" y1="461.1133" y2="461.1133"/><text fill="#000000" font-family="sans-serif" font-size="13" font-weight="bold" lengthAdjust="spacing" textLength="14" x="763.5" y="455.8506">12</text><text fill="#000000" font-family="sans-serif" font-size="13" lengthAdjust="spacing" textLength="87" x="781.5" y="455.8506">currentSession</text><polygon fill="#181818" points="1932,488.4043,1942,492.4043,1932,496.4043,1936,492.4043" style="stroke:#181818;stroke-width:1.0;"/><line style="stroke:#181818;stroke-width:1.0;" x1="746.5" x2="1938" y1="492.4043" y2="492.4043"/><text fill="#000000" font-family="sans-serif" font-size="13" font-weight="bold" lengthAdjust="spacing" textLength="14" x="753.5" y="487.1416">13</text><text fill="#000000" font-family="sans-serif" font-size="13" lengthAdjust="spacing" textLength="133" x="771.5" y="487.1416">email = getUserEmail()</text><polygon fill="#181818" points="757.5,519.6953,747.5,523.6953,757.5,527.6953,753.5,523.6953" style="stroke:#181818;stroke-width:1.0;"/><line style="stroke:#181818;stroke-width:1.0;stroke-dasharray:2.0,2.0;" x1="751.5" x2="1948" y1="523.6953" y2="523.6953"/><text fill="#000000" font-family="sans-serif" font-size="13" font-weight="bold" lengthAdjust="spacing" textLength="14" x="763.5" y="518.4326">14</text><text fill="#000000" font-family="sans-serif" font-size="13" lengthAdjust="spacing" textLength="31" x="781.5" y="518.4326">email</text><polygon fill="#181818" points="2133.5,550.9863,2143.5,554.9863,2133.5,558.9863,2137.5,554.9863" style="stroke:#181818;stroke-width:1.0;"/><line style="stroke:#181818;stroke-width:1.0;" x1="746.5" x2="2139.5" y1="554.9863" y2="554.9863"/><text fill="#000000" font-family="sans-serif" font-size="13" font-weight="bold" lengthAdjust="spacing" textLength="14" x="753.5" y="549.7236">15</text><text fill="#000000" font-family="sans-serif" font-size="13" lengthAdjust="spacing" textLength="205" x="771.5" y="549.7236">new GreenSpace(name, area, type)</text><line style="stroke:#181818;stroke-width:1.0;" x1="2155.5" x2="2197.5" y1="586.2773" y2="586.2773"/><line style="stroke:#181818;stroke-width:1.0;" x1="2197.5" x2="2197.5" y1="586.2773" y2="599.2773"/><line style="stroke:#181818;stroke-width:1.0;" x1="2156.5" x2="2197.5" y1="599.2773" y2="599.2773"/><polygon fill="#181818" points="2166.5,595.2773,2156.5,599.2773,2166.5,603.2773,2162.5,599.2773" style="stroke:#181818;stroke-width:1.0;"/><text fill="#000000" font-family="sans-serif" font-size="13" font-weight="bold" lengthAdjust="spacing" textLength="14" x="2162.5" y="581.0146">16</text><text fill="#000000" font-family="sans-serif" font-size="13" lengthAdjust="spacing" textLength="85" x="2180.5" y="581.0146">validate details</text><polygon fill="#181818" points="2439.5,626.5684,2449.5,630.5684,2439.5,634.5684,2443.5,630.5684" style="stroke:#181818;stroke-width:1.0;"/><line style="stroke:#181818;stroke-width:1.0;" x1="2150.5" x2="2445.5" y1="630.5684" y2="630.5684"/><text fill="#000000" font-family="sans-serif" font-size="13" font-weight="bold" lengthAdjust="spacing" textLength="14" x="2157.5" y="625.3057">17</text><text fill="#000000" font-family="sans-serif" font-size="13" lengthAdjust="spacing" textLength="254" x="2175.5" y="625.3057">registerGreenSpace(greenSpaceRepository)</text><polygon fill="#181818" points="447.5,657.8594,437.5,661.8594,447.5,665.8594,443.5,661.8594" style="stroke:#181818;stroke-width:1.0;"/><line style="stroke:#181818;stroke-width:1.0;stroke-dasharray:2.0,2.0;" x1="441.5" x2="740.5" y1="661.8594" y2="661.8594"/><text fill="#000000" font-family="sans-serif" font-size="13" font-weight="bold" lengthAdjust="spacing" textLength="14" x="453.5" y="656.5967">18</text><text fill="#000000" font-family="sans-serif" font-size="13" lengthAdjust="spacing" textLength="258" x="471.5" y="656.5967">confirms successful green space registration</text><polygon fill="#181818" points="113.5,689.1504,103.5,693.1504,113.5,697.1504,109.5,693.1504" style="stroke:#181818;stroke-width:1.0;"/><line style="stroke:#181818;stroke-width:1.0;stroke-dasharray:2.0,2.0;" x1="107.5" x2="435.5" y1="693.1504" y2="693.1504"/><text fill="#000000" font-family="sans-serif" font-size="13" font-weight="bold" lengthAdjust="spacing" textLength="14" x="119.5" y="687.8877">19</text><text fill="#000000" font-family="sans-serif" font-size="13" lengthAdjust="spacing" textLength="258" x="137.5" y="687.8877">confirms successful green space registration</text><!--SRC=[bPN1Rk8m48RlUOeHfo917m1fAo6445AxYqWvhxp9a5fDxApjKF7sEtOWsCGMNLy8plnV_ebd9lgJYvOfra0ZXIm-b6mGZEemqyETbXMVhCBSd6i4XOLXeghz0Ft1Ild5HGL7LclCCjOPARhc3ogwBenKCDaeH04viH3Uc22UWgTD_ZQT0DD05ncn32zuouI1oHuhhWqg9tEgmzP57hQF0bTI62Nh6fKJhDxth_UILcfEhZXg5p9id7DkKoFpeK9v2bZ02B1xNRw7YcgmSuEJSXFPxbz0v4P8NBPjpGjck1GvQaq_JlXxkTk5WQnjBm7qm8Hg92ewfL2Oc_2WKVcAV9tdor-f98FK-eJsw_NFVBTShLq9y1Cpw8uv0rfq0VCNEamIAlpReJOQZAJh_ZJ1eK5Rd1CC23f_js4NoUT4iR05j5IwBL6EL6qMoHMMSEHObngUyBbwde5W3Sw0AMGpCESMfuvKuWZksoFkYPTqxfubqXZ6QmB7aKctBwuSNTBtPPj01JXNoyEsNGv7s4W9qrCgD5kXgLy9Fmrq0p9M-q6aNJ7wt4_crW-1rdkr3vzppSJsKcyzrXEfD5m7ZdmxbcSqrfKfmsFYrQ5jkM-zMzURzvxivhKG5d1hrfGF1udwkDfO1RsRCZF2sEMy36R28P0obFJJZuW5O4Ez0J-iDJj5rlPlojLbh8oCzVkUDmTDMOfHhgvkWuWAGE0NVAlb0fF-BBitwk7l7tPYDI-j_Z8j7cWJdup8f8X5JaTqx_sa4l12KgFbEWOBAOvSDHfqLnHK8CUk3YPYRrEvBqrgh0Rp-h-0cPyCVKJ-0G00]--></g></svg>