<?xml version="1.0" encoding="us-ascii" standalone="no"?><svg xmlns="http://www.w3.org/2000/svg" xmlns:xlink="http://www.w3.org/1999/xlink" contentStyleType="text/css" height="950px" preserveAspectRatio="none" style="width:2799px;height:950px;background:#FFFFFF;" version="1.1" viewBox="0 0 2799 950" width="2799px" zoomAndPan="magnify"><defs/><g><rect fill="#FFFFFF" height="755.9844" style="stroke:#181818;stroke-width:1.0;" width="10" x="97.5" y="93.6211"/><rect fill="#FFFFFF" height="31.291" style="stroke:#181818;stroke-width:1.0;" width="10" x="431.5" y="116.9121"/><rect fill="#FFFFFF" height="638.8203" style="stroke:#181818;stroke-width:1.0;" width="10" x="431.5" y="179.4941"/><rect fill="#FFFFFF" height="647.8203" style="stroke:#181818;stroke-width:1.0;" width="10" x="741.5" y="210.7852"/><rect fill="#FFFFFF" height="31.291" style="stroke:#181818;stroke-width:1.0;" width="10" x="902.5" y="242.0762"/><rect fill="#FFFFFF" height="31.291" style="stroke:#181818;stroke-width:1.0;" width="10" x="1048.5" y="304.6582"/><rect fill="#FFFFFF" height="31.291" style="stroke:#181818;stroke-width:1.0;" width="10" x="1048.5" y="617.5684"/><rect fill="#FFFFFF" height="31.291" style="stroke:#181818;stroke-width:1.0;" width="10" x="1214.5" y="367.2402"/><rect fill="#FFFFFF" height="31.291" style="stroke:#181818;stroke-width:1.0;" width="10" x="1400.5" y="429.8223"/><rect fill="#FFFFFF" height="31.291" style="stroke:#181818;stroke-width:1.0;" width="10" x="1620" y="492.4043"/><rect fill="#FFFFFF" height="31.291" style="stroke:#181818;stroke-width:1.0;" width="10" x="1889.5" y="554.9863"/><rect fill="#FFFFFF" height="106.873" style="stroke:#181818;stroke-width:1.0;" width="10" x="2150.5" y="680.1504"/><rect fill="#FFFFFF" height="75.582" style="stroke:#181818;stroke-width:1.0;" width="10" x="2672.5" y="711.4414"/><line style="stroke:#181818;stroke-width:0.5;stroke-dasharray:5.0,5.0;" x1="102" x2="102" y1="83.6211" y2="867.6055"/><line style="stroke:#181818;stroke-width:0.5;stroke-dasharray:5.0,5.0;" x1="436" x2="436" y1="83.6211" y2="867.6055"/><line style="stroke:#181818;stroke-width:0.5;stroke-dasharray:5.0,5.0;" x1="746" x2="746" y1="83.6211" y2="867.6055"/><line style="stroke:#181818;stroke-width:0.5;stroke-dasharray:5.0,5.0;" x1="907" x2="907" y1="83.6211" y2="867.6055"/><line style="stroke:#181818;stroke-width:0.5;stroke-dasharray:5.0,5.0;" x1="1053" x2="1053" y1="83.6211" y2="867.6055"/><line style="stroke:#181818;stroke-width:0.5;stroke-dasharray:5.0,5.0;" x1="1219" x2="1219" y1="83.6211" y2="867.6055"/><line style="stroke:#181818;stroke-width:0.5;stroke-dasharray:5.0,5.0;" x1="1405" x2="1405" y1="83.6211" y2="867.6055"/><line style="stroke:#181818;stroke-width:0.5;stroke-dasharray:5.0,5.0;" x1="1625" x2="1625" y1="83.6211" y2="867.6055"/><line style="stroke:#181818;stroke-width:0.5;stroke-dasharray:5.0,5.0;" x1="1894" x2="1894" y1="83.6211" y2="867.6055"/><line style="stroke:#181818;stroke-width:0.5;stroke-dasharray:5.0,5.0;" x1="2155" x2="2155" y1="83.6211" y2="867.6055"/><line style="stroke:#181818;stroke-width:0.5;stroke-dasharray:5.0,5.0;" x1="2416" x2="2416" y1="83.6211" y2="867.6055"/><line style="stroke:#181818;stroke-width:0.5;stroke-dasharray:5.0,5.0;" x1="2677" x2="2677" y1="83.6211" y2="867.6055"/><text fill="#000000" font-family="sans-serif" font-size="14" lengthAdjust="spacing" textLength="189" x="5" y="80.1074">Green Space Manager (GSM)</text><ellipse cx="102.5" cy="13.5" fill="#E3E3E3" rx="8" ry="8" style="stroke:#181818;stroke-width:0.5;"/><path d="M102.5,21.5 L102.5,48.5 M89.5,29.5 L115.5,29.5 M102.5,48.5 L89.5,63.5 M102.5,48.5 L115.5,63.5 " fill="none" style="stroke:#181818;stroke-width:0.5;"/><text fill="#000000" font-family="sans-serif" font-size="14" lengthAdjust="spacing" textLength="189" x="5" y="881.7129">Green Space Manager (GSM)</text><ellipse cx="102.5" cy="893.7266" fill="#E3E3E3" rx="8" ry="8" style="stroke:#181818;stroke-width:0.5;"/><path d="M102.5,901.7266 L102.5,928.7266 M89.5,909.7266 L115.5,909.7266 M102.5,928.7266 L89.5,943.7266 M102.5,928.7266 L115.5,943.7266 " fill="none" style="stroke:#181818;stroke-width:0.5;"/><rect fill="#E3E3E3" height="32.6211" rx="2.5" ry="2.5" style="stroke:#181818;stroke-width:0.5;" width="159" x="357" y="50"/><text fill="#000000" font-family="sans-serif" font-size="14" lengthAdjust="spacing" textLength="145" x="364" y="72.1074">RegisterGreenSpaceUI</text><rect fill="#E3E3E3" height="32.6211" rx="2.5" ry="2.5" style="stroke:#181818;stroke-width:0.5;" width="159" x="357" y="866.6055"/><text fill="#000000" font-family="sans-serif" font-size="14" lengthAdjust="spacing" textLength="145" x="364" y="888.7129">RegisterGreenSpaceUI</text><rect fill="#E3E3E3" height="32.6211" rx="2.5" ry="2.5" style="stroke:#181818;stroke-width:0.5;" width="209" x="642" y="50"/><text fill="#000000" font-family="sans-serif" font-size="14" lengthAdjust="spacing" textLength="195" x="649" y="72.1074">RegisterGreenSpaceController</text><rect fill="#E3E3E3" height="32.6211" rx="2.5" ry="2.5" style="stroke:#181818;stroke-width:0.5;" width="209" x="642" y="866.6055"/><text fill="#000000" font-family="sans-serif" font-size="14" lengthAdjust="spacing" textLength="195" x="649" y="888.7129">RegisterGreenSpaceController</text><rect fill="#E3E3E3" height="32.6211" rx="2.5" ry="2.5" style="stroke:#181818;stroke-width:0.5;" width="93" x="861" y="50"/><text fill="#000000" font-family="sans-serif" font-size="14" lengthAdjust="spacing" textLength="79" x="868" y="72.1074">Repositories</text><rect fill="#E3E3E3" height="32.6211" rx="2.5" ry="2.5" style="stroke:#181818;stroke-width:0.5;" width="93" x="861" y="866.6055"/><text fill="#000000" font-family="sans-serif" font-size="14" lengthAdjust="spacing" textLength="79" x="868" y="888.7129">Repositories</text><rect fill="#E3E3E3" height="32.6211" rx="2.5" ry="2.5" style="stroke:#181818;stroke-width:0.5;" width="179" x="964" y="50"/><text fill="#000000" font-family="sans-serif" font-size="14" lengthAdjust="spacing" textLength="165" x="971" y="72.1074">repositories : Repositories</text><rect fill="#E3E3E3" height="32.6211" rx="2.5" ry="2.5" style="stroke:#181818;stroke-width:0.5;" width="179" x="964" y="866.6055"/><text fill="#000000" font-family="sans-serif" font-size="14" lengthAdjust="spacing" textLength="165" x="971" y="888.7129">repositories : Repositories</text><rect fill="#E3E3E3" height="32.6211" rx="2.5" ry="2.5" style="stroke:#181818;stroke-width:0.5;" width="133" x="1153" y="50"/><text fill="#000000" font-family="sans-serif" font-size="14" lengthAdjust="spacing" textLength="119" x="1160" y="72.1074">ApplicationSession</text><rect fill="#E3E3E3" height="32.6211" rx="2.5" ry="2.5" style="stroke:#181818;stroke-width:0.5;" width="133" x="1153" y="866.6055"/><text fill="#000000" font-family="sans-serif" font-size="14" lengthAdjust="spacing" textLength="119" x="1160" y="888.7129">ApplicationSession</text><rect fill="#E3E3E3" height="32.6211" rx="2.5" ry="2.5" style="stroke:#181818;stroke-width:0.5;" width="219" x="1296" y="50"/><text fill="#000000" font-family="sans-serif" font-size="14" lengthAdjust="spacing" textLength="205" x="1303" y="72.1074">appSession : ApplicationSession</text><rect fill="#E3E3E3" height="32.6211" rx="2.5" ry="2.5" style="stroke:#181818;stroke-width:0.5;" width="219" x="1296" y="866.6055"/><text fill="#000000" font-family="sans-serif" font-size="14" lengthAdjust="spacing" textLength="205" x="1303" y="888.7129">appSession : ApplicationSession</text><rect fill="#E3E3E3" height="32.6211" rx="2.5" ry="2.5" style="stroke:#181818;stroke-width:0.5;" width="200" x="1525" y="50"/><text fill="#000000" font-family="sans-serif" font-size="14" lengthAdjust="spacing" textLength="186" x="1532" y="72.1074">currentSession : UserSession</text><rect fill="#E3E3E3" height="32.6211" rx="2.5" ry="2.5" style="stroke:#181818;stroke-width:0.5;" width="200" x="1525" y="866.6055"/><text fill="#000000" font-family="sans-serif" font-size="14" lengthAdjust="spacing" textLength="186" x="1532" y="888.7129">currentSession : UserSession</text><rect fill="#E3E3E3" height="32.6211" rx="2.5" ry="2.5" style="stroke:#181818;stroke-width:0.5;" width="319" x="1735" y="50"/><text fill="#000000" font-family="sans-serif" font-size="14" lengthAdjust="spacing" textLength="305" x="1742" y="72.1074">organizationRepository : OrganizationRepository</text><rect fill="#E3E3E3" height="32.6211" rx="2.5" ry="2.5" style="stroke:#181818;stroke-width:0.5;" width="319" x="1735" y="866.6055"/><text fill="#000000" font-family="sans-serif" font-size="14" lengthAdjust="spacing" textLength="305" x="1742" y="888.7129">organizationRepository : OrganizationRepository</text><rect fill="#E3E3E3" height="32.6211" rx="2.5" ry="2.5" style="stroke:#181818;stroke-width:0.5;" width="183" x="2064" y="50"/><text fill="#000000" font-family="sans-serif" font-size="14" lengthAdjust="spacing" textLength="169" x="2071" y="72.1074">organization : Organization</text><rect fill="#E3E3E3" height="32.6211" rx="2.5" ry="2.5" style="stroke:#181818;stroke-width:0.5;" width="183" x="2064" y="866.6055"/><text fill="#000000" font-family="sans-serif" font-size="14" lengthAdjust="spacing" textLength="169" x="2071" y="888.7129">organization : Organization</text><rect fill="#E3E3E3" height="32.6211" rx="2.5" ry="2.5" style="stroke:#181818;stroke-width:0.5;" width="319" x="2257" y="50"/><text fill="#000000" font-family="sans-serif" font-size="14" lengthAdjust="spacing" textLength="305" x="2264" y="72.1074">greenSpaceRepository : GreenSpaceRepository</text><rect fill="#E3E3E3" height="32.6211" rx="2.5" ry="2.5" style="stroke:#181818;stroke-width:0.5;" width="319" x="2257" y="866.6055"/><text fill="#000000" font-family="sans-serif" font-size="14" lengthAdjust="spacing" textLength="305" x="2264" y="888.7129">greenSpaceRepository : GreenSpaceRepository</text><rect fill="#E3E3E3" height="32.6211" rx="2.5" ry="2.5" style="stroke:#181818;stroke-width:0.5;" width="183" x="2586" y="50"/><text fill="#000000" font-family="sans-serif" font-size="14" lengthAdjust="spacing" textLength="169" x="2593" y="72.1074">greenSpace : GreenSpace</text><rect fill="#E3E3E3" height="32.6211" rx="2.5" ry="2.5" style="stroke:#181818;stroke-width:0.5;" width="183" x="2586" y="866.6055"/><text fill="#000000" font-family="sans-serif" font-size="14" lengthAdjust="spacing" textLength="169" x="2593" y="888.7129">greenSpace : GreenSpace</text><rect fill="#FFFFFF" height="755.9844" style="stroke:#181818;stroke-width:1.0;" width="10" x="97.5" y="93.6211"/><rect fill="#FFFFFF" height="31.291" style="stroke:#181818;stroke-width:1.0;" width="10" x="431.5" y="116.9121"/><rect fill="#FFFFFF" height="638.8203" style="stroke:#181818;stroke-width:1.0;" width="10" x="431.5" y="179.4941"/><rect fill="#FFFFFF" height="647.8203" style="stroke:#181818;stroke-width:1.0;" width="10" x="741.5" y="210.7852"/><rect fill="#FFFFFF" height="31.291" style="stroke:#181818;stroke-width:1.0;" width="10" x="902.5" y="242.0762"/><rect fill="#FFFFFF" height="31.291" style="stroke:#181818;stroke-width:1.0;" width="10" x="1048.5" y="304.6582"/><rect fill="#FFFFFF" height="31.291" style="stroke:#181818;stroke-width:1.0;" width="10" x="1048.5" y="617.5684"/><rect fill="#FFFFFF" height="31.291" style="stroke:#181818;stroke-width:1.0;" width="10" x="1214.5" y="367.2402"/><rect fill="#FFFFFF" height="31.291" style="stroke:#181818;stroke-width:1.0;" width="10" x="1400.5" y="429.8223"/><rect fill="#FFFFFF" height="31.291" style="stroke:#181818;stroke-width:1.0;" width="10" x="1620" y="492.4043"/><rect fill="#FFFFFF" height="31.291" style="stroke:#181818;stroke-width:1.0;" width="10" x="1889.5" y="554.9863"/><rect fill="#FFFFFF" height="106.873" style="stroke:#181818;stroke-width:1.0;" width="10" x="2150.5" y="680.1504"/><rect fill="#FFFFFF" height="75.582" style="stroke:#181818;stroke-width:1.0;" width="10" x="2672.5" y="711.4414"/><polygon fill="#181818" points="419.5,112.9121,429.5,116.9121,419.5,120.9121,423.5,116.9121" style="stroke:#181818;stroke-width:1.0;"/><line style="stroke:#181818;stroke-width:1.0;" x1="107.5" x2="425.5" y1="116.9121" y2="116.9121"/><text fill="#000000" font-family="sans-serif" font-size="13" font-weight="bold" lengthAdjust="spacing" textLength="7" x="114.5" y="111.6494">1</text><text fill="#000000" font-family="sans-serif" font-size="13" lengthAdjust="spacing" textLength="187" x="125.5" y="111.6494">requests to register green space</text><polygon fill="#181818" points="118.5,144.2031,108.5,148.2031,118.5,152.2031,114.5,148.2031" style="stroke:#181818;stroke-width:1.0;"/><line style="stroke:#181818;stroke-width:1.0;stroke-dasharray:2.0,2.0;" x1="112.5" x2="435.5" y1="148.2031" y2="148.2031"/><text fill="#000000" font-family="sans-serif" font-size="13" font-weight="bold" lengthAdjust="spacing" textLength="7" x="124.5" y="142.9404">2</text><text fill="#000000" font-family="sans-serif" font-size="13" lengthAdjust="spacing" textLength="289" x="135.5" y="142.9404">prompts for required fields (e.g., name, area, type)</text><polygon fill="#181818" points="419.5,175.4941,429.5,179.4941,419.5,183.4941,423.5,179.4941" style="stroke:#181818;stroke-width:1.0;"/><line style="stroke:#181818;stroke-width:1.0;" x1="107.5" x2="425.5" y1="179.4941" y2="179.4941"/><text fill="#000000" font-family="sans-serif" font-size="13" font-weight="bold" lengthAdjust="spacing" textLength="7" x="114.5" y="174.2314">3</text><text fill="#000000" font-family="sans-serif" font-size="13" lengthAdjust="spacing" textLength="274" x="125.5" y="174.2314">provides green space details (name, area, type)</text><polygon fill="#181818" points="729.5,206.7852,739.5,210.7852,729.5,214.7852,733.5,210.7852" style="stroke:#181818;stroke-width:1.0;"/><line style="stroke:#181818;stroke-width:1.0;" x1="441.5" x2="735.5" y1="210.7852" y2="210.7852"/><text fill="#000000" font-family="sans-serif" font-size="13" font-weight="bold" lengthAdjust="spacing" textLength="7" x="448.5" y="205.5225">4</text><text fill="#000000" font-family="sans-serif" font-size="13" lengthAdjust="spacing" textLength="221" x="459.5" y="205.5225">registerGreenSpace(name, area, type)</text><polygon fill="#181818" points="890.5,238.0762,900.5,242.0762,890.5,246.0762,894.5,242.0762" style="stroke:#181818;stroke-width:1.0;"/><line style="stroke:#181818;stroke-width:1.0;" x1="751.5" x2="896.5" y1="242.0762" y2="242.0762"/><text fill="#000000" font-family="sans-serif" font-size="13" font-weight="bold" lengthAdjust="spacing" textLength="7" x="758.5" y="236.8135">5</text><text fill="#000000" font-family="sans-serif" font-size="13" lengthAdjust="spacing" textLength="75" x="769.5" y="236.8135">getInstance()</text><polygon fill="#181818" points="762.5,269.3672,752.5,273.3672,762.5,277.3672,758.5,273.3672" style="stroke:#181818;stroke-width:1.0;"/><line style="stroke:#181818;stroke-width:1.0;stroke-dasharray:2.0,2.0;" x1="756.5" x2="906.5" y1="273.3672" y2="273.3672"/><text fill="#000000" font-family="sans-serif" font-size="13" font-weight="bold" lengthAdjust="spacing" textLength="7" x="768.5" y="268.1045">6</text><text fill="#000000" font-family="sans-serif" font-size="13" lengthAdjust="spacing" textLength="67" x="779.5" y="268.1045">repositories</text><polygon fill="#181818" points="1036.5,300.6582,1046.5,304.6582,1036.5,308.6582,1040.5,304.6582" style="stroke:#181818;stroke-width:1.0;"/><line style="stroke:#181818;stroke-width:1.0;" x1="751.5" x2="1042.5" y1="304.6582" y2="304.6582"/><text fill="#000000" font-family="sans-serif" font-size="13" font-weight="bold" lengthAdjust="spacing" textLength="7" x="758.5" y="299.3955">7</text><text fill="#000000" font-family="sans-serif" font-size="13" lengthAdjust="spacing" textLength="161" x="769.5" y="299.3955">getOrganizationRepository()</text><polygon fill="#181818" points="762.5,331.9492,752.5,335.9492,762.5,339.9492,758.5,335.9492" style="stroke:#181818;stroke-width:1.0;"/><line style="stroke:#181818;stroke-width:1.0;stroke-dasharray:2.0,2.0;" x1="756.5" x2="1052.5" y1="335.9492" y2="335.9492"/><text fill="#000000" font-family="sans-serif" font-size="13" font-weight="bold" lengthAdjust="spacing" textLength="7" x="768.5" y="330.6865">8</text><text fill="#000000" font-family="sans-serif" font-size="13" lengthAdjust="spacing" textLength="132" x="779.5" y="330.6865">organizationRepository</text><polygon fill="#181818" points="1202.5,363.2402,1212.5,367.2402,1202.5,371.2402,1206.5,367.2402" style="stroke:#181818;stroke-width:1.0;"/><line style="stroke:#181818;stroke-width:1.0;" x1="751.5" x2="1208.5" y1="367.2402" y2="367.2402"/><text fill="#000000" font-family="sans-serif" font-size="13" font-weight="bold" lengthAdjust="spacing" textLength="7" x="758.5" y="361.9775">9</text><text fill="#000000" font-family="sans-serif" font-size="13" lengthAdjust="spacing" textLength="75" x="769.5" y="361.9775">getInstance()</text><polygon fill="#181818" points="762.5,394.5313,752.5,398.5313,762.5,402.5313,758.5,398.5313" style="stroke:#181818;stroke-width:1.0;"/><line style="stroke:#181818;stroke-width:1.0;" x1="756.5" x2="1218.5" y1="398.5313" y2="398.5313"/><text fill="#000000" font-family="sans-serif" font-size="13" font-weight="bold" lengthAdjust="spacing" textLength="14" x="768.5" y="393.2686">10</text><text fill="#000000" font-family="sans-serif" font-size="13" lengthAdjust="spacing" textLength="68" x="786.5" y="393.2686">appSession</text><polygon fill="#181818" points="1388.5,425.8223,1398.5,429.8223,1388.5,433.8223,1392.5,429.8223" style="stroke:#181818;stroke-width:1.0;"/><line style="stroke:#181818;stroke-width:1.0;" x1="751.5" x2="1394.5" y1="429.8223" y2="429.8223"/><text fill="#000000" font-family="sans-serif" font-size="13" font-weight="bold" lengthAdjust="spacing" textLength="14" x="758.5" y="424.5596">11</text><text fill="#000000" font-family="sans-serif" font-size="13" lengthAdjust="spacing" textLength="115" x="776.5" y="424.5596">getCurrentSession()</text><polygon fill="#181818" points="762.5,457.1133,752.5,461.1133,762.5,465.1133,758.5,461.1133" style="stroke:#181818;stroke-width:1.0;"/><line style="stroke:#181818;stroke-width:1.0;stroke-dasharray:2.0,2.0;" x1="756.5" x2="1404.5" y1="461.1133" y2="461.1133"/><text fill="#000000" font-family="sans-serif" font-size="13" font-weight="bold" lengthAdjust="spacing" textLength="14" x="768.5" y="455.8506">12</text><text fill="#000000" font-family="sans-serif" font-size="13" lengthAdjust="spacing" textLength="87" x="786.5" y="455.8506">currentSession</text><polygon fill="#181818" points="1608,488.4043,1618,492.4043,1608,496.4043,1612,492.4043" style="stroke:#181818;stroke-width:1.0;"/><line style="stroke:#181818;stroke-width:1.0;" x1="751.5" x2="1614" y1="492.4043" y2="492.4043"/><text fill="#000000" font-family="sans-serif" font-size="13" font-weight="bold" lengthAdjust="spacing" textLength="14" x="758.5" y="487.1416">13</text><text fill="#000000" font-family="sans-serif" font-size="13" lengthAdjust="spacing" textLength="133" x="776.5" y="487.1416">email = getUserEmail()</text><polygon fill="#181818" points="762.5,519.6953,752.5,523.6953,762.5,527.6953,758.5,523.6953" style="stroke:#181818;stroke-width:1.0;"/><line style="stroke:#181818;stroke-width:1.0;stroke-dasharray:2.0,2.0;" x1="756.5" x2="1624" y1="523.6953" y2="523.6953"/><text fill="#000000" font-family="sans-serif" font-size="13" font-weight="bold" lengthAdjust="spacing" textLength="14" x="768.5" y="518.4326">14</text><text fill="#000000" font-family="sans-serif" font-size="13" lengthAdjust="spacing" textLength="31" x="786.5" y="518.4326">email</text><polygon fill="#181818" points="1877.5,550.9863,1887.5,554.9863,1877.5,558.9863,1881.5,554.9863" style="stroke:#181818;stroke-width:1.0;"/><line style="stroke:#181818;stroke-width:1.0;" x1="751.5" x2="1883.5" y1="554.9863" y2="554.9863"/><text fill="#000000" font-family="sans-serif" font-size="13" font-weight="bold" lengthAdjust="spacing" textLength="14" x="758.5" y="549.7236">15</text><text fill="#000000" font-family="sans-serif" font-size="13" lengthAdjust="spacing" textLength="237" x="776.5" y="549.7236">getOrganizationByEmployeeEmail(email)</text><polygon fill="#181818" points="762.5,582.2773,752.5,586.2773,762.5,590.2773,758.5,586.2773" style="stroke:#181818;stroke-width:1.0;"/><line style="stroke:#181818;stroke-width:1.0;stroke-dasharray:2.0,2.0;" x1="756.5" x2="1893.5" y1="586.2773" y2="586.2773"/><text fill="#000000" font-family="sans-serif" font-size="13" font-weight="bold" lengthAdjust="spacing" textLength="14" x="768.5" y="581.0146">16</text><text fill="#000000" font-family="sans-serif" font-size="13" lengthAdjust="spacing" textLength="70" x="786.5" y="581.0146">organization</text><polygon fill="#181818" points="1036.5,613.5684,1046.5,617.5684,1036.5,621.5684,1040.5,617.5684" style="stroke:#181818;stroke-width:1.0;"/><line style="stroke:#181818;stroke-width:1.0;" x1="751.5" x2="1042.5" y1="617.5684" y2="617.5684"/><text fill="#000000" font-family="sans-serif" font-size="13" font-weight="bold" lengthAdjust="spacing" textLength="14" x="758.5" y="612.3057">17</text><text fill="#000000" font-family="sans-serif" font-size="13" lengthAdjust="spacing" textLength="160" x="776.5" y="612.3057">getGreenSpaceRepository()</text><polygon fill="#181818" points="762.5,644.8594,752.5,648.8594,762.5,652.8594,758.5,648.8594" style="stroke:#181818;stroke-width:1.0;"/><line style="stroke:#181818;stroke-width:1.0;stroke-dasharray:2.0,2.0;" x1="756.5" x2="1052.5" y1="648.8594" y2="648.8594"/><text fill="#000000" font-family="sans-serif" font-size="13" font-weight="bold" lengthAdjust="spacing" textLength="14" x="768.5" y="643.5967">18</text><text fill="#000000" font-family="sans-serif" font-size="13" lengthAdjust="spacing" textLength="131" x="786.5" y="643.5967">greenSpaceRepository</text><polygon fill="#181818" points="2138.5,676.1504,2148.5,680.1504,2138.5,684.1504,2142.5,680.1504" style="stroke:#181818;stroke-width:1.0;"/><line style="stroke:#181818;stroke-width:1.0;" x1="751.5" x2="2144.5" y1="680.1504" y2="680.1504"/><text fill="#000000" font-family="sans-serif" font-size="13" font-weight="bold" lengthAdjust="spacing" textLength="14" x="758.5" y="674.8877">19</text><text fill="#000000" font-family="sans-serif" font-size="13" lengthAdjust="spacing" textLength="214" x="776.5" y="674.8877">createGreenSpace(name, area, type)</text><polygon fill="#181818" points="2660.5,707.4414,2670.5,711.4414,2660.5,715.4414,2664.5,711.4414" style="stroke:#181818;stroke-width:1.0;"/><line style="stroke:#181818;stroke-width:1.0;" x1="2160.5" x2="2666.5" y1="711.4414" y2="711.4414"/><text fill="#000000" font-family="sans-serif" font-size="13" font-weight="bold" lengthAdjust="spacing" textLength="14" x="2167.5" y="706.1787">20</text><text fill="#000000" font-family="sans-serif" font-size="13" lengthAdjust="spacing" textLength="205" x="2185.5" y="706.1787">new GreenSpace(name, area, type)</text><line style="stroke:#181818;stroke-width:1.0;" x1="2682.5" x2="2724.5" y1="742.7324" y2="742.7324"/><line style="stroke:#181818;stroke-width:1.0;" x1="2724.5" x2="2724.5" y1="742.7324" y2="755.7324"/><line style="stroke:#181818;stroke-width:1.0;" x1="2683.5" x2="2724.5" y1="755.7324" y2="755.7324"/><polygon fill="#181818" points="2693.5,751.7324,2683.5,755.7324,2693.5,759.7324,2689.5,755.7324" style="stroke:#181818;stroke-width:1.0;"/><text fill="#000000" font-family="sans-serif" font-size="13" font-weight="bold" lengthAdjust="spacing" textLength="14" x="2689.5" y="737.4697">21</text><text fill="#000000" font-family="sans-serif" font-size="13" lengthAdjust="spacing" textLength="85" x="2707.5" y="737.4697">validate details</text><polygon fill="#181818" points="2427.5,783.0234,2417.5,787.0234,2427.5,791.0234,2423.5,787.0234" style="stroke:#181818;stroke-width:1.0;"/><line style="stroke:#181818;stroke-width:1.0;" x1="2421.5" x2="2676.5" y1="787.0234" y2="787.0234"/><text fill="#000000" font-family="sans-serif" font-size="13" font-weight="bold" lengthAdjust="spacing" textLength="14" x="2433.5" y="781.7607">22</text><text fill="#000000" font-family="sans-serif" font-size="13" lengthAdjust="spacing" textLength="192" x="2451.5" y="781.7607">registerGreenSpace(greenSpace)</text><polygon fill="#181818" points="447.5,814.3145,437.5,818.3145,447.5,822.3145,443.5,818.3145" style="stroke:#181818;stroke-width:1.0;"/><line style="stroke:#181818;stroke-width:1.0;stroke-dasharray:2.0,2.0;" x1="441.5" x2="740.5" y1="818.3145" y2="818.3145"/><text fill="#000000" font-family="sans-serif" font-size="13" font-weight="bold" lengthAdjust="spacing" textLength="14" x="453.5" y="813.0518">23</text><text fill="#000000" font-family="sans-serif" font-size="13" lengthAdjust="spacing" textLength="258" x="471.5" y="813.0518">confirms successful green space registration</text><polygon fill="#181818" points="113.5,845.6055,103.5,849.6055,113.5,853.6055,109.5,849.6055" style="stroke:#181818;stroke-width:1.0;"/><line style="stroke:#181818;stroke-width:1.0;stroke-dasharray:2.0,2.0;" x1="107.5" x2="435.5" y1="849.6055" y2="849.6055"/><text fill="#000000" font-family="sans-serif" font-size="13" font-weight="bold" lengthAdjust="spacing" textLength="14" x="119.5" y="844.3428">24</text><text fill="#000000" font-family="sans-serif" font-size="13" lengthAdjust="spacing" textLength="258" x="137.5" y="844.3428">confirms successful green space registration</text><!--SRC=[fPRDRk8m58NtFCKLgrQYVG2agPH1226r1P6ocSt84owfrSJEs4uhvkddse5W4rkbgZTD7P_Fn_7zGRznqJ35QgYbaCMhaZM2KIsETF-cOSKRAp4tXmf1OM6OA2j_WNvbE_d1HGbxLcaSZLXhf6ZhFwZekJ1ImNYX40Nan49uOe9u2cuM-TFj69W6UXWHo_22DqmO66-mvDgWSZAdsYxToktoiuKpAOoILONA2MOlcyTBIICr9rSSjLlIJnnoRez6vaE5yXGmXG5W_PYzX8giQIfUCCEbo55h-kCM_ixMwt0XQvhZ0W8dL0DHqIg5mfo5MutAL-JpFCzMeKYgaWd-pz7F9oRnAlh2SUAlqjmBMiVOBBBdvQ_iPRbw3fLbVsU1dqLakekIo8iKCU1qwiry_folizdS1IL_PmPTu8s01Zt0tGE55maL_crH6mr6qdCNN-3Ge2tE2Ne4HQIRi8FaTqIni2aqb4mDKVOK_nR95UvWpx7QQRZ1-_9-0eBLE06ca4t071gyTQGT3k2-FUA-ynr5ecU9D8RnYi1nPDBjWqiGT-ZBH4gW0fpBhdxQ3eSZR2IfQ9SIpL9egY24lmrqFJAMZS5AEsBqE_ymvmmDjDwd_NIVqqbiTdVMu-cGEeYh2WFdZkPPZQTbolIGUN9fIyjLtzVLe4jNTl8K35Cu5wMK3mU9-ZZPc0KrAcLcWB73UUdDXCKkPIZffok5Ky2QyWD-M6ksMixjlobNn_8vCDRDUzuSD6KfHZcvMgMAyKMK_JpCwwQI1yJEiDimuJfHh0UdIEoTYCdKwQxPRPX1iHB-lVo9DP6lPu_Vf0XQKCqpU5Kf3A_0xtN33-zlOjj4tv5eIu4VSFM6mQP-OuF8yBQvtFITLNnd6SVsSOq-thGZxUDyCqFptgMaxFknbloitVsTEcCXnPwhMeDkYuBgnRwjWYRPcLJdk8vqsg25VmauyWz5lol-0m00]--></g></svg>