<?xml version="1.0" encoding="us-ascii" standalone="no"?><svg xmlns="http://www.w3.org/2000/svg" xmlns:xlink="http://www.w3.org/1999/xlink" contentStyleType="text/css" height="964px" preserveAspectRatio="none" style="width:2324px;height:964px;background:#FFFFFF;" version="1.1" viewBox="0 0 2324 964" width="2324px" zoomAndPan="magnify"><defs/><g><!--class ApplicationSession--><g id="elem_ApplicationSession"><rect codeLine="12" fill="#F1F1F1" height="85.2422" id="ApplicationSession" rx="2.5" ry="2.5" style="stroke:#181818;stroke-width:0.5;" width="151" x="2042" y="310.5"/><ellipse cx="2057" cy="326.5" fill="#ADD1B2" rx="11" ry="11" style="stroke:#181818;stroke-width:1.0;"/><path d="M2059.7656,322.375 Q2059.9219,322.1563 2060.1094,322.0469 Q2060.2969,321.9375 2060.5156,321.9375 Q2060.8906,321.9375 2061.125,322.2031 Q2061.3594,322.4531 2061.3594,323.0625 L2061.3594,324.5156 Q2061.3594,325.125 2061.125,325.3906 Q2060.8906,325.6563 2060.5156,325.6563 Q2060.1719,325.6563 2059.9688,325.4531 Q2059.7656,325.2656 2059.6563,324.75 Q2059.6094,324.3906 2059.4219,324.2031 Q2059.0938,323.8281 2058.4844,323.6094 Q2057.875,323.3906 2057.25,323.3906 Q2056.4844,323.3906 2055.8438,323.7188 Q2055.2188,324.0469 2054.7188,324.7969 Q2054.2344,325.5469 2054.2344,326.5781 L2054.2344,327.6719 Q2054.2344,328.9063 2055.125,329.7344 Q2056.0156,330.5469 2057.6094,330.5469 Q2058.5469,330.5469 2059.2031,330.2969 Q2059.5938,330.1406 2060.0156,329.7031 Q2060.2813,329.4375 2060.4219,329.3594 Q2060.5781,329.2813 2060.7813,329.2813 Q2061.1094,329.2813 2061.3594,329.5469 Q2061.625,329.7969 2061.625,330.1406 Q2061.625,330.4844 2061.2813,330.8906 Q2060.7813,331.4688 2059.9844,331.7969 Q2058.9063,332.25 2057.6094,332.25 Q2056.0938,332.25 2054.8906,331.625 Q2053.9063,331.125 2053.2188,330.0625 Q2052.5313,328.9844 2052.5313,327.7031 L2052.5313,326.5469 Q2052.5313,325.2188 2053.1406,324.0781 Q2053.7656,322.9219 2054.8594,322.3125 Q2055.9531,321.6875 2057.1875,321.6875 Q2057.9219,321.6875 2058.5625,321.8594 Q2059.2188,322.0156 2059.7656,322.375 Z " fill="#000000"/><text fill="#000000" font-family="sans-serif" font-size="14" lengthAdjust="spacing" textLength="119" x="2071" y="332.2969">ApplicationSession</text><line style="stroke:#181818;stroke-width:0.5;" x1="2043" x2="2192" y1="342.5" y2="342.5"/><line style="stroke:#181818;stroke-width:0.5;" x1="2043" x2="2192" y1="350.5" y2="350.5"/><text fill="#000000" font-family="sans-serif" font-size="14" lengthAdjust="spacing" textLength="128" x="2048" y="369.6074">+static getInstance()</text><text fill="#000000" font-family="sans-serif" font-size="14" lengthAdjust="spacing" textLength="136" x="2048" y="388.2285">+getCurrentSession()</text></g><!--class UserSession--><g id="elem_UserSession"><rect codeLine="18" fill="#F1F1F1" height="66.6211" id="UserSession" rx="2.5" ry="2.5" style="stroke:#181818;stroke-width:0.5;" width="113" x="2134" y="651.5"/><ellipse cx="2149.9" cy="667.5" fill="#ADD1B2" rx="11" ry="11" style="stroke:#181818;stroke-width:1.0;"/><path d="M2152.6656,663.375 Q2152.8219,663.1563 2153.0094,663.0469 Q2153.1969,662.9375 2153.4156,662.9375 Q2153.7906,662.9375 2154.025,663.2031 Q2154.2594,663.4531 2154.2594,664.0625 L2154.2594,665.5156 Q2154.2594,666.125 2154.025,666.3906 Q2153.7906,666.6563 2153.4156,666.6563 Q2153.0719,666.6563 2152.8688,666.4531 Q2152.6656,666.2656 2152.5563,665.75 Q2152.5094,665.3906 2152.3219,665.2031 Q2151.9938,664.8281 2151.3844,664.6094 Q2150.775,664.3906 2150.15,664.3906 Q2149.3844,664.3906 2148.7438,664.7188 Q2148.1188,665.0469 2147.6188,665.7969 Q2147.1344,666.5469 2147.1344,667.5781 L2147.1344,668.6719 Q2147.1344,669.9063 2148.025,670.7344 Q2148.9156,671.5469 2150.5094,671.5469 Q2151.4469,671.5469 2152.1031,671.2969 Q2152.4938,671.1406 2152.9156,670.7031 Q2153.1813,670.4375 2153.3219,670.3594 Q2153.4781,670.2813 2153.6813,670.2813 Q2154.0094,670.2813 2154.2594,670.5469 Q2154.525,670.7969 2154.525,671.1406 Q2154.525,671.4844 2154.1813,671.8906 Q2153.6813,672.4688 2152.8844,672.7969 Q2151.8063,673.25 2150.5094,673.25 Q2148.9938,673.25 2147.7906,672.625 Q2146.8063,672.125 2146.1188,671.0625 Q2145.4313,669.9844 2145.4313,668.7031 L2145.4313,667.5469 Q2145.4313,666.2188 2146.0406,665.0781 Q2146.6656,663.9219 2147.7594,663.3125 Q2148.8531,662.6875 2150.0875,662.6875 Q2150.8219,662.6875 2151.4625,662.8594 Q2152.1188,663.0156 2152.6656,663.375 Z " fill="#000000"/><text fill="#000000" font-family="sans-serif" font-size="14" lengthAdjust="spacing" textLength="79" x="2164.1" y="673.2969">UserSession</text><line style="stroke:#181818;stroke-width:0.5;" x1="2135" x2="2246" y1="683.5" y2="683.5"/><line style="stroke:#181818;stroke-width:0.5;" x1="2135" x2="2246" y1="691.5" y2="691.5"/><text fill="#000000" font-family="sans-serif" font-size="14" lengthAdjust="spacing" textLength="101" x="2140" y="710.6074">+getUserEmail()</text></g><!--class GreenSpace--><g id="elem_GreenSpace"><rect codeLine="23" fill="#F1F1F1" height="215.5898" id="GreenSpace" rx="2.5" ry="2.5" style="stroke:#181818;stroke-width:0.5;" width="493" x="499" y="577"/><ellipse cx="701.25" cy="593" fill="#ADD1B2" rx="11" ry="11" style="stroke:#181818;stroke-width:1.0;"/><path d="M704.0156,588.875 Q704.1719,588.6563 704.3594,588.5469 Q704.5469,588.4375 704.7656,588.4375 Q705.1406,588.4375 705.375,588.7031 Q705.6094,588.9531 705.6094,589.5625 L705.6094,591.0156 Q705.6094,591.625 705.375,591.8906 Q705.1406,592.1563 704.7656,592.1563 Q704.4219,592.1563 704.2188,591.9531 Q704.0156,591.7656 703.9063,591.25 Q703.8594,590.8906 703.6719,590.7031 Q703.3438,590.3281 702.7344,590.1094 Q702.125,589.8906 701.5,589.8906 Q700.7344,589.8906 700.0938,590.2188 Q699.4688,590.5469 698.9688,591.2969 Q698.4844,592.0469 698.4844,593.0781 L698.4844,594.1719 Q698.4844,595.4063 699.375,596.2344 Q700.2656,597.0469 701.8594,597.0469 Q702.7969,597.0469 703.4531,596.7969 Q703.8438,596.6406 704.2656,596.2031 Q704.5313,595.9375 704.6719,595.8594 Q704.8281,595.7813 705.0313,595.7813 Q705.3594,595.7813 705.6094,596.0469 Q705.875,596.2969 705.875,596.6406 Q705.875,596.9844 705.5313,597.3906 Q705.0313,597.9688 704.2344,598.2969 Q703.1563,598.75 701.8594,598.75 Q700.3438,598.75 699.1406,598.125 Q698.1563,597.625 697.4688,596.5625 Q696.7813,595.4844 696.7813,594.2031 L696.7813,593.0469 Q696.7813,591.7188 697.3906,590.5781 Q698.0156,589.4219 699.1094,588.8125 Q700.2031,588.1875 701.4375,588.1875 Q702.1719,588.1875 702.8125,588.3594 Q703.4688,588.5156 704.0156,588.875 Z " fill="#000000"/><text fill="#000000" font-family="sans-serif" font-size="14" lengthAdjust="spacing" textLength="80" x="721.75" y="598.7969">GreenSpace</text><line style="stroke:#181818;stroke-width:0.5;" x1="500" x2="991" y1="609" y2="609"/><text fill="#000000" font-family="sans-serif" font-size="14" lengthAdjust="spacing" textLength="85" x="505" y="628.1074">-name: String</text><text fill="#000000" font-family="sans-serif" font-size="14" lengthAdjust="spacing" textLength="85" x="505" y="646.7285">-area: double</text><text fill="#000000" font-family="sans-serif" font-size="14" lengthAdjust="spacing" textLength="152" x="505" y="665.3496">-type: GreenSpaceType</text><line style="stroke:#181818;stroke-width:0.5;" x1="500" x2="991" y1="672.8633" y2="672.8633"/><text fill="#000000" font-family="sans-serif" font-size="14" lengthAdjust="spacing" textLength="421" x="505" y="691.9707">+GreenSpace(name: String, area: double, type: GreenSpaceType)</text><text fill="#000000" font-family="sans-serif" font-size="14" lengthAdjust="spacing" textLength="481" x="505" y="710.5918">+registerGreenSpace(greenSpaceRepository: GreenSpaceRepository): void</text><text fill="#000000" font-family="sans-serif" font-size="14" lengthAdjust="spacing" textLength="119" x="505" y="729.2129">+getName(): String</text><text fill="#000000" font-family="sans-serif" font-size="14" lengthAdjust="spacing" textLength="119" x="505" y="747.834">+getArea(): double</text><text fill="#000000" font-family="sans-serif" font-size="14" lengthAdjust="spacing" textLength="190" x="505" y="766.4551">+getType(): GreenSpaceType</text><text fill="#000000" font-family="sans-serif" font-size="14" font-style="italic" lengthAdjust="spacing" textLength="138" x="505" y="785.0762">+displayDetails(): void</text></g><!--class Organization--><g id="elem_Organization"><rect codeLine="36" fill="#F1F1F1" height="290.0742" id="Organization" rx="2.5" ry="2.5" style="stroke:#181818;stroke-width:0.5;" width="1251" x="756" y="208"/><ellipse cx="1337.25" cy="224" fill="#ADD1B2" rx="11" ry="11" style="stroke:#181818;stroke-width:1.0;"/><path d="M1340.0156,219.875 Q1340.1719,219.6563 1340.3594,219.5469 Q1340.5469,219.4375 1340.7656,219.4375 Q1341.1406,219.4375 1341.375,219.7031 Q1341.6094,219.9531 1341.6094,220.5625 L1341.6094,222.0156 Q1341.6094,222.625 1341.375,222.8906 Q1341.1406,223.1563 1340.7656,223.1563 Q1340.4219,223.1563 1340.2188,222.9531 Q1340.0156,222.7656 1339.9063,222.25 Q1339.8594,221.8906 1339.6719,221.7031 Q1339.3438,221.3281 1338.7344,221.1094 Q1338.125,220.8906 1337.5,220.8906 Q1336.7344,220.8906 1336.0938,221.2188 Q1335.4688,221.5469 1334.9688,222.2969 Q1334.4844,223.0469 1334.4844,224.0781 L1334.4844,225.1719 Q1334.4844,226.4063 1335.375,227.2344 Q1336.2656,228.0469 1337.8594,228.0469 Q1338.7969,228.0469 1339.4531,227.7969 Q1339.8438,227.6406 1340.2656,227.2031 Q1340.5313,226.9375 1340.6719,226.8594 Q1340.8281,226.7813 1341.0313,226.7813 Q1341.3594,226.7813 1341.6094,227.0469 Q1341.875,227.2969 1341.875,227.6406 Q1341.875,227.9844 1341.5313,228.3906 Q1341.0313,228.9688 1340.2344,229.2969 Q1339.1563,229.75 1337.8594,229.75 Q1336.3438,229.75 1335.1406,229.125 Q1334.1563,228.625 1333.4688,227.5625 Q1332.7813,226.4844 1332.7813,225.2031 L1332.7813,224.0469 Q1332.7813,222.7188 1333.3906,221.5781 Q1334.0156,220.4219 1335.1094,219.8125 Q1336.2031,219.1875 1337.4375,219.1875 Q1338.1719,219.1875 1338.8125,219.3594 Q1339.4688,219.5156 1340.0156,219.875 Z " fill="#000000"/><text fill="#000000" font-family="sans-serif" font-size="14" lengthAdjust="spacing" textLength="80" x="1357.75" y="229.7969">Organization</text><line style="stroke:#181818;stroke-width:0.5;" x1="757" x2="2006" y1="240" y2="240"/><text fill="#000000" font-family="sans-serif" font-size="14" lengthAdjust="spacing" textLength="85" x="762" y="259.1074">-name: String</text><text fill="#000000" font-family="sans-serif" font-size="14" lengthAdjust="spacing" textLength="97" x="762" y="277.7285">-website: String</text><text fill="#000000" font-family="sans-serif" font-size="14" lengthAdjust="spacing" textLength="90" x="762" y="296.3496">-phone: String</text><text fill="#000000" font-family="sans-serif" font-size="14" lengthAdjust="spacing" textLength="83" x="762" y="314.9707">-email: String</text><text fill="#000000" font-family="sans-serif" font-size="14" lengthAdjust="spacing" textLength="118" x="762" y="333.5918">-vatNumber: String</text><text fill="#000000" font-family="sans-serif" font-size="14" lengthAdjust="spacing" textLength="177" x="762" y="352.2129">-List&lt;Employee&gt; employees</text><text fill="#000000" font-family="sans-serif" font-size="14" lengthAdjust="spacing" textLength="111" x="762" y="370.834">-List&lt;Task&gt; tasks</text><line style="stroke:#181818;stroke-width:0.5;" x1="757" x2="2006" y1="378.3477" y2="378.3477"/><text fill="#000000" font-family="sans-serif" font-size="14" lengthAdjust="spacing" textLength="211" x="762" y="397.4551">+Organization(vatNumber: String)</text><text fill="#000000" font-family="sans-serif" font-size="14" lengthAdjust="spacing" textLength="252" x="762" y="416.0762">+boolean employs(Employee employee)</text><text fill="#000000" font-family="sans-serif" font-size="14" lengthAdjust="spacing" textLength="1239" x="762" y="434.6973">+Optional&lt;Task&gt; createTask(String reference, String description, String informalDescription, String technicalDescription, int duration, double cost, TaskCategory taskCategory, Employee employee)</text><text fill="#000000" font-family="sans-serif" font-size="14" lengthAdjust="spacing" textLength="290" x="762" y="453.3184">+boolean anyEmployeeHasEmail(String email)</text><text fill="#000000" font-family="sans-serif" font-size="14" lengthAdjust="spacing" textLength="286" x="762" y="471.9395">+boolean addEmployee(Employee employee)</text><text fill="#000000" font-family="sans-serif" font-size="14" lengthAdjust="spacing" textLength="136" x="762" y="490.5605">+Organization clone()</text></g><!--class OrganizationRepository--><g id="elem_OrganizationRepository"><rect codeLine="53" fill="#F1F1F1" height="122.4844" id="OrganizationRepository" rx="2.5" ry="2.5" style="stroke:#181818;stroke-width:0.5;" width="488" x="232.5" y="292"/><ellipse cx="398.25" cy="308" fill="#ADD1B2" rx="11" ry="11" style="stroke:#181818;stroke-width:1.0;"/><path d="M401.0156,303.875 Q401.1719,303.6563 401.3594,303.5469 Q401.5469,303.4375 401.7656,303.4375 Q402.1406,303.4375 402.375,303.7031 Q402.6094,303.9531 402.6094,304.5625 L402.6094,306.0156 Q402.6094,306.625 402.375,306.8906 Q402.1406,307.1563 401.7656,307.1563 Q401.4219,307.1563 401.2188,306.9531 Q401.0156,306.7656 400.9063,306.25 Q400.8594,305.8906 400.6719,305.7031 Q400.3438,305.3281 399.7344,305.1094 Q399.125,304.8906 398.5,304.8906 Q397.7344,304.8906 397.0938,305.2188 Q396.4688,305.5469 395.9688,306.2969 Q395.4844,307.0469 395.4844,308.0781 L395.4844,309.1719 Q395.4844,310.4063 396.375,311.2344 Q397.2656,312.0469 398.8594,312.0469 Q399.7969,312.0469 400.4531,311.7969 Q400.8438,311.6406 401.2656,311.2031 Q401.5313,310.9375 401.6719,310.8594 Q401.8281,310.7813 402.0313,310.7813 Q402.3594,310.7813 402.6094,311.0469 Q402.875,311.2969 402.875,311.6406 Q402.875,311.9844 402.5313,312.3906 Q402.0313,312.9688 401.2344,313.2969 Q400.1563,313.75 398.8594,313.75 Q397.3438,313.75 396.1406,313.125 Q395.1563,312.625 394.4688,311.5625 Q393.7813,310.4844 393.7813,309.2031 L393.7813,308.0469 Q393.7813,306.7188 394.3906,305.5781 Q395.0156,304.4219 396.1094,303.8125 Q397.2031,303.1875 398.4375,303.1875 Q399.1719,303.1875 399.8125,303.3594 Q400.4688,303.5156 401.0156,303.875 Z " fill="#000000"/><text fill="#000000" font-family="sans-serif" font-size="14" lengthAdjust="spacing" textLength="148" x="418.75" y="313.7969">OrganizationRepository</text><line style="stroke:#181818;stroke-width:0.5;" x1="233.5" x2="719.5" y1="324" y2="324"/><text fill="#000000" font-family="sans-serif" font-size="14" lengthAdjust="spacing" textLength="211" x="238.5" y="343.1074">-List&lt;Organization&gt; organizations</text><line style="stroke:#181818;stroke-width:0.5;" x1="233.5" x2="719.5" y1="350.6211" y2="350.6211"/><text fill="#000000" font-family="sans-serif" font-size="14" lengthAdjust="spacing" textLength="476" x="238.5" y="369.7285">+Optional&lt;Organization&gt; getOrganizationByEmployee(Employee employee)</text><text fill="#000000" font-family="sans-serif" font-size="14" lengthAdjust="spacing" textLength="457" x="238.5" y="388.3496">+Optional&lt;Organization&gt; getOrganizationByEmployeeEmail(String email)</text><text fill="#000000" font-family="sans-serif" font-size="14" lengthAdjust="spacing" textLength="356" x="238.5" y="406.9707">+Optional&lt;Organization&gt; add(Organization organization)</text></g><!--class GreenSpaceRepository--><g id="elem_GreenSpaceRepository"><rect codeLine="61" fill="#F1F1F1" height="103.8633" id="GreenSpaceRepository" rx="2.5" ry="2.5" style="stroke:#181818;stroke-width:0.5;" width="333" x="44" y="854"/><ellipse cx="132.25" cy="870" fill="#ADD1B2" rx="11" ry="11" style="stroke:#181818;stroke-width:1.0;"/><path d="M135.0156,865.875 Q135.1719,865.6563 135.3594,865.5469 Q135.5469,865.4375 135.7656,865.4375 Q136.1406,865.4375 136.375,865.7031 Q136.6094,865.9531 136.6094,866.5625 L136.6094,868.0156 Q136.6094,868.625 136.375,868.8906 Q136.1406,869.1563 135.7656,869.1563 Q135.4219,869.1563 135.2188,868.9531 Q135.0156,868.7656 134.9063,868.25 Q134.8594,867.8906 134.6719,867.7031 Q134.3438,867.3281 133.7344,867.1094 Q133.125,866.8906 132.5,866.8906 Q131.7344,866.8906 131.0938,867.2188 Q130.4688,867.5469 129.9688,868.2969 Q129.4844,869.0469 129.4844,870.0781 L129.4844,871.1719 Q129.4844,872.4063 130.375,873.2344 Q131.2656,874.0469 132.8594,874.0469 Q133.7969,874.0469 134.4531,873.7969 Q134.8438,873.6406 135.2656,873.2031 Q135.5313,872.9375 135.6719,872.8594 Q135.8281,872.7813 136.0313,872.7813 Q136.3594,872.7813 136.6094,873.0469 Q136.875,873.2969 136.875,873.6406 Q136.875,873.9844 136.5313,874.3906 Q136.0313,874.9688 135.2344,875.2969 Q134.1563,875.75 132.8594,875.75 Q131.3438,875.75 130.1406,875.125 Q129.1563,874.625 128.4688,873.5625 Q127.7813,872.4844 127.7813,871.2031 L127.7813,870.0469 Q127.7813,868.7188 128.3906,867.5781 Q129.0156,866.4219 130.1094,865.8125 Q131.2031,865.1875 132.4375,865.1875 Q133.1719,865.1875 133.8125,865.3594 Q134.4688,865.5156 135.0156,865.875 Z " fill="#000000"/><text fill="#000000" font-family="sans-serif" font-size="14" lengthAdjust="spacing" textLength="148" x="152.75" y="875.7969">GreenSpaceRepository</text><line style="stroke:#181818;stroke-width:0.5;" x1="45" x2="376" y1="886" y2="886"/><text fill="#000000" font-family="sans-serif" font-size="14" lengthAdjust="spacing" textLength="215" x="50" y="905.1074">-greenSpaces: List&lt;GreenSpace&gt;</text><line style="stroke:#181818;stroke-width:0.5;" x1="45" x2="376" y1="912.6211" y2="912.6211"/><text fill="#000000" font-family="sans-serif" font-size="14" lengthAdjust="spacing" textLength="321" x="50" y="931.7285">+addGreenSpace(greenSpace: GreenSpace): void</text><text fill="#000000" font-family="sans-serif" font-size="14" lengthAdjust="spacing" textLength="251" x="50" y="950.3496">+getGreenSpaces(): List&lt;GreenSpace&gt;</text></g><!--class RegisterGreenSpaceController--><g id="elem_RegisterGreenSpaceController"><rect codeLine="68" fill="#F1F1F1" height="122.4844" id="RegisterGreenSpaceController" rx="2.5" ry="2.5" style="stroke:#181818;stroke-width:0.5;" width="526" x="1399.5" y="7"/><ellipse cx="1560.75" cy="23" fill="#ADD1B2" rx="11" ry="11" style="stroke:#181818;stroke-width:1.0;"/><path d="M1563.5156,18.875 Q1563.6719,18.6563 1563.8594,18.5469 Q1564.0469,18.4375 1564.2656,18.4375 Q1564.6406,18.4375 1564.875,18.7031 Q1565.1094,18.9531 1565.1094,19.5625 L1565.1094,21.0156 Q1565.1094,21.625 1564.875,21.8906 Q1564.6406,22.1563 1564.2656,22.1563 Q1563.9219,22.1563 1563.7188,21.9531 Q1563.5156,21.7656 1563.4063,21.25 Q1563.3594,20.8906 1563.1719,20.7031 Q1562.8438,20.3281 1562.2344,20.1094 Q1561.625,19.8906 1561,19.8906 Q1560.2344,19.8906 1559.5938,20.2188 Q1558.9688,20.5469 1558.4688,21.2969 Q1557.9844,22.0469 1557.9844,23.0781 L1557.9844,24.1719 Q1557.9844,25.4063 1558.875,26.2344 Q1559.7656,27.0469 1561.3594,27.0469 Q1562.2969,27.0469 1562.9531,26.7969 Q1563.3438,26.6406 1563.7656,26.2031 Q1564.0313,25.9375 1564.1719,25.8594 Q1564.3281,25.7813 1564.5313,25.7813 Q1564.8594,25.7813 1565.1094,26.0469 Q1565.375,26.2969 1565.375,26.6406 Q1565.375,26.9844 1565.0313,27.3906 Q1564.5313,27.9688 1563.7344,28.2969 Q1562.6563,28.75 1561.3594,28.75 Q1559.8438,28.75 1558.6406,28.125 Q1557.6563,27.625 1556.9688,26.5625 Q1556.2813,25.4844 1556.2813,24.2031 L1556.2813,23.0469 Q1556.2813,21.7188 1556.8906,20.5781 Q1557.5156,19.4219 1558.6094,18.8125 Q1559.7031,18.1875 1560.9375,18.1875 Q1561.6719,18.1875 1562.3125,18.3594 Q1562.9688,18.5156 1563.5156,18.875 Z " fill="#000000"/><text fill="#000000" font-family="sans-serif" font-size="14" lengthAdjust="spacing" textLength="195" x="1581.25" y="28.7969">RegisterGreenSpaceController</text><line style="stroke:#181818;stroke-width:0.5;" x1="1400.5" x2="1924.5" y1="39" y2="39"/><text fill="#000000" font-family="sans-serif" font-size="14" lengthAdjust="spacing" textLength="306" x="1405.5" y="58.1074">-greenSpaceRepository: GreenSpaceRepository</text><line style="stroke:#181818;stroke-width:0.5;" x1="1400.5" x2="1924.5" y1="65.6211" y2="65.6211"/><text fill="#000000" font-family="sans-serif" font-size="14" lengthAdjust="spacing" textLength="514" x="1405.5" y="84.7285">+RegisterGreenSpaceController(greenSpaceRepository: GreenSpaceRepository)</text><text fill="#000000" font-family="sans-serif" font-size="14" lengthAdjust="spacing" textLength="345" x="1405.5" y="103.3496">+registerGreenSpace(greenSpace: GreenSpace): void</text><text fill="#000000" font-family="sans-serif" font-size="14" lengthAdjust="spacing" textLength="266" x="1405.5" y="121.9707">+getAllGreenSpaces(): List&lt;GreenSpace&gt;</text></g><!--class Repositories--><g id="elem_Repositories"><rect fill="#F1F1F1" height="48" id="Repositories" rx="2.5" ry="2.5" style="stroke:#181818;stroke-width:0.5;" width="111" x="7" y="329"/><ellipse cx="22" cy="345" fill="#ADD1B2" rx="11" ry="11" style="stroke:#181818;stroke-width:1.0;"/><path d="M24.7656,340.875 Q24.9219,340.6563 25.1094,340.5469 Q25.2969,340.4375 25.5156,340.4375 Q25.8906,340.4375 26.125,340.7031 Q26.3594,340.9531 26.3594,341.5625 L26.3594,343.0156 Q26.3594,343.625 26.125,343.8906 Q25.8906,344.1563 25.5156,344.1563 Q25.1719,344.1563 24.9688,343.9531 Q24.7656,343.7656 24.6563,343.25 Q24.6094,342.8906 24.4219,342.7031 Q24.0938,342.3281 23.4844,342.1094 Q22.875,341.8906 22.25,341.8906 Q21.4844,341.8906 20.8438,342.2188 Q20.2188,342.5469 19.7188,343.2969 Q19.2344,344.0469 19.2344,345.0781 L19.2344,346.1719 Q19.2344,347.4063 20.125,348.2344 Q21.0156,349.0469 22.6094,349.0469 Q23.5469,349.0469 24.2031,348.7969 Q24.5938,348.6406 25.0156,348.2031 Q25.2813,347.9375 25.4219,347.8594 Q25.5781,347.7813 25.7813,347.7813 Q26.1094,347.7813 26.3594,348.0469 Q26.625,348.2969 26.625,348.6406 Q26.625,348.9844 26.2813,349.3906 Q25.7813,349.9688 24.9844,350.2969 Q23.9063,350.75 22.6094,350.75 Q21.0938,350.75 19.8906,350.125 Q18.9063,349.625 18.2188,348.5625 Q17.5313,347.4844 17.5313,346.2031 L17.5313,345.0469 Q17.5313,343.7188 18.1406,342.5781 Q18.7656,341.4219 19.8594,340.8125 Q20.9531,340.1875 22.1875,340.1875 Q22.9219,340.1875 23.5625,340.3594 Q24.2188,340.5156 24.7656,340.875 Z " fill="#000000"/><text fill="#000000" font-family="sans-serif" font-size="14" lengthAdjust="spacing" textLength="79" x="36" y="350.7969">Repositories</text><line style="stroke:#181818;stroke-width:0.5;" x1="8" x2="117" y1="361" y2="361"/><line style="stroke:#181818;stroke-width:0.5;" x1="8" x2="117" y1="369" y2="369"/></g><!--class RegisterGreenSpaceUI--><g id="elem_RegisterGreenSpaceUI"><rect fill="#F1F1F1" height="48" id="RegisterGreenSpaceUI" rx="2.5" ry="2.5" style="stroke:#181818;stroke-width:0.5;" width="177" x="1187" y="44"/><ellipse cx="1202" cy="60" fill="#ADD1B2" rx="11" ry="11" style="stroke:#181818;stroke-width:1.0;"/><path d="M1204.7656,55.875 Q1204.9219,55.6563 1205.1094,55.5469 Q1205.2969,55.4375 1205.5156,55.4375 Q1205.8906,55.4375 1206.125,55.7031 Q1206.3594,55.9531 1206.3594,56.5625 L1206.3594,58.0156 Q1206.3594,58.625 1206.125,58.8906 Q1205.8906,59.1563 1205.5156,59.1563 Q1205.1719,59.1563 1204.9688,58.9531 Q1204.7656,58.7656 1204.6563,58.25 Q1204.6094,57.8906 1204.4219,57.7031 Q1204.0938,57.3281 1203.4844,57.1094 Q1202.875,56.8906 1202.25,56.8906 Q1201.4844,56.8906 1200.8438,57.2188 Q1200.2188,57.5469 1199.7188,58.2969 Q1199.2344,59.0469 1199.2344,60.0781 L1199.2344,61.1719 Q1199.2344,62.4063 1200.125,63.2344 Q1201.0156,64.0469 1202.6094,64.0469 Q1203.5469,64.0469 1204.2031,63.7969 Q1204.5938,63.6406 1205.0156,63.2031 Q1205.2813,62.9375 1205.4219,62.8594 Q1205.5781,62.7813 1205.7813,62.7813 Q1206.1094,62.7813 1206.3594,63.0469 Q1206.625,63.2969 1206.625,63.6406 Q1206.625,63.9844 1206.2813,64.3906 Q1205.7813,64.9688 1204.9844,65.2969 Q1203.9063,65.75 1202.6094,65.75 Q1201.0938,65.75 1199.8906,65.125 Q1198.9063,64.625 1198.2188,63.5625 Q1197.5313,62.4844 1197.5313,61.2031 L1197.5313,60.0469 Q1197.5313,58.7188 1198.1406,57.5781 Q1198.7656,56.4219 1199.8594,55.8125 Q1200.9531,55.1875 1202.1875,55.1875 Q1202.9219,55.1875 1203.5625,55.3594 Q1204.2188,55.5156 1204.7656,55.875 Z " fill="#000000"/><text fill="#000000" font-family="sans-serif" font-size="14" lengthAdjust="spacing" textLength="145" x="1216" y="65.7969">RegisterGreenSpaceUI</text><line style="stroke:#181818;stroke-width:0.5;" x1="1188" x2="1363" y1="76" y2="76"/><line style="stroke:#181818;stroke-width:0.5;" x1="1188" x2="1363" y1="84" y2="84"/></g><!--link ApplicationSession to UserSession--><g id="link_ApplicationSession_UserSession"><path codeLine="77" d="M2121.8,395.78 C2126.32,435.12 2134.45,495.53 2146.5,547 C2155.01,583.36 2166.5722,618.3295 2176.3922,645.8295 " fill="none" id="ApplicationSession-to-UserSession" style="stroke:#181818;stroke-width:1.0;"/><polygon fill="#181818" points="2178.41,651.48,2179.1504,641.659,2176.7285,646.7712,2171.6163,644.3494,2178.41,651.48" style="stroke:#181818;stroke-width:1.0;"/><text fill="#000000" font-family="sans-serif" font-size="13" lengthAdjust="spacing" textLength="72" x="2147.5" y="543.0283">userSession</text><text fill="#000000" font-family="sans-serif" font-size="13" lengthAdjust="spacing" textLength="7" x="2168.3407" y="640.3016">1</text></g><!--link RegisterGreenSpaceController to ApplicationSession--><g id="link_RegisterGreenSpaceController_ApplicationSession"><path codeLine="79" d="M1885.04,129.14 C1934.21,149.07 1983.74,174.9 2024.5,208 C2058.23,235.39 2081.0912,272.9863 2096.7812,304.8763 " fill="none" id="RegisterGreenSpaceController-to-ApplicationSession" style="stroke:#181818;stroke-width:1.0;stroke-dasharray:7.0,7.0;"/><polygon fill="#181818" points="2099.43,310.26,2099.0459,300.4186,2097.2227,305.7736,2091.8677,303.9503,2099.43,310.26" style="stroke:#181818;stroke-width:1.0;"/></g><!--link RegisterGreenSpaceController to UserSession--><g id="link_RegisterGreenSpaceController_UserSession"><path codeLine="80" d="M1925.81,105.42 C2047.26,128.02 2172.83,161.7 2210.5,208 C2317.91,340 2242.0446,561.7461 2207.2146,645.8961 " fill="none" id="RegisterGreenSpaceController-to-UserSession" style="stroke:#181818;stroke-width:1.0;stroke-dasharray:7.0,7.0;"/><polygon fill="#181818" points="2204.92,651.44,2212.0579,644.6539,2206.8322,646.8201,2204.666,641.5944,2204.92,651.44" style="stroke:#181818;stroke-width:1.0;"/></g><!--link Repositories to Repositories--><g id="link_Repositories_Repositories"><path codeLine="82" d="M86.6,328.82 C116.91,309.36 153,317.42 153,353 C153,388.58 121.959,399.8816 91.649,380.4216 " fill="none" id="Repositories-to-Repositories" style="stroke:#181818;stroke-width:1.0;"/><polygon fill="#181818" points="86.6,377.18,92.0124,385.4084,90.8075,379.8813,96.3345,378.6764,86.6,377.18" style="stroke:#181818;stroke-width:1.0;"/><text fill="#000000" font-family="sans-serif" font-size="13" lengthAdjust="spacing" textLength="49" x="159" y="358.5283">instance</text></g><!--link RegisterGreenSpaceUI to RegisterGreenSpaceController--><g id="link_RegisterGreenSpaceUI_RegisterGreenSpaceController"><path codeLine="84" d="M1364.31,68 C1375.96,68 1381.61,68 1393.26,68 " fill="none" id="RegisterGreenSpaceUI-to-RegisterGreenSpaceController" style="stroke:#181818;stroke-width:1.0;stroke-dasharray:7.0,7.0;"/><polygon fill="#181818" points="1399.26,68,1390.26,64,1394.26,68,1390.26,72,1399.26,68" style="stroke:#181818;stroke-width:1.0;"/></g><!--link RegisterGreenSpaceController to Repositories--><g id="link_RegisterGreenSpaceController_Repositories"><path codeLine="86" d="M1399.45,126.36 C1393.42,127.29 1387.43,128.17 1381.5,129 C1124.08,165.01 452.57,103.68 214.5,208 C154.24,234.41 106.7735,290.6328 82.0435,324.1328 " fill="none" id="RegisterGreenSpaceController-to-Repositories" style="stroke:#181818;stroke-width:1.0;stroke-dasharray:7.0,7.0;"/><polygon fill="#181818" points="78.48,328.96,87.0433,324.0949,81.4496,324.9373,80.6071,319.3436,78.48,328.96" style="stroke:#181818;stroke-width:1.0;"/><text fill="#000000" font-family="sans-serif" font-size="13" lengthAdjust="spacing" textLength="67" x="427.5" y="174.0283">repositories</text></g><!--link Repositories to GreenSpaceRepository--><g id="link_Repositories_GreenSpaceRepository"><path codeLine="88" d="M68.76,377.32 C90.88,459.67 164.0833,732.2055 195.1933,848.0055 " fill="none" id="Repositories-to-GreenSpaceRepository" style="stroke:#181818;stroke-width:1.0;"/><polygon fill="#181818" points="196.75,853.8,198.2779,844.0704,195.4527,848.9712,190.5519,846.146,196.75,853.8" style="stroke:#181818;stroke-width:1.0;"/><text fill="#000000" font-family="sans-serif" font-size="13" lengthAdjust="spacing" textLength="7" x="187.432" y="842.7005">1</text></g><!--link Repositories to OrganizationRepository--><g id="link_Repositories_OrganizationRepository"><path codeLine="89" d="M118.29,353 C156.31,353 188.32,353 226.33,353 " fill="none" id="Repositories-to-OrganizationRepository" style="stroke:#181818;stroke-width:1.0;"/><polygon fill="#181818" points="232.33,353,223.33,349,227.33,353,223.33,357,232.33,353" style="stroke:#181818;stroke-width:1.0;"/></g><!--link OrganizationRepository to Organization--><g id="link_OrganizationRepository_Organization"><path codeLine="90" d="M720.87,353 C732.48,353 738.09,353 749.71,353 " fill="none" id="OrganizationRepository-to-Organization" style="stroke:#181818;stroke-width:1.0;"/><polygon fill="#181818" points="755.71,353,746.71,349,750.71,353,746.71,357,755.71,353" style="stroke:#181818;stroke-width:1.0;"/></g><!--link Organization to GreenSpace--><g id="link_Organization_GreenSpace"><path codeLine="92" d="M1103.93,498.02 C1052.92,524.49 1005.8257,548.9266 957.3557,574.0766 " fill="none" id="Organization-to-GreenSpace" style="stroke:#181818;stroke-width:1.0;stroke-dasharray:7.0,7.0;"/><polygon fill="#181818" points="952.03,576.84,961.8609,576.2454,956.4681,574.5372,958.1763,569.1444,952.03,576.84" style="stroke:#181818;stroke-width:1.0;"/><text fill="#000000" font-family="sans-serif" font-size="13" lengthAdjust="spacing" textLength="43" x="1045.5" y="543.0283">creates</text></g><!--link RegisterGreenSpaceController to Organization--><g id="link_RegisterGreenSpaceController_Organization"><path codeLine="93" d="M1602.91,129.02 C1579.79,152.3 1556.4681,175.7929 1528.7781,203.6729 " fill="none" id="RegisterGreenSpaceController-to-Organization" style="stroke:#181818;stroke-width:1.0;stroke-dasharray:7.0,7.0;"/><polygon fill="#181818" points="1524.55,207.93,1533.7302,204.3631,1528.0734,204.3824,1528.0541,198.7256,1524.55,207.93" style="stroke:#181818;stroke-width:1.0;"/></g><!--reverse link GreenSpace to GreenSpaceRepository--><g id="link_GreenSpace_GreenSpaceRepository"><path codeLine="95" d="M493.1969,789.2823 C436.4769,812.4923 384.06,833.96 335.11,853.99 " fill="none" id="GreenSpace-backto-GreenSpaceRepository" style="stroke:#181818;stroke-width:1.0;stroke-dasharray:7.0,7.0;"/><polygon fill="#181818" points="498.75,787.01,488.9055,786.7165,494.1224,788.9036,491.9353,794.1205,498.75,787.01" style="stroke:#181818;stroke-width:1.0;"/></g><!--SRC=[bLRRJkCm47tFLrYy4BIbsdsDKAGke5sa5KWKFi1rfgc5OqUs0mg8Vzzn4ZVEfItmWE8pzpFZSS_D2vSbrRGWXPAAxRGgW5XTGTHBIifUQ0vhMmiW6fYbCXUXWjdHJBrncPCj5IQK22x1rYMGKedQ7UPaIbiL1G8cg34hQpNVL1Rkc99h_WxaPnIT2zXQOXNHFDzPad6N3LSoYXeRiYfBmHbrq1gCSPAFYE3V3s8imepaOEyaVai6yKKdGkowqXgaxOnGykbTFXlGOrzeuE3RWd8HwlxH07ADT05fLI-9f0KaP8sroBo3g0QQa4nL6oInXHmDIM3-XEUe2zQZSUXiCV2pc7NX2zIGSsD11wxo_USZbCfmgtGTclVeHK9U5S_wqkynY_XYK5I3hp0VXmULDRZBnE6ZyfpyWswCrPJPJrJDk2a5hM_08gqczd7tx3xed4h-tdJt6BzliC7CnsYvKtACWMlW27kbzhugDg17-3zayEgsA8Mg0L8qRRzCA7wYvYKb5lyRtxqmwNZYspTeevG0AZkl9lPnzc6yuaFf757HXM98kGNt7RSEiTLRm4bcE14Tae5XcZTsUupBhT855JSpCWji9_4I3OLSudMhD6rFROi9KyOkY0j_ZMdaE2nDyVwm80Vhy0LJMNkTlzIq5whBesdEH3_BlFuHai91OGBx7bxIKDfF-NwWcaQ6EYdkf_xKDzPtOgYBynu2l-ilfFjDJuTPEk09IOi7d8G5pQwl6LxwXM6IbgHUFVMaOAJP7HDU_ia-wKNDfP_utkVtE5bZrqfQhOG0FPFdgSNcapxczZjxyYlBzYWHAo6-m4KqVUJ8vMLApdwTXOyLIKWLF5tHKVAMotJkxJnfypoCq571mH1CQ71ES8Eqp-vSAiztP9aURSIf0YRXT72SvkR8cfs9iUByjeWEB96HGJJGQnWBVY8atVesftaUEWryN2sNytNy1m00]--></g></svg>