<?xml version="1.0" encoding="us-ascii" standalone="no"?><svg xmlns="http://www.w3.org/2000/svg" xmlns:xlink="http://www.w3.org/1999/xlink" contentStyleType="text/css" height="990px" preserveAspectRatio="none" style="width:939px;height:990px;background:#FFFFFF;" version="1.1" viewBox="0 0 939 990" width="939px" zoomAndPan="magnify"><defs/><g><!--class ApplicationSession--><g id="elem_ApplicationSession"><rect codeLine="12" fill="#F1F1F1" height="85.2422" id="ApplicationSession" rx="2.5" ry="2.5" style="stroke:#181818;stroke-width:0.5;" width="151" x="658.5" y="246.5"/><ellipse cx="673.5" cy="262.5" fill="#ADD1B2" rx="11" ry="11" style="stroke:#181818;stroke-width:1.0;"/><path d="M676.2656,258.375 Q676.4219,258.1563 676.6094,258.0469 Q676.7969,257.9375 677.0156,257.9375 Q677.3906,257.9375 677.625,258.2031 Q677.8594,258.4531 677.8594,259.0625 L677.8594,260.5156 Q677.8594,261.125 677.625,261.3906 Q677.3906,261.6563 677.0156,261.6563 Q676.6719,261.6563 676.4688,261.4531 Q676.2656,261.2656 676.1563,260.75 Q676.1094,260.3906 675.9219,260.2031 Q675.5938,259.8281 674.9844,259.6094 Q674.375,259.3906 673.75,259.3906 Q672.9844,259.3906 672.3438,259.7188 Q671.7188,260.0469 671.2188,260.7969 Q670.7344,261.5469 670.7344,262.5781 L670.7344,263.6719 Q670.7344,264.9063 671.625,265.7344 Q672.5156,266.5469 674.1094,266.5469 Q675.0469,266.5469 675.7031,266.2969 Q676.0938,266.1406 676.5156,265.7031 Q676.7813,265.4375 676.9219,265.3594 Q677.0781,265.2813 677.2813,265.2813 Q677.6094,265.2813 677.8594,265.5469 Q678.125,265.7969 678.125,266.1406 Q678.125,266.4844 677.7813,266.8906 Q677.2813,267.4688 676.4844,267.7969 Q675.4063,268.25 674.1094,268.25 Q672.5938,268.25 671.3906,267.625 Q670.4063,267.125 669.7188,266.0625 Q669.0313,264.9844 669.0313,263.7031 L669.0313,262.5469 Q669.0313,261.2188 669.6406,260.0781 Q670.2656,258.9219 671.3594,258.3125 Q672.4531,257.6875 673.6875,257.6875 Q674.4219,257.6875 675.0625,257.8594 Q675.7188,258.0156 676.2656,258.375 Z " fill="#000000"/><text fill="#000000" font-family="sans-serif" font-size="14" lengthAdjust="spacing" textLength="119" x="687.5" y="268.2969">ApplicationSession</text><line style="stroke:#181818;stroke-width:0.5;" x1="659.5" x2="808.5" y1="278.5" y2="278.5"/><line style="stroke:#181818;stroke-width:0.5;" x1="659.5" x2="808.5" y1="286.5" y2="286.5"/><text fill="#000000" font-family="sans-serif" font-size="14" lengthAdjust="spacing" textLength="128" x="664.5" y="305.6074">+static getInstance()</text><text fill="#000000" font-family="sans-serif" font-size="14" lengthAdjust="spacing" textLength="136" x="664.5" y="324.2285">+getCurrentSession()</text></g><!--class UserSession--><g id="elem_UserSession"><rect codeLine="18" fill="#F1F1F1" height="66.6211" id="UserSession" rx="2.5" ry="2.5" style="stroke:#181818;stroke-width:0.5;" width="113" x="765.5" y="494.5"/><ellipse cx="781.4" cy="510.5" fill="#ADD1B2" rx="11" ry="11" style="stroke:#181818;stroke-width:1.0;"/><path d="M784.1656,506.375 Q784.3219,506.1563 784.5094,506.0469 Q784.6969,505.9375 784.9156,505.9375 Q785.2906,505.9375 785.525,506.2031 Q785.7594,506.4531 785.7594,507.0625 L785.7594,508.5156 Q785.7594,509.125 785.525,509.3906 Q785.2906,509.6563 784.9156,509.6563 Q784.5719,509.6563 784.3688,509.4531 Q784.1656,509.2656 784.0563,508.75 Q784.0094,508.3906 783.8219,508.2031 Q783.4938,507.8281 782.8844,507.6094 Q782.275,507.3906 781.65,507.3906 Q780.8844,507.3906 780.2438,507.7188 Q779.6188,508.0469 779.1188,508.7969 Q778.6344,509.5469 778.6344,510.5781 L778.6344,511.6719 Q778.6344,512.9063 779.525,513.7344 Q780.4156,514.5469 782.0094,514.5469 Q782.9469,514.5469 783.6031,514.2969 Q783.9938,514.1406 784.4156,513.7031 Q784.6813,513.4375 784.8219,513.3594 Q784.9781,513.2813 785.1813,513.2813 Q785.5094,513.2813 785.7594,513.5469 Q786.025,513.7969 786.025,514.1406 Q786.025,514.4844 785.6813,514.8906 Q785.1813,515.4688 784.3844,515.7969 Q783.3063,516.25 782.0094,516.25 Q780.4938,516.25 779.2906,515.625 Q778.3063,515.125 777.6188,514.0625 Q776.9313,512.9844 776.9313,511.7031 L776.9313,510.5469 Q776.9313,509.2188 777.5406,508.0781 Q778.1656,506.9219 779.2594,506.3125 Q780.3531,505.6875 781.5875,505.6875 Q782.3219,505.6875 782.9625,505.8594 Q783.6188,506.0156 784.1656,506.375 Z " fill="#000000"/><text fill="#000000" font-family="sans-serif" font-size="14" lengthAdjust="spacing" textLength="79" x="795.6" y="516.2969">UserSession</text><line style="stroke:#181818;stroke-width:0.5;" x1="766.5" x2="877.5" y1="526.5" y2="526.5"/><line style="stroke:#181818;stroke-width:0.5;" x1="766.5" x2="877.5" y1="534.5" y2="534.5"/><text fill="#000000" font-family="sans-serif" font-size="14" lengthAdjust="spacing" textLength="101" x="771.5" y="553.6074">+getUserEmail()</text></g><!--class GreenSpace--><g id="elem_GreenSpace"><rect codeLine="23" fill="#F1F1F1" height="215.5898" id="GreenSpace" rx="2.5" ry="2.5" style="stroke:#181818;stroke-width:0.5;" width="493" x="196.5" y="420"/><ellipse cx="398.75" cy="436" fill="#ADD1B2" rx="11" ry="11" style="stroke:#181818;stroke-width:1.0;"/><path d="M401.5156,431.875 Q401.6719,431.6563 401.8594,431.5469 Q402.0469,431.4375 402.2656,431.4375 Q402.6406,431.4375 402.875,431.7031 Q403.1094,431.9531 403.1094,432.5625 L403.1094,434.0156 Q403.1094,434.625 402.875,434.8906 Q402.6406,435.1563 402.2656,435.1563 Q401.9219,435.1563 401.7188,434.9531 Q401.5156,434.7656 401.4063,434.25 Q401.3594,433.8906 401.1719,433.7031 Q400.8438,433.3281 400.2344,433.1094 Q399.625,432.8906 399,432.8906 Q398.2344,432.8906 397.5938,433.2188 Q396.9688,433.5469 396.4688,434.2969 Q395.9844,435.0469 395.9844,436.0781 L395.9844,437.1719 Q395.9844,438.4063 396.875,439.2344 Q397.7656,440.0469 399.3594,440.0469 Q400.2969,440.0469 400.9531,439.7969 Q401.3438,439.6406 401.7656,439.2031 Q402.0313,438.9375 402.1719,438.8594 Q402.3281,438.7813 402.5313,438.7813 Q402.8594,438.7813 403.1094,439.0469 Q403.375,439.2969 403.375,439.6406 Q403.375,439.9844 403.0313,440.3906 Q402.5313,440.9688 401.7344,441.2969 Q400.6563,441.75 399.3594,441.75 Q397.8438,441.75 396.6406,441.125 Q395.6563,440.625 394.9688,439.5625 Q394.2813,438.4844 394.2813,437.2031 L394.2813,436.0469 Q394.2813,434.7188 394.8906,433.5781 Q395.5156,432.4219 396.6094,431.8125 Q397.7031,431.1875 398.9375,431.1875 Q399.6719,431.1875 400.3125,431.3594 Q400.9688,431.5156 401.5156,431.875 Z " fill="#000000"/><text fill="#000000" font-family="sans-serif" font-size="14" lengthAdjust="spacing" textLength="80" x="419.25" y="441.7969">GreenSpace</text><line style="stroke:#181818;stroke-width:0.5;" x1="197.5" x2="688.5" y1="452" y2="452"/><text fill="#000000" font-family="sans-serif" font-size="14" lengthAdjust="spacing" textLength="85" x="202.5" y="471.1074">-name: String</text><text fill="#000000" font-family="sans-serif" font-size="14" lengthAdjust="spacing" textLength="85" x="202.5" y="489.7285">-area: double</text><text fill="#000000" font-family="sans-serif" font-size="14" lengthAdjust="spacing" textLength="152" x="202.5" y="508.3496">-type: GreenSpaceType</text><line style="stroke:#181818;stroke-width:0.5;" x1="197.5" x2="688.5" y1="515.8633" y2="515.8633"/><text fill="#000000" font-family="sans-serif" font-size="14" lengthAdjust="spacing" textLength="421" x="202.5" y="534.9707">+GreenSpace(name: String, area: double, type: GreenSpaceType)</text><text fill="#000000" font-family="sans-serif" font-size="14" lengthAdjust="spacing" textLength="481" x="202.5" y="553.5918">+registerGreenSpace(greenSpaceRepository: GreenSpaceRepository): void</text><text fill="#000000" font-family="sans-serif" font-size="14" lengthAdjust="spacing" textLength="119" x="202.5" y="572.2129">+getName(): String</text><text fill="#000000" font-family="sans-serif" font-size="14" lengthAdjust="spacing" textLength="119" x="202.5" y="590.834">+getArea(): double</text><text fill="#000000" font-family="sans-serif" font-size="14" lengthAdjust="spacing" textLength="190" x="202.5" y="609.4551">+getType(): GreenSpaceType</text><text fill="#000000" font-family="sans-serif" font-size="14" font-style="italic" lengthAdjust="spacing" textLength="138" x="202.5" y="628.0762">+displayDetails(): void</text></g><!--class Garden--><g id="elem_Garden"><rect codeLine="36" fill="#F1F1F1" height="85.2422" id="Garden" rx="2.5" ry="2.5" style="stroke:#181818;stroke-width:0.5;" width="246" x="7" y="898"/><ellipse cx="101.75" cy="914" fill="#ADD1B2" rx="11" ry="11" style="stroke:#181818;stroke-width:1.0;"/><path d="M104.5156,909.875 Q104.6719,909.6563 104.8594,909.5469 Q105.0469,909.4375 105.2656,909.4375 Q105.6406,909.4375 105.875,909.7031 Q106.1094,909.9531 106.1094,910.5625 L106.1094,912.0156 Q106.1094,912.625 105.875,912.8906 Q105.6406,913.1563 105.2656,913.1563 Q104.9219,913.1563 104.7188,912.9531 Q104.5156,912.7656 104.4063,912.25 Q104.3594,911.8906 104.1719,911.7031 Q103.8438,911.3281 103.2344,911.1094 Q102.625,910.8906 102,910.8906 Q101.2344,910.8906 100.5938,911.2188 Q99.9688,911.5469 99.4688,912.2969 Q98.9844,913.0469 98.9844,914.0781 L98.9844,915.1719 Q98.9844,916.4063 99.875,917.2344 Q100.7656,918.0469 102.3594,918.0469 Q103.2969,918.0469 103.9531,917.7969 Q104.3438,917.6406 104.7656,917.2031 Q105.0313,916.9375 105.1719,916.8594 Q105.3281,916.7813 105.5313,916.7813 Q105.8594,916.7813 106.1094,917.0469 Q106.375,917.2969 106.375,917.6406 Q106.375,917.9844 106.0313,918.3906 Q105.5313,918.9688 104.7344,919.2969 Q103.6563,919.75 102.3594,919.75 Q100.8438,919.75 99.6406,919.125 Q98.6563,918.625 97.9688,917.5625 Q97.2813,916.4844 97.2813,915.2031 L97.2813,914.0469 Q97.2813,912.7188 97.8906,911.5781 Q98.5156,910.4219 99.6094,909.8125 Q100.7031,909.1875 101.9375,909.1875 Q102.6719,909.1875 103.3125,909.3594 Q103.9688,909.5156 104.5156,909.875 Z " fill="#000000"/><text fill="#000000" font-family="sans-serif" font-size="14" lengthAdjust="spacing" textLength="48" x="122.25" y="919.7969">Garden</text><line style="stroke:#181818;stroke-width:0.5;" x1="8" x2="252" y1="930" y2="930"/><line style="stroke:#181818;stroke-width:0.5;" x1="8" x2="252" y1="938" y2="938"/><text fill="#000000" font-family="sans-serif" font-size="14" lengthAdjust="spacing" textLength="234" x="13" y="957.1074">+Garden(name: String, area: double)</text><text fill="#000000" font-family="sans-serif" font-size="14" lengthAdjust="spacing" textLength="139" x="13" y="975.7285">+displayDetails(): void</text></g><!--class MediumSizedPark--><g id="elem_MediumSizedPark"><rect codeLine="41" fill="#F1F1F1" height="85.2422" id="MediumSizedPark" rx="2.5" ry="2.5" style="stroke:#181818;stroke-width:0.5;" width="310" x="288" y="898"/><ellipse cx="382.75" cy="914" fill="#ADD1B2" rx="11" ry="11" style="stroke:#181818;stroke-width:1.0;"/><path d="M385.5156,909.875 Q385.6719,909.6563 385.8594,909.5469 Q386.0469,909.4375 386.2656,909.4375 Q386.6406,909.4375 386.875,909.7031 Q387.1094,909.9531 387.1094,910.5625 L387.1094,912.0156 Q387.1094,912.625 386.875,912.8906 Q386.6406,913.1563 386.2656,913.1563 Q385.9219,913.1563 385.7188,912.9531 Q385.5156,912.7656 385.4063,912.25 Q385.3594,911.8906 385.1719,911.7031 Q384.8438,911.3281 384.2344,911.1094 Q383.625,910.8906 383,910.8906 Q382.2344,910.8906 381.5938,911.2188 Q380.9688,911.5469 380.4688,912.2969 Q379.9844,913.0469 379.9844,914.0781 L379.9844,915.1719 Q379.9844,916.4063 380.875,917.2344 Q381.7656,918.0469 383.3594,918.0469 Q384.2969,918.0469 384.9531,917.7969 Q385.3438,917.6406 385.7656,917.2031 Q386.0313,916.9375 386.1719,916.8594 Q386.3281,916.7813 386.5313,916.7813 Q386.8594,916.7813 387.1094,917.0469 Q387.375,917.2969 387.375,917.6406 Q387.375,917.9844 387.0313,918.3906 Q386.5313,918.9688 385.7344,919.2969 Q384.6563,919.75 383.3594,919.75 Q381.8438,919.75 380.6406,919.125 Q379.6563,918.625 378.9688,917.5625 Q378.2813,916.4844 378.2813,915.2031 L378.2813,914.0469 Q378.2813,912.7188 378.8906,911.5781 Q379.5156,910.4219 380.6094,909.8125 Q381.7031,909.1875 382.9375,909.1875 Q383.6719,909.1875 384.3125,909.3594 Q384.9688,909.5156 385.5156,909.875 Z " fill="#000000"/><text fill="#000000" font-family="sans-serif" font-size="14" lengthAdjust="spacing" textLength="112" x="403.25" y="919.7969">MediumSizedPark</text><line style="stroke:#181818;stroke-width:0.5;" x1="289" x2="597" y1="930" y2="930"/><line style="stroke:#181818;stroke-width:0.5;" x1="289" x2="597" y1="938" y2="938"/><text fill="#000000" font-family="sans-serif" font-size="14" lengthAdjust="spacing" textLength="298" x="294" y="957.1074">+MediumSizedPark(name: String, area: double)</text><text fill="#000000" font-family="sans-serif" font-size="14" lengthAdjust="spacing" textLength="139" x="294" y="975.7285">+displayDetails(): void</text></g><!--class LargeSizedPark--><g id="elem_LargeSizedPark"><rect codeLine="46" fill="#F1F1F1" height="85.2422" id="LargeSizedPark" rx="2.5" ry="2.5" style="stroke:#181818;stroke-width:0.5;" width="298" x="633" y="898"/><ellipse cx="727.75" cy="914" fill="#ADD1B2" rx="11" ry="11" style="stroke:#181818;stroke-width:1.0;"/><path d="M730.5156,909.875 Q730.6719,909.6563 730.8594,909.5469 Q731.0469,909.4375 731.2656,909.4375 Q731.6406,909.4375 731.875,909.7031 Q732.1094,909.9531 732.1094,910.5625 L732.1094,912.0156 Q732.1094,912.625 731.875,912.8906 Q731.6406,913.1563 731.2656,913.1563 Q730.9219,913.1563 730.7188,912.9531 Q730.5156,912.7656 730.4063,912.25 Q730.3594,911.8906 730.1719,911.7031 Q729.8438,911.3281 729.2344,911.1094 Q728.625,910.8906 728,910.8906 Q727.2344,910.8906 726.5938,911.2188 Q725.9688,911.5469 725.4688,912.2969 Q724.9844,913.0469 724.9844,914.0781 L724.9844,915.1719 Q724.9844,916.4063 725.875,917.2344 Q726.7656,918.0469 728.3594,918.0469 Q729.2969,918.0469 729.9531,917.7969 Q730.3438,917.6406 730.7656,917.2031 Q731.0313,916.9375 731.1719,916.8594 Q731.3281,916.7813 731.5313,916.7813 Q731.8594,916.7813 732.1094,917.0469 Q732.375,917.2969 732.375,917.6406 Q732.375,917.9844 732.0313,918.3906 Q731.5313,918.9688 730.7344,919.2969 Q729.6563,919.75 728.3594,919.75 Q726.8438,919.75 725.6406,919.125 Q724.6563,918.625 723.9688,917.5625 Q723.2813,916.4844 723.2813,915.2031 L723.2813,914.0469 Q723.2813,912.7188 723.8906,911.5781 Q724.5156,910.4219 725.6094,909.8125 Q726.7031,909.1875 727.9375,909.1875 Q728.6719,909.1875 729.3125,909.3594 Q729.9688,909.5156 730.5156,909.875 Z " fill="#000000"/><text fill="#000000" font-family="sans-serif" font-size="14" lengthAdjust="spacing" textLength="100" x="748.25" y="919.7969">LargeSizedPark</text><line style="stroke:#181818;stroke-width:0.5;" x1="634" x2="930" y1="930" y2="930"/><line style="stroke:#181818;stroke-width:0.5;" x1="634" x2="930" y1="938" y2="938"/><text fill="#000000" font-family="sans-serif" font-size="14" lengthAdjust="spacing" textLength="286" x="639" y="957.1074">+LargeSizedPark(name: String, area: double)</text><text fill="#000000" font-family="sans-serif" font-size="14" lengthAdjust="spacing" textLength="139" x="639" y="975.7285">+displayDetails(): void</text></g><!--class GreenSpaceRepository--><g id="elem_GreenSpaceRepository"><rect codeLine="51" fill="#F1F1F1" height="103.8633" id="GreenSpaceRepository" rx="2.5" ry="2.5" style="stroke:#181818;stroke-width:0.5;" width="333" x="276.5" y="237"/><ellipse cx="364.75" cy="253" fill="#ADD1B2" rx="11" ry="11" style="stroke:#181818;stroke-width:1.0;"/><path d="M367.5156,248.875 Q367.6719,248.6563 367.8594,248.5469 Q368.0469,248.4375 368.2656,248.4375 Q368.6406,248.4375 368.875,248.7031 Q369.1094,248.9531 369.1094,249.5625 L369.1094,251.0156 Q369.1094,251.625 368.875,251.8906 Q368.6406,252.1563 368.2656,252.1563 Q367.9219,252.1563 367.7188,251.9531 Q367.5156,251.7656 367.4063,251.25 Q367.3594,250.8906 367.1719,250.7031 Q366.8438,250.3281 366.2344,250.1094 Q365.625,249.8906 365,249.8906 Q364.2344,249.8906 363.5938,250.2188 Q362.9688,250.5469 362.4688,251.2969 Q361.9844,252.0469 361.9844,253.0781 L361.9844,254.1719 Q361.9844,255.4063 362.875,256.2344 Q363.7656,257.0469 365.3594,257.0469 Q366.2969,257.0469 366.9531,256.7969 Q367.3438,256.6406 367.7656,256.2031 Q368.0313,255.9375 368.1719,255.8594 Q368.3281,255.7813 368.5313,255.7813 Q368.8594,255.7813 369.1094,256.0469 Q369.375,256.2969 369.375,256.6406 Q369.375,256.9844 369.0313,257.3906 Q368.5313,257.9688 367.7344,258.2969 Q366.6563,258.75 365.3594,258.75 Q363.8438,258.75 362.6406,258.125 Q361.6563,257.625 360.9688,256.5625 Q360.2813,255.4844 360.2813,254.2031 L360.2813,253.0469 Q360.2813,251.7188 360.8906,250.5781 Q361.5156,249.4219 362.6094,248.8125 Q363.7031,248.1875 364.9375,248.1875 Q365.6719,248.1875 366.3125,248.3594 Q366.9688,248.5156 367.5156,248.875 Z " fill="#000000"/><text fill="#000000" font-family="sans-serif" font-size="14" lengthAdjust="spacing" textLength="148" x="385.25" y="258.7969">GreenSpaceRepository</text><line style="stroke:#181818;stroke-width:0.5;" x1="277.5" x2="608.5" y1="269" y2="269"/><text fill="#000000" font-family="sans-serif" font-size="14" lengthAdjust="spacing" textLength="215" x="282.5" y="288.1074">-greenSpaces: List&lt;GreenSpace&gt;</text><line style="stroke:#181818;stroke-width:0.5;" x1="277.5" x2="608.5" y1="295.6211" y2="295.6211"/><text fill="#000000" font-family="sans-serif" font-size="14" lengthAdjust="spacing" textLength="321" x="282.5" y="314.7285">+addGreenSpace(greenSpace: GreenSpace): void</text><text fill="#000000" font-family="sans-serif" font-size="14" lengthAdjust="spacing" textLength="251" x="282.5" y="333.3496">+getGreenSpaces(): List&lt;GreenSpace&gt;</text></g><!--class RegisterGreenSpaceController--><g id="elem_RegisterGreenSpaceController"><rect codeLine="58" fill="#F1F1F1" height="122.4844" id="RegisterGreenSpaceController" rx="2.5" ry="2.5" style="stroke:#181818;stroke-width:0.5;" width="526" x="406" y="7"/><ellipse cx="567.25" cy="23" fill="#ADD1B2" rx="11" ry="11" style="stroke:#181818;stroke-width:1.0;"/><path d="M570.0156,18.875 Q570.1719,18.6563 570.3594,18.5469 Q570.5469,18.4375 570.7656,18.4375 Q571.1406,18.4375 571.375,18.7031 Q571.6094,18.9531 571.6094,19.5625 L571.6094,21.0156 Q571.6094,21.625 571.375,21.8906 Q571.1406,22.1563 570.7656,22.1563 Q570.4219,22.1563 570.2188,21.9531 Q570.0156,21.7656 569.9063,21.25 Q569.8594,20.8906 569.6719,20.7031 Q569.3438,20.3281 568.7344,20.1094 Q568.125,19.8906 567.5,19.8906 Q566.7344,19.8906 566.0938,20.2188 Q565.4688,20.5469 564.9688,21.2969 Q564.4844,22.0469 564.4844,23.0781 L564.4844,24.1719 Q564.4844,25.4063 565.375,26.2344 Q566.2656,27.0469 567.8594,27.0469 Q568.7969,27.0469 569.4531,26.7969 Q569.8438,26.6406 570.2656,26.2031 Q570.5313,25.9375 570.6719,25.8594 Q570.8281,25.7813 571.0313,25.7813 Q571.3594,25.7813 571.6094,26.0469 Q571.875,26.2969 571.875,26.6406 Q571.875,26.9844 571.5313,27.3906 Q571.0313,27.9688 570.2344,28.2969 Q569.1563,28.75 567.8594,28.75 Q566.3438,28.75 565.1406,28.125 Q564.1563,27.625 563.4688,26.5625 Q562.7813,25.4844 562.7813,24.2031 L562.7813,23.0469 Q562.7813,21.7188 563.3906,20.5781 Q564.0156,19.4219 565.1094,18.8125 Q566.2031,18.1875 567.4375,18.1875 Q568.1719,18.1875 568.8125,18.3594 Q569.4688,18.5156 570.0156,18.875 Z " fill="#000000"/><text fill="#000000" font-family="sans-serif" font-size="14" lengthAdjust="spacing" textLength="195" x="587.75" y="28.7969">RegisterGreenSpaceController</text><line style="stroke:#181818;stroke-width:0.5;" x1="407" x2="931" y1="39" y2="39"/><text fill="#000000" font-family="sans-serif" font-size="14" lengthAdjust="spacing" textLength="306" x="412" y="58.1074">-greenSpaceRepository: GreenSpaceRepository</text><line style="stroke:#181818;stroke-width:0.5;" x1="407" x2="931" y1="65.6211" y2="65.6211"/><text fill="#000000" font-family="sans-serif" font-size="14" lengthAdjust="spacing" textLength="514" x="412" y="84.7285">+RegisterGreenSpaceController(greenSpaceRepository: GreenSpaceRepository)</text><text fill="#000000" font-family="sans-serif" font-size="14" lengthAdjust="spacing" textLength="345" x="412" y="103.3496">+registerGreenSpace(greenSpace: GreenSpace): void</text><text fill="#000000" font-family="sans-serif" font-size="14" lengthAdjust="spacing" textLength="266" x="412" y="121.9707">+getAllGreenSpaces(): List&lt;GreenSpace&gt;</text></g><!--class GreenSpaceType--><g id="elem_GreenSpaceType"><rect codeLine="66" fill="#F1F1F1" height="103.8633" id="GreenSpaceType" rx="2.5" ry="2.5" style="stroke:#181818;stroke-width:0.5;" width="157" x="364.5" y="715"/><ellipse cx="385.35" cy="731" fill="#EB937F" rx="11" ry="11" style="stroke:#181818;stroke-width:1.0;"/><path d="M384.2094,731.7969 L384.2094,734.2969 L388.5375,734.2969 L388.5375,733.375 Q388.5375,732.7656 388.7719,732.5 Q389.0219,732.2344 389.3969,732.2344 Q389.7719,732.2344 390.0063,732.5 Q390.2406,732.7656 390.2406,733.375 L390.2406,736 L382.2406,736 Q381.6156,736 381.35,735.7656 Q381.1,735.5313 381.1,735.1406 Q381.1,734.7656 381.3656,734.5313 Q381.6313,734.2969 382.2406,734.2969 L382.5063,734.2969 L382.5063,727.6406 L382.2406,727.6406 Q381.6156,727.6406 381.35,727.4063 Q381.1,727.1719 381.1,726.7813 Q381.1,726.4063 381.35,726.1719 Q381.6156,725.9375 382.2406,725.9375 L389.8656,725.9375 L389.8656,728.5313 Q389.8656,729.1406 389.6313,729.4063 Q389.4125,729.6563 389.0219,729.6563 Q388.6469,729.6563 388.4125,729.4063 Q388.1781,729.1406 388.1781,728.5313 L388.1781,727.6406 L384.2094,727.6406 L384.2094,730.0938 L385.6938,730.0938 Q385.6938,729.4375 385.8188,729.25 Q386.0844,728.8438 386.5531,728.8438 Q386.9281,728.8438 387.1625,729.1094 Q387.3969,729.3594 387.3969,729.9688 L387.3969,731.9375 Q387.3969,732.4844 387.2719,732.6719 Q387.0063,733.0625 386.5531,733.0625 Q386.0844,733.0625 385.8188,732.6563 Q385.6938,732.4688 385.6938,731.7969 L384.2094,731.7969 Z " fill="#000000"/><text fill="#000000" font-family="sans-serif" font-size="14" lengthAdjust="spacing" textLength="112" x="400.65" y="736.7969">GreenSpaceType</text><line style="stroke:#181818;stroke-width:0.5;" x1="365.5" x2="520.5" y1="747" y2="747"/><text fill="#000000" font-family="sans-serif" font-size="14" lengthAdjust="spacing" textLength="58" x="370.5" y="766.1074">GARDEN</text><text fill="#000000" font-family="sans-serif" font-size="14" lengthAdjust="spacing" textLength="145" x="370.5" y="784.7285">MEDIUM_SIZED_PARK</text><text fill="#000000" font-family="sans-serif" font-size="14" lengthAdjust="spacing" textLength="139" x="370.5" y="803.3496">LARGE_SIZED_PARK</text><line style="stroke:#181818;stroke-width:0.5;" x1="365.5" x2="520.5" y1="810.8633" y2="810.8633"/></g><!--class Repositories--><g id="elem_Repositories"><rect fill="#F1F1F1" height="48" id="Repositories" rx="2.5" ry="2.5" style="stroke:#181818;stroke-width:0.5;" width="111" x="359.5" y="159"/><ellipse cx="374.5" cy="175" fill="#ADD1B2" rx="11" ry="11" style="stroke:#181818;stroke-width:1.0;"/><path d="M377.2656,170.875 Q377.4219,170.6563 377.6094,170.5469 Q377.7969,170.4375 378.0156,170.4375 Q378.3906,170.4375 378.625,170.7031 Q378.8594,170.9531 378.8594,171.5625 L378.8594,173.0156 Q378.8594,173.625 378.625,173.8906 Q378.3906,174.1563 378.0156,174.1563 Q377.6719,174.1563 377.4688,173.9531 Q377.2656,173.7656 377.1563,173.25 Q377.1094,172.8906 376.9219,172.7031 Q376.5938,172.3281 375.9844,172.1094 Q375.375,171.8906 374.75,171.8906 Q373.9844,171.8906 373.3438,172.2188 Q372.7188,172.5469 372.2188,173.2969 Q371.7344,174.0469 371.7344,175.0781 L371.7344,176.1719 Q371.7344,177.4063 372.625,178.2344 Q373.5156,179.0469 375.1094,179.0469 Q376.0469,179.0469 376.7031,178.7969 Q377.0938,178.6406 377.5156,178.2031 Q377.7813,177.9375 377.9219,177.8594 Q378.0781,177.7813 378.2813,177.7813 Q378.6094,177.7813 378.8594,178.0469 Q379.125,178.2969 379.125,178.6406 Q379.125,178.9844 378.7813,179.3906 Q378.2813,179.9688 377.4844,180.2969 Q376.4063,180.75 375.1094,180.75 Q373.5938,180.75 372.3906,180.125 Q371.4063,179.625 370.7188,178.5625 Q370.0313,177.4844 370.0313,176.2031 L370.0313,175.0469 Q370.0313,173.7188 370.6406,172.5781 Q371.2656,171.4219 372.3594,170.8125 Q373.4531,170.1875 374.6875,170.1875 Q375.4219,170.1875 376.0625,170.3594 Q376.7188,170.5156 377.2656,170.875 Z " fill="#000000"/><text fill="#000000" font-family="sans-serif" font-size="14" lengthAdjust="spacing" textLength="79" x="388.5" y="180.7969">Repositories</text><line style="stroke:#181818;stroke-width:0.5;" x1="360.5" x2="469.5" y1="191" y2="191"/><line style="stroke:#181818;stroke-width:0.5;" x1="360.5" x2="469.5" y1="199" y2="199"/></g><!--class RegisterGreenSpaceUI--><g id="elem_RegisterGreenSpaceUI"><rect fill="#F1F1F1" height="48" id="RegisterGreenSpaceUI" rx="2.5" ry="2.5" style="stroke:#181818;stroke-width:0.5;" width="177" x="193.5" y="44"/><ellipse cx="208.5" cy="60" fill="#ADD1B2" rx="11" ry="11" style="stroke:#181818;stroke-width:1.0;"/><path d="M211.2656,55.875 Q211.4219,55.6563 211.6094,55.5469 Q211.7969,55.4375 212.0156,55.4375 Q212.3906,55.4375 212.625,55.7031 Q212.8594,55.9531 212.8594,56.5625 L212.8594,58.0156 Q212.8594,58.625 212.625,58.8906 Q212.3906,59.1563 212.0156,59.1563 Q211.6719,59.1563 211.4688,58.9531 Q211.2656,58.7656 211.1563,58.25 Q211.1094,57.8906 210.9219,57.7031 Q210.5938,57.3281 209.9844,57.1094 Q209.375,56.8906 208.75,56.8906 Q207.9844,56.8906 207.3438,57.2188 Q206.7188,57.5469 206.2188,58.2969 Q205.7344,59.0469 205.7344,60.0781 L205.7344,61.1719 Q205.7344,62.4063 206.625,63.2344 Q207.5156,64.0469 209.1094,64.0469 Q210.0469,64.0469 210.7031,63.7969 Q211.0938,63.6406 211.5156,63.2031 Q211.7813,62.9375 211.9219,62.8594 Q212.0781,62.7813 212.2813,62.7813 Q212.6094,62.7813 212.8594,63.0469 Q213.125,63.2969 213.125,63.6406 Q213.125,63.9844 212.7813,64.3906 Q212.2813,64.9688 211.4844,65.2969 Q210.4063,65.75 209.1094,65.75 Q207.5938,65.75 206.3906,65.125 Q205.4063,64.625 204.7188,63.5625 Q204.0313,62.4844 204.0313,61.2031 L204.0313,60.0469 Q204.0313,58.7188 204.6406,57.5781 Q205.2656,56.4219 206.3594,55.8125 Q207.4531,55.1875 208.6875,55.1875 Q209.4219,55.1875 210.0625,55.3594 Q210.7188,55.5156 211.2656,55.875 Z " fill="#000000"/><text fill="#000000" font-family="sans-serif" font-size="14" lengthAdjust="spacing" textLength="145" x="222.5" y="65.7969">RegisterGreenSpaceUI</text><line style="stroke:#181818;stroke-width:0.5;" x1="194.5" x2="369.5" y1="76" y2="76"/><line style="stroke:#181818;stroke-width:0.5;" x1="194.5" x2="369.5" y1="84" y2="84"/></g><!--link ApplicationSession to UserSession--><g id="link_ApplicationSession_UserSession"><path codeLine="72" d="M744.85,331.73 C749.87,349.81 756.22,371.11 763,390 C776.03,426.32 791.3719,461.3193 804.0119,488.7893 " fill="none" id="ApplicationSession-to-UserSession" style="stroke:#181818;stroke-width:1.0;"/><polygon fill="#181818" points="806.52,494.24,806.3917,484.392,804.43,489.6978,799.1241,487.7361,806.52,494.24" style="stroke:#181818;stroke-width:1.0;"/><text fill="#000000" font-family="sans-serif" font-size="13" lengthAdjust="spacing" textLength="72" x="764" y="386.0283">userSession</text><text fill="#000000" font-family="sans-serif" font-size="13" lengthAdjust="spacing" textLength="7" x="795.9019" y="483.2764">1</text></g><!--link RegisterGreenSpaceController to ApplicationSession--><g id="link_RegisterGreenSpaceController_ApplicationSession"><path codeLine="74" d="M713.59,129.08 C718.96,138.69 723.71,148.83 727,159 C736.13,187.16 737.842,214.5817 737.232,240.3517 " fill="none" id="RegisterGreenSpaceController-to-ApplicationSession" style="stroke:#181818;stroke-width:1.0;stroke-dasharray:7.0,7.0;"/><polygon fill="#181818" points="737.09,246.35,741.3019,237.4472,737.2083,241.3514,733.3041,237.2579,737.09,246.35" style="stroke:#181818;stroke-width:1.0;"/></g><!--link RegisterGreenSpaceController to UserSession--><g id="link_RegisterGreenSpaceController_UserSession"><path codeLine="75" d="M745.05,129.37 C776,158.4 808.73,195.83 827,237 C865.3,323.3 846.2562,432.9244 832.5462,488.5344 " fill="none" id="RegisterGreenSpaceController-to-UserSession" style="stroke:#181818;stroke-width:1.0;stroke-dasharray:7.0,7.0;"/><polygon fill="#181818" points="831.11,494.36,837.1481,486.5791,832.3069,489.5054,829.3806,484.6642,831.11,494.36" style="stroke:#181818;stroke-width:1.0;"/></g><!--link Repositories to Repositories--><g id="link_Repositories_Repositories"><path codeLine="77" d="M470.68,163.13 C489.94,162.92 505.5,169.54 505.5,183 C505.5,196.46 495.9396,203.1454 476.6796,202.9354 " fill="none" id="Repositories-to-Repositories" style="stroke:#181818;stroke-width:1.0;"/><polygon fill="#181818" points="470.68,202.87,479.6359,206.9679,475.6797,202.9245,479.7231,198.9684,470.68,202.87" style="stroke:#181818;stroke-width:1.0;"/><text fill="#000000" font-family="sans-serif" font-size="13" lengthAdjust="spacing" textLength="49" x="511.5" y="188.5283">instance</text></g><!--link RegisterGreenSpaceUI to RegisterGreenSpaceController--><g id="link_RegisterGreenSpaceUI_RegisterGreenSpaceController"><path codeLine="79" d="M370.81,68 C382.46,68 388.11,68 399.76,68 " fill="none" id="RegisterGreenSpaceUI-to-RegisterGreenSpaceController" style="stroke:#181818;stroke-width:1.0;stroke-dasharray:7.0,7.0;"/><polygon fill="#181818" points="405.76,68,396.76,64,400.76,68,396.76,72,405.76,68" style="stroke:#181818;stroke-width:1.0;"/></g><!--link RegisterGreenSpaceController to Repositories--><g id="link_RegisterGreenSpaceController_Repositories"><path codeLine="81" d="M533.82,129.14 C510.01,139.73 492.0625,147.7224 472.3825,156.4724 " fill="none" id="RegisterGreenSpaceController-to-Repositories" style="stroke:#181818;stroke-width:1.0;stroke-dasharray:7.0,7.0;"/><polygon fill="#181818" points="466.9,158.91,476.7489,158.9086,471.4688,156.8787,473.4987,151.5986,466.9,158.91" style="stroke:#181818;stroke-width:1.0;"/><text fill="#000000" font-family="sans-serif" font-size="13" lengthAdjust="spacing" textLength="67" x="499.81" y="159.7383">repositories</text></g><!--link Repositories to GreenSpaceRepository--><g id="link_Repositories_GreenSpaceRepository"><path codeLine="83" d="M421.21,207.08 C423.6,215.94 424.8568,220.6472 427.6768,231.0972 " fill="none" id="Repositories-to-GreenSpaceRepository" style="stroke:#181818;stroke-width:1.0;"/><polygon fill="#181818" points="429.24,236.89,430.757,227.1587,427.9373,232.0627,423.0333,229.243,429.24,236.89" style="stroke:#181818;stroke-width:1.0;"/><text fill="#000000" font-family="sans-serif" font-size="13" lengthAdjust="spacing" textLength="7" x="420.6443" y="229.0184">1</text></g><!--link RegisterGreenSpaceController to GreenSpaceRepository--><g id="link_RegisterGreenSpaceController_GreenSpaceRepository"><path codeLine="85" d="M608.76,129.18 C599.84,138.9 590.97,149.05 583,159 C566.97,179.01 568.62,188.37 551,207 C541.09,217.47 534.3942,223.8281 522.8142,233.1481 " fill="none" id="RegisterGreenSpaceController-to-GreenSpaceRepository" style="stroke:#181818;stroke-width:1.0;stroke-dasharray:7.0,7.0;"/><polygon fill="#181818" points="518.14,236.91,527.6592,234.3832,522.0351,233.7751,522.6433,228.151,518.14,236.91" style="stroke:#181818;stroke-width:1.0;"/><text fill="#000000" font-family="sans-serif" font-size="13" lengthAdjust="spacing" textLength="134" x="584" y="188.5283">GreenSpaceRepository</text></g><!--link GreenSpaceType to Garden--><g id="link_GreenSpaceType_Garden"><path codeLine="88" d="M364.42,811.06 C315.89,837.65 259.2018,868.7066 211.1718,895.0266 " fill="none" id="GreenSpaceType-to-Garden" style="stroke:#181818;stroke-width:1.0;"/><polygon fill="#181818" points="205.91,897.91,215.7249,897.0927,210.2948,895.5072,211.8804,890.0771,205.91,897.91" style="stroke:#181818;stroke-width:1.0;"/><text fill="#000000" font-family="sans-serif" font-size="13" lengthAdjust="spacing" textLength="39" x="288" y="864.0283">can be</text></g><!--link GreenSpaceType to MediumSizedPark--><g id="link_GreenSpaceType_MediumSizedPark"><path codeLine="89" d="M443,819.46 C443,844.52 443,868.26 443,891.86 " fill="none" id="GreenSpaceType-to-MediumSizedPark" style="stroke:#181818;stroke-width:1.0;"/><polygon fill="#181818" points="443,897.86,447,888.86,443,892.86,439,888.86,443,897.86" style="stroke:#181818;stroke-width:1.0;"/><text fill="#000000" font-family="sans-serif" font-size="13" lengthAdjust="spacing" textLength="39" x="444" y="864.0283">can be</text></g><!--link GreenSpaceType to LargeSizedPark--><g id="link_GreenSpaceType_LargeSizedPark"><path codeLine="90" d="M521.63,807.78 C575.12,834.84 640.4061,867.8715 694.6061,895.2915 " fill="none" id="GreenSpaceType-to-LargeSizedPark" style="stroke:#181818;stroke-width:1.0;"/><polygon fill="#181818" points="699.96,898,693.7349,890.368,695.4985,895.7429,690.1235,897.5064,699.96,898" style="stroke:#181818;stroke-width:1.0;"/><text fill="#000000" font-family="sans-serif" font-size="13" lengthAdjust="spacing" textLength="39" x="634" y="864.0283">can be</text></g><!--link GreenSpace to GreenSpaceType--><g id="link_GreenSpace_GreenSpaceType"><path codeLine="92" d="M443,636.06 C443,663.54 443,685.84 443,708.99 " fill="none" id="GreenSpace-to-GreenSpaceType" style="stroke:#181818;stroke-width:1.0;"/><polygon fill="#181818" points="443,714.99,447,705.99,443,709.99,439,705.99,443,714.99" style="stroke:#181818;stroke-width:1.0;"/><text fill="#000000" font-family="sans-serif" font-size="13" lengthAdjust="spacing" textLength="21" x="444" y="681.0283">has</text><text fill="#000000" font-family="sans-serif" font-size="13" lengthAdjust="spacing" textLength="7" x="435.5297" y="703.916">1</text></g><!--link GreenSpaceRepository to GreenSpace--><g id="link_GreenSpaceRepository_GreenSpace"><path codeLine="95" d="M443,341.13 C443,364.27 443,386.53 443,413.96 " fill="none" id="GreenSpaceRepository-to-GreenSpace" style="stroke:#181818;stroke-width:1.0;"/><polygon fill="#181818" points="443,419.96,447,410.96,443,414.96,439,410.96,443,419.96" style="stroke:#181818;stroke-width:1.0;"/><text fill="#000000" font-family="sans-serif" font-size="13" lengthAdjust="spacing" textLength="79" x="444" y="386.0283">GreenSpaces</text><text fill="#000000" font-family="sans-serif" font-size="13" lengthAdjust="spacing" textLength="7" x="435.5516" y="362.9539">1</text><text fill="#000000" font-family="sans-serif" font-size="13" lengthAdjust="spacing" textLength="5" x="437.8242" y="408.8188">*</text></g><!--SRC=[hLLBRjim4Dth58DixBH9q6w5me0G6u5HEmZiUfDDC9OcCX6AL4cgXHlaD5tq8BbOILcoQ4crKo1QaM_-Cu-ZWNvY8aU56MHIo7YZP4PWL4518yanViAKbcRB2HJ51aNAVGMzmKJ-P2A5H-JQbt0co6npWbpohRlqoQGoCl04CKUj8sCKMnU6fh4KI_QBu5CG33Wz6Z0I54it1XBcic5I145f0r6USnQZWvQajPCy1s2_Zw2DXMD8oKo5FOkOXkULo6BNXL8aJ6La9I-rovKcrVPb3HmyoP1nN_T64OcbRHV1JlKI16OKmjBM8j8AGaKOGYABjMtY3d9j23tpR_OULC4QTEWxkpZmSz7heYvGKSgq8UMvIlV71ULICoFLrZTlqFCGVaYMDANVsYo6vmT5bNXayt6uLrc9kqmStYhFoPznhOt2sBnOrOJfdEDsJCQsLG_hk4rtKIKae1x2xdga9tNrf_pEAM55vYYMtA5wsWTeuUyGQORAFgDEe4Fu7UBqZN7Fo6RoEeIPvSMNHdrKamwJf9Si_XGxn6X4PKuTt_ly5Xq-NajXbEISL4-UfnXQ9ttCxVyG_YslvcWZ8ixVq0iIHTPw55NnDz5YFBajZ_F9UBgQFoodzvFnmrsq-5gYisXnC_51wwwx- -3oSWHddy_y7GOX5Dv62uwEukfgrBTIJzgi3YDKZMMamIPqS0-1LTkuBvNL5Av6HyTwge1EEELTkxcvPlKpx6JDlM_kNtmTM4Aa-FhdzRUqJrk3OLO6YVrDelfUs5nYcG7kVeJa-GXQT743hjPY234AMFUgj3VSCTtMZjghUhfxNhNCGzYWBekZb4I2GMzFd67fu8FluA1LElWB]--></g></svg>