<?xml version="1.0" encoding="us-ascii" standalone="no"?><svg xmlns="http://www.w3.org/2000/svg" xmlns:xlink="http://www.w3.org/1999/xlink" contentStyleType="text/css" height="967px" preserveAspectRatio="none" style="width:2159px;height:967px;background:#FFFFFF;" version="1.1" viewBox="0 0 2159 967" width="2159px" zoomAndPan="magnify"><defs/><g><!--class ApplicationSession--><g id="elem_ApplicationSession"><rect codeLine="12" fill="#F1F1F1" height="85.2422" id="ApplicationSession" rx="2.5" ry="2.5" style="stroke:#181818;stroke-width:0.5;" width="151" x="1836" y="394.5"/><ellipse cx="1851" cy="410.5" fill="#ADD1B2" rx="11" ry="11" style="stroke:#181818;stroke-width:1.0;"/><path d="M1853.7656,406.375 Q1853.9219,406.1563 1854.1094,406.0469 Q1854.2969,405.9375 1854.5156,405.9375 Q1854.8906,405.9375 1855.125,406.2031 Q1855.3594,406.4531 1855.3594,407.0625 L1855.3594,408.5156 Q1855.3594,409.125 1855.125,409.3906 Q1854.8906,409.6563 1854.5156,409.6563 Q1854.1719,409.6563 1853.9688,409.4531 Q1853.7656,409.2656 1853.6563,408.75 Q1853.6094,408.3906 1853.4219,408.2031 Q1853.0938,407.8281 1852.4844,407.6094 Q1851.875,407.3906 1851.25,407.3906 Q1850.4844,407.3906 1849.8438,407.7188 Q1849.2188,408.0469 1848.7188,408.7969 Q1848.2344,409.5469 1848.2344,410.5781 L1848.2344,411.6719 Q1848.2344,412.9063 1849.125,413.7344 Q1850.0156,414.5469 1851.6094,414.5469 Q1852.5469,414.5469 1853.2031,414.2969 Q1853.5938,414.1406 1854.0156,413.7031 Q1854.2813,413.4375 1854.4219,413.3594 Q1854.5781,413.2813 1854.7813,413.2813 Q1855.1094,413.2813 1855.3594,413.5469 Q1855.625,413.7969 1855.625,414.1406 Q1855.625,414.4844 1855.2813,414.8906 Q1854.7813,415.4688 1853.9844,415.7969 Q1852.9063,416.25 1851.6094,416.25 Q1850.0938,416.25 1848.8906,415.625 Q1847.9063,415.125 1847.2188,414.0625 Q1846.5313,412.9844 1846.5313,411.7031 L1846.5313,410.5469 Q1846.5313,409.2188 1847.1406,408.0781 Q1847.7656,406.9219 1848.8594,406.3125 Q1849.9531,405.6875 1851.1875,405.6875 Q1851.9219,405.6875 1852.5625,405.8594 Q1853.2188,406.0156 1853.7656,406.375 Z " fill="#000000"/><text fill="#000000" font-family="sans-serif" font-size="14" lengthAdjust="spacing" textLength="119" x="1865" y="416.2969">ApplicationSession</text><line style="stroke:#181818;stroke-width:0.5;" x1="1837" x2="1986" y1="426.5" y2="426.5"/><line style="stroke:#181818;stroke-width:0.5;" x1="1837" x2="1986" y1="434.5" y2="434.5"/><text fill="#000000" font-family="sans-serif" font-size="14" lengthAdjust="spacing" textLength="128" x="1842" y="453.6074">+static getInstance()</text><text fill="#000000" font-family="sans-serif" font-size="14" lengthAdjust="spacing" textLength="136" x="1842" y="472.2285">+getCurrentSession()</text></g><!--class UserSession--><g id="elem_UserSession"><rect codeLine="18" fill="#F1F1F1" height="66.6211" id="UserSession" rx="2.5" ry="2.5" style="stroke:#181818;stroke-width:0.5;" width="113" x="1928" y="819.5"/><ellipse cx="1943.9" cy="835.5" fill="#ADD1B2" rx="11" ry="11" style="stroke:#181818;stroke-width:1.0;"/><path d="M1946.6656,831.375 Q1946.8219,831.1563 1947.0094,831.0469 Q1947.1969,830.9375 1947.4156,830.9375 Q1947.7906,830.9375 1948.025,831.2031 Q1948.2594,831.4531 1948.2594,832.0625 L1948.2594,833.5156 Q1948.2594,834.125 1948.025,834.3906 Q1947.7906,834.6563 1947.4156,834.6563 Q1947.0719,834.6563 1946.8688,834.4531 Q1946.6656,834.2656 1946.5563,833.75 Q1946.5094,833.3906 1946.3219,833.2031 Q1945.9938,832.8281 1945.3844,832.6094 Q1944.775,832.3906 1944.15,832.3906 Q1943.3844,832.3906 1942.7438,832.7188 Q1942.1188,833.0469 1941.6188,833.7969 Q1941.1344,834.5469 1941.1344,835.5781 L1941.1344,836.6719 Q1941.1344,837.9063 1942.025,838.7344 Q1942.9156,839.5469 1944.5094,839.5469 Q1945.4469,839.5469 1946.1031,839.2969 Q1946.4938,839.1406 1946.9156,838.7031 Q1947.1813,838.4375 1947.3219,838.3594 Q1947.4781,838.2813 1947.6813,838.2813 Q1948.0094,838.2813 1948.2594,838.5469 Q1948.525,838.7969 1948.525,839.1406 Q1948.525,839.4844 1948.1813,839.8906 Q1947.6813,840.4688 1946.8844,840.7969 Q1945.8063,841.25 1944.5094,841.25 Q1942.9938,841.25 1941.7906,840.625 Q1940.8063,840.125 1940.1188,839.0625 Q1939.4313,837.9844 1939.4313,836.7031 L1939.4313,835.5469 Q1939.4313,834.2188 1940.0406,833.0781 Q1940.6656,831.9219 1941.7594,831.3125 Q1942.8531,830.6875 1944.0875,830.6875 Q1944.8219,830.6875 1945.4625,830.8594 Q1946.1188,831.0156 1946.6656,831.375 Z " fill="#000000"/><text fill="#000000" font-family="sans-serif" font-size="14" lengthAdjust="spacing" textLength="79" x="1958.1" y="841.2969">UserSession</text><line style="stroke:#181818;stroke-width:0.5;" x1="1929" x2="2040" y1="851.5" y2="851.5"/><line style="stroke:#181818;stroke-width:0.5;" x1="1929" x2="2040" y1="859.5" y2="859.5"/><text fill="#000000" font-family="sans-serif" font-size="14" lengthAdjust="spacing" textLength="101" x="1934" y="878.6074">+getUserEmail()</text></g><!--class GreenSpace--><g id="elem_GreenSpace"><rect codeLine="23" fill="#F1F1F1" height="215.5898" id="GreenSpace" rx="2.5" ry="2.5" style="stroke:#181818;stroke-width:0.5;" width="493" x="972" y="745"/><ellipse cx="1174.25" cy="761" fill="#ADD1B2" rx="11" ry="11" style="stroke:#181818;stroke-width:1.0;"/><path d="M1177.0156,756.875 Q1177.1719,756.6563 1177.3594,756.5469 Q1177.5469,756.4375 1177.7656,756.4375 Q1178.1406,756.4375 1178.375,756.7031 Q1178.6094,756.9531 1178.6094,757.5625 L1178.6094,759.0156 Q1178.6094,759.625 1178.375,759.8906 Q1178.1406,760.1563 1177.7656,760.1563 Q1177.4219,760.1563 1177.2188,759.9531 Q1177.0156,759.7656 1176.9063,759.25 Q1176.8594,758.8906 1176.6719,758.7031 Q1176.3438,758.3281 1175.7344,758.1094 Q1175.125,757.8906 1174.5,757.8906 Q1173.7344,757.8906 1173.0938,758.2188 Q1172.4688,758.5469 1171.9688,759.2969 Q1171.4844,760.0469 1171.4844,761.0781 L1171.4844,762.1719 Q1171.4844,763.4063 1172.375,764.2344 Q1173.2656,765.0469 1174.8594,765.0469 Q1175.7969,765.0469 1176.4531,764.7969 Q1176.8438,764.6406 1177.2656,764.2031 Q1177.5313,763.9375 1177.6719,763.8594 Q1177.8281,763.7813 1178.0313,763.7813 Q1178.3594,763.7813 1178.6094,764.0469 Q1178.875,764.2969 1178.875,764.6406 Q1178.875,764.9844 1178.5313,765.3906 Q1178.0313,765.9688 1177.2344,766.2969 Q1176.1563,766.75 1174.8594,766.75 Q1173.3438,766.75 1172.1406,766.125 Q1171.1563,765.625 1170.4688,764.5625 Q1169.7813,763.4844 1169.7813,762.2031 L1169.7813,761.0469 Q1169.7813,759.7188 1170.3906,758.5781 Q1171.0156,757.4219 1172.1094,756.8125 Q1173.2031,756.1875 1174.4375,756.1875 Q1175.1719,756.1875 1175.8125,756.3594 Q1176.4688,756.5156 1177.0156,756.875 Z " fill="#000000"/><text fill="#000000" font-family="sans-serif" font-size="14" lengthAdjust="spacing" textLength="80" x="1194.75" y="766.7969">GreenSpace</text><line style="stroke:#181818;stroke-width:0.5;" x1="973" x2="1464" y1="777" y2="777"/><text fill="#000000" font-family="sans-serif" font-size="14" lengthAdjust="spacing" textLength="85" x="978" y="796.1074">-name: String</text><text fill="#000000" font-family="sans-serif" font-size="14" lengthAdjust="spacing" textLength="85" x="978" y="814.7285">-area: double</text><text fill="#000000" font-family="sans-serif" font-size="14" lengthAdjust="spacing" textLength="152" x="978" y="833.3496">-type: GreenSpaceType</text><line style="stroke:#181818;stroke-width:0.5;" x1="973" x2="1464" y1="840.8633" y2="840.8633"/><text fill="#000000" font-family="sans-serif" font-size="14" lengthAdjust="spacing" textLength="421" x="978" y="859.9707">+GreenSpace(name: String, area: double, type: GreenSpaceType)</text><text fill="#000000" font-family="sans-serif" font-size="14" lengthAdjust="spacing" textLength="481" x="978" y="878.5918">+registerGreenSpace(greenSpaceRepository: GreenSpaceRepository): void</text><text fill="#000000" font-family="sans-serif" font-size="14" lengthAdjust="spacing" textLength="119" x="978" y="897.2129">+getName(): String</text><text fill="#000000" font-family="sans-serif" font-size="14" lengthAdjust="spacing" textLength="119" x="978" y="915.834">+getArea(): double</text><text fill="#000000" font-family="sans-serif" font-size="14" lengthAdjust="spacing" textLength="190" x="978" y="934.4551">+getType(): GreenSpaceType</text><text fill="#000000" font-family="sans-serif" font-size="14" font-style="italic" lengthAdjust="spacing" textLength="138" x="978" y="953.0762">+displayDetails(): void</text></g><!--class Collaborator--><g id="elem_Collaborator"><rect codeLine="36" fill="#F1F1F1" height="457.6641" id="Collaborator" rx="2.5" ry="2.5" style="stroke:#181818;stroke-width:0.5;" width="1164" x="636.5" y="208"/><ellipse cx="1175.25" cy="224" fill="#ADD1B2" rx="11" ry="11" style="stroke:#181818;stroke-width:1.0;"/><path d="M1178.0156,219.875 Q1178.1719,219.6563 1178.3594,219.5469 Q1178.5469,219.4375 1178.7656,219.4375 Q1179.1406,219.4375 1179.375,219.7031 Q1179.6094,219.9531 1179.6094,220.5625 L1179.6094,222.0156 Q1179.6094,222.625 1179.375,222.8906 Q1179.1406,223.1563 1178.7656,223.1563 Q1178.4219,223.1563 1178.2188,222.9531 Q1178.0156,222.7656 1177.9063,222.25 Q1177.8594,221.8906 1177.6719,221.7031 Q1177.3438,221.3281 1176.7344,221.1094 Q1176.125,220.8906 1175.5,220.8906 Q1174.7344,220.8906 1174.0938,221.2188 Q1173.4688,221.5469 1172.9688,222.2969 Q1172.4844,223.0469 1172.4844,224.0781 L1172.4844,225.1719 Q1172.4844,226.4063 1173.375,227.2344 Q1174.2656,228.0469 1175.8594,228.0469 Q1176.7969,228.0469 1177.4531,227.7969 Q1177.8438,227.6406 1178.2656,227.2031 Q1178.5313,226.9375 1178.6719,226.8594 Q1178.8281,226.7813 1179.0313,226.7813 Q1179.3594,226.7813 1179.6094,227.0469 Q1179.875,227.2969 1179.875,227.6406 Q1179.875,227.9844 1179.5313,228.3906 Q1179.0313,228.9688 1178.2344,229.2969 Q1177.1563,229.75 1175.8594,229.75 Q1174.3438,229.75 1173.1406,229.125 Q1172.1563,228.625 1171.4688,227.5625 Q1170.7813,226.4844 1170.7813,225.2031 L1170.7813,224.0469 Q1170.7813,222.7188 1171.3906,221.5781 Q1172.0156,220.4219 1173.1094,219.8125 Q1174.2031,219.1875 1175.4375,219.1875 Q1176.1719,219.1875 1176.8125,219.3594 Q1177.4688,219.5156 1178.0156,219.875 Z " fill="#000000"/><text fill="#000000" font-family="sans-serif" font-size="14" lengthAdjust="spacing" textLength="78" x="1195.75" y="229.7969">Collaborator</text><line style="stroke:#181818;stroke-width:0.5;" x1="637.5" x2="1799.5" y1="240" y2="240"/><text fill="#000000" font-family="sans-serif" font-size="14" lengthAdjust="spacing" textLength="85" x="642.5" y="259.1074">-name: String</text><text fill="#000000" font-family="sans-serif" font-size="14" lengthAdjust="spacing" textLength="158" x="642.5" y="277.7285">-birthdayDate: LocalDate</text><text fill="#000000" font-family="sans-serif" font-size="14" lengthAdjust="spacing" textLength="170" x="642.5" y="296.3496">-admissionDate: LocalDate</text><text fill="#000000" font-family="sans-serif" font-size="14" lengthAdjust="spacing" textLength="101" x="642.5" y="314.9707">-address: String</text><text fill="#000000" font-family="sans-serif" font-size="14" lengthAdjust="spacing" textLength="139" x="642.5" y="333.5918">-phoneNumber: String</text><text fill="#000000" font-family="sans-serif" font-size="14" lengthAdjust="spacing" textLength="83" x="642.5" y="352.2129">-email: String</text><text fill="#000000" font-family="sans-serif" font-size="14" lengthAdjust="spacing" textLength="131" x="642.5" y="370.834">-taxpayerNumber: int</text><text fill="#000000" font-family="sans-serif" font-size="14" lengthAdjust="spacing" textLength="101" x="642.5" y="389.4551">-BINumber: long</text><text fill="#000000" font-family="sans-serif" font-size="14" lengthAdjust="spacing" textLength="69" x="642.5" y="408.0762">-job: String</text><line style="stroke:#181818;stroke-width:0.5;" x1="637.5" x2="1799.5" y1="415.5898" y2="415.5898"/><text fill="#000000" font-family="sans-serif" font-size="14" lengthAdjust="spacing" textLength="1152" x="642.5" y="434.6973">+Collaborator(name: String, birthdayDate: LocalDate, admissionDate: LocalDate, address: String, phoneNumber: String, email: String, taxpayerNumber: int, BINumber: long, job: String)</text><text fill="#000000" font-family="sans-serif" font-size="14" lengthAdjust="spacing" textLength="176" x="642.5" y="453.3184">+equals(o: Object): boolean</text><text fill="#000000" font-family="sans-serif" font-size="14" lengthAdjust="spacing" textLength="138" x="642.5" y="471.9395">+clone(): Collaborator</text><text fill="#000000" font-family="sans-serif" font-size="14" lengthAdjust="spacing" textLength="119" x="642.5" y="490.5605">+getName(): String</text><text fill="#000000" font-family="sans-serif" font-size="14" lengthAdjust="spacing" textLength="192" x="642.5" y="509.1816">+getBirthdayDate(): LocalDate</text><text fill="#000000" font-family="sans-serif" font-size="14" lengthAdjust="spacing" textLength="204" x="642.5" y="527.8027">+getAdmissionDate(): LocalDate</text><text fill="#000000" font-family="sans-serif" font-size="14" lengthAdjust="spacing" textLength="135" x="642.5" y="546.4238">+getAddress(): String</text><text fill="#000000" font-family="sans-serif" font-size="14" lengthAdjust="spacing" textLength="173" x="642.5" y="565.0449">+getPhoneNumber(): String</text><text fill="#000000" font-family="sans-serif" font-size="14" lengthAdjust="spacing" textLength="117" x="642.5" y="583.666">+getEmail(): String</text><text fill="#000000" font-family="sans-serif" font-size="14" lengthAdjust="spacing" textLength="169" x="642.5" y="602.2871">+getTaxpayerNumber(): int</text><text fill="#000000" font-family="sans-serif" font-size="14" lengthAdjust="spacing" textLength="134" x="642.5" y="620.9082">+getBINumber(): long</text><text fill="#000000" font-family="sans-serif" font-size="14" lengthAdjust="spacing" textLength="105" x="642.5" y="639.5293">+getJob(): String</text><text fill="#000000" font-family="sans-serif" font-size="14" lengthAdjust="spacing" textLength="147" x="642.5" y="658.1504">+addJob(job: Job): void</text></g><!--class CollaboratorRepository--><g id="elem_CollaboratorRepository"><rect codeLine="61" fill="#F1F1F1" height="159.7266" id="CollaboratorRepository" rx="2.5" ry="2.5" style="stroke:#181818;stroke-width:0.5;" width="369" x="232" y="357"/><ellipse cx="339.25" cy="373" fill="#ADD1B2" rx="11" ry="11" style="stroke:#181818;stroke-width:1.0;"/><path d="M342.0156,368.875 Q342.1719,368.6563 342.3594,368.5469 Q342.5469,368.4375 342.7656,368.4375 Q343.1406,368.4375 343.375,368.7031 Q343.6094,368.9531 343.6094,369.5625 L343.6094,371.0156 Q343.6094,371.625 343.375,371.8906 Q343.1406,372.1563 342.7656,372.1563 Q342.4219,372.1563 342.2188,371.9531 Q342.0156,371.7656 341.9063,371.25 Q341.8594,370.8906 341.6719,370.7031 Q341.3438,370.3281 340.7344,370.1094 Q340.125,369.8906 339.5,369.8906 Q338.7344,369.8906 338.0938,370.2188 Q337.4688,370.5469 336.9688,371.2969 Q336.4844,372.0469 336.4844,373.0781 L336.4844,374.1719 Q336.4844,375.4063 337.375,376.2344 Q338.2656,377.0469 339.8594,377.0469 Q340.7969,377.0469 341.4531,376.7969 Q341.8438,376.6406 342.2656,376.2031 Q342.5313,375.9375 342.6719,375.8594 Q342.8281,375.7813 343.0313,375.7813 Q343.3594,375.7813 343.6094,376.0469 Q343.875,376.2969 343.875,376.6406 Q343.875,376.9844 343.5313,377.3906 Q343.0313,377.9688 342.2344,378.2969 Q341.1563,378.75 339.8594,378.75 Q338.3438,378.75 337.1406,378.125 Q336.1563,377.625 335.4688,376.5625 Q334.7813,375.4844 334.7813,374.2031 L334.7813,373.0469 Q334.7813,371.7188 335.3906,370.5781 Q336.0156,369.4219 337.1094,368.8125 Q338.2031,368.1875 339.4375,368.1875 Q340.1719,368.1875 340.8125,368.3594 Q341.4688,368.5156 342.0156,368.875 Z " fill="#000000"/><text fill="#000000" font-family="sans-serif" font-size="14" lengthAdjust="spacing" textLength="146" x="359.75" y="378.7969">CollaboratorRepository</text><line style="stroke:#181818;stroke-width:0.5;" x1="233" x2="600" y1="389" y2="389"/><text fill="#000000" font-family="sans-serif" font-size="14" lengthAdjust="spacing" textLength="207" x="238" y="408.1074">-List&lt;Collaborator&gt; collaborators</text><line style="stroke:#181818;stroke-width:0.5;" x1="233" x2="600" y1="415.6211" y2="415.6211"/><text fill="#000000" font-family="sans-serif" font-size="14" lengthAdjust="spacing" textLength="281" x="238" y="434.7285">+addCollaborator(collaborator: Collaborator)</text><text fill="#000000" font-family="sans-serif" font-size="14" lengthAdjust="spacing" textLength="304" x="238" y="453.3496">+removeCollaborator(collaborator: Collaborator)</text><text fill="#000000" font-family="sans-serif" font-size="14" lengthAdjust="spacing" textLength="357" x="238" y="471.9707">+addSkillToCollaborator(collaboratorId: String, skill: Skill)</text><text fill="#000000" font-family="sans-serif" font-size="14" lengthAdjust="spacing" textLength="333" x="238" y="490.5918">+getCollaborator(collaboratorId: String): Collaborator</text><text fill="#000000" font-family="sans-serif" font-size="14" lengthAdjust="spacing" textLength="279" x="238" y="509.2129">+assignSkill(collaboratorId: String, skill: Skill)</text></g><!--class GreenSpaceRepository--><g id="elem_GreenSpaceRepository"><rect codeLine="71" fill="#F1F1F1" height="103.8633" id="GreenSpaceRepository" rx="2.5" ry="2.5" style="stroke:#181818;stroke-width:0.5;" width="333" x="427" y="801"/><ellipse cx="515.25" cy="817" fill="#ADD1B2" rx="11" ry="11" style="stroke:#181818;stroke-width:1.0;"/><path d="M518.0156,812.875 Q518.1719,812.6563 518.3594,812.5469 Q518.5469,812.4375 518.7656,812.4375 Q519.1406,812.4375 519.375,812.7031 Q519.6094,812.9531 519.6094,813.5625 L519.6094,815.0156 Q519.6094,815.625 519.375,815.8906 Q519.1406,816.1563 518.7656,816.1563 Q518.4219,816.1563 518.2188,815.9531 Q518.0156,815.7656 517.9063,815.25 Q517.8594,814.8906 517.6719,814.7031 Q517.3438,814.3281 516.7344,814.1094 Q516.125,813.8906 515.5,813.8906 Q514.7344,813.8906 514.0938,814.2188 Q513.4688,814.5469 512.9688,815.2969 Q512.4844,816.0469 512.4844,817.0781 L512.4844,818.1719 Q512.4844,819.4063 513.375,820.2344 Q514.2656,821.0469 515.8594,821.0469 Q516.7969,821.0469 517.4531,820.7969 Q517.8438,820.6406 518.2656,820.2031 Q518.5313,819.9375 518.6719,819.8594 Q518.8281,819.7813 519.0313,819.7813 Q519.3594,819.7813 519.6094,820.0469 Q519.875,820.2969 519.875,820.6406 Q519.875,820.9844 519.5313,821.3906 Q519.0313,821.9688 518.2344,822.2969 Q517.1563,822.75 515.8594,822.75 Q514.3438,822.75 513.1406,822.125 Q512.1563,821.625 511.4688,820.5625 Q510.7813,819.4844 510.7813,818.2031 L510.7813,817.0469 Q510.7813,815.7188 511.3906,814.5781 Q512.0156,813.4219 513.1094,812.8125 Q514.2031,812.1875 515.4375,812.1875 Q516.1719,812.1875 516.8125,812.3594 Q517.4688,812.5156 518.0156,812.875 Z " fill="#000000"/><text fill="#000000" font-family="sans-serif" font-size="14" lengthAdjust="spacing" textLength="148" x="535.75" y="822.7969">GreenSpaceRepository</text><line style="stroke:#181818;stroke-width:0.5;" x1="428" x2="759" y1="833" y2="833"/><text fill="#000000" font-family="sans-serif" font-size="14" lengthAdjust="spacing" textLength="215" x="433" y="852.1074">-greenSpaces: List&lt;GreenSpace&gt;</text><line style="stroke:#181818;stroke-width:0.5;" x1="428" x2="759" y1="859.6211" y2="859.6211"/><text fill="#000000" font-family="sans-serif" font-size="14" lengthAdjust="spacing" textLength="321" x="433" y="878.7285">+addGreenSpace(greenSpace: GreenSpace): void</text><text fill="#000000" font-family="sans-serif" font-size="14" lengthAdjust="spacing" textLength="251" x="433" y="897.3496">+getGreenSpaces(): List&lt;GreenSpace&gt;</text></g><!--class RegisterGreenSpaceController--><g id="elem_RegisterGreenSpaceController"><rect codeLine="78" fill="#F1F1F1" height="122.4844" id="RegisterGreenSpaceController" rx="2.5" ry="2.5" style="stroke:#181818;stroke-width:0.5;" width="526" x="1220.5" y="7"/><ellipse cx="1381.75" cy="23" fill="#ADD1B2" rx="11" ry="11" style="stroke:#181818;stroke-width:1.0;"/><path d="M1384.5156,18.875 Q1384.6719,18.6563 1384.8594,18.5469 Q1385.0469,18.4375 1385.2656,18.4375 Q1385.6406,18.4375 1385.875,18.7031 Q1386.1094,18.9531 1386.1094,19.5625 L1386.1094,21.0156 Q1386.1094,21.625 1385.875,21.8906 Q1385.6406,22.1563 1385.2656,22.1563 Q1384.9219,22.1563 1384.7188,21.9531 Q1384.5156,21.7656 1384.4063,21.25 Q1384.3594,20.8906 1384.1719,20.7031 Q1383.8438,20.3281 1383.2344,20.1094 Q1382.625,19.8906 1382,19.8906 Q1381.2344,19.8906 1380.5938,20.2188 Q1379.9688,20.5469 1379.4688,21.2969 Q1378.9844,22.0469 1378.9844,23.0781 L1378.9844,24.1719 Q1378.9844,25.4063 1379.875,26.2344 Q1380.7656,27.0469 1382.3594,27.0469 Q1383.2969,27.0469 1383.9531,26.7969 Q1384.3438,26.6406 1384.7656,26.2031 Q1385.0313,25.9375 1385.1719,25.8594 Q1385.3281,25.7813 1385.5313,25.7813 Q1385.8594,25.7813 1386.1094,26.0469 Q1386.375,26.2969 1386.375,26.6406 Q1386.375,26.9844 1386.0313,27.3906 Q1385.5313,27.9688 1384.7344,28.2969 Q1383.6563,28.75 1382.3594,28.75 Q1380.8438,28.75 1379.6406,28.125 Q1378.6563,27.625 1377.9688,26.5625 Q1377.2813,25.4844 1377.2813,24.2031 L1377.2813,23.0469 Q1377.2813,21.7188 1377.8906,20.5781 Q1378.5156,19.4219 1379.6094,18.8125 Q1380.7031,18.1875 1381.9375,18.1875 Q1382.6719,18.1875 1383.3125,18.3594 Q1383.9688,18.5156 1384.5156,18.875 Z " fill="#000000"/><text fill="#000000" font-family="sans-serif" font-size="14" lengthAdjust="spacing" textLength="195" x="1402.25" y="28.7969">RegisterGreenSpaceController</text><line style="stroke:#181818;stroke-width:0.5;" x1="1221.5" x2="1745.5" y1="39" y2="39"/><text fill="#000000" font-family="sans-serif" font-size="14" lengthAdjust="spacing" textLength="306" x="1226.5" y="58.1074">-greenSpaceRepository: GreenSpaceRepository</text><line style="stroke:#181818;stroke-width:0.5;" x1="1221.5" x2="1745.5" y1="65.6211" y2="65.6211"/><text fill="#000000" font-family="sans-serif" font-size="14" lengthAdjust="spacing" textLength="514" x="1226.5" y="84.7285">+RegisterGreenSpaceController(greenSpaceRepository: GreenSpaceRepository)</text><text fill="#000000" font-family="sans-serif" font-size="14" lengthAdjust="spacing" textLength="345" x="1226.5" y="103.3496">+registerGreenSpace(greenSpace: GreenSpace): void</text><text fill="#000000" font-family="sans-serif" font-size="14" lengthAdjust="spacing" textLength="266" x="1226.5" y="121.9707">+getAllGreenSpaces(): List&lt;GreenSpace&gt;</text></g><!--class Repositories--><g id="elem_Repositories"><rect fill="#F1F1F1" height="48" id="Repositories" rx="2.5" ry="2.5" style="stroke:#181818;stroke-width:0.5;" width="111" x="7" y="413"/><ellipse cx="22" cy="429" fill="#ADD1B2" rx="11" ry="11" style="stroke:#181818;stroke-width:1.0;"/><path d="M24.7656,424.875 Q24.9219,424.6563 25.1094,424.5469 Q25.2969,424.4375 25.5156,424.4375 Q25.8906,424.4375 26.125,424.7031 Q26.3594,424.9531 26.3594,425.5625 L26.3594,427.0156 Q26.3594,427.625 26.125,427.8906 Q25.8906,428.1563 25.5156,428.1563 Q25.1719,428.1563 24.9688,427.9531 Q24.7656,427.7656 24.6563,427.25 Q24.6094,426.8906 24.4219,426.7031 Q24.0938,426.3281 23.4844,426.1094 Q22.875,425.8906 22.25,425.8906 Q21.4844,425.8906 20.8438,426.2188 Q20.2188,426.5469 19.7188,427.2969 Q19.2344,428.0469 19.2344,429.0781 L19.2344,430.1719 Q19.2344,431.4063 20.125,432.2344 Q21.0156,433.0469 22.6094,433.0469 Q23.5469,433.0469 24.2031,432.7969 Q24.5938,432.6406 25.0156,432.2031 Q25.2813,431.9375 25.4219,431.8594 Q25.5781,431.7813 25.7813,431.7813 Q26.1094,431.7813 26.3594,432.0469 Q26.625,432.2969 26.625,432.6406 Q26.625,432.9844 26.2813,433.3906 Q25.7813,433.9688 24.9844,434.2969 Q23.9063,434.75 22.6094,434.75 Q21.0938,434.75 19.8906,434.125 Q18.9063,433.625 18.2188,432.5625 Q17.5313,431.4844 17.5313,430.2031 L17.5313,429.0469 Q17.5313,427.7188 18.1406,426.5781 Q18.7656,425.4219 19.8594,424.8125 Q20.9531,424.1875 22.1875,424.1875 Q22.9219,424.1875 23.5625,424.3594 Q24.2188,424.5156 24.7656,424.875 Z " fill="#000000"/><text fill="#000000" font-family="sans-serif" font-size="14" lengthAdjust="spacing" textLength="79" x="36" y="434.7969">Repositories</text><line style="stroke:#181818;stroke-width:0.5;" x1="8" x2="117" y1="445" y2="445"/><line style="stroke:#181818;stroke-width:0.5;" x1="8" x2="117" y1="453" y2="453"/></g><!--class RegisterGreenSpaceUI--><g id="elem_RegisterGreenSpaceUI"><rect fill="#F1F1F1" height="48" id="RegisterGreenSpaceUI" rx="2.5" ry="2.5" style="stroke:#181818;stroke-width:0.5;" width="177" x="1008" y="44"/><ellipse cx="1023" cy="60" fill="#ADD1B2" rx="11" ry="11" style="stroke:#181818;stroke-width:1.0;"/><path d="M1025.7656,55.875 Q1025.9219,55.6563 1026.1094,55.5469 Q1026.2969,55.4375 1026.5156,55.4375 Q1026.8906,55.4375 1027.125,55.7031 Q1027.3594,55.9531 1027.3594,56.5625 L1027.3594,58.0156 Q1027.3594,58.625 1027.125,58.8906 Q1026.8906,59.1563 1026.5156,59.1563 Q1026.1719,59.1563 1025.9688,58.9531 Q1025.7656,58.7656 1025.6563,58.25 Q1025.6094,57.8906 1025.4219,57.7031 Q1025.0938,57.3281 1024.4844,57.1094 Q1023.875,56.8906 1023.25,56.8906 Q1022.4844,56.8906 1021.8438,57.2188 Q1021.2188,57.5469 1020.7188,58.2969 Q1020.2344,59.0469 1020.2344,60.0781 L1020.2344,61.1719 Q1020.2344,62.4063 1021.125,63.2344 Q1022.0156,64.0469 1023.6094,64.0469 Q1024.5469,64.0469 1025.2031,63.7969 Q1025.5938,63.6406 1026.0156,63.2031 Q1026.2813,62.9375 1026.4219,62.8594 Q1026.5781,62.7813 1026.7813,62.7813 Q1027.1094,62.7813 1027.3594,63.0469 Q1027.625,63.2969 1027.625,63.6406 Q1027.625,63.9844 1027.2813,64.3906 Q1026.7813,64.9688 1025.9844,65.2969 Q1024.9063,65.75 1023.6094,65.75 Q1022.0938,65.75 1020.8906,65.125 Q1019.9063,64.625 1019.2188,63.5625 Q1018.5313,62.4844 1018.5313,61.2031 L1018.5313,60.0469 Q1018.5313,58.7188 1019.1406,57.5781 Q1019.7656,56.4219 1020.8594,55.8125 Q1021.9531,55.1875 1023.1875,55.1875 Q1023.9219,55.1875 1024.5625,55.3594 Q1025.2188,55.5156 1025.7656,55.875 Z " fill="#000000"/><text fill="#000000" font-family="sans-serif" font-size="14" lengthAdjust="spacing" textLength="145" x="1037" y="65.7969">RegisterGreenSpaceUI</text><line style="stroke:#181818;stroke-width:0.5;" x1="1009" x2="1184" y1="76" y2="76"/><line style="stroke:#181818;stroke-width:0.5;" x1="1009" x2="1184" y1="84" y2="84"/></g><!--link ApplicationSession to UserSession--><g id="link_ApplicationSession_UserSession"><path codeLine="87" d="M1913.18,479.71 C1916,534.29 1923.16,632.67 1940.5,715 C1948.17,751.42 1959.7529,786.2273 1969.8229,813.6673 " fill="none" id="ApplicationSession-to-UserSession" style="stroke:#181818;stroke-width:1.0;"/><polygon fill="#181818" points="1971.89,819.3,1972.5445,809.4729,1970.1674,814.6061,1965.0342,812.229,1971.89,819.3" style="stroke:#181818;stroke-width:1.0;"/><text fill="#000000" font-family="sans-serif" font-size="13" lengthAdjust="spacing" textLength="72" x="1941.5" y="711.0283">userSession</text><text fill="#000000" font-family="sans-serif" font-size="13" lengthAdjust="spacing" textLength="7" x="1961.819" y="808.3478">1</text></g><!--link RegisterGreenSpaceController to ApplicationSession--><g id="link_RegisterGreenSpaceController_ApplicationSession"><path codeLine="89" d="M1698.43,129.16 C1741.81,148.89 1784.25,174.64 1817.5,208 C1869.18,259.86 1892.5185,338.2999 1903.1485,388.5599 " fill="none" id="RegisterGreenSpaceController-to-ApplicationSession" style="stroke:#181818;stroke-width:1.0;stroke-dasharray:7.0,7.0;"/><polygon fill="#181818" points="1904.39,394.43,1906.4411,384.7971,1903.3554,389.5382,1898.6143,386.4525,1904.39,394.43" style="stroke:#181818;stroke-width:1.0;"/></g><!--link RegisterGreenSpaceController to UserSession--><g id="link_RegisterGreenSpaceController_UserSession"><path codeLine="90" d="M1746.73,109.31 C1858.3,132.19 1970.45,164.96 2004.5,208 C2152.34,394.85 2042.5796,711.0318 2000.7796,813.8518 " fill="none" id="RegisterGreenSpaceController-to-UserSession" style="stroke:#181818;stroke-width:1.0;stroke-dasharray:7.0,7.0;"/><polygon fill="#181818" points="1998.52,819.41,2005.6149,812.579,2000.403,814.7781,1998.2039,809.5662,1998.52,819.41" style="stroke:#181818;stroke-width:1.0;"/></g><!--link Repositories to Repositories--><g id="link_Repositories_Repositories"><path codeLine="92" d="M76.55,412.99 C108.24,371.29 153,379.29 153,437 C153,494.71 111.8704,507.4871 80.1804,465.7871 " fill="none" id="Repositories-to-Repositories" style="stroke:#181818;stroke-width:1.0;"/><polygon fill="#181818" points="76.55,461.01,78.8108,470.5959,79.5753,464.9909,85.1803,465.7554,76.55,461.01" style="stroke:#181818;stroke-width:1.0;"/><text fill="#000000" font-family="sans-serif" font-size="13" lengthAdjust="spacing" textLength="49" x="159" y="442.5283">instance</text></g><!--link RegisterGreenSpaceUI to RegisterGreenSpaceController--><g id="link_RegisterGreenSpaceUI_RegisterGreenSpaceController"><path codeLine="94" d="M1185.31,68 C1196.96,68 1202.61,68 1214.26,68 " fill="none" id="RegisterGreenSpaceUI-to-RegisterGreenSpaceController" style="stroke:#181818;stroke-width:1.0;stroke-dasharray:7.0,7.0;"/><polygon fill="#181818" points="1220.26,68,1211.26,64,1215.26,68,1211.26,72,1220.26,68" style="stroke:#181818;stroke-width:1.0;"/></g><!--link RegisterGreenSpaceController to Repositories--><g id="link_RegisterGreenSpaceController_Repositories"><path codeLine="96" d="M1220.44,126.26 C1214.41,127.22 1208.42,128.13 1202.5,129 C984.56,160.84 404.39,96.41 214.5,208 C133.7,255.48 89.2586,359.2498 72.1386,407.1698 " fill="none" id="RegisterGreenSpaceController-to-Repositories" style="stroke:#181818;stroke-width:1.0;stroke-dasharray:7.0,7.0;"/><polygon fill="#181818" points="70.12,412.82,76.9147,405.6904,71.8022,408.1115,69.3811,402.9989,70.12,412.82" style="stroke:#181818;stroke-width:1.0;"/><text fill="#000000" font-family="sans-serif" font-size="13" lengthAdjust="spacing" textLength="67" x="370.5" y="174.0283">repositories</text></g><!--link Repositories to GreenSpaceRepository--><g id="link_Repositories_GreenSpaceRepository"><path codeLine="98" d="M72.88,461.29 C93.85,506.12 145.26,605.33 214.5,666 C281.76,724.93 365.4343,767.6397 440.4243,798.6097 " fill="none" id="Repositories-to-GreenSpaceRepository" style="stroke:#181818;stroke-width:1.0;"/><polygon fill="#181818" points="445.97,800.9,439.1784,793.7674,441.3486,798.9914,436.1246,801.1617,445.97,800.9" style="stroke:#181818;stroke-width:1.0;"/><text fill="#000000" font-family="sans-serif" font-size="13" lengthAdjust="spacing" textLength="7" x="418.6753" y="789.8139">1</text></g><!--link Repositories to CollaboratorRepository--><g id="link_Repositories_CollaboratorRepository"><path codeLine="99" d="M118.16,437 C156.03,437 187.91,437 225.78,437 " fill="none" id="Repositories-to-CollaboratorRepository" style="stroke:#181818;stroke-width:1.0;"/><polygon fill="#181818" points="231.78,437,222.78,433,226.78,437,222.78,441,231.78,437" style="stroke:#181818;stroke-width:1.0;"/></g><!--link CollaboratorRepository to Collaborator--><g id="link_CollaboratorRepository_Collaborator"><path codeLine="100" d="M601.34,437 C612.99,437 618.64,437 630.29,437 " fill="none" id="CollaboratorRepository-to-Collaborator" style="stroke:#181818;stroke-width:1.0;"/><polygon fill="#181818" points="636.29,437,627.29,433,631.29,437,627.29,441,636.29,437" style="stroke:#181818;stroke-width:1.0;"/></g><!--link Collaborator to GreenSpace--><g id="link_Collaborator_GreenSpace"><path codeLine="102" d="M1218.5,666.19 C1218.5,693.56 1218.5,714.43 1218.5,738.86 " fill="none" id="Collaborator-to-GreenSpace" style="stroke:#181818;stroke-width:1.0;stroke-dasharray:7.0,7.0;"/><polygon fill="#181818" points="1218.5,744.86,1222.5,735.86,1218.5,739.86,1214.5,735.86,1218.5,744.86" style="stroke:#181818;stroke-width:1.0;"/></g><!--link RegisterGreenSpaceController to Collaborator--><g id="link_RegisterGreenSpaceController_Collaborator"><path codeLine="103" d="M1440.04,129.19 C1423.74,151.76 1407.602,174.1053 1386.832,202.8753 " fill="none" id="RegisterGreenSpaceController-to-Collaborator" style="stroke:#181818;stroke-width:1.0;stroke-dasharray:7.0,7.0;"/><polygon fill="#181818" points="1383.32,207.74,1391.8312,202.7842,1386.2467,203.686,1385.3449,198.1015,1383.32,207.74" style="stroke:#181818;stroke-width:1.0;"/></g><!--reverse link Collaborator to GreenSpaceRepository--><g id="link_Collaborator_GreenSpaceRepository"><path codeLine="104" d="M869.008,669.5036 C792.458,720.2136 723.5,765.89 670.76,800.82 " fill="none" id="Collaborator-backto-GreenSpaceRepository" style="stroke:#181818;stroke-width:1.0;stroke-dasharray:7.0,7.0;"/><polygon fill="#181818" points="874.01,666.19,864.2979,667.8257,869.8416,668.9513,868.716,674.495,874.01,666.19" style="stroke:#181818;stroke-width:1.0;"/></g><!--SRC=[bLR1Rjim3BthAuHUcc9ki5s38a2Q3KE6eXkQzWDactNKof8doTsoely-oh4ZsLQIDfT8V2H5FbAKpyqpbnNJhAIbaYhRQ5K2jRe6uf6APS-iWBNT2g0QCija8K85is6v-iDbGH-PC24Yk0IxhO1MIcpT9eOfRHK9W4mmOnRMQfxM5bQPacl-3-XdGiu5F5fg5TMys5YQSnSDLvAGneOkgahmZ3dH6enno2kX-Fj4ZKLnHWkmAubhcS7aeeLGjgor1cbR8qJUEfSF1lJG5neuyRUISH7gVjS0Serq0TsfNbB9IfZHDUOYYrR4DB0PpLMT8eaxaQDX5fZVuvwqXtdf97IMzFmaKHTTWXeARYpem5MnNzv1fGotIcz3So-zcD4NnNEV-Yr6CRde9TN85nYFamUPDN8NYPCFqdFuAqkDrIopRwYQSrC9jlqA5cara-xSFRjB9GHBbMOOrJ5-Kwxj9aT7p29qep8ctB9ZFozvKyr3SAwnsWENrKP9kAtB5FG00TS30vbbVoks1TqPS6bRv7hLoOJQgp-fT41ccEcWw0UIImxcbGnJIcBP9Fr4abWEoI3y98oyQpNuNUC8cAWP_Pa-uUN4AgPA2M2oLSZGj6c7CCdJpNKTvEtmVjrs_HSoS52duI9smY_FIWnkB_iOkEynvJIwUky2NtbWN_G6-Q7IaJ-ibHCtnEBYw1tmLtH_6sxmcb-5EdEQ1Jj3_36z7WkL-fNn8wHKB_118pnc_So5k5S73LUvxpdZT77h_iBPVDestav862zau-wTPqOcUOHbFplnKZMKU_LvG75qt8PpS3HQFTIqwCZtFhwxqKHVAcar9Waw4kUf6Ty5VSpjHvwCzxmxHubO2F4EBiZulQUNbtDwzkKiVBVfZDR1AqwEaZUTpcEV4ITj7ledj5HmC1G3wktTWDXzWSH2ULZHwVne8KubC3fE1zjnR8wiQ4yC5UEpXyJ50ttIKsi8ysUU9hVdgkVfQZezqD7ujKXle02PCqB-0m00]--></g></svg>