<?xml version="1.0" encoding="us-ascii" standalone="no"?><svg xmlns="http://www.w3.org/2000/svg" xmlns:xlink="http://www.w3.org/1999/xlink" contentStyleType="text/css" height="1332px" preserveAspectRatio="none" style="width:2769px;height:1332px;background:#FFFFFF;" version="1.1" viewBox="0 0 2769 1332" width="2769px" zoomAndPan="magnify"><defs/><g><!--class AssignTeamToAgendaUI--><g id="elem_AssignTeamToAgendaUI"><rect codeLine="8" fill="#F1F1F1" height="234.2109" id="AssignTeamToAgendaUI" rx="2.5" ry="2.5" style="stroke:#181818;stroke-width:0.5;" width="340" x="760.77" y="7"/><ellipse cx="848.52" cy="23" fill="#ADD1B2" rx="11" ry="11" style="stroke:#181818;stroke-width:1.0;"/><path d="M851.2856,18.875 Q851.4419,18.6563 851.6294,18.5469 Q851.8169,18.4375 852.0356,18.4375 Q852.4106,18.4375 852.645,18.7031 Q852.8794,18.9531 852.8794,19.5625 L852.8794,21.0156 Q852.8794,21.625 852.645,21.8906 Q852.4106,22.1563 852.0356,22.1563 Q851.6919,22.1563 851.4888,21.9531 Q851.2856,21.7656 851.1763,21.25 Q851.1294,20.8906 850.9419,20.7031 Q850.6138,20.3281 850.0044,20.1094 Q849.395,19.8906 848.77,19.8906 Q848.0044,19.8906 847.3638,20.2188 Q846.7388,20.5469 846.2388,21.2969 Q845.7544,22.0469 845.7544,23.0781 L845.7544,24.1719 Q845.7544,25.4063 846.645,26.2344 Q847.5356,27.0469 849.1294,27.0469 Q850.0669,27.0469 850.7231,26.7969 Q851.1138,26.6406 851.5356,26.2031 Q851.8013,25.9375 851.9419,25.8594 Q852.0981,25.7813 852.3013,25.7813 Q852.6294,25.7813 852.8794,26.0469 Q853.145,26.2969 853.145,26.6406 Q853.145,26.9844 852.8013,27.3906 Q852.3013,27.9688 851.5044,28.2969 Q850.4263,28.75 849.1294,28.75 Q847.6138,28.75 846.4106,28.125 Q845.4263,27.625 844.7388,26.5625 Q844.0513,25.4844 844.0513,24.2031 L844.0513,23.0469 Q844.0513,21.7188 844.6606,20.5781 Q845.2856,19.4219 846.3794,18.8125 Q847.4731,18.1875 848.7075,18.1875 Q849.4419,18.1875 850.0825,18.3594 Q850.7388,18.5156 851.2856,18.875 Z " fill="#000000"/><text fill="#000000" font-family="sans-serif" font-size="14" lengthAdjust="spacing" textLength="156" x="869.02" y="28.7969">AssignTeamToAgendaUI</text><line style="stroke:#181818;stroke-width:0.5;" x1="761.77" x2="1099.77" y1="39" y2="39"/><text fill="#000000" font-family="sans-serif" font-size="14" lengthAdjust="spacing" textLength="183" x="766.77" y="58.1074">-controller: AgendaController</text><text fill="#000000" font-family="sans-serif" font-size="14" lengthAdjust="spacing" textLength="117" x="766.77" y="76.7285">-scanner: Scanner</text><text fill="#000000" font-family="sans-serif" font-size="14" lengthAdjust="spacing" textLength="172" x="766.77" y="95.3496">-emailSender: EmailSender</text><text fill="#000000" font-family="sans-serif" font-size="14" lengthAdjust="spacing" textLength="246" x="766.77" y="113.9707">-agendaRepository: AgendaRepository</text><text fill="#000000" font-family="sans-serif" font-size="14" lengthAdjust="spacing" textLength="328" x="766.77" y="132.5918">-teamProposalRepository: TeamProposalRepository</text><line style="stroke:#181818;stroke-width:0.5;" x1="761.77" x2="1099.77" y1="140.1055" y2="140.1055"/><text fill="#000000" font-family="sans-serif" font-size="14" lengthAdjust="spacing" textLength="174" x="766.77" y="159.2129">+AssignTeamToAgendaUI()</text><text fill="#000000" font-family="sans-serif" font-size="14" lengthAdjust="spacing" textLength="73" x="766.77" y="177.834">+run(): void</text><text fill="#000000" font-family="sans-serif" font-size="14" lengthAdjust="spacing" textLength="191" x="766.77" y="196.4551">-selectAgendaEntry(): Agenda</text><text fill="#000000" font-family="sans-serif" font-size="14" lengthAdjust="spacing" textLength="244" x="766.77" y="215.0762">-selectTeamProposal(): TeamProposal</text><text fill="#000000" font-family="sans-serif" font-size="14" lengthAdjust="spacing" textLength="321" x="766.77" y="233.6973">-sendEmailNotifications(team: TeamProposal): void</text></g><!--class AgendaController--><g id="elem_AgendaController"><rect codeLine="22" fill="#F1F1F1" height="141.1055" id="AgendaController" rx="2.5" ry="2.5" style="stroke:#181818;stroke-width:0.5;" width="432" x="20.77" y="320"/><ellipse cx="177.02" cy="336" fill="#ADD1B2" rx="11" ry="11" style="stroke:#181818;stroke-width:1.0;"/><path d="M179.7856,331.875 Q179.9419,331.6563 180.1294,331.5469 Q180.3169,331.4375 180.5356,331.4375 Q180.9106,331.4375 181.145,331.7031 Q181.3794,331.9531 181.3794,332.5625 L181.3794,334.0156 Q181.3794,334.625 181.145,334.8906 Q180.9106,335.1563 180.5356,335.1563 Q180.1919,335.1563 179.9888,334.9531 Q179.7856,334.7656 179.6763,334.25 Q179.6294,333.8906 179.4419,333.7031 Q179.1138,333.3281 178.5044,333.1094 Q177.895,332.8906 177.27,332.8906 Q176.5044,332.8906 175.8638,333.2188 Q175.2388,333.5469 174.7388,334.2969 Q174.2544,335.0469 174.2544,336.0781 L174.2544,337.1719 Q174.2544,338.4063 175.145,339.2344 Q176.0356,340.0469 177.6294,340.0469 Q178.5669,340.0469 179.2231,339.7969 Q179.6138,339.6406 180.0356,339.2031 Q180.3013,338.9375 180.4419,338.8594 Q180.5981,338.7813 180.8013,338.7813 Q181.1294,338.7813 181.3794,339.0469 Q181.645,339.2969 181.645,339.6406 Q181.645,339.9844 181.3013,340.3906 Q180.8013,340.9688 180.0044,341.2969 Q178.9263,341.75 177.6294,341.75 Q176.1138,341.75 174.9106,341.125 Q173.9263,340.625 173.2388,339.5625 Q172.5513,338.4844 172.5513,337.2031 L172.5513,336.0469 Q172.5513,334.7188 173.1606,333.5781 Q173.7856,332.4219 174.8794,331.8125 Q175.9731,331.1875 177.2075,331.1875 Q177.9419,331.1875 178.5825,331.3594 Q179.2388,331.5156 179.7856,331.875 Z " fill="#000000"/><text fill="#000000" font-family="sans-serif" font-size="14" lengthAdjust="spacing" textLength="111" x="197.52" y="341.7969">AgendaController</text><line style="stroke:#181818;stroke-width:0.5;" x1="21.77" x2="451.77" y1="352" y2="352"/><text fill="#000000" font-family="sans-serif" font-size="14" lengthAdjust="spacing" textLength="246" x="26.77" y="371.1074">-agendaRepository: AgendaRepository</text><text fill="#000000" font-family="sans-serif" font-size="14" lengthAdjust="spacing" textLength="328" x="26.77" y="389.7285">-teamProposalRepository: TeamProposalRepository</text><line style="stroke:#181818;stroke-width:0.5;" x1="21.77" x2="451.77" y1="397.2422" y2="397.2422"/><text fill="#000000" font-family="sans-serif" font-size="14" lengthAdjust="spacing" textLength="129" x="26.77" y="416.3496">+AgendaController()</text><text fill="#000000" font-family="sans-serif" font-size="14" lengthAdjust="spacing" textLength="292" x="26.77" y="434.9707">+getAgendaEntryById(entryId: String): Agenda</text><text fill="#000000" font-family="sans-serif" font-size="14" lengthAdjust="spacing" textLength="420" x="26.77" y="453.5918">+getAvailableTeamProposals(entryId: String): List&lt;TeamProposal&gt;</text></g><!--class AgendaRepository--><g id="elem_AgendaRepository"><rect codeLine="31" fill="#F1F1F1" height="122.4844" id="AgendaRepository" rx="2.5" ry="2.5" style="stroke:#181818;stroke-width:0.5;" width="285" x="405.27" y="540"/><ellipse cx="485.02" cy="556" fill="#ADD1B2" rx="11" ry="11" style="stroke:#181818;stroke-width:1.0;"/><path d="M487.7856,551.875 Q487.9419,551.6563 488.1294,551.5469 Q488.3169,551.4375 488.5356,551.4375 Q488.9106,551.4375 489.145,551.7031 Q489.3794,551.9531 489.3794,552.5625 L489.3794,554.0156 Q489.3794,554.625 489.145,554.8906 Q488.9106,555.1563 488.5356,555.1563 Q488.1919,555.1563 487.9888,554.9531 Q487.7856,554.7656 487.6763,554.25 Q487.6294,553.8906 487.4419,553.7031 Q487.1138,553.3281 486.5044,553.1094 Q485.895,552.8906 485.27,552.8906 Q484.5044,552.8906 483.8638,553.2188 Q483.2388,553.5469 482.7388,554.2969 Q482.2544,555.0469 482.2544,556.0781 L482.2544,557.1719 Q482.2544,558.4063 483.145,559.2344 Q484.0356,560.0469 485.6294,560.0469 Q486.5669,560.0469 487.2231,559.7969 Q487.6138,559.6406 488.0356,559.2031 Q488.3013,558.9375 488.4419,558.8594 Q488.5981,558.7813 488.8013,558.7813 Q489.1294,558.7813 489.3794,559.0469 Q489.645,559.2969 489.645,559.6406 Q489.645,559.9844 489.3013,560.3906 Q488.8013,560.9688 488.0044,561.2969 Q486.9263,561.75 485.6294,561.75 Q484.1138,561.75 482.9106,561.125 Q481.9263,560.625 481.2388,559.5625 Q480.5513,558.4844 480.5513,557.2031 L480.5513,556.0469 Q480.5513,554.7188 481.1606,553.5781 Q481.7856,552.4219 482.8794,551.8125 Q483.9731,551.1875 485.2075,551.1875 Q485.9419,551.1875 486.5825,551.3594 Q487.2388,551.5156 487.7856,551.875 Z " fill="#000000"/><text fill="#000000" font-family="sans-serif" font-size="14" lengthAdjust="spacing" textLength="117" x="505.52" y="561.7969">AgendaRepository</text><line style="stroke:#181818;stroke-width:0.5;" x1="406.27" x2="689.27" y1="572" y2="572"/><text fill="#000000" font-family="sans-serif" font-size="14" lengthAdjust="spacing" textLength="155" x="411.27" y="591.1074">-agendas: List&lt;Agenda&gt;</text><line style="stroke:#181818;stroke-width:0.5;" x1="406.27" x2="689.27" y1="598.6211" y2="598.6211"/><text fill="#000000" font-family="sans-serif" font-size="14" lengthAdjust="spacing" textLength="273" x="411.27" y="617.7285">+add(agenda: Agenda): Optional&lt;Agenda&gt;</text><text fill="#000000" font-family="sans-serif" font-size="14" lengthAdjust="spacing" textLength="204" x="411.27" y="636.3496">+getAllAgendas(): List&lt;Agenda&gt;</text><text fill="#000000" font-family="sans-serif" font-size="14" lengthAdjust="spacing" textLength="250" x="411.27" y="654.9707">+findById(id: String): Optional&lt;Agenda&gt;</text></g><!--class TeamProposalRepository--><g id="elem_TeamProposalRepository"><rect codeLine="39" fill="#F1F1F1" height="122.4844" id="TeamProposalRepository" rx="2.5" ry="2.5" style="stroke:#181818;stroke-width:0.5;" width="410" x="725.77" y="540"/><ellipse cx="846.52" cy="556" fill="#ADD1B2" rx="11" ry="11" style="stroke:#181818;stroke-width:1.0;"/><path d="M849.2856,551.875 Q849.4419,551.6563 849.6294,551.5469 Q849.8169,551.4375 850.0356,551.4375 Q850.4106,551.4375 850.645,551.7031 Q850.8794,551.9531 850.8794,552.5625 L850.8794,554.0156 Q850.8794,554.625 850.645,554.8906 Q850.4106,555.1563 850.0356,555.1563 Q849.6919,555.1563 849.4888,554.9531 Q849.2856,554.7656 849.1763,554.25 Q849.1294,553.8906 848.9419,553.7031 Q848.6138,553.3281 848.0044,553.1094 Q847.395,552.8906 846.77,552.8906 Q846.0044,552.8906 845.3638,553.2188 Q844.7388,553.5469 844.2388,554.2969 Q843.7544,555.0469 843.7544,556.0781 L843.7544,557.1719 Q843.7544,558.4063 844.645,559.2344 Q845.5356,560.0469 847.1294,560.0469 Q848.0669,560.0469 848.7231,559.7969 Q849.1138,559.6406 849.5356,559.2031 Q849.8013,558.9375 849.9419,558.8594 Q850.0981,558.7813 850.3013,558.7813 Q850.6294,558.7813 850.8794,559.0469 Q851.145,559.2969 851.145,559.6406 Q851.145,559.9844 850.8013,560.3906 Q850.3013,560.9688 849.5044,561.2969 Q848.4263,561.75 847.1294,561.75 Q845.6138,561.75 844.4106,561.125 Q843.4263,560.625 842.7388,559.5625 Q842.0513,558.4844 842.0513,557.2031 L842.0513,556.0469 Q842.0513,554.7188 842.6606,553.5781 Q843.2856,552.4219 844.3794,551.8125 Q845.4731,551.1875 846.7075,551.1875 Q847.4419,551.1875 848.0825,551.3594 Q848.7388,551.5156 849.2856,551.875 Z " fill="#000000"/><text fill="#000000" font-family="sans-serif" font-size="14" lengthAdjust="spacing" textLength="160" x="867.02" y="561.7969">TeamProposalRepository</text><line style="stroke:#181818;stroke-width:0.5;" x1="726.77" x2="1134.77" y1="572" y2="572"/><text fill="#000000" font-family="sans-serif" font-size="14" lengthAdjust="spacing" textLength="237" x="731.77" y="591.1074">-teamProposals: List&lt;TeamProposal&gt;</text><line style="stroke:#181818;stroke-width:0.5;" x1="726.77" x2="1134.77" y1="598.6211" y2="598.6211"/><text fill="#000000" font-family="sans-serif" font-size="14" lengthAdjust="spacing" textLength="398" x="731.77" y="617.7285">+add(teamProposal: TeamProposal): Optional&lt;TeamProposal&gt;</text><text fill="#000000" font-family="sans-serif" font-size="14" lengthAdjust="spacing" textLength="290" x="731.77" y="636.3496">+getAllTeamProposals(): List&lt;TeamProposal&gt;</text><text fill="#000000" font-family="sans-serif" font-size="14" lengthAdjust="spacing" textLength="293" x="731.77" y="654.9707">+findById(id: String): Optional&lt;TeamProposal&gt;</text></g><!--class Repositories--><g id="elem_Repositories"><rect codeLine="49" fill="#F1F1F1" height="141.1055" id="Repositories" rx="2.5" ry="2.5" style="stroke:#181818;stroke-width:0.5;" width="378" x="741.77" y="320"/><ellipse cx="887.02" cy="336" fill="#ADD1B2" rx="11" ry="11" style="stroke:#181818;stroke-width:1.0;"/><path d="M889.7856,331.875 Q889.9419,331.6563 890.1294,331.5469 Q890.3169,331.4375 890.5356,331.4375 Q890.9106,331.4375 891.145,331.7031 Q891.3794,331.9531 891.3794,332.5625 L891.3794,334.0156 Q891.3794,334.625 891.145,334.8906 Q890.9106,335.1563 890.5356,335.1563 Q890.1919,335.1563 889.9888,334.9531 Q889.7856,334.7656 889.6763,334.25 Q889.6294,333.8906 889.4419,333.7031 Q889.1138,333.3281 888.5044,333.1094 Q887.895,332.8906 887.27,332.8906 Q886.5044,332.8906 885.8638,333.2188 Q885.2388,333.5469 884.7388,334.2969 Q884.2544,335.0469 884.2544,336.0781 L884.2544,337.1719 Q884.2544,338.4063 885.145,339.2344 Q886.0356,340.0469 887.6294,340.0469 Q888.5669,340.0469 889.2231,339.7969 Q889.6138,339.6406 890.0356,339.2031 Q890.3013,338.9375 890.4419,338.8594 Q890.5981,338.7813 890.8013,338.7813 Q891.1294,338.7813 891.3794,339.0469 Q891.645,339.2969 891.645,339.6406 Q891.645,339.9844 891.3013,340.3906 Q890.8013,340.9688 890.0044,341.2969 Q888.9263,341.75 887.6294,341.75 Q886.1138,341.75 884.9106,341.125 Q883.9263,340.625 883.2388,339.5625 Q882.5513,338.4844 882.5513,337.2031 L882.5513,336.0469 Q882.5513,334.7188 883.1606,333.5781 Q883.7856,332.4219 884.8794,331.8125 Q885.9731,331.1875 887.2075,331.1875 Q887.9419,331.1875 888.5825,331.3594 Q889.2388,331.5156 889.7856,331.875 Z " fill="#000000"/><text fill="#000000" font-family="sans-serif" font-size="14" lengthAdjust="spacing" textLength="79" x="907.52" y="341.7969">Repositories</text><line style="stroke:#181818;stroke-width:0.5;" x1="742.77" x2="1118.77" y1="352" y2="352"/><line style="stroke:#181818;stroke-width:0.5;" x1="742.77" x2="1118.77" y1="360" y2="360"/><text fill="#000000" font-family="sans-serif" font-size="14" lengthAdjust="spacing" textLength="215" x="747.77" y="379.1074">+static getInstance(): Repositories</text><text fill="#000000" font-family="sans-serif" font-size="14" lengthAdjust="spacing" textLength="296" x="747.77" y="397.7285">+getToDoListRepository(): ToDoListRepository</text><text fill="#000000" font-family="sans-serif" font-size="14" lengthAdjust="spacing" textLength="342" x="747.77" y="416.3496">+getGreenSpaceRepository(): GreenSpaceRepository</text><text fill="#000000" font-family="sans-serif" font-size="14" lengthAdjust="spacing" textLength="280" x="747.77" y="434.9707">+getAgendaRepository(): AgendaRepository</text><text fill="#000000" font-family="sans-serif" font-size="14" lengthAdjust="spacing" textLength="366" x="747.77" y="453.5918">+getTeamProposalRepository(): TeamProposalRepository</text></g><!--class UserSession--><g id="elem_UserSession"><rect codeLine="57" fill="#F1F1F1" height="66.6211" id="UserSession" rx="2.5" ry="2.5" style="stroke:#181818;stroke-width:0.5;" width="158" x="8.77" y="852.5"/><ellipse cx="44.92" cy="868.5" fill="#ADD1B2" rx="11" ry="11" style="stroke:#181818;stroke-width:1.0;"/><path d="M47.6856,864.375 Q47.8419,864.1563 48.0294,864.0469 Q48.2169,863.9375 48.4356,863.9375 Q48.8106,863.9375 49.045,864.2031 Q49.2794,864.4531 49.2794,865.0625 L49.2794,866.5156 Q49.2794,867.125 49.045,867.3906 Q48.8106,867.6563 48.4356,867.6563 Q48.0919,867.6563 47.8888,867.4531 Q47.6856,867.2656 47.5763,866.75 Q47.5294,866.3906 47.3419,866.2031 Q47.0138,865.8281 46.4044,865.6094 Q45.795,865.3906 45.17,865.3906 Q44.4044,865.3906 43.7638,865.7188 Q43.1388,866.0469 42.6388,866.7969 Q42.1544,867.5469 42.1544,868.5781 L42.1544,869.6719 Q42.1544,870.9063 43.045,871.7344 Q43.9356,872.5469 45.5294,872.5469 Q46.4669,872.5469 47.1231,872.2969 Q47.5138,872.1406 47.9356,871.7031 Q48.2013,871.4375 48.3419,871.3594 Q48.4981,871.2813 48.7013,871.2813 Q49.0294,871.2813 49.2794,871.5469 Q49.545,871.7969 49.545,872.1406 Q49.545,872.4844 49.2013,872.8906 Q48.7013,873.4688 47.9044,873.7969 Q46.8263,874.25 45.5294,874.25 Q44.0138,874.25 42.8106,873.625 Q41.8263,873.125 41.1388,872.0625 Q40.4513,870.9844 40.4513,869.7031 L40.4513,868.5469 Q40.4513,867.2188 41.0606,866.0781 Q41.6856,864.9219 42.7794,864.3125 Q43.8731,863.6875 45.1075,863.6875 Q45.8419,863.6875 46.4825,863.8594 Q47.1388,864.0156 47.6856,864.375 Z " fill="#000000"/><text fill="#000000" font-family="sans-serif" font-size="14" lengthAdjust="spacing" textLength="79" x="63.62" y="874.2969">UserSession</text><line style="stroke:#181818;stroke-width:0.5;" x1="9.77" x2="165.77" y1="884.5" y2="884.5"/><line style="stroke:#181818;stroke-width:0.5;" x1="9.77" x2="165.77" y1="892.5" y2="892.5"/><text fill="#000000" font-family="sans-serif" font-size="14" lengthAdjust="spacing" textLength="146" x="14.77" y="911.6074">+getUserEmail(): String</text></g><!--class ApplicationSession--><g id="elem_ApplicationSession"><rect codeLine="61" fill="#F1F1F1" height="85.2422" id="ApplicationSession" rx="2.5" ry="2.5" style="stroke:#181818;stroke-width:0.5;" width="267" x="103.27" y="558.5"/><ellipse cx="173.02" cy="574.5" fill="#ADD1B2" rx="11" ry="11" style="stroke:#181818;stroke-width:1.0;"/><path d="M175.7856,570.375 Q175.9419,570.1563 176.1294,570.0469 Q176.3169,569.9375 176.5356,569.9375 Q176.9106,569.9375 177.145,570.2031 Q177.3794,570.4531 177.3794,571.0625 L177.3794,572.5156 Q177.3794,573.125 177.145,573.3906 Q176.9106,573.6563 176.5356,573.6563 Q176.1919,573.6563 175.9887,573.4531 Q175.7856,573.2656 175.6762,572.75 Q175.6294,572.3906 175.4419,572.2031 Q175.1137,571.8281 174.5044,571.6094 Q173.895,571.3906 173.27,571.3906 Q172.5044,571.3906 171.8637,571.7188 Q171.2387,572.0469 170.7387,572.7969 Q170.2544,573.5469 170.2544,574.5781 L170.2544,575.6719 Q170.2544,576.9063 171.145,577.7344 Q172.0356,578.5469 173.6294,578.5469 Q174.5669,578.5469 175.2231,578.2969 Q175.6137,578.1406 176.0356,577.7031 Q176.3012,577.4375 176.4419,577.3594 Q176.5981,577.2813 176.8012,577.2813 Q177.1294,577.2813 177.3794,577.5469 Q177.645,577.7969 177.645,578.1406 Q177.645,578.4844 177.3012,578.8906 Q176.8012,579.4688 176.0044,579.7969 Q174.9262,580.25 173.6294,580.25 Q172.1137,580.25 170.9106,579.625 Q169.9262,579.125 169.2387,578.0625 Q168.5512,576.9844 168.5512,575.7031 L168.5512,574.5469 Q168.5512,573.2188 169.1606,572.0781 Q169.7856,570.9219 170.8794,570.3125 Q171.9731,569.6875 173.2075,569.6875 Q173.9419,569.6875 174.5825,569.8594 Q175.2387,570.0156 175.7856,570.375 Z " fill="#000000"/><text fill="#000000" font-family="sans-serif" font-size="14" lengthAdjust="spacing" textLength="119" x="193.52" y="580.2969">ApplicationSession</text><line style="stroke:#181818;stroke-width:0.5;" x1="104.27" x2="369.27" y1="590.5" y2="590.5"/><line style="stroke:#181818;stroke-width:0.5;" x1="104.27" x2="369.27" y1="598.5" y2="598.5"/><text fill="#000000" font-family="sans-serif" font-size="14" lengthAdjust="spacing" textLength="255" x="109.27" y="617.6074">+static getInstance(): ApplicationSession</text><text fill="#000000" font-family="sans-serif" font-size="14" lengthAdjust="spacing" textLength="223" x="109.27" y="636.2285">+getCurrentSession(): UserSession</text></g><!--class OrganizationRepository--><g id="elem_OrganizationRepository"><rect codeLine="65" fill="#F1F1F1" height="122.4844" id="OrganizationRepository" rx="2.5" ry="2.5" style="stroke:#181818;stroke-width:0.5;" width="488" x="1170.77" y="540"/><ellipse cx="1336.52" cy="556" fill="#ADD1B2" rx="11" ry="11" style="stroke:#181818;stroke-width:1.0;"/><path d="M1339.2856,551.875 Q1339.4419,551.6563 1339.6294,551.5469 Q1339.8169,551.4375 1340.0356,551.4375 Q1340.4106,551.4375 1340.645,551.7031 Q1340.8794,551.9531 1340.8794,552.5625 L1340.8794,554.0156 Q1340.8794,554.625 1340.645,554.8906 Q1340.4106,555.1563 1340.0356,555.1563 Q1339.6919,555.1563 1339.4888,554.9531 Q1339.2856,554.7656 1339.1763,554.25 Q1339.1294,553.8906 1338.9419,553.7031 Q1338.6138,553.3281 1338.0044,553.1094 Q1337.395,552.8906 1336.77,552.8906 Q1336.0044,552.8906 1335.3638,553.2188 Q1334.7388,553.5469 1334.2388,554.2969 Q1333.7544,555.0469 1333.7544,556.0781 L1333.7544,557.1719 Q1333.7544,558.4063 1334.645,559.2344 Q1335.5356,560.0469 1337.1294,560.0469 Q1338.0669,560.0469 1338.7231,559.7969 Q1339.1138,559.6406 1339.5356,559.2031 Q1339.8013,558.9375 1339.9419,558.8594 Q1340.0981,558.7813 1340.3013,558.7813 Q1340.6294,558.7813 1340.8794,559.0469 Q1341.145,559.2969 1341.145,559.6406 Q1341.145,559.9844 1340.8013,560.3906 Q1340.3013,560.9688 1339.5044,561.2969 Q1338.4263,561.75 1337.1294,561.75 Q1335.6138,561.75 1334.4106,561.125 Q1333.4263,560.625 1332.7388,559.5625 Q1332.0513,558.4844 1332.0513,557.2031 L1332.0513,556.0469 Q1332.0513,554.7188 1332.6606,553.5781 Q1333.2856,552.4219 1334.3794,551.8125 Q1335.4731,551.1875 1336.7075,551.1875 Q1337.4419,551.1875 1338.0825,551.3594 Q1338.7388,551.5156 1339.2856,551.875 Z " fill="#000000"/><text fill="#000000" font-family="sans-serif" font-size="14" lengthAdjust="spacing" textLength="148" x="1357.02" y="561.7969">OrganizationRepository</text><line style="stroke:#181818;stroke-width:0.5;" x1="1171.77" x2="1657.77" y1="572" y2="572"/><text fill="#000000" font-family="sans-serif" font-size="14" lengthAdjust="spacing" textLength="215" x="1176.77" y="591.1074">-organizations: List&lt;Organization&gt;</text><line style="stroke:#181818;stroke-width:0.5;" x1="1171.77" x2="1657.77" y1="598.6211" y2="598.6211"/><text fill="#000000" font-family="sans-serif" font-size="14" lengthAdjust="spacing" textLength="476" x="1176.77" y="617.7285">+Optional&lt;Organization&gt; getOrganizationByEmployee(Employee employee)</text><text fill="#000000" font-family="sans-serif" font-size="14" lengthAdjust="spacing" textLength="457" x="1176.77" y="636.3496">+Optional&lt;Organization&gt; getOrganizationByEmployeeEmail(String email)</text><text fill="#000000" font-family="sans-serif" font-size="14" lengthAdjust="spacing" textLength="356" x="1176.77" y="654.9707">+Optional&lt;Organization&gt; add(Organization organization)</text></g><!--class Organization--><g id="elem_Organization"><rect codeLine="72" fill="#F1F1F1" height="290.0742" id="Organization" rx="2.5" ry="2.5" style="stroke:#181818;stroke-width:0.5;" width="1251" x="597.27" y="741"/><ellipse cx="1178.52" cy="757" fill="#ADD1B2" rx="11" ry="11" style="stroke:#181818;stroke-width:1.0;"/><path d="M1181.2856,752.875 Q1181.4419,752.6563 1181.6294,752.5469 Q1181.8169,752.4375 1182.0356,752.4375 Q1182.4106,752.4375 1182.645,752.7031 Q1182.8794,752.9531 1182.8794,753.5625 L1182.8794,755.0156 Q1182.8794,755.625 1182.645,755.8906 Q1182.4106,756.1563 1182.0356,756.1563 Q1181.6919,756.1563 1181.4888,755.9531 Q1181.2856,755.7656 1181.1763,755.25 Q1181.1294,754.8906 1180.9419,754.7031 Q1180.6138,754.3281 1180.0044,754.1094 Q1179.395,753.8906 1178.77,753.8906 Q1178.0044,753.8906 1177.3638,754.2188 Q1176.7388,754.5469 1176.2388,755.2969 Q1175.7544,756.0469 1175.7544,757.0781 L1175.7544,758.1719 Q1175.7544,759.4063 1176.645,760.2344 Q1177.5356,761.0469 1179.1294,761.0469 Q1180.0669,761.0469 1180.7231,760.7969 Q1181.1138,760.6406 1181.5356,760.2031 Q1181.8013,759.9375 1181.9419,759.8594 Q1182.0981,759.7813 1182.3013,759.7813 Q1182.6294,759.7813 1182.8794,760.0469 Q1183.145,760.2969 1183.145,760.6406 Q1183.145,760.9844 1182.8013,761.3906 Q1182.3013,761.9688 1181.5044,762.2969 Q1180.4263,762.75 1179.1294,762.75 Q1177.6138,762.75 1176.4106,762.125 Q1175.4263,761.625 1174.7388,760.5625 Q1174.0513,759.4844 1174.0513,758.2031 L1174.0513,757.0469 Q1174.0513,755.7188 1174.6606,754.5781 Q1175.2856,753.4219 1176.3794,752.8125 Q1177.4731,752.1875 1178.7075,752.1875 Q1179.4419,752.1875 1180.0825,752.3594 Q1180.7388,752.5156 1181.2856,752.875 Z " fill="#000000"/><text fill="#000000" font-family="sans-serif" font-size="14" lengthAdjust="spacing" textLength="80" x="1199.02" y="762.7969">Organization</text><line style="stroke:#181818;stroke-width:0.5;" x1="598.27" x2="1847.27" y1="773" y2="773"/><text fill="#000000" font-family="sans-serif" font-size="14" lengthAdjust="spacing" textLength="85" x="603.27" y="792.1074">-name: String</text><text fill="#000000" font-family="sans-serif" font-size="14" lengthAdjust="spacing" textLength="97" x="603.27" y="810.7285">-website: String</text><text fill="#000000" font-family="sans-serif" font-size="14" lengthAdjust="spacing" textLength="90" x="603.27" y="829.3496">-phone: String</text><text fill="#000000" font-family="sans-serif" font-size="14" lengthAdjust="spacing" textLength="83" x="603.27" y="847.9707">-email: String</text><text fill="#000000" font-family="sans-serif" font-size="14" lengthAdjust="spacing" textLength="118" x="603.27" y="866.5918">-vatNumber: String</text><text fill="#000000" font-family="sans-serif" font-size="14" lengthAdjust="spacing" textLength="177" x="603.27" y="885.2129">-List&lt;Employee&gt; employees</text><text fill="#000000" font-family="sans-serif" font-size="14" lengthAdjust="spacing" textLength="111" x="603.27" y="903.834">-List&lt;Task&gt; tasks</text><line style="stroke:#181818;stroke-width:0.5;" x1="598.27" x2="1847.27" y1="911.3477" y2="911.3477"/><text fill="#000000" font-family="sans-serif" font-size="14" lengthAdjust="spacing" textLength="211" x="603.27" y="930.4551">+Organization(vatNumber: String)</text><text fill="#000000" font-family="sans-serif" font-size="14" lengthAdjust="spacing" textLength="252" x="603.27" y="949.0762">+boolean employs(Employee employee)</text><text fill="#000000" font-family="sans-serif" font-size="14" lengthAdjust="spacing" textLength="1239" x="603.27" y="967.6973">+Optional&lt;Task&gt; createTask(String reference, String description, String informalDescription, String technicalDescription, int duration, double cost, TaskCategory taskCategory, Employee employee)</text><text fill="#000000" font-family="sans-serif" font-size="14" lengthAdjust="spacing" textLength="290" x="603.27" y="986.3184">+boolean anyEmployeeHasEmail(String email)</text><text fill="#000000" font-family="sans-serif" font-size="14" lengthAdjust="spacing" textLength="286" x="603.27" y="1004.9395">+boolean addEmployee(Employee employee)</text><text fill="#000000" font-family="sans-serif" font-size="14" lengthAdjust="spacing" textLength="136" x="603.27" y="1023.5605">+Organization clone()</text></g><!--class Agenda--><g id="elem_Agenda"><rect codeLine="88" fill="#F1F1F1" height="215.5898" id="Agenda" rx="2.5" ry="2.5" style="stroke:#181818;stroke-width:0.5;" width="645" x="900.27" y="1110"/><ellipse cx="1194.02" cy="1126" fill="#ADD1B2" rx="11" ry="11" style="stroke:#181818;stroke-width:1.0;"/><path d="M1196.7856,1121.875 Q1196.9419,1121.6563 1197.1294,1121.5469 Q1197.3169,1121.4375 1197.5356,1121.4375 Q1197.9106,1121.4375 1198.145,1121.7031 Q1198.3794,1121.9531 1198.3794,1122.5625 L1198.3794,1124.0156 Q1198.3794,1124.625 1198.145,1124.8906 Q1197.9106,1125.1563 1197.5356,1125.1563 Q1197.1919,1125.1563 1196.9888,1124.9531 Q1196.7856,1124.7656 1196.6763,1124.25 Q1196.6294,1123.8906 1196.4419,1123.7031 Q1196.1138,1123.3281 1195.5044,1123.1094 Q1194.895,1122.8906 1194.27,1122.8906 Q1193.5044,1122.8906 1192.8638,1123.2188 Q1192.2388,1123.5469 1191.7388,1124.2969 Q1191.2544,1125.0469 1191.2544,1126.0781 L1191.2544,1127.1719 Q1191.2544,1128.4063 1192.145,1129.2344 Q1193.0356,1130.0469 1194.6294,1130.0469 Q1195.5669,1130.0469 1196.2231,1129.7969 Q1196.6138,1129.6406 1197.0356,1129.2031 Q1197.3013,1128.9375 1197.4419,1128.8594 Q1197.5981,1128.7813 1197.8013,1128.7813 Q1198.1294,1128.7813 1198.3794,1129.0469 Q1198.645,1129.2969 1198.645,1129.6406 Q1198.645,1129.9844 1198.3013,1130.3906 Q1197.8013,1130.9688 1197.0044,1131.2969 Q1195.9263,1131.75 1194.6294,1131.75 Q1193.1138,1131.75 1191.9106,1131.125 Q1190.9263,1130.625 1190.2388,1129.5625 Q1189.5513,1128.4844 1189.5513,1127.2031 L1189.5513,1126.0469 Q1189.5513,1124.7188 1190.1606,1123.5781 Q1190.7856,1122.4219 1191.8794,1121.8125 Q1192.9731,1121.1875 1194.2075,1121.1875 Q1194.9419,1121.1875 1195.5825,1121.3594 Q1196.2388,1121.5156 1196.7856,1121.875 Z " fill="#000000"/><text fill="#000000" font-family="sans-serif" font-size="14" lengthAdjust="spacing" textLength="49" x="1214.52" y="1131.7969">Agenda</text><line style="stroke:#181818;stroke-width:0.5;" x1="901.27" x2="1544.27" y1="1142" y2="1142"/><text fill="#000000" font-family="sans-serif" font-size="14" lengthAdjust="spacing" textLength="147" x="906.27" y="1161.1074">-taskDescription: String</text><text fill="#000000" font-family="sans-serif" font-size="14" lengthAdjust="spacing" textLength="163" x="906.27" y="1179.7285">-greenSpaceName: String</text><text fill="#000000" font-family="sans-serif" font-size="14" lengthAdjust="spacing" textLength="164" x="906.27" y="1198.3496">-expectedDate: LocalDate</text><text fill="#000000" font-family="sans-serif" font-size="14" lengthAdjust="spacing" textLength="88" x="906.27" y="1216.9707">-status: String</text><line style="stroke:#181818;stroke-width:0.5;" x1="901.27" x2="1544.27" y1="1224.4844" y2="1224.4844"/><text fill="#000000" font-family="sans-serif" font-size="14" lengthAdjust="spacing" textLength="633" x="906.27" y="1243.5918">+Agenda(taskDescription: String, greenSpaceName: String, expectedDate: LocalDate, status: String)</text><text fill="#000000" font-family="sans-serif" font-size="14" lengthAdjust="spacing" textLength="185" x="906.27" y="1262.2129">+getTaskDescription(): String</text><text fill="#000000" font-family="sans-serif" font-size="14" lengthAdjust="spacing" textLength="199" x="906.27" y="1280.834">+getGreenSpaceName(): String</text><text fill="#000000" font-family="sans-serif" font-size="14" lengthAdjust="spacing" textLength="198" x="906.27" y="1299.4551">+getExpectedDate(): LocalDate</text><text fill="#000000" font-family="sans-serif" font-size="14" lengthAdjust="spacing" textLength="123" x="906.27" y="1318.0762">+getStatus(): String</text></g><!--class EmailService--><g id="elem_EmailService"><rect codeLine="101" fill="#F1F1F1" height="66.6211" id="EmailService" rx="2.5" ry="2.5" style="stroke:#181818;stroke-width:0.5;" width="410" x="1884.77" y="357"/><ellipse cx="2045.52" cy="373" fill="#B4A7E5" rx="11" ry="11" style="stroke:#181818;stroke-width:1.0;"/><path d="M2046.4731,369.6406 L2046.4731,376.2969 L2048.1919,376.2969 Q2048.8013,376.2969 2049.0669,376.5313 Q2049.3325,376.7656 2049.3325,377.1563 Q2049.3325,377.5313 2049.0669,377.7656 Q2048.8013,378 2048.1919,378 L2043.0513,378 Q2042.4419,378 2042.1763,377.7656 Q2041.9106,377.5313 2041.9106,377.1406 Q2041.9106,376.7656 2042.1763,376.5313 Q2042.4419,376.2969 2043.0513,376.2969 L2044.77,376.2969 L2044.77,369.6406 L2043.0513,369.6406 Q2042.4419,369.6406 2042.1763,369.4063 Q2041.9106,369.1719 2041.9106,368.7813 Q2041.9106,368.4063 2042.1763,368.1719 Q2042.4419,367.9375 2043.0513,367.9375 L2048.1919,367.9375 Q2048.8013,367.9375 2049.0669,368.1719 Q2049.3325,368.4063 2049.3325,368.7813 Q2049.3325,369.1719 2049.0669,369.4063 Q2048.8013,369.6406 2048.1919,369.6406 L2046.4731,369.6406 Z " fill="#000000"/><text fill="#000000" font-family="sans-serif" font-size="14" font-style="italic" lengthAdjust="spacing" textLength="80" x="2066.02" y="378.7969">EmailService</text><line style="stroke:#181818;stroke-width:0.5;" x1="1885.77" x2="2293.77" y1="389" y2="389"/><line style="stroke:#181818;stroke-width:0.5;" x1="1885.77" x2="2293.77" y1="397" y2="397"/><text fill="#000000" font-family="sans-serif" font-size="14" lengthAdjust="spacing" textLength="398" x="1890.77" y="416.1074">+sendEmail(recipient: String, subject: String, body: String): void</text></g><!--class GmailEmailServiceAdapter--><g id="elem_GmailEmailServiceAdapter"><rect codeLine="106" fill="#F1F1F1" height="66.6211" id="GmailEmailServiceAdapter" rx="2.5" ry="2.5" style="stroke:#181818;stroke-width:0.5;" width="410" x="1884.77" y="567.5"/><ellipse cx="2002.02" cy="583.5" fill="#ADD1B2" rx="11" ry="11" style="stroke:#181818;stroke-width:1.0;"/><path d="M2004.7856,579.375 Q2004.9419,579.1563 2005.1294,579.0469 Q2005.3169,578.9375 2005.5356,578.9375 Q2005.9106,578.9375 2006.145,579.2031 Q2006.3794,579.4531 2006.3794,580.0625 L2006.3794,581.5156 Q2006.3794,582.125 2006.145,582.3906 Q2005.9106,582.6563 2005.5356,582.6563 Q2005.1919,582.6563 2004.9888,582.4531 Q2004.7856,582.2656 2004.6763,581.75 Q2004.6294,581.3906 2004.4419,581.2031 Q2004.1138,580.8281 2003.5044,580.6094 Q2002.895,580.3906 2002.27,580.3906 Q2001.5044,580.3906 2000.8638,580.7188 Q2000.2388,581.0469 1999.7388,581.7969 Q1999.2544,582.5469 1999.2544,583.5781 L1999.2544,584.6719 Q1999.2544,585.9063 2000.145,586.7344 Q2001.0356,587.5469 2002.6294,587.5469 Q2003.5669,587.5469 2004.2231,587.2969 Q2004.6138,587.1406 2005.0356,586.7031 Q2005.3013,586.4375 2005.4419,586.3594 Q2005.5981,586.2813 2005.8013,586.2813 Q2006.1294,586.2813 2006.3794,586.5469 Q2006.645,586.7969 2006.645,587.1406 Q2006.645,587.4844 2006.3013,587.8906 Q2005.8013,588.4688 2005.0044,588.7969 Q2003.9263,589.25 2002.6294,589.25 Q2001.1138,589.25 1999.9106,588.625 Q1998.9263,588.125 1998.2388,587.0625 Q1997.5513,585.9844 1997.5513,584.7031 L1997.5513,583.5469 Q1997.5513,582.2188 1998.1606,581.0781 Q1998.7856,579.9219 1999.8794,579.3125 Q2000.9731,578.6875 2002.2075,578.6875 Q2002.9419,578.6875 2003.5825,578.8594 Q2004.2388,579.0156 2004.7856,579.375 Z " fill="#000000"/><text fill="#000000" font-family="sans-serif" font-size="14" lengthAdjust="spacing" textLength="167" x="2022.52" y="589.2969">GmailEmailServiceAdapter</text><line style="stroke:#181818;stroke-width:0.5;" x1="1885.77" x2="2293.77" y1="599.5" y2="599.5"/><line style="stroke:#181818;stroke-width:0.5;" x1="1885.77" x2="2293.77" y1="607.5" y2="607.5"/><text fill="#000000" font-family="sans-serif" font-size="14" lengthAdjust="spacing" textLength="398" x="1890.77" y="626.6074">+sendEmail(recipient: String, subject: String, body: String): void</text></g><!--class GmailService--><g id="elem_GmailService"><rect codeLine="110" fill="#F1F1F1" height="66.6211" id="GmailService" rx="2.5" ry="2.5" style="stroke:#181818;stroke-width:0.5;" width="412" x="1883.77" y="852.5"/><ellipse cx="2044.02" cy="868.5" fill="#ADD1B2" rx="11" ry="11" style="stroke:#181818;stroke-width:1.0;"/><path d="M2046.7856,864.375 Q2046.9419,864.1563 2047.1294,864.0469 Q2047.3169,863.9375 2047.5356,863.9375 Q2047.9106,863.9375 2048.145,864.2031 Q2048.3794,864.4531 2048.3794,865.0625 L2048.3794,866.5156 Q2048.3794,867.125 2048.145,867.3906 Q2047.9106,867.6563 2047.5356,867.6563 Q2047.1919,867.6563 2046.9888,867.4531 Q2046.7856,867.2656 2046.6763,866.75 Q2046.6294,866.3906 2046.4419,866.2031 Q2046.1138,865.8281 2045.5044,865.6094 Q2044.895,865.3906 2044.27,865.3906 Q2043.5044,865.3906 2042.8638,865.7188 Q2042.2388,866.0469 2041.7388,866.7969 Q2041.2544,867.5469 2041.2544,868.5781 L2041.2544,869.6719 Q2041.2544,870.9063 2042.145,871.7344 Q2043.0356,872.5469 2044.6294,872.5469 Q2045.5669,872.5469 2046.2231,872.2969 Q2046.6138,872.1406 2047.0356,871.7031 Q2047.3013,871.4375 2047.4419,871.3594 Q2047.5981,871.2813 2047.8013,871.2813 Q2048.1294,871.2813 2048.3794,871.5469 Q2048.645,871.7969 2048.645,872.1406 Q2048.645,872.4844 2048.3013,872.8906 Q2047.8013,873.4688 2047.0044,873.7969 Q2045.9263,874.25 2044.6294,874.25 Q2043.1138,874.25 2041.9106,873.625 Q2040.9263,873.125 2040.2388,872.0625 Q2039.5513,870.9844 2039.5513,869.7031 L2039.5513,868.5469 Q2039.5513,867.2188 2040.1606,866.0781 Q2040.7856,864.9219 2041.8794,864.3125 Q2042.9731,863.6875 2044.2075,863.6875 Q2044.9419,863.6875 2045.5825,863.8594 Q2046.2388,864.0156 2046.7856,864.375 Z " fill="#000000"/><text fill="#000000" font-family="sans-serif" font-size="14" lengthAdjust="spacing" textLength="83" x="2064.52" y="874.2969">GmailService</text><line style="stroke:#181818;stroke-width:0.5;" x1="1884.77" x2="2294.77" y1="884.5" y2="884.5"/><line style="stroke:#181818;stroke-width:0.5;" x1="1884.77" x2="2294.77" y1="892.5" y2="892.5"/><text fill="#000000" font-family="sans-serif" font-size="14" lengthAdjust="spacing" textLength="400" x="1889.77" y="911.6074">+sendGmail(recipient: String, subject: String, body: String): void</text></g><!--class DEIEmailServiceAdapter--><g id="elem_DEIEmailServiceAdapter"><rect codeLine="115" fill="#F1F1F1" height="66.6211" id="DEIEmailServiceAdapter" rx="2.5" ry="2.5" style="stroke:#181818;stroke-width:0.5;" width="410" x="2335.77" y="567.5"/><ellipse cx="2460.02" cy="583.5" fill="#ADD1B2" rx="11" ry="11" style="stroke:#181818;stroke-width:1.0;"/><path d="M2462.7856,579.375 Q2462.9419,579.1563 2463.1294,579.0469 Q2463.3169,578.9375 2463.5356,578.9375 Q2463.9106,578.9375 2464.145,579.2031 Q2464.3794,579.4531 2464.3794,580.0625 L2464.3794,581.5156 Q2464.3794,582.125 2464.145,582.3906 Q2463.9106,582.6563 2463.5356,582.6563 Q2463.1919,582.6563 2462.9888,582.4531 Q2462.7856,582.2656 2462.6763,581.75 Q2462.6294,581.3906 2462.4419,581.2031 Q2462.1138,580.8281 2461.5044,580.6094 Q2460.895,580.3906 2460.27,580.3906 Q2459.5044,580.3906 2458.8638,580.7188 Q2458.2388,581.0469 2457.7388,581.7969 Q2457.2544,582.5469 2457.2544,583.5781 L2457.2544,584.6719 Q2457.2544,585.9063 2458.145,586.7344 Q2459.0356,587.5469 2460.6294,587.5469 Q2461.5669,587.5469 2462.2231,587.2969 Q2462.6138,587.1406 2463.0356,586.7031 Q2463.3013,586.4375 2463.4419,586.3594 Q2463.5981,586.2813 2463.8013,586.2813 Q2464.1294,586.2813 2464.3794,586.5469 Q2464.645,586.7969 2464.645,587.1406 Q2464.645,587.4844 2464.3013,587.8906 Q2463.8013,588.4688 2463.0044,588.7969 Q2461.9263,589.25 2460.6294,589.25 Q2459.1138,589.25 2457.9106,588.625 Q2456.9263,588.125 2456.2388,587.0625 Q2455.5513,585.9844 2455.5513,584.7031 L2455.5513,583.5469 Q2455.5513,582.2188 2456.1606,581.0781 Q2456.7856,579.9219 2457.8794,579.3125 Q2458.9731,578.6875 2460.2075,578.6875 Q2460.9419,578.6875 2461.5825,578.8594 Q2462.2388,579.0156 2462.7856,579.375 Z " fill="#000000"/><text fill="#000000" font-family="sans-serif" font-size="14" lengthAdjust="spacing" textLength="153" x="2480.52" y="589.2969">DEIEmailServiceAdapter</text><line style="stroke:#181818;stroke-width:0.5;" x1="2336.77" x2="2744.77" y1="599.5" y2="599.5"/><line style="stroke:#181818;stroke-width:0.5;" x1="2336.77" x2="2744.77" y1="607.5" y2="607.5"/><text fill="#000000" font-family="sans-serif" font-size="14" lengthAdjust="spacing" textLength="398" x="2341.77" y="626.6074">+sendEmail(recipient: String, subject: String, body: String): void</text></g><!--class DEIService--><g id="elem_DEIService"><rect codeLine="120" fill="#F1F1F1" height="66.6211" id="DEIService" rx="2.5" ry="2.5" style="stroke:#181818;stroke-width:0.5;" width="432" x="2330.77" y="852.5"/><ellipse cx="2508.02" cy="868.5" fill="#ADD1B2" rx="11" ry="11" style="stroke:#181818;stroke-width:1.0;"/><path d="M2510.7856,864.375 Q2510.9419,864.1563 2511.1294,864.0469 Q2511.3169,863.9375 2511.5356,863.9375 Q2511.9106,863.9375 2512.145,864.2031 Q2512.3794,864.4531 2512.3794,865.0625 L2512.3794,866.5156 Q2512.3794,867.125 2512.145,867.3906 Q2511.9106,867.6563 2511.5356,867.6563 Q2511.1919,867.6563 2510.9888,867.4531 Q2510.7856,867.2656 2510.6763,866.75 Q2510.6294,866.3906 2510.4419,866.2031 Q2510.1138,865.8281 2509.5044,865.6094 Q2508.895,865.3906 2508.27,865.3906 Q2507.5044,865.3906 2506.8638,865.7188 Q2506.2388,866.0469 2505.7388,866.7969 Q2505.2544,867.5469 2505.2544,868.5781 L2505.2544,869.6719 Q2505.2544,870.9063 2506.145,871.7344 Q2507.0356,872.5469 2508.6294,872.5469 Q2509.5669,872.5469 2510.2231,872.2969 Q2510.6138,872.1406 2511.0356,871.7031 Q2511.3013,871.4375 2511.4419,871.3594 Q2511.5981,871.2813 2511.8013,871.2813 Q2512.1294,871.2813 2512.3794,871.5469 Q2512.645,871.7969 2512.645,872.1406 Q2512.645,872.4844 2512.3013,872.8906 Q2511.8013,873.4688 2511.0044,873.7969 Q2509.9263,874.25 2508.6294,874.25 Q2507.1138,874.25 2505.9106,873.625 Q2504.9263,873.125 2504.2388,872.0625 Q2503.5513,870.9844 2503.5513,869.7031 L2503.5513,868.5469 Q2503.5513,867.2188 2504.1606,866.0781 Q2504.7856,864.9219 2505.8794,864.3125 Q2506.9731,863.6875 2508.2075,863.6875 Q2508.9419,863.6875 2509.5825,863.8594 Q2510.2388,864.0156 2510.7856,864.375 Z " fill="#000000"/><text fill="#000000" font-family="sans-serif" font-size="14" lengthAdjust="spacing" textLength="69" x="2528.52" y="874.2969">DEIService</text><line style="stroke:#181818;stroke-width:0.5;" x1="2331.77" x2="2761.77" y1="884.5" y2="884.5"/><line style="stroke:#181818;stroke-width:0.5;" x1="2331.77" x2="2761.77" y1="892.5" y2="892.5"/><text fill="#000000" font-family="sans-serif" font-size="14" lengthAdjust="spacing" textLength="420" x="2336.77" y="911.6074">+sendDEIEmail(recipient: String, subject: String, body: String): void</text></g><!--reverse link EmailService to GmailEmailServiceAdapter--><g id="link_EmailService_GmailEmailServiceAdapter"><path codeLine="125" d="M2089.77,442.08 C2089.77,481.13 2089.77,528.2 2089.77,567.31 " fill="none" id="EmailService-backto-GmailEmailServiceAdapter" style="stroke:#181818;stroke-width:1.0;stroke-dasharray:7.0,7.0;"/><polygon fill="none" points="2089.77,424.08,2083.77,442.08,2095.77,442.08,2089.77,424.08" style="stroke:#181818;stroke-width:1.0;"/></g><!--reverse link EmailService to DEIEmailServiceAdapter--><g id="link_EmailService_DEIEmailServiceAdapter"><path codeLine="126" d="M2176.5786,431.6332 C2261.1786,470.7432 2385.88,528.39 2470.43,567.48 " fill="none" id="EmailService-backto-DEIEmailServiceAdapter" style="stroke:#181818;stroke-width:1.0;stroke-dasharray:7.0,7.0;"/><polygon fill="none" points="2160.24,424.08,2174.0608,437.0794,2179.0963,426.187,2160.24,424.08" style="stroke:#181818;stroke-width:1.0;"/></g><!--link GmailEmailServiceAdapter to GmailService--><g id="link_GmailEmailServiceAdapter_GmailService"><path codeLine="128" d="M2089.77,634.74 C2089.77,689.16 2089.77,791.61 2089.77,846.12 " fill="none" id="GmailEmailServiceAdapter-to-GmailService" style="stroke:#181818;stroke-width:1.0;stroke-dasharray:7.0,7.0;"/><polygon fill="#181818" points="2089.77,852.12,2093.77,843.12,2089.77,847.12,2085.77,843.12,2089.77,852.12" style="stroke:#181818;stroke-width:1.0;"/><text fill="#000000" font-family="sans-serif" font-size="13" lengthAdjust="spacing" textLength="39" x="2090.77" y="707.0283">adapts</text></g><!--link DEIEmailServiceAdapter to DEIService--><g id="link_DEIEmailServiceAdapter_DEIService"><path codeLine="129" d="M2541.46,634.74 C2542.62,689.16 2544.7934,791.6113 2545.9434,846.1213 " fill="none" id="DEIEmailServiceAdapter-to-DEIService" style="stroke:#181818;stroke-width:1.0;stroke-dasharray:7.0,7.0;"/><polygon fill="#181818" points="2546.07,852.12,2549.8793,843.0376,2545.9645,847.1211,2541.8811,843.2064,2546.07,852.12" style="stroke:#181818;stroke-width:1.0;"/><text fill="#000000" font-family="sans-serif" font-size="13" lengthAdjust="spacing" textLength="39" x="2544.77" y="707.0283">adapts</text></g><!--link AssignTeamToAgendaUI to AgendaController--><g id="link_AssignTeamToAgendaUI_AgendaController"><path codeLine="133" d="M760.55,189.87 C657.02,229.33 530.4267,277.5833 424.7567,317.8533 " fill="none" id="AssignTeamToAgendaUI-to-AgendaController" style="stroke:#181818;stroke-width:1.0;"/><polygon fill="#181818" points="419.15,319.99,428.9844,320.5228,423.8222,318.2095,426.1356,313.0472,419.15,319.99" style="stroke:#181818;stroke-width:1.0;"/><text fill="#000000" font-family="sans-serif" font-size="13" lengthAdjust="spacing" textLength="28" x="543.77" y="286.0283">uses</text></g><!--link AssignTeamToAgendaUI to Repositories--><g id="link_AssignTeamToAgendaUI_Repositories"><path codeLine="134" d="M930.77,241.01 C930.77,267.94 930.77,289.78 930.77,313.98 " fill="none" id="AssignTeamToAgendaUI-to-Repositories" style="stroke:#181818;stroke-width:1.0;stroke-dasharray:7.0,7.0;"/><polygon fill="#181818" points="930.77,319.98,934.77,310.98,930.77,314.98,926.77,310.98,930.77,319.98" style="stroke:#181818;stroke-width:1.0;"/><text fill="#000000" font-family="sans-serif" font-size="13" lengthAdjust="spacing" textLength="49" x="931.77" y="286.0283">instance</text></g><!--link AssignTeamToAgendaUI to EmailService--><g id="link_AssignTeamToAgendaUI_EmailService"><path codeLine="135" d="M1100.85,163.81 C1329.8,216.06 1727.1904,306.755 1941.1904,355.595 " fill="none" id="AssignTeamToAgendaUI-to-EmailService" style="stroke:#181818;stroke-width:1.0;"/><polygon fill="#181818" points="1947.04,356.93,1939.1556,351.0277,1942.1653,355.8175,1937.3756,358.8272,1947.04,356.93" style="stroke:#181818;stroke-width:1.0;"/><text fill="#000000" font-family="sans-serif" font-size="13" lengthAdjust="spacing" textLength="28" x="1649.77" y="286.0283">uses</text></g><!--link Repositories to AgendaRepository--><g id="link_Repositories_AgendaRepository"><path codeLine="136" d="M802.97,461.07 C756.09,486.59 708.7299,512.3715 663.4999,536.9915 " fill="none" id="Repositories-to-AgendaRepository" style="stroke:#181818;stroke-width:1.0;"/><polygon fill="#181818" points="658.23,539.86,668.0472,539.0704,662.6216,537.4695,664.2224,532.0439,658.23,539.86" style="stroke:#181818;stroke-width:1.0;"/><text fill="#000000" font-family="sans-serif" font-size="13" lengthAdjust="spacing" textLength="28" x="740.77" y="506.0283">uses</text></g><!--link Repositories to OrganizationRepository--><g id="link_Repositories_OrganizationRepository"><path codeLine="137" d="M1092.27,461.07 C1151.51,486.59 1212.5094,512.8665 1269.6694,537.4865 " fill="none" id="Repositories-to-OrganizationRepository" style="stroke:#181818;stroke-width:1.0;"/><polygon fill="#181818" points="1275.18,539.86,1268.4965,532.626,1270.5879,537.8821,1265.3318,539.9734,1275.18,539.86" style="stroke:#181818;stroke-width:1.0;"/></g><!--link OrganizationRepository to Organization--><g id="link_OrganizationRepository_Organization"><path codeLine="138" d="M1374.05,662.02 C1358.26,685.3 1342.7992,708.0853 1323.8792,735.9653 " fill="none" id="OrganizationRepository-to-Organization" style="stroke:#181818;stroke-width:1.0;"/><polygon fill="#181818" points="1320.51,740.93,1328.8736,735.729,1323.3177,736.7927,1322.2539,731.2368,1320.51,740.93" style="stroke:#181818;stroke-width:1.0;"/></g><!--link Repositories to TeamProposalRepository--><g id="link_Repositories_TeamProposalRepository"><path codeLine="139" d="M930.77,461.22 C930.77,486.67 930.77,509.22 930.77,533.77 " fill="none" id="Repositories-to-TeamProposalRepository" style="stroke:#181818;stroke-width:1.0;"/><polygon fill="#181818" points="930.77,539.77,934.77,530.77,930.77,534.77,926.77,530.77,930.77,539.77" style="stroke:#181818;stroke-width:1.0;"/><text fill="#000000" font-family="sans-serif" font-size="13" lengthAdjust="spacing" textLength="28" x="931.77" y="506.0283">uses</text></g><!--link Organization to Agenda--><g id="link_Organization_Agenda"><path codeLine="140" d="M1222.77,1031.26 C1222.77,1057.62 1222.77,1078.7 1222.77,1103.75 " fill="none" id="Organization-to-Agenda" style="stroke:#181818;stroke-width:1.0;"/><polygon fill="#181818" points="1222.77,1109.75,1226.77,1100.75,1222.77,1104.75,1218.77,1100.75,1222.77,1109.75" style="stroke:#181818;stroke-width:1.0;"/><text fill="#000000" font-family="sans-serif" font-size="13" lengthAdjust="spacing" textLength="119" x="1223.77" y="1076.0283">owns agenda entries</text></g><!--link ApplicationSession to UserSession--><g id="link_ApplicationSession_UserSession"><path codeLine="141" d="M214.78,643.76 C184.91,700.49 134.9255,795.441 107.7655,847.021 " fill="none" id="ApplicationSession-to-UserSession" style="stroke:#181818;stroke-width:1.0;"/><polygon fill="#181818" points="104.97,852.33,112.7026,846.2302,107.2996,847.9059,105.6239,842.5029,104.97,852.33" style="stroke:#181818;stroke-width:1.0;"/><text fill="#000000" font-family="sans-serif" font-size="13" lengthAdjust="spacing" textLength="72" x="189.77" y="707.0283">userSession</text></g><!--link AgendaController to ApplicationSession--><g id="link_AgendaController_ApplicationSession"><path codeLine="142" d="M236.77,461.22 C236.77,493.42 236.77,524.57 236.77,552.33 " fill="none" id="AgendaController-to-ApplicationSession" style="stroke:#181818;stroke-width:1.0;stroke-dasharray:7.0,7.0;"/><polygon fill="#181818" points="236.77,558.33,240.77,549.33,236.77,553.33,232.77,549.33,236.77,558.33" style="stroke:#181818;stroke-width:1.0;"/><text fill="#000000" font-family="sans-serif" font-size="13" lengthAdjust="spacing" textLength="28" x="237.77" y="506.0283">uses</text></g><!--link AgendaController to UserSession--><g id="link_AgendaController_UserSession"><path codeLine="143" d="M120.75,461.12 C94.59,482.86 70.28,509.32 55.77,540 C6,645.22 47.6086,782.8752 71.9386,846.5552 " fill="none" id="AgendaController-to-UserSession" style="stroke:#181818;stroke-width:1.0;stroke-dasharray:7.0,7.0;"/><polygon fill="#181818" points="74.08,852.16,74.6044,842.3251,72.2955,847.4893,67.1313,845.1803,74.08,852.16" style="stroke:#181818;stroke-width:1.0;"/><text fill="#000000" font-family="sans-serif" font-size="13" lengthAdjust="spacing" textLength="28" x="56.77" y="606.5283">uses</text></g><!--SRC=[jLVDRjiu4BxhANXR6NM2det2G1eRgO4YNQpT1w2biS8DJGeadQoxk- - -GrAYI8b2WsxhWq4Dv-URRqRaI3ypqL95pwIbrJDjO6-k78Y2ob3HS2XqKD1Fj9QlJ3JaHBcETpWJOAuja5Rogtt8xKbbP2IlEDNwpXZ5ZXS3kqgAFVi6v7rHk1rofpLhn07e-I3l6X0r_ReZVnS4VpS4jOsId8DQ4Rzv7oITYgwe47P_xnUT6CwKyJrQsAtjyD1jK-Vi3sYbPaQgQ-z-a7IA1e7zhYHAAO_L3rbvuQpUPPCg5zsckeXoiI8lajLz3i2n3bvnY_bTxRv_J3JYe5ObVWwAedRfFah3JgoYXacXIvj6gjyZ-3SKOiHlACAlvceKD_3KG4p9n-kkBi6kTZKM6_j9D2bBtk85SwT73d5GdJ7ypBJv42kjnrGCK4TKwCxQgwtxH6XTbrwXXuLXlhIs09G7vG4fvrwcoyN8eTSvCL6xh5cCU-8meCxJ7B37rT7P_ACyOkL9tmG8gNcSMSf-dkutPJcfK9zjo921xd9yHxJ1VgyiXft0jQZ0nevL1vG7kP4MrK2LUwKcqi7YGG68FPwVaDhavECUJYsoBv17bItY-6MFB4FvlsfGUy23Huh01pgqOdSWM1-UtwZHsvPtPyJOD4_br628T7zH2j-pJcwr8qWOquVyeXegs3Vd8jEbCjhkkpGs2LqQEYJPjJXYmSVhzjnoUGKe-mLU3Nwn-45FdarFfRzdlkF9lb2n94boaMKcy27e6KBTlEWLZaZQMDe-IJ6MEN0ZsGirZvVpqTsOiTmntQUu3YJfUFj0zVEQ6FpNeGmHw7BYkoVcA2K7AZgl-WsryA4g1TI0NVTyApW1Tba5oou4gK5NYZcx86FY9DMPyarcpq3r9B27qqqc3AalYlgdMbxm2i7nGvibiU7l4KPZ-zH43qiocqUVC1MXRJvHFTyvGR-ktz2mSQDK7EjU3btaZvRXr4UyKQAZeZVXv7gSzXdyrUBC0VM6scRxB2rbkEm73JmVBZgO99TvEHDrEHDmEHThEGeJZGQ7D4HqkcNEQniifx6DmhfRAadIgUmTWFJmn6O1TKA__MIfNXW-T4Td6C5AdAvPo_1C71BLb-EV678G76LzZIw-VYRxZMm0hqOWvWdmZbJQO6_G5kCIR6toOFrt5NVh6CXTf_WJyIHmN42YaJexOHA6xGbdzEeQCWQL8URXfnAZ0RyGweIPpNRNGS3LBsOb1OFnlaCAQcGewN7-Fo2xFg33ee3xA_I9jRf8klJ3FxUtipsJKStJM1IpRNTxkqxBl_85qiLCHQn1H4rGnr_sw_3cPZtzMbcHYyRRAcTW_IVZuWgFUp_Jp0VOfXauvucJ0KKqnimfvgUUOcOO6bjC_StC-btuv88OSEAsV1Mw-ueXzfl8JiIP8T3QnFEaynj6kGdtbk2CbxuaEVM9Trty1m00]--></g></svg>