<?xml version="1.0" encoding="us-ascii" standalone="no"?><svg xmlns="http://www.w3.org/2000/svg" xmlns:xlink="http://www.w3.org/1999/xlink" contentStyleType="text/css" height="1692px" preserveAspectRatio="none" style="width:2544px;height:1692px;background:#FFFFFF;" version="1.1" viewBox="0 0 2544 1692" width="2544px" zoomAndPan="magnify"><defs/><g><!--class AssignTeamToAgendaUI--><g id="elem_AssignTeamToAgendaUI"><rect codeLine="8" fill="#F1F1F1" height="234.2109" id="AssignTeamToAgendaUI" rx="2.5" ry="2.5" style="stroke:#181818;stroke-width:0.5;" width="340" x="522" y="7"/><ellipse cx="609.75" cy="23" fill="#ADD1B2" rx="11" ry="11" style="stroke:#181818;stroke-width:1.0;"/><path d="M612.5156,18.875 Q612.6719,18.6563 612.8594,18.5469 Q613.0469,18.4375 613.2656,18.4375 Q613.6406,18.4375 613.875,18.7031 Q614.1094,18.9531 614.1094,19.5625 L614.1094,21.0156 Q614.1094,21.625 613.875,21.8906 Q613.6406,22.1563 613.2656,22.1563 Q612.9219,22.1563 612.7188,21.9531 Q612.5156,21.7656 612.4063,21.25 Q612.3594,20.8906 612.1719,20.7031 Q611.8438,20.3281 611.2344,20.1094 Q610.625,19.8906 610,19.8906 Q609.2344,19.8906 608.5938,20.2188 Q607.9688,20.5469 607.4688,21.2969 Q606.9844,22.0469 606.9844,23.0781 L606.9844,24.1719 Q606.9844,25.4063 607.875,26.2344 Q608.7656,27.0469 610.3594,27.0469 Q611.2969,27.0469 611.9531,26.7969 Q612.3438,26.6406 612.7656,26.2031 Q613.0313,25.9375 613.1719,25.8594 Q613.3281,25.7813 613.5313,25.7813 Q613.8594,25.7813 614.1094,26.0469 Q614.375,26.2969 614.375,26.6406 Q614.375,26.9844 614.0313,27.3906 Q613.5313,27.9688 612.7344,28.2969 Q611.6563,28.75 610.3594,28.75 Q608.8438,28.75 607.6406,28.125 Q606.6563,27.625 605.9688,26.5625 Q605.2813,25.4844 605.2813,24.2031 L605.2813,23.0469 Q605.2813,21.7188 605.8906,20.5781 Q606.5156,19.4219 607.6094,18.8125 Q608.7031,18.1875 609.9375,18.1875 Q610.6719,18.1875 611.3125,18.3594 Q611.9688,18.5156 612.5156,18.875 Z " fill="#000000"/><text fill="#000000" font-family="sans-serif" font-size="14" lengthAdjust="spacing" textLength="156" x="630.25" y="28.7969">AssignTeamToAgendaUI</text><line style="stroke:#181818;stroke-width:0.5;" x1="523" x2="861" y1="39" y2="39"/><text fill="#000000" font-family="sans-serif" font-size="14" lengthAdjust="spacing" textLength="183" x="528" y="58.1074">-controller: AgendaController</text><text fill="#000000" font-family="sans-serif" font-size="14" lengthAdjust="spacing" textLength="117" x="528" y="76.7285">-scanner: Scanner</text><text fill="#000000" font-family="sans-serif" font-size="14" lengthAdjust="spacing" textLength="172" x="528" y="95.3496">-emailSender: EmailSender</text><text fill="#000000" font-family="sans-serif" font-size="14" lengthAdjust="spacing" textLength="246" x="528" y="113.9707">-agendaRepository: AgendaRepository</text><text fill="#000000" font-family="sans-serif" font-size="14" lengthAdjust="spacing" textLength="328" x="528" y="132.5918">-teamProposalRepository: TeamProposalRepository</text><line style="stroke:#181818;stroke-width:0.5;" x1="523" x2="861" y1="140.1055" y2="140.1055"/><text fill="#000000" font-family="sans-serif" font-size="14" lengthAdjust="spacing" textLength="174" x="528" y="159.2129">+AssignTeamToAgendaUI()</text><text fill="#000000" font-family="sans-serif" font-size="14" lengthAdjust="spacing" textLength="73" x="528" y="177.834">+run(): void</text><text fill="#000000" font-family="sans-serif" font-size="14" lengthAdjust="spacing" textLength="191" x="528" y="196.4551">-selectAgendaEntry(): Agenda</text><text fill="#000000" font-family="sans-serif" font-size="14" lengthAdjust="spacing" textLength="244" x="528" y="215.0762">-selectTeamProposal(): TeamProposal</text><text fill="#000000" font-family="sans-serif" font-size="14" lengthAdjust="spacing" textLength="321" x="528" y="233.6973">-sendEmailNotifications(team: TeamProposal): void</text></g><!--class AgendaController--><g id="elem_AgendaController"><rect codeLine="22" fill="#F1F1F1" height="141.1055" id="AgendaController" rx="2.5" ry="2.5" style="stroke:#181818;stroke-width:0.5;" width="432" x="36" y="320"/><ellipse cx="192.25" cy="336" fill="#ADD1B2" rx="11" ry="11" style="stroke:#181818;stroke-width:1.0;"/><path d="M195.0156,331.875 Q195.1719,331.6563 195.3594,331.5469 Q195.5469,331.4375 195.7656,331.4375 Q196.1406,331.4375 196.375,331.7031 Q196.6094,331.9531 196.6094,332.5625 L196.6094,334.0156 Q196.6094,334.625 196.375,334.8906 Q196.1406,335.1563 195.7656,335.1563 Q195.4219,335.1563 195.2188,334.9531 Q195.0156,334.7656 194.9063,334.25 Q194.8594,333.8906 194.6719,333.7031 Q194.3438,333.3281 193.7344,333.1094 Q193.125,332.8906 192.5,332.8906 Q191.7344,332.8906 191.0938,333.2188 Q190.4688,333.5469 189.9688,334.2969 Q189.4844,335.0469 189.4844,336.0781 L189.4844,337.1719 Q189.4844,338.4063 190.375,339.2344 Q191.2656,340.0469 192.8594,340.0469 Q193.7969,340.0469 194.4531,339.7969 Q194.8438,339.6406 195.2656,339.2031 Q195.5313,338.9375 195.6719,338.8594 Q195.8281,338.7813 196.0313,338.7813 Q196.3594,338.7813 196.6094,339.0469 Q196.875,339.2969 196.875,339.6406 Q196.875,339.9844 196.5313,340.3906 Q196.0313,340.9688 195.2344,341.2969 Q194.1563,341.75 192.8594,341.75 Q191.3438,341.75 190.1406,341.125 Q189.1563,340.625 188.4688,339.5625 Q187.7813,338.4844 187.7813,337.2031 L187.7813,336.0469 Q187.7813,334.7188 188.3906,333.5781 Q189.0156,332.4219 190.1094,331.8125 Q191.2031,331.1875 192.4375,331.1875 Q193.1719,331.1875 193.8125,331.3594 Q194.4688,331.5156 195.0156,331.875 Z " fill="#000000"/><text fill="#000000" font-family="sans-serif" font-size="14" lengthAdjust="spacing" textLength="111" x="212.75" y="341.7969">AgendaController</text><line style="stroke:#181818;stroke-width:0.5;" x1="37" x2="467" y1="352" y2="352"/><text fill="#000000" font-family="sans-serif" font-size="14" lengthAdjust="spacing" textLength="246" x="42" y="371.1074">-agendaRepository: AgendaRepository</text><text fill="#000000" font-family="sans-serif" font-size="14" lengthAdjust="spacing" textLength="328" x="42" y="389.7285">-teamProposalRepository: TeamProposalRepository</text><line style="stroke:#181818;stroke-width:0.5;" x1="37" x2="467" y1="397.2422" y2="397.2422"/><text fill="#000000" font-family="sans-serif" font-size="14" lengthAdjust="spacing" textLength="129" x="42" y="416.3496">+AgendaController()</text><text fill="#000000" font-family="sans-serif" font-size="14" lengthAdjust="spacing" textLength="292" x="42" y="434.9707">+getAgendaEntryById(entryId: String): Agenda</text><text fill="#000000" font-family="sans-serif" font-size="14" lengthAdjust="spacing" textLength="420" x="42" y="453.5918">+getAvailableTeamProposals(entryId: String): List&lt;TeamProposal&gt;</text></g><!--class AgendaRepository--><g id="elem_AgendaRepository"><rect codeLine="31" fill="#F1F1F1" height="122.4844" id="AgendaRepository" rx="2.5" ry="2.5" style="stroke:#181818;stroke-width:0.5;" width="285" x="196.5" y="692"/><ellipse cx="276.25" cy="708" fill="#ADD1B2" rx="11" ry="11" style="stroke:#181818;stroke-width:1.0;"/><path d="M279.0156,703.875 Q279.1719,703.6563 279.3594,703.5469 Q279.5469,703.4375 279.7656,703.4375 Q280.1406,703.4375 280.375,703.7031 Q280.6094,703.9531 280.6094,704.5625 L280.6094,706.0156 Q280.6094,706.625 280.375,706.8906 Q280.1406,707.1563 279.7656,707.1563 Q279.4219,707.1563 279.2188,706.9531 Q279.0156,706.7656 278.9063,706.25 Q278.8594,705.8906 278.6719,705.7031 Q278.3438,705.3281 277.7344,705.1094 Q277.125,704.8906 276.5,704.8906 Q275.7344,704.8906 275.0938,705.2188 Q274.4688,705.5469 273.9688,706.2969 Q273.4844,707.0469 273.4844,708.0781 L273.4844,709.1719 Q273.4844,710.4063 274.375,711.2344 Q275.2656,712.0469 276.8594,712.0469 Q277.7969,712.0469 278.4531,711.7969 Q278.8438,711.6406 279.2656,711.2031 Q279.5313,710.9375 279.6719,710.8594 Q279.8281,710.7813 280.0313,710.7813 Q280.3594,710.7813 280.6094,711.0469 Q280.875,711.2969 280.875,711.6406 Q280.875,711.9844 280.5313,712.3906 Q280.0313,712.9688 279.2344,713.2969 Q278.1563,713.75 276.8594,713.75 Q275.3438,713.75 274.1406,713.125 Q273.1563,712.625 272.4688,711.5625 Q271.7813,710.4844 271.7813,709.2031 L271.7813,708.0469 Q271.7813,706.7188 272.3906,705.5781 Q273.0156,704.4219 274.1094,703.8125 Q275.2031,703.1875 276.4375,703.1875 Q277.1719,703.1875 277.8125,703.3594 Q278.4688,703.5156 279.0156,703.875 Z " fill="#000000"/><text fill="#000000" font-family="sans-serif" font-size="14" lengthAdjust="spacing" textLength="117" x="296.75" y="713.7969">AgendaRepository</text><line style="stroke:#181818;stroke-width:0.5;" x1="197.5" x2="480.5" y1="724" y2="724"/><text fill="#000000" font-family="sans-serif" font-size="14" lengthAdjust="spacing" textLength="155" x="202.5" y="743.1074">-agendas: List&lt;Agenda&gt;</text><line style="stroke:#181818;stroke-width:0.5;" x1="197.5" x2="480.5" y1="750.6211" y2="750.6211"/><text fill="#000000" font-family="sans-serif" font-size="14" lengthAdjust="spacing" textLength="273" x="202.5" y="769.7285">+add(agenda: Agenda): Optional&lt;Agenda&gt;</text><text fill="#000000" font-family="sans-serif" font-size="14" lengthAdjust="spacing" textLength="204" x="202.5" y="788.3496">+getAllAgendas(): List&lt;Agenda&gt;</text><text fill="#000000" font-family="sans-serif" font-size="14" lengthAdjust="spacing" textLength="250" x="202.5" y="806.9707">+findById(id: String): Optional&lt;Agenda&gt;</text></g><!--class TeamProposalRepository--><g id="elem_TeamProposalRepository"><rect codeLine="39" fill="#F1F1F1" height="122.4844" id="TeamProposalRepository" rx="2.5" ry="2.5" style="stroke:#181818;stroke-width:0.5;" width="410" x="487" y="692"/><ellipse cx="607.75" cy="708" fill="#ADD1B2" rx="11" ry="11" style="stroke:#181818;stroke-width:1.0;"/><path d="M610.5156,703.875 Q610.6719,703.6563 610.8594,703.5469 Q611.0469,703.4375 611.2656,703.4375 Q611.6406,703.4375 611.875,703.7031 Q612.1094,703.9531 612.1094,704.5625 L612.1094,706.0156 Q612.1094,706.625 611.875,706.8906 Q611.6406,707.1563 611.2656,707.1563 Q610.9219,707.1563 610.7188,706.9531 Q610.5156,706.7656 610.4063,706.25 Q610.3594,705.8906 610.1719,705.7031 Q609.8438,705.3281 609.2344,705.1094 Q608.625,704.8906 608,704.8906 Q607.2344,704.8906 606.5938,705.2188 Q605.9688,705.5469 605.4688,706.2969 Q604.9844,707.0469 604.9844,708.0781 L604.9844,709.1719 Q604.9844,710.4063 605.875,711.2344 Q606.7656,712.0469 608.3594,712.0469 Q609.2969,712.0469 609.9531,711.7969 Q610.3438,711.6406 610.7656,711.2031 Q611.0313,710.9375 611.1719,710.8594 Q611.3281,710.7813 611.5313,710.7813 Q611.8594,710.7813 612.1094,711.0469 Q612.375,711.2969 612.375,711.6406 Q612.375,711.9844 612.0313,712.3906 Q611.5313,712.9688 610.7344,713.2969 Q609.6563,713.75 608.3594,713.75 Q606.8438,713.75 605.6406,713.125 Q604.6563,712.625 603.9688,711.5625 Q603.2813,710.4844 603.2813,709.2031 L603.2813,708.0469 Q603.2813,706.7188 603.8906,705.5781 Q604.5156,704.4219 605.6094,703.8125 Q606.7031,703.1875 607.9375,703.1875 Q608.6719,703.1875 609.3125,703.3594 Q609.9688,703.5156 610.5156,703.875 Z " fill="#000000"/><text fill="#000000" font-family="sans-serif" font-size="14" lengthAdjust="spacing" textLength="160" x="628.25" y="713.7969">TeamProposalRepository</text><line style="stroke:#181818;stroke-width:0.5;" x1="488" x2="896" y1="724" y2="724"/><text fill="#000000" font-family="sans-serif" font-size="14" lengthAdjust="spacing" textLength="237" x="493" y="743.1074">-teamProposals: List&lt;TeamProposal&gt;</text><line style="stroke:#181818;stroke-width:0.5;" x1="488" x2="896" y1="750.6211" y2="750.6211"/><text fill="#000000" font-family="sans-serif" font-size="14" lengthAdjust="spacing" textLength="398" x="493" y="769.7285">+add(teamProposal: TeamProposal): Optional&lt;TeamProposal&gt;</text><text fill="#000000" font-family="sans-serif" font-size="14" lengthAdjust="spacing" textLength="290" x="493" y="788.3496">+getAllTeamProposals(): List&lt;TeamProposal&gt;</text><text fill="#000000" font-family="sans-serif" font-size="14" lengthAdjust="spacing" textLength="293" x="493" y="806.9707">+findById(id: String): Optional&lt;TeamProposal&gt;</text></g><!--class Repositories--><g id="elem_Repositories"><rect codeLine="49" fill="#F1F1F1" height="141.1055" id="Repositories" rx="2.5" ry="2.5" style="stroke:#181818;stroke-width:0.5;" width="378" x="503" y="320"/><ellipse cx="648.25" cy="336" fill="#ADD1B2" rx="11" ry="11" style="stroke:#181818;stroke-width:1.0;"/><path d="M651.0156,331.875 Q651.1719,331.6563 651.3594,331.5469 Q651.5469,331.4375 651.7656,331.4375 Q652.1406,331.4375 652.375,331.7031 Q652.6094,331.9531 652.6094,332.5625 L652.6094,334.0156 Q652.6094,334.625 652.375,334.8906 Q652.1406,335.1563 651.7656,335.1563 Q651.4219,335.1563 651.2188,334.9531 Q651.0156,334.7656 650.9063,334.25 Q650.8594,333.8906 650.6719,333.7031 Q650.3438,333.3281 649.7344,333.1094 Q649.125,332.8906 648.5,332.8906 Q647.7344,332.8906 647.0938,333.2188 Q646.4688,333.5469 645.9688,334.2969 Q645.4844,335.0469 645.4844,336.0781 L645.4844,337.1719 Q645.4844,338.4063 646.375,339.2344 Q647.2656,340.0469 648.8594,340.0469 Q649.7969,340.0469 650.4531,339.7969 Q650.8438,339.6406 651.2656,339.2031 Q651.5313,338.9375 651.6719,338.8594 Q651.8281,338.7813 652.0313,338.7813 Q652.3594,338.7813 652.6094,339.0469 Q652.875,339.2969 652.875,339.6406 Q652.875,339.9844 652.5313,340.3906 Q652.0313,340.9688 651.2344,341.2969 Q650.1563,341.75 648.8594,341.75 Q647.3438,341.75 646.1406,341.125 Q645.1563,340.625 644.4688,339.5625 Q643.7813,338.4844 643.7813,337.2031 L643.7813,336.0469 Q643.7813,334.7188 644.3906,333.5781 Q645.0156,332.4219 646.1094,331.8125 Q647.2031,331.1875 648.4375,331.1875 Q649.1719,331.1875 649.8125,331.3594 Q650.4688,331.5156 651.0156,331.875 Z " fill="#000000"/><text fill="#000000" font-family="sans-serif" font-size="14" lengthAdjust="spacing" textLength="79" x="668.75" y="341.7969">Repositories</text><line style="stroke:#181818;stroke-width:0.5;" x1="504" x2="880" y1="352" y2="352"/><line style="stroke:#181818;stroke-width:0.5;" x1="504" x2="880" y1="360" y2="360"/><text fill="#000000" font-family="sans-serif" font-size="14" lengthAdjust="spacing" textLength="215" x="509" y="379.1074">+static getInstance(): Repositories</text><text fill="#000000" font-family="sans-serif" font-size="14" lengthAdjust="spacing" textLength="296" x="509" y="397.7285">+getToDoListRepository(): ToDoListRepository</text><text fill="#000000" font-family="sans-serif" font-size="14" lengthAdjust="spacing" textLength="342" x="509" y="416.3496">+getGreenSpaceRepository(): GreenSpaceRepository</text><text fill="#000000" font-family="sans-serif" font-size="14" lengthAdjust="spacing" textLength="280" x="509" y="434.9707">+getAgendaRepository(): AgendaRepository</text><text fill="#000000" font-family="sans-serif" font-size="14" lengthAdjust="spacing" textLength="366" x="509" y="453.5918">+getTeamProposalRepository(): TeamProposalRepository</text></g><!--class UserSession--><g id="elem_UserSession"><rect codeLine="57" fill="#F1F1F1" height="66.6211" id="UserSession" rx="2.5" ry="2.5" style="stroke:#181818;stroke-width:0.5;" width="158" x="7" y="955.5"/><ellipse cx="43.15" cy="971.5" fill="#ADD1B2" rx="11" ry="11" style="stroke:#181818;stroke-width:1.0;"/><path d="M45.9156,967.375 Q46.0719,967.1563 46.2594,967.0469 Q46.4469,966.9375 46.6656,966.9375 Q47.0406,966.9375 47.275,967.2031 Q47.5094,967.4531 47.5094,968.0625 L47.5094,969.5156 Q47.5094,970.125 47.275,970.3906 Q47.0406,970.6563 46.6656,970.6563 Q46.3219,970.6563 46.1188,970.4531 Q45.9156,970.2656 45.8063,969.75 Q45.7594,969.3906 45.5719,969.2031 Q45.2438,968.8281 44.6344,968.6094 Q44.025,968.3906 43.4,968.3906 Q42.6344,968.3906 41.9938,968.7188 Q41.3688,969.0469 40.8688,969.7969 Q40.3844,970.5469 40.3844,971.5781 L40.3844,972.6719 Q40.3844,973.9063 41.275,974.7344 Q42.1656,975.5469 43.7594,975.5469 Q44.6969,975.5469 45.3531,975.2969 Q45.7438,975.1406 46.1656,974.7031 Q46.4313,974.4375 46.5719,974.3594 Q46.7281,974.2813 46.9313,974.2813 Q47.2594,974.2813 47.5094,974.5469 Q47.775,974.7969 47.775,975.1406 Q47.775,975.4844 47.4313,975.8906 Q46.9313,976.4688 46.1344,976.7969 Q45.0563,977.25 43.7594,977.25 Q42.2438,977.25 41.0406,976.625 Q40.0563,976.125 39.3688,975.0625 Q38.6813,973.9844 38.6813,972.7031 L38.6813,971.5469 Q38.6813,970.2188 39.2906,969.0781 Q39.9156,967.9219 41.0094,967.3125 Q42.1031,966.6875 43.3375,966.6875 Q44.0719,966.6875 44.7125,966.8594 Q45.3688,967.0156 45.9156,967.375 Z " fill="#000000"/><text fill="#000000" font-family="sans-serif" font-size="14" lengthAdjust="spacing" textLength="79" x="61.85" y="977.2969">UserSession</text><line style="stroke:#181818;stroke-width:0.5;" x1="8" x2="164" y1="987.5" y2="987.5"/><line style="stroke:#181818;stroke-width:0.5;" x1="8" x2="164" y1="995.5" y2="995.5"/><text fill="#000000" font-family="sans-serif" font-size="14" lengthAdjust="spacing" textLength="146" x="13" y="1014.6074">+getUserEmail(): String</text></g><!--class ApplicationSession--><g id="elem_ApplicationSession"><rect codeLine="61" fill="#F1F1F1" height="85.2422" id="ApplicationSession" rx="2.5" ry="2.5" style="stroke:#181818;stroke-width:0.5;" width="267" x="122.5" y="558.5"/><ellipse cx="192.25" cy="574.5" fill="#ADD1B2" rx="11" ry="11" style="stroke:#181818;stroke-width:1.0;"/><path d="M195.0156,570.375 Q195.1719,570.1563 195.3594,570.0469 Q195.5469,569.9375 195.7656,569.9375 Q196.1406,569.9375 196.375,570.2031 Q196.6094,570.4531 196.6094,571.0625 L196.6094,572.5156 Q196.6094,573.125 196.375,573.3906 Q196.1406,573.6563 195.7656,573.6563 Q195.4219,573.6563 195.2188,573.4531 Q195.0156,573.2656 194.9063,572.75 Q194.8594,572.3906 194.6719,572.2031 Q194.3438,571.8281 193.7344,571.6094 Q193.125,571.3906 192.5,571.3906 Q191.7344,571.3906 191.0938,571.7188 Q190.4688,572.0469 189.9688,572.7969 Q189.4844,573.5469 189.4844,574.5781 L189.4844,575.6719 Q189.4844,576.9063 190.375,577.7344 Q191.2656,578.5469 192.8594,578.5469 Q193.7969,578.5469 194.4531,578.2969 Q194.8438,578.1406 195.2656,577.7031 Q195.5313,577.4375 195.6719,577.3594 Q195.8281,577.2813 196.0313,577.2813 Q196.3594,577.2813 196.6094,577.5469 Q196.875,577.7969 196.875,578.1406 Q196.875,578.4844 196.5313,578.8906 Q196.0313,579.4688 195.2344,579.7969 Q194.1563,580.25 192.8594,580.25 Q191.3438,580.25 190.1406,579.625 Q189.1563,579.125 188.4688,578.0625 Q187.7813,576.9844 187.7813,575.7031 L187.7813,574.5469 Q187.7813,573.2188 188.3906,572.0781 Q189.0156,570.9219 190.1094,570.3125 Q191.2031,569.6875 192.4375,569.6875 Q193.1719,569.6875 193.8125,569.8594 Q194.4688,570.0156 195.0156,570.375 Z " fill="#000000"/><text fill="#000000" font-family="sans-serif" font-size="14" lengthAdjust="spacing" textLength="119" x="212.75" y="580.2969">ApplicationSession</text><line style="stroke:#181818;stroke-width:0.5;" x1="123.5" x2="388.5" y1="590.5" y2="590.5"/><line style="stroke:#181818;stroke-width:0.5;" x1="123.5" x2="388.5" y1="598.5" y2="598.5"/><text fill="#000000" font-family="sans-serif" font-size="14" lengthAdjust="spacing" textLength="255" x="128.5" y="617.6074">+static getInstance(): ApplicationSession</text><text fill="#000000" font-family="sans-serif" font-size="14" lengthAdjust="spacing" textLength="223" x="128.5" y="636.2285">+getCurrentSession(): UserSession</text></g><!--class OrganizationRepository--><g id="elem_OrganizationRepository"><rect codeLine="65" fill="#F1F1F1" height="122.4844" id="OrganizationRepository" rx="2.5" ry="2.5" style="stroke:#181818;stroke-width:0.5;" width="488" x="747" y="540"/><ellipse cx="912.75" cy="556" fill="#ADD1B2" rx="11" ry="11" style="stroke:#181818;stroke-width:1.0;"/><path d="M915.5156,551.875 Q915.6719,551.6563 915.8594,551.5469 Q916.0469,551.4375 916.2656,551.4375 Q916.6406,551.4375 916.875,551.7031 Q917.1094,551.9531 917.1094,552.5625 L917.1094,554.0156 Q917.1094,554.625 916.875,554.8906 Q916.6406,555.1563 916.2656,555.1563 Q915.9219,555.1563 915.7188,554.9531 Q915.5156,554.7656 915.4063,554.25 Q915.3594,553.8906 915.1719,553.7031 Q914.8438,553.3281 914.2344,553.1094 Q913.625,552.8906 913,552.8906 Q912.2344,552.8906 911.5938,553.2188 Q910.9688,553.5469 910.4688,554.2969 Q909.9844,555.0469 909.9844,556.0781 L909.9844,557.1719 Q909.9844,558.4063 910.875,559.2344 Q911.7656,560.0469 913.3594,560.0469 Q914.2969,560.0469 914.9531,559.7969 Q915.3438,559.6406 915.7656,559.2031 Q916.0313,558.9375 916.1719,558.8594 Q916.3281,558.7813 916.5313,558.7813 Q916.8594,558.7813 917.1094,559.0469 Q917.375,559.2969 917.375,559.6406 Q917.375,559.9844 917.0313,560.3906 Q916.5313,560.9688 915.7344,561.2969 Q914.6563,561.75 913.3594,561.75 Q911.8438,561.75 910.6406,561.125 Q909.6563,560.625 908.9688,559.5625 Q908.2813,558.4844 908.2813,557.2031 L908.2813,556.0469 Q908.2813,554.7188 908.8906,553.5781 Q909.5156,552.4219 910.6094,551.8125 Q911.7031,551.1875 912.9375,551.1875 Q913.6719,551.1875 914.3125,551.3594 Q914.9688,551.5156 915.5156,551.875 Z " fill="#000000"/><text fill="#000000" font-family="sans-serif" font-size="14" lengthAdjust="spacing" textLength="148" x="933.25" y="561.7969">OrganizationRepository</text><line style="stroke:#181818;stroke-width:0.5;" x1="748" x2="1234" y1="572" y2="572"/><text fill="#000000" font-family="sans-serif" font-size="14" lengthAdjust="spacing" textLength="215" x="753" y="591.1074">-organizations: List&lt;Organization&gt;</text><line style="stroke:#181818;stroke-width:0.5;" x1="748" x2="1234" y1="598.6211" y2="598.6211"/><text fill="#000000" font-family="sans-serif" font-size="14" lengthAdjust="spacing" textLength="476" x="753" y="617.7285">+Optional&lt;Organization&gt; getOrganizationByEmployee(Employee employee)</text><text fill="#000000" font-family="sans-serif" font-size="14" lengthAdjust="spacing" textLength="457" x="753" y="636.3496">+Optional&lt;Organization&gt; getOrganizationByEmployeeEmail(String email)</text><text fill="#000000" font-family="sans-serif" font-size="14" lengthAdjust="spacing" textLength="356" x="753" y="654.9707">+Optional&lt;Organization&gt; add(Organization organization)</text></g><!--class Organization--><g id="elem_Organization"><rect codeLine="72" fill="#F1F1F1" height="290.0742" id="Organization" rx="2.5" ry="2.5" style="stroke:#181818;stroke-width:0.5;" width="1251" x="371.5" y="844"/><ellipse cx="952.75" cy="860" fill="#ADD1B2" rx="11" ry="11" style="stroke:#181818;stroke-width:1.0;"/><path d="M955.5156,855.875 Q955.6719,855.6563 955.8594,855.5469 Q956.0469,855.4375 956.2656,855.4375 Q956.6406,855.4375 956.875,855.7031 Q957.1094,855.9531 957.1094,856.5625 L957.1094,858.0156 Q957.1094,858.625 956.875,858.8906 Q956.6406,859.1563 956.2656,859.1563 Q955.9219,859.1563 955.7188,858.9531 Q955.5156,858.7656 955.4063,858.25 Q955.3594,857.8906 955.1719,857.7031 Q954.8438,857.3281 954.2344,857.1094 Q953.625,856.8906 953,856.8906 Q952.2344,856.8906 951.5938,857.2188 Q950.9688,857.5469 950.4688,858.2969 Q949.9844,859.0469 949.9844,860.0781 L949.9844,861.1719 Q949.9844,862.4063 950.875,863.2344 Q951.7656,864.0469 953.3594,864.0469 Q954.2969,864.0469 954.9531,863.7969 Q955.3438,863.6406 955.7656,863.2031 Q956.0313,862.9375 956.1719,862.8594 Q956.3281,862.7813 956.5313,862.7813 Q956.8594,862.7813 957.1094,863.0469 Q957.375,863.2969 957.375,863.6406 Q957.375,863.9844 957.0313,864.3906 Q956.5313,864.9688 955.7344,865.2969 Q954.6563,865.75 953.3594,865.75 Q951.8438,865.75 950.6406,865.125 Q949.6563,864.625 948.9688,863.5625 Q948.2813,862.4844 948.2813,861.2031 L948.2813,860.0469 Q948.2813,858.7188 948.8906,857.5781 Q949.5156,856.4219 950.6094,855.8125 Q951.7031,855.1875 952.9375,855.1875 Q953.6719,855.1875 954.3125,855.3594 Q954.9688,855.5156 955.5156,855.875 Z " fill="#000000"/><text fill="#000000" font-family="sans-serif" font-size="14" lengthAdjust="spacing" textLength="80" x="973.25" y="865.7969">Organization</text><line style="stroke:#181818;stroke-width:0.5;" x1="372.5" x2="1621.5" y1="876" y2="876"/><text fill="#000000" font-family="sans-serif" font-size="14" lengthAdjust="spacing" textLength="85" x="377.5" y="895.1074">-name: String</text><text fill="#000000" font-family="sans-serif" font-size="14" lengthAdjust="spacing" textLength="97" x="377.5" y="913.7285">-website: String</text><text fill="#000000" font-family="sans-serif" font-size="14" lengthAdjust="spacing" textLength="90" x="377.5" y="932.3496">-phone: String</text><text fill="#000000" font-family="sans-serif" font-size="14" lengthAdjust="spacing" textLength="83" x="377.5" y="950.9707">-email: String</text><text fill="#000000" font-family="sans-serif" font-size="14" lengthAdjust="spacing" textLength="118" x="377.5" y="969.5918">-vatNumber: String</text><text fill="#000000" font-family="sans-serif" font-size="14" lengthAdjust="spacing" textLength="177" x="377.5" y="988.2129">-List&lt;Employee&gt; employees</text><text fill="#000000" font-family="sans-serif" font-size="14" lengthAdjust="spacing" textLength="111" x="377.5" y="1006.834">-List&lt;Task&gt; tasks</text><line style="stroke:#181818;stroke-width:0.5;" x1="372.5" x2="1621.5" y1="1014.3477" y2="1014.3477"/><text fill="#000000" font-family="sans-serif" font-size="14" lengthAdjust="spacing" textLength="211" x="377.5" y="1033.4551">+Organization(vatNumber: String)</text><text fill="#000000" font-family="sans-serif" font-size="14" lengthAdjust="spacing" textLength="252" x="377.5" y="1052.0762">+boolean employs(Employee employee)</text><text fill="#000000" font-family="sans-serif" font-size="14" lengthAdjust="spacing" textLength="1239" x="377.5" y="1070.6973">+Optional&lt;Task&gt; createTask(String reference, String description, String informalDescription, String technicalDescription, int duration, double cost, TaskCategory taskCategory, Employee employee)</text><text fill="#000000" font-family="sans-serif" font-size="14" lengthAdjust="spacing" textLength="290" x="377.5" y="1089.3184">+boolean anyEmployeeHasEmail(String email)</text><text fill="#000000" font-family="sans-serif" font-size="14" lengthAdjust="spacing" textLength="286" x="377.5" y="1107.9395">+boolean addEmployee(Employee employee)</text><text fill="#000000" font-family="sans-serif" font-size="14" lengthAdjust="spacing" textLength="136" x="377.5" y="1126.5605">+Organization clone()</text></g><!--class Agenda--><g id="elem_Agenda"><rect codeLine="88" fill="#F1F1F1" height="215.5898" id="Agenda" rx="2.5" ry="2.5" style="stroke:#181818;stroke-width:0.5;" width="645" x="290.5" y="1470"/><ellipse cx="584.25" cy="1486" fill="#ADD1B2" rx="11" ry="11" style="stroke:#181818;stroke-width:1.0;"/><path d="M587.0156,1481.875 Q587.1719,1481.6563 587.3594,1481.5469 Q587.5469,1481.4375 587.7656,1481.4375 Q588.1406,1481.4375 588.375,1481.7031 Q588.6094,1481.9531 588.6094,1482.5625 L588.6094,1484.0156 Q588.6094,1484.625 588.375,1484.8906 Q588.1406,1485.1563 587.7656,1485.1563 Q587.4219,1485.1563 587.2188,1484.9531 Q587.0156,1484.7656 586.9063,1484.25 Q586.8594,1483.8906 586.6719,1483.7031 Q586.3438,1483.3281 585.7344,1483.1094 Q585.125,1482.8906 584.5,1482.8906 Q583.7344,1482.8906 583.0938,1483.2188 Q582.4688,1483.5469 581.9688,1484.2969 Q581.4844,1485.0469 581.4844,1486.0781 L581.4844,1487.1719 Q581.4844,1488.4063 582.375,1489.2344 Q583.2656,1490.0469 584.8594,1490.0469 Q585.7969,1490.0469 586.4531,1489.7969 Q586.8438,1489.6406 587.2656,1489.2031 Q587.5313,1488.9375 587.6719,1488.8594 Q587.8281,1488.7813 588.0313,1488.7813 Q588.3594,1488.7813 588.6094,1489.0469 Q588.875,1489.2969 588.875,1489.6406 Q588.875,1489.9844 588.5313,1490.3906 Q588.0313,1490.9688 587.2344,1491.2969 Q586.1563,1491.75 584.8594,1491.75 Q583.3438,1491.75 582.1406,1491.125 Q581.1563,1490.625 580.4688,1489.5625 Q579.7813,1488.4844 579.7813,1487.2031 L579.7813,1486.0469 Q579.7813,1484.7188 580.3906,1483.5781 Q581.0156,1482.4219 582.1094,1481.8125 Q583.2031,1481.1875 584.4375,1481.1875 Q585.1719,1481.1875 585.8125,1481.3594 Q586.4688,1481.5156 587.0156,1481.875 Z " fill="#000000"/><text fill="#000000" font-family="sans-serif" font-size="14" lengthAdjust="spacing" textLength="49" x="604.75" y="1491.7969">Agenda</text><line style="stroke:#181818;stroke-width:0.5;" x1="291.5" x2="934.5" y1="1502" y2="1502"/><text fill="#000000" font-family="sans-serif" font-size="14" lengthAdjust="spacing" textLength="147" x="296.5" y="1521.1074">-taskDescription: String</text><text fill="#000000" font-family="sans-serif" font-size="14" lengthAdjust="spacing" textLength="163" x="296.5" y="1539.7285">-greenSpaceName: String</text><text fill="#000000" font-family="sans-serif" font-size="14" lengthAdjust="spacing" textLength="164" x="296.5" y="1558.3496">-expectedDate: LocalDate</text><text fill="#000000" font-family="sans-serif" font-size="14" lengthAdjust="spacing" textLength="88" x="296.5" y="1576.9707">-status: String</text><line style="stroke:#181818;stroke-width:0.5;" x1="291.5" x2="934.5" y1="1584.4844" y2="1584.4844"/><text fill="#000000" font-family="sans-serif" font-size="14" lengthAdjust="spacing" textLength="633" x="296.5" y="1603.5918">+Agenda(taskDescription: String, greenSpaceName: String, expectedDate: LocalDate, status: String)</text><text fill="#000000" font-family="sans-serif" font-size="14" lengthAdjust="spacing" textLength="185" x="296.5" y="1622.2129">+getTaskDescription(): String</text><text fill="#000000" font-family="sans-serif" font-size="14" lengthAdjust="spacing" textLength="199" x="296.5" y="1640.834">+getGreenSpaceName(): String</text><text fill="#000000" font-family="sans-serif" font-size="14" lengthAdjust="spacing" textLength="198" x="296.5" y="1659.4551">+getExpectedDate(): LocalDate</text><text fill="#000000" font-family="sans-serif" font-size="14" lengthAdjust="spacing" textLength="123" x="296.5" y="1678.0762">+getStatus(): String</text></g><!--class EmailService--><g id="elem_EmailService"><rect codeLine="101" fill="#F1F1F1" height="66.6211" id="EmailService" rx="2.5" ry="2.5" style="stroke:#181818;stroke-width:0.5;" width="410" x="1659" y="357"/><ellipse cx="1819.75" cy="373" fill="#B4A7E5" rx="11" ry="11" style="stroke:#181818;stroke-width:1.0;"/><path d="M1820.7031,369.6406 L1820.7031,376.2969 L1822.4219,376.2969 Q1823.0313,376.2969 1823.2969,376.5313 Q1823.5625,376.7656 1823.5625,377.1563 Q1823.5625,377.5313 1823.2969,377.7656 Q1823.0313,378 1822.4219,378 L1817.2813,378 Q1816.6719,378 1816.4063,377.7656 Q1816.1406,377.5313 1816.1406,377.1406 Q1816.1406,376.7656 1816.4063,376.5313 Q1816.6719,376.2969 1817.2813,376.2969 L1819,376.2969 L1819,369.6406 L1817.2813,369.6406 Q1816.6719,369.6406 1816.4063,369.4063 Q1816.1406,369.1719 1816.1406,368.7813 Q1816.1406,368.4063 1816.4063,368.1719 Q1816.6719,367.9375 1817.2813,367.9375 L1822.4219,367.9375 Q1823.0313,367.9375 1823.2969,368.1719 Q1823.5625,368.4063 1823.5625,368.7813 Q1823.5625,369.1719 1823.2969,369.4063 Q1823.0313,369.6406 1822.4219,369.6406 L1820.7031,369.6406 Z " fill="#000000"/><text fill="#000000" font-family="sans-serif" font-size="14" font-style="italic" lengthAdjust="spacing" textLength="80" x="1840.25" y="378.7969">EmailService</text><line style="stroke:#181818;stroke-width:0.5;" x1="1660" x2="2068" y1="389" y2="389"/><line style="stroke:#181818;stroke-width:0.5;" x1="1660" x2="2068" y1="397" y2="397"/><text fill="#000000" font-family="sans-serif" font-size="14" lengthAdjust="spacing" textLength="398" x="1665" y="416.1074">+sendEmail(recipient: String, subject: String, body: String): void</text></g><!--class GmailEmailServiceAdapter--><g id="elem_GmailEmailServiceAdapter"><rect codeLine="106" fill="#F1F1F1" height="66.6211" id="GmailEmailServiceAdapter" rx="2.5" ry="2.5" style="stroke:#181818;stroke-width:0.5;" width="410" x="1659" y="567.5"/><ellipse cx="1776.25" cy="583.5" fill="#ADD1B2" rx="11" ry="11" style="stroke:#181818;stroke-width:1.0;"/><path d="M1779.0156,579.375 Q1779.1719,579.1563 1779.3594,579.0469 Q1779.5469,578.9375 1779.7656,578.9375 Q1780.1406,578.9375 1780.375,579.2031 Q1780.6094,579.4531 1780.6094,580.0625 L1780.6094,581.5156 Q1780.6094,582.125 1780.375,582.3906 Q1780.1406,582.6563 1779.7656,582.6563 Q1779.4219,582.6563 1779.2188,582.4531 Q1779.0156,582.2656 1778.9063,581.75 Q1778.8594,581.3906 1778.6719,581.2031 Q1778.3438,580.8281 1777.7344,580.6094 Q1777.125,580.3906 1776.5,580.3906 Q1775.7344,580.3906 1775.0938,580.7188 Q1774.4688,581.0469 1773.9688,581.7969 Q1773.4844,582.5469 1773.4844,583.5781 L1773.4844,584.6719 Q1773.4844,585.9063 1774.375,586.7344 Q1775.2656,587.5469 1776.8594,587.5469 Q1777.7969,587.5469 1778.4531,587.2969 Q1778.8438,587.1406 1779.2656,586.7031 Q1779.5313,586.4375 1779.6719,586.3594 Q1779.8281,586.2813 1780.0313,586.2813 Q1780.3594,586.2813 1780.6094,586.5469 Q1780.875,586.7969 1780.875,587.1406 Q1780.875,587.4844 1780.5313,587.8906 Q1780.0313,588.4688 1779.2344,588.7969 Q1778.1563,589.25 1776.8594,589.25 Q1775.3438,589.25 1774.1406,588.625 Q1773.1563,588.125 1772.4688,587.0625 Q1771.7813,585.9844 1771.7813,584.7031 L1771.7813,583.5469 Q1771.7813,582.2188 1772.3906,581.0781 Q1773.0156,579.9219 1774.1094,579.3125 Q1775.2031,578.6875 1776.4375,578.6875 Q1777.1719,578.6875 1777.8125,578.8594 Q1778.4688,579.0156 1779.0156,579.375 Z " fill="#000000"/><text fill="#000000" font-family="sans-serif" font-size="14" lengthAdjust="spacing" textLength="167" x="1796.75" y="589.2969">GmailEmailServiceAdapter</text><line style="stroke:#181818;stroke-width:0.5;" x1="1660" x2="2068" y1="599.5" y2="599.5"/><line style="stroke:#181818;stroke-width:0.5;" x1="1660" x2="2068" y1="607.5" y2="607.5"/><text fill="#000000" font-family="sans-serif" font-size="14" lengthAdjust="spacing" textLength="398" x="1665" y="626.6074">+sendEmail(recipient: String, subject: String, body: String): void</text></g><!--class GmailService--><g id="elem_GmailService"><rect codeLine="110" fill="#F1F1F1" height="66.6211" id="GmailService" rx="2.5" ry="2.5" style="stroke:#181818;stroke-width:0.5;" width="412" x="1658" y="955.5"/><ellipse cx="1818.25" cy="971.5" fill="#ADD1B2" rx="11" ry="11" style="stroke:#181818;stroke-width:1.0;"/><path d="M1821.0156,967.375 Q1821.1719,967.1563 1821.3594,967.0469 Q1821.5469,966.9375 1821.7656,966.9375 Q1822.1406,966.9375 1822.375,967.2031 Q1822.6094,967.4531 1822.6094,968.0625 L1822.6094,969.5156 Q1822.6094,970.125 1822.375,970.3906 Q1822.1406,970.6563 1821.7656,970.6563 Q1821.4219,970.6563 1821.2188,970.4531 Q1821.0156,970.2656 1820.9063,969.75 Q1820.8594,969.3906 1820.6719,969.2031 Q1820.3438,968.8281 1819.7344,968.6094 Q1819.125,968.3906 1818.5,968.3906 Q1817.7344,968.3906 1817.0938,968.7188 Q1816.4688,969.0469 1815.9688,969.7969 Q1815.4844,970.5469 1815.4844,971.5781 L1815.4844,972.6719 Q1815.4844,973.9063 1816.375,974.7344 Q1817.2656,975.5469 1818.8594,975.5469 Q1819.7969,975.5469 1820.4531,975.2969 Q1820.8438,975.1406 1821.2656,974.7031 Q1821.5313,974.4375 1821.6719,974.3594 Q1821.8281,974.2813 1822.0313,974.2813 Q1822.3594,974.2813 1822.6094,974.5469 Q1822.875,974.7969 1822.875,975.1406 Q1822.875,975.4844 1822.5313,975.8906 Q1822.0313,976.4688 1821.2344,976.7969 Q1820.1563,977.25 1818.8594,977.25 Q1817.3438,977.25 1816.1406,976.625 Q1815.1563,976.125 1814.4688,975.0625 Q1813.7813,973.9844 1813.7813,972.7031 L1813.7813,971.5469 Q1813.7813,970.2188 1814.3906,969.0781 Q1815.0156,967.9219 1816.1094,967.3125 Q1817.2031,966.6875 1818.4375,966.6875 Q1819.1719,966.6875 1819.8125,966.8594 Q1820.4688,967.0156 1821.0156,967.375 Z " fill="#000000"/><text fill="#000000" font-family="sans-serif" font-size="14" lengthAdjust="spacing" textLength="83" x="1838.75" y="977.2969">GmailService</text><line style="stroke:#181818;stroke-width:0.5;" x1="1659" x2="2069" y1="987.5" y2="987.5"/><line style="stroke:#181818;stroke-width:0.5;" x1="1659" x2="2069" y1="995.5" y2="995.5"/><text fill="#000000" font-family="sans-serif" font-size="14" lengthAdjust="spacing" textLength="400" x="1664" y="1014.6074">+sendGmail(recipient: String, subject: String, body: String): void</text></g><!--class DEIEmailServiceAdapter--><g id="elem_DEIEmailServiceAdapter"><rect codeLine="115" fill="#F1F1F1" height="66.6211" id="DEIEmailServiceAdapter" rx="2.5" ry="2.5" style="stroke:#181818;stroke-width:0.5;" width="410" x="2110" y="567.5"/><ellipse cx="2234.25" cy="583.5" fill="#ADD1B2" rx="11" ry="11" style="stroke:#181818;stroke-width:1.0;"/><path d="M2237.0156,579.375 Q2237.1719,579.1563 2237.3594,579.0469 Q2237.5469,578.9375 2237.7656,578.9375 Q2238.1406,578.9375 2238.375,579.2031 Q2238.6094,579.4531 2238.6094,580.0625 L2238.6094,581.5156 Q2238.6094,582.125 2238.375,582.3906 Q2238.1406,582.6563 2237.7656,582.6563 Q2237.4219,582.6563 2237.2188,582.4531 Q2237.0156,582.2656 2236.9063,581.75 Q2236.8594,581.3906 2236.6719,581.2031 Q2236.3438,580.8281 2235.7344,580.6094 Q2235.125,580.3906 2234.5,580.3906 Q2233.7344,580.3906 2233.0938,580.7188 Q2232.4688,581.0469 2231.9688,581.7969 Q2231.4844,582.5469 2231.4844,583.5781 L2231.4844,584.6719 Q2231.4844,585.9063 2232.375,586.7344 Q2233.2656,587.5469 2234.8594,587.5469 Q2235.7969,587.5469 2236.4531,587.2969 Q2236.8438,587.1406 2237.2656,586.7031 Q2237.5313,586.4375 2237.6719,586.3594 Q2237.8281,586.2813 2238.0313,586.2813 Q2238.3594,586.2813 2238.6094,586.5469 Q2238.875,586.7969 2238.875,587.1406 Q2238.875,587.4844 2238.5313,587.8906 Q2238.0313,588.4688 2237.2344,588.7969 Q2236.1563,589.25 2234.8594,589.25 Q2233.3438,589.25 2232.1406,588.625 Q2231.1563,588.125 2230.4688,587.0625 Q2229.7813,585.9844 2229.7813,584.7031 L2229.7813,583.5469 Q2229.7813,582.2188 2230.3906,581.0781 Q2231.0156,579.9219 2232.1094,579.3125 Q2233.2031,578.6875 2234.4375,578.6875 Q2235.1719,578.6875 2235.8125,578.8594 Q2236.4688,579.0156 2237.0156,579.375 Z " fill="#000000"/><text fill="#000000" font-family="sans-serif" font-size="14" lengthAdjust="spacing" textLength="153" x="2254.75" y="589.2969">DEIEmailServiceAdapter</text><line style="stroke:#181818;stroke-width:0.5;" x1="2111" x2="2519" y1="599.5" y2="599.5"/><line style="stroke:#181818;stroke-width:0.5;" x1="2111" x2="2519" y1="607.5" y2="607.5"/><text fill="#000000" font-family="sans-serif" font-size="14" lengthAdjust="spacing" textLength="398" x="2116" y="626.6074">+sendEmail(recipient: String, subject: String, body: String): void</text></g><!--class DEIService--><g id="elem_DEIService"><rect codeLine="120" fill="#F1F1F1" height="66.6211" id="DEIService" rx="2.5" ry="2.5" style="stroke:#181818;stroke-width:0.5;" width="432" x="2105" y="955.5"/><ellipse cx="2282.25" cy="971.5" fill="#ADD1B2" rx="11" ry="11" style="stroke:#181818;stroke-width:1.0;"/><path d="M2285.0156,967.375 Q2285.1719,967.1563 2285.3594,967.0469 Q2285.5469,966.9375 2285.7656,966.9375 Q2286.1406,966.9375 2286.375,967.2031 Q2286.6094,967.4531 2286.6094,968.0625 L2286.6094,969.5156 Q2286.6094,970.125 2286.375,970.3906 Q2286.1406,970.6563 2285.7656,970.6563 Q2285.4219,970.6563 2285.2188,970.4531 Q2285.0156,970.2656 2284.9063,969.75 Q2284.8594,969.3906 2284.6719,969.2031 Q2284.3438,968.8281 2283.7344,968.6094 Q2283.125,968.3906 2282.5,968.3906 Q2281.7344,968.3906 2281.0938,968.7188 Q2280.4688,969.0469 2279.9688,969.7969 Q2279.4844,970.5469 2279.4844,971.5781 L2279.4844,972.6719 Q2279.4844,973.9063 2280.375,974.7344 Q2281.2656,975.5469 2282.8594,975.5469 Q2283.7969,975.5469 2284.4531,975.2969 Q2284.8438,975.1406 2285.2656,974.7031 Q2285.5313,974.4375 2285.6719,974.3594 Q2285.8281,974.2813 2286.0313,974.2813 Q2286.3594,974.2813 2286.6094,974.5469 Q2286.875,974.7969 2286.875,975.1406 Q2286.875,975.4844 2286.5313,975.8906 Q2286.0313,976.4688 2285.2344,976.7969 Q2284.1563,977.25 2282.8594,977.25 Q2281.3438,977.25 2280.1406,976.625 Q2279.1563,976.125 2278.4688,975.0625 Q2277.7813,973.9844 2277.7813,972.7031 L2277.7813,971.5469 Q2277.7813,970.2188 2278.3906,969.0781 Q2279.0156,967.9219 2280.1094,967.3125 Q2281.2031,966.6875 2282.4375,966.6875 Q2283.1719,966.6875 2283.8125,966.8594 Q2284.4688,967.0156 2285.0156,967.375 Z " fill="#000000"/><text fill="#000000" font-family="sans-serif" font-size="14" lengthAdjust="spacing" textLength="69" x="2302.75" y="977.2969">DEIService</text><line style="stroke:#181818;stroke-width:0.5;" x1="2106" x2="2536" y1="987.5" y2="987.5"/><line style="stroke:#181818;stroke-width:0.5;" x1="2106" x2="2536" y1="995.5" y2="995.5"/><text fill="#000000" font-family="sans-serif" font-size="14" lengthAdjust="spacing" textLength="420" x="2111" y="1014.6074">+sendDEIEmail(recipient: String, subject: String, body: String): void</text></g><!--class TeamProposal--><g id="elem_TeamProposal"><rect codeLine="123" fill="#F1F1F1" height="178.3477" id="TeamProposal" rx="2.5" ry="2.5" style="stroke:#181818;stroke-width:0.5;" width="394" x="416" y="1213"/><ellipse cx="562.75" cy="1229" fill="#ADD1B2" rx="11" ry="11" style="stroke:#181818;stroke-width:1.0;"/><path d="M565.5156,1224.875 Q565.6719,1224.6563 565.8594,1224.5469 Q566.0469,1224.4375 566.2656,1224.4375 Q566.6406,1224.4375 566.875,1224.7031 Q567.1094,1224.9531 567.1094,1225.5625 L567.1094,1227.0156 Q567.1094,1227.625 566.875,1227.8906 Q566.6406,1228.1563 566.2656,1228.1563 Q565.9219,1228.1563 565.7188,1227.9531 Q565.5156,1227.7656 565.4063,1227.25 Q565.3594,1226.8906 565.1719,1226.7031 Q564.8438,1226.3281 564.2344,1226.1094 Q563.625,1225.8906 563,1225.8906 Q562.2344,1225.8906 561.5938,1226.2188 Q560.9688,1226.5469 560.4688,1227.2969 Q559.9844,1228.0469 559.9844,1229.0781 L559.9844,1230.1719 Q559.9844,1231.4063 560.875,1232.2344 Q561.7656,1233.0469 563.3594,1233.0469 Q564.2969,1233.0469 564.9531,1232.7969 Q565.3438,1232.6406 565.7656,1232.2031 Q566.0313,1231.9375 566.1719,1231.8594 Q566.3281,1231.7813 566.5313,1231.7813 Q566.8594,1231.7813 567.1094,1232.0469 Q567.375,1232.2969 567.375,1232.6406 Q567.375,1232.9844 567.0313,1233.3906 Q566.5313,1233.9688 565.7344,1234.2969 Q564.6563,1234.75 563.3594,1234.75 Q561.8438,1234.75 560.6406,1234.125 Q559.6563,1233.625 558.9688,1232.5625 Q558.2813,1231.4844 558.2813,1230.2031 L558.2813,1229.0469 Q558.2813,1227.7188 558.8906,1226.5781 Q559.5156,1225.4219 560.6094,1224.8125 Q561.7031,1224.1875 562.9375,1224.1875 Q563.6719,1224.1875 564.3125,1224.3594 Q564.9688,1224.5156 565.5156,1224.875 Z " fill="#000000"/><text fill="#000000" font-family="sans-serif" font-size="14" lengthAdjust="spacing" textLength="92" x="583.25" y="1234.7969">TeamProposal</text><line style="stroke:#181818;stroke-width:0.5;" x1="417" x2="809" y1="1245" y2="1245"/><text fill="#000000" font-family="sans-serif" font-size="14" lengthAdjust="spacing" textLength="115" x="422" y="1264.1074">-maxTeamSize: int</text><text fill="#000000" font-family="sans-serif" font-size="14" lengthAdjust="spacing" textLength="112" x="422" y="1282.7285">-minTeamSize: int</text><text fill="#000000" font-family="sans-serif" font-size="14" lengthAdjust="spacing" textLength="160" x="422" y="1301.3496">-requiredSkills: Set&lt;Skill&gt;</text><line style="stroke:#181818;stroke-width:0.5;" x1="417" x2="809" y1="1308.8633" y2="1308.8633"/><text fill="#000000" font-family="sans-serif" font-size="14" lengthAdjust="spacing" textLength="382" x="422" y="1327.9707">+TeamProposal(maxTeamSize, minTeamSize, requiredSkills)</text><text fill="#000000" font-family="sans-serif" font-size="14" lengthAdjust="spacing" textLength="148" x="422" y="1346.5918">+getMaxTeamSize(): int</text><text fill="#000000" font-family="sans-serif" font-size="14" lengthAdjust="spacing" textLength="145" x="422" y="1365.2129">+getMinTeamSize(): int</text><text fill="#000000" font-family="sans-serif" font-size="14" lengthAdjust="spacing" textLength="198" x="422" y="1383.834">+getRequiredSkills(): Set&lt;Skill&gt;</text></g><!--reverse link EmailService to GmailEmailServiceAdapter--><g id="link_EmailService_GmailEmailServiceAdapter"><path codeLine="134" d="M1864,442.08 C1864,481.13 1864,528.2 1864,567.31 " fill="none" id="EmailService-backto-GmailEmailServiceAdapter" style="stroke:#181818;stroke-width:1.0;stroke-dasharray:7.0,7.0;"/><polygon fill="none" points="1864,424.08,1858,442.08,1870,442.08,1864,424.08" style="stroke:#181818;stroke-width:1.0;"/></g><!--reverse link EmailService to DEIEmailServiceAdapter--><g id="link_EmailService_DEIEmailServiceAdapter"><path codeLine="135" d="M1950.8086,431.6332 C2035.4086,470.7432 2160.11,528.39 2244.66,567.48 " fill="none" id="EmailService-backto-DEIEmailServiceAdapter" style="stroke:#181818;stroke-width:1.0;stroke-dasharray:7.0,7.0;"/><polygon fill="none" points="1934.47,424.08,1948.2908,437.0794,1953.3263,426.187,1934.47,424.08" style="stroke:#181818;stroke-width:1.0;"/></g><!--link GmailEmailServiceAdapter to GmailService--><g id="link_GmailEmailServiceAdapter_GmailService"><path codeLine="137" d="M1864,634.58 C1864,707.37 1864,876.53 1864,949.37 " fill="none" id="GmailEmailServiceAdapter-to-GmailService" style="stroke:#181818;stroke-width:1.0;stroke-dasharray:7.0,7.0;"/><polygon fill="#181818" points="1864,955.37,1868,946.37,1864,950.37,1860,946.37,1864,955.37" style="stroke:#181818;stroke-width:1.0;"/><text fill="#000000" font-family="sans-serif" font-size="13" lengthAdjust="spacing" textLength="39" x="1865" y="758.5283">adapts</text></g><!--link DEIEmailServiceAdapter to DEIService--><g id="link_DEIEmailServiceAdapter_DEIService"><path codeLine="138" d="M2315.51,634.58 C2316.64,707.37 2319.2669,876.5307 2320.3969,949.3707 " fill="none" id="DEIEmailServiceAdapter-to-DEIService" style="stroke:#181818;stroke-width:1.0;stroke-dasharray:7.0,7.0;"/><polygon fill="#181818" points="2320.49,955.37,2324.3499,946.309,2320.4124,950.3706,2316.3509,946.4331,2320.49,955.37" style="stroke:#181818;stroke-width:1.0;"/><text fill="#000000" font-family="sans-serif" font-size="13" lengthAdjust="spacing" textLength="39" x="2320" y="758.5283">adapts</text></g><!--link AssignTeamToAgendaUI to AgendaController--><g id="link_AssignTeamToAgendaUI_AgendaController"><path codeLine="142" d="M521.88,227.26 C470.38,258.23 420.1523,288.4185 373.0623,316.7285 " fill="none" id="AssignTeamToAgendaUI-to-AgendaController" style="stroke:#181818;stroke-width:1.0;"/><polygon fill="#181818" points="367.92,319.82,377.6944,318.611,372.2052,317.2438,373.5724,311.7546,367.92,319.82" style="stroke:#181818;stroke-width:1.0;"/><text fill="#000000" font-family="sans-serif" font-size="13" lengthAdjust="spacing" textLength="28" x="447" y="286.0283">uses</text></g><!--link AssignTeamToAgendaUI to Repositories--><g id="link_AssignTeamToAgendaUI_Repositories"><path codeLine="143" d="M692,241.01 C692,267.94 692,289.78 692,313.98 " fill="none" id="AssignTeamToAgendaUI-to-Repositories" style="stroke:#181818;stroke-width:1.0;stroke-dasharray:7.0,7.0;"/><polygon fill="#181818" points="692,319.98,696,310.98,692,314.98,688,310.98,692,319.98" style="stroke:#181818;stroke-width:1.0;"/><text fill="#000000" font-family="sans-serif" font-size="13" lengthAdjust="spacing" textLength="49" x="693" y="286.0283">instance</text></g><!--link AssignTeamToAgendaUI to EmailService--><g id="link_AssignTeamToAgendaUI_EmailService"><path codeLine="144" d="M862.11,163.39 C1093.27,215.56 1496.7572,306.6192 1713.7572,355.5892 " fill="none" id="AssignTeamToAgendaUI-to-EmailService" style="stroke:#181818;stroke-width:1.0;"/><polygon fill="#181818" points="1719.61,356.91,1711.7113,351.0269,1714.7327,355.8093,1709.9502,358.8307,1719.61,356.91" style="stroke:#181818;stroke-width:1.0;"/><text fill="#000000" font-family="sans-serif" font-size="13" lengthAdjust="spacing" textLength="28" x="1419" y="286.0283">uses</text></g><!--link Repositories to AgendaRepository--><g id="link_Repositories_AgendaRepository"><path codeLine="145" d="M623.94,461.01 C558.32,528.02 464.2679,624.0731 401.9679,687.6931 " fill="none" id="Repositories-to-AgendaRepository" style="stroke:#181818;stroke-width:1.0;"/><polygon fill="#181818" points="397.77,691.98,406.9248,688.3483,401.2683,688.4076,401.209,682.7511,397.77,691.98" style="stroke:#181818;stroke-width:1.0;"/><text fill="#000000" font-family="sans-serif" font-size="13" lengthAdjust="spacing" textLength="28" x="591" y="506.0283">uses</text></g><!--link Repositories to OrganizationRepository--><g id="link_Repositories_OrganizationRepository"><path codeLine="146" d="M791.98,461.22 C828.48,486.67 864.4982,511.7883 899.7082,536.3383 " fill="none" id="Repositories-to-OrganizationRepository" style="stroke:#181818;stroke-width:1.0;"/><polygon fill="#181818" points="904.63,539.77,899.5351,531.3413,900.5285,536.9103,894.9596,537.9037,904.63,539.77" style="stroke:#181818;stroke-width:1.0;"/></g><!--link AgendaRepository to Agenda--><g id="link_AgendaRepository_Agenda"><path codeLine="147" d="M303.29,814.48 C299.05,824.07 295.38,834.11 293,844 C262.83,969.31 268.16,1007.53 293,1134 C316.78,1255.07 326.03,1290.77 398,1391 C418.22,1419.16 439.1191,1441.8234 465.2091,1465.7634 " fill="none" id="AgendaRepository-to-Agenda" style="stroke:#181818;stroke-width:1.0;"/><polygon fill="#181818" points="469.63,1469.82,465.7031,1460.7879,465.9459,1466.4395,460.2943,1466.6824,469.63,1469.82" style="stroke:#181818;stroke-width:1.0;"/></g><!--link TeamProposalRepository to TeamProposal--><g id="link_TeamProposalRepository_TeamProposal"><path codeLine="148" d="M486.85,813 C485.56,813.33 484.28,813.67 483,814 C426.03,828.79 390.61,797.9 354,844 C273.85,944.93 292.32,1020.83 354,1134 C370.9,1165 391.5316,1187.4782 419.9316,1209.1682 " fill="none" id="TeamProposalRepository-to-TeamProposal" style="stroke:#181818;stroke-width:1.0;"/><polygon fill="#181818" points="424.7,1212.81,419.9753,1204.1684,420.7263,1209.7752,415.1196,1210.5263,424.7,1212.81" style="stroke:#181818;stroke-width:1.0;"/></g><!--link Organization to TeamProposal--><g id="link_Organization_TeamProposal"><path codeLine="149" d="M819.05,1134.12 C785.9,1160.97 756.8426,1184.5037 726.5426,1209.0437 " fill="none" id="Organization-to-TeamProposal" style="stroke:#181818;stroke-width:1.0;"/><polygon fill="#181818" points="721.88,1212.82,731.3914,1210.264,725.7655,1209.6731,726.3564,1204.0472,721.88,1212.82" style="stroke:#181818;stroke-width:1.0;"/><text fill="#000000" font-family="sans-serif" font-size="13" lengthAdjust="spacing" textLength="30" x="784" y="1179.0283">owns</text></g><!--link TeamProposal to Agenda--><g id="link_TeamProposal_Agenda"><path codeLine="150" d="M613,1391.2 C613,1416.23 613,1437.77 613,1463.79 " fill="none" id="TeamProposal-to-Agenda" style="stroke:#181818;stroke-width:1.0;"/><polygon fill="#181818" points="613,1469.79,617,1460.79,613,1464.79,609,1460.79,613,1469.79" style="stroke:#181818;stroke-width:1.0;"/><text fill="#000000" font-family="sans-serif" font-size="13" lengthAdjust="spacing" textLength="75" x="614" y="1436.0283">go to agenda</text></g><!--link OrganizationRepository to Organization--><g id="link_OrganizationRepository_Organization"><path codeLine="151" d="M991.94,662.31 C992.69,710.87 993.6865,775.1407 994.6665,837.9907 " fill="none" id="OrganizationRepository-to-Organization" style="stroke:#181818;stroke-width:1.0;"/><polygon fill="#181818" points="994.76,843.99,998.6192,834.9287,994.682,838.9906,990.6202,835.0535,994.76,843.99" style="stroke:#181818;stroke-width:1.0;"/></g><!--link Repositories to TeamProposalRepository--><g id="link_Repositories_TeamProposalRepository"><path codeLine="152" d="M692,461.01 C692,528.02 692,622.36 692,685.98 " fill="none" id="Repositories-to-TeamProposalRepository" style="stroke:#181818;stroke-width:1.0;"/><polygon fill="#181818" points="692,691.98,696,682.98,692,686.98,688,682.98,692,691.98" style="stroke:#181818;stroke-width:1.0;"/><text fill="#000000" font-family="sans-serif" font-size="13" lengthAdjust="spacing" textLength="28" x="693" y="506.0283">uses</text></g><!--link Organization to Agenda--><g id="link_Organization_Agenda"><path codeLine="153" d="M953.82,1134.13 C925.54,1214.39 883.32,1313.45 827,1391 C806.61,1419.08 785.6375,1441.7398 759.5475,1465.7198 " fill="none" id="Organization-to-Agenda" style="stroke:#181818;stroke-width:1.0;"/><polygon fill="#181818" points="755.13,1469.78,764.4631,1466.6346,758.8113,1466.3965,759.0494,1460.7446,755.13,1469.78" style="stroke:#181818;stroke-width:1.0;"/><text fill="#000000" font-family="sans-serif" font-size="13" lengthAdjust="spacing" textLength="119" x="923" y="1307.5283">owns agenda entries</text></g><!--link ApplicationSession to UserSession--><g id="link_ApplicationSession_UserSession"><path codeLine="154" d="M154.97,643.56 C135.32,656.24 117.1,672.21 105,692 C78.48,735.39 81.3213,882.0052 84.1213,949.4952 " fill="none" id="ApplicationSession-to-UserSession" style="stroke:#181818;stroke-width:1.0;"/><polygon fill="#181818" points="84.37,955.49,87.9935,946.3319,84.1627,950.4943,80.0004,946.6635,84.37,955.49" style="stroke:#181818;stroke-width:1.0;"/><text fill="#000000" font-family="sans-serif" font-size="13" lengthAdjust="spacing" textLength="72" x="106" y="758.5283">userSession</text></g><!--link AgendaController to ApplicationSession--><g id="link_AgendaController_ApplicationSession"><path codeLine="155" d="M253.34,461.22 C253.96,493.42 254.5555,524.5711 255.0855,552.3311 " fill="none" id="AgendaController-to-ApplicationSession" style="stroke:#181818;stroke-width:1.0;stroke-dasharray:7.0,7.0;"/><polygon fill="#181818" points="255.2,558.33,259.0275,549.2553,255.1046,553.3309,251.0289,549.408,255.2,558.33" style="stroke:#181818;stroke-width:1.0;"/><text fill="#000000" font-family="sans-serif" font-size="13" lengthAdjust="spacing" textLength="28" x="256" y="506.0283">uses</text></g><!--link AgendaController to UserSession--><g id="link_AgendaController_UserSession"><path codeLine="156" d="M138.95,461.17 C113.19,482.98 89.24,509.46 75,540 C8.66,682.26 52.0522,872.7736 74.1322,949.5736 " fill="none" id="AgendaController-to-UserSession" style="stroke:#181818;stroke-width:1.0;stroke-dasharray:7.0,7.0;"/><polygon fill="#181818" points="75.79,955.34,77.1475,945.5851,74.4085,950.5347,69.459,947.7956,75.79,955.34" style="stroke:#181818;stroke-width:1.0;"/><text fill="#000000" font-family="sans-serif" font-size="13" lengthAdjust="spacing" textLength="28" x="76" y="606.5283">uses</text></g><!--SRC=[jLTVRzis47_Nf-3R5DG9zcm41jBOo0nqwL2x7u2MpWeNcjH8EgcxxRllI4eKAL5eqBL-CAZxVxyxaaVzp4HB5JsHbbRFj86TkN0W2Yf3HSEXq450Fz5QlZBHa2FbEkPm9i1SMY2jv1VxaUD9PMH4hpZL-iuOnGvd0zjAYXtx2kJNed0SSgSrQyGUw6alxneGDVsy9NyN17_N1AMDafo3MXBFl0-KJaHNL0ZBt_b5HuOJPNo76fQr6JuwDdN6Fa4hDJDINNhp0wKJD1ZO7qeYbV9OV9-b5qxhNJQfygfZghCehvRaHRAwpm4uri4BRZ2_Y-NxpqGYTcf5ukyWA6gNxgCqxCWgQfWKkhHffF9z1F-6Gepm3KNusLYD_0QS6eWXUN_PrYNOrRR6OcC_YIP5oMkyOExqm25sgZEA7vWsjx7GQWp54Ee82jrfUx5LdmYjwz8Bz66Xcu-jBG3bGNY8b7DFq-NLoA2NEJ9HkwnP7FV4O8Ww3tE8FQwEpkOVvH4BJ_ecX92gnvcbwEVXVbEMamhrsOOC6UWkntT46-ptoiQm5RWM5LZViUWGvLwkfOrgWCfjgGbrq7XG06A7voUaEZdwk8TJZUm6yb5bYpZUx95cAFzd3Me7UF184V10WvRi3WHhm-CRDNhRykwC6AlcePmg39xkpqhXFkleLZeA2NrwbnzLGmNxwanakbH6xBvBOvNGfQ534gwD8oQylsnEBPSNWB9VuDNW5rVVQScZwQ7qzymtBDaD5LEI9A-oo0Gy13r1g9idlS81GHjJsoSfnZGNt8ZsGitZ-NHmDsPCTqZtAQu2I3fcxwb-NX63_pgK8GgwdDZkWJb8oO6Apgf-Gosygqe1DM3NFTuAZe1TLi6YSq5gq9LYJY_Gc3XATQ9ydU4Pg9u4zd3APCAG-goe_whb6QyG73-qMH3h_Xx3Q6oVckXZGMRpw1Ec8hJDRrJFTqwGh-itD6pSA1N7kfT35_cZPJZrCTueqL7Hct1oFKxx3BwqE7D0lQQssJv82nak-q43puUp3Yh9PLxEU5tCE5pC-LgCt4IZmJvr4PrkcVFQEij9R2AtxfPAadGYEnT0UdXYiu0wejr-ibGl33-wepECO2LErwnbU2OEYUhpuKzqEH0Eihv45ry_a_r2re1N8n3p17X7AcsmDsYBVWcsDdcmzhkAktKSo5qd-0FZIS9n3eb6wEo4IHYs9vpGgcl8EAWCC0y_51WD-4Ae4sJMcsqN0gv-CYffCEZl6w2WH0QIFix_4SXq00m7m8b-iNJxw5hQKwudCv4ZA_Zhp1JKksV6xPIu0tFhrlsubZn18jkBsE9YP2VQjhyFAdPFzPuzRx0muNrA3BhjE8JcAh7j4NV5KC3z3F74Mbqas_JsdvkRsKsJ4SttKL7CxhkRcrNQ_qlVeRgOQKch4FL64CTVzdbyVRsQFjUMvApnkiufMFl9l6p1zKFTl8DDce4pdXWPeeZck3d1_DXNJFG7eyNCUyPA90_Vv3eSSvT4lWgTs8fyOBYD94Ps3xjYPZWT9p1DRoRM3er9XC6x3QvpJkmRrRvGCaEvrOddUsStZDQJLh3rpbZfEoGdFh6kY_y0]--></g></svg>