<?xml version="1.0" encoding="us-ascii" standalone="no"?><svg xmlns="http://www.w3.org/2000/svg" xmlns:xlink="http://www.w3.org/1999/xlink" contentStyleType="text/css" height="1298px" preserveAspectRatio="none" style="width:1525px;height:1298px;background:#FFFFFF;" version="1.1" viewBox="0 0 1525 1298" width="1525px" zoomAndPan="magnify"><defs/><g><!--class CreateCollaboratorController--><g id="elem_CreateCollaboratorController"><rect codeLine="7" fill="#F1F1F1" height="178.3477" id="CreateCollaboratorController" rx="2.5" ry="2.5" style="stroke:#181818;stroke-width:0.5;" width="1365" x="7" y="376"/><ellipse cx="593.75" cy="392" fill="#ADD1B2" rx="11" ry="11" style="stroke:#181818;stroke-width:1.0;"/><path d="M596.5156,387.875 Q596.6719,387.6563 596.8594,387.5469 Q597.0469,387.4375 597.2656,387.4375 Q597.6406,387.4375 597.875,387.7031 Q598.1094,387.9531 598.1094,388.5625 L598.1094,390.0156 Q598.1094,390.625 597.875,390.8906 Q597.6406,391.1563 597.2656,391.1563 Q596.9219,391.1563 596.7188,390.9531 Q596.5156,390.7656 596.4063,390.25 Q596.3594,389.8906 596.1719,389.7031 Q595.8438,389.3281 595.2344,389.1094 Q594.625,388.8906 594,388.8906 Q593.2344,388.8906 592.5938,389.2188 Q591.9688,389.5469 591.4688,390.2969 Q590.9844,391.0469 590.9844,392.0781 L590.9844,393.1719 Q590.9844,394.4063 591.875,395.2344 Q592.7656,396.0469 594.3594,396.0469 Q595.2969,396.0469 595.9531,395.7969 Q596.3438,395.6406 596.7656,395.2031 Q597.0313,394.9375 597.1719,394.8594 Q597.3281,394.7813 597.5313,394.7813 Q597.8594,394.7813 598.1094,395.0469 Q598.375,395.2969 598.375,395.6406 Q598.375,395.9844 598.0313,396.3906 Q597.5313,396.9688 596.7344,397.2969 Q595.6563,397.75 594.3594,397.75 Q592.8438,397.75 591.6406,397.125 Q590.6563,396.625 589.9688,395.5625 Q589.2813,394.4844 589.2813,393.2031 L589.2813,392.0469 Q589.2813,390.7188 589.8906,389.5781 Q590.5156,388.4219 591.6094,387.8125 Q592.7031,387.1875 593.9375,387.1875 Q594.6719,387.1875 595.3125,387.3594 Q595.9688,387.5156 596.5156,387.875 Z " fill="#000000"/><text fill="#000000" font-family="sans-serif" font-size="14" lengthAdjust="spacing" textLength="183" x="614.25" y="397.7969">CreateCollaboratorController</text><line style="stroke:#181818;stroke-width:0.5;" x1="8" x2="1371" y1="408" y2="408"/><rect fill="none" height="6" style="stroke:#C82930;stroke-width:1.0;" width="6" x="15" y="419.8105"/><text fill="#000000" font-family="sans-serif" font-size="14" lengthAdjust="spacing" textLength="297" x="27" y="427.1074">collaboratorRepository: CollaboratorRepository</text><rect fill="none" height="6" style="stroke:#C82930;stroke-width:1.0;" width="6" x="15" y="438.4316"/><text fill="#000000" font-family="sans-serif" font-size="14" lengthAdjust="spacing" textLength="323" x="27" y="445.7285">authenticationRepository: AuthenticationRepository</text><line style="stroke:#181818;stroke-width:0.5;" x1="8" x2="1371" y1="453.2422" y2="453.2422"/><ellipse cx="18" cy="468.0527" fill="#84BE84" rx="3" ry="3" style="stroke:#038048;stroke-width:1.0;"/><text fill="#000000" font-family="sans-serif" font-size="14" lengthAdjust="spacing" textLength="193" x="27" y="472.3496">CreateCollaboratorController()</text><ellipse cx="18" cy="486.6738" fill="#84BE84" rx="3" ry="3" style="stroke:#038048;stroke-width:1.0;"/><text fill="#000000" font-family="sans-serif" font-size="14" lengthAdjust="spacing" textLength="1339" x="27" y="490.9707">createCollaborator(name: String, birthdayDate: LocalDate, admissionDate: LocalDate, address: String, phoneNumber: String, email: String, taxpayerNumber: int, BINumber: long, job: String): Optional&lt;Collaborator&gt;</text><ellipse cx="18" cy="505.2949" fill="#84BE84" rx="3" ry="3" style="stroke:#038048;stroke-width:1.0;"/><text fill="#000000" font-family="sans-serif" font-size="14" lengthAdjust="spacing" textLength="184" x="27" y="509.5918">getAvailableJobs(): List&lt;Job&gt;</text><ellipse cx="18" cy="523.916" fill="#84BE84" rx="3" ry="3" style="stroke:#038048;stroke-width:1.0;"/><text fill="#000000" font-family="sans-serif" font-size="14" lengthAdjust="spacing" textLength="372" x="27" y="528.2129">isTaxpayerNumberDuplicate(taxpayerNumber: int): boolean</text><ellipse cx="18" cy="542.5371" fill="#84BE84" rx="3" ry="3" style="stroke:#038048;stroke-width:1.0;"/><text fill="#000000" font-family="sans-serif" font-size="14" lengthAdjust="spacing" textLength="294" x="27" y="546.834">isBINumberDuplicate(biNumber: long): boolean</text></g><!--class CreateCollaboratorUI--><g id="elem_CreateCollaboratorUI"><rect codeLine="17" fill="#F1F1F1" height="308.6953" id="CreateCollaboratorUI" rx="2.5" ry="2.5" style="stroke:#181818;stroke-width:0.5;" width="328" x="525.5" y="7"/><ellipse cx="618.75" cy="23" fill="#ADD1B2" rx="11" ry="11" style="stroke:#181818;stroke-width:1.0;"/><path d="M621.5156,18.875 Q621.6719,18.6563 621.8594,18.5469 Q622.0469,18.4375 622.2656,18.4375 Q622.6406,18.4375 622.875,18.7031 Q623.1094,18.9531 623.1094,19.5625 L623.1094,21.0156 Q623.1094,21.625 622.875,21.8906 Q622.6406,22.1563 622.2656,22.1563 Q621.9219,22.1563 621.7188,21.9531 Q621.5156,21.7656 621.4063,21.25 Q621.3594,20.8906 621.1719,20.7031 Q620.8438,20.3281 620.2344,20.1094 Q619.625,19.8906 619,19.8906 Q618.2344,19.8906 617.5938,20.2188 Q616.9688,20.5469 616.4688,21.2969 Q615.9844,22.0469 615.9844,23.0781 L615.9844,24.1719 Q615.9844,25.4063 616.875,26.2344 Q617.7656,27.0469 619.3594,27.0469 Q620.2969,27.0469 620.9531,26.7969 Q621.3438,26.6406 621.7656,26.2031 Q622.0313,25.9375 622.1719,25.8594 Q622.3281,25.7813 622.5313,25.7813 Q622.8594,25.7813 623.1094,26.0469 Q623.375,26.2969 623.375,26.6406 Q623.375,26.9844 623.0313,27.3906 Q622.5313,27.9688 621.7344,28.2969 Q620.6563,28.75 619.3594,28.75 Q617.8438,28.75 616.6406,28.125 Q615.6563,27.625 614.9688,26.5625 Q614.2813,25.4844 614.2813,24.2031 L614.2813,23.0469 Q614.2813,21.7188 614.8906,20.5781 Q615.5156,19.4219 616.6094,18.8125 Q617.7031,18.1875 618.9375,18.1875 Q619.6719,18.1875 620.3125,18.3594 Q620.9688,18.5156 621.5156,18.875 Z " fill="#000000"/><text fill="#000000" font-family="sans-serif" font-size="14" lengthAdjust="spacing" textLength="133" x="639.25" y="28.7969">CreateCollaboratorUI</text><line style="stroke:#181818;stroke-width:0.5;" x1="526.5" x2="852.5" y1="39" y2="39"/><rect fill="none" height="6" style="stroke:#C82930;stroke-width:1.0;" width="6" x="533.5" y="50.8105"/><text fill="#000000" font-family="sans-serif" font-size="14" lengthAdjust="spacing" textLength="250" x="545.5" y="58.1074">controller: CreateCollaboratorController</text><rect fill="none" height="6" style="stroke:#C82930;stroke-width:1.0;" width="6" x="533.5" y="69.4316"/><text fill="#000000" font-family="sans-serif" font-size="14" lengthAdjust="spacing" textLength="112" x="545.5" y="76.7285">scanner: Scanner</text><line style="stroke:#181818;stroke-width:0.5;" x1="526.5" x2="852.5" y1="84.2422" y2="84.2422"/><ellipse cx="536.5" cy="99.0527" fill="#84BE84" rx="3" ry="3" style="stroke:#038048;stroke-width:1.0;"/><text fill="#000000" font-family="sans-serif" font-size="14" lengthAdjust="spacing" textLength="143" x="545.5" y="103.3496">CreateCollaboratorUI()</text><ellipse cx="536.5" cy="117.6738" fill="#84BE84" rx="3" ry="3" style="stroke:#038048;stroke-width:1.0;"/><text fill="#000000" font-family="sans-serif" font-size="14" lengthAdjust="spacing" textLength="65" x="545.5" y="121.9707">run(): void</text><ellipse cx="536.5" cy="136.2949" fill="#84BE84" rx="3" ry="3" style="stroke:#038048;stroke-width:1.0;"/><text fill="#000000" font-family="sans-serif" font-size="14" lengthAdjust="spacing" textLength="122" x="545.5" y="140.5918">requestData(): void</text><ellipse cx="536.5" cy="154.916" fill="#84BE84" rx="3" ry="3" style="stroke:#038048;stroke-width:1.0;"/><text fill="#000000" font-family="sans-serif" font-size="14" lengthAdjust="spacing" textLength="217" x="545.5" y="159.2129">requestCollaboratorName(): String</text><ellipse cx="536.5" cy="173.5371" fill="#84BE84" rx="3" ry="3" style="stroke:#038048;stroke-width:1.0;"/><text fill="#000000" font-family="sans-serif" font-size="14" lengthAdjust="spacing" textLength="290" x="545.5" y="177.834">requestCollaboratorBirthdayDate(): LocalDate</text><ellipse cx="536.5" cy="192.1582" fill="#84BE84" rx="3" ry="3" style="stroke:#038048;stroke-width:1.0;"/><text fill="#000000" font-family="sans-serif" font-size="14" lengthAdjust="spacing" textLength="302" x="545.5" y="196.4551">requestCollaboratorAdmissionDate(): LocalDate</text><ellipse cx="536.5" cy="210.7793" fill="#84BE84" rx="3" ry="3" style="stroke:#038048;stroke-width:1.0;"/><text fill="#000000" font-family="sans-serif" font-size="14" lengthAdjust="spacing" textLength="233" x="545.5" y="215.0762">requestCollaboratorAddress(): String</text><ellipse cx="536.5" cy="229.4004" fill="#84BE84" rx="3" ry="3" style="stroke:#038048;stroke-width:1.0;"/><text fill="#000000" font-family="sans-serif" font-size="14" lengthAdjust="spacing" textLength="271" x="545.5" y="233.6973">requestCollaboratorPhoneNumber(): String</text><ellipse cx="536.5" cy="248.0215" fill="#84BE84" rx="3" ry="3" style="stroke:#038048;stroke-width:1.0;"/><text fill="#000000" font-family="sans-serif" font-size="14" lengthAdjust="spacing" textLength="215" x="545.5" y="252.3184">requestCollaboratorEmail(): String</text><ellipse cx="536.5" cy="266.6426" fill="#84BE84" rx="3" ry="3" style="stroke:#038048;stroke-width:1.0;"/><text fill="#000000" font-family="sans-serif" font-size="14" lengthAdjust="spacing" textLength="267" x="545.5" y="270.9395">requestCollaboratorTaxpayerNumber(): int</text><ellipse cx="536.5" cy="285.2637" fill="#84BE84" rx="3" ry="3" style="stroke:#038048;stroke-width:1.0;"/><text fill="#000000" font-family="sans-serif" font-size="14" lengthAdjust="spacing" textLength="232" x="545.5" y="289.5605">requestCollaboratorBINumber(): long</text><ellipse cx="536.5" cy="303.8848" fill="#84BE84" rx="3" ry="3" style="stroke:#038048;stroke-width:1.0;"/><text fill="#000000" font-family="sans-serif" font-size="14" lengthAdjust="spacing" textLength="203" x="545.5" y="308.1816">requestCollaboratorJob(): String</text></g><!--class JobRepository--><g id="elem_JobRepository"><rect codeLine="34" fill="#F1F1F1" height="103.8633" id="JobRepository" rx="2.5" ry="2.5" style="stroke:#181818;stroke-width:0.5;" width="505" x="194" y="642"/><ellipse cx="397.25" cy="658" fill="#ADD1B2" rx="11" ry="11" style="stroke:#181818;stroke-width:1.0;"/><path d="M400.0156,653.875 Q400.1719,653.6563 400.3594,653.5469 Q400.5469,653.4375 400.7656,653.4375 Q401.1406,653.4375 401.375,653.7031 Q401.6094,653.9531 401.6094,654.5625 L401.6094,656.0156 Q401.6094,656.625 401.375,656.8906 Q401.1406,657.1563 400.7656,657.1563 Q400.4219,657.1563 400.2188,656.9531 Q400.0156,656.7656 399.9063,656.25 Q399.8594,655.8906 399.6719,655.7031 Q399.3438,655.3281 398.7344,655.1094 Q398.125,654.8906 397.5,654.8906 Q396.7344,654.8906 396.0938,655.2188 Q395.4688,655.5469 394.9688,656.2969 Q394.4844,657.0469 394.4844,658.0781 L394.4844,659.1719 Q394.4844,660.4063 395.375,661.2344 Q396.2656,662.0469 397.8594,662.0469 Q398.7969,662.0469 399.4531,661.7969 Q399.8438,661.6406 400.2656,661.2031 Q400.5313,660.9375 400.6719,660.8594 Q400.8281,660.7813 401.0313,660.7813 Q401.3594,660.7813 401.6094,661.0469 Q401.875,661.2969 401.875,661.6406 Q401.875,661.9844 401.5313,662.3906 Q401.0313,662.9688 400.2344,663.2969 Q399.1563,663.75 397.8594,663.75 Q396.3438,663.75 395.1406,663.125 Q394.1563,662.625 393.4688,661.5625 Q392.7813,660.4844 392.7813,659.2031 L392.7813,658.0469 Q392.7813,656.7188 393.3906,655.5781 Q394.0156,654.4219 395.1094,653.8125 Q396.2031,653.1875 397.4375,653.1875 Q398.1719,653.1875 398.8125,653.3594 Q399.4688,653.5156 400.0156,653.875 Z " fill="#000000"/><text fill="#000000" font-family="sans-serif" font-size="14" lengthAdjust="spacing" textLength="90" x="417.75" y="663.7969">JobRepository</text><line style="stroke:#181818;stroke-width:0.5;" x1="195" x2="698" y1="674" y2="674"/><rect fill="none" height="6" style="stroke:#C82930;stroke-width:1.0;" width="6" x="202" y="685.8105"/><text fill="#000000" font-family="sans-serif" font-size="14" lengthAdjust="spacing" textLength="109" x="214" y="693.1074">jobList: List&lt;Job&gt;</text><line style="stroke:#181818;stroke-width:0.5;" x1="195" x2="698" y1="700.6211" y2="700.6211"/><ellipse cx="205" cy="715.4316" fill="#84BE84" rx="3" ry="3" style="stroke:#038048;stroke-width:1.0;"/><text fill="#000000" font-family="sans-serif" font-size="14" lengthAdjust="spacing" textLength="182" x="214" y="719.7285">getJob(jobName: String): Job</text><ellipse cx="205" cy="734.0527" fill="#84BE84" rx="3" ry="3" style="stroke:#038048;stroke-width:1.0;"/><text fill="#000000" font-family="sans-serif" font-size="14" lengthAdjust="spacing" textLength="479" x="214" y="738.3496">addCollaboratorToJob(jobName: String, collaborator: Collaborator): boolean</text></g><!--class Collaborator--><g id="elem_Collaborator"><rect codeLine="42" fill="#F1F1F1" height="457.6641" id="Collaborator" rx="2.5" ry="2.5" style="stroke:#181818;stroke-width:0.5;" width="1170" x="348.5" y="834"/><ellipse cx="890.25" cy="850" fill="#ADD1B2" rx="11" ry="11" style="stroke:#181818;stroke-width:1.0;"/><path d="M893.0156,845.875 Q893.1719,845.6563 893.3594,845.5469 Q893.5469,845.4375 893.7656,845.4375 Q894.1406,845.4375 894.375,845.7031 Q894.6094,845.9531 894.6094,846.5625 L894.6094,848.0156 Q894.6094,848.625 894.375,848.8906 Q894.1406,849.1563 893.7656,849.1563 Q893.4219,849.1563 893.2188,848.9531 Q893.0156,848.7656 892.9063,848.25 Q892.8594,847.8906 892.6719,847.7031 Q892.3438,847.3281 891.7344,847.1094 Q891.125,846.8906 890.5,846.8906 Q889.7344,846.8906 889.0938,847.2188 Q888.4688,847.5469 887.9688,848.2969 Q887.4844,849.0469 887.4844,850.0781 L887.4844,851.1719 Q887.4844,852.4063 888.375,853.2344 Q889.2656,854.0469 890.8594,854.0469 Q891.7969,854.0469 892.4531,853.7969 Q892.8438,853.6406 893.2656,853.2031 Q893.5313,852.9375 893.6719,852.8594 Q893.8281,852.7813 894.0313,852.7813 Q894.3594,852.7813 894.6094,853.0469 Q894.875,853.2969 894.875,853.6406 Q894.875,853.9844 894.5313,854.3906 Q894.0313,854.9688 893.2344,855.2969 Q892.1563,855.75 890.8594,855.75 Q889.3438,855.75 888.1406,855.125 Q887.1563,854.625 886.4688,853.5625 Q885.7813,852.4844 885.7813,851.2031 L885.7813,850.0469 Q885.7813,848.7188 886.3906,847.5781 Q887.0156,846.4219 888.1094,845.8125 Q889.2031,845.1875 890.4375,845.1875 Q891.1719,845.1875 891.8125,845.3594 Q892.4688,845.5156 893.0156,845.875 Z " fill="#000000"/><text fill="#000000" font-family="sans-serif" font-size="14" lengthAdjust="spacing" textLength="78" x="910.75" y="855.7969">Collaborator</text><line style="stroke:#181818;stroke-width:0.5;" x1="349.5" x2="1517.5" y1="866" y2="866"/><rect fill="none" height="6" style="stroke:#C82930;stroke-width:1.0;" width="6" x="356.5" y="877.8105"/><text fill="#000000" font-family="sans-serif" font-size="14" lengthAdjust="spacing" textLength="80" x="368.5" y="885.1074">name: String</text><rect fill="none" height="6" style="stroke:#C82930;stroke-width:1.0;" width="6" x="356.5" y="896.4316"/><text fill="#000000" font-family="sans-serif" font-size="14" lengthAdjust="spacing" textLength="153" x="368.5" y="903.7285">birthdayDate: LocalDate</text><rect fill="none" height="6" style="stroke:#C82930;stroke-width:1.0;" width="6" x="356.5" y="915.0527"/><text fill="#000000" font-family="sans-serif" font-size="14" lengthAdjust="spacing" textLength="165" x="368.5" y="922.3496">admissionDate: LocalDate</text><rect fill="none" height="6" style="stroke:#C82930;stroke-width:1.0;" width="6" x="356.5" y="933.6738"/><text fill="#000000" font-family="sans-serif" font-size="14" lengthAdjust="spacing" textLength="96" x="368.5" y="940.9707">address: String</text><rect fill="none" height="6" style="stroke:#C82930;stroke-width:1.0;" width="6" x="356.5" y="952.2949"/><text fill="#000000" font-family="sans-serif" font-size="14" lengthAdjust="spacing" textLength="134" x="368.5" y="959.5918">phoneNumber: String</text><rect fill="none" height="6" style="stroke:#C82930;stroke-width:1.0;" width="6" x="356.5" y="970.916"/><text fill="#000000" font-family="sans-serif" font-size="14" lengthAdjust="spacing" textLength="78" x="368.5" y="978.2129">email: String</text><rect fill="none" height="6" style="stroke:#C82930;stroke-width:1.0;" width="6" x="356.5" y="989.5371"/><text fill="#000000" font-family="sans-serif" font-size="14" lengthAdjust="spacing" textLength="126" x="368.5" y="996.834">taxpayerNumber: int</text><rect fill="none" height="6" style="stroke:#C82930;stroke-width:1.0;" width="6" x="356.5" y="1008.1582"/><text fill="#000000" font-family="sans-serif" font-size="14" lengthAdjust="spacing" textLength="96" x="368.5" y="1015.4551">BINumber: long</text><rect fill="none" height="6" style="stroke:#C82930;stroke-width:1.0;" width="6" x="356.5" y="1026.7793"/><text fill="#000000" font-family="sans-serif" font-size="14" lengthAdjust="spacing" textLength="64" x="368.5" y="1034.0762">job: String</text><line style="stroke:#181818;stroke-width:0.5;" x1="349.5" x2="1517.5" y1="1041.5898" y2="1041.5898"/><ellipse cx="359.5" cy="1056.4004" fill="#84BE84" rx="3" ry="3" style="stroke:#038048;stroke-width:1.0;"/><text fill="#000000" font-family="sans-serif" font-size="14" lengthAdjust="spacing" textLength="1144" x="368.5" y="1060.6973">Collaborator(name: String, birthdayDate: LocalDate, admissionDate: LocalDate, address: String, phoneNumber: String, email: String, taxpayerNumber: int, BINumber: long, job: String)</text><ellipse cx="359.5" cy="1075.0215" fill="#84BE84" rx="3" ry="3" style="stroke:#038048;stroke-width:1.0;"/><text fill="#000000" font-family="sans-serif" font-size="14" lengthAdjust="spacing" textLength="168" x="368.5" y="1079.3184">equals(o: Object): boolean</text><ellipse cx="359.5" cy="1093.6426" fill="#84BE84" rx="3" ry="3" style="stroke:#038048;stroke-width:1.0;"/><text fill="#000000" font-family="sans-serif" font-size="14" lengthAdjust="spacing" textLength="130" x="368.5" y="1097.9395">clone(): Collaborator</text><ellipse cx="359.5" cy="1112.2637" fill="#84BE84" rx="3" ry="3" style="stroke:#038048;stroke-width:1.0;"/><text fill="#000000" font-family="sans-serif" font-size="14" lengthAdjust="spacing" textLength="111" x="368.5" y="1116.5605">getName(): String</text><ellipse cx="359.5" cy="1130.8848" fill="#84BE84" rx="3" ry="3" style="stroke:#038048;stroke-width:1.0;"/><text fill="#000000" font-family="sans-serif" font-size="14" lengthAdjust="spacing" textLength="184" x="368.5" y="1135.1816">getBirthdayDate(): LocalDate</text><ellipse cx="359.5" cy="1149.5059" fill="#84BE84" rx="3" ry="3" style="stroke:#038048;stroke-width:1.0;"/><text fill="#000000" font-family="sans-serif" font-size="14" lengthAdjust="spacing" textLength="196" x="368.5" y="1153.8027">getAdmissionDate(): LocalDate</text><ellipse cx="359.5" cy="1168.127" fill="#84BE84" rx="3" ry="3" style="stroke:#038048;stroke-width:1.0;"/><text fill="#000000" font-family="sans-serif" font-size="14" lengthAdjust="spacing" textLength="127" x="368.5" y="1172.4238">getAddress(): String</text><ellipse cx="359.5" cy="1186.748" fill="#84BE84" rx="3" ry="3" style="stroke:#038048;stroke-width:1.0;"/><text fill="#000000" font-family="sans-serif" font-size="14" lengthAdjust="spacing" textLength="165" x="368.5" y="1191.0449">getPhoneNumber(): String</text><ellipse cx="359.5" cy="1205.3691" fill="#84BE84" rx="3" ry="3" style="stroke:#038048;stroke-width:1.0;"/><text fill="#000000" font-family="sans-serif" font-size="14" lengthAdjust="spacing" textLength="109" x="368.5" y="1209.666">getEmail(): String</text><ellipse cx="359.5" cy="1223.9902" fill="#84BE84" rx="3" ry="3" style="stroke:#038048;stroke-width:1.0;"/><text fill="#000000" font-family="sans-serif" font-size="14" lengthAdjust="spacing" textLength="161" x="368.5" y="1228.2871">getTaxpayerNumber(): int</text><ellipse cx="359.5" cy="1242.6113" fill="#84BE84" rx="3" ry="3" style="stroke:#038048;stroke-width:1.0;"/><text fill="#000000" font-family="sans-serif" font-size="14" lengthAdjust="spacing" textLength="126" x="368.5" y="1246.9082">getBINumber(): long</text><ellipse cx="359.5" cy="1261.2324" fill="#84BE84" rx="3" ry="3" style="stroke:#038048;stroke-width:1.0;"/><text fill="#000000" font-family="sans-serif" font-size="14" lengthAdjust="spacing" textLength="97" x="368.5" y="1265.5293">getJob(): String</text><ellipse cx="359.5" cy="1279.8535" fill="#84BE84" rx="3" ry="3" style="stroke:#038048;stroke-width:1.0;"/><text fill="#000000" font-family="sans-serif" font-size="14" lengthAdjust="spacing" textLength="139" x="368.5" y="1284.1504">addJob(job: Job): void</text></g><!--class CollaboratorRepository--><g id="elem_CollaboratorRepository"><rect codeLine="67" fill="#F1F1F1" height="159.7266" id="CollaboratorRepository" rx="2.5" ry="2.5" style="stroke:#181818;stroke-width:0.5;" width="398" x="734.5" y="614"/><ellipse cx="856.25" cy="630" fill="#ADD1B2" rx="11" ry="11" style="stroke:#181818;stroke-width:1.0;"/><path d="M859.0156,625.875 Q859.1719,625.6563 859.3594,625.5469 Q859.5469,625.4375 859.7656,625.4375 Q860.1406,625.4375 860.375,625.7031 Q860.6094,625.9531 860.6094,626.5625 L860.6094,628.0156 Q860.6094,628.625 860.375,628.8906 Q860.1406,629.1563 859.7656,629.1563 Q859.4219,629.1563 859.2188,628.9531 Q859.0156,628.7656 858.9063,628.25 Q858.8594,627.8906 858.6719,627.7031 Q858.3438,627.3281 857.7344,627.1094 Q857.125,626.8906 856.5,626.8906 Q855.7344,626.8906 855.0938,627.2188 Q854.4688,627.5469 853.9688,628.2969 Q853.4844,629.0469 853.4844,630.0781 L853.4844,631.1719 Q853.4844,632.4063 854.375,633.2344 Q855.2656,634.0469 856.8594,634.0469 Q857.7969,634.0469 858.4531,633.7969 Q858.8438,633.6406 859.2656,633.2031 Q859.5313,632.9375 859.6719,632.8594 Q859.8281,632.7813 860.0313,632.7813 Q860.3594,632.7813 860.6094,633.0469 Q860.875,633.2969 860.875,633.6406 Q860.875,633.9844 860.5313,634.3906 Q860.0313,634.9688 859.2344,635.2969 Q858.1563,635.75 856.8594,635.75 Q855.3438,635.75 854.1406,635.125 Q853.1563,634.625 852.4688,633.5625 Q851.7813,632.4844 851.7813,631.2031 L851.7813,630.0469 Q851.7813,628.7188 852.3906,627.5781 Q853.0156,626.4219 854.1094,625.8125 Q855.2031,625.1875 856.4375,625.1875 Q857.1719,625.1875 857.8125,625.3594 Q858.4688,625.5156 859.0156,625.875 Z " fill="#000000"/><text fill="#000000" font-family="sans-serif" font-size="14" lengthAdjust="spacing" textLength="146" x="876.75" y="635.7969">CollaboratorRepository</text><line style="stroke:#181818;stroke-width:0.5;" x1="735.5" x2="1131.5" y1="646" y2="646"/><rect fill="none" height="6" style="stroke:#C82930;stroke-width:1.0;" width="6" x="742.5" y="657.8105"/><text fill="#000000" font-family="sans-serif" font-size="14" lengthAdjust="spacing" textLength="206" x="754.5" y="665.1074">collaborators: List&lt;Collaborator&gt;</text><line style="stroke:#181818;stroke-width:0.5;" x1="735.5" x2="1131.5" y1="672.6211" y2="672.6211"/><ellipse cx="745.5" cy="687.4316" fill="#84BE84" rx="3" ry="3" style="stroke:#038048;stroke-width:1.0;"/><text fill="#000000" font-family="sans-serif" font-size="14" lengthAdjust="spacing" textLength="156" x="754.5" y="691.7285">CollaboratorRepository()</text><ellipse cx="745.5" cy="706.0527" fill="#84BE84" rx="3" ry="3" style="stroke:#038048;stroke-width:1.0;"/><text fill="#000000" font-family="sans-serif" font-size="14" lengthAdjust="spacing" textLength="350" x="754.5" y="710.3496">add(collaborator: Collaborator): Optional&lt;Collaborator&gt;</text><ellipse cx="745.5" cy="724.6738" fill="#84BE84" rx="3" ry="3" style="stroke:#038048;stroke-width:1.0;"/><text fill="#000000" font-family="sans-serif" font-size="14" lengthAdjust="spacing" textLength="239" x="754.5" y="728.9707">getCollaborators(): List&lt;Collaborator&gt;</text><ellipse cx="745.5" cy="743.2949" fill="#84BE84" rx="3" ry="3" style="stroke:#038048;stroke-width:1.0;"/><text fill="#000000" font-family="sans-serif" font-size="14" lengthAdjust="spacing" textLength="372" x="754.5" y="747.5918">isTaxpayerNumberDuplicate(taxpayerNumber: int): boolean</text><ellipse cx="745.5" cy="761.916" fill="#84BE84" rx="3" ry="3" style="stroke:#038048;stroke-width:1.0;"/><text fill="#000000" font-family="sans-serif" font-size="14" lengthAdjust="spacing" textLength="294" x="754.5" y="766.2129">isBINumberDuplicate(biNumber: long): boolean</text></g><!--link CreateCollaboratorController to CollaboratorRepository--><g id="link_CreateCollaboratorController_CollaboratorRepository"><path codeLine="76" d="M933.5,554.19 C933.5,573.78 933.5,588.42 933.5,607.64 " fill="none" id="CreateCollaboratorController-to-CollaboratorRepository" style="stroke:#181818;stroke-width:1.0;"/><polygon fill="#181818" points="933.5,613.64,937.5,604.64,933.5,608.64,929.5,604.64,933.5,613.64" style="stroke:#181818;stroke-width:1.0;"/><text fill="#000000" font-family="sans-serif" font-size="13" lengthAdjust="spacing" textLength="129" x="803.5" y="579.9383">collaboratorRepository</text></g><!--link CreateCollaboratorUI to CreateCollaboratorController--><g id="link_CreateCollaboratorUI_CreateCollaboratorController"><path codeLine="77" d="M689.5,316.36 C689.5,336.68 689.5,350.91 689.5,369.62 " fill="none" id="CreateCollaboratorUI-to-CreateCollaboratorController" style="stroke:#181818;stroke-width:1.0;"/><polygon fill="#181818" points="689.5,375.62,693.5,366.62,689.5,370.62,685.5,366.62,689.5,375.62" style="stroke:#181818;stroke-width:1.0;"/><text fill="#000000" font-family="sans-serif" font-size="13" lengthAdjust="spacing" textLength="53" x="635.5" y="342.0183">controller</text></g><!--link CreateCollaboratorController to JobRepository--><g id="link_CreateCollaboratorController_JobRepository"><path codeLine="78" d="M446.5,554.19 C446.5,583.83 446.5,609.85 446.5,635.76 " fill="none" id="CreateCollaboratorController-to-JobRepository" style="stroke:#181818;stroke-width:1.0;"/><polygon fill="#181818" points="446.5,641.76,450.5,632.76,446.5,636.76,442.5,632.76,446.5,641.76" style="stroke:#181818;stroke-width:1.0;"/><text fill="#000000" font-family="sans-serif" font-size="13" lengthAdjust="spacing" textLength="79" x="366.5" y="594.0083">jobRepository</text></g><!--link CollaboratorRepository to Collaborator--><g id="link_CollaboratorRepository_Collaborator"><path codeLine="79" d="M933.5,774.07 C933.5,792.3 933.5,806.55 933.5,827.64 " fill="none" id="CollaboratorRepository-to-Collaborator" style="stroke:#181818;stroke-width:1.0;"/><polygon fill="#181818" points="933.5,833.64,937.5,824.64,933.5,828.64,929.5,824.64,933.5,833.64" style="stroke:#181818;stroke-width:1.0;"/><text fill="#000000" font-family="sans-serif" font-size="13" lengthAdjust="spacing" textLength="67" x="865.5" y="799.8883">collaborator</text></g><!--SRC=[rLP1Rjim4Bph5RnLGUqF2440n-d1GU0MJVE0bRorcL2aGb9fXI9_xrAX9CgcP9yAr2TnTvPSaZD3Vp8lN5QWeMIbageuQ5KYixh6PCXKKBp07Xzj8v1fB2p8lGW1vW0xzOlBFVi9meGPmINQfa9MAT6uGIodj3se92a46CFM6i7YMWa1kT9WbLuhQJMDKRC_2QFVaXL1-ZjMod3wQ3AsZiPz4TJsWDBo0YnNCYnRJMJQmi-pBQLN7bISW5899MRiqMewcGNBEMrp1yqTmJBse0eGxdF1O5ToOsZXI6QdqPXXZkgW96xhCaSz1B44BeQXXTyLDAWx69TsmMuttL0e1tfMULTnbR6lbTitYEkm_Hk_iJtQrHkj0Bd0UvMRb0eUkB7NDEWmtFmOhNfNLyAT9gQHRgW-LqeWoBwwQs-eotdOS53oFasKfqr0aEw2ijdhyt1JW9JjcNvyJ5xyqwQ_S5rBTnHlYk-w2BxMQ2pT7SGpuKnR8eT3VLp2DEuse4rxz1qzfajM8Q4khccfTab7tmOINWB_ukXv2N1C8LT1P9avcCq0T1oPHX9HW_Lx0b5ua7hF75A6O_Sfnqa7RYBARmDTqxmKzH3IwsX3AbAm69dNsBB6DE-97Y3wDaDlyQ49W-dSRy9b-lJ8QdmquZS-Cp8T7ujetMV6zZESz14f_aVtzAqJw-ZfInMPQVvCJ-I9oHLKseentEH0hQWTKFoS_9qxdvDxYudBcr9pSgPqNBwKc9EhQpmkJw-Yu_dehhnMMZrrxlaUqq14jA6aZ9Tkx2sBJzDREdMHpghpt4CPXeU7CWR-jo_cx9-gvV9cwdopYNzQIVJnRIUQMoaBtkNpFOtzENEg2pk8TtoycQCj97y1]--></g></svg>