<?xml version="1.0" encoding="us-ascii" standalone="no"?><svg xmlns="http://www.w3.org/2000/svg" xmlns:xlink="http://www.w3.org/1999/xlink" contentStyleType="text/css" height="1451px" preserveAspectRatio="none" style="width:605px;height:1451px;background:#FFFFFF;" version="1.1" viewBox="0 0 605 1451" width="605px" zoomAndPan="magnify"><defs/><g><!--cluster actors--><g id="cluster_actors"><rect fill="none" height="475" rx="2.5" ry="2.5" style="stroke:#FFFF00;stroke-width:1.0;" width="252" x="7" y="438"/><text fill="#000000" font-family="sans-serif" font-size="14" font-weight="bold" lengthAdjust="spacing" textLength="99" x="83.5" y="455.1074">System Actors</text></g><!--cluster usecases--><g id="cluster_usecases"><rect fill="none" height="1438" rx="2.5" ry="2.5" style="stroke:#FFFF00;stroke-width:1.0;" width="274" x="325" y="7"/><text fill="#000000" font-family="sans-serif" font-size="14" font-weight="bold" lengthAdjust="spacing" textLength="74" x="425" y="24.1074">Use Cases</text></g><!--entity HRM--><g id="elem_HRM"><ellipse cx="133" cy="484" fill="#F1F1F1" rx="8" ry="8" style="stroke:#181818;stroke-width:0.5;"/><path d="M133,492 L133,519 M120,500 L146,500 M133,519 L120,534 M133,519 L146,534 " fill="none" style="stroke:#181818;stroke-width:0.5;"/><text fill="#000000" font-family="sans-serif" font-size="14" lengthAdjust="spacing" textLength="220" x="23" y="550.6074">Human Resources Manager (HRM)</text></g><!--entity VFM--><g id="elem_VFM"><ellipse cx="133" cy="598" fill="#F1F1F1" rx="8" ry="8" style="stroke:#181818;stroke-width:0.5;"/><path d="M133,606 L133,633 M120,614 L146,614 M133,633 L120,648 M133,633 L146,648 " fill="none" style="stroke:#181818;stroke-width:0.5;"/><text fill="#000000" font-family="sans-serif" font-size="14" lengthAdjust="spacing" textLength="185" x="40.5" y="664.6074">Vehicle Fleet Manager (VFM)</text></g><!--entity GSM--><g id="elem_GSM"><ellipse cx="133" cy="712" fill="#F1F1F1" rx="8" ry="8" style="stroke:#181818;stroke-width:0.5;"/><path d="M133,720 L133,747 M120,728 L146,728 M133,747 L120,762 M133,747 L146,762 " fill="none" style="stroke:#181818;stroke-width:0.5;"/><text fill="#000000" font-family="sans-serif" font-size="14" lengthAdjust="spacing" textLength="189" x="38.5" y="778.6074">Green Space Manager (GSM)</text></g><!--entity Collaborator--><g id="elem_Collaborator"><ellipse cx="133" cy="826" fill="#F1F1F1" rx="8" ry="8" style="stroke:#181818;stroke-width:0.5;"/><path d="M133,834 L133,861 M120,842 L146,842 M133,861 L120,876 M133,861 L146,876 " fill="none" style="stroke:#181818;stroke-width:0.5;"/><text fill="#000000" font-family="sans-serif" font-size="14" lengthAdjust="spacing" textLength="78" x="94" y="892.6074">Collaborator</text></g><g id="elem_UC01"><ellipse cx="462.1246" cy="61.0249" fill="#F1F1F1" rx="73.1246" ry="17.0249" style="stroke:#181818;stroke-width:0.5;"/><text fill="#000000" font-family="sans-serif" font-size="14" lengthAdjust="spacing" textLength="89" x="414.6246" y="65.8286">Register Skills</text></g><g id="elem_UC02"><ellipse cx="461.9429" cy="129.9937" fill="#F1F1F1" rx="68.9429" ry="16.4937" style="stroke:#181818;stroke-width:0.5;"/><text fill="#000000" font-family="sans-serif" font-size="14" lengthAdjust="spacing" textLength="79" x="419.4429" y="134.7974">Register Job</text></g><g id="elem_UC03"><ellipse cx="461.8582" cy="201.9716" fill="#F1F1F1" rx="90.3582" ry="20.4716" style="stroke:#181818;stroke-width:0.5;"/><text fill="#000000" font-family="sans-serif" font-size="14" lengthAdjust="spacing" textLength="135" x="391.3582" y="206.7754">Register Collaborator</text></g><g id="elem_UC04"><ellipse cx="461.8959" cy="281.9792" fill="#F1F1F1" rx="107.8959" ry="23.9792" style="stroke:#181818;stroke-width:0.5;"/><text fill="#000000" font-family="sans-serif" font-size="14" lengthAdjust="spacing" textLength="176" x="373.8959" y="285.7761">Assign Skills to Collaborator</text></g><g id="elem_UC05"><ellipse cx="461.8085" cy="364.0617" fill="#F1F1F1" rx="100.8085" ry="22.5617" style="stroke:#181818;stroke-width:0.5;"/><text fill="#000000" font-family="sans-serif" font-size="14" lengthAdjust="spacing" textLength="160" x="380.9387" y="368.1799">Generate Team Proposal</text></g><g id="elem_UC06"><ellipse cx="462.0431" cy="440.0086" fill="#F1F1F1" rx="78.0431" ry="18.0086" style="stroke:#181818;stroke-width:0.5;"/><text fill="#000000" font-family="sans-serif" font-size="14" lengthAdjust="spacing" textLength="103" x="407.5431" y="444.8123">Register Vehicle</text></g><g id="elem_UC07"><ellipse cx="461.793" cy="517.1586" fill="#F1F1F1" rx="108.793" ry="24.1586" style="stroke:#181818;stroke-width:0.5;"/><text fill="#000000" font-family="sans-serif" font-size="14" lengthAdjust="spacing" textLength="178" x="372.793" y="520.9555">Register Vehicle's Check-up</text></g><g id="elem_UC08"><ellipse cx="461.772" cy="602.1544" fill="#F1F1F1" rx="118.772" ry="26.1544" style="stroke:#181818;stroke-width:0.5;"/><text fill="#000000" font-family="sans-serif" font-size="14" lengthAdjust="spacing" textLength="200" x="361.772" y="605.9513">List Vehicles Needing Check-up</text></g><g id="elem_UC20"><ellipse cx="461.7968" cy="683.9594" fill="#F1F1F1" rx="92.7968" ry="20.9594" style="stroke:#181818;stroke-width:0.5;"/><text fill="#000000" font-family="sans-serif" font-size="14" lengthAdjust="spacing" textLength="141" x="388.2968" y="688.7631">Register Green Space</text></g><g id="elem_UC21"><ellipse cx="462.1884" cy="762.0377" fill="#F1F1F1" rx="95.6884" ry="21.5377" style="stroke:#181818;stroke-width:0.5;"/><text fill="#000000" font-family="sans-serif" font-size="14" lengthAdjust="spacing" textLength="148" x="385.7253" y="766.6811">Add Entry to To-Do List</text></g><g id="elem_UC22"><ellipse cx="461.8534" cy="839.0707" fill="#F1F1F1" rx="88.3534" ry="20.0707" style="stroke:#181818;stroke-width:0.5;"/><text fill="#000000" font-family="sans-serif" font-size="14" lengthAdjust="spacing" textLength="130" x="393.8534" y="843.8744">Add Entry in Agenda</text></g><g id="elem_UC23"><ellipse cx="461.8048" cy="919.061" fill="#F1F1F1" rx="113.3048" ry="25.061" style="stroke:#181818;stroke-width:0.5;"/><text fill="#000000" font-family="sans-serif" font-size="14" lengthAdjust="spacing" textLength="188" x="367.8048" y="922.8578">Assign Team to Agenda Entry</text></g><g id="elem_UC24"><ellipse cx="462.0275" cy="1001.2055" fill="#F1F1F1" rx="96.5275" ry="21.7055" style="stroke:#181818;stroke-width:0.5;"/><text fill="#000000" font-family="sans-serif" font-size="14" lengthAdjust="spacing" textLength="150" x="384.8422" y="1005.7628">Postpone Agenda Entry</text></g><g id="elem_UC25"><ellipse cx="461.9552" cy="1077.891" fill="#F1F1F1" rx="89.9552" ry="20.391" style="stroke:#181818;stroke-width:0.5;"/><text fill="#000000" font-family="sans-serif" font-size="14" lengthAdjust="spacing" textLength="134" x="391.9552" y="1082.6948">Cancel Agenda Entry</text></g><g id="elem_UC26"><ellipse cx="462.0653" cy="1160.1131" fill="#F1F1F1" rx="121.0653" ry="26.6131" style="stroke:#181818;stroke-width:0.5;"/><text fill="#000000" font-family="sans-serif" font-size="14" lengthAdjust="spacing" textLength="205" x="359.5653" y="1163.9099">Assign Vehicles to Agenda Entry</text></g><g id="elem_UC27"><ellipse cx="462.1919" cy="1245.8384" fill="#F1F1F1" rx="109.6919" ry="24.3384" style="stroke:#181818;stroke-width:0.5;"/><text fill="#000000" font-family="sans-serif" font-size="14" lengthAdjust="spacing" textLength="180" x="372.1919" y="1249.6353">List Managed Green Spaces</text></g><g id="elem_UC28"><ellipse cx="461.8725" cy="1327.8745" fill="#F1F1F1" rx="97.3725" ry="21.8745" style="stroke:#181818;stroke-width:0.5;"/><text fill="#000000" font-family="sans-serif" font-size="14" lengthAdjust="spacing" textLength="152" x="383.9599" y="1332.3452">Consult Assigned Tasks</text></g><g id="elem_UC29"><ellipse cx="462.0796" cy="1407.2159" fill="#F1F1F1" rx="99.0796" ry="22.2159" style="stroke:#181818;stroke-width:0.5;"/><text fill="#000000" font-family="sans-serif" font-size="14" lengthAdjust="spacing" textLength="156" x="382.6977" y="1411.5115">Record Task Completion</text></g><!--link HRM to UC01--><g id="link_HRM_UC01"><path d="M144.06,475.28 C162.92,405.04 207.84,255.78 275,144 C289.6,119.7 292.76,110.7 317,96 C340.65,81.66 363.9389,74.3277 389.8289,69.3277 " fill="none" id="HRM-to-UC01" style="stroke:#181818;stroke-width:1.0;"/><polygon fill="#181818" points="395.72,68.19,386.1248,65.9692,390.8107,69.1381,387.6418,73.824,395.72,68.19" style="stroke:#181818;stroke-width:1.0;"/><text fill="#000000" font-family="sans-serif" font-size="13" lengthAdjust="spacing" textLength="32" x="276" y="98.0283">UC01</text></g><!--link HRM to UC02--><g id="link_HRM_UC02"><path d="M141.85,475.22 C158.96,400.14 207.23,238.45 317,164 C340.28,148.21 364.0777,140.732 390.4577,136.172 " fill="none" id="HRM-to-UC02" style="stroke:#181818;stroke-width:1.0;"/><polygon fill="#181818" points="396.37,135.15,386.8202,132.7414,391.4431,136.0017,388.1828,140.6245,396.37,135.15" style="stroke:#181818;stroke-width:1.0;"/><text fill="#000000" font-family="sans-serif" font-size="13" lengthAdjust="spacing" textLength="32" x="276" y="167.0283">UC02</text></g><!--link HRM to UC03--><g id="link_HRM_UC03"><path d="M149.54,475.07 C175.11,414.72 231.87,300.88 317,240 C336.14,226.31 354.0463,219.0037 376.6763,213.3937 " fill="none" id="HRM-to-UC03" style="stroke:#181818;stroke-width:1.0;"/><polygon fill="#181818" points="382.5,211.95,372.8019,210.2331,377.6469,213.1531,374.7269,217.998,382.5,211.95" style="stroke:#181818;stroke-width:1.0;"/><text fill="#000000" font-family="sans-serif" font-size="13" lengthAdjust="spacing" textLength="32" x="276" y="247.0283">UC03</text></g><!--link HRM to UC04--><g id="link_HRM_UC04"><path d="M161.78,475.44 C194.23,432.11 251.82,363.54 317,324 C336.04,312.45 352.6591,305.6068 374.0291,299.3868 " fill="none" id="HRM-to-UC04" style="stroke:#181818;stroke-width:1.0;"/><polygon fill="#181818" points="379.79,297.71,370.0307,296.3846,374.9892,299.1073,372.2665,304.0658,379.79,297.71" style="stroke:#181818;stroke-width:1.0;"/><text fill="#000000" font-family="sans-serif" font-size="13" lengthAdjust="spacing" textLength="32" x="276" y="328.0283">UC04</text></g><!--link HRM to UC05--><g id="link_HRM_UC05"><path d="M189.35,475.39 C224.49,451.8 271.73,422.88 317,404 C340.23,394.31 360.7324,387.7754 384.4424,381.4554 " fill="none" id="HRM-to-UC05" style="stroke:#181818;stroke-width:1.0;"/><polygon fill="#181818" points="390.24,379.91,380.5134,378.363,385.4087,381.1978,382.5739,386.0931,390.24,379.91" style="stroke:#181818;stroke-width:1.0;"/><text fill="#000000" font-family="sans-serif" font-size="13" lengthAdjust="spacing" textLength="32" x="276" y="405.0283">UC05</text></g><!--link Collaborator to UC28--><g id="link_Collaborator_UC28"><path d="M135.19,896.51 C139.93,980.07 163.08,1175.57 275,1280 C299.99,1303.32 328.9021,1314.5054 361.6421,1320.9254 " fill="none" id="Collaborator-to-UC28" style="stroke:#181818;stroke-width:1.0;"/><polygon fill="#181818" points="367.53,1322.08,359.4679,1316.4229,362.6234,1321.1179,357.9285,1324.2734,367.53,1322.08" style="stroke:#181818;stroke-width:1.0;"/><text fill="#000000" font-family="sans-serif" font-size="13" lengthAdjust="spacing" textLength="32" x="276" y="1276.0283">UC28</text></g><!--link Collaborator to UC29--><g id="link_Collaborator_UC29"><path d="M138.14,896.68 C148.64,982.32 182.34,1188.22 275,1331 C297.69,1365.97 333.9309,1383.3103 372.3109,1393.5003 " fill="none" id="Collaborator-to-UC29" style="stroke:#181818;stroke-width:1.0;"/><polygon fill="#181818" points="378.11,1395.04,370.4378,1388.8644,373.2774,1393.7569,368.3849,1396.5965,378.11,1395.04" style="stroke:#181818;stroke-width:1.0;"/><text fill="#000000" font-family="sans-serif" font-size="13" lengthAdjust="spacing" textLength="32" x="276" y="1327.0283">UC29</text></g><!--link GSM to UC20--><g id="link_GSM_UC20"><path d="M227.71,726.09 C278.94,716.85 335.5353,706.6349 382.9453,698.0849 " fill="none" id="GSM-to-UC20" style="stroke:#181818;stroke-width:1.0;"/><polygon fill="#181818" points="388.85,697.02,379.283,694.6808,383.9294,697.9074,380.7028,702.5538,388.85,697.02" style="stroke:#181818;stroke-width:1.0;"/><text fill="#000000" font-family="sans-serif" font-size="13" lengthAdjust="spacing" textLength="32" x="276" y="708.0283">UC20</text></g><!--link GSM to UC21--><g id="link_GSM_UC21"><path d="M227.71,748.44 C272.15,751.03 319.0801,753.7516 363.2701,756.3216 " fill="none" id="GSM-to-UC21" style="stroke:#181818;stroke-width:1.0;"/><polygon fill="#181818" points="369.26,756.67,360.5074,752.1542,364.2684,756.3797,360.0429,760.1407,369.26,756.67" style="stroke:#181818;stroke-width:1.0;"/><text fill="#000000" font-family="sans-serif" font-size="13" lengthAdjust="spacing" textLength="32" x="276" y="748.0283">UC21</text></g><!--link GSM to UC22--><g id="link_GSM_UC22"><path d="M227.77,773.69 C256.33,782.77 287.87,792.55 317,801 C344.94,809.11 370.3215,815.9263 396.5115,822.7063 " fill="none" id="GSM-to-UC22" style="stroke:#181818;stroke-width:1.0;"/><polygon fill="#181818" points="402.32,824.21,394.6097,818.0821,397.4796,822.9569,392.6048,825.8268,402.32,824.21" style="stroke:#181818;stroke-width:1.0;"/><text fill="#000000" font-family="sans-serif" font-size="13" lengthAdjust="spacing" textLength="32" x="276" y="785.0283">UC22</text></g><!--link GSM to UC23--><g id="link_GSM_UC23"><path d="M227.74,770.74 C242.35,778.35 256.17,787.95 267,800 C275.08,808.99 269.22,815.38 275,826 C288.88,851.49 292.74,860.07 317,876 C334.77,887.67 350.0859,894.5035 370.5359,900.8035 " fill="none" id="GSM-to-UC23" style="stroke:#181818;stroke-width:1.0;"/><polygon fill="#181818" points="376.27,902.57,368.8466,896.0976,371.4916,901.0979,366.4912,903.743,376.27,902.57" style="stroke:#181818;stroke-width:1.0;"/><text fill="#000000" font-family="sans-serif" font-size="13" lengthAdjust="spacing" textLength="32" x="276" y="822.0283">UC23</text></g><!--link GSM to UC24--><g id="link_GSM_UC24"><path d="M227.68,767.64 C242.95,775.62 257.02,786.14 267,800 C279.64,817.55 267.96,876.55 275,897 C286.07,929.17 289.52,940.94 317,961 C335.55,974.54 352.6849,981.9455 374.7549,987.8655 " fill="none" id="GSM-to-UC24" style="stroke:#181818;stroke-width:1.0;"/><polygon fill="#181818" points="380.55,989.42,372.8936,983.2249,375.7207,988.1246,370.821,990.9517,380.55,989.42" style="stroke:#181818;stroke-width:1.0;"/><text fill="#000000" font-family="sans-serif" font-size="13" lengthAdjust="spacing" textLength="32" x="276" y="893.0283">UC24</text></g><!--link GSM to UC25--><g id="link_GSM_UC25"><path d="M227.78,767.16 C243.14,775.18 257.21,785.85 267,800 C278.51,816.65 268.34,962.89 275,982 C285.47,1012.05 290.75,1022 317,1040 C336.62,1053.45 354.9036,1060.707 377.7536,1066.327 " fill="none" id="GSM-to-UC25" style="stroke:#181818;stroke-width:1.0;"/><polygon fill="#181818" points="383.58,1067.76,375.7958,1061.7263,378.7247,1066.5658,373.8851,1069.4947,383.58,1067.76" style="stroke:#181818;stroke-width:1.0;"/><text fill="#000000" font-family="sans-serif" font-size="13" lengthAdjust="spacing" textLength="32" x="276" y="978.0283">UC25</text></g><!--link GSM to UC26--><g id="link_GSM_UC26"><path d="M227.59,766.88 C243.08,774.93 257.24,785.68 267,800 C283.34,823.97 265.29,1033.66 275,1061 C285.3,1089.98 291.75,1098.44 317,1116 C333.31,1127.34 346.9337,1133.9452 366.0337,1140.2652 " fill="none" id="GSM-to-UC26" style="stroke:#181818;stroke-width:1.0;"/><polygon fill="#181818" points="371.73,1142.15,364.4422,1135.5252,366.9831,1140.5793,361.9291,1143.1203,371.73,1142.15" style="stroke:#181818;stroke-width:1.0;"/><text fill="#000000" font-family="sans-serif" font-size="13" lengthAdjust="spacing" textLength="32" x="276" y="1057.0283">UC26</text></g><!--link GSM to UC27--><g id="link_GSM_UC27"><path d="M227.67,766.83 C243.15,774.88 257.29,785.64 267,800 C277.52,815.56 269.54,1120.03 275,1138 C285.12,1171.27 289.19,1183.13 317,1204 C333.56,1216.43 347.9884,1223.4156 367.9184,1229.5856 " fill="none" id="GSM-to-UC27" style="stroke:#181818;stroke-width:1.0;"/><polygon fill="#181818" points="373.65,1231.36,366.2355,1224.8773,368.8737,1229.8813,363.8696,1232.5195,373.65,1231.36" style="stroke:#181818;stroke-width:1.0;"/><text fill="#000000" font-family="sans-serif" font-size="13" lengthAdjust="spacing" textLength="32" x="276" y="1134.0283">UC27</text></g><!--link VFM to UC06--><g id="link_VFM_UC06"><path d="M225.57,603.6 C241.23,595.68 255.97,585.38 267,572 C277.7,559.02 268.27,550.42 275,535 C288.03,505.17 290.12,493.36 317,475 C338.35,460.42 359.2487,453.0777 383.9087,448.0977 " fill="none" id="VFM-to-UC06" style="stroke:#181818;stroke-width:1.0;"/><polygon fill="#181818" points="389.79,446.91,380.1763,444.7707,384.8889,447.8998,381.7599,452.6124,389.79,446.91" style="stroke:#181818;stroke-width:1.0;"/><text fill="#000000" font-family="sans-serif" font-size="13" lengthAdjust="spacing" textLength="32" x="276" y="478.0283">UC06</text></g><!--link VFM to UC07--><g id="link_VFM_UC07"><path d="M225.55,591.56 C254.59,580.21 286.95,568.08 317,558 C341.03,549.94 361.8624,543.6884 385.6024,537.0384 " fill="none" id="VFM-to-UC07" style="stroke:#181818;stroke-width:1.0;"/><polygon fill="#181818" points="391.38,535.42,381.6346,533.9959,386.5653,536.7687,383.7925,541.6994,391.38,535.42" style="stroke:#181818;stroke-width:1.0;"/><text fill="#000000" font-family="sans-serif" font-size="13" lengthAdjust="spacing" textLength="32" x="276" y="558.0283">UC07</text></g><!--link VFM to UC08--><g id="link_VFM_UC08"><path d="M225.52,621.44 C264.26,618.24 303.7403,614.9834 344.3403,611.6334 " fill="none" id="VFM-to-UC08" style="stroke:#181818;stroke-width:1.0;"/><polygon fill="#181818" points="350.32,611.14,341.0216,607.8936,345.3369,611.5512,341.6794,615.8665,350.32,611.14" style="stroke:#181818;stroke-width:1.0;"/><text fill="#000000" font-family="sans-serif" font-size="13" lengthAdjust="spacing" textLength="32" x="276" y="611.0283">UC08</text></g><!--SRC=[XPJBRjim44Nt_8g1DcuN1XJwdKK1rsqI54qHn4xsZ3IH1LEaGD88ZAB_NbAZs9ILkjx8l7CkEJDy3EokLBKmee9AAvrjZQuGdDaZEqLgaUr4WMjta0W6CoTK8P4DJeJTYbo_bQg0Lo4jiiXyv7ypyB-lskHeLbfg0mUKKh-nFun9V7NWD9Yos3h8os0gjMBiw8PaVR0EArXcJXkRWB0Wchz04pS3k7ky3v7aRby91OzezTvaQE5UA5-1WKyU-9n4XkSRCZpZjipyCZSIqPrm7-xWjsl2RmsYWhNl39vW7-p0laefNhGHOH1SiP24kgFodYp2IbYaqlOMip2WsjeHFAtIgsQYHonAtmq3wrqffKtEATwbVkYN7ZBg8jtKpjXnmowjBGlLBXbsww9dGdr2XJwEi45_5XwChhKLiWTFkycqcz73PXzY0mkhBMQxuRxkEUQDuwVdtsaBln3pS5J_PU9fTvbehtieRSSop-6xSkOGkhBHmsyQmf8zcf_HfO9bWIeNFN8KTxpfdP-PMFBs7BH73zgwMYkypDBUh8JAK5ucft4Unmx-BvVPgUjqEVAuYRtZokVjxL1sBntGQjwp4NRNXnVjxcJ-9MaGVmwhMc9uC9fB5Tw0uV0BtPRhvXDhd3GUQoFIHh4s9cqSQnFI9enrxZP5VHdNpUV3u8A22yR26zAAAObfh57E_2hMA6VEOurovgDOevpvEDOePpw9jIbfqrYRaJPZBBo9RS44fjDO8p2TnHgLdixPNm00]--></g></svg>