<?xml version="1.0" encoding="us-ascii" standalone="no"?><svg xmlns="http://www.w3.org/2000/svg" xmlns:xlink="http://www.w3.org/1999/xlink" contentStyleType="text/css" height="650px" preserveAspectRatio="none" style="width:563px;height:650px;background:#FFFFFF;" version="1.1" viewBox="0 0 563 650" width="563px" zoomAndPan="magnify"><defs/><g><!--cluster actors--><g id="cluster_actors"><rect fill="none" height="247" rx="2.5" ry="2.5" style="stroke:#FFFF00;stroke-width:1.0;" width="252" x="7" y="227"/><text fill="#000000" font-family="sans-serif" font-size="14" font-weight="bold" lengthAdjust="spacing" textLength="99" x="83.5" y="244.1074">System Actors</text></g><!--cluster usecases--><g id="cluster_usecases"><rect fill="none" height="637" rx="2.5" ry="2.5" style="stroke:#FFFF00;stroke-width:1.0;" width="270" x="287" y="7"/><text fill="#000000" font-family="sans-serif" font-size="14" font-weight="bold" lengthAdjust="spacing" textLength="74" x="385" y="24.1074">Use Cases</text></g><!--entity HRM--><g id="elem_HRM"><ellipse cx="133" cy="273" fill="#F1F1F1" rx="8" ry="8" style="stroke:#181818;stroke-width:0.5;"/><path d="M133,281 L133,308 M120,289 L146,289 M133,308 L120,323 M133,308 L146,323 " fill="none" style="stroke:#181818;stroke-width:0.5;"/><text fill="#000000" font-family="sans-serif" font-size="14" lengthAdjust="spacing" textLength="220" x="23" y="339.6074">Human Resources Manager (HRM)</text></g><!--entity FM--><g id="elem_FM"><ellipse cx="133" cy="387" fill="#F1F1F1" rx="8" ry="8" style="stroke:#181818;stroke-width:0.5;"/><path d="M133,395 L133,422 M120,403 L146,403 M133,422 L120,437 M133,422 L146,437 " fill="none" style="stroke:#181818;stroke-width:0.5;"/><text fill="#000000" font-family="sans-serif" font-size="14" lengthAdjust="spacing" textLength="126" x="70" y="453.6074">Fleet Manager (FM)</text></g><g id="elem_US01"><ellipse cx="422.1246" cy="61.0249" fill="#F1F1F1" rx="73.1246" ry="17.0249" style="stroke:#181818;stroke-width:0.5;"/><text fill="#000000" font-family="sans-serif" font-size="14" lengthAdjust="spacing" textLength="89" x="374.6246" y="65.8286">Register Skills</text></g><g id="elem_US02"><ellipse cx="421.9429" cy="129.9937" fill="#F1F1F1" rx="68.9429" ry="16.4937" style="stroke:#181818;stroke-width:0.5;"/><text fill="#000000" font-family="sans-serif" font-size="14" lengthAdjust="spacing" textLength="79" x="379.4429" y="134.7974">Register Job</text></g><g id="elem_US03"><ellipse cx="421.8582" cy="201.9716" fill="#F1F1F1" rx="90.3582" ry="20.4716" style="stroke:#181818;stroke-width:0.5;"/><text fill="#000000" font-family="sans-serif" font-size="14" lengthAdjust="spacing" textLength="135" x="351.3582" y="206.7754">Register Collaborator</text></g><g id="elem_US04"><ellipse cx="421.8959" cy="281.9792" fill="#F1F1F1" rx="107.8959" ry="23.9792" style="stroke:#181818;stroke-width:0.5;"/><text fill="#000000" font-family="sans-serif" font-size="14" lengthAdjust="spacing" textLength="176" x="333.8959" y="285.7761">Assign Skills to Collaborator</text></g><g id="elem_US05"><ellipse cx="421.8085" cy="364.0617" fill="#F1F1F1" rx="100.8085" ry="22.5617" style="stroke:#181818;stroke-width:0.5;"/><text fill="#000000" font-family="sans-serif" font-size="14" lengthAdjust="spacing" textLength="160" x="340.9387" y="368.1799">Generate Team Proposal</text></g><g id="elem_US06"><ellipse cx="422.0431" cy="440.0086" fill="#F1F1F1" rx="78.0431" ry="18.0086" style="stroke:#181818;stroke-width:0.5;"/><text fill="#000000" font-family="sans-serif" font-size="14" lengthAdjust="spacing" textLength="103" x="367.5431" y="444.8123">Register Vehicle</text></g><g id="elem_US07"><ellipse cx="421.793" cy="517.1586" fill="#F1F1F1" rx="108.793" ry="24.1586" style="stroke:#181818;stroke-width:0.5;"/><text fill="#000000" font-family="sans-serif" font-size="14" lengthAdjust="spacing" textLength="178" x="332.793" y="520.9555">Register Vehicle's Check-up</text></g><g id="elem_US08"><ellipse cx="421.772" cy="602.1544" fill="#F1F1F1" rx="118.772" ry="26.1544" style="stroke:#181818;stroke-width:0.5;"/><text fill="#000000" font-family="sans-serif" font-size="14" lengthAdjust="spacing" textLength="200" x="321.772" y="605.9513">List Vehicles Needing Check-up</text></g><!--link HRM to US01--><g id="link_HRM_US01"><path d="M151.02,264.11 C173.36,216.65 217.13,138.49 279,96 C300.98,80.91 322.9203,73.4552 348.1203,68.5552 " fill="none" id="HRM-to-US01" style="stroke:#181818;stroke-width:1.0;"/><polygon fill="#181818" points="354.01,67.41,344.412,65.2014,349.1019,68.3643,345.9389,73.0543,354.01,67.41" style="stroke:#181818;stroke-width:1.0;"/></g><!--link HRM to US02--><g id="link_HRM_US02"><path d="M164.86,264.21 C191.66,232.38 233.28,189.06 279,164 C303.79,150.41 328.0241,143.3228 354.1441,138.3928 " fill="none" id="HRM-to-US02" style="stroke:#181818;stroke-width:1.0;"/><polygon fill="#181818" points="360.04,137.28,350.4543,135.0186,355.1267,138.2073,351.938,142.8798,360.04,137.28" style="stroke:#181818;stroke-width:1.0;"/></g><!--link HRM to US03--><g id="link_HRM_US03"><path d="M217.84,264.38 C237.66,255.74 258.89,247.08 279,240 C304.52,231.02 327.4365,224.4443 352.3465,218.0843 " fill="none" id="HRM-to-US03" style="stroke:#181818;stroke-width:1.0;"/><polygon fill="#181818" points="358.16,216.6,348.4502,214.9508,353.3154,217.8369,350.4293,222.7021,358.16,216.6" style="stroke:#181818;stroke-width:1.0;"/></g><!--link HRM to US04--><g id="link_HRM_US04"><path d="M243.32,295.62 C268.35,293.7 288.8675,292.1281 313.5475,290.2381 " fill="none" id="HRM-to-US04" style="stroke:#181818;stroke-width:1.0;"/><polygon fill="#181818" points="319.53,289.78,310.2508,286.4789,314.5446,290.1618,310.8617,294.4555,319.53,289.78" style="stroke:#181818;stroke-width:1.0;"/></g><!--link HRM to US05--><g id="link_HRM_US05"><path d="M243.32,326.85 C278.17,334.14 310.0069,340.7923 341.6769,347.4123 " fill="none" id="HRM-to-US05" style="stroke:#181818;stroke-width:1.0;"/><polygon fill="#181818" points="347.55,348.64,339.5588,342.8831,342.6558,347.617,337.922,350.7139,347.55,348.64" style="stroke:#181818;stroke-width:1.0;"/></g><!--link FM to US06--><g id="link_FM_US06"><path d="M196.27,422.77 C240.79,426.19 294.8676,430.3314 341.6976,433.9214 " fill="none" id="FM-to-US06" style="stroke:#181818;stroke-width:1.0;"/><polygon fill="#181818" points="347.68,434.38,339.0121,429.7038,342.6946,433.9978,338.4006,437.6804,347.68,434.38" style="stroke:#181818;stroke-width:1.0;"/></g><!--link FM to US07--><g id="link_FM_US07"><path d="M196.01,443.75 C221.53,453.98 251.5,465.55 279,475 C303.07,483.27 323.9989,489.7537 347.6789,496.6437 " fill="none" id="FM-to-US07" style="stroke:#181818;stroke-width:1.0;"/><polygon fill="#181818" points="353.44,498.32,345.9159,491.9649,348.6391,496.9231,343.6809,499.6463,353.44,498.32" style="stroke:#181818;stroke-width:1.0;"/></g><!--link FM to US08--><g id="link_FM_US08"><path d="M165.85,457.65 C192.93,488.96 234.43,531.63 279,558 C297.1,568.71 312.3516,575.2436 332.5316,581.6536 " fill="none" id="FM-to-US08" style="stroke:#181818;stroke-width:1.0;"/><polygon fill="#181818" points="338.25,583.47,330.8833,576.9331,333.4846,581.9563,328.4614,584.5577,338.25,583.47" style="stroke:#181818;stroke-width:1.0;"/></g><!--SRC=[VP9DJyCm38Rl-HLMBuF39DZt2MbCAXDY2AsCUzPwRTGqgU9KquJuxwJjM3EAoCcl_BonOsT0kL0bDxo0GYiTPqON2DPKoBfCoUESfnZPaqGm65kkKebiq16KyKGVXKhXm2KXyymN_fE1Eu_Q96XMMce39vHI7zaNOn8F5gm68zBCGY9gaz2AiOiRWkX45WjOnbOR2e0Jy2Q4zk96m7gxgJF1kYguWYsIhaoC11kkt0iCt3ZWDl0COSk74j5sL5X3TMDU_HqXh3XXMxiYZ6lH5Zyhs4LtzyrzMqo5QzT0b0ifAVXDZQwfPxtl8UDhn8rCyhqst7NTOoSDkoGIgJgNhCVvhsVQU9vGeSiZlADRrflHfIOkU_3ikfaFp4GiiOVD_yG61AiCutnObJt7ed6yEFw79dX5JEg_r9dS9khD3eSFpOXzCVB5s1SJNqmP2ozYviLpBrwmRm00]--></g></svg>