<?xml version="1.0" encoding="us-ascii" standalone="no"?><svg xmlns="http://www.w3.org/2000/svg" xmlns:xlink="http://www.w3.org/1999/xlink" contentStyleType="text/css" height="650px" preserveAspectRatio="none" style="width:601px;height:650px;background:#FFFFFF;" version="1.1" viewBox="0 0 601 650" width="601px" zoomAndPan="magnify"><defs/><g><!--cluster actors--><g id="cluster_actors"><rect fill="none" height="247" rx="2.5" ry="2.5" style="stroke:#FFFF00;stroke-width:1.0;" width="252" x="7" y="219"/><text fill="#000000" font-family="sans-serif" font-size="14" font-weight="bold" lengthAdjust="spacing" textLength="99" x="83.5" y="236.1074">System Actors</text></g><!--cluster usecases--><g id="cluster_usecases"><rect fill="none" height="637" rx="2.5" ry="2.5" style="stroke:#FFFF00;stroke-width:1.0;" width="270" x="325" y="7"/><text fill="#000000" font-family="sans-serif" font-size="14" font-weight="bold" lengthAdjust="spacing" textLength="74" x="423" y="24.1074">Use Cases</text></g><!--entity HRM--><g id="elem_HRM"><ellipse cx="133" cy="265" fill="#F1F1F1" rx="8" ry="8" style="stroke:#181818;stroke-width:0.5;"/><path d="M133,273 L133,300 M120,281 L146,281 M133,300 L120,315 M133,300 L146,315 " fill="none" style="stroke:#181818;stroke-width:0.5;"/><text fill="#000000" font-family="sans-serif" font-size="14" lengthAdjust="spacing" textLength="220" x="23" y="331.6074">Human Resources Manager (HRM)</text></g><!--entity VFM--><g id="elem_VFM"><ellipse cx="133" cy="379" fill="#F1F1F1" rx="8" ry="8" style="stroke:#181818;stroke-width:0.5;"/><path d="M133,387 L133,414 M120,395 L146,395 M133,414 L120,429 M133,414 L146,429 " fill="none" style="stroke:#181818;stroke-width:0.5;"/><text fill="#000000" font-family="sans-serif" font-size="14" lengthAdjust="spacing" textLength="185" x="40.5" y="445.6074">Vehicle Fleet Manager (VFM)</text></g><g id="elem_US01"><ellipse cx="460.1246" cy="61.0249" fill="#F1F1F1" rx="73.1246" ry="17.0249" style="stroke:#181818;stroke-width:0.5;"/><text fill="#000000" font-family="sans-serif" font-size="14" lengthAdjust="spacing" textLength="89" x="412.6246" y="65.8286">Register Skills</text></g><g id="elem_US02"><ellipse cx="459.9429" cy="129.9937" fill="#F1F1F1" rx="68.9429" ry="16.4937" style="stroke:#181818;stroke-width:0.5;"/><text fill="#000000" font-family="sans-serif" font-size="14" lengthAdjust="spacing" textLength="79" x="417.4429" y="134.7974">Register Job</text></g><g id="elem_US03"><ellipse cx="459.8582" cy="201.9716" fill="#F1F1F1" rx="90.3582" ry="20.4716" style="stroke:#181818;stroke-width:0.5;"/><text fill="#000000" font-family="sans-serif" font-size="14" lengthAdjust="spacing" textLength="135" x="389.3582" y="206.7754">Register Collaborator</text></g><g id="elem_US04"><ellipse cx="459.8959" cy="281.9792" fill="#F1F1F1" rx="107.8959" ry="23.9792" style="stroke:#181818;stroke-width:0.5;"/><text fill="#000000" font-family="sans-serif" font-size="14" lengthAdjust="spacing" textLength="176" x="371.8959" y="285.7761">Assign Skills to Collaborator</text></g><g id="elem_US05"><ellipse cx="459.8085" cy="364.0617" fill="#F1F1F1" rx="100.8085" ry="22.5617" style="stroke:#181818;stroke-width:0.5;"/><text fill="#000000" font-family="sans-serif" font-size="14" lengthAdjust="spacing" textLength="160" x="378.9387" y="368.1799">Generate Team Proposal</text></g><g id="elem_US06"><ellipse cx="460.0431" cy="440.0086" fill="#F1F1F1" rx="78.0431" ry="18.0086" style="stroke:#181818;stroke-width:0.5;"/><text fill="#000000" font-family="sans-serif" font-size="14" lengthAdjust="spacing" textLength="103" x="405.5431" y="444.8123">Register Vehicle</text></g><g id="elem_US07"><ellipse cx="459.793" cy="517.1586" fill="#F1F1F1" rx="108.793" ry="24.1586" style="stroke:#181818;stroke-width:0.5;"/><text fill="#000000" font-family="sans-serif" font-size="14" lengthAdjust="spacing" textLength="178" x="370.793" y="520.9555">Register Vehicle's Check-up</text></g><g id="elem_US08"><ellipse cx="459.772" cy="602.1544" fill="#F1F1F1" rx="118.772" ry="26.1544" style="stroke:#181818;stroke-width:0.5;"/><text fill="#000000" font-family="sans-serif" font-size="14" lengthAdjust="spacing" textLength="200" x="359.772" y="605.9513">List Vehicles Needing Check-up</text></g><!--link HRM to US01--><g id="link_HRM_US01"><path d="M159.34,256.47 C190.76,210.76 248.6,136.6 317,96 C340.36,82.13 363.1158,74.9131 388.5458,69.8431 " fill="none" id="HRM-to-US01" style="stroke:#181818;stroke-width:1.0;"/><polygon fill="#181818" points="394.43,68.67,384.8216,66.5069,389.5265,69.6476,386.3858,74.3525,394.43,68.67" style="stroke:#181818;stroke-width:1.0;"/><text fill="#000000" font-family="sans-serif" font-size="13" lengthAdjust="spacing" textLength="32" x="276" y="100.0283">US01</text></g><!--link HRM to US02--><g id="link_HRM_US02"><path d="M178.26,256.42 C213.52,226.88 265.37,187.68 317,164 C343.38,151.9 368.6842,144.9851 395.1042,139.7551 " fill="none" id="HRM-to-US02" style="stroke:#181818;stroke-width:1.0;"/><polygon fill="#181818" points="400.99,138.59,391.3846,136.4138,396.0852,139.5609,392.9381,144.2615,400.99,138.59" style="stroke:#181818;stroke-width:1.0;"/><text fill="#000000" font-family="sans-serif" font-size="13" lengthAdjust="spacing" textLength="32" x="276" y="166.0283">US02</text></g><!--link HRM to US03--><g id="link_HRM_US03"><path d="M243.16,261.9 C267.42,254.52 293.05,246.87 317,240 C344.11,232.23 368.4693,225.6237 393.9993,218.8737 " fill="none" id="HRM-to-US03" style="stroke:#181818;stroke-width:1.0;"/><polygon fill="#181818" points="399.8,217.34,390.0765,215.7734,394.9661,218.6181,392.1214,223.5076,399.8,217.34" style="stroke:#181818;stroke-width:1.0;"/><text fill="#000000" font-family="sans-serif" font-size="13" lengthAdjust="spacing" textLength="32" x="276" y="239.0283">US03</text></g><!--link HRM to US04--><g id="link_HRM_US04"><path d="M243.12,291.3 C278.81,289.76 312.3556,288.3192 347.7456,286.7892 " fill="none" id="HRM-to-US04" style="stroke:#181818;stroke-width:1.0;"/><polygon fill="#181818" points="353.74,286.53,344.5756,282.9225,348.7447,286.746,344.9212,290.915,353.74,286.53" style="stroke:#181818;stroke-width:1.0;"/><text fill="#000000" font-family="sans-serif" font-size="13" lengthAdjust="spacing" textLength="32" x="276" y="285.0283">US04</text></g><!--link HRM to US05--><g id="link_HRM_US05"><path d="M243.12,318.83 C289.96,328.63 337.5871,338.6015 379.6071,347.3915 " fill="none" id="HRM-to-US05" style="stroke:#181818;stroke-width:1.0;"/><polygon fill="#181818" points="385.48,348.62,377.4897,342.862,380.5859,347.5962,375.8517,350.6925,385.48,348.62" style="stroke:#181818;stroke-width:1.0;"/><text fill="#000000" font-family="sans-serif" font-size="13" lengthAdjust="spacing" textLength="32" x="276" y="322.0283">US05</text></g><!--link VFM to US06--><g id="link_VFM_US06"><path d="M225.83,418.48 C276.98,423.2 333.7554,428.4381 381.2754,432.8281 " fill="none" id="VFM-to-US06" style="stroke:#181818;stroke-width:1.0;"/><polygon fill="#181818" points="387.25,433.38,378.6561,428.569,382.2712,432.92,377.9202,436.5351,387.25,433.38" style="stroke:#181818;stroke-width:1.0;"/><text fill="#000000" font-family="sans-serif" font-size="13" lengthAdjust="spacing" textLength="32" x="276" y="420.0283">US06</text></g><!--link VFM to US07--><g id="link_VFM_US07"><path d="M225.83,443.7 C254.88,454.07 287.18,465.3 317,475 C341.45,482.95 362.7015,489.4147 386.5515,496.3947 " fill="none" id="VFM-to-US07" style="stroke:#181818;stroke-width:1.0;"/><polygon fill="#181818" points="392.31,498.08,384.7958,491.7131,387.5113,496.6756,382.5488,499.391,392.31,498.08" style="stroke:#181818;stroke-width:1.0;"/><text fill="#000000" font-family="sans-serif" font-size="13" lengthAdjust="spacing" textLength="32" x="276" y="458.0283">US07</text></g><!--link VFM to US08--><g id="link_VFM_US08"><path d="M173.63,449.61 C208.68,482.68 262.57,528.95 317,558 C336.13,568.21 352.263,574.6607 373.003,581.1407 " fill="none" id="VFM-to-US08" style="stroke:#181818;stroke-width:1.0;"/><polygon fill="#181818" points="378.73,582.93,371.3324,576.428,373.9575,581.4389,368.9466,584.064,378.73,582.93" style="stroke:#181818;stroke-width:1.0;"/><text fill="#000000" font-family="sans-serif" font-size="13" lengthAdjust="spacing" textLength="32" x="276" y="531.0283">US08</text></g><!--SRC=[VP9VJy8m5CNV-obkze8-a2Z_uuC9aY0nOWm8xsLSjcPTk_Hs8SJutUrMPCKPzxBTSt-dFRjjXpAX2cvu3hbMEawDpX6iAP4rdOB76KzmRKyImM1ikKeaiav3KCht-YXK0WSk2LbWll2V3DppfCqUpKnBRU24KkeZ-s9Cui62rM14abhOYyeaj6BiuePeVIABEKnZgmr5m0bu_Gb-uRg0nMfPTQ95cNC5AoHTcXW9bbovFp1muu3RA31ivzwmnLJ4RfkvHBGDxjeEho86IJQ4CEE4FaL965U5Zt6kOBE-kwyNNc4YN703wqn8IT5lgdTDlUXT2-bV8svuak-quIv_YntKx9H89EgyPJNOVpt3slEC2bqVuGFTiRqRNMZYiWMFhiESvzR2ndzY7O9PYd7MBOkMOr8xNXt_GnEy8UwhMzMOt4cmwf2xtKS_uuVw5Mezh_L2hU-rVgWDl3O8jQ7NXenL5-CiZhmu2hMnryQXDl7QX7q3]--></g></svg>