<?xml version="1.0" encoding="us-ascii" standalone="no"?><svg xmlns="http://www.w3.org/2000/svg" xmlns:xlink="http://www.w3.org/1999/xlink" contentStyleType="text/css" height="537px" preserveAspectRatio="none" style="width:867px;height:537px;background:#FFFFFF;" version="1.1" viewBox="0 0 867 537" width="867px" zoomAndPan="magnify"><defs/><g><rect fill="#FFFFFF" height="343.2402" style="stroke:#181818;stroke-width:1.0;" width="10" x="87.5" y="93.6211"/><rect fill="#FFFFFF" height="319.9492" style="stroke:#181818;stroke-width:1.0;" width="10" x="279.5" y="116.9121"/><rect fill="#FFFFFF" height="247.3672" style="stroke:#181818;stroke-width:1.0;" width="10" x="437" y="158.2031"/><line style="stroke:#181818;stroke-width:0.5;stroke-dasharray:5.0,5.0;" x1="92" x2="92" y1="83.6211" y2="454.8613"/><line style="stroke:#181818;stroke-width:0.5;stroke-dasharray:5.0,5.0;" x1="284" x2="284" y1="83.6211" y2="454.8613"/><line style="stroke:#181818;stroke-width:0.5;stroke-dasharray:5.0,5.0;" x1="441.5" x2="441.5" y1="156.7227" y2="454.8613"/><line style="stroke:#181818;stroke-width:0.5;stroke-dasharray:5.0,5.0;" x1="572.5" x2="572.5" y1="83.6211" y2="454.8613"/><line style="stroke:#181818;stroke-width:0.5;stroke-dasharray:5.0,5.0;" x1="679.5" x2="679.5" y1="83.6211" y2="454.8613"/><line style="stroke:#181818;stroke-width:0.5;stroke-dasharray:5.0,5.0;" x1="758.5" x2="758.5" y1="83.6211" y2="454.8613"/><text fill="#000000" font-family="sans-serif" font-size="14" lengthAdjust="spacing" textLength="169" x="5" y="80.1074">Human Resource Manager</text><ellipse cx="92.5" cy="13.5" fill="#E3E3E3" rx="8" ry="8" style="stroke:#181818;stroke-width:0.5;"/><path d="M92.5,21.5 L92.5,48.5 M79.5,29.5 L105.5,29.5 M92.5,48.5 L79.5,63.5 M92.5,48.5 L105.5,63.5 " fill="none" style="stroke:#181818;stroke-width:0.5;"/><text fill="#000000" font-family="sans-serif" font-size="14" lengthAdjust="spacing" textLength="169" x="5" y="468.9688">Human Resource Manager</text><ellipse cx="92.5" cy="480.9824" fill="#E3E3E3" rx="8" ry="8" style="stroke:#181818;stroke-width:0.5;"/><path d="M92.5,488.9824 L92.5,515.9824 M79.5,496.9824 L105.5,496.9824 M92.5,515.9824 L79.5,530.9824 M92.5,515.9824 L105.5,530.9824 " fill="none" style="stroke:#181818;stroke-width:0.5;"/><rect fill="#E3E3E3" height="32.6211" rx="2.5" ry="2.5" style="stroke:#181818;stroke-width:0.5;" width="95" x="237" y="50"/><text fill="#000000" font-family="sans-serif" font-size="14" lengthAdjust="spacing" textLength="81" x="244" y="72.1074">:CreateJobUI</text><rect fill="#E3E3E3" height="32.6211" rx="2.5" ry="2.5" style="stroke:#181818;stroke-width:0.5;" width="95" x="237" y="453.8613"/><text fill="#000000" font-family="sans-serif" font-size="14" lengthAdjust="spacing" textLength="81" x="244" y="475.9688">:CreateJobUI</text><rect fill="#E3E3E3" height="32.6211" rx="2.5" ry="2.5" style="stroke:#181818;stroke-width:0.5;" width="145" x="369.5" y="453.8613"/><text fill="#000000" font-family="sans-serif" font-size="14" lengthAdjust="spacing" textLength="131" x="376.5" y="475.9688">:CreateJobController</text><rect fill="#E3E3E3" height="32.6211" rx="2.5" ry="2.5" style="stroke:#181818;stroke-width:0.5;" width="97" x="524.5" y="50"/><text fill="#000000" font-family="sans-serif" font-size="14" lengthAdjust="spacing" textLength="83" x="531.5" y="72.1074">:Repositories</text><rect fill="#E3E3E3" height="32.6211" rx="2.5" ry="2.5" style="stroke:#181818;stroke-width:0.5;" width="97" x="524.5" y="453.8613"/><text fill="#000000" font-family="sans-serif" font-size="14" lengthAdjust="spacing" textLength="83" x="531.5" y="475.9688">:Repositories</text><rect fill="#E3E3E3" height="51.2422" rx="2.5" ry="2.5" style="stroke:#181818;stroke-width:0.5;" width="97" x="631.5" y="31.3789"/><text fill="#000000" font-family="sans-serif" font-size="14" lengthAdjust="spacing" textLength="74" x="643" y="53.4863">repositories</text><text fill="#000000" font-family="sans-serif" font-size="14" lengthAdjust="spacing" textLength="83" x="638.5" y="72.1074">:Repositories</text><rect fill="#E3E3E3" height="51.2422" rx="2.5" ry="2.5" style="stroke:#181818;stroke-width:0.5;" width="97" x="631.5" y="453.8613"/><text fill="#000000" font-family="sans-serif" font-size="14" lengthAdjust="spacing" textLength="74" x="643" y="475.9688">repositories</text><text fill="#000000" font-family="sans-serif" font-size="14" lengthAdjust="spacing" textLength="83" x="638.5" y="494.5898">:Repositories</text><rect fill="#E3E3E3" height="51.2422" rx="2.5" ry="2.5" style="stroke:#181818;stroke-width:0.5;" width="40" x="738.5" y="31.3789"/><text fill="#000000" font-family="sans-serif" font-size="14" lengthAdjust="spacing" textLength="19" x="749" y="53.4863">job</text><text fill="#000000" font-family="sans-serif" font-size="14" lengthAdjust="spacing" textLength="26" x="745.5" y="72.1074">:Job</text><rect fill="#E3E3E3" height="51.2422" rx="2.5" ry="2.5" style="stroke:#181818;stroke-width:0.5;" width="40" x="738.5" y="453.8613"/><text fill="#000000" font-family="sans-serif" font-size="14" lengthAdjust="spacing" textLength="19" x="749" y="475.9688">job</text><text fill="#000000" font-family="sans-serif" font-size="14" lengthAdjust="spacing" textLength="26" x="745.5" y="494.5898">:Job</text><rect fill="#FFFFFF" height="343.2402" style="stroke:#181818;stroke-width:1.0;" width="10" x="87.5" y="93.6211"/><rect fill="#FFFFFF" height="319.9492" style="stroke:#181818;stroke-width:1.0;" width="10" x="279.5" y="116.9121"/><rect fill="#FFFFFF" height="247.3672" style="stroke:#181818;stroke-width:1.0;" width="10" x="437" y="158.2031"/><polygon fill="#181818" points="267.5,112.9121,277.5,116.9121,267.5,120.9121,271.5,116.9121" style="stroke:#181818;stroke-width:1.0;"/><line style="stroke:#181818;stroke-width:1.0;" x1="97.5" x2="273.5" y1="116.9121" y2="116.9121"/><text fill="#000000" font-family="sans-serif" font-size="13" lengthAdjust="spacing" textLength="142" x="104.5" y="111.6494">asks to create a new job</text><polygon fill="#181818" points="357.5,144.2031,367.5,148.2031,357.5,152.2031,361.5,148.2031" style="stroke:#181818;stroke-width:1.0;"/><line style="stroke:#181818;stroke-width:1.0;" x1="289.5" x2="363.5" y1="148.2031" y2="148.2031"/><text fill="#000000" font-family="sans-serif" font-size="13" lengthAdjust="spacing" textLength="56" x="296.5" y="142.9404">createJob</text><rect fill="#E3E3E3" height="32.6211" rx="2.5" ry="2.5" style="stroke:#181818;stroke-width:0.5;" width="145" x="369.5" y="124.9121"/><text fill="#000000" font-family="sans-serif" font-size="14" lengthAdjust="spacing" textLength="131" x="376.5" y="147.0195">:CreateJobController</text><polygon fill="#181818" points="668,187.8242,678,191.8242,668,195.8242,672,191.8242" style="stroke:#181818;stroke-width:1.0;"/><line style="stroke:#181818;stroke-width:1.0;" x1="447" x2="674" y1="191.8242" y2="191.8242"/><text fill="#000000" font-family="sans-serif" font-size="13" lengthAdjust="spacing" textLength="108" x="454" y="186.5615">getJobRepository()</text><polygon fill="#181818" points="458,219.1152,448,223.1152,458,227.1152,454,223.1152" style="stroke:#181818;stroke-width:1.0;"/><line style="stroke:#181818;stroke-width:1.0;stroke-dasharray:2.0,2.0;" x1="452" x2="679" y1="223.1152" y2="223.1152"/><text fill="#000000" font-family="sans-serif" font-size="13" lengthAdjust="spacing" textLength="79" x="464" y="217.8525">jobRepository</text><polygon fill="#181818" points="746.5,250.4063,756.5,254.4063,746.5,258.4063,750.5,254.4063" style="stroke:#181818;stroke-width:1.0;"/><line style="stroke:#181818;stroke-width:1.0;" x1="447" x2="752.5" y1="254.4063" y2="254.4063"/><text fill="#000000" font-family="sans-serif" font-size="13" lengthAdjust="spacing" textLength="115" x="454" y="249.1436">createJob(jobName)</text><line style="stroke:#181818;stroke-width:1.0;" x1="758.5" x2="800.5" y1="285.6973" y2="285.6973"/><line style="stroke:#181818;stroke-width:1.0;" x1="800.5" x2="800.5" y1="285.6973" y2="298.6973"/><line style="stroke:#181818;stroke-width:1.0;" x1="759.5" x2="800.5" y1="298.6973" y2="298.6973"/><polygon fill="#181818" points="769.5,294.6973,759.5,298.6973,769.5,302.6973,765.5,298.6973" style="stroke:#181818;stroke-width:1.0;"/><text fill="#000000" font-family="sans-serif" font-size="13" lengthAdjust="spacing" textLength="95" x="765.5" y="280.4346">create(jobName)</text><line style="stroke:#181818;stroke-width:1.0;" x1="758.5" x2="800.5" y1="329.9883" y2="329.9883"/><line style="stroke:#181818;stroke-width:1.0;" x1="800.5" x2="800.5" y1="329.9883" y2="342.9883"/><line style="stroke:#181818;stroke-width:1.0;" x1="759.5" x2="800.5" y1="342.9883" y2="342.9883"/><polygon fill="#181818" points="769.5,338.9883,759.5,342.9883,769.5,346.9883,765.5,342.9883" style="stroke:#181818;stroke-width:1.0;"/><text fill="#000000" font-family="sans-serif" font-size="13" lengthAdjust="spacing" textLength="66" x="765.5" y="324.7256">addJob(job)</text><polygon fill="#181818" points="458,370.2793,448,374.2793,458,378.2793,454,374.2793" style="stroke:#181818;stroke-width:1.0;"/><line style="stroke:#181818;stroke-width:1.0;stroke-dasharray:2.0,2.0;" x1="452" x2="757.5" y1="374.2793" y2="374.2793"/><text fill="#000000" font-family="sans-serif" font-size="13" lengthAdjust="spacing" textLength="17" x="464" y="369.0166">job</text><polygon fill="#181818" points="300.5,401.5703,290.5,405.5703,300.5,409.5703,296.5,405.5703" style="stroke:#181818;stroke-width:1.0;"/><line style="stroke:#181818;stroke-width:1.0;stroke-dasharray:2.0,2.0;" x1="294.5" x2="441" y1="405.5703" y2="405.5703"/><text fill="#000000" font-family="sans-serif" font-size="13" lengthAdjust="spacing" textLength="17" x="306.5" y="400.3076">job</text><polygon fill="#181818" points="103.5,432.8613,93.5,436.8613,103.5,440.8613,99.5,436.8613" style="stroke:#181818;stroke-width:1.0;"/><line style="stroke:#181818;stroke-width:1.0;stroke-dasharray:2.0,2.0;" x1="97.5" x2="283.5" y1="436.8613" y2="436.8613"/><text fill="#000000" font-family="sans-serif" font-size="13" lengthAdjust="spacing" textLength="158" x="109.5" y="431.5986">displays operation success</text><!--SRC=[TP31Ri8m38RlUGgB4o3n0ZrCshZ01DjKuBQBIRsIqSPLaWxnzdFI3WhRBf7Y__zjV_P7OnjqM4FDblN1SKqGN4lANvG6zH5BseHpHU181xHbDJJu0nPyChQ43wmyAOKwi8FHegtHGawUMwS9rcYbZHi1UbZaQoNXOBHfq0OOPND76EYPzxjbSkoM_ndcR8FZgkfRpRVvwiwQKyFUo0w6VF9S2kUDYSi7jhSHDqYyszyDtbQFszl49-_5AEia_VdrAM6RBzanqIbvOFOW7929u-WXCEZ400YMJY0T1XdXLUALH0IQJYMbVuW7jaIhuXkjSQqCIWfYkZAE9oeACEkRPN7KLRx6PUl1bB6uNh2cYPBwdVotXaNHvoQg4_g9a7LqtQ1qXQvIq2r991PPRfL1ONnJuTa3D-Gm6BRWMwt9-s5CxZJuIV0R]--></g></svg>