<?xml version="1.0" encoding="us-ascii" standalone="no"?><svg xmlns="http://www.w3.org/2000/svg" xmlns:xlink="http://www.w3.org/1999/xlink" contentStyleType="text/css" height="499px" preserveAspectRatio="none" style="width:1612px;height:499px;background:#FFFFFF;" version="1.1" viewBox="0 0 1612 499" width="1612px" zoomAndPan="magnify"><defs/><g><rect fill="#FFFFFF" height="281.6191" style="stroke:#181818;stroke-width:1.0;" width="10" x="277.5" y="116.9121"/><rect fill="#FFFFFF" height="219.0371" style="stroke:#181818;stroke-width:1.0;" width="10" x="977.5" y="148.2031"/><rect fill="#FFFFFF" height="187.7461" style="stroke:#181818;stroke-width:1.0;" width="10" x="1132.5" y="179.4941"/><rect fill="#FFFFFF" height="156.4551" style="stroke:#181818;stroke-width:1.0;" width="10" x="1269.5" y="210.7852"/><rect fill="#FFFFFF" height="125.1641" style="stroke:#181818;stroke-width:1.0;" width="10" x="1395.5" y="242.0762"/><rect fill="#FFFFFF" height="31.291" style="stroke:#181818;stroke-width:1.0;" width="10" x="1469.5" y="304.6582"/><line style="stroke:#181818;stroke-width:0.5;stroke-dasharray:5.0,5.0;" x1="92" x2="92" y1="83.6211" y2="416.5313"/><line style="stroke:#181818;stroke-width:0.5;stroke-dasharray:5.0,5.0;" x1="282" x2="282" y1="83.6211" y2="416.5313"/><line style="stroke:#181818;stroke-width:0.5;stroke-dasharray:5.0,5.0;" x1="982" x2="982" y1="83.6211" y2="416.5313"/><line style="stroke:#181818;stroke-width:0.5;stroke-dasharray:5.0,5.0;" x1="1137" x2="1137" y1="83.6211" y2="416.5313"/><line style="stroke:#181818;stroke-width:0.5;stroke-dasharray:5.0,5.0;" x1="1274.5" x2="1274.5" y1="83.6211" y2="416.5313"/><line style="stroke:#181818;stroke-width:0.5;stroke-dasharray:5.0,5.0;" x1="1400.5" x2="1400.5" y1="83.6211" y2="416.5313"/><line style="stroke:#181818;stroke-width:0.5;stroke-dasharray:5.0,5.0;" x1="1474.5" x2="1474.5" y1="83.6211" y2="416.5313"/><line style="stroke:#181818;stroke-width:0.5;stroke-dasharray:5.0,5.0;" x1="1568.5" x2="1568.5" y1="83.6211" y2="416.5313"/><text fill="#000000" font-family="sans-serif" font-size="14" lengthAdjust="spacing" textLength="169" x="5" y="80.1074">Human Resource Manager</text><ellipse cx="92.5" cy="13.5" fill="#E3E3E3" rx="8" ry="8" style="stroke:#181818;stroke-width:0.5;"/><path d="M92.5,21.5 L92.5,48.5 M79.5,29.5 L105.5,29.5 M92.5,48.5 L79.5,63.5 M92.5,48.5 L105.5,63.5 " fill="none" style="stroke:#181818;stroke-width:0.5;"/><text fill="#000000" font-family="sans-serif" font-size="14" lengthAdjust="spacing" textLength="169" x="5" y="430.6387">Human Resource Manager</text><ellipse cx="92.5" cy="442.6523" fill="#E3E3E3" rx="8" ry="8" style="stroke:#181818;stroke-width:0.5;"/><path d="M92.5,450.6523 L92.5,477.6523 M79.5,458.6523 L105.5,458.6523 M92.5,477.6523 L79.5,492.6523 M92.5,477.6523 L105.5,492.6523 " fill="none" style="stroke:#181818;stroke-width:0.5;"/><rect fill="#E3E3E3" height="32.6211" rx="2.5" ry="2.5" style="stroke:#181818;stroke-width:0.5;" width="147" x="209" y="50"/><text fill="#000000" font-family="sans-serif" font-size="14" lengthAdjust="spacing" textLength="133" x="216" y="72.1074">CreateCollaboratorUI</text><rect fill="#E3E3E3" height="32.6211" rx="2.5" ry="2.5" style="stroke:#181818;stroke-width:0.5;" width="147" x="209" y="415.5313"/><text fill="#000000" font-family="sans-serif" font-size="14" lengthAdjust="spacing" textLength="133" x="216" y="437.6387">CreateCollaboratorUI</text><rect fill="#E3E3E3" height="32.6211" rx="2.5" ry="2.5" style="stroke:#181818;stroke-width:0.5;" width="197" x="884" y="50"/><text fill="#000000" font-family="sans-serif" font-size="14" lengthAdjust="spacing" textLength="183" x="891" y="72.1074">CreateCollaboratorController</text><rect fill="#E3E3E3" height="32.6211" rx="2.5" ry="2.5" style="stroke:#181818;stroke-width:0.5;" width="197" x="884" y="415.5313"/><text fill="#000000" font-family="sans-serif" font-size="14" lengthAdjust="spacing" textLength="183" x="891" y="437.6387">CreateCollaboratorController</text><rect fill="#E3E3E3" height="32.6211" rx="2.5" ry="2.5" style="stroke:#181818;stroke-width:0.5;" width="93" x="1091" y="50"/><text fill="#000000" font-family="sans-serif" font-size="14" lengthAdjust="spacing" textLength="79" x="1098" y="72.1074">Repositories</text><rect fill="#E3E3E3" height="32.6211" rx="2.5" ry="2.5" style="stroke:#181818;stroke-width:0.5;" width="93" x="1091" y="415.5313"/><text fill="#000000" font-family="sans-serif" font-size="14" lengthAdjust="spacing" textLength="79" x="1098" y="437.6387">Repositories</text><rect fill="#E3E3E3" height="32.6211" rx="2.5" ry="2.5" style="stroke:#181818;stroke-width:0.5;" width="104" x="1222.5" y="50"/><text fill="#000000" font-family="sans-serif" font-size="14" lengthAdjust="spacing" textLength="90" x="1229.5" y="72.1074">JobRepository</text><rect fill="#E3E3E3" height="32.6211" rx="2.5" ry="2.5" style="stroke:#181818;stroke-width:0.5;" width="104" x="1222.5" y="415.5313"/><text fill="#000000" font-family="sans-serif" font-size="14" lengthAdjust="spacing" textLength="90" x="1229.5" y="437.6387">JobRepository</text><rect fill="#E3E3E3" height="32.6211" rx="2.5" ry="2.5" style="stroke:#181818;stroke-width:0.5;" width="36" x="1382.5" y="50"/><text fill="#000000" font-family="sans-serif" font-size="14" lengthAdjust="spacing" textLength="22" x="1389.5" y="72.1074">Job</text><rect fill="#E3E3E3" height="32.6211" rx="2.5" ry="2.5" style="stroke:#181818;stroke-width:0.5;" width="36" x="1382.5" y="415.5313"/><text fill="#000000" font-family="sans-serif" font-size="14" lengthAdjust="spacing" textLength="22" x="1389.5" y="437.6387">Job</text><rect fill="#E3E3E3" height="32.6211" rx="2.5" ry="2.5" style="stroke:#181818;stroke-width:0.5;" width="92" x="1428.5" y="50"/><text fill="#000000" font-family="sans-serif" font-size="14" lengthAdjust="spacing" textLength="78" x="1435.5" y="72.1074">Collaborator</text><rect fill="#E3E3E3" height="32.6211" rx="2.5" ry="2.5" style="stroke:#181818;stroke-width:0.5;" width="92" x="1428.5" y="415.5313"/><text fill="#000000" font-family="sans-serif" font-size="14" lengthAdjust="spacing" textLength="78" x="1435.5" y="437.6387">Collaborator</text><rect fill="#E3E3E3" height="32.6211" rx="2.5" ry="2.5" style="stroke:#181818;stroke-width:0.5;" width="76" x="1530.5" y="50"/><text fill="#000000" font-family="sans-serif" font-size="14" lengthAdjust="spacing" textLength="62" x="1537.5" y="72.1074">Employee</text><rect fill="#E3E3E3" height="32.6211" rx="2.5" ry="2.5" style="stroke:#181818;stroke-width:0.5;" width="76" x="1530.5" y="415.5313"/><text fill="#000000" font-family="sans-serif" font-size="14" lengthAdjust="spacing" textLength="62" x="1537.5" y="437.6387">Employee</text><rect fill="#FFFFFF" height="281.6191" style="stroke:#181818;stroke-width:1.0;" width="10" x="277.5" y="116.9121"/><rect fill="#FFFFFF" height="219.0371" style="stroke:#181818;stroke-width:1.0;" width="10" x="977.5" y="148.2031"/><rect fill="#FFFFFF" height="187.7461" style="stroke:#181818;stroke-width:1.0;" width="10" x="1132.5" y="179.4941"/><rect fill="#FFFFFF" height="156.4551" style="stroke:#181818;stroke-width:1.0;" width="10" x="1269.5" y="210.7852"/><rect fill="#FFFFFF" height="125.1641" style="stroke:#181818;stroke-width:1.0;" width="10" x="1395.5" y="242.0762"/><rect fill="#FFFFFF" height="31.291" style="stroke:#181818;stroke-width:1.0;" width="10" x="1469.5" y="304.6582"/><polygon fill="#181818" points="265.5,112.9121,275.5,116.9121,265.5,120.9121,269.5,116.9121" style="stroke:#181818;stroke-width:1.0;"/><line style="stroke:#181818;stroke-width:1.0;" x1="92.5" x2="271.5" y1="116.9121" y2="116.9121"/><text fill="#000000" font-family="sans-serif" font-size="13" lengthAdjust="spacing" textLength="166" x="99.5" y="111.6494">initiates collaborator creation</text><polygon fill="#181818" points="965.5,144.2031,975.5,148.2031,965.5,152.2031,969.5,148.2031" style="stroke:#181818;stroke-width:1.0;"/><line style="stroke:#181818;stroke-width:1.0;" x1="287.5" x2="971.5" y1="148.2031" y2="148.2031"/><text fill="#000000" font-family="sans-serif" font-size="13" lengthAdjust="spacing" textLength="671" x="294.5" y="142.9404">CreateCollaborator(name, birthdayDate, admissionDate, address, phoneNumber, email, taxpayerNumber, BINumber)</text><polygon fill="#181818" points="1120.5,175.4941,1130.5,179.4941,1120.5,183.4941,1124.5,179.4941" style="stroke:#181818;stroke-width:1.0;"/><line style="stroke:#181818;stroke-width:1.0;" x1="987.5" x2="1126.5" y1="179.4941" y2="179.4941"/><text fill="#000000" font-family="sans-serif" font-size="13" lengthAdjust="spacing" textLength="108" x="994.5" y="174.2314">getJobRepository()</text><polygon fill="#181818" points="1257.5,206.7852,1267.5,210.7852,1257.5,214.7852,1261.5,210.7852" style="stroke:#181818;stroke-width:1.0;"/><line style="stroke:#181818;stroke-width:1.0;" x1="1142.5" x2="1263.5" y1="210.7852" y2="210.7852"/><text fill="#000000" font-family="sans-serif" font-size="13" lengthAdjust="spacing" textLength="97" x="1149.5" y="205.5225">getJob(jobName)</text><polygon fill="#181818" points="1383.5,238.0762,1393.5,242.0762,1383.5,246.0762,1387.5,242.0762" style="stroke:#181818;stroke-width:1.0;"/><line style="stroke:#181818;stroke-width:1.0;" x1="1279.5" x2="1389.5" y1="242.0762" y2="242.0762"/><text fill="#000000" font-family="sans-serif" font-size="13" lengthAdjust="spacing" textLength="97" x="1286.5" y="236.8135">getJob(jobName)</text><polygon fill="#181818" points="1257.5,269.3672,1267.5,273.3672,1257.5,277.3672,1261.5,273.3672" style="stroke:#181818;stroke-width:1.0;"/><line style="stroke:#181818;stroke-width:1.0;" x1="987.5" x2="1263.5" y1="273.3672" y2="273.3672"/><text fill="#000000" font-family="sans-serif" font-size="13" lengthAdjust="spacing" textLength="258" x="994.5" y="268.1045">addCollaboratorToJob(jobName, collaborator)</text><polygon fill="#181818" points="1457.5,300.6582,1467.5,304.6582,1457.5,308.6582,1461.5,304.6582" style="stroke:#181818;stroke-width:1.0;"/><line style="stroke:#181818;stroke-width:1.0;" x1="1279.5" x2="1463.5" y1="304.6582" y2="304.6582"/><text fill="#000000" font-family="sans-serif" font-size="13" lengthAdjust="spacing" textLength="155" x="1286.5" y="299.3955">check if collaborator exists</text><polygon fill="#181818" points="998.5,331.9492,988.5,335.9492,998.5,339.9492,994.5,335.9492" style="stroke:#181818;stroke-width:1.0;"/><line style="stroke:#181818;stroke-width:1.0;stroke-dasharray:2.0,2.0;" x1="992.5" x2="1268.5" y1="335.9492" y2="335.9492"/><text fill="#000000" font-family="sans-serif" font-size="13" lengthAdjust="spacing" textLength="169" x="1004.5" y="330.6865">collaboratorExists (true/false)</text><polygon fill="#181818" points="298.5,363.2402,288.5,367.2402,298.5,371.2402,294.5,367.2402" style="stroke:#181818;stroke-width:1.0;"/><line style="stroke:#181818;stroke-width:1.0;stroke-dasharray:2.0,2.0;" x1="292.5" x2="981.5" y1="367.2402" y2="367.2402"/><text fill="#000000" font-family="sans-serif" font-size="13" lengthAdjust="spacing" textLength="182" x="304.5" y="361.9775">collaborator added successfully</text><polygon fill="#181818" points="103.5,394.5313,93.5,398.5313,103.5,402.5313,99.5,398.5313" style="stroke:#181818;stroke-width:1.0;"/><line style="stroke:#181818;stroke-width:1.0;stroke-dasharray:2.0,2.0;" x1="97.5" x2="281.5" y1="398.5313" y2="398.5313"/><text fill="#000000" font-family="sans-serif" font-size="13" lengthAdjust="spacing" textLength="158" x="109.5" y="393.2686">displays success message</text><!--SRC=[XLFBZjim3BpxAuYS4i15xpxieUa2SO7iOR7v05fcOdKjoH3bTlttbHG_f6pHNcIJdE5ZAF6xr0DQLA2CDgApHX4uErB1QuGxRCrlgMzmnPwfA50uOs5t6XLgU2KsenK4PzHu8xi3P3YT2yzrKiW1jOFTqH8wEfg-nyPOzFHB7O6N-d_0ez7EUdlEl9avyPK6mzBZ9N44HaUE-M6Q5JP5qEpv15k23yqbRStDR8uS-go6tan44UQDeZYTuSkJdxS2gQMJVae6aV11XD6bqK5U-Sl7WpYNEh2seIluhD1Uew8I6cbTr-BqtOTBm5P9PfzkCLjBp2KCdT7qCgg6R0caKFObEFmOS2AxkB_Lzx_3raeY-_ORMek2Ld0ZbwcxJxZtJSGpC6RSmjd_DCsB7o0XB5kPlpFftuI7jjOYVl1KgpUJP2Yp1HpIUYcd0j6HU0TvpHT67v8Tfnebjs7DzR2-DCDpJ03xyDw-nhTrA5hwUxvqlFaUPStuEQa57eNmQxwEVJ-bgO90kHa5Jbpt9MNLrus7I-XhdiuLj9A77YTUAe7oXt_sAVDI_m40]--></g></svg>