<?xml version="1.0" encoding="us-ascii" standalone="no"?><svg xmlns="http://www.w3.org/2000/svg" xmlns:xlink="http://www.w3.org/1999/xlink" contentStyleType="text/css" height="824px" preserveAspectRatio="none" style="width:1543px;height:824px;background:#FFFFFF;" version="1.1" viewBox="0 0 1543 824" width="1543px" zoomAndPan="magnify"><defs/><g><!--class ApplicationSession--><g id="elem_ApplicationSession"><rect codeLine="12" fill="#F1F1F1" height="85.2422" id="ApplicationSession" rx="2.5" ry="2.5" style="stroke:#181818;stroke-width:0.5;" width="151" x="1289" y="7"/><ellipse cx="1304" cy="23" fill="#ADD1B2" rx="11" ry="11" style="stroke:#181818;stroke-width:1.0;"/><path d="M1306.7656,18.875 Q1306.9219,18.6563 1307.1094,18.5469 Q1307.2969,18.4375 1307.5156,18.4375 Q1307.8906,18.4375 1308.125,18.7031 Q1308.3594,18.9531 1308.3594,19.5625 L1308.3594,21.0156 Q1308.3594,21.625 1308.125,21.8906 Q1307.8906,22.1563 1307.5156,22.1563 Q1307.1719,22.1563 1306.9688,21.9531 Q1306.7656,21.7656 1306.6563,21.25 Q1306.6094,20.8906 1306.4219,20.7031 Q1306.0938,20.3281 1305.4844,20.1094 Q1304.875,19.8906 1304.25,19.8906 Q1303.4844,19.8906 1302.8438,20.2188 Q1302.2188,20.5469 1301.7188,21.2969 Q1301.2344,22.0469 1301.2344,23.0781 L1301.2344,24.1719 Q1301.2344,25.4063 1302.125,26.2344 Q1303.0156,27.0469 1304.6094,27.0469 Q1305.5469,27.0469 1306.2031,26.7969 Q1306.5938,26.6406 1307.0156,26.2031 Q1307.2813,25.9375 1307.4219,25.8594 Q1307.5781,25.7813 1307.7813,25.7813 Q1308.1094,25.7813 1308.3594,26.0469 Q1308.625,26.2969 1308.625,26.6406 Q1308.625,26.9844 1308.2813,27.3906 Q1307.7813,27.9688 1306.9844,28.2969 Q1305.9063,28.75 1304.6094,28.75 Q1303.0938,28.75 1301.8906,28.125 Q1300.9063,27.625 1300.2188,26.5625 Q1299.5313,25.4844 1299.5313,24.2031 L1299.5313,23.0469 Q1299.5313,21.7188 1300.1406,20.5781 Q1300.7656,19.4219 1301.8594,18.8125 Q1302.9531,18.1875 1304.1875,18.1875 Q1304.9219,18.1875 1305.5625,18.3594 Q1306.2188,18.5156 1306.7656,18.875 Z " fill="#000000"/><text fill="#000000" font-family="sans-serif" font-size="14" lengthAdjust="spacing" textLength="119" x="1318" y="28.7969">ApplicationSession</text><line style="stroke:#181818;stroke-width:0.5;" x1="1290" x2="1439" y1="39" y2="39"/><line style="stroke:#181818;stroke-width:0.5;" x1="1290" x2="1439" y1="47" y2="47"/><text fill="#000000" font-family="sans-serif" font-size="14" lengthAdjust="spacing" textLength="128" x="1295" y="66.1074">+static getInstance()</text><text fill="#000000" font-family="sans-serif" font-size="14" lengthAdjust="spacing" textLength="136" x="1295" y="84.7285">+getCurrentSession()</text></g><!--class UserSession--><g id="elem_UserSession"><rect codeLine="18" fill="#F1F1F1" height="66.6211" id="UserSession" rx="2.5" ry="2.5" style="stroke:#181818;stroke-width:0.5;" width="113" x="1308" y="255.5"/><ellipse cx="1323.9" cy="271.5" fill="#ADD1B2" rx="11" ry="11" style="stroke:#181818;stroke-width:1.0;"/><path d="M1326.6656,267.375 Q1326.8219,267.1563 1327.0094,267.0469 Q1327.1969,266.9375 1327.4156,266.9375 Q1327.7906,266.9375 1328.025,267.2031 Q1328.2594,267.4531 1328.2594,268.0625 L1328.2594,269.5156 Q1328.2594,270.125 1328.025,270.3906 Q1327.7906,270.6563 1327.4156,270.6563 Q1327.0719,270.6563 1326.8688,270.4531 Q1326.6656,270.2656 1326.5563,269.75 Q1326.5094,269.3906 1326.3219,269.2031 Q1325.9938,268.8281 1325.3844,268.6094 Q1324.775,268.3906 1324.15,268.3906 Q1323.3844,268.3906 1322.7438,268.7188 Q1322.1188,269.0469 1321.6188,269.7969 Q1321.1344,270.5469 1321.1344,271.5781 L1321.1344,272.6719 Q1321.1344,273.9063 1322.025,274.7344 Q1322.9156,275.5469 1324.5094,275.5469 Q1325.4469,275.5469 1326.1031,275.2969 Q1326.4938,275.1406 1326.9156,274.7031 Q1327.1813,274.4375 1327.3219,274.3594 Q1327.4781,274.2813 1327.6813,274.2813 Q1328.0094,274.2813 1328.2594,274.5469 Q1328.525,274.7969 1328.525,275.1406 Q1328.525,275.4844 1328.1813,275.8906 Q1327.6813,276.4688 1326.8844,276.7969 Q1325.8063,277.25 1324.5094,277.25 Q1322.9938,277.25 1321.7906,276.625 Q1320.8063,276.125 1320.1188,275.0625 Q1319.4313,273.9844 1319.4313,272.7031 L1319.4313,271.5469 Q1319.4313,270.2188 1320.0406,269.0781 Q1320.6656,267.9219 1321.7594,267.3125 Q1322.8531,266.6875 1324.0875,266.6875 Q1324.8219,266.6875 1325.4625,266.8594 Q1326.1188,267.0156 1326.6656,267.375 Z " fill="#000000"/><text fill="#000000" font-family="sans-serif" font-size="14" lengthAdjust="spacing" textLength="79" x="1338.1" y="277.2969">UserSession</text><line style="stroke:#181818;stroke-width:0.5;" x1="1309" x2="1420" y1="287.5" y2="287.5"/><line style="stroke:#181818;stroke-width:0.5;" x1="1309" x2="1420" y1="295.5" y2="295.5"/><text fill="#000000" font-family="sans-serif" font-size="14" lengthAdjust="spacing" textLength="101" x="1314" y="314.6074">+getUserEmail()</text></g><!--class Employee--><g id="elem_Employee"><rect codeLine="23" fill="#F1F1F1" height="122.4844" id="Employee" rx="2.5" ry="2.5" style="stroke:#181818;stroke-width:0.5;" width="94" x="565.5" y="420"/><ellipse cx="580.5" cy="436" fill="#ADD1B2" rx="11" ry="11" style="stroke:#181818;stroke-width:1.0;"/><path d="M583.2656,431.875 Q583.4219,431.6563 583.6094,431.5469 Q583.7969,431.4375 584.0156,431.4375 Q584.3906,431.4375 584.625,431.7031 Q584.8594,431.9531 584.8594,432.5625 L584.8594,434.0156 Q584.8594,434.625 584.625,434.8906 Q584.3906,435.1563 584.0156,435.1563 Q583.6719,435.1563 583.4688,434.9531 Q583.2656,434.7656 583.1563,434.25 Q583.1094,433.8906 582.9219,433.7031 Q582.5938,433.3281 581.9844,433.1094 Q581.375,432.8906 580.75,432.8906 Q579.9844,432.8906 579.3438,433.2188 Q578.7188,433.5469 578.2188,434.2969 Q577.7344,435.0469 577.7344,436.0781 L577.7344,437.1719 Q577.7344,438.4063 578.625,439.2344 Q579.5156,440.0469 581.1094,440.0469 Q582.0469,440.0469 582.7031,439.7969 Q583.0938,439.6406 583.5156,439.2031 Q583.7813,438.9375 583.9219,438.8594 Q584.0781,438.7813 584.2813,438.7813 Q584.6094,438.7813 584.8594,439.0469 Q585.125,439.2969 585.125,439.6406 Q585.125,439.9844 584.7813,440.3906 Q584.2813,440.9688 583.4844,441.2969 Q582.4063,441.75 581.1094,441.75 Q579.5938,441.75 578.3906,441.125 Q577.4063,440.625 576.7188,439.5625 Q576.0313,438.4844 576.0313,437.2031 L576.0313,436.0469 Q576.0313,434.7188 576.6406,433.5781 Q577.2656,432.4219 578.3594,431.8125 Q579.4531,431.1875 580.6875,431.1875 Q581.4219,431.1875 582.0625,431.3594 Q582.7188,431.5156 583.2656,431.875 Z " fill="#000000"/><text fill="#000000" font-family="sans-serif" font-size="14" lengthAdjust="spacing" textLength="62" x="594.5" y="441.7969">Employee</text><line style="stroke:#181818;stroke-width:0.5;" x1="566.5" x2="658.5" y1="452" y2="452"/><text fill="#000000" font-family="sans-serif" font-size="14" lengthAdjust="spacing" textLength="40" x="571.5" y="471.1074">-name</text><text fill="#000000" font-family="sans-serif" font-size="14" lengthAdjust="spacing" textLength="38" x="571.5" y="489.7285">-email</text><text fill="#000000" font-family="sans-serif" font-size="14" lengthAdjust="spacing" textLength="54" x="571.5" y="508.3496">-position</text><text fill="#000000" font-family="sans-serif" font-size="14" lengthAdjust="spacing" textLength="45" x="571.5" y="526.9707">-phone</text><line style="stroke:#181818;stroke-width:0.5;" x1="566.5" x2="658.5" y1="534.4844" y2="534.4844"/></g><!--class Job--><g id="elem_Job"><rect codeLine="30" fill="#F1F1F1" height="66.6211" id="Job" rx="2.5" ry="2.5" style="stroke:#181818;stroke-width:0.5;" width="72" x="694.5" y="447.5"/><ellipse cx="717.6" cy="463.5" fill="#ADD1B2" rx="11" ry="11" style="stroke:#181818;stroke-width:1.0;"/><path d="M720.3656,459.375 Q720.5219,459.1563 720.7094,459.0469 Q720.8969,458.9375 721.1156,458.9375 Q721.4906,458.9375 721.725,459.2031 Q721.9594,459.4531 721.9594,460.0625 L721.9594,461.5156 Q721.9594,462.125 721.725,462.3906 Q721.4906,462.6563 721.1156,462.6563 Q720.7719,462.6563 720.5688,462.4531 Q720.3656,462.2656 720.2563,461.75 Q720.2094,461.3906 720.0219,461.2031 Q719.6938,460.8281 719.0844,460.6094 Q718.475,460.3906 717.85,460.3906 Q717.0844,460.3906 716.4438,460.7188 Q715.8188,461.0469 715.3188,461.7969 Q714.8344,462.5469 714.8344,463.5781 L714.8344,464.6719 Q714.8344,465.9063 715.725,466.7344 Q716.6156,467.5469 718.2094,467.5469 Q719.1469,467.5469 719.8031,467.2969 Q720.1938,467.1406 720.6156,466.7031 Q720.8813,466.4375 721.0219,466.3594 Q721.1781,466.2813 721.3813,466.2813 Q721.7094,466.2813 721.9594,466.5469 Q722.225,466.7969 722.225,467.1406 Q722.225,467.4844 721.8813,467.8906 Q721.3813,468.4688 720.5844,468.7969 Q719.5063,469.25 718.2094,469.25 Q716.6938,469.25 715.4906,468.625 Q714.5063,468.125 713.8188,467.0625 Q713.1313,465.9844 713.1313,464.7031 L713.1313,463.5469 Q713.1313,462.2188 713.7406,461.0781 Q714.3656,459.9219 715.4594,459.3125 Q716.5531,458.6875 717.7875,458.6875 Q718.5219,458.6875 719.1625,458.8594 Q719.8188,459.0156 720.3656,459.375 Z " fill="#000000"/><text fill="#000000" font-family="sans-serif" font-size="14" lengthAdjust="spacing" textLength="22" x="733.4" y="469.2969">Job</text><line style="stroke:#181818;stroke-width:0.5;" x1="695.5" x2="765.5" y1="479.5" y2="479.5"/><text fill="#000000" font-family="sans-serif" font-size="14" lengthAdjust="spacing" textLength="60" x="700.5" y="498.6074">-jobName</text><line style="stroke:#181818;stroke-width:0.5;" x1="695.5" x2="765.5" y1="506.1211" y2="506.1211"/></g><!--class Collaborator--><g id="elem_Collaborator"><rect codeLine="34" fill="#F1F1F1" height="196.9688" id="Collaborator" rx="2.5" ry="2.5" style="stroke:#181818;stroke-width:0.5;" width="155" x="567" y="621"/><ellipse cx="602.25" cy="637" fill="#ADD1B2" rx="11" ry="11" style="stroke:#181818;stroke-width:1.0;"/><path d="M605.0156,632.875 Q605.1719,632.6563 605.3594,632.5469 Q605.5469,632.4375 605.7656,632.4375 Q606.1406,632.4375 606.375,632.7031 Q606.6094,632.9531 606.6094,633.5625 L606.6094,635.0156 Q606.6094,635.625 606.375,635.8906 Q606.1406,636.1563 605.7656,636.1563 Q605.4219,636.1563 605.2188,635.9531 Q605.0156,635.7656 604.9063,635.25 Q604.8594,634.8906 604.6719,634.7031 Q604.3438,634.3281 603.7344,634.1094 Q603.125,633.8906 602.5,633.8906 Q601.7344,633.8906 601.0938,634.2188 Q600.4688,634.5469 599.9688,635.2969 Q599.4844,636.0469 599.4844,637.0781 L599.4844,638.1719 Q599.4844,639.4063 600.375,640.2344 Q601.2656,641.0469 602.8594,641.0469 Q603.7969,641.0469 604.4531,640.7969 Q604.8438,640.6406 605.2656,640.2031 Q605.5313,639.9375 605.6719,639.8594 Q605.8281,639.7813 606.0313,639.7813 Q606.3594,639.7813 606.6094,640.0469 Q606.875,640.2969 606.875,640.6406 Q606.875,640.9844 606.5313,641.3906 Q606.0313,641.9688 605.2344,642.2969 Q604.1563,642.75 602.8594,642.75 Q601.3438,642.75 600.1406,642.125 Q599.1563,641.625 598.4688,640.5625 Q597.7813,639.4844 597.7813,638.2031 L597.7813,637.0469 Q597.7813,635.7188 598.3906,634.5781 Q599.0156,633.4219 600.1094,632.8125 Q601.2031,632.1875 602.4375,632.1875 Q603.1719,632.1875 603.8125,632.3594 Q604.4688,632.5156 605.0156,632.875 Z " fill="#000000"/><text fill="#000000" font-family="sans-serif" font-size="14" lengthAdjust="spacing" textLength="78" x="620.75" y="642.7969">Collaborator</text><line style="stroke:#181818;stroke-width:0.5;" x1="568" x2="721" y1="653" y2="653"/><text fill="#000000" font-family="sans-serif" font-size="14" lengthAdjust="spacing" textLength="85" x="573" y="672.1074">-name: String</text><text fill="#000000" font-family="sans-serif" font-size="14" lengthAdjust="spacing" textLength="131" x="573" y="690.7285">-birthdayDate: String</text><text fill="#000000" font-family="sans-serif" font-size="14" lengthAdjust="spacing" textLength="143" x="573" y="709.3496">-admissionDate: String</text><text fill="#000000" font-family="sans-serif" font-size="14" lengthAdjust="spacing" textLength="101" x="573" y="727.9707">-address: String</text><text fill="#000000" font-family="sans-serif" font-size="14" lengthAdjust="spacing" textLength="117" x="573" y="746.5918">-phoneNumber: int</text><text fill="#000000" font-family="sans-serif" font-size="14" lengthAdjust="spacing" textLength="83" x="573" y="765.2129">-email: String</text><text fill="#000000" font-family="sans-serif" font-size="14" lengthAdjust="spacing" textLength="131" x="573" y="783.834">-taxpayerNumber: int</text><text fill="#000000" font-family="sans-serif" font-size="14" lengthAdjust="spacing" textLength="89" x="573" y="802.4551">-BINumber: int</text><line style="stroke:#181818;stroke-width:0.5;" x1="568" x2="721" y1="809.9688" y2="809.9688"/></g><!--class JobRepository--><g id="elem_JobRepository"><rect codeLine="45" fill="#F1F1F1" height="103.8633" id="JobRepository" rx="2.5" ry="2.5" style="stroke:#181818;stroke-width:0.5;" width="495" x="483" y="237"/><ellipse cx="681.25" cy="253" fill="#ADD1B2" rx="11" ry="11" style="stroke:#181818;stroke-width:1.0;"/><path d="M684.0156,248.875 Q684.1719,248.6563 684.3594,248.5469 Q684.5469,248.4375 684.7656,248.4375 Q685.1406,248.4375 685.375,248.7031 Q685.6094,248.9531 685.6094,249.5625 L685.6094,251.0156 Q685.6094,251.625 685.375,251.8906 Q685.1406,252.1563 684.7656,252.1563 Q684.4219,252.1563 684.2188,251.9531 Q684.0156,251.7656 683.9063,251.25 Q683.8594,250.8906 683.6719,250.7031 Q683.3438,250.3281 682.7344,250.1094 Q682.125,249.8906 681.5,249.8906 Q680.7344,249.8906 680.0938,250.2188 Q679.4688,250.5469 678.9688,251.2969 Q678.4844,252.0469 678.4844,253.0781 L678.4844,254.1719 Q678.4844,255.4063 679.375,256.2344 Q680.2656,257.0469 681.8594,257.0469 Q682.7969,257.0469 683.4531,256.7969 Q683.8438,256.6406 684.2656,256.2031 Q684.5313,255.9375 684.6719,255.8594 Q684.8281,255.7813 685.0313,255.7813 Q685.3594,255.7813 685.6094,256.0469 Q685.875,256.2969 685.875,256.6406 Q685.875,256.9844 685.5313,257.3906 Q685.0313,257.9688 684.2344,258.2969 Q683.1563,258.75 681.8594,258.75 Q680.3438,258.75 679.1406,258.125 Q678.1563,257.625 677.4688,256.5625 Q676.7813,255.4844 676.7813,254.2031 L676.7813,253.0469 Q676.7813,251.7188 677.3906,250.5781 Q678.0156,249.4219 679.1094,248.8125 Q680.2031,248.1875 681.4375,248.1875 Q682.1719,248.1875 682.8125,248.3594 Q683.4688,248.5156 684.0156,248.875 Z " fill="#000000"/><text fill="#000000" font-family="sans-serif" font-size="14" lengthAdjust="spacing" textLength="90" x="701.75" y="258.7969">JobRepository</text><line style="stroke:#181818;stroke-width:0.5;" x1="484" x2="977" y1="269" y2="269"/><text fill="#000000" font-family="sans-serif" font-size="14" lengthAdjust="spacing" textLength="88" x="489" y="288.1074">-List&lt;Job&gt; job</text><line style="stroke:#181818;stroke-width:0.5;" x1="484" x2="977" y1="295.6211" y2="295.6211"/><text fill="#000000" font-family="sans-serif" font-size="14" lengthAdjust="spacing" textLength="186" x="489" y="314.7285">+Job getJob(jobName: String)</text><text fill="#000000" font-family="sans-serif" font-size="14" lengthAdjust="spacing" textLength="483" x="489" y="333.3496">+boolean addCollaboratorToJob(jobName: String, collaborator: Collaborator)</text></g><!--class CreateCollaboratorUI--><g id="elem_CreateCollaboratorUI"><rect codeLine="51" fill="#F1F1F1" height="48" id="CreateCollaboratorUI" rx="2.5" ry="2.5" style="stroke:#181818;stroke-width:0.5;" width="165" x="7" y="25.5"/><ellipse cx="22" cy="41.5" fill="#ADD1B2" rx="11" ry="11" style="stroke:#181818;stroke-width:1.0;"/><path d="M24.7656,37.375 Q24.9219,37.1563 25.1094,37.0469 Q25.2969,36.9375 25.5156,36.9375 Q25.8906,36.9375 26.125,37.2031 Q26.3594,37.4531 26.3594,38.0625 L26.3594,39.5156 Q26.3594,40.125 26.125,40.3906 Q25.8906,40.6563 25.5156,40.6563 Q25.1719,40.6563 24.9688,40.4531 Q24.7656,40.2656 24.6563,39.75 Q24.6094,39.3906 24.4219,39.2031 Q24.0938,38.8281 23.4844,38.6094 Q22.875,38.3906 22.25,38.3906 Q21.4844,38.3906 20.8438,38.7188 Q20.2188,39.0469 19.7188,39.7969 Q19.2344,40.5469 19.2344,41.5781 L19.2344,42.6719 Q19.2344,43.9063 20.125,44.7344 Q21.0156,45.5469 22.6094,45.5469 Q23.5469,45.5469 24.2031,45.2969 Q24.5938,45.1406 25.0156,44.7031 Q25.2813,44.4375 25.4219,44.3594 Q25.5781,44.2813 25.7813,44.2813 Q26.1094,44.2813 26.3594,44.5469 Q26.625,44.7969 26.625,45.1406 Q26.625,45.4844 26.2813,45.8906 Q25.7813,46.4688 24.9844,46.7969 Q23.9063,47.25 22.6094,47.25 Q21.0938,47.25 19.8906,46.625 Q18.9063,46.125 18.2188,45.0625 Q17.5313,43.9844 17.5313,42.7031 L17.5313,41.5469 Q17.5313,40.2188 18.1406,39.0781 Q18.7656,37.9219 19.8594,37.3125 Q20.9531,36.6875 22.1875,36.6875 Q22.9219,36.6875 23.5625,36.8594 Q24.2188,37.0156 24.7656,37.375 Z " fill="#000000"/><text fill="#000000" font-family="sans-serif" font-size="14" lengthAdjust="spacing" textLength="133" x="36" y="47.2969">CreateCollaboratorUI</text><line style="stroke:#181818;stroke-width:0.5;" x1="8" x2="171" y1="57.5" y2="57.5"/><line style="stroke:#181818;stroke-width:0.5;" x1="8" x2="171" y1="65.5" y2="65.5"/></g><!--class Repositories--><g id="elem_Repositories"><rect codeLine="54" fill="#F1F1F1" height="85.2422" id="Repositories" rx="2.5" ry="2.5" style="stroke:#181818;stroke-width:0.5;" width="234" x="495.5" y="122"/><ellipse cx="568.75" cy="138" fill="#ADD1B2" rx="11" ry="11" style="stroke:#181818;stroke-width:1.0;"/><path d="M571.5156,133.875 Q571.6719,133.6563 571.8594,133.5469 Q572.0469,133.4375 572.2656,133.4375 Q572.6406,133.4375 572.875,133.7031 Q573.1094,133.9531 573.1094,134.5625 L573.1094,136.0156 Q573.1094,136.625 572.875,136.8906 Q572.6406,137.1563 572.2656,137.1563 Q571.9219,137.1563 571.7188,136.9531 Q571.5156,136.7656 571.4063,136.25 Q571.3594,135.8906 571.1719,135.7031 Q570.8438,135.3281 570.2344,135.1094 Q569.625,134.8906 569,134.8906 Q568.2344,134.8906 567.5938,135.2188 Q566.9688,135.5469 566.4688,136.2969 Q565.9844,137.0469 565.9844,138.0781 L565.9844,139.1719 Q565.9844,140.4063 566.875,141.2344 Q567.7656,142.0469 569.3594,142.0469 Q570.2969,142.0469 570.9531,141.7969 Q571.3438,141.6406 571.7656,141.2031 Q572.0313,140.9375 572.1719,140.8594 Q572.3281,140.7813 572.5313,140.7813 Q572.8594,140.7813 573.1094,141.0469 Q573.375,141.2969 573.375,141.6406 Q573.375,141.9844 573.0313,142.3906 Q572.5313,142.9688 571.7344,143.2969 Q570.6563,143.75 569.3594,143.75 Q567.8438,143.75 566.6406,143.125 Q565.6563,142.625 564.9688,141.5625 Q564.2813,140.4844 564.2813,139.2031 L564.2813,138.0469 Q564.2813,136.7188 564.8906,135.5781 Q565.5156,134.4219 566.6094,133.8125 Q567.7031,133.1875 568.9375,133.1875 Q569.6719,133.1875 570.3125,133.3594 Q570.9688,133.5156 571.5156,133.875 Z " fill="#000000"/><text fill="#000000" font-family="sans-serif" font-size="14" lengthAdjust="spacing" textLength="79" x="589.25" y="143.7969">Repositories</text><line style="stroke:#181818;stroke-width:0.5;" x1="496.5" x2="728.5" y1="154" y2="154"/><text fill="#000000" font-family="sans-serif" font-size="14" lengthAdjust="spacing" textLength="190" x="501.5" y="173.1074">-jobRepository: JobRepository</text><line style="stroke:#181818;stroke-width:0.5;" x1="496.5" x2="728.5" y1="180.6211" y2="180.6211"/><text fill="#000000" font-family="sans-serif" font-size="14" lengthAdjust="spacing" textLength="222" x="501.5" y="199.7285">+JobRepository getJobRepository()</text></g><!--class CreateCollaboratorController--><g id="elem_CreateCollaboratorController"><rect codeLine="60" fill="#F1F1F1" height="85.2422" id="CreateCollaboratorController" rx="2.5" ry="2.5" style="stroke:#181818;stroke-width:0.5;" width="1047" x="207" y="7"/><ellipse cx="634.75" cy="23" fill="#ADD1B2" rx="11" ry="11" style="stroke:#181818;stroke-width:1.0;"/><path d="M637.5156,18.875 Q637.6719,18.6563 637.8594,18.5469 Q638.0469,18.4375 638.2656,18.4375 Q638.6406,18.4375 638.875,18.7031 Q639.1094,18.9531 639.1094,19.5625 L639.1094,21.0156 Q639.1094,21.625 638.875,21.8906 Q638.6406,22.1563 638.2656,22.1563 Q637.9219,22.1563 637.7188,21.9531 Q637.5156,21.7656 637.4063,21.25 Q637.3594,20.8906 637.1719,20.7031 Q636.8438,20.3281 636.2344,20.1094 Q635.625,19.8906 635,19.8906 Q634.2344,19.8906 633.5938,20.2188 Q632.9688,20.5469 632.4688,21.2969 Q631.9844,22.0469 631.9844,23.0781 L631.9844,24.1719 Q631.9844,25.4063 632.875,26.2344 Q633.7656,27.0469 635.3594,27.0469 Q636.2969,27.0469 636.9531,26.7969 Q637.3438,26.6406 637.7656,26.2031 Q638.0313,25.9375 638.1719,25.8594 Q638.3281,25.7813 638.5313,25.7813 Q638.8594,25.7813 639.1094,26.0469 Q639.375,26.2969 639.375,26.6406 Q639.375,26.9844 639.0313,27.3906 Q638.5313,27.9688 637.7344,28.2969 Q636.6563,28.75 635.3594,28.75 Q633.8438,28.75 632.6406,28.125 Q631.6563,27.625 630.9688,26.5625 Q630.2813,25.4844 630.2813,24.2031 L630.2813,23.0469 Q630.2813,21.7188 630.8906,20.5781 Q631.5156,19.4219 632.6094,18.8125 Q633.7031,18.1875 634.9375,18.1875 Q635.6719,18.1875 636.3125,18.3594 Q636.9688,18.5156 637.5156,18.875 Z " fill="#000000"/><text fill="#000000" font-family="sans-serif" font-size="14" lengthAdjust="spacing" textLength="183" x="655.25" y="28.7969">CreateCollaboratorController</text><line style="stroke:#181818;stroke-width:0.5;" x1="208" x2="1253" y1="39" y2="39"/><line style="stroke:#181818;stroke-width:0.5;" x1="208" x2="1253" y1="47" y2="47"/><text fill="#000000" font-family="sans-serif" font-size="14" lengthAdjust="spacing" textLength="1035" x="213" y="66.1074">+CreateCollaborator(name: String, birthdayDate: String, admissionDate: String, address: String, phoneNumber: int, email: String, taxpayerNumber: int, BINumber: int)</text><text fill="#000000" font-family="sans-serif" font-size="14" lengthAdjust="spacing" textLength="232" x="213" y="84.7285">+RemoveCollaborator(BINumber: int)</text></g><!--link Repositories to Repositories--><g id="link_Repositories_Repositories"><path codeLine="65" d="M729.77,144.46 C750.25,147.13 764.5,153.81 764.5,164.5 C764.5,175.19 756.1997,181.0943 735.7197,183.7643 " fill="none" id="Repositories-to-Repositories" style="stroke:#181818;stroke-width:1.0;"/><polygon fill="#181818" points="729.77,184.54,739.2116,187.3429,734.728,183.8936,738.1774,179.4101,729.77,184.54" style="stroke:#181818;stroke-width:1.0;"/><text fill="#000000" font-family="sans-serif" font-size="13" lengthAdjust="spacing" textLength="49" x="770.5" y="170.0283">instance</text></g><!--link ApplicationSession to ApplicationSession--><g id="link_ApplicationSession_ApplicationSession"><path codeLine="66" d="M1440.16,28.33 C1460,29.58 1475,36.64 1475,49.5 C1475,62.36 1465.9881,69.0427 1446.1481,70.2927 " fill="none" id="ApplicationSession-to-ApplicationSession" style="stroke:#181818;stroke-width:1.0;"/><polygon fill="#181818" points="1440.16,70.67,1449.3937,74.0962,1445.1501,70.3556,1448.8907,66.112,1440.16,70.67" style="stroke:#181818;stroke-width:1.0;"/><text fill="#000000" font-family="sans-serif" font-size="13" lengthAdjust="spacing" textLength="49" x="1481" y="55.0283">instance</text></g><!--link CreateCollaboratorUI to CreateCollaboratorController--><g id="link_CreateCollaboratorUI_CreateCollaboratorController"><path codeLine="68" d="M172.13,49.5 C183.67,49.5 189.21,49.5 200.75,49.5 " fill="none" id="CreateCollaboratorUI-to-CreateCollaboratorController" style="stroke:#181818;stroke-width:1.0;stroke-dasharray:7.0,7.0;"/><polygon fill="#181818" points="206.75,49.5,197.75,45.5,201.75,49.5,197.75,53.5,206.75,49.5" style="stroke:#181818;stroke-width:1.0;"/></g><!--link CreateCollaboratorController to Repositories--><g id="link_CreateCollaboratorController_Repositories"><path codeLine="70" d="M686.9,92.26 C676.79,101.94 670.3638,108.0905 660.2538,117.7705 " fill="none" id="CreateCollaboratorController-to-Repositories" style="stroke:#181818;stroke-width:1.0;stroke-dasharray:7.0,7.0;"/><polygon fill="#181818" points="655.92,121.92,665.187,118.585,659.5315,118.4621,659.6544,112.8066,655.92,121.92" style="stroke:#181818;stroke-width:1.0;"/><text fill="#000000" font-family="sans-serif" font-size="13" lengthAdjust="spacing" textLength="67" x="603.41" y="103.1183">repositories</text></g><!--link Repositories to JobRepository--><g id="link_Repositories_JobRepository"><path codeLine="72" d="M652.78,207.31 C661.86,216.74 667.4377,222.5285 676.8477,232.2985 " fill="none" id="Repositories-to-JobRepository" style="stroke:#181818;stroke-width:1.0;"/><polygon fill="#181818" points="681.01,236.62,677.6476,227.3629,677.5414,233.0187,671.8856,232.9126,681.01,236.62" style="stroke:#181818;stroke-width:1.0;"/><text fill="#000000" font-family="sans-serif" font-size="13" lengthAdjust="spacing" textLength="7" x="670.7685" y="229.2801">1</text></g><!--link CreateCollaboratorController to JobRepository--><g id="link_CreateCollaboratorController_JobRepository"><path codeLine="74" d="M788.66,92.16 C797.13,100.99 804.62,111.01 809.5,122 C824.82,156.53 823.74,172.01 809.5,207 C805.13,217.73 802.3756,223.1731 794.8856,232.3431 " fill="none" id="CreateCollaboratorController-to-JobRepository" style="stroke:#181818;stroke-width:1.0;stroke-dasharray:7.0,7.0;"/><polygon fill="#181818" points="791.09,236.99,799.8813,232.55,794.253,233.1176,793.6854,227.4893,791.09,236.99" style="stroke:#181818;stroke-width:1.0;"/><text fill="#000000" font-family="sans-serif" font-size="13" lengthAdjust="spacing" textLength="82" x="822.5" y="170.0283">JobRepository</text></g><!--link JobRepository to Job--><g id="link_JobRepository_Job"><path codeLine="77" d="M730.5,341.17 C730.5,374.91 730.5,412.1 730.5,441.28 " fill="none" id="JobRepository-to-Job" style="stroke:#181818;stroke-width:1.0;"/><polygon fill="#181818" points="730.5,447.28,734.5,438.28,730.5,442.28,726.5,438.28,730.5,447.28" style="stroke:#181818;stroke-width:1.0;"/><text fill="#000000" font-family="sans-serif" font-size="13" lengthAdjust="spacing" textLength="20" x="731.5" y="386.0283">Job</text></g><!--link Job to Collaborator--><g id="link_Job_Collaborator"><path codeLine="78" d="M718.54,514.88 C708.55,542.36 695.8199,577.371 682.0899,615.141 " fill="none" id="Job-to-Collaborator" style="stroke:#181818;stroke-width:1.0;"/><polygon fill="#181818" points="680.04,620.78,686.8741,613.6881,681.7482,616.0809,679.3555,610.955,680.04,620.78" style="stroke:#181818;stroke-width:1.0;"/><text fill="#000000" font-family="sans-serif" font-size="13" lengthAdjust="spacing" textLength="67" x="699.5" y="587.0283">collaborator</text></g><!--link ApplicationSession to UserSession--><g id="link_ApplicationSession_UserSession"><path codeLine="80" d="M1364.5,92.14 C1364.5,138.57 1364.5,206.71 1364.5,249.2 " fill="none" id="ApplicationSession-to-UserSession" style="stroke:#181818;stroke-width:1.0;"/><polygon fill="#181818" points="1364.5,255.2,1368.5,246.2,1364.5,250.2,1360.5,246.2,1364.5,255.2" style="stroke:#181818;stroke-width:1.0;"/><text fill="#000000" font-family="sans-serif" font-size="13" lengthAdjust="spacing" textLength="72" x="1365.5" y="170.0283">userSession</text><text fill="#000000" font-family="sans-serif" font-size="13" lengthAdjust="spacing" textLength="7" x="1356.8328" y="244.2287">1</text></g><!--link Employee to Collaborator--><g id="link_Employee_Collaborator"><path codeLine="83" d="M620.66,542.29 C623.88,566.1 626.8663,588.1341 630.4563,614.6941 " fill="none" id="Employee-to-Collaborator" style="stroke:#181818;stroke-width:1.0;"/><polygon fill="#181818" points="631.26,620.64,634.0184,611.1853,630.5903,615.6851,626.0905,612.2569,631.26,620.64" style="stroke:#181818;stroke-width:1.0;"/><text fill="#000000" font-family="sans-serif" font-size="13" lengthAdjust="spacing" textLength="22" x="628.5" y="587.0283">hrm</text><text fill="#000000" font-family="sans-serif" font-size="13" lengthAdjust="spacing" textLength="7" x="623.0307" y="609.7959">1</text></g><!--SRC=[VLN1Rjim3BthAuHUag5EqLs38K2MzP2XwA5PFq2s6LkhB1eItSqRzk-J7DkHR2EvHE8ZARv7IbxPTwbhOKJ5AzIObGOhu6GQO5Ua5jcxAE14hG9k82EX2nKws5Ba-4lgWf-5iY6Yf0PgQ-0rgjPlbZ0qX2m0CYMitHCPcJO4nmprIVu1_iZOIi6PE24tiYY9vz9N8r4priNmVLqhcGblEe6r7ldBkFlTSqlEdF42wAZTMcUm_jH3pdPeZ05DVP13_WqftooOQIuNuCrFbP0gz7sgQeKj0ByuRhWM5VHByCxzkaOhkxBxRObEc37BTqp713ynVV4vHl20IeaKZI0qqJ5RVdA2wQ8tfT9GcOlscw0f9F9ATdmMiTmuiXDhL-1BKwLWjbng2YbDN4dyhaKBPkxzzHZQGhQlq0c2fXq8FKjBNnooymBqedjPdF3kRzshCXmzz355L22q9n7Az0CNOXAU1IxRIDUWemS3JgGGV3iwsKTyB5s23NfsPRID2R8hcQknftKrh6zMS41DnkrX683x1QUrZiWkZKEoF0d9T0YIMV-JkFN9KjUJkE53ZrwXme-uqecVOnwgoZUxI6NktIuNcCslk_TUi0OnRB6b3xkRGYz51Mruc9LeWksSpztdk-bOtCxl3eWdPZPMA_uC1UXSiDXni-b2Bm4UwopHAxADhW9RLBKlEdWCNLWJF8skW7sU-qz0c8oV6zqzq499QjduFWxv9dMKfcB_0G00]--></g></svg>