<?xml version="1.0" encoding="us-ascii" standalone="no"?><svg xmlns="http://www.w3.org/2000/svg" xmlns:xlink="http://www.w3.org/1999/xlink" contentStyleType="text/css" height="1071px" preserveAspectRatio="none" style="width:1219px;height:1071px;background:#FFFFFF;" version="1.1" viewBox="0 0 1219 1071" width="1219px" zoomAndPan="magnify"><defs/><g><text fill="#000000" font-family="sans-serif" font-size="14" font-weight="bold" lengthAdjust="spacing" textLength="274" x="471.5" y="30.1074">Create Collaborator Sequence Diagram</text><rect fill="#FFFFFF" height="813.5664" style="stroke:#181818;stroke-width:1.0;" width="10" x="277.5" y="156.5332"/><rect fill="#FFFFFF" height="31.291" style="stroke:#181818;stroke-width:1.0;" width="10" x="524.5" y="312.9883"/><rect fill="#FFFFFF" height="31.291" style="stroke:#181818;stroke-width:1.0;" width="10" x="524.5" y="375.5703"/><rect fill="#FFFFFF" height="31.291" style="stroke:#181818;stroke-width:1.0;" width="10" x="524.5" y="438.1523"/><rect fill="#FFFFFF" height="31.291" style="stroke:#181818;stroke-width:1.0;" width="10" x="524.5" y="500.7344"/><rect fill="#FFFFFF" height="31.291" style="stroke:#181818;stroke-width:1.0;" width="10" x="524.5" y="563.3164"/><rect fill="#FFFFFF" height="31.291" style="stroke:#181818;stroke-width:1.0;" width="10" x="524.5" y="625.8984"/><rect fill="#FFFFFF" height="31.291" style="stroke:#181818;stroke-width:1.0;" width="10" x="524.5" y="688.4805"/><rect fill="#FFFFFF" height="31.291" style="stroke:#181818;stroke-width:1.0;" width="10" x="524.5" y="751.0625"/><rect fill="#FFFFFF" height="93.873" style="stroke:#181818;stroke-width:1.0;" width="10" x="524.5" y="876.2266"/><rect fill="#FFFFFF" height="93.873" style="stroke:#181818;stroke-width:1.0;" width="10" x="682" y="187.8242"/><rect fill="#FFFFFF" height="31.291" style="stroke:#181818;stroke-width:1.0;" width="10" x="838" y="219.1152"/><rect fill="#FFFFFF" height="31.291" style="stroke:#181818;stroke-width:1.0;" width="10" x="980" y="813.6445"/><rect fill="#FFFFFF" height="31.291" style="stroke:#181818;stroke-width:1.0;" width="10" x="1162" y="907.5176"/><line style="stroke:#181818;stroke-width:0.5;stroke-dasharray:5.0,5.0;" x1="92" x2="92" y1="123.2422" y2="988.0996"/><line style="stroke:#181818;stroke-width:0.5;stroke-dasharray:5.0,5.0;" x1="282" x2="282" y1="123.2422" y2="988.0996"/><line style="stroke:#181818;stroke-width:0.5;stroke-dasharray:5.0,5.0;" x1="529" x2="529" y1="123.2422" y2="988.0996"/><line style="stroke:#181818;stroke-width:0.5;stroke-dasharray:5.0,5.0;" x1="687" x2="687" y1="123.2422" y2="988.0996"/><line style="stroke:#181818;stroke-width:0.5;stroke-dasharray:5.0,5.0;" x1="843" x2="843" y1="123.2422" y2="988.0996"/><line style="stroke:#181818;stroke-width:0.5;stroke-dasharray:5.0,5.0;" x1="985" x2="985" y1="123.2422" y2="988.0996"/><line style="stroke:#181818;stroke-width:0.5;stroke-dasharray:5.0,5.0;" x1="1093" x2="1093" y1="123.2422" y2="988.0996"/><line style="stroke:#181818;stroke-width:0.5;stroke-dasharray:5.0,5.0;" x1="1167" x2="1167" y1="123.2422" y2="988.0996"/><text fill="#000000" font-family="sans-serif" font-size="14" lengthAdjust="spacing" textLength="169" x="5" y="119.7285">Human Resource Manager</text><ellipse cx="92.5" cy="53.1211" fill="#E2E2F0" rx="8" ry="8" style="stroke:#181818;stroke-width:0.5;"/><path d="M92.5,61.1211 L92.5,88.1211 M79.5,69.1211 L105.5,69.1211 M92.5,88.1211 L79.5,103.1211 M92.5,88.1211 L105.5,103.1211 " fill="none" style="stroke:#181818;stroke-width:0.5;"/><text fill="#000000" font-family="sans-serif" font-size="14" lengthAdjust="spacing" textLength="169" x="5" y="1002.207">Human Resource Manager</text><ellipse cx="92.5" cy="1014.2207" fill="#E2E2F0" rx="8" ry="8" style="stroke:#181818;stroke-width:0.5;"/><path d="M92.5,1022.2207 L92.5,1049.2207 M79.5,1030.2207 L105.5,1030.2207 M92.5,1049.2207 L79.5,1064.2207 M92.5,1049.2207 L105.5,1064.2207 " fill="none" style="stroke:#181818;stroke-width:0.5;"/><rect fill="#E2E2F0" height="32.6211" rx="2.5" ry="2.5" style="stroke:#181818;stroke-width:0.5;" width="147" x="209" y="89.6211"/><text fill="#000000" font-family="sans-serif" font-size="14" lengthAdjust="spacing" textLength="133" x="216" y="111.7285">CreateCollaboratorUI</text><rect fill="#E2E2F0" height="32.6211" rx="2.5" ry="2.5" style="stroke:#181818;stroke-width:0.5;" width="147" x="209" y="987.0996"/><text fill="#000000" font-family="sans-serif" font-size="14" lengthAdjust="spacing" textLength="133" x="216" y="1009.207">CreateCollaboratorUI</text><rect fill="#E2E2F0" height="32.6211" rx="2.5" ry="2.5" style="stroke:#181818;stroke-width:0.5;" width="197" x="431" y="89.6211"/><text fill="#000000" font-family="sans-serif" font-size="14" lengthAdjust="spacing" textLength="183" x="438" y="111.7285">CreateCollaboratorController</text><rect fill="#E2E2F0" height="32.6211" rx="2.5" ry="2.5" style="stroke:#181818;stroke-width:0.5;" width="197" x="431" y="987.0996"/><text fill="#000000" font-family="sans-serif" font-size="14" lengthAdjust="spacing" textLength="183" x="438" y="1009.207">CreateCollaboratorController</text><rect fill="#E2E2F0" height="32.6211" rx="2.5" ry="2.5" style="stroke:#181818;stroke-width:0.5;" width="98" x="638" y="89.6211"/><text fill="#000000" font-family="sans-serif" font-size="14" lengthAdjust="spacing" textLength="84" x="645" y="111.7285">JobController</text><rect fill="#E2E2F0" height="32.6211" rx="2.5" ry="2.5" style="stroke:#181818;stroke-width:0.5;" width="98" x="638" y="987.0996"/><text fill="#000000" font-family="sans-serif" font-size="14" lengthAdjust="spacing" textLength="84" x="645" y="1009.207">JobController</text><rect fill="#E2E2F0" height="32.6211" rx="2.5" ry="2.5" style="stroke:#181818;stroke-width:0.5;" width="104" x="791" y="89.6211"/><text fill="#000000" font-family="sans-serif" font-size="14" lengthAdjust="spacing" textLength="90" x="798" y="111.7285">JobRepository</text><rect fill="#E2E2F0" height="32.6211" rx="2.5" ry="2.5" style="stroke:#181818;stroke-width:0.5;" width="104" x="791" y="987.0996"/><text fill="#000000" font-family="sans-serif" font-size="14" lengthAdjust="spacing" textLength="90" x="798" y="1009.207">JobRepository</text><rect fill="#E2E2F0" height="32.6211" rx="2.5" ry="2.5" style="stroke:#181818;stroke-width:0.5;" width="160" x="905" y="89.6211"/><text fill="#000000" font-family="sans-serif" font-size="14" lengthAdjust="spacing" textLength="146" x="912" y="111.7285">CollaboratorRepository</text><rect fill="#E2E2F0" height="32.6211" rx="2.5" ry="2.5" style="stroke:#181818;stroke-width:0.5;" width="160" x="905" y="987.0996"/><text fill="#000000" font-family="sans-serif" font-size="14" lengthAdjust="spacing" textLength="146" x="912" y="1009.207">CollaboratorRepository</text><rect fill="#E2E2F0" height="32.6211" rx="2.5" ry="2.5" style="stroke:#181818;stroke-width:0.5;" width="36" x="1075" y="89.6211"/><text fill="#000000" font-family="sans-serif" font-size="14" lengthAdjust="spacing" textLength="22" x="1082" y="111.7285">Job</text><rect fill="#E2E2F0" height="32.6211" rx="2.5" ry="2.5" style="stroke:#181818;stroke-width:0.5;" width="36" x="1075" y="987.0996"/><text fill="#000000" font-family="sans-serif" font-size="14" lengthAdjust="spacing" textLength="22" x="1082" y="1009.207">Job</text><rect fill="#E2E2F0" height="32.6211" rx="2.5" ry="2.5" style="stroke:#181818;stroke-width:0.5;" width="92" x="1121" y="89.6211"/><text fill="#000000" font-family="sans-serif" font-size="14" lengthAdjust="spacing" textLength="78" x="1128" y="111.7285">Collaborator</text><rect fill="#E2E2F0" height="32.6211" rx="2.5" ry="2.5" style="stroke:#181818;stroke-width:0.5;" width="92" x="1121" y="987.0996"/><text fill="#000000" font-family="sans-serif" font-size="14" lengthAdjust="spacing" textLength="78" x="1128" y="1009.207">Collaborator</text><rect fill="#FFFFFF" height="813.5664" style="stroke:#181818;stroke-width:1.0;" width="10" x="277.5" y="156.5332"/><rect fill="#FFFFFF" height="31.291" style="stroke:#181818;stroke-width:1.0;" width="10" x="524.5" y="312.9883"/><rect fill="#FFFFFF" height="31.291" style="stroke:#181818;stroke-width:1.0;" width="10" x="524.5" y="375.5703"/><rect fill="#FFFFFF" height="31.291" style="stroke:#181818;stroke-width:1.0;" width="10" x="524.5" y="438.1523"/><rect fill="#FFFFFF" height="31.291" style="stroke:#181818;stroke-width:1.0;" width="10" x="524.5" y="500.7344"/><rect fill="#FFFFFF" height="31.291" style="stroke:#181818;stroke-width:1.0;" width="10" x="524.5" y="563.3164"/><rect fill="#FFFFFF" height="31.291" style="stroke:#181818;stroke-width:1.0;" width="10" x="524.5" y="625.8984"/><rect fill="#FFFFFF" height="31.291" style="stroke:#181818;stroke-width:1.0;" width="10" x="524.5" y="688.4805"/><rect fill="#FFFFFF" height="31.291" style="stroke:#181818;stroke-width:1.0;" width="10" x="524.5" y="751.0625"/><rect fill="#FFFFFF" height="93.873" style="stroke:#181818;stroke-width:1.0;" width="10" x="524.5" y="876.2266"/><rect fill="#FFFFFF" height="93.873" style="stroke:#181818;stroke-width:1.0;" width="10" x="682" y="187.8242"/><rect fill="#FFFFFF" height="31.291" style="stroke:#181818;stroke-width:1.0;" width="10" x="838" y="219.1152"/><rect fill="#FFFFFF" height="31.291" style="stroke:#181818;stroke-width:1.0;" width="10" x="980" y="813.6445"/><rect fill="#FFFFFF" height="31.291" style="stroke:#181818;stroke-width:1.0;" width="10" x="1162" y="907.5176"/><polygon fill="#181818" points="265.5,152.5332,275.5,156.5332,265.5,160.5332,269.5,156.5332" style="stroke:#181818;stroke-width:1.0;"/><line style="stroke:#181818;stroke-width:1.0;" x1="92.5" x2="271.5" y1="156.5332" y2="156.5332"/><text fill="#000000" font-family="sans-serif" font-size="13" lengthAdjust="spacing" textLength="166" x="99.5" y="151.2705">initiates collaborator creation</text><polygon fill="#181818" points="670,183.8242,680,187.8242,670,191.8242,674,187.8242" style="stroke:#181818;stroke-width:1.0;"/><line style="stroke:#181818;stroke-width:1.0;" x1="287.5" x2="676" y1="187.8242" y2="187.8242"/><text fill="#000000" font-family="sans-serif" font-size="13" lengthAdjust="spacing" textLength="129" x="294.5" y="182.5615">requestAvailableJobs()</text><polygon fill="#181818" points="826,215.1152,836,219.1152,826,223.1152,830,219.1152" style="stroke:#181818;stroke-width:1.0;"/><line style="stroke:#181818;stroke-width:1.0;" x1="692" x2="832" y1="219.1152" y2="219.1152"/><text fill="#000000" font-family="sans-serif" font-size="13" lengthAdjust="spacing" textLength="127" x="699" y="213.8525">retrieveAvailableJobs()</text><polygon fill="#181818" points="703,246.4063,693,250.4063,703,254.4063,699,250.4063" style="stroke:#181818;stroke-width:1.0;"/><line style="stroke:#181818;stroke-width:1.0;stroke-dasharray:2.0,2.0;" x1="697" x2="842" y1="250.4063" y2="250.4063"/><text fill="#000000" font-family="sans-serif" font-size="13" lengthAdjust="spacing" textLength="57" x="709" y="245.1436">List&lt;Job&gt;</text><polygon fill="#181818" points="298.5,277.6973,288.5,281.6973,298.5,285.6973,294.5,281.6973" style="stroke:#181818;stroke-width:1.0;"/><line style="stroke:#181818;stroke-width:1.0;stroke-dasharray:2.0,2.0;" x1="292.5" x2="686" y1="281.6973" y2="281.6973"/><text fill="#000000" font-family="sans-serif" font-size="13" lengthAdjust="spacing" textLength="38" x="304.5" y="276.4346">jobList</text><polygon fill="#181818" points="512.5,308.9883,522.5,312.9883,512.5,316.9883,516.5,312.9883" style="stroke:#181818;stroke-width:1.0;"/><line style="stroke:#181818;stroke-width:1.0;" x1="287.5" x2="518.5" y1="312.9883" y2="312.9883"/><text fill="#000000" font-family="sans-serif" font-size="13" lengthAdjust="spacing" textLength="154" x="294.5" y="307.7256">requestCollaboratorName()</text><polygon fill="#181818" points="298.5,340.2793,288.5,344.2793,298.5,348.2793,294.5,344.2793" style="stroke:#181818;stroke-width:1.0;"/><line style="stroke:#181818;stroke-width:1.0;" x1="292.5" x2="528.5" y1="344.2793" y2="344.2793"/><text fill="#000000" font-family="sans-serif" font-size="13" lengthAdjust="spacing" textLength="138" x="304.5" y="339.0166">Enter collaborator name</text><polygon fill="#181818" points="512.5,371.5703,522.5,375.5703,512.5,379.5703,516.5,375.5703" style="stroke:#181818;stroke-width:1.0;"/><line style="stroke:#181818;stroke-width:1.0;" x1="287.5" x2="518.5" y1="375.5703" y2="375.5703"/><text fill="#000000" font-family="sans-serif" font-size="13" lengthAdjust="spacing" textLength="195" x="294.5" y="370.3076">requestCollaboratorBirthdayDate()</text><polygon fill="#181818" points="298.5,402.8613,288.5,406.8613,298.5,410.8613,294.5,406.8613" style="stroke:#181818;stroke-width:1.0;"/><line style="stroke:#181818;stroke-width:1.0;" x1="292.5" x2="528.5" y1="406.8613" y2="406.8613"/><text fill="#000000" font-family="sans-serif" font-size="13" lengthAdjust="spacing" textLength="181" x="304.5" y="401.5986">Enter collaborator birthday date</text><polygon fill="#181818" points="512.5,434.1523,522.5,438.1523,512.5,442.1523,516.5,438.1523" style="stroke:#181818;stroke-width:1.0;"/><line style="stroke:#181818;stroke-width:1.0;" x1="287.5" x2="518.5" y1="438.1523" y2="438.1523"/><text fill="#000000" font-family="sans-serif" font-size="13" lengthAdjust="spacing" textLength="208" x="294.5" y="432.8896">requestCollaboratorAdmissionDate()</text><polygon fill="#181818" points="298.5,465.4434,288.5,469.4434,298.5,473.4434,294.5,469.4434" style="stroke:#181818;stroke-width:1.0;"/><line style="stroke:#181818;stroke-width:1.0;" x1="292.5" x2="528.5" y1="469.4434" y2="469.4434"/><text fill="#000000" font-family="sans-serif" font-size="13" lengthAdjust="spacing" textLength="194" x="304.5" y="464.1807">Enter collaborator admission date</text><polygon fill="#181818" points="512.5,496.7344,522.5,500.7344,512.5,504.7344,516.5,500.7344" style="stroke:#181818;stroke-width:1.0;"/><line style="stroke:#181818;stroke-width:1.0;" x1="287.5" x2="518.5" y1="500.7344" y2="500.7344"/><text fill="#000000" font-family="sans-serif" font-size="13" lengthAdjust="spacing" textLength="168" x="294.5" y="495.4717">requestCollaboratorAddress()</text><polygon fill="#181818" points="298.5,528.0254,288.5,532.0254,298.5,536.0254,294.5,532.0254" style="stroke:#181818;stroke-width:1.0;"/><line style="stroke:#181818;stroke-width:1.0;" x1="292.5" x2="528.5" y1="532.0254" y2="532.0254"/><text fill="#000000" font-family="sans-serif" font-size="13" lengthAdjust="spacing" textLength="152" x="304.5" y="526.7627">Enter collaborator address</text><polygon fill="#181818" points="512.5,559.3164,522.5,563.3164,512.5,567.3164,516.5,563.3164" style="stroke:#181818;stroke-width:1.0;"/><line style="stroke:#181818;stroke-width:1.0;" x1="287.5" x2="518.5" y1="563.3164" y2="563.3164"/><text fill="#000000" font-family="sans-serif" font-size="13" lengthAdjust="spacing" textLength="202" x="294.5" y="558.0537">requestCollaboratorPhoneNumber()</text><polygon fill="#181818" points="298.5,590.6074,288.5,594.6074,298.5,598.6074,294.5,594.6074" style="stroke:#181818;stroke-width:1.0;"/><line style="stroke:#181818;stroke-width:1.0;" x1="292.5" x2="528.5" y1="594.6074" y2="594.6074"/><text fill="#000000" font-family="sans-serif" font-size="13" lengthAdjust="spacing" textLength="188" x="304.5" y="589.3447">Enter collaborator phone number</text><polygon fill="#181818" points="512.5,621.8984,522.5,625.8984,512.5,629.8984,516.5,625.8984" style="stroke:#181818;stroke-width:1.0;"/><line style="stroke:#181818;stroke-width:1.0;" x1="287.5" x2="518.5" y1="625.8984" y2="625.8984"/><text fill="#000000" font-family="sans-serif" font-size="13" lengthAdjust="spacing" textLength="153" x="294.5" y="620.6357">requestCollaboratorEmail()</text><polygon fill="#181818" points="298.5,653.1895,288.5,657.1895,298.5,661.1895,294.5,657.1895" style="stroke:#181818;stroke-width:1.0;"/><line style="stroke:#181818;stroke-width:1.0;" x1="292.5" x2="528.5" y1="657.1895" y2="657.1895"/><text fill="#000000" font-family="sans-serif" font-size="13" lengthAdjust="spacing" textLength="137" x="304.5" y="651.9268">Enter collaborator email</text><polygon fill="#181818" points="512.5,684.4805,522.5,688.4805,512.5,692.4805,516.5,688.4805" style="stroke:#181818;stroke-width:1.0;"/><line style="stroke:#181818;stroke-width:1.0;" x1="287.5" x2="518.5" y1="688.4805" y2="688.4805"/><text fill="#000000" font-family="sans-serif" font-size="13" lengthAdjust="spacing" textLength="218" x="294.5" y="683.2178">requestCollaboratorTaxpayerNumber()</text><polygon fill="#181818" points="298.5,715.7715,288.5,719.7715,298.5,723.7715,294.5,719.7715" style="stroke:#181818;stroke-width:1.0;"/><line style="stroke:#181818;stroke-width:1.0;" x1="292.5" x2="528.5" y1="719.7715" y2="719.7715"/><text fill="#000000" font-family="sans-serif" font-size="13" lengthAdjust="spacing" textLength="203" x="304.5" y="714.5088">Enter collaborator taxpayer number</text><polygon fill="#181818" points="512.5,747.0625,522.5,751.0625,512.5,755.0625,516.5,751.0625" style="stroke:#181818;stroke-width:1.0;"/><line style="stroke:#181818;stroke-width:1.0;" x1="287.5" x2="518.5" y1="751.0625" y2="751.0625"/><text fill="#000000" font-family="sans-serif" font-size="13" lengthAdjust="spacing" textLength="177" x="294.5" y="745.7998">requestCollaboratorBINumber()</text><polygon fill="#181818" points="298.5,778.3535,288.5,782.3535,298.5,786.3535,294.5,782.3535" style="stroke:#181818;stroke-width:1.0;"/><line style="stroke:#181818;stroke-width:1.0;" x1="292.5" x2="528.5" y1="782.3535" y2="782.3535"/><text fill="#000000" font-family="sans-serif" font-size="13" lengthAdjust="spacing" textLength="165" x="304.5" y="777.0908">Enter collaborator BI number</text><polygon fill="#181818" points="968,809.6445,978,813.6445,968,817.6445,972,813.6445" style="stroke:#181818;stroke-width:1.0;"/><line style="stroke:#181818;stroke-width:1.0;" x1="287.5" x2="974" y1="813.6445" y2="813.6445"/><text fill="#000000" font-family="sans-serif" font-size="13" lengthAdjust="spacing" textLength="129" x="294.5" y="808.3818">isBINumberDuplicate()</text><polygon fill="#181818" points="298.5,840.9355,288.5,844.9355,298.5,848.9355,294.5,844.9355" style="stroke:#181818;stroke-width:1.0;"/><line style="stroke:#181818;stroke-width:1.0;stroke-dasharray:2.0,2.0;" x1="292.5" x2="984" y1="844.9355" y2="844.9355"/><text fill="#000000" font-family="sans-serif" font-size="13" lengthAdjust="spacing" textLength="186" x="304.5" y="839.6729">isBINumberDuplicate (true/false)</text><polygon fill="#181818" points="512.5,872.2266,522.5,876.2266,512.5,880.2266,516.5,876.2266" style="stroke:#181818;stroke-width:1.0;"/><line style="stroke:#181818;stroke-width:1.0;" x1="287.5" x2="518.5" y1="876.2266" y2="876.2266"/><text fill="#000000" font-family="sans-serif" font-size="13" lengthAdjust="spacing" textLength="78" x="294.5" y="870.9639">requestData()</text><polygon fill="#181818" points="1150,903.5176,1160,907.5176,1150,911.5176,1154,907.5176" style="stroke:#181818;stroke-width:1.0;"/><line style="stroke:#181818;stroke-width:1.0;" x1="534.5" x2="1156" y1="907.5176" y2="907.5176"/><text fill="#000000" font-family="sans-serif" font-size="13" lengthAdjust="spacing" textLength="113" x="541.5" y="902.2549">createCollaborator()</text><polygon fill="#181818" points="545.5,934.8086,535.5,938.8086,545.5,942.8086,541.5,938.8086" style="stroke:#181818;stroke-width:1.0;"/><line style="stroke:#181818;stroke-width:1.0;stroke-dasharray:2.0,2.0;" x1="539.5" x2="1166" y1="938.8086" y2="938.8086"/><text fill="#000000" font-family="sans-serif" font-size="13" lengthAdjust="spacing" textLength="133" x="551.5" y="933.5459">Optional&lt;Collaborator&gt;</text><polygon fill="#181818" points="293.5,966.0996,283.5,970.0996,293.5,974.0996,289.5,970.0996" style="stroke:#181818;stroke-width:1.0;"/><line style="stroke:#181818;stroke-width:1.0;stroke-dasharray:2.0,2.0;" x1="287.5" x2="528.5" y1="970.0996" y2="970.0996"/><text fill="#000000" font-family="sans-serif" font-size="13" lengthAdjust="spacing" textLength="116" x="299.5" y="964.8369">Creates collaborator</text><!--SRC=[hLNBJiCm4BpdAwoUoW5nhwfAb28HH0igv0CsoLAC4ZlOJaN_ddMQWfq7L3AdoEkTyUnix3NS5CXk58AXZomAIAK28nLxneyQHOPinM6de8mYo6nySbUN8DWMjQmLRQz1m0xLX85cTzjrL84oFECL2CCcHsANDucRp2J-A_562gDetLB_B7tWlKmxcLwabxp5IcfE_8TJierqn3WoEldThHx_YNMSiSSJHUGRkroGAJF61JUShD0iSxkHMN-u5BO9V6-RHGuciKLvzSwOidtJvdeFdE05qhQUNlpWV7kyLSjcwx8yHd7Susz4ZGFjbrtsjJnmRUOKMqGv3k7SezlwtsLgKHs0exYjUg1arzCDbEYATGZyUksPjyBGmlDR4DxLuE3FEd_9bNdBuR0YS8YEjELXEQ5315td9TUQ_g1GHN0Y-WT9kKAjmyGq524gdjwam4rTfgX2b5IMXec69qJERKdNBKG8Me8G1I_mMS41LRWdfcNw1rkMSRYSPNoU4F-5foTPdqvVrLN1izu5weo4Rk3xRHiWObEZQhnwXKBZXQ-hmpfg4rreECiMbt9sd2ZUn1qhoYkeASPLyLZPkGJ5tCrQZ9KI3Jpvnzdl3xoH5ZdH9Fu2]--></g></svg>