<?xml version="1.0" encoding="us-ascii" standalone="no"?><svg xmlns="http://www.w3.org/2000/svg" xmlns:xlink="http://www.w3.org/1999/xlink" contentStyleType="text/css" height="549px" preserveAspectRatio="none" style="width:986px;height:549px;background:#FFFFFF;" version="1.1" viewBox="0 0 986 549" width="986px" zoomAndPan="magnify"><defs/><g><rect fill="#FFFFFF" height="358.7266" style="stroke:#181818;stroke-width:1.0;" width="10" x="46.5" y="91.4883"/><rect fill="#FFFFFF" height="337.416" style="stroke:#181818;stroke-width:1.0;" width="10" x="238.5" y="112.7988"/><rect fill="#FFFFFF" height="278.7949" style="stroke:#181818;stroke-width:1.0;" width="10" x="524.5" y="142.1094"/><rect fill="none" height="59.6211" style="stroke:#000000;stroke-width:1.5;" width="228" x="449" y="332.9727"/><line style="stroke:#181818;stroke-width:0.5;stroke-dasharray:5.0,5.0;" x1="51" x2="51" y1="81.4883" y2="468.2148"/><line style="stroke:#181818;stroke-width:0.5;stroke-dasharray:5.0,5.0;" x1="243.5" x2="243.5" y1="81.4883" y2="468.2148"/><line style="stroke:#181818;stroke-width:0.5;stroke-dasharray:5.0,5.0;" x1="529" x2="529" y1="81.4883" y2="468.2148"/><line style="stroke:#181818;stroke-width:0.5;stroke-dasharray:5.0,5.0;" x1="661" x2="661" y1="81.4883" y2="468.2148"/><line style="stroke:#181818;stroke-width:0.5;stroke-dasharray:5.0,5.0;" x1="774" x2="774" y1="81.4883" y2="468.2148"/><line style="stroke:#181818;stroke-width:0.5;stroke-dasharray:5.0,5.0;" x1="908" x2="908" y1="81.4883" y2="468.2148"/><text fill="#000000" font-family="sans-serif" font-size="14" lengthAdjust="spacing" textLength="87" x="5" y="78.5352">Collaborator</text><ellipse cx="51.5" cy="13.5" fill="#E2E2F0" rx="8" ry="8" style="stroke:#181818;stroke-width:0.5;"/><path d="M51.5,21.5 L51.5,48.5 M38.5,29.5 L64.5,29.5 M51.5,48.5 L38.5,63.5 M51.5,48.5 L64.5,63.5 " fill="none" style="stroke:#181818;stroke-width:0.5;"/><text fill="#000000" font-family="sans-serif" font-size="14" lengthAdjust="spacing" textLength="87" x="5" y="480.75">Collaborator</text><ellipse cx="51.5" cy="492.2031" fill="#E2E2F0" rx="8" ry="8" style="stroke:#181818;stroke-width:0.5;"/><path d="M51.5,500.2031 L51.5,527.2031 M38.5,508.2031 L64.5,508.2031 M51.5,527.2031 L38.5,542.2031 M51.5,527.2031 L64.5,542.2031 " fill="none" style="stroke:#181818;stroke-width:0.5;"/><rect fill="#E2E2F0" height="30.4883" rx="2.5" ry="2.5" style="stroke:#181818;stroke-width:0.5;" width="120" x="183.5" y="50"/><text fill="#000000" font-family="sans-serif" font-size="14" lengthAdjust="spacing" textLength="106" x="190.5" y="70.5352">:DisplayTasksUI</text><rect fill="#E2E2F0" height="30.4883" rx="2.5" ry="2.5" style="stroke:#181818;stroke-width:0.5;" width="120" x="183.5" y="467.2148"/><text fill="#000000" font-family="sans-serif" font-size="14" lengthAdjust="spacing" textLength="106" x="190.5" y="487.75">:DisplayTasksUI</text><rect fill="#E2E2F0" height="30.4883" rx="2.5" ry="2.5" style="stroke:#181818;stroke-width:0.5;" width="141" x="459" y="50"/><text fill="#000000" font-family="sans-serif" font-size="14" lengthAdjust="spacing" textLength="127" x="466" y="70.5352">:AgendaController</text><rect fill="#E2E2F0" height="30.4883" rx="2.5" ry="2.5" style="stroke:#181818;stroke-width:0.5;" width="141" x="459" y="467.2148"/><text fill="#000000" font-family="sans-serif" font-size="14" lengthAdjust="spacing" textLength="127" x="466" y="487.75">:AgendaController</text><rect fill="#E2E2F0" height="30.4883" rx="2.5" ry="2.5" style="stroke:#181818;stroke-width:0.5;" width="103" x="610" y="50"/><text fill="#000000" font-family="sans-serif" font-size="14" lengthAdjust="spacing" textLength="89" x="617" y="70.5352">:Repositories</text><rect fill="#E2E2F0" height="30.4883" rx="2.5" ry="2.5" style="stroke:#181818;stroke-width:0.5;" width="103" x="610" y="467.2148"/><text fill="#000000" font-family="sans-serif" font-size="14" lengthAdjust="spacing" textLength="89" x="617" y="487.75">:Repositories</text><rect fill="#E2E2F0" height="46.9766" rx="2.5" ry="2.5" style="stroke:#181818;stroke-width:0.5;" width="103" x="723" y="33.5117"/><text fill="#000000" font-family="sans-serif" font-size="14" lengthAdjust="spacing" textLength="82" x="733.5" y="54.0469">repositories</text><text fill="#000000" font-family="sans-serif" font-size="14" lengthAdjust="spacing" textLength="89" x="730" y="70.5352">:Repositories</text><rect fill="#E2E2F0" height="46.9766" rx="2.5" ry="2.5" style="stroke:#181818;stroke-width:0.5;" width="103" x="723" y="467.2148"/><text fill="#000000" font-family="sans-serif" font-size="14" lengthAdjust="spacing" textLength="82" x="733.5" y="487.75">repositories</text><text fill="#000000" font-family="sans-serif" font-size="14" lengthAdjust="spacing" textLength="89" x="730" y="504.2383">:Repositories</text><rect fill="#E2E2F0" height="46.9766" rx="2.5" ry="2.5" style="stroke:#181818;stroke-width:0.5;" width="144" x="836" y="33.5117"/><text fill="#000000" font-family="sans-serif" font-size="14" lengthAdjust="spacing" textLength="130" x="843" y="54.0469">AgendaRepository:</text><text fill="#000000" font-family="sans-serif" font-size="14" lengthAdjust="spacing" textLength="126" x="845" y="70.5352">AgendaRepository</text><rect fill="#E2E2F0" height="46.9766" rx="2.5" ry="2.5" style="stroke:#181818;stroke-width:0.5;" width="144" x="836" y="467.2148"/><text fill="#000000" font-family="sans-serif" font-size="14" lengthAdjust="spacing" textLength="130" x="843" y="487.75">AgendaRepository:</text><text fill="#000000" font-family="sans-serif" font-size="14" lengthAdjust="spacing" textLength="126" x="845" y="504.2383">AgendaRepository</text><rect fill="#FFFFFF" height="358.7266" style="stroke:#181818;stroke-width:1.0;" width="10" x="46.5" y="91.4883"/><rect fill="#FFFFFF" height="337.416" style="stroke:#181818;stroke-width:1.0;" width="10" x="238.5" y="112.7988"/><rect fill="#FFFFFF" height="278.7949" style="stroke:#181818;stroke-width:1.0;" width="10" x="524.5" y="142.1094"/><polygon fill="#181818" points="226.5,108.7988,236.5,112.7988,226.5,116.7988,230.5,112.7988" style="stroke:#181818;stroke-width:1.0;"/><line style="stroke:#181818;stroke-width:1.0;" x1="56.5" x2="232.5" y1="112.7988" y2="112.7988"/><text fill="#000000" font-family="sans-serif" font-size="13" lengthAdjust="spacing" textLength="163" x="63.5" y="108.0566">Requests to consult tasks</text><polygon fill="#181818" points="512.5,138.1094,522.5,142.1094,512.5,146.1094,516.5,142.1094" style="stroke:#181818;stroke-width:1.0;"/><line style="stroke:#181818;stroke-width:1.0;" x1="248.5" x2="518.5" y1="142.1094" y2="142.1094"/><text fill="#000000" font-family="sans-serif" font-size="13" lengthAdjust="spacing" textLength="257" x="255.5" y="137.3672">DisplayTasks(startDate, endDate, status)</text><polygon fill="#181818" points="649.5,167.4199,659.5,171.4199,649.5,175.4199,653.5,171.4199" style="stroke:#181818;stroke-width:1.0;"/><line style="stroke:#181818;stroke-width:1.0;" x1="534.5" x2="655.5" y1="171.4199" y2="171.4199"/><text fill="#000000" font-family="sans-serif" font-size="13" lengthAdjust="spacing" textLength="81" x="541.5" y="166.6777">getInstance()</text><polygon fill="#181818" points="545.5,196.7305,535.5,200.7305,545.5,204.7305,541.5,200.7305" style="stroke:#181818;stroke-width:1.0;"/><line style="stroke:#181818;stroke-width:1.0;stroke-dasharray:2.0,2.0;" x1="539.5" x2="660.5" y1="200.7305" y2="200.7305"/><text fill="#000000" font-family="sans-serif" font-size="13" lengthAdjust="spacing" textLength="75" x="551.5" y="195.9883">repositories</text><polygon fill="#181818" points="762.5,226.041,772.5,230.041,762.5,234.041,766.5,230.041" style="stroke:#181818;stroke-width:1.0;"/><line style="stroke:#181818;stroke-width:1.0;" x1="534.5" x2="768.5" y1="230.041" y2="230.041"/><text fill="#000000" font-family="sans-serif" font-size="13" lengthAdjust="spacing" textLength="142" x="541.5" y="225.2988">getAgendaRepository()</text><polygon fill="#181818" points="545.5,255.3516,535.5,259.3516,545.5,263.3516,541.5,259.3516" style="stroke:#181818;stroke-width:1.0;"/><line style="stroke:#181818;stroke-width:1.0;stroke-dasharray:2.0,2.0;" x1="539.5" x2="773.5" y1="259.3516" y2="259.3516"/><text fill="#000000" font-family="sans-serif" font-size="13" lengthAdjust="spacing" textLength="112" x="551.5" y="254.6094">agendaRepository</text><polygon fill="#181818" points="896,284.6621,906,288.6621,896,292.6621,900,288.6621" style="stroke:#181818;stroke-width:1.0;"/><line style="stroke:#181818;stroke-width:1.0;" x1="534.5" x2="902" y1="288.6621" y2="288.6621"/><text fill="#000000" font-family="sans-serif" font-size="13" lengthAdjust="spacing" textLength="99" x="541.5" y="283.9199">getAllAgendas()</text><polygon fill="#181818" points="545.5,313.9727,535.5,317.9727,545.5,321.9727,541.5,317.9727" style="stroke:#181818;stroke-width:1.0;"/><line style="stroke:#181818;stroke-width:1.0;stroke-dasharray:2.0,2.0;" x1="539.5" x2="907" y1="317.9727" y2="317.9727"/><text fill="#000000" font-family="sans-serif" font-size="13" lengthAdjust="spacing" textLength="88" x="551.5" y="313.2305">agendaEntries</text><path d="M449,332.9727 L523,332.9727 L523,340.2832 L513,350.2832 L449,350.2832 L449,332.9727 " fill="#EEEEEE" style="stroke:#000000;stroke-width:1.5;"/><rect fill="none" height="59.6211" style="stroke:#000000;stroke-width:1.5;" width="228" x="449" y="332.9727"/><text fill="#000000" font-family="sans-serif" font-size="13" font-weight="bold" lengthAdjust="spacing" textLength="29" x="464" y="346.541">loop</text><text fill="#000000" font-family="sans-serif" font-size="11" font-weight="bold" lengthAdjust="spacing" textLength="134" x="538" y="345.6074">[through agendaEntries]</text><line style="stroke:#181818;stroke-width:1.0;" x1="534.5" x2="576.5" y1="371.5938" y2="371.5938"/><line style="stroke:#181818;stroke-width:1.0;" x1="576.5" x2="576.5" y1="371.5938" y2="384.5938"/><line style="stroke:#181818;stroke-width:1.0;" x1="535.5" x2="576.5" y1="384.5938" y2="384.5938"/><polygon fill="#181818" points="545.5,380.5938,535.5,384.5938,545.5,388.5938,541.5,384.5938" style="stroke:#181818;stroke-width:1.0;"/><text fill="#000000" font-family="sans-serif" font-size="13" lengthAdjust="spacing" textLength="70" x="541.5" y="366.8516">Filter tasks</text><polygon fill="#181818" points="259.5,416.9043,249.5,420.9043,259.5,424.9043,255.5,420.9043" style="stroke:#181818;stroke-width:1.0;"/><line style="stroke:#181818;stroke-width:1.0;stroke-dasharray:2.0,2.0;" x1="253.5" x2="528.5" y1="420.9043" y2="420.9043"/><text fill="#000000" font-family="sans-serif" font-size="13" lengthAdjust="spacing" textLength="134" x="265.5" y="416.1621">Display filtered tasks</text><polygon fill="#181818" points="62.5,446.2148,52.5,450.2148,62.5,454.2148,58.5,450.2148" style="stroke:#181818;stroke-width:1.0;"/><line style="stroke:#181818;stroke-width:1.0;stroke-dasharray:2.0,2.0;" x1="56.5" x2="242.5" y1="450.2148" y2="450.2148"/><text fill="#000000" font-family="sans-serif" font-size="13" lengthAdjust="spacing" textLength="134" x="68.5" y="445.4727">Display filtered tasks</text><!--SRC=[ZPB1JiCm38RlUGghfqsYBz03qhI1L8a3WkssIsX35n4b9N6HzlQuJQ596YPwIl_OdvtVvWqQ2yNUACNVZENqLm1t40givnPb8tkk4Ohg85sl-FN8tOSxrLFqB9tg97JN2TtolT5eYISyEXMJd1VH6oUfh1HkYlyLhgzITqgWqN6A3JBEUWruVjeTumpVmWAkpZgLWbONaJ7UeFpYA6A3MFW7vVrY25JK_-SW73f00utHRb08E9eNq1O3sP9AdDGhmeNsRnpIimv4k0CAz0VIS73RWBvodAsuL2lZCvNh1DQQaBeHcotBnPIPFYi8Xv8jDqx5yrENgSvqMUODuEbGSlIKELTIobyugh4AkLdlWPJnAKmPqmDUh1cwIt87zFtTJ0Hzb0hfuFU0RdCZIVPeFiFxb2hQdoLgnOr11zj4k6XD_qKC5ZDGe-N_1W00]--></g></svg>