<?xml version="1.0" encoding="us-ascii" standalone="no"?><svg xmlns="http://www.w3.org/2000/svg" xmlns:xlink="http://www.w3.org/1999/xlink" contentStyleType="text/css" height="1758px" preserveAspectRatio="none" style="width:1754px;height:1758px;background:#FFFFFF;" version="1.1" viewBox="0 0 1754 1758" width="1754px" zoomAndPan="magnify"><defs/><g><!--class DisplayTasksUI--><g id="elem_DisplayTasksUI"><rect codeLine="10" fill="#F1F1F1" height="97.4648" id="DisplayTasksUI" rx="2.5" ry="2.5" style="stroke:#181818;stroke-width:0.5;" width="534" x="724.5" y="7"/><ellipse cx="936.25" cy="23" fill="#ADD1B2" rx="11" ry="11" style="stroke:#181818;stroke-width:1.0;"/><path d="M939.2231,28.6431 Q938.6421,28.9419 938.0029,29.0913 Q937.3638,29.2407 936.6582,29.2407 Q934.1514,29.2407 932.8315,27.5889 Q931.5117,25.937 931.5117,22.8159 Q931.5117,19.6865 932.8315,18.0347 Q934.1514,16.3828 936.6582,16.3828 Q937.3638,16.3828 938.0112,16.5322 Q938.6587,16.6816 939.2231,16.9805 L939.2231,19.7031 Q938.5923,19.1221 937.9988,18.8523 Q937.4053,18.5825 936.7744,18.5825 Q935.4297,18.5825 934.7449,19.6492 Q934.0601,20.7158 934.0601,22.8159 Q934.0601,24.9077 934.7449,25.9744 Q935.4297,27.041 936.7744,27.041 Q937.4053,27.041 937.9988,26.7712 Q938.5923,26.5015 939.2231,25.9204 Z " fill="#000000"/><text fill="#000000" font-family="sans-serif" font-size="14" lengthAdjust="spacing" textLength="102" x="956.75" y="28.291">DisplayTasksUI</text><line style="stroke:#181818;stroke-width:0.5;" x1="725.5" x2="1257.5" y1="39" y2="39"/><line style="stroke:#181818;stroke-width:0.5;" x1="725.5" x2="1257.5" y1="47" y2="47"/><ellipse cx="735.5" cy="60.7441" fill="#84BE84" rx="3" ry="3" style="stroke:#038048;stroke-width:1.0;"/><text fill="#000000" font-family="sans-serif" font-size="14" lengthAdjust="spacing" textLength="228" x="744.5" y="64.5352">DisplayTasksUI(userEmail: String)</text><ellipse cx="735.5" cy="77.2324" fill="#84BE84" rx="3" ry="3" style="stroke:#038048;stroke-width:1.0;"/><text fill="#000000" font-family="sans-serif" font-size="14" lengthAdjust="spacing" textLength="71" x="744.5" y="81.0234">run(): void</text><ellipse cx="735.5" cy="93.7207" fill="#84BE84" rx="3" ry="3" style="stroke:#038048;stroke-width:1.0;"/><text fill="#000000" font-family="sans-serif" font-size="14" lengthAdjust="spacing" textLength="508" x="744.5" y="97.5117">DisplayTasks(startDate: LocalDate, endDate: LocalDate, status: String): void</text></g><!--class AgendaController--><g id="elem_AgendaController"><rect codeLine="16" fill="#F1F1F1" height="179.9063" id="AgendaController" rx="2.5" ry="2.5" style="stroke:#181818;stroke-width:0.5;" width="1121" x="431" y="165.47"/><ellipse cx="925.75" cy="181.47" fill="#ADD1B2" rx="11" ry="11" style="stroke:#181818;stroke-width:1.0;"/><path d="M928.7231,187.1131 Q928.1421,187.4119 927.5029,187.5613 Q926.8638,187.7107 926.1582,187.7107 Q923.6514,187.7107 922.3315,186.0589 Q921.0117,184.407 921.0117,181.2859 Q921.0117,178.1565 922.3315,176.5047 Q923.6514,174.8528 926.1582,174.8528 Q926.8638,174.8528 927.5112,175.0022 Q928.1587,175.1516 928.7231,175.4505 L928.7231,178.1731 Q928.0923,177.5921 927.4988,177.3223 Q926.9053,177.0525 926.2744,177.0525 Q924.9297,177.0525 924.2449,178.1192 Q923.5601,179.1858 923.5601,181.2859 Q923.5601,183.3777 924.2449,184.4444 Q924.9297,185.511 926.2744,185.511 Q926.9053,185.511 927.4988,185.2412 Q928.0923,184.9715 928.7231,184.3904 Z " fill="#000000"/><text fill="#000000" font-family="sans-serif" font-size="14" lengthAdjust="spacing" textLength="123" x="946.25" y="186.761">AgendaController</text><line style="stroke:#181818;stroke-width:0.5;" x1="432" x2="1551" y1="197.47" y2="197.47"/><rect fill="none" height="6" style="stroke:#C82930;stroke-width:1.0;" width="6" x="439" y="208.2141"/><text fill="#000000" font-family="sans-serif" font-size="14" lengthAdjust="spacing" textLength="175" x="451" y="215.0052">repositories: Repositories</text><line style="stroke:#181818;stroke-width:0.5;" x1="432" x2="1551" y1="221.9583" y2="221.9583"/><ellipse cx="442" cy="235.7024" fill="#84BE84" rx="3" ry="3" style="stroke:#038048;stroke-width:1.0;"/><text fill="#000000" font-family="sans-serif" font-size="14" lengthAdjust="spacing" textLength="133" x="451" y="239.4934">AgendaController()</text><ellipse cx="442" cy="252.1907" fill="#84BE84" rx="3" ry="3" style="stroke:#038048;stroke-width:1.0;"/><text fill="#000000" font-family="sans-serif" font-size="14" lengthAdjust="spacing" textLength="256" x="451" y="255.9817">getAllAgendaEntries(): List&lt;Agenda&gt;</text><ellipse cx="442" cy="268.679" fill="#84BE84" rx="3" ry="3" style="stroke:#038048;stroke-width:1.0;"/><text fill="#000000" font-family="sans-serif" font-size="14" lengthAdjust="spacing" textLength="1095" x="451" y="272.47">createAgendaEntry(taskDescription: String, greenSpaceName: String, expectedDate: LocalDate, status: String, teamProposal: TeamProposal): Optional&lt;Agenda&gt;</text><ellipse cx="442" cy="285.1673" fill="#84BE84" rx="3" ry="3" style="stroke:#038048;stroke-width:1.0;"/><text fill="#000000" font-family="sans-serif" font-size="14" lengthAdjust="spacing" textLength="295" x="451" y="288.9583">updateAgendaEntry(agenda: Agenda): void</text><ellipse cx="442" cy="301.6555" fill="#84BE84" rx="3" ry="3" style="stroke:#038048;stroke-width:1.0;"/><text fill="#000000" font-family="sans-serif" font-size="14" lengthAdjust="spacing" textLength="370" x="451" y="305.4466">getGreenSpaces(userEmail: String): List&lt;GreenSpace&gt;</text><ellipse cx="442" cy="318.1438" fill="#84BE84" rx="3" ry="3" style="stroke:#038048;stroke-width:1.0;"/><text fill="#000000" font-family="sans-serif" font-size="14" lengthAdjust="spacing" textLength="544" x="451" y="321.9348">getToDoListEntries(userEmail: String, greenSpaceName: String): List&lt;ToDoList&gt;</text><ellipse cx="442" cy="334.6321" fill="#84BE84" rx="3" ry="3" style="stroke:#038048;stroke-width:1.0;"/><text fill="#000000" font-family="sans-serif" font-size="14" lengthAdjust="spacing" textLength="306" x="451" y="338.4231">getAllTeamProposals(): List&lt;TeamProposal&gt;</text></g><!--class Repositories--><g id="elem_Repositories"><rect codeLine="27" fill="#F1F1F1" height="97.4648" id="Repositories" rx="2.5" ry="2.5" style="stroke:#181818;stroke-width:0.5;" width="386" x="675.5" y="406.37"/><ellipse cx="821.75" cy="422.37" fill="#ADD1B2" rx="11" ry="11" style="stroke:#181818;stroke-width:1.0;"/><path d="M824.7231,428.0131 Q824.1421,428.3119 823.5029,428.4613 Q822.8638,428.6107 822.1582,428.6107 Q819.6514,428.6107 818.3315,426.9589 Q817.0117,425.307 817.0117,422.1859 Q817.0117,419.0565 818.3315,417.4047 Q819.6514,415.7528 822.1582,415.7528 Q822.8638,415.7528 823.5112,415.9022 Q824.1587,416.0516 824.7231,416.3505 L824.7231,419.0731 Q824.0923,418.4921 823.4988,418.2223 Q822.9053,417.9525 822.2744,417.9525 Q820.9297,417.9525 820.2449,419.0192 Q819.5601,420.0858 819.5601,422.1859 Q819.5601,424.2777 820.2449,425.3444 Q820.9297,426.411 822.2744,426.411 Q822.9053,426.411 823.4988,426.1412 Q824.0923,425.8715 824.7231,425.2904 Z " fill="#000000"/><text fill="#000000" font-family="sans-serif" font-size="14" lengthAdjust="spacing" textLength="85" x="842.25" y="427.661">Repositories</text><line style="stroke:#181818;stroke-width:0.5;" x1="676.5" x2="1060.5" y1="438.37" y2="438.37"/><line style="stroke:#181818;stroke-width:0.5;" x1="676.5" x2="1060.5" y1="446.37" y2="446.37"/><ellipse cx="686.5" cy="460.1141" fill="#84BE84" rx="3" ry="3" style="stroke:#038048;stroke-width:1.0;"/><text fill="#000000" font-family="sans-serif" font-size="14" lengthAdjust="spacing" textLength="182" x="695.5" y="463.9052">getInstance(): Repositories</text><ellipse cx="686.5" cy="476.6024" fill="#84BE84" rx="3" ry="3" style="stroke:#038048;stroke-width:1.0;"/><text fill="#000000" font-family="sans-serif" font-size="14" lengthAdjust="spacing" textLength="292" x="695.5" y="480.3934">getAgendaRepository(): AgendaRepository</text><ellipse cx="686.5" cy="493.0907" fill="#84BE84" rx="3" ry="3" style="stroke:#038048;stroke-width:1.0;"/><text fill="#000000" font-family="sans-serif" font-size="14" lengthAdjust="spacing" textLength="360" x="695.5" y="496.8817">getCollaboratorRepository(): CollaboratorRepository</text></g><!--class Agenda--><g id="elem_Agenda"><rect codeLine="33" fill="#F1F1F1" height="344.7891" id="Agenda" rx="2.5" ry="2.5" style="stroke:#181818;stroke-width:0.5;" width="901" x="7" y="1406.44"/><ellipse cx="426.75" cy="1422.44" fill="#ADD1B2" rx="11" ry="11" style="stroke:#181818;stroke-width:1.0;"/><path d="M429.7231,1428.0831 Q429.1421,1428.3819 428.5029,1428.5313 Q427.8638,1428.6807 427.1582,1428.6807 Q424.6514,1428.6807 423.3315,1427.0289 Q422.0117,1425.377 422.0117,1422.2559 Q422.0117,1419.1265 423.3315,1417.4747 Q424.6514,1415.8228 427.1582,1415.8228 Q427.8638,1415.8228 428.5112,1415.9722 Q429.1587,1416.1216 429.7231,1416.4205 L429.7231,1419.1431 Q429.0923,1418.5621 428.4988,1418.2923 Q427.9053,1418.0225 427.2744,1418.0225 Q425.9297,1418.0225 425.2449,1419.0892 Q424.5601,1420.1558 424.5601,1422.2559 Q424.5601,1424.3477 425.2449,1425.4144 Q425.9297,1426.481 427.2744,1426.481 Q427.9053,1426.481 428.4988,1426.2112 Q429.0923,1425.9415 429.7231,1425.3604 Z " fill="#000000"/><text fill="#000000" font-family="sans-serif" font-size="14" lengthAdjust="spacing" textLength="53" x="447.25" y="1427.731">Agenda</text><line style="stroke:#181818;stroke-width:0.5;" x1="8" x2="907" y1="1438.44" y2="1438.44"/><rect fill="none" height="6" style="stroke:#C82930;stroke-width:1.0;" width="6" x="15" y="1449.1841"/><text fill="#000000" font-family="sans-serif" font-size="14" lengthAdjust="spacing" textLength="155" x="27" y="1455.9752">taskDescription: String</text><rect fill="none" height="6" style="stroke:#C82930;stroke-width:1.0;" width="6" x="15" y="1465.6724"/><text fill="#000000" font-family="sans-serif" font-size="14" lengthAdjust="spacing" textLength="167" x="27" y="1472.4634">greenspaceName: String</text><rect fill="none" height="6" style="stroke:#C82930;stroke-width:1.0;" width="6" x="15" y="1482.1607"/><text fill="#000000" font-family="sans-serif" font-size="14" lengthAdjust="spacing" textLength="168" x="27" y="1488.9517">expectedDate: LocalDate</text><rect fill="none" height="6" style="stroke:#C82930;stroke-width:1.0;" width="6" x="15" y="1498.649"/><text fill="#000000" font-family="sans-serif" font-size="14" lengthAdjust="spacing" textLength="90" x="27" y="1505.44">status: String</text><rect fill="none" height="6" style="stroke:#C82930;stroke-width:1.0;" width="6" x="15" y="1515.1373"/><text fill="#000000" font-family="sans-serif" font-size="14" lengthAdjust="spacing" textLength="200" x="27" y="1521.9283">teamProposal: TeamProposal</text><rect fill="none" height="6" style="stroke:#C82930;stroke-width:1.0;" width="6" x="15" y="1531.6255"/><text fill="#000000" font-family="sans-serif" font-size="14" lengthAdjust="spacing" textLength="156" x="27" y="1538.4166">vehicles: List&lt;Vehicle&gt;</text><line style="stroke:#181818;stroke-width:0.5;" x1="8" x2="907" y1="1545.3697" y2="1545.3697"/><ellipse cx="18" cy="1559.1138" fill="#84BE84" rx="3" ry="3" style="stroke:#038048;stroke-width:1.0;"/><text fill="#000000" font-family="sans-serif" font-size="14" lengthAdjust="spacing" textLength="875" x="27" y="1562.9048">Agenda(taskDescription: String, greenspaceName: String, expectedDate: LocalDate, status: String, teamProposal: TeamProposal)</text><ellipse cx="18" cy="1575.6021" fill="#84BE84" rx="3" ry="3" style="stroke:#038048;stroke-width:1.0;"/><text fill="#000000" font-family="sans-serif" font-size="14" lengthAdjust="spacing" textLength="191" x="27" y="1579.3931">getTaskDescription(): String</text><ellipse cx="18" cy="1592.0904" fill="#84BE84" rx="3" ry="3" style="stroke:#038048;stroke-width:1.0;"/><text fill="#000000" font-family="sans-serif" font-size="14" lengthAdjust="spacing" textLength="200" x="27" y="1595.8814">getGreenspaceName(): String</text><ellipse cx="18" cy="1608.5787" fill="#84BE84" rx="3" ry="3" style="stroke:#038048;stroke-width:1.0;"/><text fill="#000000" font-family="sans-serif" font-size="14" lengthAdjust="spacing" textLength="200" x="27" y="1612.3697">getExpectedDate(): LocalDate</text><ellipse cx="18" cy="1625.067" fill="#84BE84" rx="3" ry="3" style="stroke:#038048;stroke-width:1.0;"/><text fill="#000000" font-family="sans-serif" font-size="14" lengthAdjust="spacing" textLength="123" x="27" y="1628.858">getStatus(): String</text><ellipse cx="18" cy="1641.5552" fill="#84BE84" rx="3" ry="3" style="stroke:#038048;stroke-width:1.0;"/><text fill="#000000" font-family="sans-serif" font-size="14" lengthAdjust="spacing" textLength="199" x="27" y="1645.3463">setStatus(status: String): void</text><ellipse cx="18" cy="1658.0435" fill="#84BE84" rx="3" ry="3" style="stroke:#038048;stroke-width:1.0;"/><text fill="#000000" font-family="sans-serif" font-size="14" lengthAdjust="spacing" textLength="365" x="27" y="1661.8345">setTeamProposal(teamProposal: TeamProposal): void</text><ellipse cx="18" cy="1674.5318" fill="#84BE84" rx="3" ry="3" style="stroke:#038048;stroke-width:1.0;"/><text fill="#000000" font-family="sans-serif" font-size="14" lengthAdjust="spacing" textLength="279" x="27" y="1678.3228">setVehicles(vehicles: List&lt;Vehicle&gt;): void</text><ellipse cx="18" cy="1691.0201" fill="#84BE84" rx="3" ry="3" style="stroke:#038048;stroke-width:1.0;"/><text fill="#000000" font-family="sans-serif" font-size="14" lengthAdjust="spacing" textLength="206" x="27" y="1694.8111">getStartTime(): LocalDateTime</text><ellipse cx="18" cy="1707.5084" fill="#84BE84" rx="3" ry="3" style="stroke:#038048;stroke-width:1.0;"/><text fill="#000000" font-family="sans-serif" font-size="14" lengthAdjust="spacing" textLength="200" x="27" y="1711.2994">getEndTime(): LocalDateTime</text><ellipse cx="18" cy="1723.9966" fill="#84BE84" rx="3" ry="3" style="stroke:#038048;stroke-width:1.0;"/><text fill="#000000" font-family="sans-serif" font-size="14" lengthAdjust="spacing" textLength="236" x="27" y="1727.7877">getTeamProposal(): TeamProposal</text><ellipse cx="18" cy="1740.4849" fill="#84BE84" rx="3" ry="3" style="stroke:#038048;stroke-width:1.0;"/><text fill="#000000" font-family="sans-serif" font-size="14" lengthAdjust="spacing" textLength="329" x="27" y="1744.2759">setExpectedDate(expectedDate: LocalDate): void</text></g><!--class AgendaRepository--><g id="elem_AgendaRepository"><rect codeLine="54" fill="#F1F1F1" height="146.9297" id="AgendaRepository" rx="2.5" ry="2.5" style="stroke:#181818;stroke-width:0.5;" width="321" x="318" y="659.33"/><ellipse cx="411.25" cy="675.33" fill="#ADD1B2" rx="11" ry="11" style="stroke:#181818;stroke-width:1.0;"/><path d="M414.2231,680.9731 Q413.6421,681.2719 413.0029,681.4213 Q412.3638,681.5707 411.6582,681.5707 Q409.1514,681.5707 407.8315,679.9189 Q406.5117,678.267 406.5117,675.1459 Q406.5117,672.0165 407.8315,670.3647 Q409.1514,668.7128 411.6582,668.7128 Q412.3638,668.7128 413.0112,668.8622 Q413.6587,669.0116 414.2231,669.3105 L414.2231,672.0331 Q413.5923,671.4521 412.9988,671.1823 Q412.4053,670.9125 411.7744,670.9125 Q410.4297,670.9125 409.7449,671.9792 Q409.0601,673.0458 409.0601,675.1459 Q409.0601,677.2377 409.7449,678.3044 Q410.4297,679.371 411.7744,679.371 Q412.4053,679.371 412.9988,679.1012 Q413.5923,678.8315 414.2231,678.2504 Z " fill="#000000"/><text fill="#000000" font-family="sans-serif" font-size="14" lengthAdjust="spacing" textLength="126" x="431.75" y="680.621">AgendaRepository</text><line style="stroke:#181818;stroke-width:0.5;" x1="319" x2="638" y1="691.33" y2="691.33"/><rect fill="none" height="6" style="stroke:#C82930;stroke-width:1.0;" width="6" x="326" y="702.0741"/><text fill="#000000" font-family="sans-serif" font-size="14" lengthAdjust="spacing" textLength="204" x="338" y="708.8652">agendaEntries: List&lt;Agenda&gt;</text><line style="stroke:#181818;stroke-width:0.5;" x1="319" x2="638" y1="715.8183" y2="715.8183"/><ellipse cx="329" cy="729.5624" fill="#84BE84" rx="3" ry="3" style="stroke:#038048;stroke-width:1.0;"/><text fill="#000000" font-family="sans-serif" font-size="14" lengthAdjust="spacing" textLength="290" x="338" y="733.3534">add(agenda: Agenda): Optional&lt;Agenda&gt;</text><ellipse cx="329" cy="746.0507" fill="#84BE84" rx="3" ry="3" style="stroke:#038048;stroke-width:1.0;"/><text fill="#000000" font-family="sans-serif" font-size="14" lengthAdjust="spacing" textLength="156" x="338" y="749.8417">getAll(): List&lt;Agenda&gt;</text><ellipse cx="329" cy="762.539" fill="#84BE84" rx="3" ry="3" style="stroke:#038048;stroke-width:1.0;"/><text fill="#000000" font-family="sans-serif" font-size="14" lengthAdjust="spacing" textLength="295" x="338" y="766.33">updateAgendaEntry(agenda: Agenda): void</text><ellipse cx="329" cy="779.0273" fill="#84BE84" rx="3" ry="3" style="stroke:#038048;stroke-width:1.0;"/><text fill="#000000" font-family="sans-serif" font-size="14" lengthAdjust="spacing" textLength="173" x="338" y="782.8183">save(entry: Agenda): void</text><ellipse cx="329" cy="795.5155" fill="#84BE84" rx="3" ry="3" style="stroke:#038048;stroke-width:1.0;"/><text fill="#000000" font-family="sans-serif" font-size="14" lengthAdjust="spacing" textLength="216" x="338" y="799.3066">getAllAgendas(): List&lt;Agenda&gt;</text></g><!--class CollaboratorRepository--><g id="elem_CollaboratorRepository"><rect codeLine="63" fill="#F1F1F1" height="64.4883" id="CollaboratorRepository" rx="2.5" ry="2.5" style="stroke:#181818;stroke-width:0.5;" width="377" x="684" y="564.84"/><ellipse cx="788.25" cy="580.84" fill="#ADD1B2" rx="11" ry="11" style="stroke:#181818;stroke-width:1.0;"/><path d="M791.2231,586.4831 Q790.6421,586.7819 790.0029,586.9313 Q789.3638,587.0807 788.6582,587.0807 Q786.1514,587.0807 784.8315,585.4289 Q783.5117,583.777 783.5117,580.6559 Q783.5117,577.5265 784.8315,575.8747 Q786.1514,574.2228 788.6582,574.2228 Q789.3638,574.2228 790.0112,574.3722 Q790.6587,574.5216 791.2231,574.8205 L791.2231,577.5431 Q790.5923,576.9621 789.9988,576.6923 Q789.4053,576.4225 788.7744,576.4225 Q787.4297,576.4225 786.7449,577.4892 Q786.0601,578.5558 786.0601,580.6559 Q786.0601,582.7477 786.7449,583.8144 Q787.4297,584.881 788.7744,584.881 Q789.4053,584.881 789.9988,584.6112 Q790.5923,584.3415 791.2231,583.7604 Z " fill="#000000"/><text fill="#000000" font-family="sans-serif" font-size="14" lengthAdjust="spacing" textLength="160" x="808.75" y="586.131">CollaboratorRepository</text><line style="stroke:#181818;stroke-width:0.5;" x1="685" x2="1060" y1="596.84" y2="596.84"/><line style="stroke:#181818;stroke-width:0.5;" x1="685" x2="1060" y1="604.84" y2="604.84"/><ellipse cx="695" cy="618.5841" fill="#84BE84" rx="3" ry="3" style="stroke:#038048;stroke-width:1.0;"/><text fill="#000000" font-family="sans-serif" font-size="14" lengthAdjust="spacing" textLength="351" x="704" y="622.3752">findByEmail(email: String): Optional&lt;Collaborator&gt;</text></g><!--class Collaborator--><g id="elem_Collaborator"><rect codeLine="66" fill="#F1F1F1" height="493.1836" id="Collaborator" rx="2.5" ry="2.5" style="stroke:#181818;stroke-width:0.5;" width="1266" x="481.5" y="836.26"/><ellipse cx="1066.75" cy="852.26" fill="#ADD1B2" rx="11" ry="11" style="stroke:#181818;stroke-width:1.0;"/><path d="M1069.7231,857.9031 Q1069.1421,858.2019 1068.5029,858.3513 Q1067.8638,858.5007 1067.1582,858.5007 Q1064.6514,858.5007 1063.3315,856.8489 Q1062.0117,855.197 1062.0117,852.0759 Q1062.0117,848.9465 1063.3315,847.2947 Q1064.6514,845.6428 1067.1582,845.6428 Q1067.8638,845.6428 1068.5112,845.7922 Q1069.1587,845.9416 1069.7231,846.2405 L1069.7231,848.9631 Q1069.0923,848.3821 1068.4988,848.1123 Q1067.9053,847.8425 1067.2744,847.8425 Q1065.9297,847.8425 1065.2449,848.9092 Q1064.5601,849.9758 1064.5601,852.0759 Q1064.5601,854.1677 1065.2449,855.2344 Q1065.9297,856.301 1067.2744,856.301 Q1067.9053,856.301 1068.4988,856.0312 Q1069.0923,855.7615 1069.7231,855.1804 Z " fill="#000000"/><text fill="#000000" font-family="sans-serif" font-size="14" lengthAdjust="spacing" textLength="87" x="1087.25" y="857.551">Collaborator</text><line style="stroke:#181818;stroke-width:0.5;" x1="482.5" x2="1746.5" y1="868.26" y2="868.26"/><rect fill="none" height="6" style="stroke:#C82930;stroke-width:1.0;" width="6" x="489.5" y="879.0041"/><text fill="#000000" font-family="sans-serif" font-size="14" lengthAdjust="spacing" textLength="87" x="501.5" y="885.7952">name: String</text><rect fill="none" height="6" style="stroke:#C82930;stroke-width:1.0;" width="6" x="489.5" y="895.4924"/><text fill="#000000" font-family="sans-serif" font-size="14" lengthAdjust="spacing" textLength="162" x="501.5" y="902.2834">birthdayDate: LocalDate</text><rect fill="none" height="6" style="stroke:#C82930;stroke-width:1.0;" width="6" x="489.5" y="911.9807"/><text fill="#000000" font-family="sans-serif" font-size="14" lengthAdjust="spacing" textLength="175" x="501.5" y="918.7717">admissionDate: LocalDate</text><rect fill="none" height="6" style="stroke:#C82930;stroke-width:1.0;" width="6" x="489.5" y="928.469"/><text fill="#000000" font-family="sans-serif" font-size="14" lengthAdjust="spacing" textLength="103" x="501.5" y="935.26">address: String</text><rect fill="none" height="6" style="stroke:#C82930;stroke-width:1.0;" width="6" x="489.5" y="944.9573"/><text fill="#000000" font-family="sans-serif" font-size="14" lengthAdjust="spacing" textLength="148" x="501.5" y="951.7483">phoneNumber: String</text><rect fill="none" height="6" style="stroke:#C82930;stroke-width:1.0;" width="6" x="489.5" y="961.4455"/><text fill="#000000" font-family="sans-serif" font-size="14" lengthAdjust="spacing" textLength="86" x="501.5" y="968.2366">email: String</text><rect fill="none" height="6" style="stroke:#C82930;stroke-width:1.0;" width="6" x="489.5" y="977.9338"/><text fill="#000000" font-family="sans-serif" font-size="14" lengthAdjust="spacing" textLength="141" x="501.5" y="984.7248">taxpayerNumber: int</text><rect fill="none" height="6" style="stroke:#C82930;stroke-width:1.0;" width="6" x="489.5" y="994.4221"/><text fill="#000000" font-family="sans-serif" font-size="14" lengthAdjust="spacing" textLength="106" x="501.5" y="1001.2131">BINumber: long</text><rect fill="none" height="6" style="stroke:#C82930;stroke-width:1.0;" width="6" x="489.5" y="1010.9104"/><text fill="#000000" font-family="sans-serif" font-size="14" lengthAdjust="spacing" textLength="71" x="501.5" y="1017.7014">job: String</text><rect fill="none" height="6" style="stroke:#C82930;stroke-width:1.0;" width="6" x="489.5" y="1027.3987"/><text fill="#000000" font-family="sans-serif" font-size="14" lengthAdjust="spacing" textLength="115" x="501.5" y="1034.1897">skills: List&lt;Skill&gt;</text><line style="stroke:#181818;stroke-width:0.5;" x1="482.5" x2="1746.5" y1="1041.1428" y2="1041.1428"/><ellipse cx="492.5" cy="1054.887" fill="#84BE84" rx="3" ry="3" style="stroke:#038048;stroke-width:1.0;"/><text fill="#000000" font-family="sans-serif" font-size="14" lengthAdjust="spacing" textLength="1240" x="501.5" y="1058.678">Collaborator(name: String, birthdayDate: LocalDate, admissionDate: LocalDate, address: String, phoneNumber: String, email: String, taxpayerNumber: int, BINumber: long, job: String)</text><ellipse cx="492.5" cy="1071.3752" fill="#84BE84" rx="3" ry="3" style="stroke:#038048;stroke-width:1.0;"/><text fill="#000000" font-family="sans-serif" font-size="14" lengthAdjust="spacing" textLength="164" x="501.5" y="1075.1663">addSkill(skill: Skill): void</text><ellipse cx="492.5" cy="1087.8635" fill="#84BE84" rx="3" ry="3" style="stroke:#038048;stroke-width:1.0;"/><text fill="#000000" font-family="sans-serif" font-size="14" lengthAdjust="spacing" textLength="148" x="501.5" y="1091.6545">getSkills(): List&lt;Skill&gt;</text><ellipse cx="492.5" cy="1104.3518" fill="#84BE84" rx="3" ry="3" style="stroke:#038048;stroke-width:1.0;"/><text fill="#000000" font-family="sans-serif" font-size="14" lengthAdjust="spacing" textLength="180" x="501.5" y="1108.1428">equals(o: Object): boolean</text><ellipse cx="492.5" cy="1120.8401" fill="#84BE84" rx="3" ry="3" style="stroke:#038048;stroke-width:1.0;"/><text fill="#000000" font-family="sans-serif" font-size="14" lengthAdjust="spacing" textLength="142" x="501.5" y="1124.6311">clone(): Collaborator</text><ellipse cx="492.5" cy="1137.3284" fill="#84BE84" rx="3" ry="3" style="stroke:#038048;stroke-width:1.0;"/><text fill="#000000" font-family="sans-serif" font-size="14" lengthAdjust="spacing" textLength="120" x="501.5" y="1141.1194">getName(): String</text><ellipse cx="492.5" cy="1153.8166" fill="#84BE84" rx="3" ry="3" style="stroke:#038048;stroke-width:1.0;"/><text fill="#000000" font-family="sans-serif" font-size="14" lengthAdjust="spacing" textLength="193" x="501.5" y="1157.6077">getBirthdayDate(): LocalDate</text><ellipse cx="492.5" cy="1170.3049" fill="#84BE84" rx="3" ry="3" style="stroke:#038048;stroke-width:1.0;"/><text fill="#000000" font-family="sans-serif" font-size="14" lengthAdjust="spacing" textLength="209" x="501.5" y="1174.0959">getAdmissionDate(): LocalDate</text><ellipse cx="492.5" cy="1186.7932" fill="#84BE84" rx="3" ry="3" style="stroke:#038048;stroke-width:1.0;"/><text fill="#000000" font-family="sans-serif" font-size="14" lengthAdjust="spacing" textLength="137" x="501.5" y="1190.5842">getAddress(): String</text><ellipse cx="492.5" cy="1203.2815" fill="#84BE84" rx="3" ry="3" style="stroke:#038048;stroke-width:1.0;"/><text fill="#000000" font-family="sans-serif" font-size="14" lengthAdjust="spacing" textLength="179" x="501.5" y="1207.0725">getPhoneNumber(): String</text><ellipse cx="492.5" cy="1219.7698" fill="#84BE84" rx="3" ry="3" style="stroke:#038048;stroke-width:1.0;"/><text fill="#000000" font-family="sans-serif" font-size="14" lengthAdjust="spacing" textLength="118" x="501.5" y="1223.5608">getEmail(): String</text><ellipse cx="492.5" cy="1236.258" fill="#84BE84" rx="3" ry="3" style="stroke:#038048;stroke-width:1.0;"/><text fill="#000000" font-family="sans-serif" font-size="14" lengthAdjust="spacing" textLength="177" x="501.5" y="1240.0491">getTaxpayerNumber(): int</text><ellipse cx="492.5" cy="1252.7463" fill="#84BE84" rx="3" ry="3" style="stroke:#038048;stroke-width:1.0;"/><text fill="#000000" font-family="sans-serif" font-size="14" lengthAdjust="spacing" textLength="138" x="501.5" y="1256.5373">getBINumber(): long</text><ellipse cx="492.5" cy="1269.2346" fill="#84BE84" rx="3" ry="3" style="stroke:#038048;stroke-width:1.0;"/><text fill="#000000" font-family="sans-serif" font-size="14" lengthAdjust="spacing" textLength="103" x="501.5" y="1273.0256">getJob(): String</text><ellipse cx="492.5" cy="1285.7229" fill="#84BE84" rx="3" ry="3" style="stroke:#038048;stroke-width:1.0;"/><text fill="#000000" font-family="sans-serif" font-size="14" lengthAdjust="spacing" textLength="189" x="501.5" y="1289.5139">hasSkill(skill: Skill): boolean</text><ellipse cx="492.5" cy="1302.2112" fill="#84BE84" rx="3" ry="3" style="stroke:#038048;stroke-width:1.0;"/><text fill="#000000" font-family="sans-serif" font-size="14" lengthAdjust="spacing" textLength="189" x="501.5" y="1306.0022">removeSkill(skill: Skill): void</text><ellipse cx="492.5" cy="1318.6995" fill="#84BE84" rx="3" ry="3" style="stroke:#038048;stroke-width:1.0;"/><text fill="#000000" font-family="sans-serif" font-size="14" lengthAdjust="spacing" textLength="114" x="501.5" y="1322.4905">toString(): String</text></g><!--link DisplayTasksUI to AgendaController--><g id="link_DisplayTasksUI_AgendaController"><path codeLine="96" d="M991.5,104.84 C991.5,123.01 991.5,138.32 991.5,159.07 " fill="none" id="DisplayTasksUI-to-AgendaController" style="stroke:#181818;stroke-width:1.0;stroke-dasharray:7.0,7.0;"/><polygon fill="#181818" points="991.5,165.07,995.5,156.07,991.5,160.07,987.5,156.07,991.5,165.07" style="stroke:#181818;stroke-width:1.0;"/></g><!--link AgendaController to Repositories--><g id="link_AgendaController_Repositories"><path codeLine="97" d="M935.94,345.72 C923.01,366.49 912.9102,382.7359 901.5902,400.9259 " fill="none" id="AgendaController-to-Repositories" style="stroke:#181818;stroke-width:1.0;stroke-dasharray:7.0,7.0;"/><polygon fill="#181818" points="898.42,406.02,906.5713,400.4923,901.0618,401.7749,899.7792,396.2654,898.42,406.02" style="stroke:#181818;stroke-width:1.0;"/></g><!--link Repositories to AgendaRepository--><g id="link_Repositories_AgendaRepository"><path codeLine="98" d="M768.17,504.23 C734.84,521.74 698.17,542.71 666.5,564.84 C626.61,592.72 590.2005,623.9113 556.8405,654.8313 " fill="none" id="Repositories-to-AgendaRepository" style="stroke:#181818;stroke-width:1.0;stroke-dasharray:7.0,7.0;"/><polygon fill="#181818" points="552.44,658.91,561.7599,655.7257,556.1071,655.5111,556.3217,649.8583,552.44,658.91" style="stroke:#181818;stroke-width:1.0;"/></g><!--link Repositories to CollaboratorRepository--><g id="link_Repositories_CollaboratorRepository"><path codeLine="99" d="M869.88,504.28 C870.45,524.21 870.9178,540.7625 871.4278,558.5225 " fill="none" id="Repositories-to-CollaboratorRepository" style="stroke:#181818;stroke-width:1.0;stroke-dasharray:7.0,7.0;"/><polygon fill="#181818" points="871.6,564.52,875.34,555.4089,871.4565,559.5221,867.3433,555.6385,871.6,564.52" style="stroke:#181818;stroke-width:1.0;"/></g><!--link AgendaRepository to Agenda--><g id="link_AgendaRepository_Agenda"><path codeLine="100" d="M467.39,806.72 C466.21,816.63 465.2,826.68 464.5,836.26 C450.32,1031.12 450.4011,1249.5408 452.8811,1400.0108 " fill="none" id="AgendaRepository-to-Agenda" style="stroke:#181818;stroke-width:1.0;stroke-dasharray:7.0,7.0;"/><polygon fill="#181818" points="452.98,1406.01,456.8311,1396.9453,452.8976,1401.0107,448.8322,1397.0771,452.98,1406.01" style="stroke:#181818;stroke-width:1.0;"/></g><!--link CollaboratorRepository to Collaborator--><g id="link_CollaboratorRepository_Collaborator"><path codeLine="101" d="M888.38,629.82 C909.96,672.97 947.8959,748.7938 988.8159,830.6038 " fill="none" id="CollaboratorRepository-to-Collaborator" style="stroke:#181818;stroke-width:1.0;stroke-dasharray:7.0,7.0;"/><polygon fill="#181818" points="991.5,835.97,991.0513,826.1314,989.2633,831.4982,983.8965,829.7101,991.5,835.97" style="stroke:#181818;stroke-width:1.0;"/></g><!--link AgendaController to Collaborator--><g id="link_AgendaController_Collaborator"><path codeLine="102" d="M1052.36,345.68 C1062.86,364.95 1072.36,385.75 1078.5,406.37 C1119.69,544.67 1129.6664,699.8201 1128.8764,830.0301 " fill="none" id="AgendaController-to-Collaborator" style="stroke:#181818;stroke-width:1.0;stroke-dasharray:7.0,7.0;"/><polygon fill="#181818" points="1128.84,836.03,1132.8945,827.0544,1128.8703,831.0301,1124.8947,827.0059,1128.84,836.03" style="stroke:#181818;stroke-width:1.0;"/></g><!--link Collaborator to Agenda--><g id="link_Collaborator_Agenda"><path codeLine="103" d="M787.44,1329.76 C753.18,1355.52 723.6856,1377.6942 690.8756,1402.3642 " fill="none" id="Collaborator-to-Agenda" style="stroke:#181818;stroke-width:1.0;stroke-dasharray:7.0,7.0;"/><polygon fill="#181818" points="686.08,1405.97,695.6773,1403.7583,690.0763,1402.9651,690.8695,1397.3642,686.08,1405.97" style="stroke:#181818;stroke-width:1.0;"/><text fill="#000000" font-family="sans-serif" font-size="13" lengthAdjust="spacing" textLength="70" x="748.5" y="1373.0084">asks to list</text></g><!--SRC=[jLVBRjim4BphAtIKKJKVO1G6aZeeN0HfKBkzqzB6PaAHAacx4Oh-UqbQuajaZHxgYotkWpkpon4jNZ7j4KTTsJ7AcYDd7PJFY0WeX3Nrg7b51zZAWK39eP687eZl88wePJynFSn22QOWXnxAdf51FwHiZ4jM54L3a13b6ekUe667nAlujYb_5QNwl8kMgvC0VjyXJ9RbLdArysBquoTQBPRbcU4s4La9YRXS8mdBye4rYEYVTGcqdQqfJtaIDlsOylTKvkr11Q6FZ4hE204-5lfUyTCpWINZ65JqL-zfh2UEhARI3o1l2RcOxvLLXMWe3rZ83vVLrUZPS50rEi-XaWhT6aJ3SIynerFPTNdW07IhEWYFg0Et3c-zQYHSmrsN4b3tn9c2WHJPE-z9rVR5x8P8LD-fRwFwaFcz7C673LAuFzagHQAr8mVEQUKYTspDj7KYR1QTes3AEYLO1LtmSRek-AihDmj-a-t0gZmRgiYa3UZun23edGmTrZPeptZDUNzKyuBsZ2Er7CQaBV6qsXdDJCjeDNo9cA_Hc9cRqHeEpxHRTe96XpCSSKFqSJ4iVxyyheBpScN2nV-PS6_EmkqrwHv8DyIsa9J7lLUI6Qg0FkEoDSNDWeMrf7N9UldbLtyzks7SIBgeCisO7TcjLj8Txa8WUi73Izih7a6vYyHqcE82tZ9zpIYqEmrs-f6li4bzHMqxLwoCrbtq8YFK_oQ40fqLFEsM5KhxWfY_6Ypmj1XOONh6jBqRZ4PM4EcinUZdqAddcIsTT2uIUypbiKL3MYHGss4Xr3uvSyj1n2BI7nc5nrEt1nuhae_12jnRZmRWKm2cShJSRQOrmgpx2zj72TGjXP1fEBRwOMgfpq550yN9mAwpYEiOR9t2MOSGwnIwEW9M-vWMRgmDbCgWKrRzDJ_O1heThm0y_3Zfzo5Jax9_KQTGEUqP8u3eT3DHcqFyHdAvSy9uvp6N4SPRdyEiZs4pjSEJupMfpEOu90oxW6ljCStIfV2DCzY1CfRFR3_BTqGYsO2GGmuTEyErJabsIUrjeXGWkZtVtAnczyrYTdNLNi7z9BZGk1pUpMBcaRc1p4JOPIioEXLdIzSRU0Iwv7OebwNcGL6b_ci8MVm1]--></g></svg>