<?xml version="1.0" encoding="us-ascii" standalone="no"?><svg xmlns="http://www.w3.org/2000/svg" xmlns:xlink="http://www.w3.org/1999/xlink" contentStyleType="text/css" height="1019px" preserveAspectRatio="none" style="width:2092px;height:1019px;background:#FFFFFF;" version="1.1" viewBox="0 0 2092 1019" width="2092px" zoomAndPan="magnify"><defs/><g><!--class ToDoList--><g id="elem_ToDoList"><rect codeLine="8" fill="#F1F1F1" height="308.6953" id="ToDoList" rx="2.5" ry="2.5" style="stroke:#181818;stroke-width:0.5;" width="847" x="697" y="704"/><ellipse cx="1087.75" cy="720" fill="#ADD1B2" rx="11" ry="11" style="stroke:#181818;stroke-width:1.0;"/><path d="M1090.5156,715.875 Q1090.6719,715.6563 1090.8594,715.5469 Q1091.0469,715.4375 1091.2656,715.4375 Q1091.6406,715.4375 1091.875,715.7031 Q1092.1094,715.9531 1092.1094,716.5625 L1092.1094,718.0156 Q1092.1094,718.625 1091.875,718.8906 Q1091.6406,719.1563 1091.2656,719.1563 Q1090.9219,719.1563 1090.7188,718.9531 Q1090.5156,718.7656 1090.4063,718.25 Q1090.3594,717.8906 1090.1719,717.7031 Q1089.8438,717.3281 1089.2344,717.1094 Q1088.625,716.8906 1088,716.8906 Q1087.2344,716.8906 1086.5938,717.2188 Q1085.9688,717.5469 1085.4688,718.2969 Q1084.9844,719.0469 1084.9844,720.0781 L1084.9844,721.1719 Q1084.9844,722.4063 1085.875,723.2344 Q1086.7656,724.0469 1088.3594,724.0469 Q1089.2969,724.0469 1089.9531,723.7969 Q1090.3438,723.6406 1090.7656,723.2031 Q1091.0313,722.9375 1091.1719,722.8594 Q1091.3281,722.7813 1091.5313,722.7813 Q1091.8594,722.7813 1092.1094,723.0469 Q1092.375,723.2969 1092.375,723.6406 Q1092.375,723.9844 1092.0313,724.3906 Q1091.5313,724.9688 1090.7344,725.2969 Q1089.6563,725.75 1088.3594,725.75 Q1086.8438,725.75 1085.6406,725.125 Q1084.6563,724.625 1083.9688,723.5625 Q1083.2813,722.4844 1083.2813,721.2031 L1083.2813,720.0469 Q1083.2813,718.7188 1083.8906,717.5781 Q1084.5156,716.4219 1085.6094,715.8125 Q1086.7031,715.1875 1087.9375,715.1875 Q1088.6719,715.1875 1089.3125,715.3594 Q1089.9688,715.5156 1090.5156,715.875 Z " fill="#000000"/><text fill="#000000" font-family="sans-serif" font-size="14" lengthAdjust="spacing" textLength="57" x="1108.25" y="725.7969">ToDoList</text><line style="stroke:#181818;stroke-width:0.5;" x1="698" x2="1543" y1="736" y2="736"/><text fill="#000000" font-family="sans-serif" font-size="14" lengthAdjust="spacing" textLength="147" x="703" y="755.1074">-taskDescription: String</text><text fill="#000000" font-family="sans-serif" font-size="14" lengthAdjust="spacing" textLength="101" x="703" y="773.7285">-urgency: String</text><text fill="#000000" font-family="sans-serif" font-size="14" lengthAdjust="spacing" textLength="139" x="703" y="792.3496">-expectedDuration: int</text><text fill="#000000" font-family="sans-serif" font-size="14" lengthAdjust="spacing" textLength="163" x="703" y="810.9707">-greenSpaceName: String</text><text fill="#000000" font-family="sans-serif" font-size="14" lengthAdjust="spacing" textLength="88" x="703" y="829.5918">-status: String</text><text fill="#000000" font-family="sans-serif" font-size="14" lengthAdjust="spacing" textLength="112" x="703" y="848.2129">-userEmail: String</text><line style="stroke:#181818;stroke-width:0.5;" x1="698" x2="1543" y1="855.7266" y2="855.7266"/><text fill="#000000" font-family="sans-serif" font-size="14" lengthAdjust="spacing" textLength="835" x="703" y="874.834">+ToDoList(taskDescription: String, urgency: String, expectedDuration: int, greenSpaceName: String, status: String, userEmail: String)</text><text fill="#000000" font-family="sans-serif" font-size="14" lengthAdjust="spacing" textLength="185" x="703" y="893.4551">+getTaskDescription(): String</text><text fill="#000000" font-family="sans-serif" font-size="14" lengthAdjust="spacing" textLength="135" x="703" y="912.0762">+getUrgency(): String</text><text fill="#000000" font-family="sans-serif" font-size="14" lengthAdjust="spacing" textLength="173" x="703" y="930.6973">+getExpectedDuration(): int</text><text fill="#000000" font-family="sans-serif" font-size="14" lengthAdjust="spacing" textLength="199" x="703" y="949.3184">+getGreenSpaceName(): String</text><text fill="#000000" font-family="sans-serif" font-size="14" lengthAdjust="spacing" textLength="123" x="703" y="967.9395">+getStatus(): String</text><text fill="#000000" font-family="sans-serif" font-size="14" lengthAdjust="spacing" textLength="146" x="703" y="986.5605">+getUserEmail(): String</text><text fill="#000000" font-family="sans-serif" font-size="14" lengthAdjust="spacing" textLength="194" x="703" y="1005.1816">+setStatus(status: String): void</text></g><!--class ToDoListRepository--><g id="elem_ToDoListRepository"><rect codeLine="26" fill="#F1F1F1" height="159.7266" id="ToDoListRepository" rx="2.5" ry="2.5" style="stroke:#181818;stroke-width:0.5;" width="649" x="807" y="465"/><ellipse cx="1064.75" cy="481" fill="#ADD1B2" rx="11" ry="11" style="stroke:#181818;stroke-width:1.0;"/><path d="M1067.5156,476.875 Q1067.6719,476.6563 1067.8594,476.5469 Q1068.0469,476.4375 1068.2656,476.4375 Q1068.6406,476.4375 1068.875,476.7031 Q1069.1094,476.9531 1069.1094,477.5625 L1069.1094,479.0156 Q1069.1094,479.625 1068.875,479.8906 Q1068.6406,480.1563 1068.2656,480.1563 Q1067.9219,480.1563 1067.7188,479.9531 Q1067.5156,479.7656 1067.4063,479.25 Q1067.3594,478.8906 1067.1719,478.7031 Q1066.8438,478.3281 1066.2344,478.1094 Q1065.625,477.8906 1065,477.8906 Q1064.2344,477.8906 1063.5938,478.2188 Q1062.9688,478.5469 1062.4688,479.2969 Q1061.9844,480.0469 1061.9844,481.0781 L1061.9844,482.1719 Q1061.9844,483.4063 1062.875,484.2344 Q1063.7656,485.0469 1065.3594,485.0469 Q1066.2969,485.0469 1066.9531,484.7969 Q1067.3438,484.6406 1067.7656,484.2031 Q1068.0313,483.9375 1068.1719,483.8594 Q1068.3281,483.7813 1068.5313,483.7813 Q1068.8594,483.7813 1069.1094,484.0469 Q1069.375,484.2969 1069.375,484.6406 Q1069.375,484.9844 1069.0313,485.3906 Q1068.5313,485.9688 1067.7344,486.2969 Q1066.6563,486.75 1065.3594,486.75 Q1063.8438,486.75 1062.6406,486.125 Q1061.6563,485.625 1060.9688,484.5625 Q1060.2813,483.4844 1060.2813,482.2031 L1060.2813,481.0469 Q1060.2813,479.7188 1060.8906,478.5781 Q1061.5156,477.4219 1062.6094,476.8125 Q1063.7031,476.1875 1064.9375,476.1875 Q1065.6719,476.1875 1066.3125,476.3594 Q1066.9688,476.5156 1067.5156,476.875 Z " fill="#000000"/><text fill="#000000" font-family="sans-serif" font-size="14" lengthAdjust="spacing" textLength="125" x="1085.25" y="486.7969">ToDoListRepository</text><line style="stroke:#181818;stroke-width:0.5;" x1="808" x2="1455" y1="497" y2="497"/><text fill="#000000" font-family="sans-serif" font-size="14" lengthAdjust="spacing" textLength="167" x="813" y="516.1074">-toDoLists: List&lt;ToDoList&gt;</text><line style="stroke:#181818;stroke-width:0.5;" x1="808" x2="1455" y1="523.6211" y2="523.6211"/><text fill="#000000" font-family="sans-serif" font-size="14" lengthAdjust="spacing" textLength="293" x="813" y="542.7285">+add(toDoList: ToDoList): Optional&lt;ToDoList&gt;</text><text fill="#000000" font-family="sans-serif" font-size="14" lengthAdjust="spacing" textLength="220" x="813" y="561.3496">+getAllToDoLists(): List&lt;ToDoList&gt;</text><text fill="#000000" font-family="sans-serif" font-size="14" lengthAdjust="spacing" textLength="336" x="813" y="579.9707">+updateToDoListEntry(updatedEntry: ToDoList): void</text><text fill="#000000" font-family="sans-serif" font-size="14" lengthAdjust="spacing" textLength="435" x="813" y="598.5918">+findByTaskDescription(taskDescription: String): Optional&lt;ToDoList&gt;</text><text fill="#000000" font-family="sans-serif" font-size="14" lengthAdjust="spacing" textLength="637" x="813" y="617.2129">+findByUserEmailAndGreenSpaceName(userEmail: String, greenSpaceName: String): List&lt;ToDoList&gt;</text></g><!--class GreenSpace--><g id="elem_GreenSpace"><rect codeLine="36" fill="#F1F1F1" height="141.1055" id="GreenSpace" rx="2.5" ry="2.5" style="stroke:#181818;stroke-width:0.5;" width="333" x="1579" y="788"/><ellipse cx="1701.25" cy="804" fill="#ADD1B2" rx="11" ry="11" style="stroke:#181818;stroke-width:1.0;"/><path d="M1704.0156,799.875 Q1704.1719,799.6563 1704.3594,799.5469 Q1704.5469,799.4375 1704.7656,799.4375 Q1705.1406,799.4375 1705.375,799.7031 Q1705.6094,799.9531 1705.6094,800.5625 L1705.6094,802.0156 Q1705.6094,802.625 1705.375,802.8906 Q1705.1406,803.1563 1704.7656,803.1563 Q1704.4219,803.1563 1704.2188,802.9531 Q1704.0156,802.7656 1703.9063,802.25 Q1703.8594,801.8906 1703.6719,801.7031 Q1703.3438,801.3281 1702.7344,801.1094 Q1702.125,800.8906 1701.5,800.8906 Q1700.7344,800.8906 1700.0938,801.2188 Q1699.4688,801.5469 1698.9688,802.2969 Q1698.4844,803.0469 1698.4844,804.0781 L1698.4844,805.1719 Q1698.4844,806.4063 1699.375,807.2344 Q1700.2656,808.0469 1701.8594,808.0469 Q1702.7969,808.0469 1703.4531,807.7969 Q1703.8438,807.6406 1704.2656,807.2031 Q1704.5313,806.9375 1704.6719,806.8594 Q1704.8281,806.7813 1705.0313,806.7813 Q1705.3594,806.7813 1705.6094,807.0469 Q1705.875,807.2969 1705.875,807.6406 Q1705.875,807.9844 1705.5313,808.3906 Q1705.0313,808.9688 1704.2344,809.2969 Q1703.1563,809.75 1701.8594,809.75 Q1700.3438,809.75 1699.1406,809.125 Q1698.1563,808.625 1697.4688,807.5625 Q1696.7813,806.4844 1696.7813,805.2031 L1696.7813,804.0469 Q1696.7813,802.7188 1697.3906,801.5781 Q1698.0156,800.4219 1699.1094,799.8125 Q1700.2031,799.1875 1701.4375,799.1875 Q1702.1719,799.1875 1702.8125,799.3594 Q1703.4688,799.5156 1704.0156,799.875 Z " fill="#000000"/><text fill="#000000" font-family="sans-serif" font-size="14" lengthAdjust="spacing" textLength="80" x="1721.75" y="809.7969">GreenSpace</text><line style="stroke:#181818;stroke-width:0.5;" x1="1580" x2="1911" y1="820" y2="820"/><text fill="#000000" font-family="sans-serif" font-size="14" lengthAdjust="spacing" textLength="85" x="1585" y="839.1074">-name: String</text><text fill="#000000" font-family="sans-serif" font-size="14" lengthAdjust="spacing" textLength="140" x="1585" y="857.7285">-managerEmail: String</text><line style="stroke:#181818;stroke-width:0.5;" x1="1580" x2="1911" y1="865.2422" y2="865.2422"/><text fill="#000000" font-family="sans-serif" font-size="14" lengthAdjust="spacing" textLength="321" x="1585" y="884.3496">+GreenSpace(name: String, managerEmail: String)</text><text fill="#000000" font-family="sans-serif" font-size="14" lengthAdjust="spacing" textLength="119" x="1585" y="902.9707">+getName(): String</text><text fill="#000000" font-family="sans-serif" font-size="14" lengthAdjust="spacing" textLength="173" x="1585" y="921.5918">+getManagerEmail(): String</text></g><!--class GreenSpaceRepository--><g id="elem_GreenSpaceRepository"><rect codeLine="45" fill="#F1F1F1" height="122.4844" id="GreenSpaceRepository" rx="2.5" ry="2.5" style="stroke:#181818;stroke-width:0.5;" width="376" x="1491.5" y="484"/><ellipse cx="1601.25" cy="500" fill="#ADD1B2" rx="11" ry="11" style="stroke:#181818;stroke-width:1.0;"/><path d="M1604.0156,495.875 Q1604.1719,495.6563 1604.3594,495.5469 Q1604.5469,495.4375 1604.7656,495.4375 Q1605.1406,495.4375 1605.375,495.7031 Q1605.6094,495.9531 1605.6094,496.5625 L1605.6094,498.0156 Q1605.6094,498.625 1605.375,498.8906 Q1605.1406,499.1563 1604.7656,499.1563 Q1604.4219,499.1563 1604.2188,498.9531 Q1604.0156,498.7656 1603.9063,498.25 Q1603.8594,497.8906 1603.6719,497.7031 Q1603.3438,497.3281 1602.7344,497.1094 Q1602.125,496.8906 1601.5,496.8906 Q1600.7344,496.8906 1600.0938,497.2188 Q1599.4688,497.5469 1598.9688,498.2969 Q1598.4844,499.0469 1598.4844,500.0781 L1598.4844,501.1719 Q1598.4844,502.4063 1599.375,503.2344 Q1600.2656,504.0469 1601.8594,504.0469 Q1602.7969,504.0469 1603.4531,503.7969 Q1603.8438,503.6406 1604.2656,503.2031 Q1604.5313,502.9375 1604.6719,502.8594 Q1604.8281,502.7813 1605.0313,502.7813 Q1605.3594,502.7813 1605.6094,503.0469 Q1605.875,503.2969 1605.875,503.6406 Q1605.875,503.9844 1605.5313,504.3906 Q1605.0313,504.9688 1604.2344,505.2969 Q1603.1563,505.75 1601.8594,505.75 Q1600.3438,505.75 1599.1406,505.125 Q1598.1563,504.625 1597.4688,503.5625 Q1596.7813,502.4844 1596.7813,501.2031 L1596.7813,500.0469 Q1596.7813,498.7188 1597.3906,497.5781 Q1598.0156,496.4219 1599.1094,495.8125 Q1600.2031,495.1875 1601.4375,495.1875 Q1602.1719,495.1875 1602.8125,495.3594 Q1603.4688,495.5156 1604.0156,495.875 Z " fill="#000000"/><text fill="#000000" font-family="sans-serif" font-size="14" lengthAdjust="spacing" textLength="148" x="1621.75" y="505.7969">GreenSpaceRepository</text><line style="stroke:#181818;stroke-width:0.5;" x1="1492.5" x2="1866.5" y1="516" y2="516"/><text fill="#000000" font-family="sans-serif" font-size="14" lengthAdjust="spacing" textLength="215" x="1497.5" y="535.1074">-greenSpaces: List&lt;GreenSpace&gt;</text><line style="stroke:#181818;stroke-width:0.5;" x1="1492.5" x2="1866.5" y1="542.6211" y2="542.6211"/><text fill="#000000" font-family="sans-serif" font-size="14" lengthAdjust="spacing" textLength="364" x="1497.5" y="561.7285">+add(greenSpace: GreenSpace): Optional&lt;GreenSpace&gt;</text><text fill="#000000" font-family="sans-serif" font-size="14" lengthAdjust="spacing" textLength="266" x="1497.5" y="580.3496">+getAllGreenSpaces(): List&lt;GreenSpace&gt;</text><text fill="#000000" font-family="sans-serif" font-size="14" lengthAdjust="spacing" textLength="351" x="1497.5" y="598.9707">+findByManagerEmail(email: String): List&lt;GreenSpace&gt;</text></g><!--class Agenda--><g id="elem_Agenda"><rect codeLine="53" fill="#F1F1F1" height="215.5898" id="Agenda" rx="2.5" ry="2.5" style="stroke:#181818;stroke-width:0.5;" width="645" x="7" y="750.5"/><ellipse cx="300.75" cy="766.5" fill="#ADD1B2" rx="11" ry="11" style="stroke:#181818;stroke-width:1.0;"/><path d="M303.5156,762.375 Q303.6719,762.1563 303.8594,762.0469 Q304.0469,761.9375 304.2656,761.9375 Q304.6406,761.9375 304.875,762.2031 Q305.1094,762.4531 305.1094,763.0625 L305.1094,764.5156 Q305.1094,765.125 304.875,765.3906 Q304.6406,765.6563 304.2656,765.6563 Q303.9219,765.6563 303.7188,765.4531 Q303.5156,765.2656 303.4063,764.75 Q303.3594,764.3906 303.1719,764.2031 Q302.8438,763.8281 302.2344,763.6094 Q301.625,763.3906 301,763.3906 Q300.2344,763.3906 299.5938,763.7188 Q298.9688,764.0469 298.4688,764.7969 Q297.9844,765.5469 297.9844,766.5781 L297.9844,767.6719 Q297.9844,768.9063 298.875,769.7344 Q299.7656,770.5469 301.3594,770.5469 Q302.2969,770.5469 302.9531,770.2969 Q303.3438,770.1406 303.7656,769.7031 Q304.0313,769.4375 304.1719,769.3594 Q304.3281,769.2813 304.5313,769.2813 Q304.8594,769.2813 305.1094,769.5469 Q305.375,769.7969 305.375,770.1406 Q305.375,770.4844 305.0313,770.8906 Q304.5313,771.4688 303.7344,771.7969 Q302.6563,772.25 301.3594,772.25 Q299.8438,772.25 298.6406,771.625 Q297.6563,771.125 296.9688,770.0625 Q296.2813,768.9844 296.2813,767.7031 L296.2813,766.5469 Q296.2813,765.2188 296.8906,764.0781 Q297.5156,762.9219 298.6094,762.3125 Q299.7031,761.6875 300.9375,761.6875 Q301.6719,761.6875 302.3125,761.8594 Q302.9688,762.0156 303.5156,762.375 Z " fill="#000000"/><text fill="#000000" font-family="sans-serif" font-size="14" lengthAdjust="spacing" textLength="49" x="321.25" y="772.2969">Agenda</text><line style="stroke:#181818;stroke-width:0.5;" x1="8" x2="651" y1="782.5" y2="782.5"/><text fill="#000000" font-family="sans-serif" font-size="14" lengthAdjust="spacing" textLength="147" x="13" y="801.6074">-taskDescription: String</text><text fill="#000000" font-family="sans-serif" font-size="14" lengthAdjust="spacing" textLength="163" x="13" y="820.2285">-greenSpaceName: String</text><text fill="#000000" font-family="sans-serif" font-size="14" lengthAdjust="spacing" textLength="164" x="13" y="838.8496">-expectedDate: LocalDate</text><text fill="#000000" font-family="sans-serif" font-size="14" lengthAdjust="spacing" textLength="88" x="13" y="857.4707">-status: String</text><line style="stroke:#181818;stroke-width:0.5;" x1="8" x2="651" y1="864.9844" y2="864.9844"/><text fill="#000000" font-family="sans-serif" font-size="14" lengthAdjust="spacing" textLength="633" x="13" y="884.0918">+Agenda(taskDescription: String, greenSpaceName: String, expectedDate: LocalDate, status: String)</text><text fill="#000000" font-family="sans-serif" font-size="14" lengthAdjust="spacing" textLength="185" x="13" y="902.7129">+getTaskDescription(): String</text><text fill="#000000" font-family="sans-serif" font-size="14" lengthAdjust="spacing" textLength="199" x="13" y="921.334">+getGreenSpaceName(): String</text><text fill="#000000" font-family="sans-serif" font-size="14" lengthAdjust="spacing" textLength="198" x="13" y="939.9551">+getExpectedDate(): LocalDate</text><text fill="#000000" font-family="sans-serif" font-size="14" lengthAdjust="spacing" textLength="123" x="13" y="958.5762">+getStatus(): String</text></g><!--class AgendaRepository--><g id="elem_AgendaRepository"><rect codeLine="66" fill="#F1F1F1" height="122.4844" id="AgendaRepository" rx="2.5" ry="2.5" style="stroke:#181818;stroke-width:0.5;" width="409" x="363" y="484"/><ellipse cx="504.75" cy="500" fill="#ADD1B2" rx="11" ry="11" style="stroke:#181818;stroke-width:1.0;"/><path d="M507.5156,495.875 Q507.6719,495.6563 507.8594,495.5469 Q508.0469,495.4375 508.2656,495.4375 Q508.6406,495.4375 508.875,495.7031 Q509.1094,495.9531 509.1094,496.5625 L509.1094,498.0156 Q509.1094,498.625 508.875,498.8906 Q508.6406,499.1563 508.2656,499.1563 Q507.9219,499.1563 507.7188,498.9531 Q507.5156,498.7656 507.4063,498.25 Q507.3594,497.8906 507.1719,497.7031 Q506.8438,497.3281 506.2344,497.1094 Q505.625,496.8906 505,496.8906 Q504.2344,496.8906 503.5938,497.2188 Q502.9688,497.5469 502.4688,498.2969 Q501.9844,499.0469 501.9844,500.0781 L501.9844,501.1719 Q501.9844,502.4063 502.875,503.2344 Q503.7656,504.0469 505.3594,504.0469 Q506.2969,504.0469 506.9531,503.7969 Q507.3438,503.6406 507.7656,503.2031 Q508.0313,502.9375 508.1719,502.8594 Q508.3281,502.7813 508.5313,502.7813 Q508.8594,502.7813 509.1094,503.0469 Q509.375,503.2969 509.375,503.6406 Q509.375,503.9844 509.0313,504.3906 Q508.5313,504.9688 507.7344,505.2969 Q506.6563,505.75 505.3594,505.75 Q503.8438,505.75 502.6406,505.125 Q501.6563,504.625 500.9688,503.5625 Q500.2813,502.4844 500.2813,501.2031 L500.2813,500.0469 Q500.2813,498.7188 500.8906,497.5781 Q501.5156,496.4219 502.6094,495.8125 Q503.7031,495.1875 504.9375,495.1875 Q505.6719,495.1875 506.3125,495.3594 Q506.9688,495.5156 507.5156,495.875 Z " fill="#000000"/><text fill="#000000" font-family="sans-serif" font-size="14" lengthAdjust="spacing" textLength="117" x="525.25" y="505.7969">AgendaRepository</text><line style="stroke:#181818;stroke-width:0.5;" x1="364" x2="771" y1="516" y2="516"/><text fill="#000000" font-family="sans-serif" font-size="14" lengthAdjust="spacing" textLength="155" x="369" y="535.1074">-agendas: List&lt;Agenda&gt;</text><line style="stroke:#181818;stroke-width:0.5;" x1="364" x2="771" y1="542.6211" y2="542.6211"/><text fill="#000000" font-family="sans-serif" font-size="14" lengthAdjust="spacing" textLength="273" x="369" y="561.7285">+add(agenda: Agenda): Optional&lt;Agenda&gt;</text><text fill="#000000" font-family="sans-serif" font-size="14" lengthAdjust="spacing" textLength="204" x="369" y="580.3496">+getAllAgendas(): List&lt;Agenda&gt;</text><text fill="#000000" font-family="sans-serif" font-size="14" lengthAdjust="spacing" textLength="397" x="369" y="598.9707">+findByGreenSpace(greenSpace: GreenSpace): List&lt;Agenda&gt;</text></g><!--class AgendaController--><g id="elem_AgendaController"><rect codeLine="74" fill="#F1F1F1" height="178.3477" id="AgendaController" rx="2.5" ry="2.5" style="stroke:#181818;stroke-width:0.5;" width="1039" x="1010" y="7"/><ellipse cx="1469.75" cy="23" fill="#ADD1B2" rx="11" ry="11" style="stroke:#181818;stroke-width:1.0;"/><path d="M1472.5156,18.875 Q1472.6719,18.6563 1472.8594,18.5469 Q1473.0469,18.4375 1473.2656,18.4375 Q1473.6406,18.4375 1473.875,18.7031 Q1474.1094,18.9531 1474.1094,19.5625 L1474.1094,21.0156 Q1474.1094,21.625 1473.875,21.8906 Q1473.6406,22.1563 1473.2656,22.1563 Q1472.9219,22.1563 1472.7188,21.9531 Q1472.5156,21.7656 1472.4063,21.25 Q1472.3594,20.8906 1472.1719,20.7031 Q1471.8438,20.3281 1471.2344,20.1094 Q1470.625,19.8906 1470,19.8906 Q1469.2344,19.8906 1468.5938,20.2188 Q1467.9688,20.5469 1467.4688,21.2969 Q1466.9844,22.0469 1466.9844,23.0781 L1466.9844,24.1719 Q1466.9844,25.4063 1467.875,26.2344 Q1468.7656,27.0469 1470.3594,27.0469 Q1471.2969,27.0469 1471.9531,26.7969 Q1472.3438,26.6406 1472.7656,26.2031 Q1473.0313,25.9375 1473.1719,25.8594 Q1473.3281,25.7813 1473.5313,25.7813 Q1473.8594,25.7813 1474.1094,26.0469 Q1474.375,26.2969 1474.375,26.6406 Q1474.375,26.9844 1474.0313,27.3906 Q1473.5313,27.9688 1472.7344,28.2969 Q1471.6563,28.75 1470.3594,28.75 Q1468.8438,28.75 1467.6406,28.125 Q1466.6563,27.625 1465.9688,26.5625 Q1465.2813,25.4844 1465.2813,24.2031 L1465.2813,23.0469 Q1465.2813,21.7188 1465.8906,20.5781 Q1466.5156,19.4219 1467.6094,18.8125 Q1468.7031,18.1875 1469.9375,18.1875 Q1470.6719,18.1875 1471.3125,18.3594 Q1471.9688,18.5156 1472.5156,18.875 Z " fill="#000000"/><text fill="#000000" font-family="sans-serif" font-size="14" lengthAdjust="spacing" textLength="111" x="1490.25" y="28.7969">AgendaController</text><line style="stroke:#181818;stroke-width:0.5;" x1="1011" x2="2048" y1="39" y2="39"/><text fill="#000000" font-family="sans-serif" font-size="14" lengthAdjust="spacing" textLength="246" x="1016" y="58.1074">-agendaRepository: AgendaRepository</text><text fill="#000000" font-family="sans-serif" font-size="14" lengthAdjust="spacing" textLength="258" x="1016" y="76.7285">-toDoListRepository: ToDoListRepository</text><text fill="#000000" font-family="sans-serif" font-size="14" lengthAdjust="spacing" textLength="306" x="1016" y="95.3496">-greenSpaceRepository: GreenSpaceRepository</text><line style="stroke:#181818;stroke-width:0.5;" x1="1011" x2="2048" y1="102.8633" y2="102.8633"/><text fill="#000000" font-family="sans-serif" font-size="14" lengthAdjust="spacing" textLength="129" x="1016" y="121.9707">+AgendaController()</text><text fill="#000000" font-family="sans-serif" font-size="14" lengthAdjust="spacing" textLength="1027" x="1016" y="140.5918">+createAgendaEntry(taskDescription: String, greenSpaceName: String, expectedDate: LocalDate, status: String, teamProposal: TeamProposal): Optional&lt;Agenda&gt;</text><text fill="#000000" font-family="sans-serif" font-size="14" lengthAdjust="spacing" textLength="358" x="1016" y="159.2129">+getGreenSpaces(userEmail: String): List&lt;GreenSpace&gt;</text><text fill="#000000" font-family="sans-serif" font-size="14" lengthAdjust="spacing" textLength="515" x="1016" y="177.834">+getToDoListEntries(userEmail: String, greenSpaceName: String): List&lt;ToDoList&gt;</text></g><!--class AgendaUI--><g id="elem_AgendaUI"><rect codeLine="85" fill="#F1F1F1" height="159.7266" id="AgendaUI" rx="2.5" ry="2.5" style="stroke:#181818;stroke-width:0.5;" width="406" x="539.5" y="16"/><ellipse cx="707.75" cy="32" fill="#ADD1B2" rx="11" ry="11" style="stroke:#181818;stroke-width:1.0;"/><path d="M710.5156,27.875 Q710.6719,27.6563 710.8594,27.5469 Q711.0469,27.4375 711.2656,27.4375 Q711.6406,27.4375 711.875,27.7031 Q712.1094,27.9531 712.1094,28.5625 L712.1094,30.0156 Q712.1094,30.625 711.875,30.8906 Q711.6406,31.1563 711.2656,31.1563 Q710.9219,31.1563 710.7188,30.9531 Q710.5156,30.7656 710.4063,30.25 Q710.3594,29.8906 710.1719,29.7031 Q709.8438,29.3281 709.2344,29.1094 Q708.625,28.8906 708,28.8906 Q707.2344,28.8906 706.5938,29.2188 Q705.9688,29.5469 705.4688,30.2969 Q704.9844,31.0469 704.9844,32.0781 L704.9844,33.1719 Q704.9844,34.4063 705.875,35.2344 Q706.7656,36.0469 708.3594,36.0469 Q709.2969,36.0469 709.9531,35.7969 Q710.3438,35.6406 710.7656,35.2031 Q711.0313,34.9375 711.1719,34.8594 Q711.3281,34.7813 711.5313,34.7813 Q711.8594,34.7813 712.1094,35.0469 Q712.375,35.2969 712.375,35.6406 Q712.375,35.9844 712.0313,36.3906 Q711.5313,36.9688 710.7344,37.2969 Q709.6563,37.75 708.3594,37.75 Q706.8438,37.75 705.6406,37.125 Q704.6563,36.625 703.9688,35.5625 Q703.2813,34.4844 703.2813,33.2031 L703.2813,32.0469 Q703.2813,30.7188 703.8906,29.5781 Q704.5156,28.4219 705.6094,27.8125 Q706.7031,27.1875 707.9375,27.1875 Q708.6719,27.1875 709.3125,27.3594 Q709.9688,27.5156 710.5156,27.875 Z " fill="#000000"/><text fill="#000000" font-family="sans-serif" font-size="14" lengthAdjust="spacing" textLength="61" x="728.25" y="37.7969">AgendaUI</text><line style="stroke:#181818;stroke-width:0.5;" x1="540.5" x2="944.5" y1="48" y2="48"/><text fill="#000000" font-family="sans-serif" font-size="14" lengthAdjust="spacing" textLength="112" x="545.5" y="67.1074">-userEmail: String</text><text fill="#000000" font-family="sans-serif" font-size="14" lengthAdjust="spacing" textLength="234" x="545.5" y="85.7285">-agendaController: AgendaController</text><text fill="#000000" font-family="sans-serif" font-size="14" lengthAdjust="spacing" textLength="192" x="545.5" y="104.3496">-teamProposal: TeamProposal</text><line style="stroke:#181818;stroke-width:0.5;" x1="540.5" x2="944.5" y1="111.8633" y2="111.8633"/><text fill="#000000" font-family="sans-serif" font-size="14" lengthAdjust="spacing" textLength="186" x="545.5" y="130.9707">+AgendaUI(userEmail: String)</text><text fill="#000000" font-family="sans-serif" font-size="14" lengthAdjust="spacing" textLength="73" x="545.5" y="149.5918">+run(): void</text><text fill="#000000" font-family="sans-serif" font-size="14" lengthAdjust="spacing" textLength="394" x="545.5" y="168.2129">+requestSelection(scanner: Scanner, size: int, type: String): int</text></g><!--class ApplicationSession--><g id="elem_ApplicationSession"><rect codeLine="95" fill="#F1F1F1" height="85.2422" id="ApplicationSession" rx="2.5" ry="2.5" style="stroke:#181818;stroke-width:0.5;" width="267" x="1818" y="282.5"/><ellipse cx="1887.75" cy="298.5" fill="#ADD1B2" rx="11" ry="11" style="stroke:#181818;stroke-width:1.0;"/><path d="M1890.5156,294.375 Q1890.6719,294.1563 1890.8594,294.0469 Q1891.0469,293.9375 1891.2656,293.9375 Q1891.6406,293.9375 1891.875,294.2031 Q1892.1094,294.4531 1892.1094,295.0625 L1892.1094,296.5156 Q1892.1094,297.125 1891.875,297.3906 Q1891.6406,297.6563 1891.2656,297.6563 Q1890.9219,297.6563 1890.7188,297.4531 Q1890.5156,297.2656 1890.4063,296.75 Q1890.3594,296.3906 1890.1719,296.2031 Q1889.8438,295.8281 1889.2344,295.6094 Q1888.625,295.3906 1888,295.3906 Q1887.2344,295.3906 1886.5938,295.7188 Q1885.9688,296.0469 1885.4688,296.7969 Q1884.9844,297.5469 1884.9844,298.5781 L1884.9844,299.6719 Q1884.9844,300.9063 1885.875,301.7344 Q1886.7656,302.5469 1888.3594,302.5469 Q1889.2969,302.5469 1889.9531,302.2969 Q1890.3438,302.1406 1890.7656,301.7031 Q1891.0313,301.4375 1891.1719,301.3594 Q1891.3281,301.2813 1891.5313,301.2813 Q1891.8594,301.2813 1892.1094,301.5469 Q1892.375,301.7969 1892.375,302.1406 Q1892.375,302.4844 1892.0313,302.8906 Q1891.5313,303.4688 1890.7344,303.7969 Q1889.6563,304.25 1888.3594,304.25 Q1886.8438,304.25 1885.6406,303.625 Q1884.6563,303.125 1883.9688,302.0625 Q1883.2813,300.9844 1883.2813,299.7031 L1883.2813,298.5469 Q1883.2813,297.2188 1883.8906,296.0781 Q1884.5156,294.9219 1885.6094,294.3125 Q1886.7031,293.6875 1887.9375,293.6875 Q1888.6719,293.6875 1889.3125,293.8594 Q1889.9688,294.0156 1890.5156,294.375 Z " fill="#000000"/><text fill="#000000" font-family="sans-serif" font-size="14" lengthAdjust="spacing" textLength="119" x="1908.25" y="304.2969">ApplicationSession</text><line style="stroke:#181818;stroke-width:0.5;" x1="1819" x2="2084" y1="314.5" y2="314.5"/><line style="stroke:#181818;stroke-width:0.5;" x1="1819" x2="2084" y1="322.5" y2="322.5"/><text fill="#000000" font-family="sans-serif" font-size="14" lengthAdjust="spacing" textLength="255" x="1824" y="341.6074">+static getInstance(): ApplicationSession</text><text fill="#000000" font-family="sans-serif" font-size="14" lengthAdjust="spacing" textLength="223" x="1824" y="360.2285">+getCurrentSession(): UserSession</text></g><!--class UserSession--><g id="elem_UserSession"><rect codeLine="100" fill="#F1F1F1" height="66.6211" id="UserSession" rx="2.5" ry="2.5" style="stroke:#181818;stroke-width:0.5;" width="158" x="1902.5" y="511.5"/><ellipse cx="1938.65" cy="527.5" fill="#ADD1B2" rx="11" ry="11" style="stroke:#181818;stroke-width:1.0;"/><path d="M1941.4156,523.375 Q1941.5719,523.1563 1941.7594,523.0469 Q1941.9469,522.9375 1942.1656,522.9375 Q1942.5406,522.9375 1942.775,523.2031 Q1943.0094,523.4531 1943.0094,524.0625 L1943.0094,525.5156 Q1943.0094,526.125 1942.775,526.3906 Q1942.5406,526.6563 1942.1656,526.6563 Q1941.8219,526.6563 1941.6188,526.4531 Q1941.4156,526.2656 1941.3063,525.75 Q1941.2594,525.3906 1941.0719,525.2031 Q1940.7438,524.8281 1940.1344,524.6094 Q1939.525,524.3906 1938.9,524.3906 Q1938.1344,524.3906 1937.4938,524.7188 Q1936.8688,525.0469 1936.3688,525.7969 Q1935.8844,526.5469 1935.8844,527.5781 L1935.8844,528.6719 Q1935.8844,529.9063 1936.775,530.7344 Q1937.6656,531.5469 1939.2594,531.5469 Q1940.1969,531.5469 1940.8531,531.2969 Q1941.2438,531.1406 1941.6656,530.7031 Q1941.9313,530.4375 1942.0719,530.3594 Q1942.2281,530.2813 1942.4313,530.2813 Q1942.7594,530.2813 1943.0094,530.5469 Q1943.275,530.7969 1943.275,531.1406 Q1943.275,531.4844 1942.9313,531.8906 Q1942.4313,532.4688 1941.6344,532.7969 Q1940.5563,533.25 1939.2594,533.25 Q1937.7438,533.25 1936.5406,532.625 Q1935.5563,532.125 1934.8688,531.0625 Q1934.1813,529.9844 1934.1813,528.7031 L1934.1813,527.5469 Q1934.1813,526.2188 1934.7906,525.0781 Q1935.4156,523.9219 1936.5094,523.3125 Q1937.6031,522.6875 1938.8375,522.6875 Q1939.5719,522.6875 1940.2125,522.8594 Q1940.8688,523.0156 1941.4156,523.375 Z " fill="#000000"/><text fill="#000000" font-family="sans-serif" font-size="14" lengthAdjust="spacing" textLength="79" x="1957.35" y="533.2969">UserSession</text><line style="stroke:#181818;stroke-width:0.5;" x1="1903.5" x2="2059.5" y1="543.5" y2="543.5"/><line style="stroke:#181818;stroke-width:0.5;" x1="1903.5" x2="2059.5" y1="551.5" y2="551.5"/><text fill="#000000" font-family="sans-serif" font-size="14" lengthAdjust="spacing" textLength="146" x="1908.5" y="570.6074">+getUserEmail(): String</text></g><!--class Repositories--><g id="elem_Repositories"><rect codeLine="104" fill="#F1F1F1" height="122.4844" id="Repositories" rx="2.5" ry="2.5" style="stroke:#181818;stroke-width:0.5;" width="354" x="1043.5" y="264"/><ellipse cx="1176.75" cy="280" fill="#ADD1B2" rx="11" ry="11" style="stroke:#181818;stroke-width:1.0;"/><path d="M1179.5156,275.875 Q1179.6719,275.6563 1179.8594,275.5469 Q1180.0469,275.4375 1180.2656,275.4375 Q1180.6406,275.4375 1180.875,275.7031 Q1181.1094,275.9531 1181.1094,276.5625 L1181.1094,278.0156 Q1181.1094,278.625 1180.875,278.8906 Q1180.6406,279.1563 1180.2656,279.1563 Q1179.9219,279.1563 1179.7188,278.9531 Q1179.5156,278.7656 1179.4063,278.25 Q1179.3594,277.8906 1179.1719,277.7031 Q1178.8438,277.3281 1178.2344,277.1094 Q1177.625,276.8906 1177,276.8906 Q1176.2344,276.8906 1175.5938,277.2188 Q1174.9688,277.5469 1174.4688,278.2969 Q1173.9844,279.0469 1173.9844,280.0781 L1173.9844,281.1719 Q1173.9844,282.4063 1174.875,283.2344 Q1175.7656,284.0469 1177.3594,284.0469 Q1178.2969,284.0469 1178.9531,283.7969 Q1179.3438,283.6406 1179.7656,283.2031 Q1180.0313,282.9375 1180.1719,282.8594 Q1180.3281,282.7813 1180.5313,282.7813 Q1180.8594,282.7813 1181.1094,283.0469 Q1181.375,283.2969 1181.375,283.6406 Q1181.375,283.9844 1181.0313,284.3906 Q1180.5313,284.9688 1179.7344,285.2969 Q1178.6563,285.75 1177.3594,285.75 Q1175.8438,285.75 1174.6406,285.125 Q1173.6563,284.625 1172.9688,283.5625 Q1172.2813,282.4844 1172.2813,281.2031 L1172.2813,280.0469 Q1172.2813,278.7188 1172.8906,277.5781 Q1173.5156,276.4219 1174.6094,275.8125 Q1175.7031,275.1875 1176.9375,275.1875 Q1177.6719,275.1875 1178.3125,275.3594 Q1178.9688,275.5156 1179.5156,275.875 Z " fill="#000000"/><text fill="#000000" font-family="sans-serif" font-size="14" lengthAdjust="spacing" textLength="79" x="1197.25" y="285.7969">Repositories</text><line style="stroke:#181818;stroke-width:0.5;" x1="1044.5" x2="1396.5" y1="296" y2="296"/><line style="stroke:#181818;stroke-width:0.5;" x1="1044.5" x2="1396.5" y1="304" y2="304"/><text fill="#000000" font-family="sans-serif" font-size="14" lengthAdjust="spacing" textLength="215" x="1049.5" y="323.1074">+static getInstance(): Repositories</text><text fill="#000000" font-family="sans-serif" font-size="14" lengthAdjust="spacing" textLength="296" x="1049.5" y="341.7285">+getToDoListRepository(): ToDoListRepository</text><text fill="#000000" font-family="sans-serif" font-size="14" lengthAdjust="spacing" textLength="342" x="1049.5" y="360.3496">+getGreenSpaceRepository(): GreenSpaceRepository</text><text fill="#000000" font-family="sans-serif" font-size="14" lengthAdjust="spacing" textLength="280" x="1049.5" y="378.9707">+getAgendaRepository(): AgendaRepository</text></g><!--link ApplicationSession to UserSession--><g id="link_ApplicationSession_UserSession"><path codeLine="111" d="M1957.21,367.52 C1962.96,409.27 1970.8819,466.866 1976.1619,505.226 " fill="none" id="ApplicationSession-to-UserSession" style="stroke:#181818;stroke-width:1.0;"/><polygon fill="#181818" points="1976.98,511.17,1979.7154,501.7086,1976.2982,506.2167,1971.7901,502.7995,1976.98,511.17" style="stroke:#181818;stroke-width:1.0;"/><text fill="#000000" font-family="sans-serif" font-size="13" lengthAdjust="spacing" textLength="72" x="1967.5" y="431.0283">userSession</text></g><!--link AgendaController to ApplicationSession--><g id="link_AgendaController_ApplicationSession"><path codeLine="112" d="M1693.26,185.09 C1755.58,218.61 1818.4156,252.4184 1869.0356,279.6384 " fill="none" id="AgendaController-to-ApplicationSession" style="stroke:#181818;stroke-width:1.0;stroke-dasharray:7.0,7.0;"/><polygon fill="#181818" points="1874.32,282.48,1868.2878,274.6946,1869.9163,280.112,1864.4989,281.7405,1874.32,282.48" style="stroke:#181818;stroke-width:1.0;"/><text fill="#000000" font-family="sans-serif" font-size="13" lengthAdjust="spacing" textLength="28" x="1778.5" y="230.0283">uses</text></g><!--link AgendaController to UserSession--><g id="link_AgendaController_UserSession"><path codeLine="113" d="M1592.93,185.25 C1638.56,245.48 1703.61,325.07 1770.5,386 C1816.34,427.76 1835.96,427.71 1885.5,465 C1904.99,479.67 1921.3802,492.9274 1938.7402,507.4674 " fill="none" id="AgendaController-to-UserSession" style="stroke:#181818;stroke-width:1.0;stroke-dasharray:7.0,7.0;"/><polygon fill="#181818" points="1943.34,511.32,1939.0087,502.4747,1939.5069,508.1095,1933.872,508.6077,1943.34,511.32" style="stroke:#181818;stroke-width:1.0;"/><text fill="#000000" font-family="sans-serif" font-size="13" lengthAdjust="spacing" textLength="28" x="1771.5" y="330.5283">uses</text></g><!--link AgendaController to Repositories--><g id="link_AgendaController_Repositories"><path codeLine="114" d="M1409.59,185.09 C1373.8,211.38 1340.226,236.0486 1307.436,260.1286 " fill="none" id="AgendaController-to-Repositories" style="stroke:#181818;stroke-width:1.0;stroke-dasharray:7.0,7.0;"/><polygon fill="#181818" points="1302.6,263.68,1312.2217,261.5769,1306.63,260.7205,1307.4864,255.1288,1302.6,263.68" style="stroke:#181818;stroke-width:1.0;"/><text fill="#000000" font-family="sans-serif" font-size="13" lengthAdjust="spacing" textLength="49" x="1367.5" y="230.0283">instance</text></g><!--link AgendaUI to AgendaController--><g id="link_AgendaUI_AgendaController"><path codeLine="115" d="M945.68,96 C966.29,96 981.82,96 1003.94,96 " fill="none" id="AgendaUI-to-AgendaController" style="stroke:#181818;stroke-width:1.0;stroke-dasharray:7.0,7.0;"/><polygon fill="#181818" points="1009.94,96,1000.94,92,1004.94,96,1000.94,100,1009.94,96" style="stroke:#181818;stroke-width:1.0;"/><text fill="#000000" font-family="sans-serif" font-size="13" lengthAdjust="spacing" textLength="28" x="963.75" y="89.0283">uses</text></g><!--link AgendaController to Agenda--><g id="link_AgendaController_Agenda"><path codeLine="116" d="M1061.64,185.03 C770.84,250.11 435.7,347.59 345.5,465 C283.8,545.31 287.292,658.6053 301.942,744.5653 " fill="none" id="AgendaController-to-Agenda" style="stroke:#181818;stroke-width:1.0;"/><polygon fill="#181818" points="302.95,750.48,305.3811,740.9359,302.11,745.5511,297.4948,742.2799,302.95,750.48" style="stroke:#181818;stroke-width:1.0;"/><text fill="#000000" font-family="sans-serif" font-size="13" lengthAdjust="spacing" textLength="20" x="393.5" y="431.0283">0..*</text></g><!--link ToDoListRepository to ToDoList--><g id="link_ToDoListRepository_ToDoList"><path codeLine="118" d="M1128.71,625.01 C1127.86,649.16 1127.1027,670.6038 1126.1327,697.9438 " fill="none" id="ToDoListRepository-to-ToDoList" style="stroke:#181818;stroke-width:1.0;"/><polygon fill="#181818" points="1125.92,703.94,1130.2366,695.0875,1126.0973,698.9431,1122.2416,694.8038,1125.92,703.94" style="stroke:#181818;stroke-width:1.0;"/><text fill="#000000" font-family="sans-serif" font-size="13" lengthAdjust="spacing" textLength="20" x="1129.5" y="670.0283">0..*</text></g><!--link GreenSpaceRepository to GreenSpace--><g id="link_GreenSpaceRepository_GreenSpace"><path codeLine="119" d="M1692.23,606.06 C1703.24,658.04 1717.9264,727.3603 1729.4964,781.9703 " fill="none" id="GreenSpaceRepository-to-GreenSpace" style="stroke:#181818;stroke-width:1.0;"/><polygon fill="#181818" points="1730.74,787.84,1732.7878,778.2064,1729.7037,782.9486,1724.9615,779.8645,1730.74,787.84" style="stroke:#181818;stroke-width:1.0;"/><text fill="#000000" font-family="sans-serif" font-size="13" lengthAdjust="spacing" textLength="20" x="1707.5" y="670.0283">0..*</text></g><!--link AgendaRepository to Agenda--><g id="link_AgendaRepository_Agenda"><path codeLine="120" d="M521.61,606.06 C490.41,646.9 451.9025,697.3022 415.0325,745.5622 " fill="none" id="AgendaRepository-to-Agenda" style="stroke:#181818;stroke-width:1.0;"/><polygon fill="#181818" points="411.39,750.33,420.0323,745.6067,414.4254,746.3568,413.6753,740.7499,411.39,750.33" style="stroke:#181818;stroke-width:1.0;"/><text fill="#000000" font-family="sans-serif" font-size="13" lengthAdjust="spacing" textLength="20" x="485.5" y="670.0283">0..*</text></g><!--link Repositories to ToDoListRepository--><g id="link_Repositories_ToDoListRepository"><path codeLine="121" d="M1195.94,386.15 C1186.01,410.47 1176.6781,433.3352 1166.0781,459.2952 " fill="none" id="Repositories-to-ToDoListRepository" style="stroke:#181818;stroke-width:1.0;"/><polygon fill="#181818" points="1163.81,464.85,1170.9154,458.0299,1165.7001,460.221,1163.509,455.0057,1163.81,464.85" style="stroke:#181818;stroke-width:1.0;"/><text fill="#000000" font-family="sans-serif" font-size="13" lengthAdjust="spacing" textLength="7" x="1182.5" y="431.0283">1</text></g><!--link Repositories to GreenSpaceRepository--><g id="link_Repositories_GreenSpaceRepository"><path codeLine="122" d="M1346.83,386 C1411.06,416.5 1483.4702,450.896 1547.6902,481.396 " fill="none" id="Repositories-to-GreenSpaceRepository" style="stroke:#181818;stroke-width:1.0;"/><polygon fill="#181818" points="1553.11,483.97,1546.6963,476.4957,1548.5935,481.825,1543.2643,483.7222,1553.11,483.97" style="stroke:#181818;stroke-width:1.0;"/><text fill="#000000" font-family="sans-serif" font-size="13" lengthAdjust="spacing" textLength="7" x="1451.5" y="431.0283">1</text></g><!--link Repositories to AgendaRepository--><g id="link_Repositories_AgendaRepository"><path codeLine="123" d="M1043.44,381.79 C965.4,406.72 872.71,436.79 789.5,465 C771.68,471.04 758.7533,475.4883 740.2633,481.9583 " fill="none" id="Repositories-to-AgendaRepository" style="stroke:#181818;stroke-width:1.0;"/><polygon fill="#181818" points="734.6,483.94,744.4161,484.743,739.3194,482.2886,741.7738,477.1919,734.6,483.94" style="stroke:#181818;stroke-width:1.0;"/><text fill="#000000" font-family="sans-serif" font-size="13" lengthAdjust="spacing" textLength="7" x="932.5" y="431.0283">1</text></g><!--SRC=[jLVRRjGm47tFL-HnIxUhyXgXIakxGYjn4sa_m4tSODLh1zi10kBVyINntIqWqPTDx3EUCpDd9Yv_H6G439pg4NIFO82jc36i6Um480E65RS0_Xdqz1iYG_q0CFTtC29Gp2EiHufdzPBReqnGRxt3WFEz40pTJm8UEqfQz0FMbrMbT-fRUaFV8YxgdrKj_ovg0VZZ3UGTGwD0b3HrAst9iEnER82acwDL-7sKWS3-PcB0624Ybhs1GKXQ6JLy3qumCkG2Y8d7FZXaXnD0sAxhZNFBTLFWk8tfRVFCjWLIsuZFDgLojb0PeBWDIMpEWZ0qvCxGoMqT8c8AioPD0zu457D7j9firkzAEzdarYmCLUA-KjHNls9TV88ZvKXGDZk5B5lIMFsyMg5NQvr0tszMK6DFaYu-w4m1x9bOpdkCrrKTKtIqmKrZ3mHSLmz4i7bZrdhz4dZJ0Hcx1qJwrtDSiOACdY9g3hBvtPC-gbEYc9BOqX1jxjsHDkSaxPqJ87AEv3l5dR0XWS1pHfwcIr9xvvbv-nd66Rsu-5V5E7YW6GTil1FzSlY6ldBSkjDEYZN52sA1GI8obZR4lMpb7lpXc7nowDcP96KhFT8EOFMO7uaBTUEzFFXA0wtWAvvqVpVMdXzD1y-jBaWGP7vwHPdE20deZLL41XO8o02QvGHVE2lO5urPSu89CKOiNYCLrHaOHr5SKpcMACQGHL6uy9eau6ZE-j1qB2UAy-6vlWmbvGXkLX5q3CfAcMqpOl-NxBQrWE3qaL793SWslFNUdgoUt-_fDxeu09IylMy7obd_mxmszEwEjiJf3SOllKjvanHXBNqnBM7rxewRuXM5JRfvlQyWWryco4KBiIoEwctU0K8KZTOyoFh8o-5oHrAtIIzuTJbn4OyZHfs-kBIGS_cpn7wkAumwbUeZaS-aqmCWDN0bkPuOWqGiwmgjlgyhpFhq5gspmbt7sbZLor8_mz27fd9nxQEmXIwCf1dQP5lHZQDe1EYSnMD1XfL9_CN5LP2RHijlJLyoXdQxgrpvj1NFmvFJ2xWWsqen9hkLxG_bEZOi7QZ2MhwvJNsvsxsegioTLA7ilp0BBdiPKK3lNhL0aqzDwZK8odVdMJNronINfP559YmKwZS0]--></g></svg>