<?xml version="1.0" encoding="us-ascii" standalone="no"?><svg xmlns="http://www.w3.org/2000/svg" xmlns:xlink="http://www.w3.org/1999/xlink" contentStyleType="text/css" height="1491px" preserveAspectRatio="none" style="width:3213px;height:1491px;background:#FFFFFF;" version="1.1" viewBox="0 0 3213 1491" width="3213px" zoomAndPan="magnify"><defs/><g><!--class ToDoList--><g id="elem_ToDoList"><rect codeLine="8" fill="#F1F1F1" height="308.6953" id="ToDoList" rx="2.5" ry="2.5" style="stroke:#181818;stroke-width:0.5;" width="847" x="2359.5" y="1176"/><ellipse cx="2750.25" cy="1192" fill="#ADD1B2" rx="11" ry="11" style="stroke:#181818;stroke-width:1.0;"/><path d="M2753.0156,1187.875 Q2753.1719,1187.6563 2753.3594,1187.5469 Q2753.5469,1187.4375 2753.7656,1187.4375 Q2754.1406,1187.4375 2754.375,1187.7031 Q2754.6094,1187.9531 2754.6094,1188.5625 L2754.6094,1190.0156 Q2754.6094,1190.625 2754.375,1190.8906 Q2754.1406,1191.1563 2753.7656,1191.1563 Q2753.4219,1191.1563 2753.2188,1190.9531 Q2753.0156,1190.7656 2752.9063,1190.25 Q2752.8594,1189.8906 2752.6719,1189.7031 Q2752.3438,1189.3281 2751.7344,1189.1094 Q2751.125,1188.8906 2750.5,1188.8906 Q2749.7344,1188.8906 2749.0938,1189.2188 Q2748.4688,1189.5469 2747.9688,1190.2969 Q2747.4844,1191.0469 2747.4844,1192.0781 L2747.4844,1193.1719 Q2747.4844,1194.4063 2748.375,1195.2344 Q2749.2656,1196.0469 2750.8594,1196.0469 Q2751.7969,1196.0469 2752.4531,1195.7969 Q2752.8438,1195.6406 2753.2656,1195.2031 Q2753.5313,1194.9375 2753.6719,1194.8594 Q2753.8281,1194.7813 2754.0313,1194.7813 Q2754.3594,1194.7813 2754.6094,1195.0469 Q2754.875,1195.2969 2754.875,1195.6406 Q2754.875,1195.9844 2754.5313,1196.3906 Q2754.0313,1196.9688 2753.2344,1197.2969 Q2752.1563,1197.75 2750.8594,1197.75 Q2749.3438,1197.75 2748.1406,1197.125 Q2747.1563,1196.625 2746.4688,1195.5625 Q2745.7813,1194.4844 2745.7813,1193.2031 L2745.7813,1192.0469 Q2745.7813,1190.7188 2746.3906,1189.5781 Q2747.0156,1188.4219 2748.1094,1187.8125 Q2749.2031,1187.1875 2750.4375,1187.1875 Q2751.1719,1187.1875 2751.8125,1187.3594 Q2752.4688,1187.5156 2753.0156,1187.875 Z " fill="#000000"/><text fill="#000000" font-family="sans-serif" font-size="14" lengthAdjust="spacing" textLength="57" x="2770.75" y="1197.7969">ToDoList</text><line style="stroke:#181818;stroke-width:0.5;" x1="2360.5" x2="3205.5" y1="1208" y2="1208"/><text fill="#000000" font-family="sans-serif" font-size="14" lengthAdjust="spacing" textLength="147" x="2365.5" y="1227.1074">-taskDescription: String</text><text fill="#000000" font-family="sans-serif" font-size="14" lengthAdjust="spacing" textLength="101" x="2365.5" y="1245.7285">-urgency: String</text><text fill="#000000" font-family="sans-serif" font-size="14" lengthAdjust="spacing" textLength="139" x="2365.5" y="1264.3496">-expectedDuration: int</text><text fill="#000000" font-family="sans-serif" font-size="14" lengthAdjust="spacing" textLength="163" x="2365.5" y="1282.9707">-greenSpaceName: String</text><text fill="#000000" font-family="sans-serif" font-size="14" lengthAdjust="spacing" textLength="88" x="2365.5" y="1301.5918">-status: String</text><text fill="#000000" font-family="sans-serif" font-size="14" lengthAdjust="spacing" textLength="112" x="2365.5" y="1320.2129">-userEmail: String</text><line style="stroke:#181818;stroke-width:0.5;" x1="2360.5" x2="3205.5" y1="1327.7266" y2="1327.7266"/><text fill="#000000" font-family="sans-serif" font-size="14" lengthAdjust="spacing" textLength="835" x="2365.5" y="1346.834">+ToDoList(taskDescription: String, urgency: String, expectedDuration: int, greenSpaceName: String, status: String, userEmail: String)</text><text fill="#000000" font-family="sans-serif" font-size="14" lengthAdjust="spacing" textLength="185" x="2365.5" y="1365.4551">+getTaskDescription(): String</text><text fill="#000000" font-family="sans-serif" font-size="14" lengthAdjust="spacing" textLength="135" x="2365.5" y="1384.0762">+getUrgency(): String</text><text fill="#000000" font-family="sans-serif" font-size="14" lengthAdjust="spacing" textLength="173" x="2365.5" y="1402.6973">+getExpectedDuration(): int</text><text fill="#000000" font-family="sans-serif" font-size="14" lengthAdjust="spacing" textLength="199" x="2365.5" y="1421.3184">+getGreenSpaceName(): String</text><text fill="#000000" font-family="sans-serif" font-size="14" lengthAdjust="spacing" textLength="123" x="2365.5" y="1439.9395">+getStatus(): String</text><text fill="#000000" font-family="sans-serif" font-size="14" lengthAdjust="spacing" textLength="146" x="2365.5" y="1458.5605">+getUserEmail(): String</text><text fill="#000000" font-family="sans-serif" font-size="14" lengthAdjust="spacing" textLength="194" x="2365.5" y="1477.1816">+setStatus(status: String): void</text></g><!--class ToDoListRepository--><g id="elem_ToDoListRepository"><rect codeLine="26" fill="#F1F1F1" height="159.7266" id="ToDoListRepository" rx="2.5" ry="2.5" style="stroke:#181818;stroke-width:0.5;" width="649" x="2422.5" y="617"/><ellipse cx="2680.25" cy="633" fill="#ADD1B2" rx="11" ry="11" style="stroke:#181818;stroke-width:1.0;"/><path d="M2683.0156,628.875 Q2683.1719,628.6563 2683.3594,628.5469 Q2683.5469,628.4375 2683.7656,628.4375 Q2684.1406,628.4375 2684.375,628.7031 Q2684.6094,628.9531 2684.6094,629.5625 L2684.6094,631.0156 Q2684.6094,631.625 2684.375,631.8906 Q2684.1406,632.1563 2683.7656,632.1563 Q2683.4219,632.1563 2683.2188,631.9531 Q2683.0156,631.7656 2682.9063,631.25 Q2682.8594,630.8906 2682.6719,630.7031 Q2682.3438,630.3281 2681.7344,630.1094 Q2681.125,629.8906 2680.5,629.8906 Q2679.7344,629.8906 2679.0938,630.2188 Q2678.4688,630.5469 2677.9688,631.2969 Q2677.4844,632.0469 2677.4844,633.0781 L2677.4844,634.1719 Q2677.4844,635.4063 2678.375,636.2344 Q2679.2656,637.0469 2680.8594,637.0469 Q2681.7969,637.0469 2682.4531,636.7969 Q2682.8438,636.6406 2683.2656,636.2031 Q2683.5313,635.9375 2683.6719,635.8594 Q2683.8281,635.7813 2684.0313,635.7813 Q2684.3594,635.7813 2684.6094,636.0469 Q2684.875,636.2969 2684.875,636.6406 Q2684.875,636.9844 2684.5313,637.3906 Q2684.0313,637.9688 2683.2344,638.2969 Q2682.1563,638.75 2680.8594,638.75 Q2679.3438,638.75 2678.1406,638.125 Q2677.1563,637.625 2676.4688,636.5625 Q2675.7813,635.4844 2675.7813,634.2031 L2675.7813,633.0469 Q2675.7813,631.7188 2676.3906,630.5781 Q2677.0156,629.4219 2678.1094,628.8125 Q2679.2031,628.1875 2680.4375,628.1875 Q2681.1719,628.1875 2681.8125,628.3594 Q2682.4688,628.5156 2683.0156,628.875 Z " fill="#000000"/><text fill="#000000" font-family="sans-serif" font-size="14" lengthAdjust="spacing" textLength="125" x="2700.75" y="638.7969">ToDoListRepository</text><line style="stroke:#181818;stroke-width:0.5;" x1="2423.5" x2="3070.5" y1="649" y2="649"/><text fill="#000000" font-family="sans-serif" font-size="14" lengthAdjust="spacing" textLength="167" x="2428.5" y="668.1074">-toDoLists: List&lt;ToDoList&gt;</text><line style="stroke:#181818;stroke-width:0.5;" x1="2423.5" x2="3070.5" y1="675.6211" y2="675.6211"/><text fill="#000000" font-family="sans-serif" font-size="14" lengthAdjust="spacing" textLength="293" x="2428.5" y="694.7285">+add(toDoList: ToDoList): Optional&lt;ToDoList&gt;</text><text fill="#000000" font-family="sans-serif" font-size="14" lengthAdjust="spacing" textLength="220" x="2428.5" y="713.3496">+getAllToDoLists(): List&lt;ToDoList&gt;</text><text fill="#000000" font-family="sans-serif" font-size="14" lengthAdjust="spacing" textLength="336" x="2428.5" y="731.9707">+updateToDoListEntry(updatedEntry: ToDoList): void</text><text fill="#000000" font-family="sans-serif" font-size="14" lengthAdjust="spacing" textLength="435" x="2428.5" y="750.5918">+findByTaskDescription(taskDescription: String): Optional&lt;ToDoList&gt;</text><text fill="#000000" font-family="sans-serif" font-size="14" lengthAdjust="spacing" textLength="637" x="2428.5" y="769.2129">+findByUserEmailAndGreenSpaceName(userEmail: String, greenSpaceName: String): List&lt;ToDoList&gt;</text></g><!--class GreenSpace--><g id="elem_GreenSpace"><rect codeLine="36" fill="#F1F1F1" height="141.1055" id="GreenSpace" rx="2.5" ry="2.5" style="stroke:#181818;stroke-width:0.5;" width="333" x="1861.5" y="1260"/><ellipse cx="1983.75" cy="1276" fill="#ADD1B2" rx="11" ry="11" style="stroke:#181818;stroke-width:1.0;"/><path d="M1986.5156,1271.875 Q1986.6719,1271.6563 1986.8594,1271.5469 Q1987.0469,1271.4375 1987.2656,1271.4375 Q1987.6406,1271.4375 1987.875,1271.7031 Q1988.1094,1271.9531 1988.1094,1272.5625 L1988.1094,1274.0156 Q1988.1094,1274.625 1987.875,1274.8906 Q1987.6406,1275.1563 1987.2656,1275.1563 Q1986.9219,1275.1563 1986.7188,1274.9531 Q1986.5156,1274.7656 1986.4063,1274.25 Q1986.3594,1273.8906 1986.1719,1273.7031 Q1985.8438,1273.3281 1985.2344,1273.1094 Q1984.625,1272.8906 1984,1272.8906 Q1983.2344,1272.8906 1982.5938,1273.2188 Q1981.9688,1273.5469 1981.4688,1274.2969 Q1980.9844,1275.0469 1980.9844,1276.0781 L1980.9844,1277.1719 Q1980.9844,1278.4063 1981.875,1279.2344 Q1982.7656,1280.0469 1984.3594,1280.0469 Q1985.2969,1280.0469 1985.9531,1279.7969 Q1986.3438,1279.6406 1986.7656,1279.2031 Q1987.0313,1278.9375 1987.1719,1278.8594 Q1987.3281,1278.7813 1987.5313,1278.7813 Q1987.8594,1278.7813 1988.1094,1279.0469 Q1988.375,1279.2969 1988.375,1279.6406 Q1988.375,1279.9844 1988.0313,1280.3906 Q1987.5313,1280.9688 1986.7344,1281.2969 Q1985.6563,1281.75 1984.3594,1281.75 Q1982.8438,1281.75 1981.6406,1281.125 Q1980.6563,1280.625 1979.9688,1279.5625 Q1979.2813,1278.4844 1979.2813,1277.2031 L1979.2813,1276.0469 Q1979.2813,1274.7188 1979.8906,1273.5781 Q1980.5156,1272.4219 1981.6094,1271.8125 Q1982.7031,1271.1875 1983.9375,1271.1875 Q1984.6719,1271.1875 1985.3125,1271.3594 Q1985.9688,1271.5156 1986.5156,1271.875 Z " fill="#000000"/><text fill="#000000" font-family="sans-serif" font-size="14" lengthAdjust="spacing" textLength="80" x="2004.25" y="1281.7969">GreenSpace</text><line style="stroke:#181818;stroke-width:0.5;" x1="1862.5" x2="2193.5" y1="1292" y2="1292"/><text fill="#000000" font-family="sans-serif" font-size="14" lengthAdjust="spacing" textLength="85" x="1867.5" y="1311.1074">-name: String</text><text fill="#000000" font-family="sans-serif" font-size="14" lengthAdjust="spacing" textLength="140" x="1867.5" y="1329.7285">-managerEmail: String</text><line style="stroke:#181818;stroke-width:0.5;" x1="1862.5" x2="2193.5" y1="1337.2422" y2="1337.2422"/><text fill="#000000" font-family="sans-serif" font-size="14" lengthAdjust="spacing" textLength="321" x="1867.5" y="1356.3496">+GreenSpace(name: String, managerEmail: String)</text><text fill="#000000" font-family="sans-serif" font-size="14" lengthAdjust="spacing" textLength="119" x="1867.5" y="1374.9707">+getName(): String</text><text fill="#000000" font-family="sans-serif" font-size="14" lengthAdjust="spacing" textLength="173" x="1867.5" y="1393.5918">+getManagerEmail(): String</text></g><!--class GreenSpaceRepository--><g id="elem_GreenSpaceRepository"><rect codeLine="45" fill="#F1F1F1" height="122.4844" id="GreenSpaceRepository" rx="2.5" ry="2.5" style="stroke:#181818;stroke-width:0.5;" width="376" x="1367" y="636"/><ellipse cx="1476.75" cy="652" fill="#ADD1B2" rx="11" ry="11" style="stroke:#181818;stroke-width:1.0;"/><path d="M1479.5156,647.875 Q1479.6719,647.6563 1479.8594,647.5469 Q1480.0469,647.4375 1480.2656,647.4375 Q1480.6406,647.4375 1480.875,647.7031 Q1481.1094,647.9531 1481.1094,648.5625 L1481.1094,650.0156 Q1481.1094,650.625 1480.875,650.8906 Q1480.6406,651.1563 1480.2656,651.1563 Q1479.9219,651.1563 1479.7188,650.9531 Q1479.5156,650.7656 1479.4063,650.25 Q1479.3594,649.8906 1479.1719,649.7031 Q1478.8438,649.3281 1478.2344,649.1094 Q1477.625,648.8906 1477,648.8906 Q1476.2344,648.8906 1475.5938,649.2188 Q1474.9688,649.5469 1474.4688,650.2969 Q1473.9844,651.0469 1473.9844,652.0781 L1473.9844,653.1719 Q1473.9844,654.4063 1474.875,655.2344 Q1475.7656,656.0469 1477.3594,656.0469 Q1478.2969,656.0469 1478.9531,655.7969 Q1479.3438,655.6406 1479.7656,655.2031 Q1480.0313,654.9375 1480.1719,654.8594 Q1480.3281,654.7813 1480.5313,654.7813 Q1480.8594,654.7813 1481.1094,655.0469 Q1481.375,655.2969 1481.375,655.6406 Q1481.375,655.9844 1481.0313,656.3906 Q1480.5313,656.9688 1479.7344,657.2969 Q1478.6563,657.75 1477.3594,657.75 Q1475.8438,657.75 1474.6406,657.125 Q1473.6563,656.625 1472.9688,655.5625 Q1472.2813,654.4844 1472.2813,653.2031 L1472.2813,652.0469 Q1472.2813,650.7188 1472.8906,649.5781 Q1473.5156,648.4219 1474.6094,647.8125 Q1475.7031,647.1875 1476.9375,647.1875 Q1477.6719,647.1875 1478.3125,647.3594 Q1478.9688,647.5156 1479.5156,647.875 Z " fill="#000000"/><text fill="#000000" font-family="sans-serif" font-size="14" lengthAdjust="spacing" textLength="148" x="1497.25" y="657.7969">GreenSpaceRepository</text><line style="stroke:#181818;stroke-width:0.5;" x1="1368" x2="1742" y1="668" y2="668"/><text fill="#000000" font-family="sans-serif" font-size="14" lengthAdjust="spacing" textLength="215" x="1373" y="687.1074">-greenSpaces: List&lt;GreenSpace&gt;</text><line style="stroke:#181818;stroke-width:0.5;" x1="1368" x2="1742" y1="694.6211" y2="694.6211"/><text fill="#000000" font-family="sans-serif" font-size="14" lengthAdjust="spacing" textLength="364" x="1373" y="713.7285">+add(greenSpace: GreenSpace): Optional&lt;GreenSpace&gt;</text><text fill="#000000" font-family="sans-serif" font-size="14" lengthAdjust="spacing" textLength="266" x="1373" y="732.3496">+getAllGreenSpaces(): List&lt;GreenSpace&gt;</text><text fill="#000000" font-family="sans-serif" font-size="14" lengthAdjust="spacing" textLength="351" x="1373" y="750.9707">+findByManagerEmail(email: String): List&lt;GreenSpace&gt;</text></g><!--class Agenda--><g id="elem_Agenda"><rect codeLine="53" fill="#F1F1F1" height="215.5898" id="Agenda" rx="2.5" ry="2.5" style="stroke:#181818;stroke-width:0.5;" width="645" x="974.5" y="1222.5"/><ellipse cx="1268.25" cy="1238.5" fill="#ADD1B2" rx="11" ry="11" style="stroke:#181818;stroke-width:1.0;"/><path d="M1271.0156,1234.375 Q1271.1719,1234.1563 1271.3594,1234.0469 Q1271.5469,1233.9375 1271.7656,1233.9375 Q1272.1406,1233.9375 1272.375,1234.2031 Q1272.6094,1234.4531 1272.6094,1235.0625 L1272.6094,1236.5156 Q1272.6094,1237.125 1272.375,1237.3906 Q1272.1406,1237.6563 1271.7656,1237.6563 Q1271.4219,1237.6563 1271.2188,1237.4531 Q1271.0156,1237.2656 1270.9063,1236.75 Q1270.8594,1236.3906 1270.6719,1236.2031 Q1270.3438,1235.8281 1269.7344,1235.6094 Q1269.125,1235.3906 1268.5,1235.3906 Q1267.7344,1235.3906 1267.0938,1235.7188 Q1266.4688,1236.0469 1265.9688,1236.7969 Q1265.4844,1237.5469 1265.4844,1238.5781 L1265.4844,1239.6719 Q1265.4844,1240.9063 1266.375,1241.7344 Q1267.2656,1242.5469 1268.8594,1242.5469 Q1269.7969,1242.5469 1270.4531,1242.2969 Q1270.8438,1242.1406 1271.2656,1241.7031 Q1271.5313,1241.4375 1271.6719,1241.3594 Q1271.8281,1241.2813 1272.0313,1241.2813 Q1272.3594,1241.2813 1272.6094,1241.5469 Q1272.875,1241.7969 1272.875,1242.1406 Q1272.875,1242.4844 1272.5313,1242.8906 Q1272.0313,1243.4688 1271.2344,1243.7969 Q1270.1563,1244.25 1268.8594,1244.25 Q1267.3438,1244.25 1266.1406,1243.625 Q1265.1563,1243.125 1264.4688,1242.0625 Q1263.7813,1240.9844 1263.7813,1239.7031 L1263.7813,1238.5469 Q1263.7813,1237.2188 1264.3906,1236.0781 Q1265.0156,1234.9219 1266.1094,1234.3125 Q1267.2031,1233.6875 1268.4375,1233.6875 Q1269.1719,1233.6875 1269.8125,1233.8594 Q1270.4688,1234.0156 1271.0156,1234.375 Z " fill="#000000"/><text fill="#000000" font-family="sans-serif" font-size="14" lengthAdjust="spacing" textLength="49" x="1288.75" y="1244.2969">Agenda</text><line style="stroke:#181818;stroke-width:0.5;" x1="975.5" x2="1618.5" y1="1254.5" y2="1254.5"/><text fill="#000000" font-family="sans-serif" font-size="14" lengthAdjust="spacing" textLength="147" x="980.5" y="1273.6074">-taskDescription: String</text><text fill="#000000" font-family="sans-serif" font-size="14" lengthAdjust="spacing" textLength="163" x="980.5" y="1292.2285">-greenSpaceName: String</text><text fill="#000000" font-family="sans-serif" font-size="14" lengthAdjust="spacing" textLength="164" x="980.5" y="1310.8496">-expectedDate: LocalDate</text><text fill="#000000" font-family="sans-serif" font-size="14" lengthAdjust="spacing" textLength="88" x="980.5" y="1329.4707">-status: String</text><line style="stroke:#181818;stroke-width:0.5;" x1="975.5" x2="1618.5" y1="1336.9844" y2="1336.9844"/><text fill="#000000" font-family="sans-serif" font-size="14" lengthAdjust="spacing" textLength="633" x="980.5" y="1356.0918">+Agenda(taskDescription: String, greenSpaceName: String, expectedDate: LocalDate, status: String)</text><text fill="#000000" font-family="sans-serif" font-size="14" lengthAdjust="spacing" textLength="185" x="980.5" y="1374.7129">+getTaskDescription(): String</text><text fill="#000000" font-family="sans-serif" font-size="14" lengthAdjust="spacing" textLength="199" x="980.5" y="1393.334">+getGreenSpaceName(): String</text><text fill="#000000" font-family="sans-serif" font-size="14" lengthAdjust="spacing" textLength="198" x="980.5" y="1411.9551">+getExpectedDate(): LocalDate</text><text fill="#000000" font-family="sans-serif" font-size="14" lengthAdjust="spacing" textLength="123" x="980.5" y="1430.5762">+getStatus(): String</text></g><!--class OrganizationRepository--><g id="elem_OrganizationRepository"><rect codeLine="65" fill="#F1F1F1" height="122.4844" id="OrganizationRepository" rx="2.5" ry="2.5" style="stroke:#181818;stroke-width:0.5;" width="488" x="1799" y="465"/><ellipse cx="1964.75" cy="481" fill="#ADD1B2" rx="11" ry="11" style="stroke:#181818;stroke-width:1.0;"/><path d="M1967.5156,476.875 Q1967.6719,476.6563 1967.8594,476.5469 Q1968.0469,476.4375 1968.2656,476.4375 Q1968.6406,476.4375 1968.875,476.7031 Q1969.1094,476.9531 1969.1094,477.5625 L1969.1094,479.0156 Q1969.1094,479.625 1968.875,479.8906 Q1968.6406,480.1563 1968.2656,480.1563 Q1967.9219,480.1563 1967.7188,479.9531 Q1967.5156,479.7656 1967.4063,479.25 Q1967.3594,478.8906 1967.1719,478.7031 Q1966.8438,478.3281 1966.2344,478.1094 Q1965.625,477.8906 1965,477.8906 Q1964.2344,477.8906 1963.5938,478.2188 Q1962.9688,478.5469 1962.4688,479.2969 Q1961.9844,480.0469 1961.9844,481.0781 L1961.9844,482.1719 Q1961.9844,483.4063 1962.875,484.2344 Q1963.7656,485.0469 1965.3594,485.0469 Q1966.2969,485.0469 1966.9531,484.7969 Q1967.3438,484.6406 1967.7656,484.2031 Q1968.0313,483.9375 1968.1719,483.8594 Q1968.3281,483.7813 1968.5313,483.7813 Q1968.8594,483.7813 1969.1094,484.0469 Q1969.375,484.2969 1969.375,484.6406 Q1969.375,484.9844 1969.0313,485.3906 Q1968.5313,485.9688 1967.7344,486.2969 Q1966.6563,486.75 1965.3594,486.75 Q1963.8438,486.75 1962.6406,486.125 Q1961.6563,485.625 1960.9688,484.5625 Q1960.2813,483.4844 1960.2813,482.2031 L1960.2813,481.0469 Q1960.2813,479.7188 1960.8906,478.5781 Q1961.5156,477.4219 1962.6094,476.8125 Q1963.7031,476.1875 1964.9375,476.1875 Q1965.6719,476.1875 1966.3125,476.3594 Q1966.9688,476.5156 1967.5156,476.875 Z " fill="#000000"/><text fill="#000000" font-family="sans-serif" font-size="14" lengthAdjust="spacing" textLength="148" x="1985.25" y="486.7969">OrganizationRepository</text><line style="stroke:#181818;stroke-width:0.5;" x1="1800" x2="2286" y1="497" y2="497"/><text fill="#000000" font-family="sans-serif" font-size="14" lengthAdjust="spacing" textLength="215" x="1805" y="516.1074">-organizations: List&lt;Organization&gt;</text><line style="stroke:#181818;stroke-width:0.5;" x1="1800" x2="2286" y1="523.6211" y2="523.6211"/><text fill="#000000" font-family="sans-serif" font-size="14" lengthAdjust="spacing" textLength="476" x="1805" y="542.7285">+Optional&lt;Organization&gt; getOrganizationByEmployee(Employee employee)</text><text fill="#000000" font-family="sans-serif" font-size="14" lengthAdjust="spacing" textLength="457" x="1805" y="561.3496">+Optional&lt;Organization&gt; getOrganizationByEmployeeEmail(String email)</text><text fill="#000000" font-family="sans-serif" font-size="14" lengthAdjust="spacing" textLength="356" x="1805" y="579.9707">+Optional&lt;Organization&gt; add(Organization organization)</text></g><!--class Organization--><g id="elem_Organization"><rect codeLine="72" fill="#F1F1F1" height="290.0742" id="Organization" rx="2.5" ry="2.5" style="stroke:#181818;stroke-width:0.5;" width="1251" x="1608.5" y="807"/><ellipse cx="2189.75" cy="823" fill="#ADD1B2" rx="11" ry="11" style="stroke:#181818;stroke-width:1.0;"/><path d="M2192.5156,818.875 Q2192.6719,818.6563 2192.8594,818.5469 Q2193.0469,818.4375 2193.2656,818.4375 Q2193.6406,818.4375 2193.875,818.7031 Q2194.1094,818.9531 2194.1094,819.5625 L2194.1094,821.0156 Q2194.1094,821.625 2193.875,821.8906 Q2193.6406,822.1563 2193.2656,822.1563 Q2192.9219,822.1563 2192.7188,821.9531 Q2192.5156,821.7656 2192.4063,821.25 Q2192.3594,820.8906 2192.1719,820.7031 Q2191.8438,820.3281 2191.2344,820.1094 Q2190.625,819.8906 2190,819.8906 Q2189.2344,819.8906 2188.5938,820.2188 Q2187.9688,820.5469 2187.4688,821.2969 Q2186.9844,822.0469 2186.9844,823.0781 L2186.9844,824.1719 Q2186.9844,825.4063 2187.875,826.2344 Q2188.7656,827.0469 2190.3594,827.0469 Q2191.2969,827.0469 2191.9531,826.7969 Q2192.3438,826.6406 2192.7656,826.2031 Q2193.0313,825.9375 2193.1719,825.8594 Q2193.3281,825.7813 2193.5313,825.7813 Q2193.8594,825.7813 2194.1094,826.0469 Q2194.375,826.2969 2194.375,826.6406 Q2194.375,826.9844 2194.0313,827.3906 Q2193.5313,827.9688 2192.7344,828.2969 Q2191.6563,828.75 2190.3594,828.75 Q2188.8438,828.75 2187.6406,828.125 Q2186.6563,827.625 2185.9688,826.5625 Q2185.2813,825.4844 2185.2813,824.2031 L2185.2813,823.0469 Q2185.2813,821.7188 2185.8906,820.5781 Q2186.5156,819.4219 2187.6094,818.8125 Q2188.7031,818.1875 2189.9375,818.1875 Q2190.6719,818.1875 2191.3125,818.3594 Q2191.9688,818.5156 2192.5156,818.875 Z " fill="#000000"/><text fill="#000000" font-family="sans-serif" font-size="14" lengthAdjust="spacing" textLength="80" x="2210.25" y="828.7969">Organization</text><line style="stroke:#181818;stroke-width:0.5;" x1="1609.5" x2="2858.5" y1="839" y2="839"/><text fill="#000000" font-family="sans-serif" font-size="14" lengthAdjust="spacing" textLength="85" x="1614.5" y="858.1074">-name: String</text><text fill="#000000" font-family="sans-serif" font-size="14" lengthAdjust="spacing" textLength="97" x="1614.5" y="876.7285">-website: String</text><text fill="#000000" font-family="sans-serif" font-size="14" lengthAdjust="spacing" textLength="90" x="1614.5" y="895.3496">-phone: String</text><text fill="#000000" font-family="sans-serif" font-size="14" lengthAdjust="spacing" textLength="83" x="1614.5" y="913.9707">-email: String</text><text fill="#000000" font-family="sans-serif" font-size="14" lengthAdjust="spacing" textLength="118" x="1614.5" y="932.5918">-vatNumber: String</text><text fill="#000000" font-family="sans-serif" font-size="14" lengthAdjust="spacing" textLength="177" x="1614.5" y="951.2129">-List&lt;Employee&gt; employees</text><text fill="#000000" font-family="sans-serif" font-size="14" lengthAdjust="spacing" textLength="111" x="1614.5" y="969.834">-List&lt;Task&gt; tasks</text><line style="stroke:#181818;stroke-width:0.5;" x1="1609.5" x2="2858.5" y1="977.3477" y2="977.3477"/><text fill="#000000" font-family="sans-serif" font-size="14" lengthAdjust="spacing" textLength="211" x="1614.5" y="996.4551">+Organization(vatNumber: String)</text><text fill="#000000" font-family="sans-serif" font-size="14" lengthAdjust="spacing" textLength="252" x="1614.5" y="1015.0762">+boolean employs(Employee employee)</text><text fill="#000000" font-family="sans-serif" font-size="14" lengthAdjust="spacing" textLength="1239" x="1614.5" y="1033.6973">+Optional&lt;Task&gt; createTask(String reference, String description, String informalDescription, String technicalDescription, int duration, double cost, TaskCategory taskCategory, Employee employee)</text><text fill="#000000" font-family="sans-serif" font-size="14" lengthAdjust="spacing" textLength="290" x="1614.5" y="1052.3184">+boolean anyEmployeeHasEmail(String email)</text><text fill="#000000" font-family="sans-serif" font-size="14" lengthAdjust="spacing" textLength="286" x="1614.5" y="1070.9395">+boolean addEmployee(Employee employee)</text><text fill="#000000" font-family="sans-serif" font-size="14" lengthAdjust="spacing" textLength="136" x="1614.5" y="1089.5605">+Organization clone()</text></g><!--class AgendaRepository--><g id="elem_AgendaRepository"><rect codeLine="88" fill="#F1F1F1" height="122.4844" id="AgendaRepository" rx="2.5" ry="2.5" style="stroke:#181818;stroke-width:0.5;" width="409" x="1092.5" y="891"/><ellipse cx="1234.25" cy="907" fill="#ADD1B2" rx="11" ry="11" style="stroke:#181818;stroke-width:1.0;"/><path d="M1237.0156,902.875 Q1237.1719,902.6563 1237.3594,902.5469 Q1237.5469,902.4375 1237.7656,902.4375 Q1238.1406,902.4375 1238.375,902.7031 Q1238.6094,902.9531 1238.6094,903.5625 L1238.6094,905.0156 Q1238.6094,905.625 1238.375,905.8906 Q1238.1406,906.1563 1237.7656,906.1563 Q1237.4219,906.1563 1237.2188,905.9531 Q1237.0156,905.7656 1236.9063,905.25 Q1236.8594,904.8906 1236.6719,904.7031 Q1236.3438,904.3281 1235.7344,904.1094 Q1235.125,903.8906 1234.5,903.8906 Q1233.7344,903.8906 1233.0938,904.2188 Q1232.4688,904.5469 1231.9688,905.2969 Q1231.4844,906.0469 1231.4844,907.0781 L1231.4844,908.1719 Q1231.4844,909.4063 1232.375,910.2344 Q1233.2656,911.0469 1234.8594,911.0469 Q1235.7969,911.0469 1236.4531,910.7969 Q1236.8438,910.6406 1237.2656,910.2031 Q1237.5313,909.9375 1237.6719,909.8594 Q1237.8281,909.7813 1238.0313,909.7813 Q1238.3594,909.7813 1238.6094,910.0469 Q1238.875,910.2969 1238.875,910.6406 Q1238.875,910.9844 1238.5313,911.3906 Q1238.0313,911.9688 1237.2344,912.2969 Q1236.1563,912.75 1234.8594,912.75 Q1233.3438,912.75 1232.1406,912.125 Q1231.1563,911.625 1230.4688,910.5625 Q1229.7813,909.4844 1229.7813,908.2031 L1229.7813,907.0469 Q1229.7813,905.7188 1230.3906,904.5781 Q1231.0156,903.4219 1232.1094,902.8125 Q1233.2031,902.1875 1234.4375,902.1875 Q1235.1719,902.1875 1235.8125,902.3594 Q1236.4688,902.5156 1237.0156,902.875 Z " fill="#000000"/><text fill="#000000" font-family="sans-serif" font-size="14" lengthAdjust="spacing" textLength="117" x="1254.75" y="912.7969">AgendaRepository</text><line style="stroke:#181818;stroke-width:0.5;" x1="1093.5" x2="1500.5" y1="923" y2="923"/><text fill="#000000" font-family="sans-serif" font-size="14" lengthAdjust="spacing" textLength="155" x="1098.5" y="942.1074">-agendas: List&lt;Agenda&gt;</text><line style="stroke:#181818;stroke-width:0.5;" x1="1093.5" x2="1500.5" y1="949.6211" y2="949.6211"/><text fill="#000000" font-family="sans-serif" font-size="14" lengthAdjust="spacing" textLength="273" x="1098.5" y="968.7285">+add(agenda: Agenda): Optional&lt;Agenda&gt;</text><text fill="#000000" font-family="sans-serif" font-size="14" lengthAdjust="spacing" textLength="204" x="1098.5" y="987.3496">+getAllAgendas(): List&lt;Agenda&gt;</text><text fill="#000000" font-family="sans-serif" font-size="14" lengthAdjust="spacing" textLength="397" x="1098.5" y="1005.9707">+findByGreenSpace(greenSpace: GreenSpace): List&lt;Agenda&gt;</text></g><!--class AgendaController--><g id="elem_AgendaController"><rect codeLine="96" fill="#F1F1F1" height="178.3477" id="AgendaController" rx="2.5" ry="2.5" style="stroke:#181818;stroke-width:0.5;" width="1039" x="477.5" y="7"/><ellipse cx="937.25" cy="23" fill="#ADD1B2" rx="11" ry="11" style="stroke:#181818;stroke-width:1.0;"/><path d="M940.0156,18.875 Q940.1719,18.6563 940.3594,18.5469 Q940.5469,18.4375 940.7656,18.4375 Q941.1406,18.4375 941.375,18.7031 Q941.6094,18.9531 941.6094,19.5625 L941.6094,21.0156 Q941.6094,21.625 941.375,21.8906 Q941.1406,22.1563 940.7656,22.1563 Q940.4219,22.1563 940.2188,21.9531 Q940.0156,21.7656 939.9063,21.25 Q939.8594,20.8906 939.6719,20.7031 Q939.3438,20.3281 938.7344,20.1094 Q938.125,19.8906 937.5,19.8906 Q936.7344,19.8906 936.0938,20.2188 Q935.4688,20.5469 934.9688,21.2969 Q934.4844,22.0469 934.4844,23.0781 L934.4844,24.1719 Q934.4844,25.4063 935.375,26.2344 Q936.2656,27.0469 937.8594,27.0469 Q938.7969,27.0469 939.4531,26.7969 Q939.8438,26.6406 940.2656,26.2031 Q940.5313,25.9375 940.6719,25.8594 Q940.8281,25.7813 941.0313,25.7813 Q941.3594,25.7813 941.6094,26.0469 Q941.875,26.2969 941.875,26.6406 Q941.875,26.9844 941.5313,27.3906 Q941.0313,27.9688 940.2344,28.2969 Q939.1563,28.75 937.8594,28.75 Q936.3438,28.75 935.1406,28.125 Q934.1563,27.625 933.4688,26.5625 Q932.7813,25.4844 932.7813,24.2031 L932.7813,23.0469 Q932.7813,21.7188 933.3906,20.5781 Q934.0156,19.4219 935.1094,18.8125 Q936.2031,18.1875 937.4375,18.1875 Q938.1719,18.1875 938.8125,18.3594 Q939.4688,18.5156 940.0156,18.875 Z " fill="#000000"/><text fill="#000000" font-family="sans-serif" font-size="14" lengthAdjust="spacing" textLength="111" x="957.75" y="28.7969">AgendaController</text><line style="stroke:#181818;stroke-width:0.5;" x1="478.5" x2="1515.5" y1="39" y2="39"/><text fill="#000000" font-family="sans-serif" font-size="14" lengthAdjust="spacing" textLength="246" x="483.5" y="58.1074">-agendaRepository: AgendaRepository</text><text fill="#000000" font-family="sans-serif" font-size="14" lengthAdjust="spacing" textLength="258" x="483.5" y="76.7285">-toDoListRepository: ToDoListRepository</text><text fill="#000000" font-family="sans-serif" font-size="14" lengthAdjust="spacing" textLength="306" x="483.5" y="95.3496">-greenSpaceRepository: GreenSpaceRepository</text><line style="stroke:#181818;stroke-width:0.5;" x1="478.5" x2="1515.5" y1="102.8633" y2="102.8633"/><text fill="#000000" font-family="sans-serif" font-size="14" lengthAdjust="spacing" textLength="129" x="483.5" y="121.9707">+AgendaController()</text><text fill="#000000" font-family="sans-serif" font-size="14" lengthAdjust="spacing" textLength="1027" x="483.5" y="140.5918">+createAgendaEntry(taskDescription: String, greenSpaceName: String, expectedDate: LocalDate, status: String, teamProposal: TeamProposal): Optional&lt;Agenda&gt;</text><text fill="#000000" font-family="sans-serif" font-size="14" lengthAdjust="spacing" textLength="358" x="483.5" y="159.2129">+getGreenSpaces(userEmail: String): List&lt;GreenSpace&gt;</text><text fill="#000000" font-family="sans-serif" font-size="14" lengthAdjust="spacing" textLength="515" x="483.5" y="177.834">+getToDoListEntries(userEmail: String, greenSpaceName: String): List&lt;ToDoList&gt;</text></g><!--class AgendaUI--><g id="elem_AgendaUI"><rect codeLine="107" fill="#F1F1F1" height="159.7266" id="AgendaUI" rx="2.5" ry="2.5" style="stroke:#181818;stroke-width:0.5;" width="406" x="7" y="16"/><ellipse cx="175.25" cy="32" fill="#ADD1B2" rx="11" ry="11" style="stroke:#181818;stroke-width:1.0;"/><path d="M178.0156,27.875 Q178.1719,27.6563 178.3594,27.5469 Q178.5469,27.4375 178.7656,27.4375 Q179.1406,27.4375 179.375,27.7031 Q179.6094,27.9531 179.6094,28.5625 L179.6094,30.0156 Q179.6094,30.625 179.375,30.8906 Q179.1406,31.1563 178.7656,31.1563 Q178.4219,31.1563 178.2188,30.9531 Q178.0156,30.7656 177.9063,30.25 Q177.8594,29.8906 177.6719,29.7031 Q177.3438,29.3281 176.7344,29.1094 Q176.125,28.8906 175.5,28.8906 Q174.7344,28.8906 174.0938,29.2188 Q173.4688,29.5469 172.9688,30.2969 Q172.4844,31.0469 172.4844,32.0781 L172.4844,33.1719 Q172.4844,34.4063 173.375,35.2344 Q174.2656,36.0469 175.8594,36.0469 Q176.7969,36.0469 177.4531,35.7969 Q177.8438,35.6406 178.2656,35.2031 Q178.5313,34.9375 178.6719,34.8594 Q178.8281,34.7813 179.0313,34.7813 Q179.3594,34.7813 179.6094,35.0469 Q179.875,35.2969 179.875,35.6406 Q179.875,35.9844 179.5313,36.3906 Q179.0313,36.9688 178.2344,37.2969 Q177.1563,37.75 175.8594,37.75 Q174.3438,37.75 173.1406,37.125 Q172.1563,36.625 171.4688,35.5625 Q170.7813,34.4844 170.7813,33.2031 L170.7813,32.0469 Q170.7813,30.7188 171.3906,29.5781 Q172.0156,28.4219 173.1094,27.8125 Q174.2031,27.1875 175.4375,27.1875 Q176.1719,27.1875 176.8125,27.3594 Q177.4688,27.5156 178.0156,27.875 Z " fill="#000000"/><text fill="#000000" font-family="sans-serif" font-size="14" lengthAdjust="spacing" textLength="61" x="195.75" y="37.7969">AgendaUI</text><line style="stroke:#181818;stroke-width:0.5;" x1="8" x2="412" y1="48" y2="48"/><text fill="#000000" font-family="sans-serif" font-size="14" lengthAdjust="spacing" textLength="112" x="13" y="67.1074">-userEmail: String</text><text fill="#000000" font-family="sans-serif" font-size="14" lengthAdjust="spacing" textLength="234" x="13" y="85.7285">-agendaController: AgendaController</text><text fill="#000000" font-family="sans-serif" font-size="14" lengthAdjust="spacing" textLength="192" x="13" y="104.3496">-teamProposal: TeamProposal</text><line style="stroke:#181818;stroke-width:0.5;" x1="8" x2="412" y1="111.8633" y2="111.8633"/><text fill="#000000" font-family="sans-serif" font-size="14" lengthAdjust="spacing" textLength="186" x="13" y="130.9707">+AgendaUI(userEmail: String)</text><text fill="#000000" font-family="sans-serif" font-size="14" lengthAdjust="spacing" textLength="73" x="13" y="149.5918">+run(): void</text><text fill="#000000" font-family="sans-serif" font-size="14" lengthAdjust="spacing" textLength="394" x="13" y="168.2129">+requestSelection(scanner: Scanner, size: int, type: String): int</text></g><!--class ApplicationSession--><g id="elem_ApplicationSession"><rect codeLine="117" fill="#F1F1F1" height="85.2422" id="ApplicationSession" rx="2.5" ry="2.5" style="stroke:#181818;stroke-width:0.5;" width="267" x="618.5" y="282.5"/><ellipse cx="688.25" cy="298.5" fill="#ADD1B2" rx="11" ry="11" style="stroke:#181818;stroke-width:1.0;"/><path d="M691.0156,294.375 Q691.1719,294.1563 691.3594,294.0469 Q691.5469,293.9375 691.7656,293.9375 Q692.1406,293.9375 692.375,294.2031 Q692.6094,294.4531 692.6094,295.0625 L692.6094,296.5156 Q692.6094,297.125 692.375,297.3906 Q692.1406,297.6563 691.7656,297.6563 Q691.4219,297.6563 691.2188,297.4531 Q691.0156,297.2656 690.9063,296.75 Q690.8594,296.3906 690.6719,296.2031 Q690.3438,295.8281 689.7344,295.6094 Q689.125,295.3906 688.5,295.3906 Q687.7344,295.3906 687.0938,295.7188 Q686.4688,296.0469 685.9688,296.7969 Q685.4844,297.5469 685.4844,298.5781 L685.4844,299.6719 Q685.4844,300.9063 686.375,301.7344 Q687.2656,302.5469 688.8594,302.5469 Q689.7969,302.5469 690.4531,302.2969 Q690.8438,302.1406 691.2656,301.7031 Q691.5313,301.4375 691.6719,301.3594 Q691.8281,301.2813 692.0313,301.2813 Q692.3594,301.2813 692.6094,301.5469 Q692.875,301.7969 692.875,302.1406 Q692.875,302.4844 692.5313,302.8906 Q692.0313,303.4688 691.2344,303.7969 Q690.1563,304.25 688.8594,304.25 Q687.3438,304.25 686.1406,303.625 Q685.1563,303.125 684.4688,302.0625 Q683.7813,300.9844 683.7813,299.7031 L683.7813,298.5469 Q683.7813,297.2188 684.3906,296.0781 Q685.0156,294.9219 686.1094,294.3125 Q687.2031,293.6875 688.4375,293.6875 Q689.1719,293.6875 689.8125,293.8594 Q690.4688,294.0156 691.0156,294.375 Z " fill="#000000"/><text fill="#000000" font-family="sans-serif" font-size="14" lengthAdjust="spacing" textLength="119" x="708.75" y="304.2969">ApplicationSession</text><line style="stroke:#181818;stroke-width:0.5;" x1="619.5" x2="884.5" y1="314.5" y2="314.5"/><line style="stroke:#181818;stroke-width:0.5;" x1="619.5" x2="884.5" y1="322.5" y2="322.5"/><text fill="#000000" font-family="sans-serif" font-size="14" lengthAdjust="spacing" textLength="255" x="624.5" y="341.6074">+static getInstance(): ApplicationSession</text><text fill="#000000" font-family="sans-serif" font-size="14" lengthAdjust="spacing" textLength="223" x="624.5" y="360.2285">+getCurrentSession(): UserSession</text></g><!--class UserSession--><g id="elem_UserSession"><rect codeLine="122" fill="#F1F1F1" height="66.6211" id="UserSession" rx="2.5" ry="2.5" style="stroke:#181818;stroke-width:0.5;" width="158" x="777" y="492.5"/><ellipse cx="813.15" cy="508.5" fill="#ADD1B2" rx="11" ry="11" style="stroke:#181818;stroke-width:1.0;"/><path d="M815.9156,504.375 Q816.0719,504.1563 816.2594,504.0469 Q816.4469,503.9375 816.6656,503.9375 Q817.0406,503.9375 817.275,504.2031 Q817.5094,504.4531 817.5094,505.0625 L817.5094,506.5156 Q817.5094,507.125 817.275,507.3906 Q817.0406,507.6563 816.6656,507.6563 Q816.3219,507.6563 816.1188,507.4531 Q815.9156,507.2656 815.8063,506.75 Q815.7594,506.3906 815.5719,506.2031 Q815.2438,505.8281 814.6344,505.6094 Q814.025,505.3906 813.4,505.3906 Q812.6344,505.3906 811.9938,505.7188 Q811.3688,506.0469 810.8688,506.7969 Q810.3844,507.5469 810.3844,508.5781 L810.3844,509.6719 Q810.3844,510.9063 811.275,511.7344 Q812.1656,512.5469 813.7594,512.5469 Q814.6969,512.5469 815.3531,512.2969 Q815.7438,512.1406 816.1656,511.7031 Q816.4313,511.4375 816.5719,511.3594 Q816.7281,511.2813 816.9313,511.2813 Q817.2594,511.2813 817.5094,511.5469 Q817.775,511.7969 817.775,512.1406 Q817.775,512.4844 817.4313,512.8906 Q816.9313,513.4688 816.1344,513.7969 Q815.0563,514.25 813.7594,514.25 Q812.2438,514.25 811.0406,513.625 Q810.0563,513.125 809.3688,512.0625 Q808.6813,510.9844 808.6813,509.7031 L808.6813,508.5469 Q808.6813,507.2188 809.2906,506.0781 Q809.9156,504.9219 811.0094,504.3125 Q812.1031,503.6875 813.3375,503.6875 Q814.0719,503.6875 814.7125,503.8594 Q815.3688,504.0156 815.9156,504.375 Z " fill="#000000"/><text fill="#000000" font-family="sans-serif" font-size="14" lengthAdjust="spacing" textLength="79" x="831.85" y="514.2969">UserSession</text><line style="stroke:#181818;stroke-width:0.5;" x1="778" x2="934" y1="524.5" y2="524.5"/><line style="stroke:#181818;stroke-width:0.5;" x1="778" x2="934" y1="532.5" y2="532.5"/><text fill="#000000" font-family="sans-serif" font-size="14" lengthAdjust="spacing" textLength="146" x="783" y="551.6074">+getUserEmail(): String</text></g><!--class Repositories--><g id="elem_Repositories"><rect codeLine="126" fill="#F1F1F1" height="122.4844" id="Repositories" rx="2.5" ry="2.5" style="stroke:#181818;stroke-width:0.5;" width="354" x="1378" y="264"/><ellipse cx="1511.25" cy="280" fill="#ADD1B2" rx="11" ry="11" style="stroke:#181818;stroke-width:1.0;"/><path d="M1514.0156,275.875 Q1514.1719,275.6563 1514.3594,275.5469 Q1514.5469,275.4375 1514.7656,275.4375 Q1515.1406,275.4375 1515.375,275.7031 Q1515.6094,275.9531 1515.6094,276.5625 L1515.6094,278.0156 Q1515.6094,278.625 1515.375,278.8906 Q1515.1406,279.1563 1514.7656,279.1563 Q1514.4219,279.1563 1514.2188,278.9531 Q1514.0156,278.7656 1513.9063,278.25 Q1513.8594,277.8906 1513.6719,277.7031 Q1513.3438,277.3281 1512.7344,277.1094 Q1512.125,276.8906 1511.5,276.8906 Q1510.7344,276.8906 1510.0938,277.2188 Q1509.4688,277.5469 1508.9688,278.2969 Q1508.4844,279.0469 1508.4844,280.0781 L1508.4844,281.1719 Q1508.4844,282.4063 1509.375,283.2344 Q1510.2656,284.0469 1511.8594,284.0469 Q1512.7969,284.0469 1513.4531,283.7969 Q1513.8438,283.6406 1514.2656,283.2031 Q1514.5313,282.9375 1514.6719,282.8594 Q1514.8281,282.7813 1515.0313,282.7813 Q1515.3594,282.7813 1515.6094,283.0469 Q1515.875,283.2969 1515.875,283.6406 Q1515.875,283.9844 1515.5313,284.3906 Q1515.0313,284.9688 1514.2344,285.2969 Q1513.1563,285.75 1511.8594,285.75 Q1510.3438,285.75 1509.1406,285.125 Q1508.1563,284.625 1507.4688,283.5625 Q1506.7813,282.4844 1506.7813,281.2031 L1506.7813,280.0469 Q1506.7813,278.7188 1507.3906,277.5781 Q1508.0156,276.4219 1509.1094,275.8125 Q1510.2031,275.1875 1511.4375,275.1875 Q1512.1719,275.1875 1512.8125,275.3594 Q1513.4688,275.5156 1514.0156,275.875 Z " fill="#000000"/><text fill="#000000" font-family="sans-serif" font-size="14" lengthAdjust="spacing" textLength="79" x="1531.75" y="285.7969">Repositories</text><line style="stroke:#181818;stroke-width:0.5;" x1="1379" x2="1731" y1="296" y2="296"/><line style="stroke:#181818;stroke-width:0.5;" x1="1379" x2="1731" y1="304" y2="304"/><text fill="#000000" font-family="sans-serif" font-size="14" lengthAdjust="spacing" textLength="215" x="1384" y="323.1074">+static getInstance(): Repositories</text><text fill="#000000" font-family="sans-serif" font-size="14" lengthAdjust="spacing" textLength="296" x="1384" y="341.7285">+getToDoListRepository(): ToDoListRepository</text><text fill="#000000" font-family="sans-serif" font-size="14" lengthAdjust="spacing" textLength="342" x="1384" y="360.3496">+getGreenSpaceRepository(): GreenSpaceRepository</text><text fill="#000000" font-family="sans-serif" font-size="14" lengthAdjust="spacing" textLength="280" x="1384" y="378.9707">+getAgendaRepository(): AgendaRepository</text></g><!--link ApplicationSession to UserSession--><g id="link_ApplicationSession_UserSession"><path codeLine="134" d="M773.8,367.72 C793.16,404.76 818.281,452.8324 836.081,486.8924 " fill="none" id="ApplicationSession-to-UserSession" style="stroke:#181818;stroke-width:1.0;"/><polygon fill="#181818" points="838.86,492.21,838.2365,482.3809,836.5441,487.7787,831.1464,486.0863,838.86,492.21" style="stroke:#181818;stroke-width:1.0;"/><text fill="#000000" font-family="sans-serif" font-size="13" lengthAdjust="spacing" textLength="72" x="809" y="431.0283">userSession</text></g><!--link AgendaController to ApplicationSession--><g id="link_AgendaController_ApplicationSession"><path codeLine="135" d="M901.93,185.09 C865.74,218.61 830.602,251.183 801.212,278.403 " fill="none" id="AgendaController-to-ApplicationSession" style="stroke:#181818;stroke-width:1.0;stroke-dasharray:7.0,7.0;"/><polygon fill="#181818" points="796.81,282.48,806.1311,279.2992,800.4784,279.0825,800.695,273.4298,796.81,282.48" style="stroke:#181818;stroke-width:1.0;"/><text fill="#000000" font-family="sans-serif" font-size="13" lengthAdjust="spacing" textLength="28" x="869" y="230.0283">uses</text></g><!--link AgendaController to UserSession--><g id="link_AgendaController_UserSession"><path codeLine="136" d="M970.48,185.33 C949.59,253.78 919.2,350.83 890,435 C883.38,454.09 877.5772,469.6412 871.0272,486.6412 " fill="none" id="AgendaController-to-UserSession" style="stroke:#181818;stroke-width:1.0;stroke-dasharray:7.0,7.0;"/><polygon fill="#181818" points="868.87,492.24,875.8383,485.2799,870.6677,487.5743,868.3732,482.4037,868.87,492.24" style="stroke:#181818;stroke-width:1.0;"/><text fill="#000000" font-family="sans-serif" font-size="13" lengthAdjust="spacing" textLength="28" x="947" y="330.5283">uses</text></g><!--link AgendaController to Repositories--><g id="link_AgendaController_Repositories"><path codeLine="137" d="M1213.54,185.09 C1278.33,211.45 1342.3025,237.4686 1401.6025,261.5986 " fill="none" id="AgendaController-to-Repositories" style="stroke:#181818;stroke-width:1.0;stroke-dasharray:7.0,7.0;"/><polygon fill="#181818" points="1407.16,263.86,1400.3314,256.7628,1402.5287,261.9755,1397.3161,264.1729,1407.16,263.86" style="stroke:#181818;stroke-width:1.0;"/><text fill="#000000" font-family="sans-serif" font-size="13" lengthAdjust="spacing" textLength="49" x="1326" y="230.0283">instance</text></g><!--link AgendaUI to AgendaController--><g id="link_AgendaUI_AgendaController"><path codeLine="138" d="M413.18,96 C433.79,96 449.32,96 471.44,96 " fill="none" id="AgendaUI-to-AgendaController" style="stroke:#181818;stroke-width:1.0;stroke-dasharray:7.0,7.0;"/><polygon fill="#181818" points="477.44,96,468.44,92,472.44,96,468.44,100,477.44,96" style="stroke:#181818;stroke-width:1.0;"/><text fill="#000000" font-family="sans-serif" font-size="13" lengthAdjust="spacing" textLength="28" x="431.25" y="89.0283">uses</text></g><!--link AgendaController to Agenda--><g id="link_AgendaController_Agenda"><path codeLine="139" d="M1021.07,185.24 C1030.45,226.98 1039,277.71 1039,324 C1039,324 1039,324 1039,953 C1039,1018.97 1043.16,1039.22 1075,1097 C1100.12,1142.58 1132.1808,1181.5241 1168.1508,1218.0641 " fill="none" id="AgendaController-to-Agenda" style="stroke:#181818;stroke-width:1.0;"/><polygon fill="#181818" points="1172.36,1222.34,1168.8968,1213.1201,1168.8524,1218.7768,1163.1957,1218.7323,1172.36,1222.34" style="stroke:#181818;stroke-width:1.0;"/></g><!--link Repositories to OrganizationRepository--><g id="link_Repositories_OrganizationRepository"><path codeLine="140" d="M1702.41,386.11 C1763.58,411.05 1828.844,437.6747 1890.014,462.6147 " fill="none" id="Repositories-to-OrganizationRepository" style="stroke:#181818;stroke-width:1.0;"/><polygon fill="#181818" points="1895.57,464.88,1888.7462,457.7782,1890.94,462.9923,1885.7259,465.1861,1895.57,464.88" style="stroke:#181818;stroke-width:1.0;"/></g><!--link OrganizationRepository to Organization--><g id="link_OrganizationRepository_Organization"><path codeLine="141" d="M2070.16,587.3 C2095.81,644.23 2132.7958,726.3394 2166.5558,801.2894 " fill="none" id="OrganizationRepository-to-Organization" style="stroke:#181818;stroke-width:1.0;"/><polygon fill="#181818" points="2169.02,806.76,2168.9709,796.9113,2166.9665,802.2011,2161.6767,800.1968,2169.02,806.76" style="stroke:#181818;stroke-width:1.0;"/></g><!--link Organization to ToDoList--><g id="link_Organization_ToDoList"><path codeLine="142" d="M2444.3,1097.22 C2481.81,1122.95 2516.0715,1146.447 2553.9615,1172.427 " fill="none" id="Organization-to-ToDoList" style="stroke:#181818;stroke-width:1.0;"/><polygon fill="#181818" points="2558.91,1175.82,2553.7493,1167.4315,2554.7863,1172.9925,2549.2253,1174.0295,2558.91,1175.82" style="stroke:#181818;stroke-width:1.0;"/><text fill="#000000" font-family="sans-serif" font-size="13" lengthAdjust="spacing" textLength="165" x="2509" y="1142.0283">gets available to-do list entry</text></g><!--link Organization to Agenda--><g id="link_Organization_Agenda"><path codeLine="143" d="M1875.42,1097.08 C1771.73,1138.75 1665.9974,1181.233 1568.9874,1220.213 " fill="none" id="Organization-to-Agenda" style="stroke:#181818;stroke-width:1.0;"/><polygon fill="#181818" points="1563.42,1222.45,1573.2624,1222.806,1568.0595,1220.5858,1570.2797,1215.3828,1563.42,1222.45" style="stroke:#181818;stroke-width:1.0;"/><text fill="#000000" font-family="sans-serif" font-size="13" lengthAdjust="spacing" textLength="124" x="1794" y="1142.0283">Creates agenda entry</text></g><!--link Organization to GreenSpace--><g id="link_Organization_GreenSpace"><path codeLine="144" d="M2155.09,1097.22 C2124.55,1153.03 2093.9005,1209.0566 2068.9505,1254.6466 " fill="none" id="Organization-to-GreenSpace" style="stroke:#181818;stroke-width:1.0;"/><polygon fill="#181818" points="2066.07,1259.91,2073.8996,1253.9353,2068.4704,1255.5239,2066.8818,1250.0947,2066.07,1259.91" style="stroke:#181818;stroke-width:1.0;"/><text fill="#000000" font-family="sans-serif" font-size="13" lengthAdjust="spacing" textLength="158" x="2138" y="1142.0283">gets available greenSpaces</text></g><!--link ToDoListRepository to ToDoList--><g id="link_ToDoListRepository_ToDoList"><path codeLine="145" d="M2857.83,777.05 C2865.42,786.32 2872.02,796.32 2877,807 C2931.36,923.52 2900.7018,1062.5953 2859.6018,1170.1453 " fill="none" id="ToDoListRepository-to-ToDoList" style="stroke:#181818;stroke-width:1.0;"/><polygon fill="#181818" points="2857.46,1175.75,2864.4092,1168.7708,2859.2449,1171.0794,2856.9363,1165.9151,2857.46,1175.75" style="stroke:#181818;stroke-width:1.0;"/></g><!--link GreenSpaceRepository to GreenSpace--><g id="link_GreenSpaceRepository_GreenSpace"><path codeLine="146" d="M1543.87,758.17 C1531.85,841.67 1522.64,993.99 1591,1097 C1653.19,1190.71 1760.3762,1247.3059 1855.7962,1282.2659 " fill="none" id="GreenSpaceRepository-to-GreenSpace" style="stroke:#181818;stroke-width:1.0;"/><polygon fill="#181818" points="1861.43,1284.33,1854.3554,1277.478,1856.7352,1282.6099,1851.6033,1284.9897,1861.43,1284.33" style="stroke:#181818;stroke-width:1.0;"/></g><!--link AgendaRepository to Agenda--><g id="link_AgendaRepository_Agenda"><path codeLine="147" d="M1297,1013.07 C1297,1069.23 1297,1148.37 1297,1216.2 " fill="none" id="AgendaRepository-to-Agenda" style="stroke:#181818;stroke-width:1.0;"/><polygon fill="#181818" points="1297,1222.2,1301,1213.2,1297,1217.2,1293,1213.2,1297,1222.2" style="stroke:#181818;stroke-width:1.0;"/></g><!--link Repositories to ToDoListRepository--><g id="link_Repositories_ToDoListRepository"><path codeLine="148" d="M1732.33,343.75 C1886.76,362.75 2115.05,399.42 2305,465 C2416.51,503.5 2529.3551,563.4134 2615.3651,613.8834 " fill="none" id="Repositories-to-ToDoListRepository" style="stroke:#181818;stroke-width:1.0;"/><polygon fill="#181818" points="2620.54,616.92,2614.8021,608.9152,2616.2276,614.3895,2610.7533,615.8151,2620.54,616.92" style="stroke:#181818;stroke-width:1.0;"/></g><!--link Repositories to GreenSpaceRepository--><g id="link_Repositories_GreenSpaceRepository"><path codeLine="149" d="M1555,386.27 C1555,455.07 1555,560.96 1555,629.76 " fill="none" id="Repositories-to-GreenSpaceRepository" style="stroke:#181818;stroke-width:1.0;"/><polygon fill="#181818" points="1555,635.76,1559,626.76,1555,630.76,1551,626.76,1555,635.76" style="stroke:#181818;stroke-width:1.0;"/></g><!--link Repositories to AgendaRepository--><g id="link_Repositories_AgendaRepository"><path codeLine="150" d="M1500.11,386.05 C1452.49,441.71 1385.73,528.96 1350,617 C1313.13,707.85 1302.1088,816.3074 1298.6888,884.9074 " fill="none" id="Repositories-to-AgendaRepository" style="stroke:#181818;stroke-width:1.0;"/><polygon fill="#181818" points="1298.39,890.9,1302.8332,882.1103,1298.639,885.9062,1294.8431,881.712,1298.39,890.9" style="stroke:#181818;stroke-width:1.0;"/></g><!--SRC=[jLZRRjis6BxNK-XIGPrYryPW84sCBS3M3dFo0BJqHn52anf9fNE7llju4C-aanLORoh_1_wdZn_9y9U9p8YXKpkZ_WMDS11d32s3NY0oOcYuC-3FQA1V9pAsJmZpK8Cd0k8yGpjJV5O_IZhA10taFKQStmZ1fkCYuBwdv31zW_Qdfj6Qze7UqTycBjf_cbR-ksu5uYztm7ispMAYPDiUf2yPL-t2HY3zEP72txCi18QxXI7ZD16nwaO6G0woQlYCJf0uSe74mjCO7DZ-X2Riv5hnmUNQLNBSfEbjofbjAabjadmsUIfNQoeZY8SuYUugAaERF9fqIgfzafYoiKtJ1hz4APQMEEXaYt5jsfcIExUuL6dtIgUX-PxYua-OAPy4PMUFa5KbdTL_FrlJdPqJ6eRE6ctTIZB45zqfX0CNb_CDnbQgQqgMDdRBF201LhedWfqx8nlqZoYQBiZuFKra-7HE9rQ1qQL4pKAklpTaIEQK8QO6jhn4rtk_fEivoVVE2H798-MTubVeI0JmabE0wHhKVW_S0dqXum9UVFqMCTuymemtt0OhXkC87KFaUBd7JcvhXXVL0b4Z2fwkn1kvbGVqJfgyI7gEaoHiPKJQ8wm-ovIufcwYruclHcYLM2dJ_JTQUvkQza5OFP2eo39xVLyR_OMDY4pVD2iMq4G3jSLJwE8GvK0JQLNeKF3fl3_Dc9u1EllHmlfnzOCh6MYPibgDi3TMKk0F9L6HLyNEN6A6ht2KJKkbypCb6HGZyZ2oLoG-BwSZi4IkEsrBtBacyL2jmBFJUuExCGH9TzdQjZ57IZ4WigxAtp4B4wfde0u4-MtxpU09c3nr9SPNoU3Hx6GJUQBi935Pq0dedydK9qfvEBV3UbXlse4kHtb_wocNjmaL_bQcCIgSYk37fgtMOGj6nC7cLyJho77sm_0Em8P0wR6SU-THPAYaiBEGLjWzPSmYVZO6stM5a9UjSSZ9HkRvEBOnN1oSKrNoZvmJEhwbyjId60DBgl3bRRE2asjCQ9hVUZ923yrBnrxCs3x1pWx7GDQepGtc_sBrZOGoElt1gCmDoMt-4FowEBtmECslmDNpLPqUmTLiAdd_m7N8fFTuxqQSFn32qVkMRxCXsD5Nsn9Fx_6-gxu0sABFnk2IoU2l1RWu09R3KMp7UqI8vZhp8USZtrxh4qGzreBYrTtVLppFM1AGMkG0d7kw_w0dFFMgrVT4VakUKrda3duajmkJV2XMkR9MrrThvc86GXUiyfHmFWxrSjHlP1YQvd3nsqVPLdPX0itOfxWLFHqb5A1xbjA2BAifTFxwUXSrPwlnP_kNyT37ZxlI_BGNBvjdgrViedOho9ZsDcw3gD2fOsr1LPOHDj6wIbw-WZMLcrdg4TbfhViZmrODWxVeLG8AgGDKqEk1jbZfG75XxhlUkxVjhUPDlkxocddmTig21G-Hfl2-3JDjYY-QE42JdQINUbe0TMPJ175cbG7tNm00]--></g></svg>