<?xml version="1.0" encoding="us-ascii" standalone="no"?><svg xmlns="http://www.w3.org/2000/svg" xmlns:xlink="http://www.w3.org/1999/xlink" contentStyleType="text/css" height="1192.8px" preserveAspectRatio="none" style="width:2364px;height:1192px;background:#FFFFFF;" version="1.1" viewBox="0 0 2364 1192" width="2364.8px" zoomAndPan="magnify"><defs/><g><!--class ToDoList--><g id="elem_ToDoList"><rect codeLine="8" fill="#F1F1F1" height="246.9563" id="ToDoList" rx="2" ry="2" style="stroke:#181818;stroke-width:0.4000000000000001;" width="677.6" x="1421.2" y="940.8"/><ellipse cx="1733.8" cy="953.6" fill="#ADD1B2" rx="8.8" ry="8.8" style="stroke:#181818;stroke-width:0.8000000000000002;"/><path d="M1736.0125,950.3 Q1736.1375,950.125 1736.2875,950.0375 Q1736.4375,949.95 1736.6125,949.95 Q1736.9125,949.95 1737.1,950.1625 Q1737.2875,950.3625 1737.2875,950.85 L1737.2875,952.0125 Q1737.2875,952.5 1737.1,952.7125 Q1736.9125,952.925 1736.6125,952.925 Q1736.3375,952.925 1736.175,952.7625 Q1736.0125,952.6125 1735.925,952.2 Q1735.8875,951.9125 1735.7375,951.7625 Q1735.475,951.4625 1734.9875,951.2875 Q1734.5,951.1125 1734,951.1125 Q1733.3875,951.1125 1732.875,951.375 Q1732.375,951.6375 1731.975,952.2375 Q1731.5875,952.8375 1731.5875,953.6625 L1731.5875,954.5375 Q1731.5875,955.525 1732.3,956.1875 Q1733.0125,956.8375 1734.2875,956.8375 Q1735.0375,956.8375 1735.5625,956.6375 Q1735.875,956.5125 1736.2125,956.1625 Q1736.425,955.95 1736.5375,955.8875 Q1736.6625,955.825 1736.825,955.825 Q1737.0875,955.825 1737.2875,956.0375 Q1737.5,956.2375 1737.5,956.5125 Q1737.5,956.7875 1737.225,957.1125 Q1736.825,957.575 1736.1875,957.8375 Q1735.325,958.2 1734.2875,958.2 Q1733.075,958.2 1732.1125,957.7 Q1731.325,957.3 1730.775,956.45 Q1730.225,955.5875 1730.225,954.5625 L1730.225,953.6375 Q1730.225,952.575 1730.7125,951.6625 Q1731.2125,950.7375 1732.0875,950.25 Q1732.9625,949.75 1733.95,949.75 Q1734.5375,949.75 1735.05,949.8875 Q1735.575,950.0125 1736.0125,950.3 Z " fill="#000000"/><text fill="#000000" font-family="sans-serif" font-size="11.2" lengthAdjust="spacing" textLength="45.6" x="1750.2" y="958.2375">ToDoList</text><line style="stroke:#181818;stroke-width:0.4000000000000001;" x1="1422" x2="2098" y1="966.4" y2="966.4"/><text fill="#000000" font-family="sans-serif" font-size="11.2" lengthAdjust="spacing" textLength="117.6" x="1426" y="981.6859">-taskDescription: String</text><text fill="#000000" font-family="sans-serif" font-size="11.2" lengthAdjust="spacing" textLength="80.8" x="1426" y="996.5828">-urgency: String</text><text fill="#000000" font-family="sans-serif" font-size="11.2" lengthAdjust="spacing" textLength="111.2" x="1426" y="1011.4797">-expectedDuration: int</text><text fill="#000000" font-family="sans-serif" font-size="11.2" lengthAdjust="spacing" textLength="130.4" x="1426" y="1026.3766">-greenSpaceName: String</text><text fill="#000000" font-family="sans-serif" font-size="11.2" lengthAdjust="spacing" textLength="70.4" x="1426" y="1041.2734">-status: String</text><text fill="#000000" font-family="sans-serif" font-size="11.2" lengthAdjust="spacing" textLength="89.6" x="1426" y="1056.1703">-userEmail: String</text><line style="stroke:#181818;stroke-width:0.4000000000000001;" x1="1422" x2="2098" y1="1062.1813" y2="1062.1813"/><text fill="#000000" font-family="sans-serif" font-size="11.2" lengthAdjust="spacing" textLength="668" x="1426" y="1077.4672">+ToDoList(taskDescription: String, urgency: String, expectedDuration: int, greenSpaceName: String, status: String, userEmail: String)</text><text fill="#000000" font-family="sans-serif" font-size="11.2" lengthAdjust="spacing" textLength="148" x="1426" y="1092.3641">+getTaskDescription(): String</text><text fill="#000000" font-family="sans-serif" font-size="11.2" lengthAdjust="spacing" textLength="108" x="1426" y="1107.2609">+getUrgency(): String</text><text fill="#000000" font-family="sans-serif" font-size="11.2" lengthAdjust="spacing" textLength="138.4" x="1426" y="1122.1578">+getExpectedDuration(): int</text><text fill="#000000" font-family="sans-serif" font-size="11.2" lengthAdjust="spacing" textLength="159.2" x="1426" y="1137.0547">+getGreenSpaceName(): String</text><text fill="#000000" font-family="sans-serif" font-size="11.2" lengthAdjust="spacing" textLength="98.4" x="1426" y="1151.9516">+getStatus(): String</text><text fill="#000000" font-family="sans-serif" font-size="11.2" lengthAdjust="spacing" textLength="116.8" x="1426" y="1166.8484">+getUserEmail(): String</text><text fill="#000000" font-family="sans-serif" font-size="11.2" lengthAdjust="spacing" textLength="155.2" x="1426" y="1181.7453">+setStatus(status: String): void</text></g><!--class ToDoListRepository--><g id="elem_ToDoListRepository"><rect codeLine="26" fill="#F1F1F1" height="127.7813" id="ToDoListRepository" rx="2" ry="2" style="stroke:#181818;stroke-width:0.4000000000000001;" width="519.2" x="1840.4" y="493.6"/><ellipse cx="2046.6" cy="506.4" fill="#ADD1B2" rx="8.8" ry="8.8" style="stroke:#181818;stroke-width:0.8000000000000002;"/><path d="M2048.8125,503.1 Q2048.9375,502.925 2049.0875,502.8375 Q2049.2375,502.75 2049.4125,502.75 Q2049.7125,502.75 2049.9,502.9625 Q2050.0875,503.1625 2050.0875,503.65 L2050.0875,504.8125 Q2050.0875,505.3 2049.9,505.5125 Q2049.7125,505.725 2049.4125,505.725 Q2049.1375,505.725 2048.975,505.5625 Q2048.8125,505.4125 2048.725,505 Q2048.6875,504.7125 2048.5375,504.5625 Q2048.275,504.2625 2047.7875,504.0875 Q2047.3,503.9125 2046.8,503.9125 Q2046.1875,503.9125 2045.675,504.175 Q2045.175,504.4375 2044.775,505.0375 Q2044.3875,505.6375 2044.3875,506.4625 L2044.3875,507.3375 Q2044.3875,508.325 2045.1,508.9875 Q2045.8125,509.6375 2047.0875,509.6375 Q2047.8375,509.6375 2048.3625,509.4375 Q2048.675,509.3125 2049.0125,508.9625 Q2049.225,508.75 2049.3375,508.6875 Q2049.4625,508.625 2049.625,508.625 Q2049.8875,508.625 2050.0875,508.8375 Q2050.3,509.0375 2050.3,509.3125 Q2050.3,509.5875 2050.025,509.9125 Q2049.625,510.375 2048.9875,510.6375 Q2048.125,511 2047.0875,511 Q2045.875,511 2044.9125,510.5 Q2044.125,510.1 2043.575,509.25 Q2043.025,508.3875 2043.025,507.3625 L2043.025,506.4375 Q2043.025,505.375 2043.5125,504.4625 Q2044.0125,503.5375 2044.8875,503.05 Q2045.7625,502.55 2046.75,502.55 Q2047.3375,502.55 2047.85,502.6875 Q2048.375,502.8125 2048.8125,503.1 Z " fill="#000000"/><text fill="#000000" font-family="sans-serif" font-size="11.2" lengthAdjust="spacing" textLength="100" x="2063" y="511.0375">ToDoListRepository</text><line style="stroke:#181818;stroke-width:0.4000000000000001;" x1="1841.2" x2="2358.8" y1="519.2" y2="519.2"/><text fill="#000000" font-family="sans-serif" font-size="11.2" lengthAdjust="spacing" textLength="133.6" x="1845.2" y="534.4859">-toDoLists: List&lt;ToDoList&gt;</text><line style="stroke:#181818;stroke-width:0.4000000000000001;" x1="1841.2" x2="2358.8" y1="540.4969" y2="540.4969"/><text fill="#000000" font-family="sans-serif" font-size="11.2" lengthAdjust="spacing" textLength="234.4" x="1845.2" y="555.7828">+add(toDoList: ToDoList): Optional&lt;ToDoList&gt;</text><text fill="#000000" font-family="sans-serif" font-size="11.2" lengthAdjust="spacing" textLength="176" x="1845.2" y="570.6797">+getAllToDoLists(): List&lt;ToDoList&gt;</text><text fill="#000000" font-family="sans-serif" font-size="11.2" lengthAdjust="spacing" textLength="268.8" x="1845.2" y="585.5766">+updateToDoListEntry(updatedEntry: ToDoList): void</text><text fill="#000000" font-family="sans-serif" font-size="11.2" lengthAdjust="spacing" textLength="348" x="1845.2" y="600.4734">+findByTaskDescription(taskDescription: String): Optional&lt;ToDoList&gt;</text><text fill="#000000" font-family="sans-serif" font-size="11.2" lengthAdjust="spacing" textLength="509.6" x="1845.2" y="615.3703">+findByUserEmailAndGreenSpaceName(userEmail: String, greenSpaceName: String): List&lt;ToDoList&gt;</text></g><!--class GreenSpace--><g id="elem_GreenSpace"><rect codeLine="36" fill="#F1F1F1" height="112.8844" id="GreenSpace" rx="2" ry="2" style="stroke:#181818;stroke-width:0.4000000000000001;" width="266.4" x="1790.8" y="705.2"/><ellipse cx="1888.6" cy="718" fill="#ADD1B2" rx="8.8" ry="8.8" style="stroke:#181818;stroke-width:0.8000000000000002;"/><path d="M1890.8125,714.7 Q1890.9375,714.525 1891.0875,714.4375 Q1891.2375,714.35 1891.4125,714.35 Q1891.7125,714.35 1891.9,714.5625 Q1892.0875,714.7625 1892.0875,715.25 L1892.0875,716.4125 Q1892.0875,716.9 1891.9,717.1125 Q1891.7125,717.325 1891.4125,717.325 Q1891.1375,717.325 1890.975,717.1625 Q1890.8125,717.0125 1890.725,716.6 Q1890.6875,716.3125 1890.5375,716.1625 Q1890.275,715.8625 1889.7875,715.6875 Q1889.3,715.5125 1888.8,715.5125 Q1888.1875,715.5125 1887.675,715.775 Q1887.175,716.0375 1886.775,716.6375 Q1886.3875,717.2375 1886.3875,718.0625 L1886.3875,718.9375 Q1886.3875,719.925 1887.1,720.5875 Q1887.8125,721.2375 1889.0875,721.2375 Q1889.8375,721.2375 1890.3625,721.0375 Q1890.675,720.9125 1891.0125,720.5625 Q1891.225,720.35 1891.3375,720.2875 Q1891.4625,720.225 1891.625,720.225 Q1891.8875,720.225 1892.0875,720.4375 Q1892.3,720.6375 1892.3,720.9125 Q1892.3,721.1875 1892.025,721.5125 Q1891.625,721.975 1890.9875,722.2375 Q1890.125,722.6 1889.0875,722.6 Q1887.875,722.6 1886.9125,722.1 Q1886.125,721.7 1885.575,720.85 Q1885.025,719.9875 1885.025,718.9625 L1885.025,718.0375 Q1885.025,716.975 1885.5125,716.0625 Q1886.0125,715.1375 1886.8875,714.65 Q1887.7625,714.15 1888.75,714.15 Q1889.3375,714.15 1889.85,714.2875 Q1890.375,714.4125 1890.8125,714.7 Z " fill="#000000"/><text fill="#000000" font-family="sans-serif" font-size="11.2" lengthAdjust="spacing" textLength="64" x="1905" y="722.6375">GreenSpace</text><line style="stroke:#181818;stroke-width:0.4000000000000001;" x1="1791.6" x2="2056.4" y1="730.8" y2="730.8"/><text fill="#000000" font-family="sans-serif" font-size="11.2" lengthAdjust="spacing" textLength="68" x="1795.6" y="746.0859">-name: String</text><text fill="#000000" font-family="sans-serif" font-size="11.2" lengthAdjust="spacing" textLength="112" x="1795.6" y="760.9828">-managerEmail: String</text><line style="stroke:#181818;stroke-width:0.4000000000000001;" x1="1791.6" x2="2056.4" y1="766.9938" y2="766.9938"/><text fill="#000000" font-family="sans-serif" font-size="11.2" lengthAdjust="spacing" textLength="256.8" x="1795.6" y="782.2797">+GreenSpace(name: String, managerEmail: String)</text><text fill="#000000" font-family="sans-serif" font-size="11.2" lengthAdjust="spacing" textLength="95.2" x="1795.6" y="797.1766">+getName(): String</text><text fill="#000000" font-family="sans-serif" font-size="11.2" lengthAdjust="spacing" textLength="138.4" x="1795.6" y="812.0734">+getManagerEmail(): String</text></g><!--class GreenSpaceRepository--><g id="elem_GreenSpaceRepository"><rect codeLine="45" fill="#F1F1F1" height="97.9875" id="GreenSpaceRepository" rx="2" ry="2" style="stroke:#181818;stroke-width:0.4000000000000001;" width="300.8" x="1578.4" y="372"/><ellipse cx="1666.2" cy="384.8" fill="#ADD1B2" rx="8.8" ry="8.8" style="stroke:#181818;stroke-width:0.8000000000000002;"/><path d="M1668.4125,381.5 Q1668.5375,381.325 1668.6875,381.2375 Q1668.8375,381.15 1669.0125,381.15 Q1669.3125,381.15 1669.5,381.3625 Q1669.6875,381.5625 1669.6875,382.05 L1669.6875,383.2125 Q1669.6875,383.7 1669.5,383.9125 Q1669.3125,384.125 1669.0125,384.125 Q1668.7375,384.125 1668.575,383.9625 Q1668.4125,383.8125 1668.325,383.4 Q1668.2875,383.1125 1668.1375,382.9625 Q1667.875,382.6625 1667.3875,382.4875 Q1666.9,382.3125 1666.4,382.3125 Q1665.7875,382.3125 1665.275,382.575 Q1664.775,382.8375 1664.375,383.4375 Q1663.9875,384.0375 1663.9875,384.8625 L1663.9875,385.7375 Q1663.9875,386.725 1664.7,387.3875 Q1665.4125,388.0375 1666.6875,388.0375 Q1667.4375,388.0375 1667.9625,387.8375 Q1668.275,387.7125 1668.6125,387.3625 Q1668.825,387.15 1668.9375,387.0875 Q1669.0625,387.025 1669.225,387.025 Q1669.4875,387.025 1669.6875,387.2375 Q1669.9,387.4375 1669.9,387.7125 Q1669.9,387.9875 1669.625,388.3125 Q1669.225,388.775 1668.5875,389.0375 Q1667.725,389.4 1666.6875,389.4 Q1665.475,389.4 1664.5125,388.9 Q1663.725,388.5 1663.175,387.65 Q1662.625,386.7875 1662.625,385.7625 L1662.625,384.8375 Q1662.625,383.775 1663.1125,382.8625 Q1663.6125,381.9375 1664.4875,381.45 Q1665.3625,380.95 1666.35,380.95 Q1666.9375,380.95 1667.45,381.0875 Q1667.975,381.2125 1668.4125,381.5 Z " fill="#000000"/><text fill="#000000" font-family="sans-serif" font-size="11.2" lengthAdjust="spacing" textLength="118.4" x="1682.6" y="389.4375">GreenSpaceRepository</text><line style="stroke:#181818;stroke-width:0.4000000000000001;" x1="1579.2" x2="1878.4" y1="397.6" y2="397.6"/><text fill="#000000" font-family="sans-serif" font-size="11.2" lengthAdjust="spacing" textLength="172" x="1583.2" y="412.8859">-greenSpaces: List&lt;GreenSpace&gt;</text><line style="stroke:#181818;stroke-width:0.4000000000000001;" x1="1579.2" x2="1878.4" y1="418.8969" y2="418.8969"/><text fill="#000000" font-family="sans-serif" font-size="11.2" lengthAdjust="spacing" textLength="291.2" x="1583.2" y="434.1828">+add(greenSpace: GreenSpace): Optional&lt;GreenSpace&gt;</text><text fill="#000000" font-family="sans-serif" font-size="11.2" lengthAdjust="spacing" textLength="212.8" x="1583.2" y="449.0797">+getAllGreenSpaces(): List&lt;GreenSpace&gt;</text><text fill="#000000" font-family="sans-serif" font-size="11.2" lengthAdjust="spacing" textLength="280.8" x="1583.2" y="463.9766">+findByManagerEmail(email: String): List&lt;GreenSpace&gt;</text></g><!--class Agenda--><g id="elem_Agenda"><rect codeLine="53" fill="#F1F1F1" height="172.4719" id="Agenda" rx="2" ry="2" style="stroke:#181818;stroke-width:0.4000000000000001;" width="516" x="461.2" y="978"/><ellipse cx="696.2" cy="990.8" fill="#ADD1B2" rx="8.8" ry="8.8" style="stroke:#181818;stroke-width:0.8000000000000002;"/><path d="M698.4125,987.5 Q698.5375,987.325 698.6875,987.2375 Q698.8375,987.15 699.0125,987.15 Q699.3125,987.15 699.5,987.3625 Q699.6875,987.5625 699.6875,988.05 L699.6875,989.2125 Q699.6875,989.7 699.5,989.9125 Q699.3125,990.125 699.0125,990.125 Q698.7375,990.125 698.575,989.9625 Q698.4125,989.8125 698.325,989.4 Q698.2875,989.1125 698.1375,988.9625 Q697.875,988.6625 697.3875,988.4875 Q696.9,988.3125 696.4,988.3125 Q695.7875,988.3125 695.275,988.575 Q694.775,988.8375 694.375,989.4375 Q693.9875,990.0375 693.9875,990.8625 L693.9875,991.7375 Q693.9875,992.725 694.7,993.3875 Q695.4125,994.0375 696.6875,994.0375 Q697.4375,994.0375 697.9625,993.8375 Q698.275,993.7125 698.6125,993.3625 Q698.825,993.15 698.9375,993.0875 Q699.0625,993.025 699.225,993.025 Q699.4875,993.025 699.6875,993.2375 Q699.9,993.4375 699.9,993.7125 Q699.9,993.9875 699.625,994.3125 Q699.225,994.775 698.5875,995.0375 Q697.725,995.4 696.6875,995.4 Q695.475,995.4 694.5125,994.9 Q693.725,994.5 693.175,993.65 Q692.625,992.7875 692.625,991.7625 L692.625,990.8375 Q692.625,989.775 693.1125,988.8625 Q693.6125,987.9375 694.4875,987.45 Q695.3625,986.95 696.35,986.95 Q696.9375,986.95 697.45,987.0875 Q697.975,987.2125 698.4125,987.5 Z " fill="#000000"/><text fill="#000000" font-family="sans-serif" font-size="11.2" lengthAdjust="spacing" textLength="39.2" x="712.6" y="995.4375">Agenda</text><line style="stroke:#181818;stroke-width:0.4000000000000001;" x1="462" x2="976.4" y1="1003.6" y2="1003.6"/><text fill="#000000" font-family="sans-serif" font-size="11.2" lengthAdjust="spacing" textLength="117.6" x="466" y="1018.8859">-taskDescription: String</text><text fill="#000000" font-family="sans-serif" font-size="11.2" lengthAdjust="spacing" textLength="130.4" x="466" y="1033.7828">-greenSpaceName: String</text><text fill="#000000" font-family="sans-serif" font-size="11.2" lengthAdjust="spacing" textLength="131.2" x="466" y="1048.6797">-expectedDate: LocalDate</text><text fill="#000000" font-family="sans-serif" font-size="11.2" lengthAdjust="spacing" textLength="70.4" x="466" y="1063.5766">-status: String</text><line style="stroke:#181818;stroke-width:0.4000000000000001;" x1="462" x2="976.4" y1="1069.5875" y2="1069.5875"/><text fill="#000000" font-family="sans-serif" font-size="11.2" lengthAdjust="spacing" textLength="506.4" x="466" y="1084.8734">+Agenda(taskDescription: String, greenSpaceName: String, expectedDate: LocalDate, status: String)</text><text fill="#000000" font-family="sans-serif" font-size="11.2" lengthAdjust="spacing" textLength="148" x="466" y="1099.7703">+getTaskDescription(): String</text><text fill="#000000" font-family="sans-serif" font-size="11.2" lengthAdjust="spacing" textLength="159.2" x="466" y="1114.6672">+getGreenSpaceName(): String</text><text fill="#000000" font-family="sans-serif" font-size="11.2" lengthAdjust="spacing" textLength="158.4" x="466" y="1129.5641">+getExpectedDate(): LocalDate</text><text fill="#000000" font-family="sans-serif" font-size="11.2" lengthAdjust="spacing" textLength="98.4" x="466" y="1144.4609">+getStatus(): String</text></g><!--class OrganizationRepository--><g id="elem_OrganizationRepository"><rect codeLine="65" fill="#F1F1F1" height="97.9875" id="OrganizationRepository" rx="2" ry="2" style="stroke:#181818;stroke-width:0.4000000000000001;" width="390.4" x="1067.2" y="372"/><ellipse cx="1199.8" cy="384.8" fill="#ADD1B2" rx="8.8" ry="8.8" style="stroke:#181818;stroke-width:0.8000000000000002;"/><path d="M1202.0125,381.5 Q1202.1375,381.325 1202.2875,381.2375 Q1202.4375,381.15 1202.6125,381.15 Q1202.9125,381.15 1203.1,381.3625 Q1203.2875,381.5625 1203.2875,382.05 L1203.2875,383.2125 Q1203.2875,383.7 1203.1,383.9125 Q1202.9125,384.125 1202.6125,384.125 Q1202.3375,384.125 1202.175,383.9625 Q1202.0125,383.8125 1201.925,383.4 Q1201.8875,383.1125 1201.7375,382.9625 Q1201.475,382.6625 1200.9875,382.4875 Q1200.5,382.3125 1200,382.3125 Q1199.3875,382.3125 1198.875,382.575 Q1198.375,382.8375 1197.975,383.4375 Q1197.5875,384.0375 1197.5875,384.8625 L1197.5875,385.7375 Q1197.5875,386.725 1198.3,387.3875 Q1199.0125,388.0375 1200.2875,388.0375 Q1201.0375,388.0375 1201.5625,387.8375 Q1201.875,387.7125 1202.2125,387.3625 Q1202.425,387.15 1202.5375,387.0875 Q1202.6625,387.025 1202.825,387.025 Q1203.0875,387.025 1203.2875,387.2375 Q1203.5,387.4375 1203.5,387.7125 Q1203.5,387.9875 1203.225,388.3125 Q1202.825,388.775 1202.1875,389.0375 Q1201.325,389.4 1200.2875,389.4 Q1199.075,389.4 1198.1125,388.9 Q1197.325,388.5 1196.775,387.65 Q1196.225,386.7875 1196.225,385.7625 L1196.225,384.8375 Q1196.225,383.775 1196.7125,382.8625 Q1197.2125,381.9375 1198.0875,381.45 Q1198.9625,380.95 1199.95,380.95 Q1200.5375,380.95 1201.05,381.0875 Q1201.575,381.2125 1202.0125,381.5 Z " fill="#000000"/><text fill="#000000" font-family="sans-serif" font-size="11.2" lengthAdjust="spacing" textLength="118.4" x="1216.2" y="389.4375">OrganizationRepository</text><line style="stroke:#181818;stroke-width:0.4000000000000001;" x1="1068" x2="1456.8" y1="397.6" y2="397.6"/><text fill="#000000" font-family="sans-serif" font-size="11.2" lengthAdjust="spacing" textLength="172" x="1072" y="412.8859">-organizations: List&lt;Organization&gt;</text><line style="stroke:#181818;stroke-width:0.4000000000000001;" x1="1068" x2="1456.8" y1="418.8969" y2="418.8969"/><text fill="#000000" font-family="sans-serif" font-size="11.2" lengthAdjust="spacing" textLength="380.8" x="1072" y="434.1828">+Optional&lt;Organization&gt; getOrganizationByEmployee(Employee employee)</text><text fill="#000000" font-family="sans-serif" font-size="11.2" lengthAdjust="spacing" textLength="365.6" x="1072" y="449.0797">+Optional&lt;Organization&gt; getOrganizationByEmployeeEmail(String email)</text><text fill="#000000" font-family="sans-serif" font-size="11.2" lengthAdjust="spacing" textLength="284.8" x="1072" y="463.9766">+Optional&lt;Organization&gt; add(Organization organization)</text></g><!--class Organization--><g id="elem_Organization"><rect codeLine="72" fill="#F1F1F1" height="232.0594" id="Organization" rx="2" ry="2" style="stroke:#181818;stroke-width:0.4000000000000001;" width="1000.8" x="762" y="645.6"/><ellipse cx="1227" cy="658.4" fill="#ADD1B2" rx="8.8" ry="8.8" style="stroke:#181818;stroke-width:0.8000000000000002;"/><path d="M1229.2125,655.1 Q1229.3375,654.925 1229.4875,654.8375 Q1229.6375,654.75 1229.8125,654.75 Q1230.1125,654.75 1230.3,654.9625 Q1230.4875,655.1625 1230.4875,655.65 L1230.4875,656.8125 Q1230.4875,657.3 1230.3,657.5125 Q1230.1125,657.725 1229.8125,657.725 Q1229.5375,657.725 1229.375,657.5625 Q1229.2125,657.4125 1229.125,657 Q1229.0875,656.7125 1228.9375,656.5625 Q1228.675,656.2625 1228.1875,656.0875 Q1227.7,655.9125 1227.2,655.9125 Q1226.5875,655.9125 1226.075,656.175 Q1225.575,656.4375 1225.175,657.0375 Q1224.7875,657.6375 1224.7875,658.4625 L1224.7875,659.3375 Q1224.7875,660.325 1225.5,660.9875 Q1226.2125,661.6375 1227.4875,661.6375 Q1228.2375,661.6375 1228.7625,661.4375 Q1229.075,661.3125 1229.4125,660.9625 Q1229.625,660.75 1229.7375,660.6875 Q1229.8625,660.625 1230.025,660.625 Q1230.2875,660.625 1230.4875,660.8375 Q1230.7,661.0375 1230.7,661.3125 Q1230.7,661.5875 1230.425,661.9125 Q1230.025,662.375 1229.3875,662.6375 Q1228.525,663 1227.4875,663 Q1226.275,663 1225.3125,662.5 Q1224.525,662.1 1223.975,661.25 Q1223.425,660.3875 1223.425,659.3625 L1223.425,658.4375 Q1223.425,657.375 1223.9125,656.4625 Q1224.4125,655.5375 1225.2875,655.05 Q1226.1625,654.55 1227.15,654.55 Q1227.7375,654.55 1228.25,654.6875 Q1228.775,654.8125 1229.2125,655.1 Z " fill="#000000"/><text fill="#000000" font-family="sans-serif" font-size="11.2" lengthAdjust="spacing" textLength="64" x="1243.4" y="663.0375">Organization</text><line style="stroke:#181818;stroke-width:0.4000000000000001;" x1="762.8" x2="1762" y1="671.2" y2="671.2"/><text fill="#000000" font-family="sans-serif" font-size="11.2" lengthAdjust="spacing" textLength="68" x="766.8" y="686.4859">-name: String</text><text fill="#000000" font-family="sans-serif" font-size="11.2" lengthAdjust="spacing" textLength="77.6" x="766.8" y="701.3828">-website: String</text><text fill="#000000" font-family="sans-serif" font-size="11.2" lengthAdjust="spacing" textLength="72" x="766.8" y="716.2797">-phone: String</text><text fill="#000000" font-family="sans-serif" font-size="11.2" lengthAdjust="spacing" textLength="66.4" x="766.8" y="731.1766">-email: String</text><text fill="#000000" font-family="sans-serif" font-size="11.2" lengthAdjust="spacing" textLength="94.4" x="766.8" y="746.0734">-vatNumber: String</text><text fill="#000000" font-family="sans-serif" font-size="11.2" lengthAdjust="spacing" textLength="141.6" x="766.8" y="760.9703">-List&lt;Employee&gt; employees</text><text fill="#000000" font-family="sans-serif" font-size="11.2" lengthAdjust="spacing" textLength="88.8" x="766.8" y="775.8672">-List&lt;Task&gt; tasks</text><line style="stroke:#181818;stroke-width:0.4000000000000001;" x1="762.8" x2="1762" y1="781.8781" y2="781.8781"/><text fill="#000000" font-family="sans-serif" font-size="11.2" lengthAdjust="spacing" textLength="168.8" x="766.8" y="797.1641">+Organization(vatNumber: String)</text><text fill="#000000" font-family="sans-serif" font-size="11.2" lengthAdjust="spacing" textLength="201.6" x="766.8" y="812.0609">+boolean employs(Employee employee)</text><text fill="#000000" font-family="sans-serif" font-size="11.2" lengthAdjust="spacing" textLength="991.2" x="766.8" y="826.9578">+Optional&lt;Task&gt; createTask(String reference, String description, String informalDescription, String technicalDescription, int duration, double cost, TaskCategory taskCategory, Employee employee)</text><text fill="#000000" font-family="sans-serif" font-size="11.2" lengthAdjust="spacing" textLength="232" x="766.8" y="841.8547">+boolean anyEmployeeHasEmail(String email)</text><text fill="#000000" font-family="sans-serif" font-size="11.2" lengthAdjust="spacing" textLength="228.8" x="766.8" y="856.7516">+boolean addEmployee(Employee employee)</text><text fill="#000000" font-family="sans-serif" font-size="11.2" lengthAdjust="spacing" textLength="108.8" x="766.8" y="871.6484">+Organization clone()</text></g><!--class AgendaRepository--><g id="elem_AgendaRepository"><rect codeLine="88" fill="#F1F1F1" height="97.9875" id="AgendaRepository" rx="2" ry="2" style="stroke:#181818;stroke-width:0.4000000000000001;" width="327.2" x="746.8" y="508.8"/><ellipse cx="860.2" cy="521.6" fill="#ADD1B2" rx="8.8" ry="8.8" style="stroke:#181818;stroke-width:0.8000000000000002;"/><path d="M862.4125,518.3 Q862.5375,518.125 862.6875,518.0375 Q862.8375,517.95 863.0125,517.95 Q863.3125,517.95 863.5,518.1625 Q863.6875,518.3625 863.6875,518.85 L863.6875,520.0125 Q863.6875,520.5 863.5,520.7125 Q863.3125,520.925 863.0125,520.925 Q862.7375,520.925 862.575,520.7625 Q862.4125,520.6125 862.325,520.2 Q862.2875,519.9125 862.1375,519.7625 Q861.875,519.4625 861.3875,519.2875 Q860.9,519.1125 860.4,519.1125 Q859.7875,519.1125 859.275,519.375 Q858.775,519.6375 858.375,520.2375 Q857.9875,520.8375 857.9875,521.6625 L857.9875,522.5375 Q857.9875,523.525 858.7,524.1875 Q859.4125,524.8375 860.6875,524.8375 Q861.4375,524.8375 861.9625,524.6375 Q862.275,524.5125 862.6125,524.1625 Q862.825,523.95 862.9375,523.8875 Q863.0625,523.825 863.225,523.825 Q863.4875,523.825 863.6875,524.0375 Q863.9,524.2375 863.9,524.5125 Q863.9,524.7875 863.625,525.1125 Q863.225,525.575 862.5875,525.8375 Q861.725,526.2 860.6875,526.2 Q859.475,526.2 858.5125,525.7 Q857.725,525.3 857.175,524.45 Q856.625,523.5875 856.625,522.5625 L856.625,521.6375 Q856.625,520.575 857.1125,519.6625 Q857.6125,518.7375 858.4875,518.25 Q859.3625,517.75 860.35,517.75 Q860.9375,517.75 861.45,517.8875 Q861.975,518.0125 862.4125,518.3 Z " fill="#000000"/><text fill="#000000" font-family="sans-serif" font-size="11.2" lengthAdjust="spacing" textLength="93.6" x="876.6" y="526.2375">AgendaRepository</text><line style="stroke:#181818;stroke-width:0.4000000000000001;" x1="747.6" x2="1073.2" y1="534.4" y2="534.4"/><text fill="#000000" font-family="sans-serif" font-size="11.2" lengthAdjust="spacing" textLength="124" x="751.6" y="549.6859">-agendas: List&lt;Agenda&gt;</text><line style="stroke:#181818;stroke-width:0.4000000000000001;" x1="747.6" x2="1073.2" y1="555.6969" y2="555.6969"/><text fill="#000000" font-family="sans-serif" font-size="11.2" lengthAdjust="spacing" textLength="218.4" x="751.6" y="570.9828">+add(agenda: Agenda): Optional&lt;Agenda&gt;</text><text fill="#000000" font-family="sans-serif" font-size="11.2" lengthAdjust="spacing" textLength="163.2" x="751.6" y="585.8797">+getAllAgendas(): List&lt;Agenda&gt;</text><text fill="#000000" font-family="sans-serif" font-size="11.2" lengthAdjust="spacing" textLength="317.6" x="751.6" y="600.7766">+findByGreenSpace(greenSpace: GreenSpace): List&lt;Agenda&gt;</text></g><!--class AgendaController--><g id="elem_AgendaController"><rect codeLine="96" fill="#F1F1F1" height="142.6781" id="AgendaController" rx="2" ry="2" style="stroke:#181818;stroke-width:0.4000000000000001;" width="831.2" x="382" y="5.6"/><ellipse cx="749.8" cy="18.4" fill="#ADD1B2" rx="8.8" ry="8.8" style="stroke:#181818;stroke-width:0.8000000000000002;"/><path d="M752.0125,15.1 Q752.1375,14.925 752.2875,14.8375 Q752.4375,14.75 752.6125,14.75 Q752.9125,14.75 753.1,14.9625 Q753.2875,15.1625 753.2875,15.65 L753.2875,16.8125 Q753.2875,17.3 753.1,17.5125 Q752.9125,17.725 752.6125,17.725 Q752.3375,17.725 752.175,17.5625 Q752.0125,17.4125 751.925,17 Q751.8875,16.7125 751.7375,16.5625 Q751.475,16.2625 750.9875,16.0875 Q750.5,15.9125 750,15.9125 Q749.3875,15.9125 748.875,16.175 Q748.375,16.4375 747.975,17.0375 Q747.5875,17.6375 747.5875,18.4625 L747.5875,19.3375 Q747.5875,20.325 748.3,20.9875 Q749.0125,21.6375 750.2875,21.6375 Q751.0375,21.6375 751.5625,21.4375 Q751.875,21.3125 752.2125,20.9625 Q752.425,20.75 752.5375,20.6875 Q752.6625,20.625 752.825,20.625 Q753.0875,20.625 753.2875,20.8375 Q753.5,21.0375 753.5,21.3125 Q753.5,21.5875 753.225,21.9125 Q752.825,22.375 752.1875,22.6375 Q751.325,23 750.2875,23 Q749.075,23 748.1125,22.5 Q747.325,22.1 746.775,21.25 Q746.225,20.3875 746.225,19.3625 L746.225,18.4375 Q746.225,17.375 746.7125,16.4625 Q747.2125,15.5375 748.0875,15.05 Q748.9625,14.55 749.95,14.55 Q750.5375,14.55 751.05,14.6875 Q751.575,14.8125 752.0125,15.1 Z " fill="#000000"/><text fill="#000000" font-family="sans-serif" font-size="11.2" lengthAdjust="spacing" textLength="88.8" x="766.2" y="23.0375">AgendaController</text><line style="stroke:#181818;stroke-width:0.4000000000000001;" x1="382.8" x2="1212.4" y1="31.2" y2="31.2"/><text fill="#000000" font-family="sans-serif" font-size="11.2" lengthAdjust="spacing" textLength="196.8" x="386.8" y="46.4859">-agendaRepository: AgendaRepository</text><text fill="#000000" font-family="sans-serif" font-size="11.2" lengthAdjust="spacing" textLength="206.4" x="386.8" y="61.3828">-toDoListRepository: ToDoListRepository</text><text fill="#000000" font-family="sans-serif" font-size="11.2" lengthAdjust="spacing" textLength="244.8" x="386.8" y="76.2797">-greenSpaceRepository: GreenSpaceRepository</text><line style="stroke:#181818;stroke-width:0.4000000000000001;" x1="382.8" x2="1212.4" y1="82.2906" y2="82.2906"/><text fill="#000000" font-family="sans-serif" font-size="11.2" lengthAdjust="spacing" textLength="103.2" x="386.8" y="97.5766">+AgendaController()</text><text fill="#000000" font-family="sans-serif" font-size="11.2" lengthAdjust="spacing" textLength="821.6" x="386.8" y="112.4734">+createAgendaEntry(taskDescription: String, greenSpaceName: String, expectedDate: LocalDate, status: String, teamProposal: TeamProposal): Optional&lt;Agenda&gt;</text><text fill="#000000" font-family="sans-serif" font-size="11.2" lengthAdjust="spacing" textLength="286.4" x="386.8" y="127.3703">+getGreenSpaces(userEmail: String): List&lt;GreenSpace&gt;</text><text fill="#000000" font-family="sans-serif" font-size="11.2" lengthAdjust="spacing" textLength="412" x="386.8" y="142.2672">+getToDoListEntries(userEmail: String, greenSpaceName: String): List&lt;ToDoList&gt;</text></g><!--class AgendaUI--><g id="elem_AgendaUI"><rect codeLine="107" fill="#F1F1F1" height="127.7813" id="AgendaUI" rx="2" ry="2" style="stroke:#181818;stroke-width:0.4000000000000001;" width="324.8" x="5.6" y="12.8"/><ellipse cx="140.2" cy="25.6" fill="#ADD1B2" rx="8.8" ry="8.8" style="stroke:#181818;stroke-width:0.8000000000000002;"/><path d="M142.4125,22.3 Q142.5375,22.125 142.6875,22.0375 Q142.8375,21.95 143.0125,21.95 Q143.3125,21.95 143.5,22.1625 Q143.6875,22.3625 143.6875,22.85 L143.6875,24.0125 Q143.6875,24.5 143.5,24.7125 Q143.3125,24.925 143.0125,24.925 Q142.7375,24.925 142.575,24.7625 Q142.4125,24.6125 142.325,24.2 Q142.2875,23.9125 142.1375,23.7625 Q141.875,23.4625 141.3875,23.2875 Q140.9,23.1125 140.4,23.1125 Q139.7875,23.1125 139.275,23.375 Q138.775,23.6375 138.375,24.2375 Q137.9875,24.8375 137.9875,25.6625 L137.9875,26.5375 Q137.9875,27.525 138.7,28.1875 Q139.4125,28.8375 140.6875,28.8375 Q141.4375,28.8375 141.9625,28.6375 Q142.275,28.5125 142.6125,28.1625 Q142.825,27.95 142.9375,27.8875 Q143.0625,27.825 143.225,27.825 Q143.4875,27.825 143.6875,28.0375 Q143.9,28.2375 143.9,28.5125 Q143.9,28.7875 143.625,29.1125 Q143.225,29.575 142.5875,29.8375 Q141.725,30.2 140.6875,30.2 Q139.475,30.2 138.5125,29.7 Q137.725,29.3 137.175,28.45 Q136.625,27.5875 136.625,26.5625 L136.625,25.6375 Q136.625,24.575 137.1125,23.6625 Q137.6125,22.7375 138.4875,22.25 Q139.3625,21.75 140.35,21.75 Q140.9375,21.75 141.45,21.8875 Q141.975,22.0125 142.4125,22.3 Z " fill="#000000"/><text fill="#000000" font-family="sans-serif" font-size="11.2" lengthAdjust="spacing" textLength="48.8" x="156.6" y="30.2375">AgendaUI</text><line style="stroke:#181818;stroke-width:0.4000000000000001;" x1="6.4" x2="329.6" y1="38.4" y2="38.4"/><text fill="#000000" font-family="sans-serif" font-size="11.2" lengthAdjust="spacing" textLength="89.6" x="10.4" y="53.6859">-userEmail: String</text><text fill="#000000" font-family="sans-serif" font-size="11.2" lengthAdjust="spacing" textLength="187.2" x="10.4" y="68.5828">-agendaController: AgendaController</text><text fill="#000000" font-family="sans-serif" font-size="11.2" lengthAdjust="spacing" textLength="153.6" x="10.4" y="83.4797">-teamProposal: TeamProposal</text><line style="stroke:#181818;stroke-width:0.4000000000000001;" x1="6.4" x2="329.6" y1="89.4906" y2="89.4906"/><text fill="#000000" font-family="sans-serif" font-size="11.2" lengthAdjust="spacing" textLength="148.8" x="10.4" y="104.7766">+AgendaUI(userEmail: String)</text><text fill="#000000" font-family="sans-serif" font-size="11.2" lengthAdjust="spacing" textLength="58.4" x="10.4" y="119.6734">+run(): void</text><text fill="#000000" font-family="sans-serif" font-size="11.2" lengthAdjust="spacing" textLength="315.2" x="10.4" y="134.5703">+requestSelection(scanner: Scanner, size: int, type: String): int</text></g><!--class ApplicationSession--><g id="elem_ApplicationSession"><rect codeLine="117" fill="#F1F1F1" height="68.1938" id="ApplicationSession" rx="2" ry="2" style="stroke:#181818;stroke-width:0.4000000000000001;" width="213.6" x="798.8" y="226"/><ellipse cx="854.6" cy="238.8" fill="#ADD1B2" rx="8.8" ry="8.8" style="stroke:#181818;stroke-width:0.8000000000000002;"/><path d="M856.8125,235.5 Q856.9375,235.325 857.0875,235.2375 Q857.2375,235.15 857.4125,235.15 Q857.7125,235.15 857.9,235.3625 Q858.0875,235.5625 858.0875,236.05 L858.0875,237.2125 Q858.0875,237.7 857.9,237.9125 Q857.7125,238.125 857.4125,238.125 Q857.1375,238.125 856.975,237.9625 Q856.8125,237.8125 856.725,237.4 Q856.6875,237.1125 856.5375,236.9625 Q856.275,236.6625 855.7875,236.4875 Q855.3,236.3125 854.8,236.3125 Q854.1875,236.3125 853.675,236.575 Q853.175,236.8375 852.775,237.4375 Q852.3875,238.0375 852.3875,238.8625 L852.3875,239.7375 Q852.3875,240.725 853.1,241.3875 Q853.8125,242.0375 855.0875,242.0375 Q855.8375,242.0375 856.3625,241.8375 Q856.675,241.7125 857.0125,241.3625 Q857.225,241.15 857.3375,241.0875 Q857.4625,241.025 857.625,241.025 Q857.8875,241.025 858.0875,241.2375 Q858.3,241.4375 858.3,241.7125 Q858.3,241.9875 858.025,242.3125 Q857.625,242.775 856.9875,243.0375 Q856.125,243.4 855.0875,243.4 Q853.875,243.4 852.9125,242.9 Q852.125,242.5 851.575,241.65 Q851.025,240.7875 851.025,239.7625 L851.025,238.8375 Q851.025,237.775 851.5125,236.8625 Q852.0125,235.9375 852.8875,235.45 Q853.7625,234.95 854.75,234.95 Q855.3375,234.95 855.85,235.0875 Q856.375,235.2125 856.8125,235.5 Z " fill="#000000"/><text fill="#000000" font-family="sans-serif" font-size="11.2" lengthAdjust="spacing" textLength="95.2" x="871" y="243.4375">ApplicationSession</text><line style="stroke:#181818;stroke-width:0.4000000000000001;" x1="799.6" x2="1011.6" y1="251.6" y2="251.6"/><line style="stroke:#181818;stroke-width:0.4000000000000001;" x1="799.6" x2="1011.6" y1="258" y2="258"/><text fill="#000000" font-family="sans-serif" font-size="11.2" lengthAdjust="spacing" textLength="204" x="803.6" y="273.2859">+static getInstance(): ApplicationSession</text><text fill="#000000" font-family="sans-serif" font-size="11.2" lengthAdjust="spacing" textLength="178.4" x="803.6" y="288.1828">+getCurrentSession(): UserSession</text></g><!--class UserSession--><g id="elem_UserSession"><rect codeLine="122" fill="#F1F1F1" height="53.2969" id="UserSession" rx="2" ry="2" style="stroke:#181818;stroke-width:0.4000000000000001;" width="126.4" x="745.6" y="394"/><ellipse cx="774.52" cy="406.8" fill="#ADD1B2" rx="8.8" ry="8.8" style="stroke:#181818;stroke-width:0.8000000000000002;"/><path d="M776.7325,403.5 Q776.8575,403.325 777.0075,403.2375 Q777.1575,403.15 777.3325,403.15 Q777.6325,403.15 777.82,403.3625 Q778.0075,403.5625 778.0075,404.05 L778.0075,405.2125 Q778.0075,405.7 777.82,405.9125 Q777.6325,406.125 777.3325,406.125 Q777.0575,406.125 776.895,405.9625 Q776.7325,405.8125 776.645,405.4 Q776.6075,405.1125 776.4575,404.9625 Q776.195,404.6625 775.7075,404.4875 Q775.22,404.3125 774.72,404.3125 Q774.1075,404.3125 773.595,404.575 Q773.095,404.8375 772.695,405.4375 Q772.3075,406.0375 772.3075,406.8625 L772.3075,407.7375 Q772.3075,408.725 773.02,409.3875 Q773.7325,410.0375 775.0075,410.0375 Q775.7575,410.0375 776.2825,409.8375 Q776.595,409.7125 776.9325,409.3625 Q777.145,409.15 777.2575,409.0875 Q777.3825,409.025 777.545,409.025 Q777.8075,409.025 778.0075,409.2375 Q778.22,409.4375 778.22,409.7125 Q778.22,409.9875 777.945,410.3125 Q777.545,410.775 776.9075,411.0375 Q776.045,411.4 775.0075,411.4 Q773.795,411.4 772.8325,410.9 Q772.045,410.5 771.495,409.65 Q770.945,408.7875 770.945,407.7625 L770.945,406.8375 Q770.945,405.775 771.4325,404.8625 Q771.9325,403.9375 772.8075,403.45 Q773.6825,402.95 774.67,402.95 Q775.2575,402.95 775.77,403.0875 Q776.295,403.2125 776.7325,403.5 Z " fill="#000000"/><text fill="#000000" font-family="sans-serif" font-size="11.2" lengthAdjust="spacing" textLength="63.2" x="789.48" y="411.4375">UserSession</text><line style="stroke:#181818;stroke-width:0.4000000000000001;" x1="746.4" x2="871.2" y1="419.6" y2="419.6"/><line style="stroke:#181818;stroke-width:0.4000000000000001;" x1="746.4" x2="871.2" y1="426" y2="426"/><text fill="#000000" font-family="sans-serif" font-size="11.2" lengthAdjust="spacing" textLength="116.8" x="750.4" y="441.2859">+getUserEmail(): String</text></g><!--class Repositories--><g id="elem_Repositories"><rect codeLine="126" fill="#F1F1F1" height="97.9875" id="Repositories" rx="2" ry="2" style="stroke:#181818;stroke-width:0.4000000000000001;" width="283.2" x="1120.8" y="211.2"/><ellipse cx="1227.4" cy="224" fill="#ADD1B2" rx="8.8" ry="8.8" style="stroke:#181818;stroke-width:0.8000000000000002;"/><path d="M1229.6125,220.7 Q1229.7375,220.525 1229.8875,220.4375 Q1230.0375,220.35 1230.2125,220.35 Q1230.5125,220.35 1230.7,220.5625 Q1230.8875,220.7625 1230.8875,221.25 L1230.8875,222.4125 Q1230.8875,222.9 1230.7,223.1125 Q1230.5125,223.325 1230.2125,223.325 Q1229.9375,223.325 1229.775,223.1625 Q1229.6125,223.0125 1229.525,222.6 Q1229.4875,222.3125 1229.3375,222.1625 Q1229.075,221.8625 1228.5875,221.6875 Q1228.1,221.5125 1227.6,221.5125 Q1226.9875,221.5125 1226.475,221.775 Q1225.975,222.0375 1225.575,222.6375 Q1225.1875,223.2375 1225.1875,224.0625 L1225.1875,224.9375 Q1225.1875,225.925 1225.9,226.5875 Q1226.6125,227.2375 1227.8875,227.2375 Q1228.6375,227.2375 1229.1625,227.0375 Q1229.475,226.9125 1229.8125,226.5625 Q1230.025,226.35 1230.1375,226.2875 Q1230.2625,226.225 1230.425,226.225 Q1230.6875,226.225 1230.8875,226.4375 Q1231.1,226.6375 1231.1,226.9125 Q1231.1,227.1875 1230.825,227.5125 Q1230.425,227.975 1229.7875,228.2375 Q1228.925,228.6 1227.8875,228.6 Q1226.675,228.6 1225.7125,228.1 Q1224.925,227.7 1224.375,226.85 Q1223.825,225.9875 1223.825,224.9625 L1223.825,224.0375 Q1223.825,222.975 1224.3125,222.0625 Q1224.8125,221.1375 1225.6875,220.65 Q1226.5625,220.15 1227.55,220.15 Q1228.1375,220.15 1228.65,220.2875 Q1229.175,220.4125 1229.6125,220.7 Z " fill="#000000"/><text fill="#000000" font-family="sans-serif" font-size="11.2" lengthAdjust="spacing" textLength="63.2" x="1243.8" y="228.6375">Repositories</text><line style="stroke:#181818;stroke-width:0.4000000000000001;" x1="1121.6" x2="1403.2" y1="236.8" y2="236.8"/><line style="stroke:#181818;stroke-width:0.4000000000000001;" x1="1121.6" x2="1403.2" y1="243.2" y2="243.2"/><text fill="#000000" font-family="sans-serif" font-size="11.2" lengthAdjust="spacing" textLength="172" x="1125.6" y="258.4859">+static getInstance(): Repositories</text><text fill="#000000" font-family="sans-serif" font-size="11.2" lengthAdjust="spacing" textLength="236.8" x="1125.6" y="273.3828">+getToDoListRepository(): ToDoListRepository</text><text fill="#000000" font-family="sans-serif" font-size="11.2" lengthAdjust="spacing" textLength="273.6" x="1125.6" y="288.2797">+getGreenSpaceRepository(): GreenSpaceRepository</text><text fill="#000000" font-family="sans-serif" font-size="11.2" lengthAdjust="spacing" textLength="224" x="1125.6" y="303.1766">+getAgendaRepository(): AgendaRepository</text></g><!--link ApplicationSession to UserSession--><g id="link_ApplicationSession_UserSession"><path codeLine="133" d="M885.304,294.176 C867.288,323.808 843.8138,362.4187 827.2458,389.6667 " fill="none" id="ApplicationSession-to-UserSession" style="stroke:#181818;stroke-width:0.8000000000000002;"/><polygon fill="#181818" points="824.752,393.768,831.2269,389.2785,826.8302,390.3502,825.7585,385.9535,824.752,393.768" style="stroke:#181818;stroke-width:0.8000000000000002;"/><text fill="#000000" font-family="sans-serif" font-size="10.4" lengthAdjust="spacing" textLength="57.6" x="860.8" y="344.8227">userSession</text></g><!--link AgendaController to ApplicationSession--><g id="link_AgendaController_ApplicationSession"><path codeLine="134" d="M839.512,148.072 C855.464,174.888 870.4423,200.0826 883.3943,221.8586 " fill="none" id="AgendaController-to-ApplicationSession" style="stroke:#181818;stroke-width:0.8000000000000002;stroke-dasharray:7.0,7.0;"/><polygon fill="#181818" points="885.848,225.984,884.9177,218.16,883.8032,222.5461,879.4171,221.4317,885.848,225.984" style="stroke:#181818;stroke-width:0.8000000000000002;"/><text fill="#000000" font-family="sans-serif" font-size="10.4" lengthAdjust="spacing" textLength="22.4" x="861.6" y="184.0227">uses</text></g><!--link AgendaController to UserSession--><g id="link_AgendaController_UserSession"><path codeLine="135" d="M773.128,148.224 C760.456,194.16 749.736,255.264 760.8,308.8 C767.12,339.376 780.0109,367.6534 791.6109,389.5734 " fill="none" id="AgendaController-to-UserSession" style="stroke:#181818;stroke-width:0.8000000000000002;stroke-dasharray:7.0,7.0;"/><polygon fill="#181818" points="793.856,393.816,793.3166,385.9554,791.985,390.2805,787.6599,388.9489,793.856,393.816" style="stroke:#181818;stroke-width:0.8000000000000002;"/><text fill="#000000" font-family="sans-serif" font-size="10.4" lengthAdjust="spacing" textLength="22.4" x="761.6" y="264.4227">uses</text></g><!--link AgendaController to Repositories--><g id="link_AgendaController_Repositories"><path codeLine="136" d="M977.968,148.072 C1031.936,169.16 1085.3853,190.0367 1134.7773,209.3407 " fill="none" id="AgendaController-to-Repositories" style="stroke:#181818;stroke-width:0.8000000000000002;stroke-dasharray:7.0,7.0;"/><polygon fill="#181818" points="1139.248,211.088,1133.7068,205.4866,1135.5224,209.6319,1131.3771,211.4475,1139.248,211.088" style="stroke:#181818;stroke-width:0.8000000000000002;"/><text fill="#000000" font-family="sans-serif" font-size="10.4" lengthAdjust="spacing" textLength="39.2" x="1072" y="184.0227">instance</text></g><!--link AgendaUI to AgendaController--><g id="link_AgendaUI_AgendaController"><path codeLine="137" d="M330.544,76.8 C347.032,76.8 359.456,76.8 377.152,76.8 " fill="none" id="AgendaUI-to-AgendaController" style="stroke:#181818;stroke-width:0.8000000000000002;stroke-dasharray:7.0,7.0;"/><polygon fill="#181818" points="381.952,76.8,374.752,73.6,377.952,76.8,374.752,80,381.952,76.8" style="stroke:#181818;stroke-width:0.8000000000000002;"/><text fill="#000000" font-family="sans-serif" font-size="10.4" lengthAdjust="spacing" textLength="22.4" x="345" y="71.2227">uses</text></g><!--link AgendaController to Agenda--><g id="link_AgendaController_Agenda"><path codeLine="138" d="M713.32,148.016 C685.912,178.696 662.4,217.24 662.4,259.2 C662.4,259.2 662.4,259.2 662.4,762.4 C662.4,835.968 677.7831,913.2686 693.0231,973.0926 " fill="none" id="AgendaController-to-Agenda" style="stroke:#181818;stroke-width:0.8000000000000002;"/><polygon fill="#181818" points="694.208,977.744,695.5315,969.9769,693.2205,973.8678,689.3296,971.5568,694.208,977.744" style="stroke:#181818;stroke-width:0.8000000000000002;"/></g><!--link Repositories to OrganizationRepository--><g id="link_Repositories_OrganizationRepository"><path codeLine="139" d="M1262.4,309 C1262.4,328.944 1262.4,347.232 1262.4,367.168 " fill="none" id="Repositories-to-OrganizationRepository" style="stroke:#181818;stroke-width:0.8000000000000002;"/><polygon fill="#181818" points="1262.4,371.968,1265.6,364.768,1262.4,367.968,1259.2,364.768,1262.4,371.968" style="stroke:#181818;stroke-width:0.8000000000000002;"/></g><!--link OrganizationRepository to Organization--><g id="link_OrganizationRepository_Organization"><path codeLine="140" d="M1262.4,469.84 C1262.4,515.384 1262.4,580.648 1262.4,640.608 " fill="none" id="OrganizationRepository-to-Organization" style="stroke:#181818;stroke-width:0.8000000000000002;"/><polygon fill="#181818" points="1262.4,645.408,1265.6,638.208,1262.4,641.408,1259.2,638.208,1262.4,645.408" style="stroke:#181818;stroke-width:0.8000000000000002;"/></g><!--link Organization to ToDoList--><g id="link_Organization_ToDoList"><path codeLine="141" d="M1453.008,877.776 C1487.08,898.4 1518.5898,917.4743 1552.9898,938.2983 " fill="none" id="Organization-to-ToDoList" style="stroke:#181818;stroke-width:0.8000000000000002;"/><polygon fill="#181818" points="1557.096,940.784,1552.5938,934.3179,1553.6741,938.7126,1549.2795,939.7929,1557.096,940.784" style="stroke:#181818;stroke-width:0.8000000000000002;"/><text fill="#000000" font-family="sans-serif" font-size="10.4" lengthAdjust="spacing" textLength="132" x="1512" y="913.6227">gets available to-do list entry</text></g><!--link Organization to Agenda--><g id="link_Organization_Agenda"><path codeLine="142" d="M1054.328,877.776 C994.304,911.056 934.1018,944.4403 877.9498,975.5763 " fill="none" id="Organization-to-Agenda" style="stroke:#181818;stroke-width:0.8000000000000002;"/><polygon fill="#181818" points="873.752,977.904,881.6006,977.211,877.2502,975.9643,878.497,971.6139,873.752,977.904" style="stroke:#181818;stroke-width:0.8000000000000002;"/><text fill="#000000" font-family="sans-serif" font-size="10.4" lengthAdjust="spacing" textLength="99.2" x="1007.2" y="913.6227">Creates agenda entry</text></g><!--link ToDoListRepository to ToDoList--><g id="link_ToDoListRepository_ToDoList"><path codeLine="143" d="M2110.256,621.88 C2117.904,690.4 2119.896,800.104 2071.2,877.6 C2056.384,901.184 2040.9994,919.0106 2019.7194,937.5946 " fill="none" id="ToDoListRepository-to-ToDoList" style="stroke:#181818;stroke-width:0.8000000000000002;"/><polygon fill="#181818" points="2016.104,940.752,2023.632,938.4262,2019.1168,938.1209,2019.4222,933.6057,2016.104,940.752" style="stroke:#181818;stroke-width:0.8000000000000002;"/></g><!--link GreenSpaceRepository to GreenSpace--><g id="link_GreenSpaceRepository_GreenSpace"><path codeLine="144" d="M1754.552,469.608 C1776.568,510.32 1809.344,570.144 1839.2,621.6 C1855.248,649.256 1871.1335,675.5353 1886.6855,700.8233 " fill="none" id="GreenSpaceRepository-to-GreenSpace" style="stroke:#181818;stroke-width:0.8000000000000002;"/><polygon fill="#181818" points="1889.2,704.912,1888.154,697.1027,1887.1046,701.5048,1882.7025,700.4553,1889.2,704.912" style="stroke:#181818;stroke-width:0.8000000000000002;"/></g><!--link AgendaRepository to Agenda--><g id="link_AgendaRepository_Agenda"><path codeLine="145" d="M786.904,606.496 C771.672,617.232 757.984,630.144 748,645.6 C683.624,745.28 688.9255,882.8956 701.7255,973.0796 " fill="none" id="AgendaRepository-to-Agenda" style="stroke:#181818;stroke-width:0.8000000000000002;"/><polygon fill="#181818" points="702.4,977.832,704.5565,970.2538,701.8379,973.8717,698.22,971.1531,702.4,977.832" style="stroke:#181818;stroke-width:0.8000000000000002;"/></g><!--link Repositories to ToDoListRepository--><g id="link_Repositories_ToDoListRepository"><path codeLine="146" d="M1404.304,263.704 C1536.92,271.4 1737.344,296.072 1893.6,372 C1953.192,400.96 2005.1487,448.7396 2043.4447,489.9556 " fill="none" id="Repositories-to-ToDoListRepository" style="stroke:#181818;stroke-width:0.8000000000000002;"/><polygon fill="#181818" points="2046.712,493.472,2044.1554,486.0192,2043.9893,490.5417,2039.4668,490.3756,2046.712,493.472" style="stroke:#181818;stroke-width:0.8000000000000002;"/></g><!--link Repositories to GreenSpaceRepository--><g id="link_Repositories_GreenSpaceRepository"><path codeLine="147" d="M1403.288,308.888 C1461.808,328.864 1525.0495,350.449 1583.5535,370.425 " fill="none" id="Repositories-to-GreenSpaceRepository" style="stroke:#181818;stroke-width:0.8000000000000002;"/><polygon fill="#181818" points="1588.096,371.976,1582.3163,366.6211,1584.3106,370.6835,1580.2482,372.6778,1588.096,371.976" style="stroke:#181818;stroke-width:0.8000000000000002;"/></g><!--link Repositories to AgendaRepository--><g id="link_Repositories_AgendaRepository"><path codeLine="148" d="M1151.496,308.832 C1118.152,326.088 1082.72,347.448 1053.6,372 C1006.816,411.44 968.0901,464.4837 942.0021,504.7477 " fill="none" id="Repositories-to-AgendaRepository" style="stroke:#181818;stroke-width:0.8000000000000002;"/><polygon fill="#181818" points="939.392,508.776,945.9927,504.4735,941.5671,505.419,940.6215,500.9934,939.392,508.776" style="stroke:#181818;stroke-width:0.8000000000000002;"/></g><!--SRC=[jLZRRjis6BxNK-XIGPrYryPW84sCBS3M3dFo0BJqHn52anf9fNE7llju4C-aanLORoh_9_w7Zn_9y9U9p8YXKpkZ_WMDS11d32s3NY0oOcYuC-3FQA1V9pAsJmZpK8Cd0k8yGpjJV5O_IZhA10taFKQStmZ1fkCYuBwdv31zW_Qdfj6Qze7UqTycBjf_cbR-ksu5uYztm7ispMAYPDiUf2yPL-t2HY3zEP72txCi18QxXI7ZD16nwaO6G0woQlYCJf0uSe74mjCrEB3z2KtOoRNYWykrg-IuITFRb3FRL9BQ9FbiybIkrbH640zn4jrLL8OsUJJfb5Jx935bOvkc3Nw9KYo5EEXaY-lQj3CbTsvngTBkbKv3ypt5nPymKpu9oiuU8QjAEgl_VhQcEpidD0oTDTgwI7A9BxfJ20SkBkSRZArKrvI4DdRBF201LhedWfqx8nlqZsWrNP3nUvh8yEcSJgm2eqk9ca2klpTaIEQK8QO6jhn4rtiVqlMSv7ldX8ZaaV9EyH4w4W6yv1HWkWQrtmEtG5_8k80NNxz5Z3UFCECDjq74S1oXOuWSB_VOoMtDyA9Q86f4mTELU2Etye3UIPCNISznaeIjN97s2AlFCYMkgPlLwyHN8xJAMYdJ_JTQUvkQzi6oUY1HaMNs-hus-WiR4Pc-QLOie8a6QekdqCKXoe4cqggbGy6dy_uqOte6wEn72-l7rGz6Cj0oPRKQOMz4Kk0F9L6HLyNEN6A6ht2KJKkbypCb6HGZyZ2oLoG-BwSZi4IkEsrBtBacyL2jmBFJUuExCGH9TrbisvWZfHWGMQFoTyp2BDKpK0U2_BRzPl04J9ww4kEhPF1eThA9F55safWiw0JqpsJg4wKydDjXFQmtxK2Nexo_zPJBsuHQ_bQcCIgSYk37fgtMOGj6nC7cLyJho77sm_0Em8P0wR6SU-THPAYaiBEGLjWzPSmYVZO6spL2oClMEEHa8_Dy7DiOBWxEgIhvHyu97TzIUUfJZ84bLVZojbd1oJKcDCrlFHcXX-QbOozcR9zWPuTZ86lKvWRpVx7wHa8PdVvWLEQ6v3P_27vTd5vudEPNuEhvgawFu6esbRn_u3faqdkyToFE7mZXw7tBjzaGxEYhROcdztZVLLy0RD5dOt39PF3N0bmS0ClXABRZFI94SvtvaFEHRw_r2Q8UQq7nwkxlAvvdB0b81Ja0vvxkF-W9JxrgzJsHtvBdL1QvWn_9xS8a7ufLhgpLzTMQkJK3eLkiyfHmFWxrSjHlP1YQvd3nsqVPLdPX0itOfxWLFHqb5A1xbjA2BAlG-ElhNTIRhOQVRLz6Gny_xahZqrwyR9v5hzX5tLQ8CTrjtFvGIwUEjO2gB2DiehXANhw1DPMBMUeHsMcj-nl3Lis2j-XLuWcfyrFGwu6sMEb0KM7kkrwxj-sjfas-RlBLlF1A3HTiYkyIPU4LJNOUNcfD0PgPJH6AcLK6lty1]--></g></svg>