<?xml version="1.0" encoding="us-ascii" standalone="no"?><svg xmlns="http://www.w3.org/2000/svg" xmlns:xlink="http://www.w3.org/1999/xlink" contentStyleType="text/css" height="1032px" preserveAspectRatio="none" style="width:2207px;height:1032px;background:#FFFFFF;" version="1.1" viewBox="0 0 2207 1032" width="2207px" zoomAndPan="magnify"><defs/><g><rect fill="#FFFFFF" height="842.252" style="stroke:#181818;stroke-width:1.0;" width="10" x="44.5" y="91.4883"/><rect fill="#FFFFFF" height="334.5938" style="stroke:#181818;stroke-width:1.0;" width="10" x="518.5" y="112.7988"/><rect fill="#FFFFFF" height="29.3105" style="stroke:#181818;stroke-width:1.0;" width="10" x="518.5" y="476.7031"/><rect fill="#FFFFFF" height="29.3105" style="stroke:#181818;stroke-width:1.0;" width="10" x="518.5" y="535.3242"/><rect fill="#FFFFFF" height="339.7949" style="stroke:#181818;stroke-width:1.0;" width="10" x="518.5" y="593.9453"/><rect fill="#FFFFFF" height="205.1738" style="stroke:#181818;stroke-width:1.0;" width="10" x="990.5" y="212.9082"/><rect fill="#FFFFFF" height="281.1738" style="stroke:#181818;stroke-width:1.0;" width="10" x="990.5" y="623.2559"/><rect fill="#FFFFFF" height="40.3105" style="stroke:#181818;stroke-width:1.0;" width="10" x="995.5" y="827.8086"/><rect fill="#FFFFFF" height="29.3105" style="stroke:#181818;stroke-width:1.0;" width="10" x="1393.5" y="242.2188"/><rect fill="#FFFFFF" height="29.3105" style="stroke:#181818;stroke-width:1.0;" width="10" x="1506.5" y="300.8398"/><rect fill="#FFFFFF" height="29.3105" style="stroke:#181818;stroke-width:1.0;" width="10" x="1630.5" y="706.877"/><rect fill="#FFFFFF" height="87.9316" style="stroke:#181818;stroke-width:1.0;" width="10" x="1989.5" y="677.5664"/><rect fill="#FFFFFF" height="29.3105" style="stroke:#181818;stroke-width:1.0;" width="10" x="2137" y="359.4609"/><line style="stroke:#181818;stroke-width:0.5;stroke-dasharray:5.0,5.0;" x1="49" x2="49" y1="81.4883" y2="951.7402"/><line style="stroke:#181818;stroke-width:0.5;stroke-dasharray:5.0,5.0;" x1="523.5" x2="523.5" y1="81.4883" y2="951.7402"/><line style="stroke:#181818;stroke-width:0.5;stroke-dasharray:5.0,5.0;" x1="995.5" x2="995.5" y1="180.8535" y2="951.7402"/><line style="stroke:#181818;stroke-width:0.5;stroke-dasharray:5.0,5.0;" x1="1398" x2="1398" y1="81.4883" y2="951.7402"/><line style="stroke:#181818;stroke-width:0.5;stroke-dasharray:5.0,5.0;" x1="1511" x2="1511" y1="81.4883" y2="951.7402"/><line style="stroke:#181818;stroke-width:0.5;stroke-dasharray:5.0,5.0;" x1="1635" x2="1635" y1="81.4883" y2="951.7402"/><line style="stroke:#181818;stroke-width:0.5;stroke-dasharray:5.0,5.0;" x1="1994" x2="1994" y1="81.4883" y2="951.7402"/><line style="stroke:#181818;stroke-width:0.5;stroke-dasharray:5.0,5.0;" x1="2142" x2="2142" y1="81.4883" y2="951.7402"/><text fill="#000000" font-family="sans-serif" font-size="14" lengthAdjust="spacing" textLength="83" x="5" y="78.5352">HR Manager</text><ellipse cx="49.5" cy="13.5" fill="#E3E3E3" rx="8" ry="8" style="stroke:#181818;stroke-width:0.5;"/><path d="M49.5,21.5 L49.5,48.5 M36.5,29.5 L62.5,29.5 M49.5,48.5 L36.5,63.5 M49.5,48.5 L62.5,63.5 " fill="none" style="stroke:#181818;stroke-width:0.5;"/><text fill="#000000" font-family="sans-serif" font-size="14" lengthAdjust="spacing" textLength="83" x="5" y="964.2754">HR Manager</text><ellipse cx="49.5" cy="975.7285" fill="#E3E3E3" rx="8" ry="8" style="stroke:#181818;stroke-width:0.5;"/><path d="M49.5,983.7285 L49.5,1010.7285 M36.5,991.7285 L62.5,991.7285 M49.5,1010.7285 L36.5,1025.7285 M49.5,1010.7285 L62.5,1025.7285 " fill="none" style="stroke:#181818;stroke-width:0.5;"/><rect fill="#E3E3E3" height="30.4883" rx="2.5" ry="2.5" style="stroke:#181818;stroke-width:0.5;" width="130" x="458.5" y="50"/><text fill="#000000" font-family="sans-serif" font-size="14" lengthAdjust="spacing" textLength="116" x="465.5" y="70.5352">:TeamProposalUI</text><rect fill="#E3E3E3" height="30.4883" rx="2.5" ry="2.5" style="stroke:#181818;stroke-width:0.5;" width="130" x="458.5" y="950.7402"/><text fill="#000000" font-family="sans-serif" font-size="14" lengthAdjust="spacing" textLength="116" x="465.5" y="971.2754">:TeamProposalUI</text><rect fill="#E3E3E3" height="30.4883" rx="2.5" ry="2.5" style="stroke:#181818;stroke-width:0.5;" width="186" x="902.5" y="950.7402"/><text fill="#000000" font-family="sans-serif" font-size="14" lengthAdjust="spacing" textLength="172" x="909.5" y="971.2754">:TeamProposalController</text><rect fill="#E3E3E3" height="30.4883" rx="2.5" ry="2.5" style="stroke:#181818;stroke-width:0.5;" width="103" x="1347" y="50"/><text fill="#000000" font-family="sans-serif" font-size="14" lengthAdjust="spacing" textLength="89" x="1354" y="70.5352">:Repositories</text><rect fill="#E3E3E3" height="30.4883" rx="2.5" ry="2.5" style="stroke:#181818;stroke-width:0.5;" width="103" x="1347" y="950.7402"/><text fill="#000000" font-family="sans-serif" font-size="14" lengthAdjust="spacing" textLength="89" x="1354" y="971.2754">:Repositories</text><rect fill="#E3E3E3" height="46.9766" rx="2.5" ry="2.5" style="stroke:#181818;stroke-width:0.5;" width="103" x="1460" y="33.5117"/><text fill="#000000" font-family="sans-serif" font-size="14" lengthAdjust="spacing" textLength="82" x="1470.5" y="54.0469">repositories</text><text fill="#000000" font-family="sans-serif" font-size="14" lengthAdjust="spacing" textLength="89" x="1467" y="70.5352">:Repositories</text><rect fill="#E3E3E3" height="46.9766" rx="2.5" ry="2.5" style="stroke:#181818;stroke-width:0.5;" width="103" x="1460" y="950.7402"/><text fill="#000000" font-family="sans-serif" font-size="14" lengthAdjust="spacing" textLength="82" x="1470.5" y="971.2754">repositories</text><text fill="#000000" font-family="sans-serif" font-size="14" lengthAdjust="spacing" textLength="89" x="1467" y="987.7637">:Repositories</text><rect fill="#E3E3E3" height="46.9766" rx="2.5" ry="2.5" style="stroke:#181818;stroke-width:0.5;" width="125" x="1573" y="33.5117"/><text fill="#000000" font-family="sans-serif" font-size="14" lengthAdjust="spacing" textLength="111" x="1580" y="54.0469">teamRepository:</text><text fill="#000000" font-family="sans-serif" font-size="14" lengthAdjust="spacing" textLength="111" x="1580" y="70.5352">TeamRepository</text><rect fill="#E3E3E3" height="46.9766" rx="2.5" ry="2.5" style="stroke:#181818;stroke-width:0.5;" width="125" x="1573" y="950.7402"/><text fill="#000000" font-family="sans-serif" font-size="14" lengthAdjust="spacing" textLength="111" x="1580" y="971.2754">teamRepository:</text><text fill="#000000" font-family="sans-serif" font-size="14" lengthAdjust="spacing" textLength="111" x="1580" y="987.7637">TeamRepository</text><rect fill="#E3E3E3" height="46.9766" rx="2.5" ry="2.5" style="stroke:#181818;stroke-width:0.5;" width="157" x="1916" y="33.5117"/><text fill="#000000" font-family="sans-serif" font-size="14" lengthAdjust="spacing" textLength="143" x="1923" y="54.0469">employeeRepository:</text><text fill="#000000" font-family="sans-serif" font-size="14" lengthAdjust="spacing" textLength="139" x="1925" y="70.5352">EmployeeRepository</text><rect fill="#E3E3E3" height="46.9766" rx="2.5" ry="2.5" style="stroke:#181818;stroke-width:0.5;" width="157" x="1916" y="950.7402"/><text fill="#000000" font-family="sans-serif" font-size="14" lengthAdjust="spacing" textLength="143" x="1923" y="971.2754">employeeRepository:</text><text fill="#000000" font-family="sans-serif" font-size="14" lengthAdjust="spacing" textLength="139" x="1925" y="987.7637">EmployeeRepository</text><rect fill="#E3E3E3" height="46.9766" rx="2.5" ry="2.5" style="stroke:#181818;stroke-width:0.5;" width="118" x="2083" y="33.5117"/><text fill="#000000" font-family="sans-serif" font-size="14" lengthAdjust="spacing" textLength="104" x="2090" y="54.0469">skillRepository:</text><text fill="#000000" font-family="sans-serif" font-size="14" lengthAdjust="spacing" textLength="101" x="2091.5" y="70.5352">SkillRepository</text><rect fill="#E3E3E3" height="46.9766" rx="2.5" ry="2.5" style="stroke:#181818;stroke-width:0.5;" width="118" x="2083" y="950.7402"/><text fill="#000000" font-family="sans-serif" font-size="14" lengthAdjust="spacing" textLength="104" x="2090" y="971.2754">skillRepository:</text><text fill="#000000" font-family="sans-serif" font-size="14" lengthAdjust="spacing" textLength="101" x="2091.5" y="987.7637">SkillRepository</text><rect fill="#FFFFFF" height="842.252" style="stroke:#181818;stroke-width:1.0;" width="10" x="44.5" y="91.4883"/><rect fill="#FFFFFF" height="334.5938" style="stroke:#181818;stroke-width:1.0;" width="10" x="518.5" y="112.7988"/><rect fill="#FFFFFF" height="29.3105" style="stroke:#181818;stroke-width:1.0;" width="10" x="518.5" y="476.7031"/><rect fill="#FFFFFF" height="29.3105" style="stroke:#181818;stroke-width:1.0;" width="10" x="518.5" y="535.3242"/><rect fill="#FFFFFF" height="339.7949" style="stroke:#181818;stroke-width:1.0;" width="10" x="518.5" y="593.9453"/><rect fill="#FFFFFF" height="205.1738" style="stroke:#181818;stroke-width:1.0;" width="10" x="990.5" y="212.9082"/><rect fill="#FFFFFF" height="281.1738" style="stroke:#181818;stroke-width:1.0;" width="10" x="990.5" y="623.2559"/><rect fill="#FFFFFF" height="40.3105" style="stroke:#181818;stroke-width:1.0;" width="10" x="995.5" y="827.8086"/><rect fill="#FFFFFF" height="29.3105" style="stroke:#181818;stroke-width:1.0;" width="10" x="1393.5" y="242.2188"/><rect fill="#FFFFFF" height="29.3105" style="stroke:#181818;stroke-width:1.0;" width="10" x="1506.5" y="300.8398"/><rect fill="#FFFFFF" height="29.3105" style="stroke:#181818;stroke-width:1.0;" width="10" x="1630.5" y="706.877"/><rect fill="#FFFFFF" height="87.9316" style="stroke:#181818;stroke-width:1.0;" width="10" x="1989.5" y="677.5664"/><rect fill="#FFFFFF" height="29.3105" style="stroke:#181818;stroke-width:1.0;" width="10" x="2137" y="359.4609"/><polygon fill="#181818" points="506.5,108.7988,516.5,112.7988,506.5,116.7988,510.5,112.7988" style="stroke:#181818;stroke-width:1.0;"/><line style="stroke:#181818;stroke-width:1.0;" x1="54.5" x2="512.5" y1="112.7988" y2="112.7988"/><text fill="#000000" font-family="sans-serif" font-size="13" font-weight="bold" lengthAdjust="spacing" textLength="9" x="61.5" y="108.0566">1</text><text fill="#000000" font-family="sans-serif" font-size="13" lengthAdjust="spacing" textLength="219" x="74.5" y="108.0566">requests team proposal generation</text><polygon fill="#181818" points="65.5,138.1094,55.5,142.1094,65.5,146.1094,61.5,142.1094" style="stroke:#181818;stroke-width:1.0;"/><line style="stroke:#181818;stroke-width:1.0;stroke-dasharray:2.0,2.0;" x1="59.5" x2="517.5" y1="142.1094" y2="142.1094"/><text fill="#000000" font-family="sans-serif" font-size="13" font-weight="bold" lengthAdjust="spacing" textLength="9" x="71.5" y="137.3672">2</text><text fill="#000000" font-family="sans-serif" font-size="13" lengthAdjust="spacing" textLength="382" x="84.5" y="137.3672">requests data (max team size, min team size, required skills)</text><polygon fill="#181818" points="890.5,167.4199,900.5,171.4199,890.5,175.4199,894.5,171.4199" style="stroke:#181818;stroke-width:1.0;"/><line style="stroke:#181818;stroke-width:1.0;" x1="528.5" x2="896.5" y1="171.4199" y2="171.4199"/><text fill="#000000" font-family="sans-serif" font-size="13" font-weight="bold" lengthAdjust="spacing" textLength="9" x="535.5" y="166.6777">3</text><text fill="#000000" font-family="sans-serif" font-size="13" lengthAdjust="spacing" textLength="38" x="548.5" y="166.6777">create</text><rect fill="#E3E3E3" height="30.4883" rx="2.5" ry="2.5" style="stroke:#181818;stroke-width:0.5;" width="186" x="902.5" y="150.1094"/><text fill="#000000" font-family="sans-serif" font-size="14" lengthAdjust="spacing" textLength="172" x="909.5" y="170.6445">:TeamProposalController</text><polygon fill="#181818" points="978.5,208.9082,988.5,212.9082,978.5,216.9082,982.5,212.9082" style="stroke:#181818;stroke-width:1.0;"/><line style="stroke:#181818;stroke-width:1.0;" x1="528.5" x2="984.5" y1="212.9082" y2="212.9082"/><text fill="#000000" font-family="sans-serif" font-size="13" font-weight="bold" lengthAdjust="spacing" textLength="9" x="535.5" y="208.166">4</text><text fill="#000000" font-family="sans-serif" font-size="13" lengthAdjust="spacing" textLength="119" x="548.5" y="208.166">getAvailableSkills()</text><polygon fill="#181818" points="1381.5,238.2188,1391.5,242.2188,1381.5,246.2188,1385.5,242.2188" style="stroke:#181818;stroke-width:1.0;"/><line style="stroke:#181818;stroke-width:1.0;" x1="1000.5" x2="1387.5" y1="242.2188" y2="242.2188"/><text fill="#000000" font-family="sans-serif" font-size="13" font-weight="bold" lengthAdjust="spacing" textLength="9" x="1007.5" y="237.4766">5</text><text fill="#000000" font-family="sans-serif" font-size="13" lengthAdjust="spacing" textLength="81" x="1020.5" y="237.4766">getInstance()</text><polygon fill="#181818" points="1011.5,267.5293,1001.5,271.5293,1011.5,275.5293,1007.5,271.5293" style="stroke:#181818;stroke-width:1.0;"/><line style="stroke:#181818;stroke-width:1.0;stroke-dasharray:2.0,2.0;" x1="1005.5" x2="1397.5" y1="271.5293" y2="271.5293"/><text fill="#000000" font-family="sans-serif" font-size="13" font-weight="bold" lengthAdjust="spacing" textLength="9" x="1017.5" y="266.7871">6</text><text fill="#000000" font-family="sans-serif" font-size="13" lengthAdjust="spacing" textLength="75" x="1030.5" y="266.7871">repositories</text><polygon fill="#181818" points="1494.5,296.8398,1504.5,300.8398,1494.5,304.8398,1498.5,300.8398" style="stroke:#181818;stroke-width:1.0;"/><line style="stroke:#181818;stroke-width:1.0;" x1="1000.5" x2="1500.5" y1="300.8398" y2="300.8398"/><text fill="#000000" font-family="sans-serif" font-size="13" font-weight="bold" lengthAdjust="spacing" textLength="9" x="1007.5" y="296.0977">7</text><text fill="#000000" font-family="sans-serif" font-size="13" lengthAdjust="spacing" textLength="122" x="1020.5" y="296.0977">getSkillRepository()</text><polygon fill="#181818" points="1011.5,326.1504,1001.5,330.1504,1011.5,334.1504,1007.5,330.1504" style="stroke:#181818;stroke-width:1.0;"/><line style="stroke:#181818;stroke-width:1.0;stroke-dasharray:2.0,2.0;" x1="1005.5" x2="1510.5" y1="330.1504" y2="330.1504"/><text fill="#000000" font-family="sans-serif" font-size="13" font-weight="bold" lengthAdjust="spacing" textLength="9" x="1017.5" y="325.4082">8</text><text fill="#000000" font-family="sans-serif" font-size="13" lengthAdjust="spacing" textLength="94" x="1030.5" y="325.4082">skillRepository</text><polygon fill="#181818" points="2125,355.4609,2135,359.4609,2125,363.4609,2129,359.4609" style="stroke:#181818;stroke-width:1.0;"/><line style="stroke:#181818;stroke-width:1.0;" x1="1000.5" x2="2131" y1="359.4609" y2="359.4609"/><text fill="#000000" font-family="sans-serif" font-size="13" font-weight="bold" lengthAdjust="spacing" textLength="9" x="1007.5" y="354.7188">9</text><text fill="#000000" font-family="sans-serif" font-size="13" lengthAdjust="spacing" textLength="119" x="1020.5" y="354.7188">getAvailableSkills()</text><polygon fill="#181818" points="1011.5,384.7715,1001.5,388.7715,1011.5,392.7715,1007.5,388.7715" style="stroke:#181818;stroke-width:1.0;"/><line style="stroke:#181818;stroke-width:1.0;stroke-dasharray:2.0,2.0;" x1="1005.5" x2="2141" y1="388.7715" y2="388.7715"/><text fill="#000000" font-family="sans-serif" font-size="13" font-weight="bold" lengthAdjust="spacing" textLength="18" x="1017.5" y="384.0293">10</text><text fill="#000000" font-family="sans-serif" font-size="13" lengthAdjust="spacing" textLength="89" x="1039.5" y="384.0293">availableSkills</text><polygon fill="#181818" points="539.5,414.082,529.5,418.082,539.5,422.082,535.5,418.082" style="stroke:#181818;stroke-width:1.0;"/><line style="stroke:#181818;stroke-width:1.0;stroke-dasharray:2.0,2.0;" x1="533.5" x2="994.5" y1="418.082" y2="418.082"/><text fill="#000000" font-family="sans-serif" font-size="13" font-weight="bold" lengthAdjust="spacing" textLength="18" x="545.5" y="413.3398">11</text><text fill="#000000" font-family="sans-serif" font-size="13" lengthAdjust="spacing" textLength="89" x="567.5" y="413.3398">availableSkills</text><polygon fill="#181818" points="65.5,443.3926,55.5,447.3926,65.5,451.3926,61.5,447.3926" style="stroke:#181818;stroke-width:1.0;"/><line style="stroke:#181818;stroke-width:1.0;stroke-dasharray:2.0,2.0;" x1="59.5" x2="522.5" y1="447.3926" y2="447.3926"/><text fill="#000000" font-family="sans-serif" font-size="13" font-weight="bold" lengthAdjust="spacing" textLength="18" x="71.5" y="442.6504">12</text><text fill="#000000" font-family="sans-serif" font-size="13" lengthAdjust="spacing" textLength="282" x="93.5" y="442.6504">shows available skills and prompts selection</text><polygon fill="#181818" points="506.5,472.7031,516.5,476.7031,506.5,480.7031,510.5,476.7031" style="stroke:#181818;stroke-width:1.0;"/><line style="stroke:#181818;stroke-width:1.0;" x1="54.5" x2="512.5" y1="476.7031" y2="476.7031"/><text fill="#000000" font-family="sans-serif" font-size="13" font-weight="bold" lengthAdjust="spacing" textLength="18" x="61.5" y="471.9609">13</text><text fill="#000000" font-family="sans-serif" font-size="13" lengthAdjust="spacing" textLength="229" x="83.5" y="471.9609">selects required skills and team size</text><polygon fill="#181818" points="65.5,502.0137,55.5,506.0137,65.5,510.0137,61.5,506.0137" style="stroke:#181818;stroke-width:1.0;"/><line style="stroke:#181818;stroke-width:1.0;stroke-dasharray:2.0,2.0;" x1="59.5" x2="522.5" y1="506.0137" y2="506.0137"/><text fill="#000000" font-family="sans-serif" font-size="13" font-weight="bold" lengthAdjust="spacing" textLength="18" x="71.5" y="501.2715">14</text><text fill="#000000" font-family="sans-serif" font-size="13" lengthAdjust="spacing" textLength="85" x="93.5" y="501.2715">requests data</text><polygon fill="#181818" points="506.5,531.3242,516.5,535.3242,506.5,539.3242,510.5,535.3242" style="stroke:#181818;stroke-width:1.0;"/><line style="stroke:#181818;stroke-width:1.0;" x1="54.5" x2="512.5" y1="535.3242" y2="535.3242"/><text fill="#000000" font-family="sans-serif" font-size="13" font-weight="bold" lengthAdjust="spacing" textLength="18" x="61.5" y="530.582">15</text><text fill="#000000" font-family="sans-serif" font-size="13" lengthAdjust="spacing" textLength="423" x="83.5" y="530.582">enters required data (max team size, min team size, selected skills)</text><polygon fill="#181818" points="65.5,560.6348,55.5,564.6348,65.5,568.6348,61.5,564.6348" style="stroke:#181818;stroke-width:1.0;"/><line style="stroke:#181818;stroke-width:1.0;stroke-dasharray:2.0,2.0;" x1="59.5" x2="522.5" y1="564.6348" y2="564.6348"/><text fill="#000000" font-family="sans-serif" font-size="13" font-weight="bold" lengthAdjust="spacing" textLength="18" x="71.5" y="559.8926">16</text><text fill="#000000" font-family="sans-serif" font-size="13" lengthAdjust="spacing" textLength="127" x="93.5" y="559.8926">shows selected data</text><polygon fill="#181818" points="506.5,589.9453,516.5,593.9453,506.5,597.9453,510.5,593.9453" style="stroke:#181818;stroke-width:1.0;"/><line style="stroke:#181818;stroke-width:1.0;" x1="54.5" x2="512.5" y1="593.9453" y2="593.9453"/><text fill="#000000" font-family="sans-serif" font-size="13" font-weight="bold" lengthAdjust="spacing" textLength="18" x="61.5" y="589.2031">17</text><text fill="#000000" font-family="sans-serif" font-size="13" lengthAdjust="spacing" textLength="82" x="83.5" y="589.2031">submits data</text><polygon fill="#181818" points="978.5,619.2559,988.5,623.2559,978.5,627.2559,982.5,623.2559" style="stroke:#181818;stroke-width:1.0;"/><line style="stroke:#181818;stroke-width:1.0;" x1="528.5" x2="984.5" y1="623.2559" y2="623.2559"/><text fill="#000000" font-family="sans-serif" font-size="13" font-weight="bold" lengthAdjust="spacing" textLength="18" x="535.5" y="618.5137">18</text><text fill="#000000" font-family="sans-serif" font-size="13" lengthAdjust="spacing" textLength="421" x="557.5" y="618.5137">generateTeamProposal(maxTeamSize, minTeamSize, selectedSkills)</text><polygon fill="#181818" points="1977.5,673.5664,1987.5,677.5664,1977.5,681.5664,1981.5,677.5664" style="stroke:#181818;stroke-width:1.0;"/><line style="stroke:#181818;stroke-width:1.0;" x1="1000.5" x2="1983.5" y1="677.5664" y2="677.5664"/><text fill="#000000" font-family="sans-serif" font-size="13" font-weight="bold" lengthAdjust="spacing" textLength="18" x="1007.5" y="672.8242">19</text><text fill="#000000" font-family="sans-serif" font-size="13" lengthAdjust="spacing" textLength="243" x="1029.5" y="672.8242">getEmployeesWithSkills(selectedSkills)</text><polygon fill="#181818" points="1651.5,702.877,1641.5,706.877,1651.5,710.877,1647.5,706.877" style="stroke:#181818;stroke-width:1.0;"/><line style="stroke:#181818;stroke-width:1.0;" x1="1645.5" x2="1988.5" y1="706.877" y2="706.877"/><text fill="#000000" font-family="sans-serif" font-size="13" font-weight="bold" lengthAdjust="spacing" textLength="18" x="1657.5" y="702.1348">20</text><text fill="#000000" font-family="sans-serif" font-size="13" lengthAdjust="spacing" textLength="308" x="1679.5" y="702.1348">findAvailableTeams(maxTeamSize, minTeamSize)</text><polygon fill="#181818" points="1977.5,732.1875,1987.5,736.1875,1977.5,740.1875,1981.5,736.1875" style="stroke:#181818;stroke-width:1.0;"/><line style="stroke:#181818;stroke-width:1.0;stroke-dasharray:2.0,2.0;" x1="1635.5" x2="1983.5" y1="736.1875" y2="736.1875"/><text fill="#000000" font-family="sans-serif" font-size="13" font-weight="bold" lengthAdjust="spacing" textLength="18" x="1642.5" y="731.4453">21</text><text fill="#000000" font-family="sans-serif" font-size="13" lengthAdjust="spacing" textLength="96" x="1664.5" y="731.4453">availableTeams</text><polygon fill="#181818" points="1011.5,761.498,1001.5,765.498,1011.5,769.498,1007.5,765.498" style="stroke:#181818;stroke-width:1.0;"/><line style="stroke:#181818;stroke-width:1.0;stroke-dasharray:2.0,2.0;" x1="1005.5" x2="1993.5" y1="765.498" y2="765.498"/><text fill="#000000" font-family="sans-serif" font-size="13" font-weight="bold" lengthAdjust="spacing" textLength="18" x="1017.5" y="760.7559">22</text><text fill="#000000" font-family="sans-serif" font-size="13" lengthAdjust="spacing" textLength="129" x="1039.5" y="760.7559">employeesWithSkills</text><line style="stroke:#181818;stroke-width:1.0;" x1="1000.5" x2="1047.5" y1="814.8086" y2="814.8086"/><line style="stroke:#181818;stroke-width:1.0;" x1="1047.5" x2="1047.5" y1="814.8086" y2="827.8086"/><line style="stroke:#181818;stroke-width:1.0;" x1="1006.5" x2="1047.5" y1="827.8086" y2="827.8086"/><polygon fill="#181818" points="1016.5,823.8086,1006.5,827.8086,1016.5,831.8086,1012.5,827.8086" style="stroke:#181818;stroke-width:1.0;"/><text fill="#000000" font-family="sans-serif" font-size="13" font-weight="bold" lengthAdjust="spacing" textLength="18" x="1012.5" y="810.0664">23</text><text fill="#000000" font-family="sans-serif" font-size="13" lengthAdjust="spacing" textLength="357" x="1034.5" y="810.0664">createTeamProposal(employeesWithSkills, maxTeamSize)</text><line style="stroke:#181818;stroke-width:1.0;stroke-dasharray:2.0,2.0;" x1="1005.5" x2="1047.5" y1="867.1191" y2="867.1191"/><line style="stroke:#181818;stroke-width:1.0;stroke-dasharray:2.0,2.0;" x1="1047.5" x2="1047.5" y1="867.1191" y2="880.1191"/><line style="stroke:#181818;stroke-width:1.0;stroke-dasharray:2.0,2.0;" x1="1000.5" x2="1047.5" y1="880.1191" y2="880.1191"/><polygon fill="#181818" points="1010.5,876.1191,1000.5,880.1191,1010.5,884.1191,1006.5,880.1191" style="stroke:#181818;stroke-width:1.0;"/><text fill="#000000" font-family="sans-serif" font-size="13" font-weight="bold" lengthAdjust="spacing" textLength="18" x="1012.5" y="862.377">24</text><text fill="#000000" font-family="sans-serif" font-size="13" lengthAdjust="spacing" textLength="85" x="1034.5" y="862.377">teamProposal</text><polygon fill="#181818" points="539.5,900.4297,529.5,904.4297,539.5,908.4297,535.5,904.4297" style="stroke:#181818;stroke-width:1.0;"/><line style="stroke:#181818;stroke-width:1.0;stroke-dasharray:2.0,2.0;" x1="533.5" x2="994.5" y1="904.4297" y2="904.4297"/><text fill="#000000" font-family="sans-serif" font-size="13" font-weight="bold" lengthAdjust="spacing" textLength="18" x="545.5" y="899.6875">25</text><text fill="#000000" font-family="sans-serif" font-size="13" lengthAdjust="spacing" textLength="85" x="567.5" y="899.6875">teamProposal</text><polygon fill="#181818" points="60.5,929.7402,50.5,933.7402,60.5,937.7402,56.5,933.7402" style="stroke:#181818;stroke-width:1.0;"/><line style="stroke:#181818;stroke-width:1.0;stroke-dasharray:2.0,2.0;" x1="54.5" x2="522.5" y1="933.7402" y2="933.7402"/><text fill="#000000" font-family="sans-serif" font-size="13" font-weight="bold" lengthAdjust="spacing" textLength="18" x="66.5" y="928.998">26</text><text fill="#000000" font-family="sans-serif" font-size="13" lengthAdjust="spacing" textLength="146" x="88.5" y="928.998">displays team proposal</text><!--SRC=[ZLPDRzim3BtxLmYzz0FB7yYXG54CQ80LA9eMk_J2s4mir9OzIMwNeJz-b1mxeYmdzQ65PVBnaNoaOjwbQa53BUf6DNcfcng5rHrcPlpIGluEErpRVOL2Osv1xQhGm9HGD9zIxSGMAeDP1frjL5TlK6VPfRZBRQDD1kwVk7Xu5e-W24zV233YuVan8nGhSzc2ik9Y-O9GF-ccRGnKhojlzBewONFVAAkRgZe07byZdsSaSqaS91flEHxirz9bH9ovYmuytjGKuEdNtGltiCJh2BjyKo_im7ln8-wFTLirUqI6yNDow76cnnoB-bDL36ZDJpnAT9QvDiaFiEWxaz4ViRYb1eWbjVvFXyOQuR8KxQ7yOeSADLX9rJiwKySoGS-bSnqT5UPe3EYzAC22s9BQV1XdINOBYkG21g6ytLKDV_kWHlx37wAMAdnrnb9Z8Np6vdg8VA_HKSb7GGZRY19KGJAUJM6WSXi8wUQ6AEKUZMLbIGaVQ0HyWAnWGx0zWpwnK3r9M0BTeRqRd7qdpDMrjnqB6SZPVt1F04602Hdto2jbQ5HpF40os9JsHoltf50NZFvocg5x2lnU49w46wMUTIJ857a_TuojTu_fHGEGOiYHEAM8oAbkCNQJYGg9ng2BM1700wH8pmO8-Gz3cy8Bi69vUMKNqhGLx1F2fk5nKrEtrczkDr06AxeIfYDiokRp34BlwgOkOEGsHxXrUYCJJxa76fV0TF7ChvDJmL1Pr46ixwoVdc2mVavpwUioEfrZPBfDBGVcYVKQzBpVKBIUotY_RS1GA9fWkh4xssFDRYI_2Z6yOLq1tFjwIF_uCkInFkH-TdSnnjAL6rntFwKjsJvnqjgYpSleqXY1lhw-PWPtUZ7sipkSczyKx32_AVuiXyGjomOw4Omey3kUmc-bAiRTuRwQsQ9UC_oHIFIpWHcv9mgvc2i4C1OC9f3XgMYfb6CPuRJMgLMMg6xOtxHgPdK-emT6h7TcwavmfOOSkvDGHKhPYGtC8jiWPgeMPwU5Vd1qMgNccsQ5DiAfQs0I_DjtW8isB8KYKM-st8vUp2xQRy4hkVq7]--></g></svg>