<?xml version="1.0" encoding="us-ascii" standalone="no"?><svg xmlns="http://www.w3.org/2000/svg" xmlns:xlink="http://www.w3.org/1999/xlink" contentStyleType="text/css" height="713px" preserveAspectRatio="none" style="width:1419px;height:713px;background:#FFFFFF;" version="1.1" viewBox="0 0 1419 713" width="1419px" zoomAndPan="magnify"><defs/><g><rect fill="#FFFFFF" height="522.6582" style="stroke:#181818;stroke-width:1.0;" width="10" x="44.5" y="91.4883"/><rect fill="#FFFFFF" height="501.3477" style="stroke:#181818;stroke-width:1.0;" width="10" x="224.5" y="112.7988"/><rect fill="#FFFFFF" height="188.8633" style="stroke:#181818;stroke-width:1.0;" width="10" x="674.5" y="395.9727"/><rect fill="#FFFFFF" height="29.3105" style="stroke:#181818;stroke-width:1.0;" width="10" x="1120.5" y="425.2832"/><rect fill="#FFFFFF" height="29.3105" style="stroke:#181818;stroke-width:1.0;" width="10" x="1314" y="526.2148"/><line style="stroke:#181818;stroke-width:0.5;stroke-dasharray:5.0,5.0;" x1="49" x2="49" y1="81.4883" y2="632.1465"/><line style="stroke:#181818;stroke-width:0.5;stroke-dasharray:5.0,5.0;" x1="229.5" x2="229.5" y1="81.4883" y2="632.1465"/><line style="stroke:#181818;stroke-width:0.5;stroke-dasharray:5.0,5.0;" x1="679.5" x2="679.5" y1="81.4883" y2="632.1465"/><line style="stroke:#181818;stroke-width:0.5;stroke-dasharray:5.0,5.0;" x1="1125.5" x2="1125.5" y1="81.4883" y2="632.1465"/><line style="stroke:#181818;stroke-width:0.5;stroke-dasharray:5.0,5.0;" x1="1318.5" x2="1318.5" y1="81.4883" y2="632.1465"/><text fill="#000000" font-family="sans-serif" font-size="14" lengthAdjust="spacing" textLength="83" x="5" y="78.5352">HR Manager</text><ellipse cx="49.5" cy="13.5" fill="#E3E3E3" rx="8" ry="8" style="stroke:#181818;stroke-width:0.5;"/><path d="M49.5,21.5 L49.5,48.5 M36.5,29.5 L62.5,29.5 M49.5,48.5 L36.5,63.5 M49.5,48.5 L62.5,63.5 " fill="none" style="stroke:#181818;stroke-width:0.5;"/><text fill="#000000" font-family="sans-serif" font-size="14" lengthAdjust="spacing" textLength="83" x="5" y="644.6816">HR Manager</text><ellipse cx="49.5" cy="656.1348" fill="#E3E3E3" rx="8" ry="8" style="stroke:#181818;stroke-width:0.5;"/><path d="M49.5,664.1348 L49.5,691.1348 M36.5,672.1348 L62.5,672.1348 M49.5,691.1348 L36.5,706.1348 M49.5,691.1348 L62.5,706.1348 " fill="none" style="stroke:#181818;stroke-width:0.5;"/><rect fill="#E3E3E3" height="30.4883" rx="2.5" ry="2.5" style="stroke:#181818;stroke-width:0.5;" width="130" x="164.5" y="50"/><text fill="#000000" font-family="sans-serif" font-size="14" lengthAdjust="spacing" textLength="116" x="171.5" y="70.5352">:TeamProposalUI</text><rect fill="#E3E3E3" height="30.4883" rx="2.5" ry="2.5" style="stroke:#181818;stroke-width:0.5;" width="130" x="164.5" y="631.1465"/><text fill="#000000" font-family="sans-serif" font-size="14" lengthAdjust="spacing" textLength="116" x="171.5" y="651.6816">:TeamProposalUI</text><rect fill="#E3E3E3" height="30.4883" rx="2.5" ry="2.5" style="stroke:#181818;stroke-width:0.5;" width="186" x="586.5" y="50"/><text fill="#000000" font-family="sans-serif" font-size="14" lengthAdjust="spacing" textLength="172" x="593.5" y="70.5352">:TeamProposalController</text><rect fill="#E3E3E3" height="30.4883" rx="2.5" ry="2.5" style="stroke:#181818;stroke-width:0.5;" width="186" x="586.5" y="631.1465"/><text fill="#000000" font-family="sans-serif" font-size="14" lengthAdjust="spacing" textLength="172" x="593.5" y="651.6816">:TeamProposalController</text><rect fill="#E3E3E3" height="30.4883" rx="2.5" ry="2.5" style="stroke:#181818;stroke-width:0.5;" width="178" x="1036.5" y="50"/><text fill="#000000" font-family="sans-serif" font-size="14" lengthAdjust="spacing" textLength="164" x="1043.5" y="70.5352">:CollaboratorRepository</text><rect fill="#E3E3E3" height="30.4883" rx="2.5" ry="2.5" style="stroke:#181818;stroke-width:0.5;" width="178" x="1036.5" y="631.1465"/><text fill="#000000" font-family="sans-serif" font-size="14" lengthAdjust="spacing" textLength="164" x="1043.5" y="651.6816">:CollaboratorRepository</text><rect fill="#E3E3E3" height="30.4883" rx="2.5" ry="2.5" style="stroke:#181818;stroke-width:0.5;" width="189" x="1224.5" y="50"/><text fill="#000000" font-family="sans-serif" font-size="14" lengthAdjust="spacing" textLength="175" x="1231.5" y="70.5352">:TeamProposalRepository</text><rect fill="#E3E3E3" height="30.4883" rx="2.5" ry="2.5" style="stroke:#181818;stroke-width:0.5;" width="189" x="1224.5" y="631.1465"/><text fill="#000000" font-family="sans-serif" font-size="14" lengthAdjust="spacing" textLength="175" x="1231.5" y="651.6816">:TeamProposalRepository</text><rect fill="#FFFFFF" height="522.6582" style="stroke:#181818;stroke-width:1.0;" width="10" x="44.5" y="91.4883"/><rect fill="#FFFFFF" height="501.3477" style="stroke:#181818;stroke-width:1.0;" width="10" x="224.5" y="112.7988"/><rect fill="#FFFFFF" height="188.8633" style="stroke:#181818;stroke-width:1.0;" width="10" x="674.5" y="395.9727"/><rect fill="#FFFFFF" height="29.3105" style="stroke:#181818;stroke-width:1.0;" width="10" x="1120.5" y="425.2832"/><rect fill="#FFFFFF" height="29.3105" style="stroke:#181818;stroke-width:1.0;" width="10" x="1314" y="526.2148"/><polygon fill="#181818" points="212.5,108.7988,222.5,112.7988,212.5,116.7988,216.5,112.7988" style="stroke:#181818;stroke-width:1.0;"/><line style="stroke:#181818;stroke-width:1.0;" x1="54.5" x2="218.5" y1="112.7988" y2="112.7988"/><text fill="#000000" font-family="sans-serif" font-size="13" lengthAdjust="spacing" textLength="82" x="61.5" y="108.0566">submits data</text><line style="stroke:#181818;stroke-width:1.0;" x1="234.5" x2="276.5" y1="142.1094" y2="142.1094"/><line style="stroke:#181818;stroke-width:1.0;" x1="276.5" x2="276.5" y1="142.1094" y2="155.1094"/><line style="stroke:#181818;stroke-width:1.0;" x1="235.5" x2="276.5" y1="155.1094" y2="155.1094"/><polygon fill="#181818" points="245.5,151.1094,235.5,155.1094,245.5,159.1094,241.5,155.1094" style="stroke:#181818;stroke-width:1.0;"/><text fill="#000000" font-family="sans-serif" font-size="13" lengthAdjust="spacing" textLength="166" x="241.5" y="137.3672">parseInputData(inputData)</text><line style="stroke:#181818;stroke-width:1.0;stroke-dasharray:2.0,2.0;" x1="234.5" x2="276.5" y1="184.4199" y2="184.4199"/><line style="stroke:#181818;stroke-width:1.0;stroke-dasharray:2.0,2.0;" x1="276.5" x2="276.5" y1="184.4199" y2="197.4199"/><line style="stroke:#181818;stroke-width:1.0;stroke-dasharray:2.0,2.0;" x1="235.5" x2="276.5" y1="197.4199" y2="197.4199"/><polygon fill="#181818" points="245.5,193.4199,235.5,197.4199,245.5,201.4199,241.5,197.4199" style="stroke:#181818;stroke-width:1.0;"/><text fill="#000000" font-family="sans-serif" font-size="13" lengthAdjust="spacing" textLength="255" x="241.5" y="179.6777">maxTeamSize, minTeamSize, skillNames</text><line style="stroke:#181818;stroke-width:1.0;" x1="234.5" x2="276.5" y1="226.7305" y2="226.7305"/><line style="stroke:#181818;stroke-width:1.0;" x1="276.5" x2="276.5" y1="226.7305" y2="239.7305"/><line style="stroke:#181818;stroke-width:1.0;" x1="235.5" x2="276.5" y1="239.7305" y2="239.7305"/><polygon fill="#181818" points="245.5,235.7305,235.5,239.7305,245.5,243.7305,241.5,239.7305" style="stroke:#181818;stroke-width:1.0;"/><text fill="#000000" font-family="sans-serif" font-size="13" lengthAdjust="spacing" textLength="245" x="241.5" y="221.9883">convertSkillNamesToSkills(skillNames)</text><line style="stroke:#181818;stroke-width:1.0;stroke-dasharray:2.0,2.0;" x1="234.5" x2="276.5" y1="269.041" y2="269.041"/><line style="stroke:#181818;stroke-width:1.0;stroke-dasharray:2.0,2.0;" x1="276.5" x2="276.5" y1="269.041" y2="282.041"/><line style="stroke:#181818;stroke-width:1.0;stroke-dasharray:2.0,2.0;" x1="235.5" x2="276.5" y1="282.041" y2="282.041"/><polygon fill="#181818" points="245.5,278.041,235.5,282.041,245.5,286.041,241.5,282.041" style="stroke:#181818;stroke-width:1.0;"/><text fill="#000000" font-family="sans-serif" font-size="13" lengthAdjust="spacing" textLength="86" x="241.5" y="264.2988">requiredSkills</text><line style="stroke:#181818;stroke-width:1.0;" x1="234.5" x2="276.5" y1="311.3516" y2="311.3516"/><line style="stroke:#181818;stroke-width:1.0;" x1="276.5" x2="276.5" y1="311.3516" y2="324.3516"/><line style="stroke:#181818;stroke-width:1.0;" x1="235.5" x2="276.5" y1="324.3516" y2="324.3516"/><polygon fill="#181818" points="245.5,320.3516,235.5,324.3516,245.5,328.3516,241.5,324.3516" style="stroke:#181818;stroke-width:1.0;"/><text fill="#000000" font-family="sans-serif" font-size="13" lengthAdjust="spacing" textLength="357" x="241.5" y="306.6094">confirmData(maxTeamSize, minTeamSize, requiredSkills)</text><line style="stroke:#181818;stroke-width:1.0;stroke-dasharray:2.0,2.0;" x1="234.5" x2="276.5" y1="353.6621" y2="353.6621"/><line style="stroke:#181818;stroke-width:1.0;stroke-dasharray:2.0,2.0;" x1="276.5" x2="276.5" y1="353.6621" y2="366.6621"/><line style="stroke:#181818;stroke-width:1.0;stroke-dasharray:2.0,2.0;" x1="235.5" x2="276.5" y1="366.6621" y2="366.6621"/><polygon fill="#181818" points="245.5,362.6621,235.5,366.6621,245.5,370.6621,241.5,366.6621" style="stroke:#181818;stroke-width:1.0;"/><text fill="#000000" font-family="sans-serif" font-size="13" lengthAdjust="spacing" textLength="64" x="241.5" y="348.9199">confirmed</text><polygon fill="#181818" points="662.5,391.9727,672.5,395.9727,662.5,399.9727,666.5,395.9727" style="stroke:#181818;stroke-width:1.0;"/><line style="stroke:#181818;stroke-width:1.0;" x1="234.5" x2="668.5" y1="395.9727" y2="395.9727"/><text fill="#000000" font-family="sans-serif" font-size="13" lengthAdjust="spacing" textLength="421" x="241.5" y="391.2305">generateTeamProposal(maxTeamSize, minTeamSize, requiredSkills)</text><polygon fill="#181818" points="1108.5,421.2832,1118.5,425.2832,1108.5,429.2832,1112.5,425.2832" style="stroke:#181818;stroke-width:1.0;"/><line style="stroke:#181818;stroke-width:1.0;" x1="684.5" x2="1114.5" y1="425.2832" y2="425.2832"/><text fill="#000000" font-family="sans-serif" font-size="13" lengthAdjust="spacing" textLength="130" x="691.5" y="420.541">getAllCollaborators()</text><polygon fill="#181818" points="695.5,450.5938,685.5,454.5938,695.5,458.5938,691.5,454.5938" style="stroke:#181818;stroke-width:1.0;"/><line style="stroke:#181818;stroke-width:1.0;stroke-dasharray:2.0,2.0;" x1="689.5" x2="1124.5" y1="454.5938" y2="454.5938"/><text fill="#000000" font-family="sans-serif" font-size="13" lengthAdjust="spacing" textLength="100" x="701.5" y="449.8516">allCollaborators</text><line style="stroke:#181818;stroke-width:1.0;" x1="684.5" x2="726.5" y1="483.9043" y2="483.9043"/><line style="stroke:#181818;stroke-width:1.0;" x1="726.5" x2="726.5" y1="483.9043" y2="496.9043"/><line style="stroke:#181818;stroke-width:1.0;" x1="685.5" x2="726.5" y1="496.9043" y2="496.9043"/><polygon fill="#181818" points="695.5,492.9043,685.5,496.9043,695.5,500.9043,691.5,496.9043" style="stroke:#181818;stroke-width:1.0;"/><text fill="#000000" font-family="sans-serif" font-size="13" lengthAdjust="spacing" textLength="422" x="691.5" y="479.1621">createTeamProposal(allCollaborators, requiredSkills, maxTeamSize)</text><polygon fill="#181818" points="1302,522.2148,1312,526.2148,1302,530.2148,1306,526.2148" style="stroke:#181818;stroke-width:1.0;"/><line style="stroke:#181818;stroke-width:1.0;" x1="684.5" x2="1308" y1="526.2148" y2="526.2148"/><text fill="#000000" font-family="sans-serif" font-size="13" lengthAdjust="spacing" textLength="204" x="691.5" y="521.4727">addTeamProposal(teamProposal)</text><polygon fill="#181818" points="695.5,551.5254,685.5,555.5254,695.5,559.5254,691.5,555.5254" style="stroke:#181818;stroke-width:1.0;"/><line style="stroke:#181818;stroke-width:1.0;stroke-dasharray:2.0,2.0;" x1="689.5" x2="1318" y1="555.5254" y2="555.5254"/><text fill="#000000" font-family="sans-serif" font-size="13" lengthAdjust="spacing" textLength="85" x="701.5" y="550.7832">teamProposal</text><polygon fill="#181818" points="245.5,580.8359,235.5,584.8359,245.5,588.8359,241.5,584.8359" style="stroke:#181818;stroke-width:1.0;"/><line style="stroke:#181818;stroke-width:1.0;stroke-dasharray:2.0,2.0;" x1="239.5" x2="678.5" y1="584.8359" y2="584.8359"/><text fill="#000000" font-family="sans-serif" font-size="13" lengthAdjust="spacing" textLength="85" x="251.5" y="580.0938">teamProposal</text><polygon fill="#181818" points="60.5,610.1465,50.5,614.1465,60.5,618.1465,56.5,614.1465" style="stroke:#181818;stroke-width:1.0;"/><line style="stroke:#181818;stroke-width:1.0;stroke-dasharray:2.0,2.0;" x1="54.5" x2="228.5" y1="614.1465" y2="614.1465"/><text fill="#000000" font-family="sans-serif" font-size="13" lengthAdjust="spacing" textLength="146" x="66.5" y="609.4043">displays team proposal</text><!--SRC=[bLF9Ri8m4BtxAonE8C4FSAXKqGCSMbKi7p0aGx3majeEBVtw3cv2RASWzHBPcRVCPdSIkWOBYYkZJN6qHY7tja7cRf4QYXDKkF4NYTnYuK5NCWQu8vJcK-YA7q0wP0mARomVBTVy5JHHxOY3uylrAoE25uMeGNi-ccyHrBirjN4WTwi0sgqUO1P6UskaR0NxQyPPq4_O6mkKnXg9AkXmQJbfw85Rnin3eKnn1e-XCaOVFdkY0lYSksQlX7Uy10yzZ6fZ5Ev0vEnmfUl6ln1iBBhJ980wb8Alg_D6VEEKAw7x2mr0oZTGw1BPmkWpMh-vHRScdDsu9wGM5ZyQOR7yXULY1s5LIF1-9gb0AjugODdfzbEZQ8KQQHOOD_SVHhVMHgl08eDWbmuycFfdAUE06oTQsOgmWSOihmCoFLRYGxqqmqYei9Yt8zVEsp2DTsIIg-ThUqssB1C37rsYFWmNVg0rw4Ci5VTWg1LdsUtAFNOytNQthgzjpalXQWaN5vYy_eDARoww4Ui7]--></g></svg>