<?xml version="1.0" encoding="us-ascii" standalone="no"?><svg xmlns="http://www.w3.org/2000/svg" xmlns:xlink="http://www.w3.org/1999/xlink" contentStyleType="text/css" height="667px" preserveAspectRatio="none" style="width:992px;height:667px;background:#FFFFFF;" version="1.1" viewBox="0 0 992 667" width="992px" zoomAndPan="magnify"><defs/><g><!--class Employee--><g id="elem_Employee"><rect codeLine="6" fill="#F1F1F1" height="196.3945" id="Employee" rx="2.5" ry="2.5" style="stroke:#181818;stroke-width:0.5;" width="291" x="474.5" y="289.98"/><ellipse cx="582.75" cy="305.98" fill="#ADD1B2" rx="11" ry="11" style="stroke:#181818;stroke-width:1.0;"/><path d="M585.7231,311.6231 Q585.1421,311.9219 584.5029,312.0713 Q583.8638,312.2207 583.1582,312.2207 Q580.6514,312.2207 579.3315,310.5689 Q578.0117,308.917 578.0117,305.7959 Q578.0117,302.6665 579.3315,301.0147 Q580.6514,299.3628 583.1582,299.3628 Q583.8638,299.3628 584.5112,299.5122 Q585.1587,299.6616 585.7231,299.9605 L585.7231,302.6831 Q585.0923,302.1021 584.4988,301.8323 Q583.9053,301.5625 583.2744,301.5625 Q581.9297,301.5625 581.2449,302.6292 Q580.5601,303.6958 580.5601,305.7959 Q580.5601,307.8877 581.2449,308.9544 Q581.9297,310.021 583.2744,310.021 Q583.9053,310.021 584.4988,309.7512 Q585.0923,309.4815 585.7231,308.9004 Z " fill="#000000"/><text fill="#000000" font-family="sans-serif" font-size="14" lengthAdjust="spacing" textLength="66" x="603.25" y="311.271">Employee</text><line style="stroke:#181818;stroke-width:0.5;" x1="475.5" x2="764.5" y1="321.98" y2="321.98"/><rect fill="none" height="6" style="stroke:#C82930;stroke-width:1.0;" width="6" x="482.5" y="332.7241"/><text fill="#000000" font-family="sans-serif" font-size="14" lengthAdjust="spacing" textLength="87" x="494.5" y="339.5152">name: String</text><rect fill="none" height="6" style="stroke:#C82930;stroke-width:1.0;" width="6" x="482.5" y="349.2124"/><text fill="#000000" font-family="sans-serif" font-size="14" lengthAdjust="spacing" textLength="86" x="494.5" y="356.0034">email: String</text><rect fill="none" height="6" style="stroke:#C82930;stroke-width:1.0;" width="6" x="482.5" y="365.7007"/><text fill="#000000" font-family="sans-serif" font-size="14" lengthAdjust="spacing" textLength="105" x="494.5" y="372.4917">position: String</text><rect fill="none" height="6" style="stroke:#C82930;stroke-width:1.0;" width="6" x="482.5" y="382.189"/><text fill="#000000" font-family="sans-serif" font-size="14" lengthAdjust="spacing" textLength="113" x="494.5" y="388.98">skills: Set&lt;Skill&gt;</text><line style="stroke:#181818;stroke-width:0.5;" x1="475.5" x2="764.5" y1="395.9331" y2="395.9331"/><ellipse cx="485.5" cy="409.6773" fill="#84BE84" rx="3" ry="3" style="stroke:#038048;stroke-width:1.0;"/><text fill="#000000" font-family="sans-serif" font-size="14" lengthAdjust="spacing" textLength="265" x="494.5" y="413.4683">Employee(name, email, position, skills)</text><ellipse cx="485.5" cy="426.1655" fill="#84BE84" rx="3" ry="3" style="stroke:#038048;stroke-width:1.0;"/><text fill="#000000" font-family="sans-serif" font-size="14" lengthAdjust="spacing" textLength="120" x="494.5" y="429.9566">getName(): String</text><ellipse cx="485.5" cy="442.6538" fill="#84BE84" rx="3" ry="3" style="stroke:#038048;stroke-width:1.0;"/><text fill="#000000" font-family="sans-serif" font-size="14" lengthAdjust="spacing" textLength="118" x="494.5" y="446.4448">getEmail(): String</text><ellipse cx="485.5" cy="459.1421" fill="#84BE84" rx="3" ry="3" style="stroke:#038048;stroke-width:1.0;"/><text fill="#000000" font-family="sans-serif" font-size="14" lengthAdjust="spacing" textLength="136" x="494.5" y="462.9331">getPosition(): String</text><ellipse cx="485.5" cy="475.6304" fill="#84BE84" rx="3" ry="3" style="stroke:#038048;stroke-width:1.0;"/><text fill="#000000" font-family="sans-serif" font-size="14" lengthAdjust="spacing" textLength="146" x="494.5" y="479.4214">getSkills(): Set&lt;Skill&gt;</text></g><!--class Skill--><g id="elem_Skill"><rect codeLine="18" fill="#F1F1F1" height="97.4648" id="Skill" rx="2.5" ry="2.5" style="stroke:#181818;stroke-width:0.5;" width="146" x="196" y="563.38"/><ellipse cx="250.75" cy="579.38" fill="#ADD1B2" rx="11" ry="11" style="stroke:#181818;stroke-width:1.0;"/><path d="M253.7231,585.0231 Q253.1421,585.3219 252.5029,585.4713 Q251.8638,585.6207 251.1582,585.6207 Q248.6514,585.6207 247.3315,583.9689 Q246.0117,582.317 246.0117,579.1959 Q246.0117,576.0665 247.3315,574.4147 Q248.6514,572.7628 251.1582,572.7628 Q251.8638,572.7628 252.5112,572.9122 Q253.1587,573.0616 253.7231,573.3605 L253.7231,576.0831 Q253.0923,575.5021 252.4988,575.2323 Q251.9053,574.9625 251.2744,574.9625 Q249.9297,574.9625 249.2449,576.0292 Q248.5601,577.0958 248.5601,579.1959 Q248.5601,581.2877 249.2449,582.3544 Q249.9297,583.421 251.2744,583.421 Q251.9053,583.421 252.4988,583.1512 Q253.0923,582.8815 253.7231,582.3004 Z " fill="#000000"/><text fill="#000000" font-family="sans-serif" font-size="14" lengthAdjust="spacing" textLength="28" x="271.25" y="584.671">Skill</text><line style="stroke:#181818;stroke-width:0.5;" x1="197" x2="341" y1="595.38" y2="595.38"/><rect fill="none" height="6" style="stroke:#C82930;stroke-width:1.0;" width="6" x="204" y="606.1241"/><text fill="#000000" font-family="sans-serif" font-size="14" lengthAdjust="spacing" textLength="87" x="216" y="612.9152">name: String</text><line style="stroke:#181818;stroke-width:0.5;" x1="197" x2="341" y1="619.8683" y2="619.8683"/><ellipse cx="207" cy="633.6124" fill="#84BE84" rx="3" ry="3" style="stroke:#038048;stroke-width:1.0;"/><text fill="#000000" font-family="sans-serif" font-size="14" lengthAdjust="spacing" textLength="76" x="216" y="637.4034">Skill(name)</text><ellipse cx="207" cy="650.1007" fill="#84BE84" rx="3" ry="3" style="stroke:#038048;stroke-width:1.0;"/><text fill="#000000" font-family="sans-serif" font-size="14" lengthAdjust="spacing" textLength="120" x="216" y="653.8917">getName(): String</text></g><!--class TeamProposal--><g id="elem_TeamProposal"><rect codeLine="24" fill="#F1F1F1" height="163.418" id="TeamProposal" rx="2.5" ry="2.5" style="stroke:#181818;stroke-width:0.5;" width="432" x="7" y="306.47"/><ellipse cx="169.75" cy="322.47" fill="#ADD1B2" rx="11" ry="11" style="stroke:#181818;stroke-width:1.0;"/><path d="M172.7231,328.1131 Q172.1421,328.4119 171.5029,328.5613 Q170.8638,328.7107 170.1582,328.7107 Q167.6514,328.7107 166.3315,327.0589 Q165.0117,325.407 165.0117,322.2859 Q165.0117,319.1565 166.3315,317.5047 Q167.6514,315.8528 170.1582,315.8528 Q170.8638,315.8528 171.5112,316.0022 Q172.1587,316.1516 172.7231,316.4505 L172.7231,319.1731 Q172.0923,318.5921 171.4988,318.3223 Q170.9053,318.0525 170.2744,318.0525 Q168.9297,318.0525 168.2449,319.1192 Q167.5601,320.1858 167.5601,322.2859 Q167.5601,324.3777 168.2449,325.4444 Q168.9297,326.511 170.2744,326.511 Q170.9053,326.511 171.4988,326.2412 Q172.0923,325.9715 172.7231,325.3904 Z " fill="#000000"/><text fill="#000000" font-family="sans-serif" font-size="14" lengthAdjust="spacing" textLength="98" x="190.25" y="327.761">TeamProposal</text><line style="stroke:#181818;stroke-width:0.5;" x1="8" x2="438" y1="338.47" y2="338.47"/><rect fill="none" height="6" style="stroke:#C82930;stroke-width:1.0;" width="6" x="15" y="349.2141"/><text fill="#000000" font-family="sans-serif" font-size="14" lengthAdjust="spacing" textLength="122" x="27" y="356.0052">maxTeamSize: int</text><rect fill="none" height="6" style="stroke:#C82930;stroke-width:1.0;" width="6" x="15" y="365.7024"/><text fill="#000000" font-family="sans-serif" font-size="14" lengthAdjust="spacing" textLength="118" x="27" y="372.4934">minTeamSize: int</text><rect fill="none" height="6" style="stroke:#C82930;stroke-width:1.0;" width="6" x="15" y="382.1907"/><text fill="#000000" font-family="sans-serif" font-size="14" lengthAdjust="spacing" textLength="173" x="27" y="388.9817">requiredSkills: Set&lt;Skill&gt;</text><line style="stroke:#181818;stroke-width:0.5;" x1="8" x2="438" y1="395.9348" y2="395.9348"/><ellipse cx="18" cy="409.679" fill="#84BE84" rx="3" ry="3" style="stroke:#038048;stroke-width:1.0;"/><text fill="#000000" font-family="sans-serif" font-size="14" lengthAdjust="spacing" textLength="406" x="27" y="413.47">TeamProposal(maxTeamSize, minTeamSize, requiredSkills)</text><ellipse cx="18" cy="426.1673" fill="#84BE84" rx="3" ry="3" style="stroke:#038048;stroke-width:1.0;"/><text fill="#000000" font-family="sans-serif" font-size="14" lengthAdjust="spacing" textLength="153" x="27" y="429.9583">getMaxTeamSize(): int</text><ellipse cx="18" cy="442.6555" fill="#84BE84" rx="3" ry="3" style="stroke:#038048;stroke-width:1.0;"/><text fill="#000000" font-family="sans-serif" font-size="14" lengthAdjust="spacing" textLength="149" x="27" y="446.4466">getMinTeamSize(): int</text><ellipse cx="18" cy="459.1438" fill="#84BE84" rx="3" ry="3" style="stroke:#038048;stroke-width:1.0;"/><text fill="#000000" font-family="sans-serif" font-size="14" lengthAdjust="spacing" textLength="208" x="27" y="462.9348">getRequiredSkills(): Set&lt;Skill&gt;</text></g><!--class EmployeeRepository--><g id="elem_EmployeeRepository"><rect codeLine="34" fill="#F1F1F1" height="64.4883" id="EmployeeRepository" rx="2.5" ry="2.5" style="stroke:#181818;stroke-width:0.5;" width="473" x="383.5" y="148.49"/><ellipse cx="546.25" cy="164.49" fill="#ADD1B2" rx="11" ry="11" style="stroke:#181818;stroke-width:1.0;"/><path d="M549.2231,170.1331 Q548.6421,170.4319 548.0029,170.5813 Q547.3638,170.7307 546.6582,170.7307 Q544.1514,170.7307 542.8315,169.0789 Q541.5117,167.427 541.5117,164.3059 Q541.5117,161.1765 542.8315,159.5247 Q544.1514,157.8728 546.6582,157.8728 Q547.3638,157.8728 548.0112,158.0222 Q548.6587,158.1716 549.2231,158.4705 L549.2231,161.1931 Q548.5923,160.6121 547.9988,160.3423 Q547.4053,160.0725 546.7744,160.0725 Q545.4297,160.0725 544.7449,161.1392 Q544.0601,162.2058 544.0601,164.3059 Q544.0601,166.3977 544.7449,167.4644 Q545.4297,168.531 546.7744,168.531 Q547.4053,168.531 547.9988,168.2612 Q548.5923,167.9915 549.2231,167.4104 Z " fill="#000000"/><text fill="#000000" font-family="sans-serif" font-size="14" lengthAdjust="spacing" textLength="139" x="566.75" y="169.781">EmployeeRepository</text><line style="stroke:#181818;stroke-width:0.5;" x1="384.5" x2="855.5" y1="180.49" y2="180.49"/><line style="stroke:#181818;stroke-width:0.5;" x1="384.5" x2="855.5" y1="188.49" y2="188.49"/><ellipse cx="394.5" cy="202.2341" fill="#84BE84" rx="3" ry="3" style="stroke:#038048;stroke-width:1.0;"/><text fill="#000000" font-family="sans-serif" font-size="14" lengthAdjust="spacing" textLength="447" x="403.5" y="206.0252">getEmployeesBySkills(requiredSkills: Set&lt;Skill&gt;): List&lt;Employee&gt;</text></g><!--class TeamProposalGenerator--><g id="elem_TeamProposalGenerator"><rect codeLine="38" fill="#F1F1F1" height="64.4883" id="TeamProposalGenerator" rx="2.5" ry="2.5" style="stroke:#181818;stroke-width:0.5;" width="730" x="255" y="7"/><ellipse cx="532.25" cy="23" fill="#ADD1B2" rx="11" ry="11" style="stroke:#181818;stroke-width:1.0;"/><path d="M535.2231,28.6431 Q534.6421,28.9419 534.0029,29.0913 Q533.3638,29.2407 532.6582,29.2407 Q530.1514,29.2407 528.8315,27.5889 Q527.5117,25.937 527.5117,22.8159 Q527.5117,19.6865 528.8315,18.0347 Q530.1514,16.3828 532.6582,16.3828 Q533.3638,16.3828 534.0112,16.5322 Q534.6587,16.6816 535.2231,16.9805 L535.2231,19.7031 Q534.5923,19.1221 533.9988,18.8523 Q533.4053,18.5825 532.7744,18.5825 Q531.4297,18.5825 530.7449,19.6492 Q530.0601,20.7158 530.0601,22.8159 Q530.0601,24.9077 530.7449,25.9744 Q531.4297,27.041 532.7744,27.041 Q533.4053,27.041 533.9988,26.7712 Q534.5923,26.5015 535.2231,25.9204 Z " fill="#000000"/><text fill="#000000" font-family="sans-serif" font-size="14" lengthAdjust="spacing" textLength="167" x="552.75" y="28.291">TeamProposalGenerator</text><line style="stroke:#181818;stroke-width:0.5;" x1="256" x2="984" y1="39" y2="39"/><line style="stroke:#181818;stroke-width:0.5;" x1="256" x2="984" y1="47" y2="47"/><ellipse cx="266" cy="60.7441" fill="#84BE84" rx="3" ry="3" style="stroke:#038048;stroke-width:1.0;"/><text fill="#000000" font-family="sans-serif" font-size="14" lengthAdjust="spacing" textLength="704" x="275" y="64.5352">generateTeamProposal(maxTeamSize: int, minTeamSize: int, requiredSkills: Set&lt;Skill&gt;): TeamProposal</text></g><!--link Employee to Skill--><g id="link_Employee_Skill"><path codeLine="42" d="M474.19,481.37 C428.8,510.07 390.8229,534.0874 352.5929,558.2574 " fill="none" id="Employee-to-Skill" style="stroke:#181818;stroke-width:1.0;"/><polygon fill="#181818" points="342.45,564.67,349.659,564.8447,352.5929,558.2574,345.3839,558.0827,342.45,564.67" style="stroke:#181818;stroke-width:1.0;"/><text fill="#000000" font-family="sans-serif" font-size="13" lengthAdjust="spacing" textLength="65" x="414" y="529.9484">possesses</text></g><!--link TeamProposal to Skill--><g id="link_TeamProposal_Skill"><path codeLine="43" d="M239.8,470.24 C246.27,501.44 251.0033,524.31 256.6233,551.41 " fill="none" id="TeamProposal-to-Skill" style="stroke:#181818;stroke-width:1.0;"/><polygon fill="#181818" points="259.06,563.16,261.7583,556.4728,256.6233,551.41,253.925,558.0972,259.06,563.16" style="stroke:#181818;stroke-width:1.0;"/><text fill="#000000" font-family="sans-serif" font-size="13" lengthAdjust="spacing" textLength="51" x="253" y="529.9484">requires</text><text fill="#000000" font-family="sans-serif" font-size="13" lengthAdjust="spacing" textLength="8" x="232.9" y="490.5184">1</text></g><!--link EmployeeRepository to Employee--><g id="link_EmployeeRepository_Employee"><path codeLine="44" d="M620,213.39 C620,233.98 620,256.06 620,283.64 " fill="none" id="EmployeeRepository-to-Employee" style="stroke:#181818;stroke-width:1.0;"/><polygon fill="#181818" points="620,289.64,624,280.64,620,284.64,616,280.64,620,289.64" style="stroke:#181818;stroke-width:1.0;"/><text fill="#000000" font-family="sans-serif" font-size="13" lengthAdjust="spacing" textLength="54" x="621" y="256.5484">retrieves</text></g><!--link TeamProposalGenerator to EmployeeRepository--><g id="link_TeamProposalGenerator_EmployeeRepository"><path codeLine="45" d="M620,71.9 C620,94.73 620,119.41 620,142.21 " fill="none" id="TeamProposalGenerator-to-EmployeeRepository" style="stroke:#181818;stroke-width:1.0;"/><polygon fill="#181818" points="620,148.21,624,139.21,620,143.21,616,139.21,620,148.21" style="stroke:#181818;stroke-width:1.0;"/><text fill="#000000" font-family="sans-serif" font-size="13" lengthAdjust="spacing" textLength="29" x="621" y="115.0584">uses</text></g><!--SRC=[VPDDJiCm48NtEONL3Irr5cohgWkaYWsWgk42LZgaLlqJR1S8YBjZEqxiX8GeYsJU-9kPP_j6NwYeYI8SSIbaULQI0pBg2bbKQb9UI0M5QHWW1QKXec9fWZwJa_oWeaAlXEbKOLI0QMf0jMID-ycoaX6jqPxNJ3O0w3j3zicH81msg33AOa88EA5i5AkbfePACGhRYenf6mIpBTptpWlhlixIyN6Bn3q5XuMha5s1URPvozK0x-Dxjt9AE0JMbEPRqLw9ZVrq7lZ_UGFMROBlVBx1dlO2X1-KjAEH2ENaqyKB-cNPL9WkJCLKMC7RbIeu5NDkfZMM2HkdH3pY9Bq_nILkXAvogqN27-qu0CxvsUtr4Vp-IjK47y86jgg-Rm9cVbnRu95gi-tMxAPjVW01YjX2IHqVWJcZ_5puZ_yO_TjBIdETz9Sdps_3ATguCwt1lTdW92pk5eEqK4Xd4sxb-IvUJ9TgZnYyZuXnw3GzeMpGrNNn2m00]--></g></svg>