<?xml version="1.0" encoding="us-ascii" standalone="no"?><svg xmlns="http://www.w3.org/2000/svg" xmlns:xlink="http://www.w3.org/1999/xlink" contentStyleType="text/css" height="440px" preserveAspectRatio="none" style="width:798px;height:440px;background:#FFFFFF;" version="1.1" viewBox="0 0 798 440" width="798px" zoomAndPan="magnify"><defs/><g><text fill="#000000" font-family="sans-serif" font-size="14" font-weight="bold" lengthAdjust="spacing" textLength="396" x="203.25" y="30.1074">System Sequence Diagram (SSD) - Register Green Space</text><rect fill="#FFFFFF" height="214.7461" style="stroke:#181818;stroke-width:1.0;" width="10" x="97.5" y="133.2422"/><rect fill="#FFFFFF" height="31.291" style="stroke:#181818;stroke-width:1.0;" width="10" x="431.5" y="156.5332"/><rect fill="#FFFFFF" height="119.873" style="stroke:#181818;stroke-width:1.0;" width="10" x="431.5" y="219.1152"/><line style="stroke:#181818;stroke-width:0.5;stroke-dasharray:5.0,5.0;" x1="102" x2="102" y1="123.2422" y2="356.9883"/><line style="stroke:#181818;stroke-width:0.5;stroke-dasharray:5.0,5.0;" x1="436.5" x2="436.5" y1="123.2422" y2="356.9883"/><text fill="#000000" font-family="sans-serif" font-size="14" lengthAdjust="spacing" textLength="189" x="5" y="119.7285">Green Space Manager (GSM)</text><ellipse cx="102.5" cy="53.1211" fill="#E3E3E3" rx="8" ry="8" style="stroke:#181818;stroke-width:0.5;"/><path d="M102.5,61.1211 L102.5,88.1211 M89.5,69.1211 L115.5,69.1211 M102.5,88.1211 L89.5,103.1211 M102.5,88.1211 L115.5,103.1211 " fill="none" style="stroke:#181818;stroke-width:0.5;"/><text fill="#000000" font-family="sans-serif" font-size="14" lengthAdjust="spacing" textLength="189" x="5" y="371.0957">Green Space Manager (GSM)</text><ellipse cx="102.5" cy="383.1094" fill="#E3E3E3" rx="8" ry="8" style="stroke:#181818;stroke-width:0.5;"/><path d="M102.5,391.1094 L102.5,418.1094 M89.5,399.1094 L115.5,399.1094 M102.5,418.1094 L89.5,433.1094 M102.5,418.1094 L115.5,433.1094 " fill="none" style="stroke:#181818;stroke-width:0.5;"/><rect fill="#E3E3E3" height="32.6211" rx="2.5" ry="2.5" style="stroke:#181818;stroke-width:0.5;" width="64" x="404.5" y="89.6211"/><text fill="#000000" font-family="sans-serif" font-size="14" lengthAdjust="spacing" textLength="50" x="411.5" y="111.7285">:System</text><rect fill="#E3E3E3" height="32.6211" rx="2.5" ry="2.5" style="stroke:#181818;stroke-width:0.5;" width="64" x="404.5" y="355.9883"/><text fill="#000000" font-family="sans-serif" font-size="14" lengthAdjust="spacing" textLength="50" x="411.5" y="378.0957">:System</text><rect fill="#FFFFFF" height="214.7461" style="stroke:#181818;stroke-width:1.0;" width="10" x="97.5" y="133.2422"/><rect fill="#FFFFFF" height="31.291" style="stroke:#181818;stroke-width:1.0;" width="10" x="431.5" y="156.5332"/><rect fill="#FFFFFF" height="119.873" style="stroke:#181818;stroke-width:1.0;" width="10" x="431.5" y="219.1152"/><polygon fill="#181818" points="419.5,152.5332,429.5,156.5332,419.5,160.5332,423.5,156.5332" style="stroke:#181818;stroke-width:1.0;"/><line style="stroke:#181818;stroke-width:1.0;" x1="107.5" x2="425.5" y1="156.5332" y2="156.5332"/><text fill="#000000" font-family="sans-serif" font-size="13" font-weight="bold" lengthAdjust="spacing" textLength="7" x="114.5" y="151.2705">1</text><text fill="#000000" font-family="sans-serif" font-size="13" lengthAdjust="spacing" textLength="187" x="125.5" y="151.2705">requests to register green space</text><polygon fill="#181818" points="118.5,183.8242,108.5,187.8242,118.5,191.8242,114.5,187.8242" style="stroke:#181818;stroke-width:1.0;"/><line style="stroke:#181818;stroke-width:1.0;stroke-dasharray:2.0,2.0;" x1="112.5" x2="435.5" y1="187.8242" y2="187.8242"/><text fill="#000000" font-family="sans-serif" font-size="13" font-weight="bold" lengthAdjust="spacing" textLength="7" x="124.5" y="182.5615">2</text><text fill="#000000" font-family="sans-serif" font-size="13" lengthAdjust="spacing" textLength="289" x="135.5" y="182.5615">prompts for required fields (e.g., name, area, type)</text><polygon fill="#181818" points="419.5,215.1152,429.5,219.1152,419.5,223.1152,423.5,219.1152" style="stroke:#181818;stroke-width:1.0;"/><line style="stroke:#181818;stroke-width:1.0;" x1="107.5" x2="425.5" y1="219.1152" y2="219.1152"/><text fill="#000000" font-family="sans-serif" font-size="13" font-weight="bold" lengthAdjust="spacing" textLength="7" x="114.5" y="213.8525">3</text><text fill="#000000" font-family="sans-serif" font-size="13" lengthAdjust="spacing" textLength="274" x="125.5" y="213.8525">provides green space details (name, area, type)</text><line style="stroke:#181818;stroke-width:1.0;" x1="441.5" x2="483.5" y1="250.4063" y2="250.4063"/><line style="stroke:#181818;stroke-width:1.0;" x1="483.5" x2="483.5" y1="250.4063" y2="263.4063"/><line style="stroke:#181818;stroke-width:1.0;" x1="442.5" x2="483.5" y1="263.4063" y2="263.4063"/><polygon fill="#181818" points="452.5,259.4063,442.5,263.4063,452.5,267.4063,448.5,263.4063" style="stroke:#181818;stroke-width:1.0;"/><text fill="#000000" font-family="sans-serif" font-size="13" font-weight="bold" lengthAdjust="spacing" textLength="7" x="448.5" y="245.1436">4</text><text fill="#000000" font-family="sans-serif" font-size="13" lengthAdjust="spacing" textLength="332" x="459.5" y="245.1436">validate details and create appropriate green space object</text><line style="stroke:#181818;stroke-width:1.0;" x1="441.5" x2="483.5" y1="294.6973" y2="294.6973"/><line style="stroke:#181818;stroke-width:1.0;" x1="483.5" x2="483.5" y1="294.6973" y2="307.6973"/><line style="stroke:#181818;stroke-width:1.0;" x1="442.5" x2="483.5" y1="307.6973" y2="307.6973"/><polygon fill="#181818" points="452.5,303.6973,442.5,307.6973,452.5,311.6973,448.5,307.6973" style="stroke:#181818;stroke-width:1.0;"/><text fill="#000000" font-family="sans-serif" font-size="13" font-weight="bold" lengthAdjust="spacing" textLength="7" x="448.5" y="289.4346">5</text><text fill="#000000" font-family="sans-serif" font-size="13" lengthAdjust="spacing" textLength="179" x="459.5" y="289.4346">store green space in repository</text><polygon fill="#181818" points="118.5,334.9883,108.5,338.9883,118.5,342.9883,114.5,338.9883" style="stroke:#181818;stroke-width:1.0;"/><line style="stroke:#181818;stroke-width:1.0;stroke-dasharray:2.0,2.0;" x1="112.5" x2="435.5" y1="338.9883" y2="338.9883"/><text fill="#000000" font-family="sans-serif" font-size="13" font-weight="bold" lengthAdjust="spacing" textLength="7" x="124.5" y="333.7256">6</text><text fill="#000000" font-family="sans-serif" font-size="13" lengthAdjust="spacing" textLength="258" x="135.5" y="333.7256">confirms successful green space registration</text><!--SRC=[XP9DZi8m38NtFON52YJW02ncXSIApVG49dMBXpG9iSkejn-t_AYCO2Ohgtx-tejJEN58cB65DeReZZcs19exAkJHIUXEs52flIV8v1H3uwS2EM8LlpaqKACNAWfbDMdPYr8B9Pqx2evWozWCydbPRXUmWazgs1GPTfaeG6a-DekTnj2r1yfMEuqPPfC-x35ObWppNRbVp005h2WiXxBZX45XjhaQZyrhEPBuWagZkW0xLi3gunvoOnUpcA826gs-9Mj6PncJ3KCFp9qBjtF3h8muW3UGR9F9QBLTO41pfWfg9by9p6dTh9SGiAKbO2PSWlQ95YEjefScl-CQ_y8LoJIYpIgoDuFNw7_JJ_WNz5mDsZiJGmNEWFO9axcdp4CzjO-7B_ix_gAAlUVp30TRJuh2rkdVhzF5K7Dk1QHpZaJgpZzXhY-MKJc6Dsly0G00]--></g></svg>